<?xml version="1.0" encoding="UTF-8"?>
<svg id="_Слой_2" data-name="Слой 2" xmlns="http://www.w3.org/2000/svg" viewBox="0 0 659.08 181.12">
  <defs>
    <style>
      .cls-1 {
        fill: #1fa44a;
      }

      .cls-1, .cls-2 {
        stroke-width: 0px;
      }
    </style>
  </defs>
  <g id="Layer_1" data-name="Layer 1">
    <g>
      <g>
        <path class="cls-2" d="m34.25,113.16l7.15,21.53c.25.83.42,1.33.42,1.75,0,.83-.58.91-2.08.91h-10.97c-1.5,0-2.08-.08-2.08-.91,0-.42.17-.91.42-1.75l7.15-21.53Zm-5.82-2.58l-15.71,42.06c-1.75,4.74-3.49,5.15-6.98,5.15h-2.83c-1.41,0-2.91,1.41-2.91,3.16s1.66,3.24,3.91,3.24c1.66,0,6.32-.58,14.38-.58,4.41,0,6.98.58,8.81.58,2.33,0,3.49-1.16,3.49-3.33,0-1.91-1.33-3.08-3.74-3.08-1.33,0-2.33.42-4.07.42-1.58,0-2.83-1-2.83-2.16,0-1.08.17-2.33.58-3.57l2.33-6.98c.67-1.83,1.41-2.66,2.66-2.66h17.46c1.25,0,2,.83,2.66,2.66l2.33,6.98c.42,1.25.58,2.49.58,3.57,0,1.16-1.25,2.16-2.83,2.16-1.75,0-2.74-.42-4.07-.42-2.41,0-3.74,1.16-3.74,3.08,0,2.16,1.16,3.33,3.49,3.33,1.83,0,4.32-.58,8.73-.58,8.06,0,12.8.58,14.46.58,2.24,0,3.91-1.5,3.91-3.24s-1.5-3.16-2.91-3.16h-2.83c-3.49,0-5.24-.42-6.98-5.15l-15.71-42.06c-1.5-3.99-2-5.9-5.82-5.9s-4.24,1.66-5.82,5.9Z"/>
        <path class="cls-2" d="m87.25,152.73v-7.73c0-13.22,1.91-19.78,9.64-19.78,3.57,0,6.4,2.91,6.4,4.99,0,3.16-4.82,1.58-4.82,5.4,0,2.83,1.75,4.41,4.66,4.41,4.24,0,6.82-2.99,6.82-8.06,0-7.07-5.15-11.97-12.22-11.97-5.15,0-8.98,2.49-11.31,7.15l.08-2.41c.08-2.58-.5-3.57-2.91-3.57-.42,0-2.41.25-5.99.25-1.83,0-3.08-.08-3.74-.08-2.24,0-3.24.91-3.24,2.74s.91,2.33,2.99,2.33c.33,0,1.25-.08,2.66-.08,4.07,0,4.24,2.33,4.24,8.31v18.12c0,4.9-.5,6.07-4.24,6.07-.75,0-1.5-.17-2.33-.17-2.49,0-3.66.91-3.66,2.83s1,2.66,3.41,2.66c1.41,0,4.57-.67,9.39-.67,5.9,0,9.81.67,11.47.67,2.24,0,3.49-1.08,3.49-2.74,0-2-1.25-2.91-3.91-2.91-1.75,0-2.83.17-3.49.17-2.83,0-3.41-1-3.41-5.9Z"/>
        <path class="cls-2" d="m112.22,142.42c0,13.8,8.23,22.61,21.45,22.61s21.86-8.73,21.86-22.61-8.15-22.53-21.7-22.53-21.61,8.73-21.61,22.53Zm6.9,0c0-10.64,5.65-17.12,14.8-17.12s14.71,6.4,14.71,17.12-5.74,17.04-14.71,17.04-14.8-6.23-14.8-17.04Z"/>
        <path class="cls-2" d="m177.06,152.88v-9.74c0-11.59,3.49-17.84,11.06-17.84s8.81,5.17,8.81,14.5v13.08c0,4.92-.33,5.92-2.49,5.92-.83-.08-1.75-.25-2.74-.25-2,0-2.99.91-2.99,2.91,0,1.83,1,2.58,2.83,2.58,1.58,0,4.49-.42,8.65-.42s7.32.58,8.89.58c1.91,0,2.91-.91,2.91-2.74s-1-2.58-3.08-2.58c-1.08-.08-2,0-2.83,0-2.24,0-2.49-1.16-2.49-6.07v-13.05c0-9.39,2.49-14.46,10.47-14.46,8.98,0,9.56,7.07,9.56,18.2v9.39c0,4.66-.17,5.9-2.41,5.9-.67-.08-1.58-.25-2.58-.25-1.91,0-2.66.91-2.66,2.91s.91,2.58,2.83,2.58c2.74.08,5.82-.42,8.73-.42h.83c3.74-.08,6.65.58,8.56.58,2.33,0,3.41-.75,3.41-2.66s-1.25-2.74-3.66-2.74c-.67,0-1.33.08-2.33.08-3.49,0-4.07-.91-4.07-6v-13.83c0-12.42-4.74-19.15-15.71-19.15-5.82,0-9.56,2.41-13.05,6.65-3.16-4.07-7.23-6.65-11.97-6.65-5.74,0-10.22,2.91-12.97,7.65v-2.66c0-2.49-.25-3.57-2.74-3.57-.42,0-2.58.25-6.15.25-1.91,0-3.08-.08-3.74-.08-2.08,0-3.24.75-3.24,2.74,0,1.75,1,2.33,2.99,2.33,1,0,1.83-.08,2.74-.08,3.99,0,3.99,2.24,3.99,7.23v19.12c0,4.99-.25,6.07-3.99,6.07-.75.08-1.5,0-2.41,0-2.41,0-3.66.83-3.66,2.74s1.08,2.58,3.41,2.58c1.33,0,4.74-.58,10.06-.58,4.07,0,6.65.58,7.9.58,1.91,0,2.83-.67,2.83-2.74,0-1.91-.91-2.58-2.91-2.58-.67-.08-1.5,0-2.24,0-2.08,0-2.33-1.25-2.33-6.07v.07Z"/>
        <path class="cls-2" d="m271.82,158.38c.17,4.24,2.74,6.57,7.32,6.57,5.49,0,8.81-2.91,8.81-7.9v-6.32c0-2.74-.58-3.82-2.49-3.82-1.75,0-2.58,1.08-2.58,3.57v4.32c0,3.16-.83,4.66-3.16,4.66s-2.58-1.66-2.58-4.99v-19.7c0-10.39-4.16-14.88-15.21-14.88s-17.29,4.82-17.29,11.06c0,3.74,2.08,5.9,5.15,5.9,2.58,0,4.41-1.75,4.41-4.07,0-2.08-2-2.99-2-3.91,0-1.58,3.57-3.57,8.89-3.57,5.82,0,9.39,2.41,9.39,6.9,0,5.65-4.41,6.15-14.05,7.48-9.64,1.41-14.3,4.66-14.3,12.64s4.99,12.64,14.38,12.64c6.73,0,11.89-2.16,15.3-6.57Zm-1.08-10.14c0,6.65-5.4,11.22-14.13,11.22-4.9,0-8.06-2.99-8.06-6.82,0-5.4,3.57-6.82,10.64-7.81,5.07-.67,8.89-1.16,11.55-3.33v6.73Z"/>
        <path class="cls-2" d="m325.5,153.83v-7.81c0-13.35,1.93-19.99,9.74-19.99,3.61,0,6.47,2.94,6.47,5.04,0,3.19-4.87,1.6-4.87,5.46,0,2.86,1.76,4.45,4.7,4.45,4.28,0,6.89-3.02,6.89-8.15,0-7.14-5.21-12.09-12.35-12.09-5.21,0-9.07,2.52-11.42,7.22l.08-2.44c.08-2.6-.5-3.61-2.94-3.61-.42,0-2.44.25-6.05.25-1.85,0-3.11-.08-3.78-.08-2.27,0-3.28.92-3.28,2.77s.92,2.35,3.02,2.35c.34,0,1.26-.08,2.69-.08,4.12,0,4.28,2.35,4.28,8.4v18.31c0,4.96-.5,6.13-4.28,6.13-.76,0-1.51-.17-2.35-.17-2.52,0-3.7.92-3.7,2.86s1.01,2.69,3.44,2.69c1.43,0,4.62-.67,9.49-.67,5.96,0,9.91.67,11.59.67,2.27,0,3.53-1.09,3.53-2.77,0-2.02-1.26-2.94-3.95-2.94-1.76,0-2.86.17-3.53.17-2.86,0-3.44-1.01-3.44-5.96Z"/>
        <path class="cls-2" d="m361.61,138.54c.84-7.73,5.63-12.43,12.43-12.43s11.93,4.79,11.93,11.93v.5h-24.36Zm-.42,5.63h27.88c3.36,0,4.2-.84,4.2-4.2,0-11.76-7.47-19.32-19.32-19.32s-19.82,8.73-19.82,22.76,7.73,22.84,19.82,22.84c6.72,0,11.59-2.02,15.2-6.72,2.52-3.36,3.78-6.63,3.78-8.48s-1.34-3.02-3.02-3.02c-3.19,0-2.77,3.86-5.04,7.05-2.6,3.86-5.71,5.46-10.58,5.46-7.73,0-13.1-6.21-13.1-16.04v-.34Z"/>
        <path class="cls-2" d="m413.18,127.46v-2.02c0-2.94-.34-3.44-2.69-3.44-1.43,0-4.54.25-8.99.25-.84,0-1.68-.25-2.77-.25-1.68,0-2.52,1.01-2.52,2.69,0,1.76,1.01,2.69,3.11,2.69.84,0,1.85-.25,2.86-.25,4.12,0,4.28,2.35,4.28,7.81v35.61c0,4.12-.5,5.29-2.94,5.29-.67,0-1.68-.17-3.02-.17-2.27,0-3.36.84-3.36,2.86,0,1.76,1.01,2.6,3.02,2.6,1.51,0,5.04-.59,10.41-.59,4.62,0,7.81.59,9.49.59,2.35,0,3.36-.67,3.36-2.6s-1.18-2.86-3.7-2.86c-.84,0-1.68.17-2.35.17-3.78,0-4.2-1.18-4.2-5.29v-9.32c3.19,3.28,7.81,5.04,12.85,5.04,12.09,0,20.24-8.82,20.24-22.68s-7.73-22.93-19.4-22.93c-6.3,0-10.58,2.1-13.52,6.8h-.17Zm0,12.77c0-8.73,5.21-14.11,12.51-14.11,8.06,0,13.61,6.55,13.61,17.3s-5.46,17.22-13.86,17.22c-7.73,0-12.26-4.79-12.26-12.85v-7.56Z"/>
        <path class="cls-2" d="m459.37,133.08v13.94c0,12.6,4.54,18.64,16.96,18.64,6.38,0,10.5-2.1,14.78-7.56v3.28c0,2.52.25,3.61,2.86,3.61,1.43,0,3.28-.34,5.29-.34,1.85-.08,3.36.17,4.7.17,2.1,0,3.11-1.01,3.11-2.86s-.84-2.33-2.86-2.33h-2.94c-3.78,0-4.12-2.1-4.12-9.05v-24.22c0-3.86-.08-4.37-2.6-4.37-.92,0-2.27.17-4.12.17-2.44,0-4.62-.5-6.21-.5-2.1,0-3.02.92-3.02,2.69,0,2.02,1.01,2.94,3.36,2.94,1.34,0,2.35-.17,3.02-.17,2.77,0,3.02,1.18,3.02,5.96v7.47c0,13.19-3.61,19.82-13.19,19.82-8.82,0-11.34-5.04-11.34-15.03v-18.98c0-3.86-.08-4.37-2.52-4.37-1.26,0-2.77.17-4.45.17-2.86,0-5.04-.5-6.63-.5-2.18,0-3.19,1.01-3.19,2.69,0,2.02,1.09,2.94,3.61,2.94,1.6,0,2.69-.17,3.36-.17,2.86,0,3.11,1.09,3.11,5.96Z"/>
        <path class="cls-2" d="m521.94,161.13c3.28,3.19,7.22,5.04,12.35,5.04,12.51,0,20.58-8.06,20.58-22.51,0-13.69-7.73-23.01-19.4-23.01-6.3,0-10.58,2.6-13.52,7.22v-17.89c0-2.77-.17-3.86-2.77-3.86-.5,0-2.77.25-6.89.25-2.44,0-3.78-.17-4.45-.17-2.27,0-3.44,1.01-3.44,2.77s1.01,2.44,3.19,2.44c.59,0,1.6-.08,2.77-.08,4.7,0,4.87,1.51,4.87,7.14v40.56c0,1.68-.17,2.52-.17,3.36,0,2.1.84,3.02,3.11,3.02,3.11,0,3.78-1.09,3.78-3.36v-.92Zm0-20.07c0-9.49,5.79-14.95,13.35-14.95,7.98,0,12.6,6.8,12.6,17.55s-4.62,16.96-13.61,16.96c-7.89,0-12.35-4.45-12.35-15.62v-3.95Z"/>
        <path class="cls-2" d="m570.23,153.74c0,4.96-.42,6.13-4.2,6.13-.84,0-1.6-.08-2.52-.08-2.44,0-3.7.84-3.7,2.77s1.18,2.69,3.53,2.69c.92,0,4.54-.67,11.09-.67,4.37,0,7.56.67,9.24.67,2.35,0,3.44-.76,3.44-2.69s-1.26-2.77-3.7-2.77c-.67,0-1.34.08-2.35.08-3.7,0-4.12-1.18-4.12-6.13v-44.26c0-2.6-.34-3.61-3.02-3.61-.5,0-2.69.25-6.8.25-2.1,0-3.53-.17-4.03-.17-2.18,0-3.36,1.01-3.36,2.69,0,1.93.92,2.6,2.94,2.6.59,0,1.68-.17,3.19-.17,4.28,0,4.37,2.35,4.37,8.4v34.27Z"/>
        <path class="cls-2" d="m596.94,113.6c0,2.6,2.1,4.62,4.7,4.62s4.7-2.1,4.7-4.62c0-2.69-2.02-4.79-4.7-4.79s-4.7,2.1-4.7,4.79Zm2.6,40.4c0,4.87-.42,6.13-4.2,6.13-.84,0-1.34-.17-2.52-.17-2.44,0-3.7.84-3.7,2.86s1.18,2.6,3.53,2.6c.92,0,4.54-.59,10.25-.59,4.37,0,8.4.59,10.08.59,2.35,0,3.44-.67,3.44-2.6s-1.26-2.86-3.7-2.86c-.67,0-1.34.17-2.35.17-3.61,0-4.12-1.18-4.12-6.13v-28.3c0-2.77-.34-3.7-3.02-3.7-.5,0-2.44.34-5.88.34-2.52,0-4.2-.08-5.12-.08-1.85,0-3.19,1.09-3.19,2.6,0,1.93.92,2.6,2.94,2.6.59,0,1.68-.17,3.19-.17,4.12,0,4.37,2.27,4.37,9.15v17.55Z"/>
        <path class="cls-2" d="m620.2,143.41c0,14.11,7.64,22.84,19.82,22.84,6.8,0,11.93-2.27,15.29-6.55,2.44-3.19,3.78-7.14,3.78-9.49,0-1.76-1.34-3.11-3.19-3.11-2.94,0-3.11,3.28-4.62,6.72-2.18,4.79-5.96,6.8-11.25,6.8-7.64,0-12.85-6.3-12.85-16.63,0-11.59,5.37-17.89,14.28-17.89,5.29,0,8.9,2.94,8.9,5.37,0,1.43-4.03,2.18-4.03,5.37,0,2.52,1.68,3.95,4.62,3.95,4.45,0,7.14-2.86,7.14-7.39,0-7.39-6.55-12.77-17.22-12.77-12.93,0-20.66,8.57-20.66,22.76Z"/>
      </g>
      <g>
        <path class="cls-1" d="m321.14,92.48c-1.37,2.75-3.03,5.18-5.12,7.31-3.04,3.1-6.55,5.45-10.65,6.93-3.66,1.33-7.44,1.98-11.32,1.74-6.33-.39-11.96-2.62-16.81-6.73-1.18-1-1.33-1.8-.84-3.24,1.32-3.82,3.42-7.17,6.2-10.08.64-.67.54-1.02-.14-1.54-5.38-4.17-9.24-9.48-11.66-15.83-1.21-3.17-2.01-6.45-2.36-9.83-.18-1.73.46-2.78,2.13-3.45,5.27-2.09,10.67-3.52,16.41-3.24.39.02.77,0,1.31,0-.11-.6-.21-1.07-.28-1.53-.74-5.34-.73-10.66.24-16,1.56-8.56,5.24-16.06,10.83-22.67.9-1.06,1.78-1.25,3.27-.74,5.22,1.79,9.96,4.44,14.22,7.94,1.81,1.49,3.43,3.2,5.12,4.83.26.25.41.6.64.93,1.61-2.03,2.98-3.86,4.46-5.61,5.04-5.97,11.04-10.78,17.91-14.49,4-2.16,8.2-3.88,12.58-5.07,4.12-1.13,8.32-1.95,12.61-2.12,1.3-.05,2.08.55,2.63,1.67,1.99,4.1,3.54,8.36,4.54,12.79,1.42,6.28,2.22,12.62,1.43,19.08-.04.29-.03.59-.03.89,0,.13.05.25.09.43,1.15-.18,2.27-.4,3.39-.53,3.13-.38,6.25-.9,9.39-1.06,5.36-.27,10.73-.09,16.04.77,4.48.73,8.88,1.74,13.2,3.17,5.2,1.72,10.17,3.92,14.91,6.65,4.57,2.63,8.86,5.66,12.84,9.13.98.86,1.17,1.76.75,3.01-3.09,9.12-7.73,17.41-13.82,24.85-5.77,7.05-12.56,12.96-20.37,17.7-4.45,2.7-9.07,5.08-13.98,6.79-4.14,1.45-8.38,2.68-12.67,3.63-5.62,1.24-11.38,1.79-17.14,1.63-3.41-.09-6.81-.52-10.21-.87-5.39-.55-10.59-1.95-15.68-3.75-6.72-2.38-13.03-5.6-18.88-9.68-1.72-1.2-3.39-2.48-5.2-3.81Zm6.01-1.81c.34.28.55.47.78.63,7.16,5.15,14.98,8.94,23.46,11.38,5.08,1.46,10.25,2.38,15.49,2.73,7.55.51,15.06-.08,22.44-1.78,4.91-1.13,9.68-2.72,14.28-4.77,7.4-3.31,14.15-7.67,20.15-13.13,8.88-8.09,15.41-17.8,19.79-28.97.25-.65.23-1.17-.4-1.63-2-1.44-3.92-2.99-5.96-4.36-5.03-3.4-10.4-6.16-16.15-8.12-3.07-1.04-6.2-1.98-9.35-2.74-2.55-.62-5.16-1.12-7.77-1.28-4.39-.27-8.8-.34-13.2-.27-4.14.07-8.24.74-12.26,1.76-.33.08-.73.47-.82.79-.45,1.58-.77,3.19-1.22,4.77-1.24,4.34-2.9,8.51-5.02,12.5-2.65,5-5.9,9.55-9.76,13.67-5.15,5.5-11.06,10.03-17.89,13.23-3.23,1.51-6.62,2.69-9.99,3.86-2.07.72-4.24,1.13-6.58,1.73Zm7.44-30.85c.16-.14.31-.25.44-.39,5.29-5.34,10.88-10.33,17.41-14.11,3.52-2.04,7.15-3.9,10.86-5.57,2.95-1.33,6.09-2.23,9.14-3.36.32-.12.74-.42.81-.71.21-.89.36-1.81.39-2.73.15-4.97.1-9.92-.91-14.83-.87-4.2-2.08-8.27-3.77-12.21-.25-.58-.6-.83-1.21-.73-1.85.29-3.72.46-5.54.87-4.98,1.12-9.77,2.77-14.33,5.13-8.81,4.56-15.88,11.01-21.48,19.16-.53.77-.49,1.34,0,2.09,3.86,5.81,6.3,12.18,7.35,19.06.41,2.72.56,5.48.83,8.33Zm-23.23,4.77c.22-3.02.45-5.99.66-8.96.31-4.29,1.25-8.46,2.7-12.47,1.35-3.72,3.13-7.29,4.69-10.93.12-.27.07-.76-.11-.98-4.44-5.47-10.03-9.4-16.48-12.16-.6-.26-1.11-.27-1.51.41-.33.57-.78,1.05-1.16,1.59-2.29,3.31-4.17,6.83-5.4,10.68-.35,1.09-.75,2.17-1.03,3.29-.28,1.11-.51,2.24-.62,3.38-.1,1.05-.56,2-.59,3.09-.1,3.99-.08,7.95.6,11.89.18,1.06.41,1.97,1.74,2.26,4.72,1.02,8.95,3.18,12.84,6,1.27.92,2.44,1.96,3.64,2.92Zm15.05,21c11.44-2.17,21.22-7.13,29.46-15.08,8.21-7.91,13.6-17.43,16.36-28.74-.74.2-1.19.3-1.61.45-4.49,1.61-8.87,3.45-13.02,5.81-4.93,2.81-9.59,5.99-13.71,9.9-2.17,2.07-4.16,4.33-6.21,6.52-.96,1.03-1.95,2.05-2.81,3.16-.76.98-1.64,2-1.96,3.14-.91,3.2-1.95,6.34-3.48,9.29-.93,1.8-1.94,3.56-3.01,5.54Zm-25.09-5.98c-.28-.35-.43-.56-.61-.75-2.5-2.67-4.68-5.58-6.55-8.73-1.82-3.07-3.19-6.32-4.39-9.66-.11-.31-.45-.73-.73-.77-3.06-.44-6.11-.22-9.11.39-1.92.39-3.78,1.05-5.64,1.67-.26.09-.53.62-.52.94.01.51.26,1,.39,1.51.43,1.68.69,3.42,1.3,5.03,2.26,5.91,5.97,10.75,11.1,14.49.63.46,1.1.47,1.77.08,3.45-2.05,7.14-3.45,11.16-3.85.55-.05,1.09-.21,1.81-.35Zm19.88.82c.17-.25.27-.37.34-.5,1.69-3.08,3.36-6.16,5.07-9.23.87-1.56,1.96-2.93,2.22-4.85.7-5.17.65-10.3-.31-15.4-.68-3.59-1.86-7.04-3.46-10.33-.6-1.24-1.31-2.43-2.06-3.81-.23.38-.32.51-.39.65-2.57,5.21-4.31,10.68-5.27,16.42-.82,4.94-.95,9.88-.5,14.83.16,1.71.28,3.46,1.16,5.04.7,1.26,1.3,2.57,1.89,3.89.46,1.03.83,2.1,1.29,3.28Zm-6.73,13.61c-.07-.11-.15-.22-.22-.32-1.25.2-2.51.35-3.74.61-4.07.85-8.12.54-12.15-.2-3.38-.62-6.61-1.7-9.65-3.31-.66-.35-1.16-.29-1.75.27-2.05,1.95-3.63,4.23-4.94,6.72-.42.79-.22,1.25.48,1.7,2.96,1.91,6.13,3.25,9.67,3.69,7.19.89,13.55-.95,19.03-5.69,1.2-1.03,2.19-2.3,3.28-3.46Zm-.14-12.01c.06-.1.13-.19.19-.29-.5-1.96-.98-3.93-1.51-5.89-.24-.87-.4-1.84-.89-2.56-3.63-5.33-8.52-9.13-14.47-11.57-.66-.27-1.36-.43-2.18-.69.06.42.05.59.11.74,2.98,7.35,7.56,13.51,13.95,18.21,1.37,1.01,3.19,1.39,4.8,2.06Zm-21.47,5.02c3.87,2.78,17.84,3.61,20.62,1.36-3.16-1.62-5.92-3.99-9.93-3.75-3.69.22-7.19.75-10.69,2.39Z"/>
        <rect class="cls-1" x="9.92" y="94.64" width="249.67" height="1.36"/>
        <rect class="cls-1" x="444.57" y="94.64" width="208.06" height="1.36"/>
      </g>
      <g>
        <path class="cls-2" d="m34.25,113.16l7.15,21.53c.25.83.42,1.33.42,1.75,0,.83-.58.91-2.08.91h-10.97c-1.5,0-2.08-.08-2.08-.91,0-.42.17-.91.42-1.75l7.15-21.53Zm-5.82-2.58l-15.71,42.06c-1.75,4.74-3.49,5.15-6.98,5.15h-2.83c-1.41,0-2.91,1.41-2.91,3.16s1.66,3.24,3.91,3.24c1.66,0,6.32-.58,14.38-.58,4.41,0,6.98.58,8.81.58,2.33,0,3.49-1.16,3.49-3.33,0-1.91-1.33-3.08-3.74-3.08-1.33,0-2.33.42-4.07.42-1.58,0-2.83-1-2.83-2.16,0-1.08.17-2.33.58-3.57l2.33-6.98c.67-1.83,1.41-2.66,2.66-2.66h17.46c1.25,0,2,.83,2.66,2.66l2.33,6.98c.42,1.25.58,2.49.58,3.57,0,1.16-1.25,2.16-2.83,2.16-1.75,0-2.74-.42-4.07-.42-2.41,0-3.74,1.16-3.74,3.08,0,2.16,1.16,3.33,3.49,3.33,1.83,0,4.32-.58,8.73-.58,8.06,0,12.8.58,14.46.58,2.24,0,3.91-1.5,3.91-3.24s-1.5-3.16-2.91-3.16h-2.83c-3.49,0-5.24-.42-6.98-5.15l-15.71-42.06c-1.5-3.99-2-5.9-5.82-5.9s-4.24,1.66-5.82,5.9Z"/>
        <path class="cls-2" d="m87.25,152.73v-7.73c0-13.22,1.91-19.78,9.64-19.78,3.57,0,6.4,2.91,6.4,4.99,0,3.16-4.82,1.58-4.82,5.4,0,2.83,1.75,4.41,4.66,4.41,4.24,0,6.82-2.99,6.82-8.06,0-7.07-5.15-11.97-12.22-11.97-5.15,0-8.98,2.49-11.31,7.15l.08-2.41c.08-2.58-.5-3.57-2.91-3.57-.42,0-2.41.25-5.99.25-1.83,0-3.08-.08-3.74-.08-2.24,0-3.24.91-3.24,2.74s.91,2.33,2.99,2.33c.33,0,1.25-.08,2.66-.08,4.07,0,4.24,2.33,4.24,8.31v18.12c0,4.9-.5,6.07-4.24,6.07-.75,0-1.5-.17-2.33-.17-2.49,0-3.66.91-3.66,2.83s1,2.66,3.41,2.66c1.41,0,4.57-.67,9.39-.67,5.9,0,9.81.67,11.47.67,2.24,0,3.49-1.08,3.49-2.74,0-2-1.25-2.91-3.91-2.91-1.75,0-2.83.17-3.49.17-2.83,0-3.41-1-3.41-5.9Z"/>
        <path class="cls-2" d="m112.22,142.42c0,13.8,8.23,22.61,21.45,22.61s21.86-8.73,21.86-22.61-8.15-22.53-21.7-22.53-21.61,8.73-21.61,22.53Zm6.9,0c0-10.64,5.65-17.12,14.8-17.12s14.71,6.4,14.71,17.12-5.74,17.04-14.71,17.04-14.8-6.23-14.8-17.04Z"/>
        <path class="cls-2" d="m177.06,152.88v-9.74c0-11.59,3.49-17.84,11.06-17.84s8.81,5.17,8.81,14.5v13.08c0,4.92-.33,5.92-2.49,5.92-.83-.08-1.75-.25-2.74-.25-2,0-2.99.91-2.99,2.91,0,1.83,1,2.58,2.83,2.58,1.58,0,4.49-.42,8.65-.42s7.32.58,8.89.58c1.91,0,2.91-.91,2.91-2.74s-1-2.58-3.08-2.58c-1.08-.08-2,0-2.83,0-2.24,0-2.49-1.16-2.49-6.07v-13.05c0-9.39,2.49-14.46,10.47-14.46,8.98,0,9.56,7.07,9.56,18.2v9.39c0,4.66-.17,5.9-2.41,5.9-.67-.08-1.58-.25-2.58-.25-1.91,0-2.66.91-2.66,2.91s.91,2.58,2.83,2.58c2.74.08,5.82-.42,8.73-.42h.83c3.74-.08,6.65.58,8.56.58,2.33,0,3.41-.75,3.41-2.66s-1.25-2.74-3.66-2.74c-.67,0-1.33.08-2.33.08-3.49,0-4.07-.91-4.07-6v-13.83c0-12.42-4.74-19.15-15.71-19.15-5.82,0-9.56,2.41-13.05,6.65-3.16-4.07-7.23-6.65-11.97-6.65-5.74,0-10.22,2.91-12.97,7.65v-2.66c0-2.49-.25-3.57-2.74-3.57-.42,0-2.58.25-6.15.25-1.91,0-3.08-.08-3.74-.08-2.08,0-3.24.75-3.24,2.74,0,1.75,1,2.33,2.99,2.33,1,0,1.83-.08,2.74-.08,3.99,0,3.99,2.24,3.99,7.23v19.12c0,4.99-.25,6.07-3.99,6.07-.75.08-1.5,0-2.41,0-2.41,0-3.66.83-3.66,2.74s1.08,2.58,3.41,2.58c1.33,0,4.74-.58,10.06-.58,4.07,0,6.65.58,7.9.58,1.91,0,2.83-.67,2.83-2.74,0-1.91-.91-2.58-2.91-2.58-.67-.08-1.5,0-2.24,0-2.08,0-2.33-1.25-2.33-6.07v.07Z"/>
        <path class="cls-2" d="m271.82,158.38c.17,4.24,2.74,6.57,7.32,6.57,5.49,0,8.81-2.91,8.81-7.9v-6.32c0-2.74-.58-3.82-2.49-3.82-1.75,0-2.58,1.08-2.58,3.57v4.32c0,3.16-.83,4.66-3.16,4.66s-2.58-1.66-2.58-4.99v-19.7c0-10.39-4.16-14.88-15.21-14.88s-17.29,4.82-17.29,11.06c0,3.74,2.08,5.9,5.15,5.9,2.58,0,4.41-1.75,4.41-4.07,0-2.08-2-2.99-2-3.91,0-1.58,3.57-3.57,8.89-3.57,5.82,0,9.39,2.41,9.39,6.9,0,5.65-4.41,6.15-14.05,7.48-9.64,1.41-14.3,4.66-14.3,12.64s4.99,12.64,14.38,12.64c6.73,0,11.89-2.16,15.3-6.57Zm-1.08-10.14c0,6.65-5.4,11.22-14.13,11.22-4.9,0-8.06-2.99-8.06-6.82,0-5.4,3.57-6.82,10.64-7.81,5.07-.67,8.89-1.16,11.55-3.33v6.73Z"/>
        <path class="cls-2" d="m325.5,153.83v-7.81c0-13.35,1.93-19.99,9.74-19.99,3.61,0,6.47,2.94,6.47,5.04,0,3.19-4.87,1.6-4.87,5.46,0,2.86,1.76,4.45,4.7,4.45,4.28,0,6.89-3.02,6.89-8.15,0-7.14-5.21-12.09-12.35-12.09-5.21,0-9.07,2.52-11.42,7.22l.08-2.44c.08-2.6-.5-3.61-2.94-3.61-.42,0-2.44.25-6.05.25-1.85,0-3.11-.08-3.78-.08-2.27,0-3.28.92-3.28,2.77s.92,2.35,3.02,2.35c.34,0,1.26-.08,2.69-.08,4.12,0,4.28,2.35,4.28,8.4v18.31c0,4.96-.5,6.13-4.28,6.13-.76,0-1.51-.17-2.35-.17-2.52,0-3.7.92-3.7,2.86s1.01,2.69,3.44,2.69c1.43,0,4.62-.67,9.49-.67,5.96,0,9.91.67,11.59.67,2.27,0,3.53-1.09,3.53-2.77,0-2.02-1.26-2.94-3.95-2.94-1.76,0-2.86.17-3.53.17-2.86,0-3.44-1.01-3.44-5.96Z"/>
        <path class="cls-2" d="m361.61,138.54c.84-7.73,5.63-12.43,12.43-12.43s11.93,4.79,11.93,11.93v.5h-24.36Zm-.42,5.63h27.88c3.36,0,4.2-.84,4.2-4.2,0-11.76-7.47-19.32-19.32-19.32s-19.82,8.73-19.82,22.76,7.73,22.84,19.82,22.84c6.72,0,11.59-2.02,15.2-6.72,2.52-3.36,3.78-6.63,3.78-8.48s-1.34-3.02-3.02-3.02c-3.19,0-2.77,3.86-5.04,7.05-2.6,3.86-5.71,5.46-10.58,5.46-7.73,0-13.1-6.21-13.1-16.04v-.34Z"/>
        <path class="cls-2" d="m413.18,127.46v-2.02c0-2.94-.34-3.44-2.69-3.44-1.43,0-4.54.25-8.99.25-.84,0-1.68-.25-2.77-.25-1.68,0-2.52,1.01-2.52,2.69,0,1.76,1.01,2.69,3.11,2.69.84,0,1.85-.25,2.86-.25,4.12,0,4.28,2.35,4.28,7.81v35.61c0,4.12-.5,5.29-2.94,5.29-.67,0-1.68-.17-3.02-.17-2.27,0-3.36.84-3.36,2.86,0,1.76,1.01,2.6,3.02,2.6,1.51,0,5.04-.59,10.41-.59,4.62,0,7.81.59,9.49.59,2.35,0,3.36-.67,3.36-2.6s-1.18-2.86-3.7-2.86c-.84,0-1.68.17-2.35.17-3.78,0-4.2-1.18-4.2-5.29v-9.32c3.19,3.28,7.81,5.04,12.85,5.04,12.09,0,20.24-8.82,20.24-22.68s-7.73-22.93-19.4-22.93c-6.3,0-10.58,2.1-13.52,6.8h-.17Zm0,12.77c0-8.73,5.21-14.11,12.51-14.11,8.06,0,13.61,6.55,13.61,17.3s-5.46,17.22-13.86,17.22c-7.73,0-12.26-4.79-12.26-12.85v-7.56Z"/>
        <path class="cls-2" d="m459.37,133.08v13.94c0,12.6,4.54,18.64,16.96,18.64,6.38,0,10.5-2.1,14.78-7.56v3.28c0,2.52.25,3.61,2.86,3.61,1.43,0,3.28-.34,5.29-.34,1.85-.08,3.36.17,4.7.17,2.1,0,3.11-1.01,3.11-2.86s-.84-2.33-2.86-2.33h-2.94c-3.78,0-4.12-2.1-4.12-9.05v-24.22c0-3.86-.08-4.37-2.6-4.37-.92,0-2.27.17-4.12.17-2.44,0-4.62-.5-6.21-.5-2.1,0-3.02.92-3.02,2.69,0,2.02,1.01,2.94,3.36,2.94,1.34,0,2.35-.17,3.02-.17,2.77,0,3.02,1.18,3.02,5.96v7.47c0,13.19-3.61,19.82-13.19,19.82-8.82,0-11.34-5.04-11.34-15.03v-18.98c0-3.86-.08-4.37-2.52-4.37-1.26,0-2.77.17-4.45.17-2.86,0-5.04-.5-6.63-.5-2.18,0-3.19,1.01-3.19,2.69,0,2.02,1.09,2.94,3.61,2.94,1.6,0,2.69-.17,3.36-.17,2.86,0,3.11,1.09,3.11,5.96Z"/>
        <path class="cls-2" d="m521.94,161.13c3.28,3.19,7.22,5.04,12.35,5.04,12.51,0,20.58-8.06,20.58-22.51,0-13.69-7.73-23.01-19.4-23.01-6.3,0-10.58,2.6-13.52,7.22v-17.89c0-2.77-.17-3.86-2.77-3.86-.5,0-2.77.25-6.89.25-2.44,0-3.78-.17-4.45-.17-2.27,0-3.44,1.01-3.44,2.77s1.01,2.44,3.19,2.44c.59,0,1.6-.08,2.77-.08,4.7,0,4.87,1.51,4.87,7.14v40.56c0,1.68-.17,2.52-.17,3.36,0,2.1.84,3.02,3.11,3.02,3.11,0,3.78-1.09,3.78-3.36v-.92Zm0-20.07c0-9.49,5.79-14.95,13.35-14.95,7.98,0,12.6,6.8,12.6,17.55s-4.62,16.96-13.61,16.96c-7.89,0-12.35-4.45-12.35-15.62v-3.95Z"/>
        <path class="cls-2" d="m570.23,153.74c0,4.96-.42,6.13-4.2,6.13-.84,0-1.6-.08-2.52-.08-2.44,0-3.7.84-3.7,2.77s1.18,2.69,3.53,2.69c.92,0,4.54-.67,11.09-.67,4.37,0,7.56.67,9.24.67,2.35,0,3.44-.76,3.44-2.69s-1.26-2.77-3.7-2.77c-.67,0-1.34.08-2.35.08-3.7,0-4.12-1.18-4.12-6.13v-44.26c0-2.6-.34-3.61-3.02-3.61-.5,0-2.69.25-6.8.25-2.1,0-3.53-.17-4.03-.17-2.18,0-3.36,1.01-3.36,2.69,0,1.93.92,2.6,2.94,2.6.59,0,1.68-.17,3.19-.17,4.28,0,4.37,2.35,4.37,8.4v34.27Z"/>
        <path class="cls-2" d="m596.94,113.6c0,2.6,2.1,4.62,4.7,4.62s4.7-2.1,4.7-4.62c0-2.69-2.02-4.79-4.7-4.79s-4.7,2.1-4.7,4.79Zm2.6,40.4c0,4.87-.42,6.13-4.2,6.13-.84,0-1.34-.17-2.52-.17-2.44,0-3.7.84-3.7,2.86s1.18,2.6,3.53,2.6c.92,0,4.54-.59,10.25-.59,4.37,0,8.4.59,10.08.59,2.35,0,3.44-.67,3.44-2.6s-1.26-2.86-3.7-2.86c-.67,0-1.34.17-2.35.17-3.61,0-4.12-1.18-4.12-6.13v-28.3c0-2.77-.34-3.7-3.02-3.7-.5,0-2.44.34-5.88.34-2.52,0-4.2-.08-5.12-.08-1.85,0-3.19,1.09-3.19,2.6,0,1.93.92,2.6,2.94,2.6.59,0,1.68-.17,3.19-.17,4.12,0,4.37,2.27,4.37,9.15v17.55Z"/>
        <path class="cls-2" d="m620.2,143.41c0,14.11,7.64,22.84,19.82,22.84,6.8,0,11.93-2.27,15.29-6.55,2.44-3.19,3.78-7.14,3.78-9.49,0-1.76-1.34-3.11-3.19-3.11-2.94,0-3.11,3.28-4.62,6.72-2.18,4.79-5.96,6.8-11.25,6.8-7.64,0-12.85-6.3-12.85-16.63,0-11.59,5.37-17.89,14.28-17.89,5.29,0,8.9,2.94,8.9,5.37,0,1.43-4.03,2.18-4.03,5.37,0,2.52,1.68,3.95,4.62,3.95,4.45,0,7.14-2.86,7.14-7.39,0-7.39-6.55-12.77-17.22-12.77-12.93,0-20.66,8.57-20.66,22.76Z"/>
      </g>
      <g>
        <path class="cls-1" d="m321.14,92.48c-1.37,2.75-3.03,5.18-5.12,7.31-3.04,3.1-6.55,5.45-10.65,6.93-3.66,1.33-7.44,1.98-11.32,1.74-6.33-.39-11.96-2.62-16.81-6.73-1.18-1-1.33-1.8-.84-3.24,1.32-3.82,3.42-7.17,6.2-10.08.64-.67.54-1.02-.14-1.54-5.38-4.17-9.24-9.48-11.66-15.83-1.21-3.17-2.01-6.45-2.36-9.83-.18-1.73.46-2.78,2.13-3.45,5.27-2.09,10.67-3.52,16.41-3.24.39.02.77,0,1.31,0-.11-.6-.21-1.07-.28-1.53-.74-5.34-.73-10.66.24-16,1.56-8.56,5.24-16.06,10.83-22.67.9-1.06,1.78-1.25,3.27-.74,5.22,1.79,9.96,4.44,14.22,7.94,1.81,1.49,3.43,3.2,5.12,4.83.26.25.41.6.64.93,1.61-2.03,2.98-3.86,4.46-5.61,5.04-5.97,11.04-10.78,17.91-14.49,4-2.16,8.2-3.88,12.58-5.07,4.12-1.13,8.32-1.95,12.61-2.12,1.3-.05,2.08.55,2.63,1.67,1.99,4.1,3.54,8.36,4.54,12.79,1.42,6.28,2.22,12.62,1.43,19.08-.04.29-.03.59-.03.89,0,.13.05.25.09.43,1.15-.18,2.27-.4,3.39-.53,3.13-.38,6.25-.9,9.39-1.06,5.36-.27,10.73-.09,16.04.77,4.48.73,8.88,1.74,13.2,3.17,5.2,1.72,10.17,3.92,14.91,6.65,4.57,2.63,8.86,5.66,12.84,9.13.98.86,1.17,1.76.75,3.01-3.09,9.12-7.73,17.41-13.82,24.85-5.77,7.05-12.56,12.96-20.37,17.7-4.45,2.7-9.07,5.08-13.98,6.79-4.14,1.45-8.38,2.68-12.67,3.63-5.62,1.24-11.38,1.79-17.14,1.63-3.41-.09-6.81-.52-10.21-.87-5.39-.55-10.59-1.95-15.68-3.75-6.72-2.38-13.03-5.6-18.88-9.68-1.72-1.2-3.39-2.48-5.2-3.81Zm6.01-1.81c.34.28.55.47.78.63,7.16,5.15,14.98,8.94,23.46,11.38,5.08,1.46,10.25,2.38,15.49,2.73,7.55.51,15.06-.08,22.44-1.78,4.91-1.13,9.68-2.72,14.28-4.77,7.4-3.31,14.15-7.67,20.15-13.13,8.88-8.09,15.41-17.8,19.79-28.97.25-.65.23-1.17-.4-1.63-2-1.44-3.92-2.99-5.96-4.36-5.03-3.4-10.4-6.16-16.15-8.12-3.07-1.04-6.2-1.98-9.35-2.74-2.55-.62-5.16-1.12-7.77-1.28-4.39-.27-8.8-.34-13.2-.27-4.14.07-8.24.74-12.26,1.76-.33.08-.73.47-.82.79-.45,1.58-.77,3.19-1.22,4.77-1.24,4.34-2.9,8.51-5.02,12.5-2.65,5-5.9,9.55-9.76,13.67-5.15,5.5-11.06,10.03-17.89,13.23-3.23,1.51-6.62,2.69-9.99,3.86-2.07.72-4.24,1.13-6.58,1.73Zm7.44-30.85c.16-.14.31-.25.44-.39,5.29-5.34,10.88-10.33,17.41-14.11,3.52-2.04,7.15-3.9,10.86-5.57,2.95-1.33,6.09-2.23,9.14-3.36.32-.12.74-.42.81-.71.21-.89.36-1.81.39-2.73.15-4.97.1-9.92-.91-14.83-.87-4.2-2.08-8.27-3.77-12.21-.25-.58-.6-.83-1.21-.73-1.85.29-3.72.46-5.54.87-4.98,1.12-9.77,2.77-14.33,5.13-8.81,4.56-15.88,11.01-21.48,19.16-.53.77-.49,1.34,0,2.09,3.86,5.81,6.3,12.18,7.35,19.06.41,2.72.56,5.48.83,8.33Zm-23.23,4.77c.22-3.02.45-5.99.66-8.96.31-4.29,1.25-8.46,2.7-12.47,1.35-3.72,3.13-7.29,4.69-10.93.12-.27.07-.76-.11-.98-4.44-5.47-10.03-9.4-16.48-12.16-.6-.26-1.11-.27-1.51.41-.33.57-.78,1.05-1.16,1.59-2.29,3.31-4.17,6.83-5.4,10.68-.35,1.09-.75,2.17-1.03,3.29-.28,1.11-.51,2.24-.62,3.38-.1,1.05-.56,2-.59,3.09-.1,3.99-.08,7.95.6,11.89.18,1.06.41,1.97,1.74,2.26,4.72,1.02,8.95,3.18,12.84,6,1.27.92,2.44,1.96,3.64,2.92Zm15.05,21c11.44-2.17,21.22-7.13,29.46-15.08,8.21-7.91,13.6-17.43,16.36-28.74-.74.2-1.19.3-1.61.45-4.49,1.61-8.87,3.45-13.02,5.81-4.93,2.81-9.59,5.99-13.71,9.9-2.17,2.07-4.16,4.33-6.21,6.52-.96,1.03-1.95,2.05-2.81,3.16-.76.98-1.64,2-1.96,3.14-.91,3.2-1.95,6.34-3.48,9.29-.93,1.8-1.94,3.56-3.01,5.54Zm-25.09-5.98c-.28-.35-.43-.56-.61-.75-2.5-2.67-4.68-5.58-6.55-8.73-1.82-3.07-3.19-6.32-4.39-9.66-.11-.31-.45-.73-.73-.77-3.06-.44-6.11-.22-9.11.39-1.92.39-3.78,1.05-5.64,1.67-.26.09-.53.62-.52.94.01.51.26,1,.39,1.51.43,1.68.69,3.42,1.3,5.03,2.26,5.91,5.97,10.75,11.1,14.49.63.46,1.1.47,1.77.08,3.45-2.05,7.14-3.45,11.16-3.85.55-.05,1.09-.21,1.81-.35Zm19.88.82c.17-.25.27-.37.34-.5,1.69-3.08,3.36-6.16,5.07-9.23.87-1.56,1.96-2.93,2.22-4.85.7-5.17.65-10.3-.31-15.4-.68-3.59-1.86-7.04-3.46-10.33-.6-1.24-1.31-2.43-2.06-3.81-.23.38-.32.51-.39.65-2.57,5.21-4.31,10.68-5.27,16.42-.82,4.94-.95,9.88-.5,14.83.16,1.71.28,3.46,1.16,5.04.7,1.26,1.3,2.57,1.89,3.89.46,1.03.83,2.1,1.29,3.28Zm-6.73,13.61c-.07-.11-.15-.22-.22-.32-1.25.2-2.51.35-3.74.61-4.07.85-8.12.54-12.15-.2-3.38-.62-6.61-1.7-9.65-3.31-.66-.35-1.16-.29-1.75.27-2.05,1.95-3.63,4.23-4.94,6.72-.42.79-.22,1.25.48,1.7,2.96,1.91,6.13,3.25,9.67,3.69,7.19.89,13.55-.95,19.03-5.69,1.2-1.03,2.19-2.3,3.28-3.46Zm-.14-12.01c.06-.1.13-.19.19-.29-.5-1.96-.98-3.93-1.51-5.89-.24-.87-.4-1.84-.89-2.56-3.63-5.33-8.52-9.13-14.47-11.57-.66-.27-1.36-.43-2.18-.69.06.42.05.59.11.74,2.98,7.35,7.56,13.51,13.95,18.21,1.37,1.01,3.19,1.39,4.8,2.06Zm-21.47,5.02c3.87,2.78,17.84,3.61,20.62,1.36-3.16-1.62-5.92-3.99-9.93-3.75-3.69.22-7.19.75-10.69,2.39Z"/>
        <rect class="cls-1" x="9.92" y="94.64" width="249.67" height="1.36"/>
        <rect class="cls-1" x="444.57" y="94.64" width="208.06" height="1.36"/>
      </g>
    </g>
  </g>
</svg>