<svg width="77" height="62" viewBox="0 0 77 62" fill="none" xmlns="http://www.w3.org/2000/svg">
<path d="M11.7854 28.8374L13.5339 34.0711C13.5885 34.2599 13.6431 34.3948 13.6431 34.5027C13.6431 34.6916 13.5066 34.7185 13.1241 34.7185H10.4195C10.0643 34.7185 9.90041 34.7185 9.90041 34.5027C9.90041 34.3948 9.92772 34.2869 10.0097 34.0711L11.7581 28.8374H11.7854ZM10.3648 28.2169L6.48549 38.4415C6.04838 39.6015 5.6386 39.6824 4.76438 39.6824H4.0814C3.72624 39.6824 3.37109 40.0331 3.37109 40.4378C3.37109 40.8425 3.78088 41.2202 4.32727 41.2202C4.73706 41.2202 5.88447 41.0853 7.87878 41.0853C8.97155 41.0853 9.59989 41.2202 10.037 41.2202C10.6107 41.2202 10.8839 40.9504 10.8839 40.4108C10.8839 39.9522 10.5561 39.6555 9.95504 39.6555C9.62721 39.6555 9.38134 39.7634 8.94423 39.7634C8.56176 39.7634 8.26125 39.5206 8.26125 39.2508C8.26125 38.981 8.31589 38.6843 8.39784 38.3875L8.97155 36.6879C9.13546 36.2563 9.3267 36.0404 9.62721 36.0404H13.9163C14.2169 36.0404 14.4081 36.2293 14.572 36.6879L15.1457 38.3875C15.255 38.6843 15.2823 38.981 15.2823 39.2508C15.2823 39.5206 14.9818 39.7634 14.5993 39.7634C14.1622 39.7634 13.9163 39.6555 13.5885 39.6555C12.9875 39.6555 12.6597 39.9252 12.6597 40.4108C12.6597 40.9234 12.9328 41.2202 13.5066 41.2202C13.9437 41.2202 14.572 41.0853 15.6648 41.0853C17.6591 41.0853 18.8065 41.2202 19.2163 41.2202C19.7627 41.2202 20.1725 40.8695 20.1725 40.4378C20.1725 40.0062 19.8173 39.6824 19.4622 39.6824H18.7792C17.9323 39.6824 17.4952 39.5745 17.0581 38.4415L13.1787 28.2169C12.8236 27.2457 12.687 26.7871 11.7581 26.7871C10.8293 26.7871 10.72 27.1918 10.3375 28.2169H10.3648Z" fill="#8D7D77" stroke="white" stroke-width="0.25" stroke-miterlimit="10"/>
<path d="M24.8478 38.4687V36.5803C24.8478 33.3699 25.3123 31.7783 27.2246 31.7783C28.0988 31.7783 28.8091 32.4797 28.8091 32.9923C28.8091 33.7476 27.6344 33.3699 27.6344 34.3142C27.6344 34.9886 28.0715 35.3933 28.7818 35.3933C29.82 35.3933 30.4483 34.6649 30.4483 33.4239C30.4483 31.6973 29.1916 30.5103 27.4432 30.5103C26.1865 30.5103 25.2303 31.1038 24.6566 32.2369V31.6434C24.6839 31.0229 24.5473 30.7801 23.9736 30.7801C23.8644 30.7801 23.3726 30.834 22.4984 30.834C22.0613 30.834 21.7334 30.834 21.5695 30.834C21.0231 30.834 20.7773 31.0499 20.7773 31.5085C20.7773 31.9671 20.9958 32.075 21.5149 32.075C21.5968 32.075 21.8154 32.075 22.1706 32.075C23.1814 32.075 23.2087 32.6416 23.2087 34.0983V38.4957C23.2087 39.6827 23.0994 39.9795 22.1706 39.9795C21.9793 39.9795 21.8154 39.9525 21.5968 39.9525C20.9958 39.9525 20.6953 40.1683 20.6953 40.6269C20.6953 41.0856 20.9412 41.2744 21.5422 41.2744C21.8974 41.2744 22.6623 41.1125 23.8644 41.1125C25.3123 41.1125 26.2685 41.2744 26.6782 41.2744C27.2246 41.2744 27.5251 41.0046 27.5251 40.6C27.5251 40.1144 27.2246 39.8985 26.569 39.8985C26.1319 39.8985 25.886 39.9255 25.7221 39.9255C25.0391 39.9255 24.8752 39.6827 24.8752 38.4957L24.8478 38.4687Z" fill="#8D7D77" stroke="white" stroke-width="0.25" stroke-miterlimit="10"/>
<path d="M30.9941 35.96C30.9941 39.3052 33.0157 41.4634 36.2667 41.4634C39.5177 41.4634 41.6486 39.3322 41.6486 35.96C41.6486 32.5878 39.6543 30.4835 36.2941 30.4835C32.9338 30.4835 30.9668 32.6148 30.9668 35.96H30.9941ZM32.6879 35.96C32.6879 33.3701 34.0812 31.8054 36.3214 31.8054C38.5616 31.8054 39.9548 33.3701 39.9548 35.96C39.9548 38.5498 38.5342 40.1145 36.3214 40.1145C34.1085 40.1145 32.6879 38.6038 32.6879 35.96Z" fill="#8D7D77" stroke="white" stroke-width="0.25" stroke-miterlimit="10"/>
<path d="M46.9455 38.4967V36.1227C46.9455 33.317 47.7924 31.7792 49.6774 31.7792C51.5624 31.7792 51.8356 33.0472 51.8356 35.3133V38.4967C51.8356 39.6837 51.7537 39.9265 51.2346 39.9265C51.0434 39.9265 50.7975 39.8726 50.5516 39.8726C50.0599 39.8726 49.814 40.0884 49.814 40.574C49.814 41.0056 50.0599 41.1945 50.497 41.1945C50.8795 41.1945 51.5898 41.0865 52.6279 41.0865C53.666 41.0865 54.431 41.2214 54.8134 41.2214C55.2779 41.2214 55.5237 41.0056 55.5237 40.547C55.5237 40.0884 55.2779 39.9265 54.7588 39.9265C54.4856 39.9265 54.267 39.9265 54.0758 39.9265C53.5294 39.9265 53.4748 39.6567 53.4748 38.4427V35.2594C53.4748 32.9663 54.0758 31.7523 56.0428 31.7523C58.2557 31.7523 58.3923 33.4788 58.3923 36.1766V38.4697C58.3923 39.6028 58.3649 39.8995 57.7912 39.8995C57.6273 39.8995 57.4088 39.8456 57.1629 39.8456C56.6985 39.8456 56.5072 40.0614 56.5072 40.547C56.5072 41.0326 56.7258 41.1675 57.1902 41.1675C57.8732 41.1675 58.6108 41.0596 59.3484 41.0596H59.5397C60.4685 41.0596 61.1788 41.1945 61.6433 41.1945C62.217 41.1945 62.4902 41.0056 62.4902 40.547C62.4902 40.0884 62.1896 39.8726 61.5886 39.8726C61.4247 39.8726 61.2608 39.8726 61.0149 39.8726C60.168 39.8726 60.0041 39.6567 60.0041 38.4158V35.0435C60.0041 32.0221 58.8294 30.3764 56.1248 30.3764C54.7042 30.3764 53.7753 30.9699 52.9011 31.9951C52.1361 30.9969 51.1253 30.3764 49.9506 30.3764C48.53 30.3764 47.4372 31.0778 46.7542 32.2379V31.5904C46.7542 30.9969 46.6996 30.7271 46.0713 30.7271C45.962 30.7271 45.4429 30.7811 44.5687 30.7811C44.1043 30.7811 43.8038 30.7811 43.6398 30.7811C43.1208 30.7811 42.8476 30.9699 42.8476 31.4555C42.8476 31.8872 43.0935 32.022 43.5852 32.022C43.8311 32.022 44.0223 32.022 44.2682 32.022C45.2517 32.022 45.2517 32.5616 45.2517 33.7756V38.4158C45.2517 39.6298 45.197 39.8995 44.2682 39.8995C44.077 39.8995 43.913 39.8995 43.6672 39.8995C43.0661 39.8995 42.7656 40.0884 42.7656 40.574C42.7656 41.0596 43.0388 41.1945 43.6125 41.1945C43.9404 41.1945 44.7873 41.0596 46.0986 41.0596C47.1094 41.0596 47.7377 41.1945 48.0382 41.1945C48.5027 41.1945 48.7212 41.0326 48.7212 40.52C48.7212 40.0614 48.5027 39.8995 48.0109 39.8995C47.847 39.8995 47.6558 39.8995 47.4645 39.8995C46.9455 39.8995 46.8908 39.6028 46.8908 38.4158L46.9455 38.4967Z" fill="#8D7D77" stroke="white" stroke-width="0.25" stroke-miterlimit="10"/>
<path d="M70.304 39.8448C70.3313 40.8699 70.987 41.4364 72.1071 41.4364C73.4457 41.4364 74.2653 40.735 74.2653 39.521V37.9833C74.2653 37.3089 74.1287 37.0661 73.6643 37.0661C73.2272 37.0661 73.0359 37.3359 73.0359 37.9294V38.9815C73.0359 39.7369 72.8447 40.1145 72.271 40.1145C71.6973 40.1145 71.6427 39.7099 71.6427 38.9006V34.0985C71.6427 31.5626 70.6319 30.4835 67.8999 30.4835C65.168 30.4835 63.6381 31.6436 63.6381 33.1813C63.6381 34.0985 64.1572 34.6111 64.8948 34.6111C65.5231 34.6111 65.9876 34.1795 65.9876 33.6129C65.9876 33.1004 65.4958 32.8845 65.4958 32.6687C65.4958 32.291 66.37 31.8054 67.6814 31.8054C69.102 31.8054 70.0035 32.3989 70.0035 33.478C70.0035 34.8539 68.9107 34.9618 66.534 35.2855C64.1572 35.6363 63.0098 36.4186 63.0098 38.361C63.0098 40.3034 64.2391 41.4364 66.5613 41.4364C68.2278 41.4364 69.4844 40.9239 70.3313 39.8448H70.304ZM70.0308 37.3898C70.0308 39.0085 68.6922 40.1145 66.5613 40.1145C65.3592 40.1145 64.567 39.3861 64.567 38.4689C64.567 37.147 65.4412 36.8233 67.1896 36.5805C68.4463 36.4186 69.3752 36.3107 70.0308 35.7711V37.4168V37.3898Z" fill="#8D7D77" stroke="white" stroke-width="0.25" stroke-miterlimit="10"/>
<path d="M8.67678 53.3927V51.909C8.67678 49.4001 9.05925 48.1321 10.5345 48.1321C11.2175 48.1321 11.7639 48.6986 11.7639 49.0763C11.7639 49.6698 10.835 49.3731 10.835 50.1015C10.835 50.641 11.1628 50.9378 11.7365 50.9378C12.5561 50.9378 13.0479 50.3713 13.0479 49.4001C13.0479 48.0512 12.0644 47.107 10.6984 47.107C9.71491 47.107 8.97729 47.5925 8.51286 48.4828V48.0242C8.54018 47.5386 8.4309 47.3498 7.96648 47.3498C7.88452 47.3498 7.50205 47.4037 6.81907 47.4037C6.46391 47.4037 6.21804 47.4037 6.10876 47.4037C5.67165 47.4037 5.48042 47.5656 5.48042 47.9163C5.48042 48.267 5.64434 48.3479 6.05413 48.3479C6.10876 48.3479 6.3 48.3479 6.57319 48.3479C7.36545 48.3479 7.39277 48.7796 7.39277 49.9396V53.3927C7.39277 54.337 7.28349 54.5528 6.57319 54.5528C6.4366 54.5528 6.27268 54.5258 6.13608 54.5258C5.64434 54.5258 5.42578 54.6877 5.42578 55.0654C5.42578 55.4431 5.61702 55.5779 6.08144 55.5779C6.35464 55.5779 6.95566 55.4431 7.88452 55.4431C9.03193 55.4431 9.76955 55.5779 10.0974 55.5779C10.5345 55.5779 10.7804 55.3621 10.7804 55.0654C10.7804 54.6877 10.5345 54.4988 10.0154 54.4988C9.68759 54.4988 9.46904 54.5258 9.33244 54.5258C8.78605 54.5258 8.67678 54.337 8.67678 53.3927Z" fill="#8D7D77" stroke="white" stroke-width="0.25" stroke-miterlimit="10"/>
<path d="M15.5925 50.5093C15.7564 49.0525 16.6579 48.1623 17.9692 48.1623C19.2806 48.1623 20.2367 49.0525 20.2367 50.4014V50.5093H15.5925ZM15.5105 51.5615H20.8378C21.4934 51.5615 21.63 51.3996 21.63 50.7791C21.63 48.5669 20.2094 47.1371 17.9419 47.1371C15.6744 47.1371 14.1445 48.7828 14.1445 51.4266C14.1445 54.0704 15.6198 55.743 17.9419 55.743C19.2259 55.743 20.1548 55.3653 20.8378 54.475C21.3295 53.8276 21.5481 53.2341 21.5481 52.8834C21.5481 52.5327 21.3022 52.3168 20.9744 52.3168C20.3733 52.3168 20.4553 53.0452 20.0182 53.6387C19.5264 54.3671 18.9254 54.6639 17.9966 54.6639C16.5213 54.6639 15.4832 53.5039 15.4832 51.6424V51.5884L15.5105 51.5615Z" fill="#8D7D77" stroke="white" stroke-width="0.25" stroke-miterlimit="10"/>
<path d="M25.4248 48.4285V48.0509C25.4248 47.4843 25.3702 47.4034 24.9058 47.4034C24.6326 47.4034 24.0315 47.4573 23.1846 47.4573C23.0207 47.4573 22.8568 47.4034 22.6656 47.4034C22.3377 47.4034 22.1738 47.5922 22.1738 47.916C22.1738 48.2397 22.3651 48.4285 22.7749 48.4285C22.9388 48.4285 23.13 48.3746 23.3212 48.3746C24.1135 48.3746 24.1408 48.8062 24.1408 49.8584V56.5758C24.1408 57.3581 24.0315 57.574 23.5671 57.574C23.4305 57.574 23.2393 57.547 22.9934 57.547C22.5563 57.547 22.3377 57.7089 22.3377 58.0865C22.3377 58.4103 22.529 58.5721 22.9115 58.5721C23.212 58.5721 23.8676 58.4642 24.9058 58.4642C25.78 58.4642 26.4083 58.5721 26.7088 58.5721C27.1459 58.5721 27.3645 58.4373 27.3645 58.0865C27.3645 57.7358 27.1459 57.547 26.6542 57.547C26.4903 57.547 26.3264 57.574 26.2171 57.574C25.5068 57.574 25.4248 57.3581 25.4248 56.5758V54.8223C26.0258 55.4427 26.9274 55.7665 27.8836 55.7665C30.2057 55.7665 31.7629 54.0938 31.7629 51.477C31.7629 48.8602 30.2877 47.1606 28.0475 47.1606C26.8454 47.1606 26.0258 47.5653 25.4521 48.4555H25.4248V48.4285ZM25.4248 50.8295C25.4248 49.1839 26.4083 48.1588 27.8289 48.1588C29.3588 48.1588 30.4243 49.3997 30.4243 51.4231C30.4243 53.4464 29.3861 54.6604 27.7743 54.6604C26.299 54.6604 25.4248 53.7701 25.4248 52.2324V50.8026V50.8295Z" fill="#8D7D77" stroke="white" stroke-width="0.25" stroke-miterlimit="10"/>
<path d="M34.2718 49.4829V52.1267C34.2718 54.5007 35.146 55.6338 37.5227 55.6338C38.7521 55.6338 39.5171 55.2291 40.3366 54.204V54.8245C40.3366 55.3101 40.3913 55.4989 40.883 55.4989C41.1562 55.4989 41.5114 55.4449 41.8938 55.4449C42.249 55.4449 42.5495 55.4719 42.7954 55.4719C43.2052 55.4719 43.3964 55.2831 43.3964 54.9323C43.3964 54.5816 43.2325 54.5007 42.85 54.5007H42.2763C41.566 54.5007 41.484 54.0961 41.484 52.8011V48.2419C41.484 47.5135 41.484 47.4056 40.9923 47.4056C40.8284 47.4056 40.5552 47.4326 40.2 47.4326C39.7356 47.4326 39.3258 47.3246 39.0253 47.3246C38.6155 47.3246 38.4516 47.4865 38.4516 47.8372C38.4516 48.2149 38.6428 48.4038 39.1073 48.4038C39.3531 48.4038 39.5444 48.3768 39.681 48.3768C40.2 48.3768 40.2547 48.5926 40.2547 49.5099V50.9127C40.2547 53.3946 39.5717 54.6626 37.7413 54.6626C36.0475 54.6626 35.5831 53.7184 35.5831 51.8299V48.2419C35.5831 47.5135 35.5831 47.4056 35.0913 47.4056C34.8455 47.4056 34.5723 47.4326 34.2444 47.4326C33.698 47.4326 33.2883 47.3246 32.9877 47.3246C32.578 47.3246 32.3867 47.5135 32.3867 47.8372C32.3867 48.2149 32.6053 48.4038 33.0697 48.4038C33.3702 48.4038 33.5888 48.3768 33.7254 48.3768C34.2718 48.3768 34.3264 48.5926 34.3264 49.5099L34.2718 49.4829Z" fill="#8D7D77" stroke="white" stroke-width="0.25" stroke-miterlimit="10"/>
<path d="M46.2118 54.7677C46.8402 55.3612 47.6051 55.712 48.5613 55.712C50.9654 55.712 52.4953 54.2012 52.4953 51.4765C52.4953 48.8866 51.02 47.1331 48.7799 47.1331C47.5778 47.1331 46.7582 47.6187 46.1845 48.5089V45.1367C46.1845 44.6241 46.1572 44.4083 45.6654 44.4083C45.5562 44.4083 45.1464 44.4623 44.3541 44.4623C43.8897 44.4623 43.6438 44.4353 43.5072 44.4353C43.0701 44.4353 42.8516 44.6241 42.8516 44.9479C42.8516 45.2716 43.0428 45.4065 43.4526 45.4065C43.5619 45.4065 43.7531 45.4065 43.9717 45.4065C44.8732 45.4065 44.9005 45.7032 44.9005 46.7554V54.417C44.9005 54.7408 44.8732 54.9026 44.8732 55.0645C44.8732 55.4692 45.0371 55.631 45.4742 55.631C46.0752 55.631 46.1845 55.4152 46.1845 54.9836V54.8217L46.2118 54.7677ZM46.2118 50.9909C46.2118 49.2103 47.3319 48.1582 48.7525 48.1582C50.2824 48.1582 51.1566 49.4531 51.1566 51.4765C51.1566 53.4998 50.2824 54.6868 48.5613 54.6868C47.0587 54.6868 46.2118 53.8505 46.2118 51.7462V50.9909Z" fill="#8D7D77" stroke="white" stroke-width="0.25" stroke-miterlimit="10"/>
<path d="M55.4533 53.3655C55.4533 54.3097 55.3713 54.5255 54.661 54.5255C54.4971 54.5255 54.3605 54.5255 54.1693 54.5255C53.7049 54.5255 53.459 54.6874 53.459 55.0381C53.459 55.3888 53.6775 55.5507 54.142 55.5507C54.3059 55.5507 55.0162 55.4158 56.2729 55.4158C57.1198 55.4158 57.7208 55.5507 58.0486 55.5507C58.4857 55.5507 58.7043 55.4158 58.7043 55.0381C58.7043 54.6604 58.4584 54.5255 57.994 54.5255C57.8574 54.5255 57.7481 54.5255 57.5569 54.5255C56.8466 54.5255 56.7646 54.3097 56.7646 53.3655V45.0024C56.7646 44.5168 56.71 44.328 56.1909 44.328C56.0816 44.328 55.6718 44.3819 54.8796 44.3819C54.4698 44.3819 54.1966 44.355 54.1146 44.355C53.7049 44.355 53.459 44.5438 53.459 44.8675C53.459 45.2452 53.6229 45.3531 54.0327 45.3531C54.142 45.3531 54.3605 45.3262 54.6337 45.3262C55.4533 45.3262 55.4806 45.7578 55.4806 46.9178V53.3925L55.4533 53.3655Z" fill="#8D7D77" stroke="white" stroke-width="0.25" stroke-miterlimit="10"/>
<path d="M60.5612 45.8109C60.5612 46.2965 60.9709 46.6741 61.4627 46.6741C61.9544 46.6741 62.3642 46.2695 62.3642 45.8109C62.3642 45.2983 61.9818 44.9206 61.4627 44.9206C60.9436 44.9206 60.5612 45.3253 60.5612 45.8109ZM61.0529 53.4455C61.0529 54.3628 60.9709 54.6056 60.2606 54.6056C60.0967 54.6056 60.0148 54.5786 59.7689 54.5786C59.3045 54.5786 59.0586 54.7405 59.0586 55.1181C59.0586 55.4958 59.2771 55.6037 59.7416 55.6037C59.9055 55.6037 60.6158 55.4959 61.7086 55.4959C62.5555 55.4959 63.3204 55.6037 63.6482 55.6037C64.0853 55.6037 64.3039 55.4689 64.3039 55.1181C64.3039 54.7674 64.058 54.5786 63.5936 54.5786C63.457 54.5786 63.3477 54.6056 63.1565 54.6056C62.4735 54.6056 62.3642 54.3898 62.3642 53.4455V48.104C62.3642 47.5914 62.3096 47.4026 61.7905 47.4026C61.6812 47.4026 61.3261 47.4565 60.6704 47.4565C60.1787 47.4565 59.8782 47.4565 59.6869 47.4565C59.3318 47.4565 59.0859 47.6723 59.0859 47.9421C59.0859 48.3198 59.2498 48.4277 59.6596 48.4277C59.7689 48.4277 59.9874 48.4007 60.2606 48.4007C61.0529 48.4007 61.1075 48.8324 61.1075 50.1273V53.4455H61.0529Z" fill="#8D7D77" stroke="white" stroke-width="0.25" stroke-miterlimit="10"/>
<path d="M65.0039 51.4195C65.0039 54.0903 66.4518 55.7359 68.8013 55.7359C70.1126 55.7359 71.0688 55.3043 71.7245 54.4949C72.1889 53.9014 72.4348 53.146 72.4348 52.7144C72.4348 52.3907 72.1889 52.1209 71.8337 52.1209C71.26 52.1209 71.2327 52.7414 70.9595 53.3888C70.5497 54.2791 69.8121 54.6838 68.8013 54.6838C67.3534 54.6838 66.3426 53.4968 66.3426 51.5544C66.3426 49.3692 67.3807 48.1822 69.0745 48.1822C70.0853 48.1822 70.7683 48.7487 70.7683 49.2073C70.7683 49.4771 70.0033 49.612 70.0033 50.2325C70.0033 50.7181 70.3312 50.9878 70.8776 50.9878C71.7245 50.9878 72.2435 50.4483 72.2435 49.585C72.2435 48.1822 70.9868 47.184 68.9652 47.184C66.5065 47.184 65.0039 48.8026 65.0039 51.4734V51.4195Z" fill="#8D7D77" stroke="white" stroke-width="0.25" stroke-miterlimit="10"/>
<path d="M37.5044 23.5264C37.1766 24.2008 36.7668 24.7943 36.2477 25.3069C35.5101 26.0623 34.6359 26.6288 33.6251 26.9795C32.7236 27.3032 31.7947 27.4651 30.8385 27.4111C29.2813 27.3032 27.888 26.7637 26.686 25.7655C26.3855 25.5227 26.3582 25.3339 26.4674 24.9831C26.7953 24.0659 27.3143 23.2296 27.9973 22.5282C28.1612 22.3663 28.1339 22.2854 27.97 22.1505C26.6587 21.1253 25.7025 19.8304 25.1015 18.2927C24.801 17.5103 24.6097 16.728 24.5278 15.8917C24.4731 15.46 24.637 15.2172 25.0468 15.0554C26.3308 14.5428 27.6695 14.1921 29.0901 14.273C29.1721 14.273 29.2813 14.273 29.4179 14.273C29.4179 14.1381 29.3633 14.0032 29.3633 13.8953C29.1721 12.6004 29.1721 11.3055 29.4179 10.0105C29.8004 7.93326 30.7019 6.09878 32.0952 4.50709C32.3138 4.23732 32.5323 4.21034 32.9148 4.31825C34.1988 4.74989 35.3735 5.39736 36.4117 6.26065C36.8488 6.61136 37.2586 7.043 37.6684 7.44766C37.723 7.50162 37.7776 7.58255 37.8323 7.66349C38.2421 7.17789 38.5699 6.71926 38.925 6.28762C40.1544 4.83083 41.657 3.67079 43.3234 2.75355C44.3069 2.214 45.3451 1.80934 46.4105 1.51258C47.4213 1.24281 48.4595 1.02698 49.5249 1C49.8528 1 50.044 1.13489 50.1806 1.40467C50.6723 2.40284 51.0548 3.42799 51.3007 4.50709C51.6558 6.04482 51.8471 7.58255 51.6558 9.14726C51.6558 9.22819 51.6558 9.28215 51.6558 9.36308C51.6558 9.39006 51.6558 9.41703 51.6558 9.47099C51.929 9.41703 52.2022 9.36308 52.5027 9.3361C53.2677 9.25517 54.0326 9.12028 54.8249 9.06633C56.1362 9.01237 57.4748 9.06633 58.7862 9.25517C59.8789 9.44401 60.9717 9.68681 62.0372 10.0375C63.3212 10.4422 64.5505 10.9817 65.6979 11.6562C66.818 12.3036 67.8835 13.032 68.867 13.8683C69.1129 14.0842 69.1675 14.3 69.0582 14.5967C68.2933 16.8089 67.1459 18.8322 65.6433 20.6397C64.2227 22.3663 62.5562 23.7961 60.6166 24.9562C59.5238 25.6036 58.3764 26.1971 57.1743 26.6018C56.1635 26.9525 55.0981 27.2493 54.0599 27.4921C52.6666 27.7888 51.246 27.9237 49.8254 27.8967C48.9785 27.8967 48.159 27.7618 47.3121 27.6809C45.9734 27.546 44.7167 27.1953 43.46 26.7637C41.7936 26.1971 40.2637 25.4148 38.8158 24.4166C38.3787 24.1199 37.9689 23.8231 37.5318 23.4994L37.5044 23.5264ZM38.9797 23.0947C38.9797 23.0947 39.1163 23.2026 39.1709 23.2566C40.9467 24.4975 42.859 25.4418 44.9626 26.0353C46.2193 26.386 47.476 26.6018 48.7873 26.7097C50.645 26.8446 52.5027 26.7097 54.3058 26.2781C55.5078 26.0083 56.6826 25.6036 57.83 25.118C59.6604 24.3087 61.3269 23.2566 62.8021 21.9347C64.9876 19.9653 66.5995 17.6182 67.6649 14.8935C67.7196 14.7316 67.7196 14.5967 67.5557 14.4888C67.0639 14.1381 66.5995 13.7604 66.0804 13.4367C64.851 12.6004 63.5124 11.926 62.0918 11.4673C61.3269 11.2245 60.5619 10.9817 59.797 10.7929C59.1686 10.631 58.513 10.5231 57.8846 10.4692C56.7919 10.4152 55.7264 10.3882 54.6336 10.4152C53.6228 10.4152 52.612 10.6041 51.6012 10.8469C51.5192 10.8469 51.41 10.9548 51.41 11.0357C51.3007 11.4134 51.2187 11.818 51.1094 12.1957C50.8089 13.2479 50.3991 14.273 49.8801 15.2442C49.2244 16.4582 48.4322 17.5643 47.476 18.5625C46.2193 19.9113 44.744 20.9905 43.0776 21.7728C42.2853 22.1505 41.4384 22.4203 40.6188 22.717C40.0998 22.8789 39.5807 22.9868 39.007 23.1487L38.9797 23.0947ZM40.8101 15.5949C40.8101 15.5949 40.892 15.541 40.9193 15.487C42.2307 14.1921 43.5966 12.9781 45.2085 12.0608C46.0827 11.5753 46.9569 11.1166 47.8858 10.712C48.6234 10.3882 49.3883 10.1724 50.126 9.90263C50.2079 9.87565 50.3172 9.79472 50.3172 9.74077C50.3718 9.52495 50.3991 9.30913 50.3991 9.06633C50.4265 7.85233 50.3991 6.66531 50.1806 5.45132C49.962 4.42617 49.6615 3.42799 49.2517 2.48377C49.1971 2.34888 49.1151 2.29493 48.9512 2.29493C48.4868 2.37586 48.0224 2.40284 47.5853 2.51075C46.3559 2.78053 45.1812 3.18519 44.0611 3.75172C41.9028 4.85781 40.1544 6.42251 38.7611 8.41886C38.6245 8.6077 38.6518 8.7426 38.7611 8.93144C39.7173 10.3343 40.3183 11.899 40.5642 13.5716C40.6735 14.246 40.7008 14.8935 40.7828 15.5949H40.8101ZM35.1003 16.755C35.155 16.0266 35.2096 15.2982 35.2643 14.5698C35.3462 13.5176 35.5648 12.5195 35.9199 11.5483C36.2477 10.631 36.6849 9.76775 37.0673 8.87748C37.0946 8.82353 37.0673 8.68864 37.0673 8.63468C35.9746 7.31278 34.6086 6.34158 32.9968 5.66713C32.8602 5.61318 32.7236 5.61318 32.6143 5.77505C32.5323 5.90994 32.423 6.01785 32.3411 6.15273C31.7674 6.96206 31.303 7.82536 31.0024 8.7426C30.9205 9.01237 30.8112 9.28215 30.7566 9.55193C30.6746 9.8217 30.62 10.0915 30.5927 10.3613C30.5927 10.6041 30.4561 10.8468 30.4561 11.1166C30.4561 12.0878 30.4561 13.059 30.5927 14.0032C30.6473 14.273 30.7019 14.4888 31.0298 14.5428C32.2045 14.7856 33.2426 15.3251 34.1988 15.9996C34.4993 16.2154 34.7998 16.4852 35.1003 16.701V16.755ZM38.8158 21.8537C41.6296 21.3142 44.0337 20.1272 46.0827 18.1848C48.1043 16.2694 49.443 13.9493 50.0986 11.1976C49.9074 11.2515 49.7981 11.2785 49.6888 11.3055C48.5961 11.6832 47.5033 12.1418 46.4925 12.7083C45.2904 13.3827 44.143 14.1651 43.1049 15.1093C42.5585 15.6219 42.0668 16.1614 41.575 16.701C41.3291 16.9438 41.0833 17.1866 40.892 17.4834C40.7008 17.7262 40.4822 17.9689 40.4003 18.2387C40.1817 19.0211 39.9085 19.7765 39.5534 20.5049C39.3348 20.9365 39.089 21.3681 38.8158 21.8537ZM32.6416 20.3969C32.6416 20.3969 32.5323 20.2621 32.505 20.2081C31.8767 19.5606 31.3576 18.8592 30.8932 18.0769C30.4561 17.3215 30.1009 16.5391 29.8004 15.7298C29.7731 15.6489 29.6911 15.541 29.6092 15.541C28.8442 15.433 28.1066 15.487 27.369 15.6489C26.9046 15.7298 26.4401 15.9187 25.9757 16.0535C25.9211 16.0535 25.8391 16.2154 25.8391 16.2694C25.8391 16.4042 25.8937 16.5122 25.9484 16.647C26.0577 17.0517 26.1123 17.4834 26.2762 17.861C26.8226 19.2909 27.7514 20.4779 29.0081 21.3951C29.1721 21.503 29.2813 21.503 29.4452 21.3951C30.2921 20.9095 31.1937 20.5588 32.2045 20.4509C32.3411 20.4509 32.4777 20.3969 32.6416 20.37V20.3969ZM37.5318 20.5858C37.5318 20.5858 37.5864 20.5048 37.6137 20.4509C38.0235 19.6955 38.4333 18.9402 38.8704 18.2118C39.089 17.8341 39.3621 17.5103 39.4168 17.0247C39.5807 15.7568 39.5807 14.5158 39.3348 13.2748C39.1709 12.4116 38.8704 11.5753 38.4879 10.7659C38.3513 10.4692 38.1601 10.1724 37.9689 9.84868C37.9142 9.92961 37.8869 9.98356 37.8596 10.0105C37.2312 11.2785 36.7941 12.6004 36.5483 14.0032C36.357 15.1903 36.3024 16.4042 36.439 17.6182C36.4663 18.0229 36.5209 18.4546 36.7395 18.8322C36.9034 19.129 37.0673 19.4527 37.2039 19.7765C37.3132 20.0193 37.4225 20.289 37.5318 20.5858ZM35.8653 23.904C35.8653 23.904 35.838 23.8501 35.8106 23.8231C35.5101 23.8771 35.1823 23.904 34.8818 23.958C33.871 24.1738 32.8875 24.0929 31.8767 23.904C31.0571 23.7422 30.2375 23.4994 29.4999 23.0947C29.336 23.0138 29.2267 23.0138 29.0628 23.1487C28.571 23.6343 28.1612 24.1738 27.8334 24.7943C27.7241 24.9831 27.7788 25.0911 27.9427 25.199C28.6803 25.6576 29.4452 25.9813 30.3195 26.0892C32.0952 26.305 33.6524 25.8464 35.0184 24.7134C35.3189 24.4706 35.5648 24.1468 35.838 23.8771L35.8653 23.904ZM35.838 20.9904L35.8926 20.9095C35.756 20.4239 35.6467 19.9653 35.5101 19.4797C35.4555 19.2639 35.4009 19.0211 35.2916 18.8592C34.39 17.5643 33.188 16.6471 31.7401 16.0535C31.5761 15.9996 31.4122 15.9456 31.1937 15.8917C31.1937 15.9996 31.1937 16.0266 31.1937 16.0805C31.9313 17.861 33.0514 19.3718 34.6359 20.5049C34.9637 20.7476 35.4282 20.8556 35.8106 21.0174L35.838 20.9904ZM30.538 22.2044C31.4942 22.8789 34.9364 23.0947 35.6194 22.5282C34.8545 22.1235 34.1715 21.557 33.1607 21.6109C32.2591 21.6649 31.3849 21.7998 30.538 22.2044Z" fill="#8D7D77" stroke="white" stroke-width="0.25" stroke-miterlimit="10"/>
<path d="M67.9869 23.7708V24.7959H75.3358V59.9748H2.09277V24.7959H22.3637V23.7708H1V60.9999H76.4286V23.7708H67.9869Z" fill="#8D7D77" stroke="white" stroke-width="0.25" stroke-miterlimit="10"/>
</svg>
