<?xml version="1.0" encoding="UTF-8"?>
<svg id="_Слой_2" data-name="Слой 2" xmlns="http://www.w3.org/2000/svg" viewBox="0 0 655.15 108.29">
  <defs>
    <style>
      .cls-1 {
        stroke-width: 0px;
      }
    </style>
  </defs>
  <g id="Layer_1" data-name="Layer 1">
    <g>
      <g>
        <path class="cls-1" d="m53.95,55.86c-.32-.12-.62-.22-.89-.31.1-.05.21-.1.32-.16,5.96-2.73,12.06-7.35,12.06-21.01,0-15.31-14.33-24.46-28.19-24.46-2.36,0-6.49.12-10.17.23-2.96.09-5.64.17-6.89.17-3.16,0-6.81-.19-9.75-.34-2-.1-3.67-.19-4.65-.19-1.8,0-4.86.57-4.86,2.73,0,1.99,2.36,2.19,4.85,2.4,1.39.11,2.96.24,3.91.63.81.35,1.3.65,1.96,1.38.33.51.87,2.23.87,7.99v51.45c0,10.48-.72,20.4-1.63,22.57-.57,1.36-2.14,1.94-3.5,2.23-.6.2-1.62.27-2.62.35-2.24.17-4.77.35-4.77,2.44,0,.82.37,2.73,3.8,2.73,1.82,0,4.28-.13,6.73-.27,2.41-.13,4.81-.27,6.59-.27,2.98,0,6.13.21,9.46.43,3.81.25,7.74.51,12.01.51,10.52,0,34.99-2.47,34.99-25.39,0-12.29-6.79-21.22-19.62-25.84Zm-16.16-3.41h-6.26c-.73,0-1.04-.05-1.14-.05-.03,0-.04,0-.03.02-.04-.1-.1-.39-.1-1.23v-29.59q0-3.54,3-3.54c5.79,0,16.6,7.17,16.6,20.87,0,12.52-5.46,13.53-12.07,13.53Zm-7.64,8.25h0c.23-.09.93-.13,2.05-.13,14.55,0,24.33,9.35,24.33,23.27,0,15.4-13.62,16.6-17.8,16.6-4.43,0-5.23,0-6.96-2.38-1.3-1.9-1.51-5.74-1.51-14.22v-22.66c0-.13,0-.48-.1-.48Z"/>
        <path class="cls-1" d="m237.25,87.41c-.32-.32-.89-.7-1.78-.7-1.63,0-2.35,1.76-3.18,3.8-.85,2.09-1.91,4.68-3.88,5.39-1.78.83-6.93,1.75-11.47,1.75h-1.13c-3.22.03-8.02.03-11.14-.77-1.5-.31-2.73-3.3-2.86-6.96-.06-1.22-.27-5.63-.27-11V25.18c0-4.95,0-7,1.23-8.45.87-1.2,3.09-1.64,4.87-1.99,1.98-.39,4.03-.8,4.03-2.62,0-1.57-1.54-2.59-3.93-2.59-.32,0-1.8.09-3.76.21-3.73.23-9.35.59-11.7.59s-7.16-.29-10.32-.48c-1.79-.11-3.16-.19-3.53-.19-1.37,0-3.93,0-3.93,2.73,0,1.76,1.99,2.17,4.09,2.61,1.18.24,2.96.61,3.4,1.13,1.55,1.88,1.85,2.44,1.85,8.79v58.99c0,10.73,0,12.66-1.83,15.42-.87,1.47-3.36,1.83-5.37,2.1-1.61.23-3.27.46-4.01,1.42-.79-1.26-2.78-1.61-4.62-1.89-1.45-.23-3.26-.51-3.79-1.11-1.46-1.82-3-4.96-3.95-7.29L126.41,9.94c-.74-1.94-1.59-4.14-3.44-4.14-1.95,0-2.84,2.45-3.3,3.71l-34.66,84.1c-2.03,4.75-3.6,6.86-7.95,7.64l-.53.05c-1.45.13-4.15.38-4.15,2.53,0,2.73,2.96,2.73,3.93,2.73,2.15,0,4.6-.1,7.06-.2,2.41-.1,4.83-.2,6.94-.2,1.84,0,3.82.1,5.8.2,2.02.1,4.04.2,5.93.2,1.1,0,3.66,0,3.66-2.86,0-2.06-2.98-2.54-5.61-2.96-.35-.06-.65-.1-.83-.14l-.34-.07c-2.08-.47-2.95-.85-2.95-2.03,0-2.78,1-6.58,3.24-12.32l4.56-11.39q.49-1.28,1.87-1.28h26.26c.93,0,1.36,0,3.49,5.87l3.33,8.39c2.07,5.32,2.58,7.45,2.58,10.87,0,1.88-1.09,2.28-3.57,2.74-1.59.3-3.76.7-3.76,2.86,0,1.06.61,2.33,3.53,2.33s6.49-.1,10.04-.2c3.52-.1,7.04-.2,9.96-.2,1.84,0,3.72.1,5.6.2,1.92.1,3.84.2,5.73.2.81,0,2.87-.04,3.75-1.22.11.18.22.36.33.48.91.9,2.4.92,3.69.89h.36c.36,0,1.56-.06,3.17-.14,3.27-.16,8.21-.4,11.23-.4,10.45,0,25.68.43,33.87.67,2.83.08,4.73.13,5.19.13,3.13,0,3.8-1.87,3.92-3.1.02-.29.35-2.05,1-4.02l.03-.08c.27-1.03.77-2.63,1.26-4.2,1.12-3.61,1.45-4.74,1.45-5.43,0-.6.03-1.86-.82-2.71Zm-128.04-26.44l9.07-23.2.27-.71c.03-.07.06-.15.09-.23l9.96,24.95.02.04c.23.53.85,1.98,1.03,2.88-.3.01-.69.01-1.08.01h-20.53c-.13,0-.24,0-.34,0,.3-.85.84-2.2,1.51-3.74Z"/>
        <path class="cls-1" d="m436.36,9.66c-.73,0-2.17.11-3.87.25-2.34.18-5.25.42-7.32.42s-4.92-.24-7.15-.44c-1.46-.13-2.66-.23-3.25-.23-3.36,0-4.06,1.41-4.06,2.59,0,1.96,2.06,2.25,3.56,2.46,1.51.21,3.39.48,4.67,1.76,1.4,1.4,1.76,3.6,1.76,10.71v48.78c0,.39-.02.7-.03.95-.25-.22-.58-.55-1.01-1.04l-62.79-63.05c-3.39-3.39-5.43-4.77-7.03-4.77-2.86,0-2.86,2.83-2.86,8.46v71.72c0,8.03-1.28,10.79-2.32,11.67-1.33,1.05-3.4,1.32-5.23,1.56-1.07.14-2.21.29-3.08.67-.99-.66-2.45-.95-3.85-1.17-1.46-.23-3.26-.51-3.8-1.11-1.46-1.83-3-4.96-3.95-7.29l-33.85-82.62c-.74-1.94-1.59-4.14-3.44-4.14-1.95,0-2.84,2.45-3.3,3.71l-34.66,84.1c-2.03,4.75-3.6,6.86-7.95,7.64l-.53.05c-1.45.13-4.15.38-4.15,2.53,0,2.73,2.96,2.73,3.93,2.73,2.15,0,4.6-.1,7.05-.2,4.53-.19,8.5-.21,12.75,0,2.02.1,4.04.2,5.93.2,1.1,0,3.66,0,3.66-2.86,0-2.06-2.98-2.54-5.61-2.96-.35-.06-.65-.1-.83-.14l-.34-.07c-2.08-.47-2.95-.85-2.95-2.03,0-2.78,1-6.58,3.24-12.32l4.56-11.4q.49-1.27,1.86-1.27h26.26c.93,0,1.36,0,3.5,5.87l3.33,8.39c2.07,5.32,2.58,7.45,2.58,10.87,0,1.88-1.09,2.28-3.57,2.74-1.59.3-3.76.7-3.76,2.86,0,1.06.61,2.33,3.53,2.33s6.49-.1,10.04-.2c3.52-.1,7.04-.2,9.96-.2,1.84,0,3.72.1,5.6.2,1.92.1,3.84.2,5.73.2.56,0,1.72-.04,2.69-.43.9.5,2.09.56,2.78.56.58,0,2.29-.08,4.37-.18,3.26-.16,7.32-.35,9.49-.35,1.87,0,4.65.16,7.17.3,2.15.12,4.12.23,5.23.23,2.15,0,4.59,0,4.59-2.73,0-1.87-2.13-2.19-4.2-2.5-1.63-.24-3.66-.55-4.81-1.42-1.93-1.52-3.12-5.89-3.12-11.41v-46.25c0-1.62,0-3,.06-3.78.33.24.86.68,1.65,1.47l63.08,63.34c3.43,3.45,4.86,4.88,6.33,4.88,2.46,0,2.46-3.05,2.46-8.59V31.32c0-7.38.2-14.33,1.64-15.17l.09-.06c1.01-.7,2.66-1,4.13-1.26,2.06-.37,4.41-.78,4.41-2.84,0-2.33-2.65-2.33-4.99-2.33Zm-162.65,51.31l9.07-23.2.26-.67c.03-.09.07-.18.1-.27l9.96,24.95.02.04c.23.53.85,1.98,1.03,2.88-.3.01-.69.01-1.08.01h-20.53c-.13,0-.24,0-.34,0,.3-.85.84-2.2,1.51-3.74Z"/>
        <path class="cls-1" d="m532.06,80.98c-2.19,0-2.38,1.96-2.5,3.13-.05.56-.11,1.21-.31,1.89-.64,2.06-3.09,6.95-5.21,8.52-6.66,4.34-12.44,6.19-19.31,6.19-23.08,0-36.86-17.87-36.86-47.79,0-18.38,10.01-36.99,29.13-36.99,15.31,0,25.43,4.36,30.09,12.96.59,1.04.71,2.33.83,3.57.17,1.76.42,4.4,3.2,4.4s2.86-3.73,2.86-6.19c0-1.73-.12-3.62-.23-5.31-.09-1.3-.17-2.49-.17-3.36s.21-2.34.41-3.74c.17-1.17.33-2.34.4-3.32,0-1.81-.65-2.73-1.93-2.73-.78,0-1.28.24-1.65.42-.31.15-.51.25-1.02.25-.76,0-1.83-.34-3.32-.81-4.23-1.35-12.11-3.85-29.47-3.85-27.17,0-48.45,21.57-48.45,49.11,0,37.63,27.75,50.98,51.51,50.98,10.35,0,19.8-1.18,28.06-3.51,2.24-.62,3.66-2.11,4.11-4.38.13-.89.52-2.96.9-4.38h0c.98-3.79,1.77-8.36,1.77-10.19,0-3.22-.96-4.86-2.86-4.86Z"/>
        <path class="cls-1" d="m608.85,87.64c-1.47,0-2.1,1.4-2.77,2.89-.87,1.93-2.06,4.58-5.17,5.73-3.37,1.37-8.76,1.37-12.32,1.37-3.03,0-9.34,0-11.41-2.07-1.14-1.05-1.19-2.06-1.19-4.27v-31.53h15.4c3.48,0,4.77.5,4.97.7,1.28,1.28,1.63,3.28,1.9,4.89.31,1.76.65,3.75,2.59,3.75,2.33,0,2.33-2.76,2.33-3.66,0-1.68-.07-3.5-.13-5.31-.07-1.79-.13-3.57-.13-5.22,0-1.23.1-2.5.2-3.76.1-1.33.2-2.66.2-3.96,0-2.2,0-5.53-2.33-5.53-1.87,0-2.25,2.16-2.62,4.24-.27,1.58-.66,3.75-1.65,4.43-.85.7-2.73,1.05-5.6,1.05h-14.13c-.35,0-.73,0-.98-.02-.01-.15-.03-.37-.03-.72v-30.53c0-1.17.2-1.94,2.87-1.94h12.13c2.4,0,5.7,0,7.98.6,2.26.8,3.76,2.25,4.57,4.46.09.23.13.57.19.93.22,1.31.63,3.75,2.85,3.75.73,0,1.18-.3,1.43-.56.66-.66.65-1.57.63-2.63v-.47c0-1.62-.1-3.38-.2-5.13-.1-1.71-.2-3.42-.2-5,0-.15.03-.38.05-.64.04-.44.08-.94.08-1.36,0-2.53-1.68-2.73-2.19-2.73-1.3,0-2.45.07-3.61.13-1.11.07-2.22.13-3.46.13-2.79,0-4.45.1-6.09.2-1.58.1-3.16.2-5.79.2-6.79.13-14.12.27-20.91.27-1.76,0-4.59-.17-7.32-.33-2.77-.17-5.63-.33-7.47-.33-1.15,0-4.2,0-4.2,2.33,0,1.71,1.82,2.06,3.58,2.4,4.02.78,7.35,1.86,7.35,7.32v49.86c0,20.43-1.03,26.01-1.63,27.47-.71,1.59-3.41,1.99-5.58,2.32-2.16.32-4.39.66-4.39,2.6,0,2.73,3.4,2.73,5.66,2.73s4.77-.13,7.33-.27c2.51-.13,5.02-.27,7.2-.27,5.33,0,11.29.1,17.24.2,5.97.1,11.95.2,17.28.2.96,0,3.34-.15,4.76-1.57.42-.41.61-1.06,1.07-2.6.29-.99.63-2.2,1.08-3.29l.53-1.33c1.39-3.51,2.23-5.74,2.23-7.13,0-2.48-1.2-3-2.2-3Z"/>
      </g>
      <path class="cls-1" d="m638.81,32.43c-9.43,0-16.42-6.91-16.42-16.17s7.28-16.26,16.42-16.26,16.34,6.99,16.34,16.26-7.24,16.17-16.34,16.17Zm0-30.49c-7.94,0-13.78,6.16-13.78,14.27s6.12,14.27,13.78,14.27,13.69-6.33,13.69-14.27-5.96-14.27-13.69-14.27Zm8.98,22.88h-1.65c-1.78,0-3.31-.46-4.43-1.82l-2.98-3.68c-.37-.46-.62-.91-.95-1.28-.29-.37-.62-.58-.99-.58h-1.74v3.23c0,.12,0,2.65.58,3.02.12.12.21.12.33.17.29.12,1.16.04,1.16.5,0,.29-.25.46-.74.46-.25,0-1.99-.08-2.77-.08-.74,0-2.44.08-2.69.08-.33,0-.99.12-.99-.37,0-.46.83-.54,1.16-.66.46-.21.58-.74.58-1.7v-12.49c0-.5-.21-.91-.33-1.03-.33-.29-.66-.33-.99-.37-.21-.12-.7-.12-.7-.46,0-.29.21-.41.66-.41.29,0,1.57.04,3.02.04,1.32,0,2.23-.17,3.35-.17,3.1,0,6.49,1.28,6.49,4.47,0,2.03-.99,3.72-2.61,4.84l.04.04s0,.04.04.08l3.76,4.3c.62.62,2.48,2.94,3.72,2.94.33,0,.87-.04.87.41,0,.37-.74.54-1.2.54Zm-11.42-16.05h-.79c-.37,0-.54.29-.54.83v6.41s.25.04.29.04h1.45c.46,0,.83.04,1.28-.12.99-.46,1.74-1.86,1.74-3.39,0-2.32-.99-3.76-3.43-3.76Z"/>
    </g>
  </g>
</svg>