<?xml version="1.0" encoding="UTF-8"?>
<svg id="_Слой_2" data-name="Слой 2" xmlns="http://www.w3.org/2000/svg" viewBox="0 0 518.94 196.11">
  <defs>
    <style>
      .cls-1 {
        fill: #00652e;
        stroke-width: 0px;
      }
    </style>
  </defs>
  <g id="Layer_1" data-name="Layer 1">
    <path class="cls-1" d="m454.63,96.96h11.5v-43.67h-11.5v43.67ZM47.76,119.58c-1.29-1.88-2.08-4.09-2.1-6.42l-.41-27.58c-5.08-.27-10.01-3.75-11.62-8.32-.73-2.08-1.78-7.44,4.3-12.29,5.01-4.01,7.4-6.12,10.42-8.8,3.91-3.51,8.76-7.85,21.41-18.11,0-.01.01-.01.05-.03,7.4-6.54,16.21-6.17,24.2,1.04l.77.58c.59-4.36,4.06-7.45,8.93-7.72.45-.02.88-.02,1.32.01-2.9-6.66-3.41-16.9,9.26-20.45,9.99-2.81,13.72-7.18,15.07-10.5-18.88,1.37-40.47,4.38-59.74,10.6-3.77.83-7.73,1.96-11.84,3.46-2.26.81-4.8-.12-7.16.9-1.99.91-3.77,3.78-5.84,4.85-4.35,2.24-4.62.11-8.94,2.73-2.3,1.4-5.06,5.13-7.23,6.88-2.8,2.28-5.1,1.11-7.56,4.03-2.22,2.59-1.51,6.21-3.45,9.38-.72,1.23-3.64-.03-4.36,1.26-4,3.05-3.03,6.65-5.19,11.14-.53,1.13-4.08,1.57-4.53,2.74-1.56,3.47.32,8.3-.56,12.15-.29,1.28-2.32.68-2.55,2.01-1.14,6.74.32,15.39.77,22.55.07.86.17,1.72.28,2.57.32,2.58.85,5.2,1.64,7.89.32,1.4.73,2.8,1.18,4.18,1.34,4.19,3.16,8.26,5.49,12.15.75,1.36,1.53,2.64,2.31,3.88,3.82,5.8,8.08,10.93,11.55,14.66,1.82,1.99,4.04,3.8,5.91,4.96,3.42-7.29,9.3-16.28,18.21-26.38Zm448.35-21.54c9.98,0,18.59-5.56,22.83-14.98l-7.45-6.12c-2.34,6.37-7.72,10.86-14.11,10.86-5.84,0-9.96-3.23-12.04-7.37-.89-1.8-1.44-3.86-1.44-5.93,0-2.24.36-4.48,1.36-6.46,1.44-2.88,4.85-6.2,10.6-6.2,1.79,0,5.93.45,8.72,3.42l-16.35,10.41,3.86,6.55,25.7-15.61c-3.69-8.44-11.42-14.38-21.93-14.38-14.66,0-23.44,10.79-23.44,22.38,0,12.93,9.6,23.44,23.7,23.44Zm11.08,13.69c-5.36,0-6.73,3.26-8.71,6.44l-13.36,20.9c-.3.57-.72,1.2-1.05,1.63-.19.18-.31.46-.52.74-.1.08-.1.26-.24.26,0,0-.1-.09-.1-.18v-28.71h-13.45v35.34c0,3.46.22,9.91,7.48,9.91,5.25,0,6.91-3.74,8.82-6.64l13.03-20.34c.31-.54.74-1.19,1.06-1.72.19-.19.3-.47.51-.73.22-.37.42-.81.53-.37.22.54.1,1.1.1,1.54v27.18h13.46v-36.16c0-2.82,0-9.09-7.57-9.09Zm-218.49-13.68c3.5,0,6.38-.9,8.36-1.72v-11.5c-1.09,1-2.88,2.08-6.93,2.08-9.43,0-12.14-6.73-12.14-11.48,0-7.29,5.04-12.06,11.41-12.06,10.06,0,11.24,9.17,11.24,15.2v18.4h11.49v-19.23c0-21.55-14.2-25.51-22.45-25.51-15.02,0-23.18,12.4-23.18,23.72,0,14.12,11.31,22.1,22.19,22.1Zm89.39-18.87h14.92v17.78h11.5v-43.67h-11.5v16.27h-14.92v-16.27h-11.5v43.67h11.5v-17.78Zm-46.18,0h14.93v17.78h11.49v-43.67h-11.49v16.27h-14.93v-16.27h-11.5v43.67h11.5v-17.78ZM105.11,40.07c-.11-.07-.25-.08-.37-.1-1.02.03-2.41,1.11-2.34,2.47.11,1.65.02,2.12,0,5.48,0,0,.02,6.04,0,8.48v.76l-5.89-4.32-2.24-1.76-6.06-4.8-.14-.09-.11-.12h-.02c-5.77-5.27-9.38-3.46-12.12-.96l-.09.08-.09.08c-14,11.35-21.55,18.09-30.64,26.07-.38.3-.73.58-1.11.88-.07.06-.08.15-.08.28-.34.41-.54.93-.54,1.49,0,1.3,1.05,2.35,2.35,2.35.04,0,.08-.02.12-.02.05.02.11.03.17.03h.17s0,0,0,0h1.73s2.16-.01,2.16-.01l2.35-.02,2.25-.03v35.03c0,2.87,1.46,3.96,2.93,4.68-.03,0-.08.02-.11.03.67.31,1.44.53,2.29.57.08.04.17.04.25.04.16,0,.31.04.47.04l.17-.02h1.29l44.65-.22c1.76,0,4.86-.41,4.86-5.72v-34.68l4.81-.02h1.96c.09,0,.19-.06.28-.06.16-.03.33-.06.48-.1.05-.01.09-.02.13-.05.04-.03.05-.03.09-.06.83-.5,1.36-1.77,1.62-2.96-.08-.31-.24-.6-.43-.86-.08-.13-.15-.25-.26-.34-1.78-1.5-13.18-10.55-13.18-10.55l.03-2.26c.02-2.25.02-5.51.02-8.56-.02-4.34-.02-8.28,0-8.25-.2-.24-.16-1.73-1.78-1.9Zm-24.19,55.3c0,.59-.48,1.06-1.05,1.06h-5.86c-.07,0-.14-.04-.18-.06-.49-.08-.89-.47-.89-1v-5.87c0-.57.47-1.04,1.07-1.04h5.86c.29,0,.53.12.73.3.19.17.32.46.32.74v5.87Zm0-11.47c0,.6-.48,1.06-1.05,1.06h-5.86c-.6,0-1.07-.46-1.07-1.06v-5.86c0-.59.47-1.07,1.07-1.07h5.86c.56,0,1.05.48,1.05,1.07v5.86Zm11.46,11.47c0,.59-.45,1.06-1.02,1.06h-5.9c-.57,0-1.02-.48-1.02-1.06v-5.87c0-.57.45-1.04,1.02-1.04h5.9c.56,0,1.02.47,1.02,1.04v5.87Zm0-11.47c0,.6-.45,1.06-1.02,1.06h-5.9c-.57,0-1.02-.46-1.02-1.06v-5.86c0-.59.45-1.07,1.02-1.07h5.9c.56,0,1.02.48,1.02,1.07v5.86Zm365.2,40.64l5.95-11.73h-13.8l-3.91,9.08c-2.82,6.47-4.23,7.37-8.45,7.37h-2.92v-16.46h-12.87v44.17h12.87v-18h6.15c4.41,0,8.94.66,8.94,8.62v9.37h12.87v-9.74c0-3.16-.71-13.61-11.15-14.62,3.8-2.27,4.81-5.18,6.32-8.08ZM178.76.8c-1.23-.34-21.94-1.67-48.18.11.06,5.19-1.6,13.3-11.99,16.56-14.08,4.42-12.31,10.07-11.33,14.82,0,0,.02.02.04.02,3.69.91,6.99,3.49,7.79,7.34h0c.07.35.15.69.18,1.05.39,4.97.79,10.67.86,15.91,9.97,8,11.08,9.14,11.53,9.61,3.44,3.43,4.52,7.82,2.94,11.7-1.53,3.74-5.3,6.37-9.98,7.12l.39,27.66c.07,3.16-1.19,6.21-3.52,8.57-2.73,2.8-6.75,4.43-10.96,4.43l-46.11.21c-1.55.02-3.06-.19-4.49-.58-1.93,1.78-3.74,3.74-5.49,5.72-4.74,6.38-9.31,13.07-12.74,18.84-6.41,12.65-9.98,26.56-10.3,39.54.24,4.3.64,6.7.64,6.7,2.11-9.61,4.51-21.32,9.83-31.2,2.23-2.39,5.89-4.58,11.74-2.96,5.74,2.3,2.92,1.64,8.08,3.31,1.73.56,3.53,1.07,5.36,1.49,16.56,4.31,35.94,3.89,48.12-2.51,1.54-.81.22-4.6,1.63-5.5,4.9-2.7,12.66-3.1,16.26-6.19,1.2-1.04-1.2-4.6-.14-5.66,5.04-4.11,10.24-5.36,12.87-9.83.67-1.12-.45-5.35.12-6.48,4.15-5.79,7.3-4.87,9.5-10.72.44-1.18-.6-6.29-.19-7.51,2.47-5.5,4.18-5.07,5.01-10.7.76-5.15-1.85-7.07-1.73-12.06.04-.88,2.77-8.78,2.77-9.63,0-1.73-2.1-4.03-2.27-5.63-.07-.65-.15-1.24-.26-1.8,1.09-10.79,1.24-20.72,1.15-28.46-.46-35.77,23.61-43.39,23.61-43.39-.25.07-.49.1-.75.14,0,0,0,0,0-.01ZM42.94,155.75s-.02-.04-.02-.06c.02.01.02.06.05.09l-.02-.03ZM178.8.86h0s0-.01,0-.01c0,0,.02,0,.01.01Zm86.36,144.85h-13.17v-32.9h-12.13v32.9h-1.8c-4.54,0-6.73-.37-8.13-1.21-3.51-2-3.21-5.52-3.21-8.15v-23.54h-12.14v24.8c0,6.36.19,12.37,6.27,16.36,3.88,2.64,9.47,3.02,13.45,3.02h42.99v-44.18h-12.12v32.9Zm17.69-21.63h13.41v32.9h12.27v-32.9h13.41v-11.27h-39.09v11.27Zm-56.19-28.75c3.3,1.43,6.87,2,10.37,2,6.39,0,12.79-2.11,17.22-5.98,3.76-3.25,7.41-9.06,7.41-17.35,0-3.16-.55-6.21-1.77-9.05-2.63-6-9.22-11.64-19.94-11.64-2.92,0-5.75.48-8.76,1.63v12.48c2.16-1.05,4.8-1.72,6.79-1.72,2.25,0,5.25.96,7.23,2.77,1.22,1.14,2.54,3.14,2.54,6.38s-1.51,5.43-2.9,6.67c-1.9,1.61-4.62,2.48-7.26,2.48-1.79,0-3.49-.29-5.08-1.15-4.98-2.65-5.07-7.14-5.07-11.05v-28.84c33.3,4.92,38.39-33.05,38.91-38.03-.34,2.01-2.89,8.96-22.47,8.22-15.24-.57-23.14,11.81-26.72,20.11,5.01-7.17,12.17-16.15,22.49-16.43,17.05,1.51,22.17-2.24,22.17-2.24,0,0-5.97,11.23-26.28,14.98-5.13.95-14.37,4.87-19.22,11.29l.19.02c-1.87,2.77-3.01,6.2-3.01,10.39v21.67c0,9.73,1.88,17.73,13.15,22.39Zm141.05,17.68h-11.94v23.66c0,7.93-5.14,9.71-8.2,9.71s-7.47-1.88-7.47-9.71v-23.66h-11.91v23.75c0,6.41.54,15.97,10.53,19.62,2.06.72,4.2,1.08,6.43,1.08,2.7,0,7.37-.47,11.47-4.93v3.31c0,3.76-.48,10.35-11.84,10.35-5.42,0-10.36-1.08-15.95-3.2l-.56,11.32c4.3,1.35,11.29,2.94,16.89,2.94,5.29,0,11.56-1.23,16.05-4.8,6.89-5.52,6.51-12.59,6.51-18.48v-40.94Zm33.26,19.42h-4.05c-3.94,0-5.75-.16-7.09-.91-3.36-1.8-3.06-4.8-3.06-8.26v-10.45h-12.28v12.36c0,7,.11,12.63,7.58,16.35,4.23,2.1,9.29,2.2,14,2.2h4.9v13.27h12.24v-44.17h-12.24v19.62Zm49.37-52.61c0-10.69-8.53-16.27-17.07-16.27-2.25,0-4.14.45-5.4.8v10.34c.45-.19,2.07-.92,3.96-.92,4.47,0,7,3.5,7,6.85,0,2.95-2.24,6.27-7.08,6.27s-7.45-3.39-7.45-8.18v-25.43h-11.51v22.47c0,6.21.09,11.97,5.11,17.17,4.23,4.31,9.35,5.11,13.31,5.11,12.95,0,19.14-9.06,19.14-18.22Z"/>
  </g>
</svg>