<?xml version="1.0" encoding="UTF-8"?>
<svg id="_Слой_2" data-name="Слой 2" xmlns="http://www.w3.org/2000/svg" viewBox="0 0 408.39 171.79">
  <defs>
    <style>
      .cls-1 {
        fill: #3dae2b;
      }

      .cls-1, .cls-2, .cls-3 {
        stroke-width: 0px;
      }

      .cls-2 {
        fill: #fff;
      }

      .cls-3 {
        fill: #231f20;
      }
    </style>
  </defs>
  <g id="Layer_1" data-name="Layer 1">
    <g>
      <path class="cls-1" d="m174.42,89.39c4.03-2.29,6.05-5.61,6.05-9.96,0-3.99-1.51-7.14-4.54-9.46-3.03-2.32-7.51-3.48-13.43-3.48h-29v46.34h32.34c5.03,0,8.92-1.16,11.71-3.49,2.78-2.33,4.18-5.44,4.18-9.32,0-2.49-.62-4.57-1.85-6.24-1.23-1.67-3.05-3.13-5.44-4.39Zm-20.4-13.57h1.24c3.61,0,5.41,1.5,5.41,4.49,0,1.66-.46,2.83-1.39,3.51-.93.68-2.51,1.02-4.74,1.02h-.51v-9.02Zm5.66,25.73c-1,.72-2.68,1.08-5.03,1.08h-.64v-10.02h1.43c3.83,0,5.74,1.74,5.74,5.22,0,1.76-.5,3-1.5,3.72Zm24.2,11.28h18.77v-46.34h-18.77v46.34Zm46.57-13.82c-.77,1.3-1.91,1.94-3.43,1.94-2.27,0-3.4-1.66-3.4-4.98v-19.71h-17.73v23.93c0,4.09,1.17,7.27,3.51,9.54,2.34,2.27,5.42,3.4,9.24,3.4,2.65,0,4.94-.54,6.86-1.61,1.92-1.07,3.8-2.77,5.65-5.1h.12v6.4h17.98v-36.56h-18.8v22.74Zm78.03-23.05c-2.63,0-5,.5-7.09,1.52-2.1,1.01-4.19,2.61-6.27,4.8-2.55-4.21-6.49-6.31-11.82-6.31-4.47,0-8.23,1.63-11.26,4.89v-4.58h-18.77v36.56h18.77v-24.69c1.17-.83,2.32-1.24,3.43-1.24s1.92.36,2.53,1.09c.61.73.93,1.73.93,3.01v21.83h17.73v-24.75c1.13-.79,2.28-1.18,3.43-1.18,1.03,0,1.87.36,2.51,1.08.64.72.95,1.72.95,3.02v21.83h17.73v-22.95c0-4.41-1.14-7.83-3.43-10.26-2.28-2.43-5.42-3.64-9.38-3.64Zm52.67,11.84c-.85-2.49-2.18-4.68-3.98-6.56-1.8-1.88-3.94-3.31-6.41-4.28-2.47-.97-5.15-1.46-8.05-1.46-5.67,0-10.28,1.73-13.83,5.19-3.55,3.46-5.33,7.94-5.33,13.42,0,5.77,1.94,10.42,5.81,13.95,3.86,3.54,8.98,5.3,15.33,5.3,7.72,0,13.63-2.69,17.73-8.07v-6.41c-2.55,2.65-5.93,3.98-10.14,3.98-2.08,0-3.94-.53-5.56-1.58-1.62-1.05-2.77-2.51-3.46-4.37h19.16c0-3.58-.42-6.62-1.27-9.11Zm-19.01,2.7c0-1.9.42-3.34,1.27-4.33.85-.98,1.85-1.47,3.01-1.47,1.31,0,2.38.51,3.2,1.53.82,1.02,1.27,2.44,1.35,4.27h-8.83Zm62.83-10.97c-2.28-2.38-5.55-3.57-9.82-3.57s-8.17,1.63-11.32,4.89v-4.58h-18.77v36.56h18.77v-24.69c1.13-.79,2.26-1.18,3.37-1.18,2.3,0,3.46,1.52,3.46,4.55v21.32h17.73v-22.71c0-4.68-1.14-8.21-3.41-10.58Z"/>
      <g>
        <path class="cls-3" d="m153.9,163.61h-20.53v-46.34h20.53v16.98h10.45v-16.98h20.53v46.34h-20.53v-17.22h-10.45v17.22Z"/>
        <path class="cls-3" d="m190.05,142.08v-10.99c5.3-2.9,11.32-4.34,18.04-4.34s11.11,1.37,14.15,4.1c3.04,2.73,4.56,6.91,4.56,12.54v20.23h-18.77v-2.74c-2.77,2.02-5.82,3.04-9.13,3.04-2.79,0-5.12-.91-6.99-2.72-1.86-1.81-2.8-4.09-2.8-6.85,0-3.14,1.16-5.69,3.47-7.67,2.3-1.97,5.32-2.96,9.05-2.96,2.19,0,4.32.29,6.41.85,0-1.7-.65-3.02-1.96-3.98-1.31-.95-3.12-1.43-5.45-1.43-3.44,0-6.96.97-10.57,2.92Zm17.98,13.45v-5.1c-1.13-.39-2.15-.58-3.07-.58-1.13,0-2.04.29-2.73.88-.69.59-1.03,1.36-1.03,2.31s.37,1.82,1.11,2.49c.74.67,1.68,1,2.81,1s2.13-.34,2.91-1Z"/>
        <path class="cls-3" d="m273.21,127.05v36.56h-17.98v-6.41h-.12c-1.85,2.33-3.73,4.03-5.65,5.1-1.92,1.07-4.21,1.61-6.86,1.61-3.83,0-6.91-1.13-9.25-3.4-2.34-2.27-3.5-5.45-3.5-9.53v-23.93h17.73v19.71c0,3.32,1.14,4.98,3.4,4.98,1.52,0,2.66-.65,3.43-1.94v-22.75h18.8Z"/>
        <path class="cls-3" d="m274.23,160.06l4.19-10.26c1.29,1.74,2.85,3.1,4.67,4.09,1.82.98,3.61,1.47,5.38,1.47,1.09,0,1.97-.24,2.63-.73.65-.48.98-1.11.98-1.88s-.28-1.4-.83-1.96c-.56-.56-2.03-1.18-4.42-1.87-2.41-.69-4.38-1.44-5.92-2.26-1.53-.82-2.82-2.03-3.84-3.63-1.02-1.6-1.53-3.34-1.53-5.22,0-3.65,1.56-6.47,4.69-8.49,3.12-2.02,7.51-3.02,13.16-3.02,6.36,0,11.79,1.04,16.3,3.13l-4.49,9.32c-2.96-2.65-5.81-3.98-8.56-3.98-.91,0-1.65.2-2.22.61-.56.4-.85.92-.85,1.55,0,.75.29,1.4.87,1.94.57.55,2.1,1.13,4.6,1.76,2.53.63,4.62,1.35,6.27,2.16,1.65.81,2.97,2.03,3.95,3.64.98,1.62,1.47,3.47,1.47,5.56,0,3.77-1.52,6.74-4.57,8.91-3.04,2.18-6.99,3.26-11.83,3.26-6.56,0-13.26-1.37-20.11-4.1Z"/>
      </g>
      <polygon class="cls-3" points="66.97 9.05 128.54 55.66 128.54 55.94 133.83 50.66 131.6 48.98 104.65 28.57 104.65 9.44 91.37 9.44 91.37 18.52 73.2 4.76 66.91 0 60.63 4.76 2.22 48.98 0 50.66 5.39 56.05 5.39 55.66 66.97 9.05"/>
      <polygon class="cls-1" points="122.21 58.81 66.97 17 11.74 58.81 11.74 170.88 122.21 170.88 122.21 58.81"/>
      <path class="cls-2" d="m115.26,159.23c0-2.1,9.62-11.13,2.41-22.56,1.8,13.24-2.11,10.53-5.72,24.97-3.88-8.48.67-22.15,5.5-30.65-6.48,3.98-10.78,16.83-12.26,24.84,1.74-15.16-.93-31.79-8.87-47.98,2.68-3.32,4.1-7.71,3.63-12.36-.02-.16-.05-.32-.08-.47.16,0,.32,0,.48-.02,9.19-.94,15.89-8.96,14.97-17.9-.92-8.93-9.11-15.41-18.3-14.47-.16.02-.3.05-.46.07,0-.16,0-.31-.02-.47-.95-9.19-8.96-15.89-17.89-14.97-8.94.92-15.42,9.11-14.47,18.3.02.16.05.31.07.46-.16.01-.31.01-.47.03-9.18.94-15.88,8.95-14.96,17.89.92,8.94,9.12,15.42,18.3,14.47.13-.01.26-.04.39-.06-8.25,8-19.14,20.86-22.74,42.11,0,0-.01-.02-.01-.02,0,0-4.17,18.83-4.54,15.82-.4-3.3-.42-6.66.78-14.18-3.91,5.42-2.1,18.35-5.12,19.55,2.1-7.22,4.51-23.46-2.41-42.11,3.31,9.03,1.42,36.34,1.42,36.34-3.76-3.76-4.54-15.78-3.53-24.01-5,8.37,3.61,31.58-3.31,30.37,3.31-6.01,0-22.26-5.72-46.32,3.46,19.89,5.49,33.54,2.71,43.31-6.88-11.19-11.69-34.95-7.82-48.12-6.9,14.58-3.51,29.68,1.81,46.33,2.26,7.08-1.57,8.78-7.28,8.13v6.22h110.47v-29.42c-3.36,7.1-2.31,16.31-6.94,16.86Zm-41.74-80.97c.92-3.44,3.87-6.12,7.62-6.5,1.1-.11,2.17-.02,3.16.25,3.44.91,6.13,3.86,6.51,7.62.11,1.1.01,2.16-.25,3.16-.91,3.43-3.87,6.12-7.62,6.51-1.1.11-2.16.02-3.16-.25-3.44-.91-6.14-3.87-6.5-7.62-.12-1.11-.03-2.16.23-3.17Zm22.48,83.07c-3.3-9.33-3.83-30.38-.3-43.31-7.52,15.03-3.83,21.04-6.54,36.99-4.51-4.22-4.26-14.78-2.7-22.74-7.39,16.35,2.33,29.97-1.59,25.46-3.91-4.51-3.61-13.24-4.51-19.25-1.5,10.22,1.8,19.85-2.1,20.15.9-3.91,1.5-14.14-2.41-23.46,1.5,4.81,1.2,7.83-1.51,22.26-2.4-5.11-1.81-15.94.6-27.97-3.31,5.72-4.81,13.23-3.91,29.78-2.41-2.41-1.51-9.32-3.91-19.25-.59,8.12,2.41,21.96.3,18.96-.3-4.82-2.41-23.16-11.73-32.19,8.43,9.92,5.34,17.17,8.38,29.37.56,2.25-2.09,3.59-3.43,1.32-1.33-2.27-2.05-4.55-1.48-11.8-3.84,7.53-.99,13.22-3.69,11.94-2.7-1.28-1.99-14.64,0-22.46-4.27,2.13-7.53,31.27-7.9,19.18.51-11.54,3.8-34.45,20.61-52.41,2.2,7.56,9.38,12.72,17.28,11.9,4.42-.45,8.23-2.69,10.84-5.93,8.62,18.1,5.05,47.24-.31,53.48Z"/>
    </g>
  </g>
</svg>