<?xml version="1.0" encoding="UTF-8"?>
<svg id="_Слой_2" data-name="Слой 2" xmlns="http://www.w3.org/2000/svg" viewBox="0 0 482.63 99.54">
  <defs>
    <style>
      .cls-1 {
        fill: #3e543c;
        stroke-width: 0px;
      }
    </style>
  </defs>
  <g id="Layer_1" data-name="Layer 1">
    <g>
      <path class="cls-1" d="m98.83,8.7h-32.1v82.03h18.89v-.02h13.21c8.81,0,15.95-7.14,15.95-15.95v-12.86c0-6.72-4.16-12.45-10.03-14.8,5.88-2.35,10.03-8.08,10.03-14.8v-7.65c0-8.81-7.14-15.95-15.95-15.95Zm-3.2,62.2c0,3.4-2.76,6.16-6.16,6.16h-3.85v-22.01h3.85c3.4,0,6.16,2.76,6.16,6.16v9.68Zm0-36.97c0,3.4-2.76,6.16-6.16,6.16h-3.85v-16.32h3.85c3.4,0,6.16,2.76,6.16,6.16v3.99Z"/>
      <path class="cls-1" d="m149.02,18.65h-7.74c-10.69,0-19.35,8.66-19.35,19.35v33.38c0,10.69,8.66,19.35,19.35,19.35h7.74c10.69,0,19.35-8.66,19.35-19.35v-33.38c0-10.69-8.66-19.35-19.35-19.35Zm2.07,51.98c0,3.28-2.66,5.94-5.94,5.94s-5.94-2.66-5.94-5.94v-31.88c0-3.28,2.66-5.94,5.94-5.94s5.94,2.66,5.94,5.94v31.88Z"/>
      <path class="cls-1" d="m364.49,18.65h-7.74c-10.69,0-19.35,8.66-19.35,19.35v33.38c0,10.69,8.66,19.35,19.35,19.35h7.74c10.69,0,19.35-8.66,19.35-19.35v-33.38c0-10.69-8.66-19.35-19.35-19.35Zm2.07,51.98c0,3.28-2.66,5.94-5.94,5.94s-5.94-2.66-5.94-5.94v-31.88c0-3.28,2.66-5.94,5.94-5.94s5.94,2.66,5.94,5.94v31.88Z"/>
      <polygon class="cls-1" points="198.39 48.75 190.17 18.65 170.81 18.65 189.01 67.21 189.01 90.63 207.76 90.63 207.76 67.21 225.96 18.65 206.6 18.65 198.39 48.75"/>
      <path class="cls-1" d="m288.23,37.21v34.85c0,10.25,8.31,18.56,18.56,18.56h24.01v-13.91h-18.71c-2.96,0-5.35-2.4-5.35-5.35v-33.45c0-2.96,2.4-5.35,5.35-5.35h18.71v-13.91h-24.01c-10.25,0-18.56,8.31-18.56,18.56Z"/>
      <polygon class="cls-1" points="443.91 18.65 443.91 35.72 454.74 35.72 454.74 90.63 471.81 90.63 471.81 35.72 482.63 35.72 482.63 18.65 443.91 18.65"/>
      <path class="cls-1" d="m420.37,18.75v51.25c0,3.3-2.68,5.98-5.98,5.98s-5.98-2.68-5.98-5.98V18.65h-17.35v19.04c0,.07-.01.13-.01.2v33.5c0,.07,0,.13.01.2.04,4.02,1.31,7.73,3.46,10.8,3.48,4.98,9.24,8.24,15.77,8.24h8.18c6.53,0,12.29-3.26,15.77-8.24,2.18-3.12,3.47-6.91,3.47-11V18.65h-17.35v.1Z"/>
      <path class="cls-1" d="m252.31,35.15c-1.25-.93-2.07-1.75-2.58-2.57-.56-.88-.77-1.76-.77-2.73,0-3.26,2.64-5.9,5.9-5.9s5.9,2.64,5.9,5.9v3.29h18.24c0-.12,0-.24,0-.35,0-14.16-9.99-24.09-24.15-24.09s-27.31,11.58-25.63,25.63c.44,3.7,1.4,6.09,3.17,8.41.54.71,1.16,1.41,1.87,2.14,6.88,7.1,18.97,12.37,24.45,17.58,1.96,1.95,2.57,3.91,2.57,5.11,0,3.55-2.88,6.43-6.43,6.43s-6.43-2.88-6.43-6.43v-5.49h-19.07c-.09,1-.14,1.98-.14,2.91h0s0,0,0,0v4.28c0,11.79,9.56,21.35,21.35,21.35h8.55c11.79,0,21.35-9.56,21.35-21.35v-4.28c0-5.1-2.02-9.27-5.21-12.95-5.53-6.39-14.6-11.3-22.97-16.89Z"/>
      <path class="cls-1" d="m40.96,32.22l-.49-3.64c.05-.23.07-.46.09-.69,0-.62-.08-.89-.32-1.04-.18-1.23-.58-3.76-.9-4.19-.42-.57-6.31-6.84-6.31-6.84l-.59-.09c-.32-.13-.64-.24-.96-.33-.4-2.07-1.51-4.35-3.75-3.53-1.1.5-2.21.82-3.32,1-.5-.04-1.02,0-1.29-.02-.06-.16.05-1.01.1-1.15.16-.46.54-.12.82-.39.32-.29.12-.68.18-1.09.07-.44-.06-.53.19-.84.15-.73.01-1.17.05-1.89.02-.28.1-.56.05-.84-.03-.15-.13-.25-.15-.37-.19-1.21.27-2.18-.68-3.16-.25-.25-.38-.42-.52-.72-.13-.26-.18-.59-.43-.77-.31-.21-.85-.26-1.21-.43-.54-.26-.73-.45-1.22-.13-.3.18-.18.44-.67.29-.34-.11-.62-.48-.57-.83l-.88-.54c-.45.33-.86,1.03-1.36,1.26-.33.15-.65.01-.92.35-.21.27-.13.71-.35.96-.17.21-.54.29-.73.51-.25.29-.21.52-.24.87-.04.44-.32.76-.39,1.24-.07.37-.3.87-.21,1.24.07.32.45.62.56.91.09.25-.21.65.11.78.02.35,0,.64.19.96-.16.1-.37.31-.35.5.02.15.3.35.39.47.17.24.3.51.38.79-.27.2-.02.48.18.61.28.19.38.24.59.48.25.27.77.42.89.71,0,0,.01.05.02.08-2.39-.26-4.85-.55-7.36-.34-.98.54-.98,2.14-1.18,3.39.02.61.07,1.29.18,1.98.08.51.2,1,.34,1.48-.39.44-.86,1.02-.99,1.27-.51.98-1.2,1.94-1.26,3.07-.03.61-.07,1.34-.29,1.93-.19.5-.37,1.59-.63,2.06-.58,1.07-.38,1.72-.81,2.85-.46,1.19-.72,2.51-1,3.45-.38,1.21-.55,2.44-.6,3.73-.08,2.11-.3,4.97-.46,7.05-.06.74.41,1.19.5,1.86.04.34.35.02.47.35.16.45.22,1.34.43,1.69.05-.07.06-.15.05-.23l.04.09c.33.79-.38,2.07-.38,2.93s.35,1.97.79,2.83c.27.54,1.09.63,1.6.95.11.08.37.2.66.28.1.04.2.06.29.08.73.36.73-.21.72-.73-.05-.04-.13-.08-.23-.1-.1-.04-.23-.06-.38-.08-.09-.05-.17-.09-.22-.12-.16-.09.21-.35.08-.48-.29-.28-1.16-.67-1.16-1.02,0-.34.05-2.68.68-2.42.25.11.46,1.09.52,1.33.19.66-.11,1.12.48,1.63.25-.69.35-.66.35-1.45,0-.48.1-1.22.1-1.71,0-.83-.5-1.66-.41-2.5.12-1.2.84-1.7,1.46-2.62.68.23.36,2.26.44,2.77.09.54.16.9.06,1.44-.03.2-.17.42-.06.59.2.3.48.23.67.41.07.05.12.14.16.28,0,.14,0,.28,0,.42-.08.38-.2.75-.35,1.12-.04.12-.09.25-.14.37-.15.65-.34,1.29-.52,1.93-.03.13-.07.25-.09.38-.58,1.2-.3,2.64-.32,3.78,0,.14,0,.28-.01.42,0,.42-.03.84-.06,1.27,0,.19,0,.34-.01.47-.05.68-.3.83-.27,1.76.03,1.34.04,2.66.04,4,0,.63-.52.94-.38,1.56.08.38.22.77.11,1.16-.12.38.05,1.1-.21,1.4-.26.3-.73.36-.95.66-.42.55.32,1.08.46,1.64.16.67-.1,1.09-.34,1.67-.09.2-.09.31-.16.53-.14.42-.31.76-.56,1.14-.27.41-.73.69-.99,1.03-.39.54-.07,1.09.04,1.71.12.72.21,1.38.36,2.1.09.4.27,1.4-.42,1.29-.09.56.18,1.2-.22,1.62-.31.35.06.47-.35.51-.02,1.1.51,2.2.65,3.3t0,0c.04.32.05.68-.04.99-.11.39-.27.71-.43,1.08-.09,0-.2,0-.31,0-.19.01-.2.59-.33.57-.04,0-.3.13-.49.2.16.09.29.18.4.2.01,0,.03,0,.05,0-.28.35-.49.7-.95.7h-.05s0-.03,0-.04c-.04-.49.14-.35.38-.41.05,0,.02-.27.04-.41-.01,0-.03.01-.03.01h-.08c-.62.16-.75.34-.71.84,0,.08.02.15.02.21v.19s.19,0,.19,0c.09,0,.17,0,.25,0,.71,0,.89-.87,1.38-1.11v.02c-.19.55-.69,1.09-1.01,1.58-.54.85-1.28,2.29-2.19,2.48-.55.1-1.24.4-1.42,1.01-.18.6-.35-.34-.39.33-.06.95-.44,1.66.34,1.78,1.3.2,1.72.2,2.76.25.84.04,2.76.11,3.37-.31.36-.25-.2-.62.29-.77.59-.19,1.44.22,2.02.32.86.16,1.26-.06,1.71-.66.5-.66-.15-5.66-.11-6.61.04-.92.43-2.27.61-2.85.25-.77-.63-1.05.28-1.42.91-.38,2.04.45,2.78-.5.94-1.22,1.37-2.54,1.62-4.03.28-1.61-.13-3.34.43-4.89.27-.77.77-1.55.92-2.35.14-.69.2-1.49.23-2.2.07-1.52-.18-3.05-.05-4.57.1-1.29.77-2.68,1.21-3.92.5-1.39,1.1-2.77,1.61-4.15.28-.78.28-1.57.22-2.38-.02-.3-.01-.86.24-1.08.16-.13.44,0,.58.16.37.42.53,1.68.73,2.25.27.76.16,1.72.52,2.45.63,1.3,1.06,2.7,1.78,3.95.32.54.69,1.07.99,1.62.29.56.13,1.06-.03,1.68-.22.83.19,2.3.52,3.1.33.81.35.75.85,1.47.29.41.71.71.93,1.11.49.89-.15,1.98.05,2.91.11.56.41.82.84,1.16.28.24.65.37.92.63.06.05.65.73.64.75-.24.54-.9,1.35-.72,1.96.19.6.72,1.24,1.07,1.77.42.62.6,1.51.9,2.21.27.62,1.05.57,1.09,1.25.11,1.68.57,2.92.82,4.94.2,1.7.11,3.91.38,5.69.15,1.01-.43.78.13,1.7.35.59,1.12.3,1.79.5.72.21,1.35.22,1.9.1.46-.1.75-.04,1.21,0,.76.07,1.27.38,1.35-.48.08-1-.09-1.82-.74-2.59-.52-.63-1.26-1.45-1.53-2.24-.35-1.06-.08-2.53-.08-3.63,0-.75-.15-1.5-.01-2.24.08-.47.35-.95.35-1.42,0-.59-.46-.76-.64-1.24-.23-.62.4-1.19.49-1.77.08-.56-.25-.85-.55-1.28-.39-.57-.34-.94.03-1.51.2-.31.3-.55.36-.8.05-.25.06-.53.05-.93.29-4.19.29-8.21-2.82-11.46-.17-.37-.32-.75-.43-1.15-.74-2.33-.69-4.92-.58-7.25-.07-.44-.14-.87-.24-1.29-.11-.44-.23-.85-.39-1.27-.06-.39-.12-.78-.17-1.16-.21-1.54-.35-3.08-.42-4.64-.09-.29-.19-.59-.3-.89l.32.7s.97.21,1.28.21,1.34-1.88,1.57-2.34c.24-.46.31-2.67.31-3.15s-.7-4.17-.8-4.73c-.1-.55-.45-3.18-.45-3.18h.45l-.02-2.47c2.56.81,5.39.96,6.02-1.47.11-.46.07-.88-.03-1.28.03-.15.05-.25.05-.25ZM4.82,90.88c.08-.16.15-.43.31-.44.04,0,.09,0,.14-.01v.05c-.18.1-.32.25-.45.4Zm30.13-47.43v4.58s-.69,1.6-.69,1.81-.86,0-1.39-.27c-.18-.1-.53-.53-.9-1.07v-.39s.04-.22.11-.49l.59-2.24c.21-.76.41-1.52.55-2,0,0,0,0-.01-.02l.42-1.59-.71-3.39s.06-.02.1-.04c.49-.2.7-.32.8-.52.29,1.1.58,2.3.54,2.44-.08.28.61,3.2.61,3.2Z"/>
    </g>
  </g>
</svg>