<svg width="204" height="46" viewBox="0 0 204 46" fill="none" xmlns="http://www.w3.org/2000/svg">
<path d="M30.2536 40.616C29.5035 40.616 28.8839 40.019 28.8839 39.2962V6.86668C28.8839 6.14393 29.5035 5.54688 30.2536 5.54688H43.3965C47.7666 5.54688 51.3213 8.97209 51.3213 13.1829V16.1996C51.3213 18.4936 50.2777 20.6304 48.484 22.0445C50.2451 23.4585 51.3213 25.564 51.3213 27.8893V32.98C51.3213 37.1908 47.7666 40.616 43.3965 40.616C43.3965 40.616 38.048 40.616 37.9828 40.616H30.2536ZM39.5808 32.5401C40.2005 32.5401 40.7222 32.0373 40.7222 31.4402V27.6065C40.7222 27.0095 40.2005 26.5067 39.5808 26.5067H39.3851V32.5401H39.5808ZM39.5808 17.9279C40.2005 17.9279 40.7222 17.4251 40.7222 16.8281V15.2569C40.7222 14.6598 40.2005 14.157 39.5808 14.157H39.3851V17.9279H39.5808Z" fill="#132F1D"/>
<path d="M43.4296 6.86583C47.0496 6.86583 49.9521 9.69399 49.9521 13.1506V16.1673C49.9521 18.8069 48.2563 21.0695 45.8429 22.0122C48.2563 22.9549 49.9521 25.2174 49.9521 27.8571V32.9477C49.9521 36.4358 47.017 39.2325 43.4296 39.2325H38.0159H30.2867V6.86583H43.4296ZM38.0159 19.2783H39.5813C40.9836 19.2783 42.0925 18.1785 42.0925 16.8587V15.2875C42.0925 13.9362 40.951 12.8678 39.5813 12.8678H38.0159V19.3097M38.0159 33.9219H39.5813C40.9836 33.9219 42.0925 32.822 42.0925 31.5022V27.6685C42.0925 26.3173 40.951 25.2489 39.5813 25.2489H38.0159V33.9533M43.4296 4.28906H30.2867C28.7539 4.28906 27.5146 5.48317 27.5146 6.9601V39.3582C27.5146 40.8352 28.7539 42.0293 30.2867 42.0293H38.0159C38.0159 42.0293 38.1464 42.0293 38.2116 42.0293H43.4296C48.5498 42.0293 52.7242 38.007 52.7242 33.0734V27.9827C52.7242 25.7831 51.9089 23.7405 50.4739 22.1379C51.9089 20.5353 52.7242 18.4927 52.7242 16.293V13.2763C52.7242 8.34276 48.5498 4.32049 43.4296 4.32049V4.28906Z" fill="#DCD48B"/>
<path d="M60.8125 40.6177C55.6597 40.6177 51.4853 36.5955 51.4853 31.6305V18.4638C51.4853 13.4988 55.6597 9.47656 60.8125 9.47656H63.9759C69.1287 9.47656 73.3031 13.4988 73.3031 18.4638V31.6305C73.3031 36.5955 69.1287 40.6177 63.9759 40.6177H60.8125ZM62.4105 17.7411C61.8235 17.7411 61.3669 18.181 61.3669 18.7466V31.3477C61.3669 31.9133 61.8235 32.3532 62.4105 32.3532C62.9976 32.3532 63.4541 31.9133 63.4541 31.3477V18.7466C63.4541 18.181 62.9976 17.7411 62.4105 17.7411Z" fill="#132F1D"/>
<path d="M63.9766 10.796C68.3467 10.796 71.9014 14.2213 71.9014 18.4321V31.5987C71.9014 35.8095 68.3467 39.2347 63.9766 39.2347H60.8131C56.4431 39.2347 52.8883 35.8095 52.8883 31.5987V18.4321C52.8883 14.2213 56.4431 10.796 60.8131 10.796H63.9766ZM62.3786 33.6727C63.7157 33.6727 64.8245 32.6357 64.8245 31.3159V18.7149C64.8245 17.4265 63.7483 16.3581 62.3786 16.3581C61.0088 16.3581 59.9326 17.3951 59.9326 18.7149V31.3159C59.9326 32.6043 61.0088 33.6727 62.3786 33.6727ZM63.9766 8.125H60.8131C54.9103 8.125 50.1162 12.7443 50.1162 18.4321V31.5987C50.1162 37.2865 54.9103 41.9058 60.8131 41.9058H63.9766C69.8795 41.9058 74.6735 37.2865 74.6735 31.5987V18.4321C74.6735 12.7443 69.8795 8.125 63.9766 8.125Z" fill="#DCD48B"/>
<path d="M149.128 40.6177C143.975 40.6177 139.801 36.5955 139.801 31.6305V18.4638C139.801 13.4988 143.975 9.47656 149.128 9.47656H152.292C157.444 9.47656 161.619 13.4988 161.619 18.4638V31.6305C161.619 36.5955 157.444 40.6177 152.292 40.6177H149.128ZM150.726 17.7411C150.139 17.7411 149.683 18.181 149.683 18.7466V31.3477C149.683 31.9133 150.139 32.3532 150.726 32.3532C151.313 32.3532 151.77 31.9133 151.77 31.3477V18.7466C151.77 18.181 151.313 17.7411 150.726 17.7411Z" fill="#132F1D"/>
<path d="M152.292 10.796C156.662 10.796 160.217 14.2213 160.217 18.4321V31.5987C160.217 35.8095 156.662 39.2347 152.292 39.2347H149.129C144.758 39.2347 141.204 35.8095 141.204 31.5987V18.4321C141.204 14.2213 144.758 10.796 149.129 10.796H152.292ZM150.694 33.6727C152.031 33.6727 153.14 32.6357 153.14 31.3159V18.7149C153.14 17.4265 152.064 16.3581 150.694 16.3581C149.324 16.3581 148.248 17.3951 148.248 18.7149V31.3159C148.248 32.6043 149.324 33.6727 150.694 33.6727ZM152.292 8.125H149.129C143.226 8.125 138.432 12.7443 138.432 18.4321V31.5987C138.432 37.2865 143.226 41.9058 149.129 41.9058H152.292C158.195 41.9058 162.989 37.2865 162.989 31.5987V18.4321C162.989 12.7443 158.195 8.125 152.292 8.125Z" fill="#DCD48B"/>
<path d="M80.3808 40.5549C79.6307 40.5549 79.0111 39.9578 79.0111 39.2351V30.2164L71.6407 11.2677C71.4776 10.8592 71.5428 10.3879 71.8037 10.0422C72.0646 9.69653 72.4886 9.47656 72.9451 9.47656H80.87C81.4897 9.47656 82.0441 9.88507 82.2071 10.4507L84.2291 17.6154L86.2511 10.4507C86.4142 9.85365 86.9686 9.47656 87.5882 9.47656H95.5131C95.9697 9.47656 96.3936 9.69653 96.6545 10.0422C96.9154 10.3879 96.9806 10.8592 96.8176 11.2677L89.4471 30.2164V39.2351C89.4471 39.9578 88.8275 40.5549 88.0774 40.5549H80.3808Z" fill="#132F1D"/>
<path d="M95.5131 10.796L88.0448 29.9647V39.2033H80.3483V29.9647L72.88 10.796H80.8048L84.1639 22.6743L87.523 10.796H95.4479M95.4479 8.125H87.4904C86.2511 8.125 85.1423 8.94202 84.8162 10.1047L84.1313 12.5558L83.4464 10.1047C83.1203 8.94202 82.0115 8.125 80.7722 8.125H72.8473C71.9342 8.125 71.0863 8.56494 70.5645 9.28769C70.0427 10.0104 69.9122 10.9217 70.2383 11.7388L77.5109 30.4675V39.2347C77.5109 40.7117 78.7502 41.9058 80.283 41.9058H87.9796C89.5124 41.9058 90.7517 40.7117 90.7517 39.2347V30.4675L97.9591 11.9273C98.1221 11.5816 98.2199 11.2046 98.2199 10.8275C98.2199 9.35054 96.9807 8.15642 95.4479 8.15642V8.125Z" fill="#DCD48B"/>
<path d="M128.647 40.5551C123.69 40.5551 119.646 36.6585 119.646 31.882V18.1183C119.646 13.3419 123.69 9.44531 128.647 9.44531H138.496C139.246 9.44531 139.865 10.0424 139.865 10.7651V16.2643C139.865 16.9871 139.246 17.5841 138.496 17.5841H130.832C130.375 17.5841 130.016 17.9298 130.016 18.3697V31.5678C130.016 32.0077 130.375 32.3534 130.832 32.3534H138.496C139.246 32.3534 139.865 32.9505 139.865 33.6732V39.1724C139.865 39.8952 139.246 40.4922 138.496 40.4922H128.647V40.5551Z" fill="#132F1D"/>
<path d="M138.496 10.7962V16.2954H130.832C129.626 16.2954 128.647 17.2381 128.647 18.4008V31.5989C128.647 32.7616 129.626 33.7043 130.832 33.7043H138.496V39.2035H128.647C124.44 39.2035 121.048 35.9354 121.048 31.8817V18.118C121.048 14.0643 124.44 10.7962 128.647 10.7962H138.496ZM138.496 8.12517H128.647C122.94 8.12517 118.276 12.6188 118.276 18.118V31.8817C118.276 37.4123 122.94 41.8745 128.647 41.8745H138.496C140.029 41.8745 141.268 40.6804 141.268 39.2035V33.7043C141.268 32.2274 140.029 31.0333 138.496 31.0333H131.419V18.935H138.496C140.029 18.935 141.268 17.7409 141.268 16.264V10.7648C141.268 9.28786 140.029 8.09375 138.496 8.09375V8.12517Z" fill="#DCD48B"/>
<path d="M189.274 40.5549C188.524 40.5549 187.904 39.9578 187.904 39.2351V18.8723H184.838C184.088 18.8723 183.469 18.2753 183.469 17.5525V10.7964C183.469 10.0736 184.088 9.47656 184.838 9.47656H200.721C201.471 9.47656 202.091 10.0736 202.091 10.7964V17.5525C202.091 18.2753 201.471 18.8723 200.721 18.8723H197.655V39.2351C197.655 39.9578 197.036 40.5549 196.286 40.5549H189.274Z" fill="#132F1D"/>
<path d="M200.721 10.796V17.5522H196.286V39.2347H189.274V17.5522H184.838V10.796H200.721ZM200.721 8.125H184.838C183.306 8.125 182.066 9.31911 182.066 10.796V17.5522C182.066 19.0291 183.306 20.2232 184.838 20.2232H186.502V39.2347C186.502 40.7117 187.741 41.9058 189.274 41.9058H196.286C197.818 41.9058 199.058 40.7117 199.058 39.2347V20.2232H200.721C202.254 20.2232 203.493 19.0291 203.493 17.5522V10.796C203.493 9.31911 202.254 8.125 200.721 8.125Z" fill="#DCD48B"/>
<path d="M171.077 40.5549C168.044 40.5549 165.206 39.1408 163.478 36.7212C162.402 35.2442 161.847 33.5159 161.815 31.6933V10.7964C161.815 10.0736 162.434 9.47656 163.184 9.47656H170.294C171.044 9.47656 171.664 10.0736 171.664 10.7964V31.0648C171.664 31.6305 172.153 32.1018 172.74 32.1018C173.327 32.1018 173.816 31.6305 173.816 31.0648V10.8592C173.816 10.1365 174.436 9.47656 175.186 9.47656H182.295C183.045 9.47656 183.665 10.0736 183.665 10.7964V31.6305C183.665 33.4531 183.078 35.2442 182.002 36.7526C180.273 39.1408 177.403 40.5863 174.403 40.5863H171.044L171.077 40.5549Z" fill="#132F1D"/>
<path d="M182.295 10.796V31.6301C182.295 33.2328 181.773 34.7411 180.86 35.9667C179.425 37.9464 177.077 39.2347 174.403 39.2347H171.044C168.37 39.2347 166.021 37.9464 164.587 35.9667C163.706 34.7411 163.184 33.2956 163.184 31.693C163.184 31.693 163.184 31.6301 163.184 31.5987V18.3692C163.184 18.3692 163.184 18.3064 163.184 18.275V10.7646H170.294V31.0331C170.294 32.3215 171.403 33.3899 172.74 33.3899C174.077 33.3899 175.186 32.3215 175.186 31.0331V10.8589L182.295 10.8275M182.295 8.15642H175.186C174.109 8.15642 173.196 8.75348 172.74 9.60193C172.283 8.75348 171.37 8.15642 170.294 8.15642H163.184C161.651 8.15642 160.412 9.35054 160.412 10.8275V31.6616C160.412 31.6616 160.412 31.8187 160.412 31.8815C160.412 33.8298 161.097 35.8095 162.336 37.5379C164.326 40.3032 167.587 41.9372 171.076 41.9372H174.435C177.925 41.9372 181.186 40.3032 183.176 37.5379C184.448 35.8095 185.1 33.767 185.1 31.6616V10.796C185.1 9.31911 183.861 8.125 182.328 8.125L182.295 8.15642Z" fill="#DCD48B"/>
<path d="M105.623 40.5534C100.046 40.5534 95.4804 36.1854 95.4804 30.7805V29.0836C95.4804 28.6751 95.4804 28.2666 95.5456 27.8267C95.6108 27.1353 96.1979 26.6011 96.9153 26.6011H104.384C104.384 26.6011 104.155 26.4754 104.057 26.4126C101.97 25.1556 99.6222 23.773 97.9589 22.0761C97.6328 21.7618 97.3393 21.4162 97.0784 21.1019C96.1652 19.9707 95.7087 18.7765 95.513 17.1111C95.1869 14.3772 96.1 11.6747 98.0894 9.50647C100.405 6.99255 103.862 5.51562 107.384 5.51562C113.906 5.51562 118.668 10.0721 118.668 16.3569C118.668 17.0797 118.048 17.8338 117.266 17.8338H109.765C112.472 19.4993 114.983 21.0705 116.809 23.0816C118.472 24.9356 119.288 26.8839 119.288 29.0836V30.7805C119.288 36.154 114.754 40.5534 109.145 40.5534H105.623ZM106.145 27.9524V30.1206C106.145 30.7805 106.699 31.3147 107.384 31.3147C108.069 31.3147 108.623 30.7805 108.623 30.1206C108.623 29.9949 108.493 29.555 107.971 29.0522C107.482 28.6123 106.83 28.1409 106.079 27.6695C106.079 27.7638 106.079 27.8581 106.079 27.9524H106.145ZM107.384 14.2201C106.83 14.2201 106.34 14.66 106.34 15.2256C106.34 15.4142 106.373 15.5085 106.438 15.6027C106.569 15.7913 106.797 16.0112 107.156 16.2626C107.612 16.5454 108.069 16.8283 108.558 17.1425C108.46 16.954 108.428 16.7654 108.428 16.5454V15.2571C108.428 14.7229 107.971 14.2515 107.384 14.2515V14.2201Z" fill="#132F1D"/>
<path d="M107.351 6.8667C113.156 6.8667 117.232 10.7947 117.232 16.3882C117.232 16.4196 117.232 16.4824 117.232 16.5139H109.764V15.2255C109.764 13.9371 108.688 12.9001 107.351 12.9001C106.014 12.9001 104.937 13.9371 104.937 15.2255C104.937 15.6026 105.035 15.9482 105.263 16.2939C105.459 16.6081 105.818 16.9538 106.307 17.2995C109.731 19.4991 113.449 21.4474 115.732 23.9613C117.037 25.4069 117.852 27.0723 117.852 29.0835V30.7804C117.852 35.4311 113.938 39.202 109.112 39.202H105.622C100.796 39.202 96.882 35.4311 96.882 30.7804V29.0835C96.882 28.7064 96.882 28.3293 96.9472 27.9208H104.774V30.089C104.774 31.5031 105.948 32.6344 107.416 32.6344C108.883 32.6344 110.058 31.5031 110.058 30.089C110.058 29.6177 109.797 28.8321 109.014 28.0779C106.764 26.0353 101.807 23.9299 99.0019 21.1332C98.7083 20.8504 98.4474 20.5676 98.2518 20.2847C97.5343 19.3734 97.1429 18.4307 96.9472 16.9538C96.2624 11.3918 101.643 6.83528 107.449 6.83528M107.449 4.16424C103.535 4.16424 99.6867 5.82971 97.1103 8.62644C94.8274 11.0775 93.8164 14.1571 94.1752 17.2995C94.4035 19.2163 94.9579 20.599 96.0341 21.9188C96.3276 22.2645 96.6537 22.6415 97.0125 22.9872C97.8278 23.8042 98.7736 24.5584 99.7846 25.2497H96.9799C95.5449 25.2497 94.3382 26.3181 94.2078 27.6694C94.1752 28.1407 94.1426 28.6121 94.1426 29.052V30.7489C94.1426 36.8766 99.328 41.8416 105.655 41.8416H109.144C115.504 41.8416 120.657 36.8452 120.657 30.7489V29.052C120.657 26.5695 119.711 24.2756 117.852 22.2016C116.841 21.0703 115.634 20.0962 114.33 19.1535H117.298C118.798 19.1535 120.037 17.9908 120.07 16.5139C120.07 16.5139 120.07 16.3567 120.07 16.3253C120.07 9.25492 114.754 4.13281 107.416 4.13281L107.449 4.16424Z" fill="#DCD48B"/>
<path d="M18.6445 44.041C18.6445 44.041 17.9923 44.041 17.8944 44.041C17.6009 44.041 17.3074 44.0096 17.0139 43.9153C17.0139 43.9153 16.9813 43.9153 16.9487 43.9153C16.6552 43.9153 15.9377 43.8211 15.4811 43.1297C15.2202 42.6898 15.1224 42.2813 15.2202 41.8414C15.155 41.4328 15.155 40.9929 15.1224 40.553C15.1224 40.2387 15.1224 39.9559 15.0571 39.6731C15.0245 39.3589 14.9593 39.1075 14.8941 38.8561C14.8289 38.6361 14.7962 38.3847 14.7636 38.1647C14.6332 38.0391 14.4701 37.8505 14.3723 37.5991C14.307 37.4734 14.2744 37.3477 14.2092 37.1906L15.2854 36.2165L14.0461 36.8449C13.8831 36.625 13.6222 36.3107 13.4917 35.9022C13.3939 35.6194 13.3939 35.3366 13.4591 35.1166C13.2308 34.9281 12.9047 34.5824 12.7743 33.9854C12.709 33.6397 12.7416 33.3255 12.7743 33.1055C12.709 33.0426 12.6438 32.9798 12.6112 32.8855C12.3503 32.5399 12.2525 32.4142 12.122 32.0371C12.0242 31.7857 11.6654 30.843 11.8285 30.0574C11.8285 30.0574 11.5676 29.6174 11.535 29.586C11.4372 29.806 11.3719 30.0574 11.3393 30.1831C11.3393 30.4659 11.3393 30.7173 11.3393 31.0001C11.3393 31.3143 11.3393 31.6286 11.3393 31.9428C11.3393 32.2885 11.2741 32.6656 11.2088 33.0112C11.1436 33.3569 11.0132 33.6711 10.8827 33.8911C10.7197 34.2996 10.7197 34.551 10.7197 34.8024C10.7197 35.148 10.7197 35.4937 10.6544 35.8394C10.5566 36.4364 10.3283 37.2535 9.70866 38.0076C9.5456 38.2276 9.18687 38.5733 8.56723 38.6675C8.46939 38.9818 8.46939 39.1075 8.46939 39.1075C8.46939 39.2017 8.4694 39.4217 8.50201 39.6731C8.63246 41.2757 8.63245 41.9356 8.20849 42.5013C7.78452 43.0355 7.26273 43.3183 6.61048 43.3183C6.54525 43.3183 6.28433 43.3183 6.1865 43.2869C5.79515 43.5068 5.30596 43.6011 4.55587 43.6011H4.00146C3.47966 43.5697 3.25137 43.5697 2.72957 43.4754C2.37083 43.4126 1.88163 43.1612 1.65335 42.8783C1.26199 42.3441 1.35985 41.7785 1.39246 41.5271C1.45769 40.9301 1.68596 40.5215 2.01209 40.3016C2.20776 40.0816 2.43605 39.9245 2.72957 39.7988C2.66434 38.9504 3.02309 38.3847 3.70796 38.1019C3.70796 38.0391 3.70795 38.0076 3.67534 37.9448C3.5775 37.6305 3.47967 37.2535 3.47967 36.8135C3.47967 36.5621 3.57751 36.3107 3.70796 36.1222C3.70796 36.0279 3.70796 35.9022 3.70796 35.7765C3.70796 35.6508 3.77318 35.5251 3.83841 35.4309C3.83841 35.3366 3.8384 35.2423 3.80579 35.148L4.19715 34.9909C4.19715 34.9909 4.26237 34.9281 4.29498 34.9281C4.49066 34.8024 4.75156 34.7081 4.97985 34.6767L5.1103 34.6138L3.74055 34.8024C3.67533 34.551 3.47967 33.8597 3.96886 33.1998C4.03409 33.1055 4.26236 32.8541 4.3602 32.7912C4.3602 32.7284 4.49066 32.5084 4.52327 32.4142C4.09931 31.7228 4.42544 31.0944 4.65372 30.7801C4.68634 30.7173 4.75155 30.6544 4.84939 30.5916C4.75155 29.9631 4.94724 29.5546 5.01247 29.3975C4.94724 29.1775 4.94723 28.6747 4.94723 28.1405C4.94723 27.732 5.01245 27.4806 5.07768 27.2921C5.07768 27.2921 5.07768 26.6007 5.07768 26.475C4.84939 26.3808 4.65372 26.3179 4.52327 26.2236C4.29498 26.1608 3.74056 25.9722 3.44705 25.3752C3.25137 25.0295 2.95785 24.3696 2.95785 23.6469C2.95785 23.3326 3.02308 23.0812 3.08831 22.8613C3.08831 22.767 3.02309 22.6727 3.02309 22.5785C2.86003 22.3899 2.76218 22.1385 2.72957 21.8871C2.63173 21.7614 2.46867 21.3843 2.5339 20.913C2.59913 20.0645 2.69695 18.9961 2.72957 18.1791C2.72957 17.4878 2.86001 16.8907 3.05569 16.3565L3.15355 16.0108C3.25139 15.6652 3.3492 15.2881 3.51226 14.911C3.6101 14.4082 3.67534 14.0626 3.90362 13.6226C4.00146 13.2455 4.03407 13.0884 4.09929 12.9627C4.09929 12.9313 4.09929 12.7113 4.09929 12.6485C4.1319 11.9571 4.42544 11.4544 4.65372 11.0773C4.75156 10.9202 4.81677 10.7945 4.91461 10.6688C4.91461 10.6688 4.91461 10.6373 4.91461 10.6059C4.84938 10.2603 4.84939 9.94601 4.81677 9.6632C4.81677 9.60035 4.8494 9.25469 4.88201 9.16041C4.94724 8.56336 5.07768 7.58921 6.02345 7.08643C6.18651 6.99216 6.38218 6.92931 6.57786 6.92931C6.83876 6.92931 7.09967 6.92931 7.32796 6.89789C7.32796 6.83504 7.36055 6.70934 7.36055 6.70934C7.29533 6.6465 7.19749 6.45795 7.13227 6.20656C7.03443 5.79805 7.13228 5.42096 7.1975 5.20099C7.23012 4.98102 7.32794 4.76106 7.36055 4.66678C7.36055 4.35254 7.55624 3.94403 7.75191 3.72406C7.81714 3.66122 7.88236 3.59837 7.94758 3.53552C8.01281 3.40983 8.07805 3.28413 8.14327 3.18986C8.33895 2.93847 8.63246 2.74992 8.95859 2.65565C9.08904 2.52995 9.18686 2.40426 9.34992 2.30999C9.61082 2.12144 9.87173 2.05859 10.1652 2.05859C10.4261 2.05859 10.687 2.12144 10.8827 2.24714L11.1436 2.40426C11.1436 2.40426 11.1762 2.40426 11.2088 2.40426C11.4371 2.40426 11.8611 2.52995 12.0568 2.62423C12.2525 2.68707 12.546 2.74992 12.8069 2.93847C13.0352 3.09559 13.3287 3.5041 13.4265 3.75549C14.0461 4.35254 14.0461 5.0753 14.0461 5.45238C14.1114 5.57808 14.0787 5.64093 14.1114 5.79805C14.144 6.08086 14.1114 6.30083 14.1114 6.42653C14.1114 6.5208 14.1114 6.61507 14.1114 6.67792C14.2092 6.67792 14.3071 6.67792 14.4375 6.67792C15.4811 6.67792 16.2964 7.3064 16.7204 8.40624C16.9161 8.46909 17.0791 8.56336 17.2422 8.72048C17.2422 8.72048 19.7534 11.2972 19.9164 11.5172C20.1121 11.7686 20.2752 12.0514 20.5035 13.4655C20.6339 13.7169 20.6991 14.0311 20.6991 14.3768C20.6991 14.4082 20.6991 14.5339 20.6991 14.6282L20.8622 15.8851C20.8622 15.8851 20.8622 16.0423 20.8622 16.1365C20.8948 16.4194 20.8622 16.7022 20.8296 16.985C20.5361 18.1162 19.5903 18.7762 18.3184 18.8076C18.3184 18.9961 18.4488 19.6246 18.4488 19.6246C18.5467 20.2217 18.7424 21.1958 18.7424 21.3529C18.7424 21.95 18.7098 22.767 18.4815 23.2069C18.188 23.7726 17.8944 24.2439 17.5357 24.5267C17.5357 24.7467 17.5683 24.9353 17.6009 25.1552C17.6661 25.5323 17.7314 25.7523 17.7966 25.9722C17.8618 26.1922 17.8944 26.3808 17.9271 26.6007C17.9271 27.6691 17.8944 28.549 18.1227 29.2718C18.1227 29.3032 18.1227 29.366 18.1553 29.3975C19.7534 31.1886 19.5903 33.3883 19.4924 34.7395C19.4924 34.8338 19.4925 35.0538 19.4272 35.3052C19.4272 35.4309 19.362 35.5251 19.3294 35.6194C19.4599 35.8708 19.5577 36.2165 19.4924 36.6564C19.4924 36.7192 19.4598 36.8135 19.4272 36.9392C19.5251 37.0963 19.5903 37.3477 19.5903 37.662C19.5903 37.9762 19.4925 38.259 19.4599 38.4161C19.4599 38.4161 19.4599 39.076 19.4599 39.1075C19.4599 39.2646 19.4599 39.4217 19.4599 39.6103C19.4599 39.7674 19.4599 40.0502 19.4599 40.1445C19.4599 40.1759 19.6555 40.3959 19.7534 40.4901C20.3078 41.15 20.5361 41.7785 20.4708 42.5641C20.4056 43.2554 19.6229 44.0096 18.8728 44.0096C18.8076 44.0096 18.5467 44.0096 18.4815 43.9782L18.6445 44.041Z" fill="#132F1D"/>
<path d="M10.361 3.44057L10.7197 3.66054C10.7197 3.66054 10.8176 3.94335 10.948 3.97478C10.9806 3.97478 11.0132 3.97478 11.0458 3.97478C11.1437 3.97478 11.1111 3.91193 11.2089 3.84908C11.2741 3.81766 11.3394 3.78623 11.4046 3.78623C11.5024 3.78623 11.5676 3.84908 11.7307 3.91193C11.8938 3.97478 12.0895 4.0062 12.2199 4.06905C12.3177 4.1319 12.3503 4.25759 12.3829 4.38329C12.4482 4.50899 12.5134 4.57183 12.6112 4.66611C13.0026 5.04319 12.8069 5.42028 12.9048 5.92307C12.9048 5.95449 12.97 6.01734 12.97 6.08019C12.97 6.17446 12.97 6.30015 12.97 6.42585C12.97 6.70866 13.0026 6.89721 12.97 7.18002C12.8721 7.30572 12.9048 7.33715 12.9048 7.52569C12.9048 7.68281 12.97 7.83993 12.8395 7.96562C12.7091 8.0599 12.5786 7.96562 12.5134 8.12274C12.5134 8.18559 12.4482 8.49983 12.4808 8.56268C12.4808 8.56268 12.546 8.56268 12.5786 8.56268C12.6439 8.56268 12.6765 8.56268 12.7417 8.56268C12.8069 8.56268 12.9048 8.56268 13.0026 8.56268C13.4592 8.49983 13.9157 8.37414 14.3723 8.15417C14.5028 8.12274 14.6332 8.09132 14.7311 8.09132C15.4159 8.09132 15.7747 8.8455 15.9051 9.56825C16.0356 9.59967 16.166 9.66252 16.2965 9.69394H16.5248C16.5248 9.69394 18.9381 12.2079 19.1012 12.4278C19.2316 12.585 19.3947 13.5905 19.4599 14.0933C19.5577 14.1561 19.5903 14.2504 19.5903 14.5018C19.5903 14.5961 19.5904 14.6904 19.5577 14.7846L19.7534 16.2301C19.7534 16.2301 19.7534 16.2616 19.7534 16.3244C19.786 16.4815 19.8186 16.6386 19.7534 16.8272C19.5903 17.4242 19.1012 17.6128 18.5141 17.6128C18.1228 17.6128 17.6988 17.5185 17.3075 17.3928V18.367H17.1444C17.1444 18.367 17.2749 19.404 17.3401 19.6239C17.3727 19.8439 17.6662 21.2894 17.6662 21.4779C17.6662 21.6665 17.6662 22.5464 17.5357 22.7349C17.4379 22.9234 17.014 23.6462 16.8835 23.6462C16.7531 23.6462 16.3617 23.5519 16.3617 23.5519L16.2312 23.2691C16.2312 23.2691 16.3291 23.5205 16.3617 23.6148C16.3617 24.2432 16.4595 24.8403 16.5248 25.4374C16.5248 25.5945 16.5574 25.7516 16.59 25.9087C16.6552 26.0658 16.7204 26.223 16.7531 26.4115C16.7857 26.5686 16.8183 26.7572 16.8509 26.9143C16.8183 27.8256 16.7857 28.8626 17.0792 29.7739C17.1118 29.931 17.177 30.0881 17.2422 30.2138C18.5141 31.5022 18.5141 33.0734 18.3837 34.7389C18.3837 34.896 18.3837 35.0217 18.3837 35.116C18.3837 35.2102 18.3185 35.3045 18.2532 35.4302C18.0902 35.6502 18.0902 35.8073 18.2532 36.0272C18.3837 36.1844 18.5141 36.3101 18.4815 36.53C18.4489 36.75 18.188 36.97 18.2859 37.2214C18.3511 37.4099 18.5467 37.4728 18.5467 37.7241C18.5467 37.9127 18.4489 38.1012 18.4163 38.2898C18.3511 38.5726 18.4163 38.8868 18.4163 39.1696C18.4163 39.6096 18.3184 40.1752 18.4489 40.6152C18.5467 40.9294 18.8729 41.2436 19.0685 41.495C19.3294 41.8093 19.3947 42.1235 19.362 42.532C19.362 42.7206 19.2642 42.752 19.1664 42.752C19.0685 42.752 18.9707 42.752 18.8076 42.7206C18.7098 42.7206 18.612 42.7206 18.5141 42.7206C18.4489 42.7206 18.3837 42.7206 18.3184 42.7206C18.2206 42.7206 18.1228 42.752 18.0249 42.752C17.8619 42.752 17.7314 42.752 17.5357 42.6891C17.2748 42.6263 16.9487 42.7206 16.8183 42.5006C16.59 42.1235 16.8183 42.2178 16.7531 41.8407C16.6552 41.1494 16.6878 40.2695 16.59 39.5782C16.4921 38.7926 16.2965 38.2898 16.2639 37.6299C16.2639 37.3785 15.9377 37.3785 15.8073 37.1271C15.6768 36.8443 15.6116 36.4986 15.4485 36.2472C15.3181 36.0272 15.0898 35.7759 14.992 35.5559C14.9267 35.3045 15.1876 34.9903 15.2855 34.7703C15.2855 34.7703 15.0572 34.4875 15.0246 34.4875C14.9268 34.3932 14.7637 34.3303 14.6332 34.2361C14.4702 34.1104 14.3397 33.9847 14.3071 33.7647C14.2419 33.3876 14.5028 32.9791 14.3071 32.602C14.2093 32.4449 14.0462 32.3192 13.9157 32.1621C13.7201 31.8793 13.6875 31.9107 13.557 31.5965C13.4266 31.2822 13.2635 30.7166 13.3287 30.3709C13.3939 30.1195 13.4592 29.931 13.3287 29.711C13.1983 29.4911 13.0678 29.2711 12.9374 29.0825C12.6439 28.5798 12.4808 28.0456 12.2199 27.5113C12.0568 27.2285 12.1221 26.8514 11.9916 26.5372C11.8938 26.3172 11.8611 25.8144 11.6981 25.6573C11.6655 25.6259 11.6003 25.5631 11.535 25.5631C11.535 25.5631 11.5024 25.5631 11.4698 25.5631C11.372 25.6573 11.372 25.8773 11.372 26.003C11.372 26.3172 11.372 26.6315 11.2741 26.9457C11.0785 27.4799 10.8175 28.0456 10.6219 28.5798C10.4262 29.0825 10.1653 29.6168 10.1327 30.1195C10.0675 30.7166 10.1653 31.3136 10.1327 31.9107C10.1327 32.1935 10.1001 32.5078 10.0348 32.7906C9.96961 33.1048 9.77395 33.4191 9.6435 33.7333C9.41521 34.3303 9.57827 35.0217 9.48043 35.6502C9.38259 36.2472 9.18692 36.75 8.82819 37.2528C8.69773 37.4099 8.56727 37.4413 8.40421 37.4413C8.24114 37.4413 8.07808 37.4099 7.94763 37.4099C7.84979 37.4099 7.78459 37.4099 7.68675 37.4413C7.32801 37.5984 7.68673 37.6927 7.58889 38.007C7.52366 38.2269 7.36062 38.7611 7.32801 39.1382C7.32801 39.5153 7.58889 41.495 7.3606 41.7464C7.19754 41.935 7.06711 42.0292 6.87143 42.0292C6.80621 42.0292 6.74097 42.0292 6.67574 42.0292C6.48007 41.9978 6.21917 41.8721 5.99088 41.8721C5.92565 41.8721 5.89304 41.8721 5.86043 41.8721C5.66475 41.935 5.86042 42.0921 5.72997 42.1863C5.56691 42.2806 5.17556 42.312 4.81682 42.312C4.62115 42.312 4.45809 42.312 4.36025 42.312C3.93628 42.312 3.77323 42.312 3.21881 42.2178C2.89269 42.1863 3.05575 41.9035 3.08836 41.5264C3.08836 41.4636 3.08836 41.4322 3.08836 41.4322C3.08836 41.4322 3.12098 41.495 3.1536 41.495C3.1536 41.495 3.1862 41.495 3.21881 41.4007C3.28404 41.1494 3.57755 41.0551 3.80584 40.9922C4.16458 40.9294 4.4907 40.3638 4.71899 40.0181C4.84944 39.8295 5.04511 39.6096 5.14294 39.3896C4.94727 39.4839 4.88205 39.8295 4.58854 39.8295C4.58854 39.8295 4.52331 39.8295 4.4907 39.8295H4.42549V39.7667C4.42549 39.7667 4.42549 39.7039 4.42549 39.6724C4.42549 39.4839 4.45809 39.3896 4.71899 39.3268C4.71899 39.3896 4.71899 39.4839 4.71899 39.4839C4.71899 39.4839 4.55592 39.4839 4.55592 39.641C4.75159 39.641 4.81683 39.4839 4.94728 39.3582C4.91466 39.3582 4.84945 39.3268 4.78423 39.2639C4.84945 39.2639 4.94728 39.2011 4.9799 39.2011C5.04512 39.2011 5.04512 38.9811 5.11035 38.9811C5.14296 38.9811 5.20819 38.9811 5.2408 38.9811C5.30603 38.824 5.37124 38.6983 5.40385 38.5412C5.43646 38.4155 5.43646 38.2898 5.40385 38.1641C5.33863 37.7241 5.14294 37.2842 5.14294 36.8757C5.30601 36.8757 5.14295 36.8128 5.2734 36.6871C5.43646 36.53 5.33862 36.2786 5.37123 36.0587C5.37123 36.0587 5.37124 36.0587 5.40385 36.0587C5.63214 36.0587 5.56692 35.6816 5.5343 35.5559C5.46908 35.2731 5.43646 35.0217 5.37123 34.7389C5.33862 34.4875 5.20817 34.2675 5.37123 34.079C5.46907 33.9533 5.66475 33.8276 5.76259 33.6704C5.86043 33.5133 5.92565 33.3876 5.99088 33.2305C5.99088 33.1362 5.99089 33.1048 6.05612 33.0105C6.15396 32.7906 6.25177 32.602 6.18655 32.3506C6.12132 32.1307 5.82782 31.9107 5.99088 31.6907C6.08872 31.565 6.2844 31.5336 6.38224 31.4393C6.48008 31.3451 6.41485 31.0308 6.48007 30.8737C6.51269 30.7166 6.48007 30.5595 6.44745 30.4024C6.38223 30.151 6.61053 30.0253 6.61053 29.7739C6.61053 29.2397 6.61053 28.7369 6.61053 28.2027C6.61053 27.8256 6.70836 27.7627 6.70836 27.5113C6.70836 27.4485 6.70836 27.3856 6.70836 27.3228C6.70836 27.1657 6.70836 26.9771 6.70836 26.82C6.70836 26.7572 6.70836 26.6943 6.70836 26.6629C6.70836 26.223 6.61053 25.6573 6.83881 25.186C6.83881 25.1231 6.83882 25.0917 6.87143 25.0288C6.93666 24.7775 7.0345 24.5261 7.09972 24.2747C7.09972 24.2118 7.13232 24.1804 7.16494 24.1176C7.23016 23.9604 7.26278 23.8347 7.29539 23.6776C7.29539 23.6148 7.29539 23.5833 7.29539 23.5205C7.29539 23.4576 7.26279 23.4262 7.23017 23.4262C7.16495 23.3634 7.03449 23.3948 6.96927 23.2691C6.93666 23.2063 6.96927 23.112 6.96927 23.0491C7.00188 22.8292 6.96927 22.7035 6.96927 22.4835C6.93666 22.295 7.06709 21.4779 6.77357 21.3837C6.51267 21.7608 6.21916 21.9493 6.18655 22.4207C6.15393 22.7663 6.34962 23.0806 6.34962 23.3948C6.34962 23.5833 6.317 23.8662 6.317 24.0547C6.317 24.3689 6.28438 24.3689 6.18655 24.6203C5.95826 24.4318 6.0561 24.2432 5.99088 23.9919C5.99088 23.8976 5.89304 23.5205 5.76259 23.4576C5.76259 23.4576 5.76258 23.4576 5.72997 23.4576C5.50168 23.4576 5.50168 24.3061 5.50168 24.4318C5.50168 24.5575 5.86043 24.7146 5.99088 24.8403C6.0561 24.9032 5.89303 24.9974 5.95826 25.0288C5.95826 25.0288 6.02351 25.0289 6.05612 25.0603C6.12134 25.0603 6.15394 25.0603 6.21917 25.0603C6.25178 25.0603 6.28439 25.0603 6.317 25.0917C6.317 25.2488 6.317 25.4374 6.18655 25.4374C6.15393 25.4374 6.08872 25.4374 6.0235 25.4059C5.99089 25.4059 5.95827 25.4059 5.89305 25.3745C5.76259 25.3431 5.66475 25.2802 5.63214 25.2488C5.43646 25.1231 5.07773 25.0917 4.9799 24.8717C4.78422 24.5261 4.65377 24.1176 4.65377 23.7405C4.65377 23.3634 4.94727 22.892 4.81682 22.5778C4.81682 22.5778 4.81682 22.5778 4.81682 22.6406C4.71899 22.5149 4.719 22.1378 4.65377 21.9807C4.62116 21.855 4.49069 21.9807 4.45808 21.855C4.42547 21.5722 4.2298 21.4151 4.26241 21.1323C4.32764 20.3153 4.42547 19.184 4.45808 18.3355C4.45808 17.8328 4.55593 17.33 4.71899 16.8586C4.84944 16.4815 4.94727 15.9787 5.14294 15.5074C5.30601 15.0674 5.2408 14.8161 5.46909 14.3761C5.56693 14.1876 5.63213 13.7476 5.72997 13.5591C5.82781 13.3391 5.82781 13.0249 5.86043 12.8049C5.86043 12.365 6.15395 11.9879 6.38224 11.5794C6.44746 11.4851 6.64312 11.2651 6.77357 11.0766C6.70835 10.8881 6.67576 10.6995 6.64315 10.4795C6.61053 10.1967 6.57791 9.94534 6.57791 9.69394C6.67575 9.19116 6.67575 8.56268 7.0671 8.34271C7.328 8.34271 7.55628 8.34271 7.81718 8.34271C8.59988 8.34271 9.34999 8.43698 10.1001 8.49983C10.1001 8.49983 10.1001 8.49983 10.1001 8.46841C10.0675 8.34271 9.83917 8.27986 9.74133 8.18559C9.6435 8.09132 9.61089 8.0599 9.51305 7.99705C9.44782 7.9342 9.31736 7.83993 9.44781 7.74566C9.4152 7.61996 9.34999 7.52569 9.28476 7.43142C9.25215 7.39999 9.12169 7.30572 9.12169 7.24287C9.12169 7.18002 9.18692 7.08575 9.25214 7.05433C9.18692 6.92863 9.18693 6.80294 9.18693 6.67724C9.05648 6.61439 9.18692 6.45727 9.15431 6.363C9.12169 6.23731 8.95863 6.14303 8.92602 6.01734C8.89341 5.86022 8.99124 5.67167 9.02385 5.51455C9.02385 5.32601 9.15431 5.20031 9.18693 5.01177C9.18693 4.88607 9.18692 4.7918 9.28476 4.66611C9.34999 4.57183 9.51304 4.54041 9.57826 4.47756C9.6761 4.38329 9.64349 4.19475 9.70872 4.10047C9.80655 3.97478 9.93701 4.0062 10.1001 3.97478C10.2958 3.88051 10.4588 3.59769 10.6545 3.47199M17.177 23.1748C17.177 23.1748 17.2422 23.1748 17.2422 23.1434C17.2422 23.0491 17.5357 22.4207 17.5357 22.4207V20.5981C17.5357 20.5981 17.2422 19.4354 17.2748 19.3411C17.2748 19.2783 17.177 18.8069 17.0466 18.367C17.0139 18.4298 16.9161 18.4927 16.7204 18.5869C16.7204 18.5869 16.7204 18.5869 16.6878 18.5869L16.9813 19.9382L16.8183 20.5666C16.753 20.7552 16.6878 21.0694 16.59 21.3522L16.3617 22.2321L16.3291 22.4207V22.5778C16.4921 22.7977 16.6226 22.9549 16.6878 22.9863C16.8509 23.0491 17.0792 23.1434 17.177 23.1434M5.17556 39.3268C5.17556 39.3268 5.27339 39.2011 5.37123 39.1696C5.37123 39.1696 5.33863 39.1696 5.30602 39.1696C5.24079 39.1696 5.20818 39.2639 5.17556 39.3268ZM10.6545 0.769531C10.0675 0.769531 9.48042 0.958075 8.99123 1.30374C8.86078 1.39801 8.73033 1.49228 8.63249 1.58655C8.11069 1.80652 7.71934 2.15219 7.49106 2.46643C7.39322 2.59212 7.2954 2.71782 7.23017 2.84351C7.19756 2.87494 7.16493 2.90636 7.13232 2.93779C6.64313 3.50342 6.48008 4.06905 6.41486 4.47756C6.38225 4.60326 6.31702 4.76038 6.28441 4.94892C6.21918 5.13747 6.12133 5.48313 6.12133 5.86022C5.99088 5.89164 5.89304 5.95449 5.76259 6.01734C4.19719 6.83436 3.9689 8.40556 3.90367 9.09689V9.28543C3.83845 9.44255 3.83846 9.6311 3.83846 9.78822C3.83846 10.0082 3.83844 10.2282 3.87105 10.4795C3.61015 10.9509 3.18621 11.6737 3.1536 12.6792V12.8049C3.1536 12.8049 3.05576 13.0877 3.02314 13.2449V13.3077C2.72963 13.8419 2.6644 14.2818 2.63178 14.5332C2.50133 14.9418 2.37088 15.3503 2.27304 15.7588L2.17521 16.073C1.97953 16.7329 1.84908 17.4242 1.81647 18.2098C1.81647 19.0269 1.68603 20.0953 1.6208 20.8809C1.55558 21.6351 1.78385 22.2007 1.9143 22.4835C1.97953 22.6721 2.04475 22.8606 2.14259 23.0491C2.10998 23.2691 2.07738 23.4891 2.07738 23.709C2.07738 24.7146 2.46871 25.5945 2.697 26.0344C3.08835 26.7572 3.67538 27.1657 4.09934 27.3857C4.06673 27.637 4.03413 27.8884 4.03413 28.2341C4.03413 28.5798 4.03413 28.9254 4.03413 29.3025C3.93629 29.5539 3.87105 29.8367 3.87105 30.2138C3.61015 30.6223 3.25142 31.3451 3.4471 32.2878C3.41449 32.3192 3.38188 32.3821 3.34927 32.4135C2.72963 33.2305 2.59917 34.1732 2.86007 35.1788V35.3045C2.86007 35.3988 2.82747 35.4616 2.79486 35.5559C2.79486 35.6187 2.79486 35.6816 2.79486 35.7444C2.63179 36.0587 2.56656 36.4043 2.53395 36.7814C2.53395 37.0642 2.53394 37.3156 2.59916 37.5356C2.1752 37.9441 1.91431 38.4783 1.81647 39.0439C1.71863 39.1068 1.62079 39.2011 1.55556 39.2953C0.968534 39.7353 0.544564 40.4266 0.479339 41.3065C0.414114 41.6521 0.251063 42.6891 1.00115 43.6633C1.45773 44.2918 2.17521 44.7003 2.99052 44.7945C3.57755 44.8888 3.83844 44.8888 4.22979 44.9202H4.39287C4.55593 44.9202 4.78423 44.9202 5.01252 44.9202C5.59954 44.9202 6.28439 44.8888 6.90403 44.6374C6.96925 44.6374 7.00188 44.6374 7.0671 44.6374C7.81719 44.6374 8.89341 44.4174 9.77395 43.3176C10.5567 42.312 10.4588 41.1808 10.3284 39.6096C10.6545 39.421 10.948 39.1696 11.2089 38.8554C12.0242 37.8184 12.2851 36.7814 12.4156 36.0587C12.4156 35.9958 12.4156 35.9644 12.4156 35.9016C12.4156 35.9958 12.4482 36.1215 12.4808 36.2158C12.6765 36.8128 13.0026 37.2528 13.1983 37.5356C13.2961 37.787 13.3613 37.9441 13.4266 38.1012C13.5244 38.3526 13.6548 38.5412 13.7853 38.6983C13.7853 38.824 13.8505 38.9497 13.8505 39.0754C13.8831 39.2953 13.9484 39.5153 13.981 39.7981C13.981 40.0181 14.0136 40.3009 14.0136 40.5523C14.0136 40.9608 14.0462 41.3379 14.0788 41.7464C13.981 42.4377 14.144 43.1291 14.5354 43.789C14.8941 44.386 15.6768 45.1402 17.1118 45.2345C17.4379 45.2973 17.764 45.3602 18.0902 45.3602C18.2858 45.3602 18.4815 45.3602 18.6772 45.3287C18.9055 45.3602 19.0685 45.3916 19.2316 45.3916C20.797 45.3916 22.0689 44.2603 22.1994 42.7206C22.2972 41.5893 21.9711 40.5837 21.2536 39.7667C21.2536 39.7667 21.2536 39.7667 21.2536 39.7353C21.2536 39.5467 21.2536 39.3582 21.2536 39.1696C21.2536 39.0125 21.2536 38.8554 21.2536 38.6983C21.3188 38.4469 21.4167 38.1012 21.4167 37.7241C21.4167 37.4728 21.384 37.2214 21.3188 36.97C21.384 36.53 21.3514 36.0901 21.221 35.6816C21.2862 35.3988 21.2862 35.116 21.2862 34.8646C21.384 33.4505 21.5145 30.9994 19.786 28.894C19.6556 28.3284 19.6882 27.5113 19.7208 27.0714C19.7208 26.8829 19.7208 26.7257 19.7208 26.5372C19.6882 26.2858 19.6556 26.0658 19.5903 25.8144C19.5577 25.6259 19.4925 25.4374 19.4273 25.2802V25.0917C19.7208 24.6832 19.9491 24.2432 20.1448 23.929C20.2426 23.709 20.5687 23.1434 20.5687 21.4779C20.5687 21.1951 20.5687 20.9752 20.3404 19.9696C21.4493 19.5297 22.2646 18.6498 22.5907 17.4871C22.6886 17.0472 22.7212 16.6386 22.6885 16.2301C22.6885 16.1044 22.6885 15.9787 22.6885 15.853L22.5255 14.7532C22.5255 14.7532 22.5255 14.6589 22.5255 14.5961C22.5255 14.0619 22.4276 13.5905 22.2972 13.2449C22.0689 11.925 21.8732 11.328 21.4819 10.8252C21.384 10.6995 21.221 10.4795 18.7098 7.90278C18.5794 7.74566 18.4163 7.61996 18.2532 7.52569C17.6662 6.42585 16.8183 5.82879 15.9377 5.5774C15.9377 5.54598 15.9377 5.51455 15.9377 5.48313C15.9377 4.98035 15.8725 4.0062 15.1224 3.09491C14.992 2.84351 14.6984 2.34073 14.1114 1.93222C13.7201 1.68083 13.3287 1.55513 13.0678 1.49228C12.8721 1.39801 12.5134 1.27232 12.0894 1.20947C11.6329 0.958075 11.1437 0.832379 10.6545 0.832379V0.769531Z" fill="#DCD48B"/>
</svg>
