<svg width="235" height="60" viewBox="0 0 235 60" fill="none" xmlns="http://www.w3.org/2000/svg">
<path d="M34.5167 53.5772C33.6487 53.5772 32.9316 52.7743 32.9316 51.8025V8.19689C32.9316 7.22506 33.6487 6.42224 34.5167 6.42224H49.7256C54.7827 6.42224 58.8963 11.0279 58.8963 16.6898V20.7462C58.8963 23.8307 57.6886 26.7039 55.613 28.6053C57.6509 30.5067 58.8963 33.3377 58.8963 36.4645V43.3096C58.8963 48.9715 54.7827 53.5772 49.7256 53.5772C49.7256 53.5772 43.5364 53.5772 43.4609 53.5772H34.5167ZM45.3101 42.718C46.0272 42.718 46.631 42.042 46.631 41.2391V36.0842C46.631 35.2814 46.0272 34.6053 45.3101 34.6053H45.0837V42.718H45.3101ZM45.3101 23.0701C46.0272 23.0701 46.631 22.3941 46.631 21.5913V19.4786C46.631 18.6758 46.0272 17.9997 45.3101 17.9997H45.0837V23.0701H45.3101Z" fill="#132F1D"/>
<path d="M49.7625 8.19623C53.9516 8.19623 57.3104 11.9991 57.3104 16.6469V20.7033C57.3104 24.2526 55.3479 27.2948 52.5552 28.5624C55.3479 29.83 57.3104 32.8723 57.3104 36.4216V43.2667C57.3104 47.9568 53.9139 51.7174 49.7625 51.7174H43.4978H34.5536V8.19623H49.7625ZM43.4978 24.8864H45.3093C46.9321 24.8864 48.2152 23.4075 48.2152 21.6329V19.5202C48.2152 17.7033 46.8943 16.2667 45.3093 16.2667H43.4978V24.9286M43.4978 44.5765H45.3093C46.9321 44.5765 48.2152 43.0976 48.2152 41.323V36.1681C48.2152 34.3512 46.8943 32.9145 45.3093 32.9145H43.4978V44.6188M49.7625 4.73145H34.5536C32.7798 4.73145 31.3457 6.33708 31.3457 8.32299V51.8864C31.3457 53.8723 32.7798 55.4779 34.5536 55.4779H43.4978C43.4978 55.4779 43.6488 55.4779 43.7242 55.4779H49.7625C55.6876 55.4779 60.5182 50.0695 60.5182 43.4357V36.5906C60.5182 33.6329 59.5747 30.8864 57.9142 28.7314C59.5747 26.5765 60.5182 23.83 60.5182 20.8723V16.816C60.5182 10.1821 55.6876 4.7737 49.7625 4.7737V4.73145Z" fill="#DCD48B"/>
<path d="M69.8716 53.5723C63.9087 53.5723 59.0781 48.1639 59.0781 41.4878V23.7836C59.0781 17.1075 63.9087 11.6991 69.8716 11.6991H73.5323C79.4951 11.6991 84.3257 17.1075 84.3257 23.7836V41.4878C84.3257 48.1639 79.4951 53.5723 73.5323 53.5723H69.8716ZM71.7208 22.8118C71.0415 22.8118 70.5131 23.4033 70.5131 24.1639V41.1075C70.5131 41.8681 71.0415 42.4597 71.7208 42.4597C72.4001 42.4597 72.9285 41.8681 72.9285 41.1075V24.1639C72.9285 23.4033 72.4001 22.8118 71.7208 22.8118Z" fill="#132F1D"/>
<path d="M73.547 13.4745C78.6041 13.4745 82.7177 18.0801 82.7177 23.7421V41.4463C82.7177 47.1083 78.6041 51.7139 73.547 51.7139H69.8863C64.8292 51.7139 60.7157 47.1083 60.7157 41.4463V23.7421C60.7157 18.0801 64.8292 13.4745 69.8863 13.4745H73.547ZM71.6978 44.235C73.2451 44.235 74.5283 42.8407 74.5283 41.066V24.1224C74.5283 22.39 73.2829 20.9534 71.6978 20.9534C70.1128 20.9534 68.8674 22.3477 68.8674 24.1224V41.066C68.8674 42.7984 70.1128 44.235 71.6978 44.235ZM73.547 9.88293H69.8863C63.0555 9.88293 57.5078 16.0942 57.5078 23.7421V41.4463C57.5078 49.0942 63.0555 55.3055 69.8863 55.3055H73.547C80.3779 55.3055 85.9255 49.0942 85.9255 41.4463V23.7421C85.9255 16.0942 80.3779 9.88293 73.547 9.88293Z" fill="#DCD48B"/>
<path d="M172.094 53.5723C166.131 53.5723 161.301 48.1639 161.301 41.4878V23.7836C161.301 17.1075 166.131 11.6991 172.094 11.6991H175.755C181.718 11.6991 186.548 17.1075 186.548 23.7836V41.4878C186.548 48.1639 181.718 53.5723 175.755 53.5723H172.094ZM173.943 22.8118C173.264 22.8118 172.736 23.4033 172.736 24.1639V41.1075C172.736 41.8681 173.264 42.4597 173.943 42.4597C174.623 42.4597 175.151 41.8681 175.151 41.1075V24.1639C175.151 23.4033 174.623 22.8118 173.943 22.8118Z" fill="#132F1D"/>
<path d="M175.754 13.4744C180.811 13.4744 184.925 18.08 184.925 23.742V41.4462C184.925 47.1082 180.811 51.7138 175.754 51.7138H172.093C167.036 51.7138 162.923 47.1082 162.923 41.4462V23.742C162.923 18.08 167.036 13.4744 172.093 13.4744H175.754ZM173.905 44.2349C175.452 44.2349 176.735 42.8406 176.735 41.0659V24.1222C176.735 22.3899 175.49 20.9532 173.905 20.9532C172.32 20.9532 171.074 22.3476 171.074 24.1222V41.0659C171.074 42.7983 172.32 44.2349 173.905 44.2349ZM175.754 9.88281H172.093C165.263 9.88281 159.715 16.0941 159.715 23.742V41.4462C159.715 49.0941 165.263 55.3053 172.093 55.3053H175.754C182.585 55.3053 188.133 49.0941 188.133 41.4462V23.742C188.133 16.0941 182.585 9.88281 175.754 9.88281Z" fill="#DCD48B"/>
<path d="M92.5295 53.4878C91.6615 53.4878 90.9445 52.685 90.9445 51.7132V39.5864L82.4154 14.1075C82.2267 13.5583 82.3021 12.9244 82.6041 12.4597C82.906 11.9949 83.3966 11.6991 83.9249 11.6991H93.0956C93.8126 11.6991 94.4542 12.2484 94.6429 13.009L96.9827 22.6428L99.3226 13.009C99.5113 12.2061 100.153 11.6991 100.87 11.6991H110.041C110.569 11.6991 111.06 11.9949 111.361 12.4597C111.663 12.9244 111.739 13.5583 111.55 14.1075L103.021 39.5864V51.7132C103.021 52.685 102.304 53.4878 101.436 53.4878H92.5295Z" fill="#132F1D"/>
<path d="M110.044 13.4745L101.401 39.2491V51.6717H92.4948V39.2491L83.8525 13.4745H93.0231L96.9103 29.4463L100.797 13.4745H109.968M109.968 9.88293H100.76C99.3256 9.88293 98.0425 10.9815 97.6651 12.5449L96.8725 15.8407L96.08 12.5449C95.7026 10.9815 94.4195 9.88293 92.9854 9.88293H83.8147C82.758 9.88293 81.7768 10.4745 81.173 11.4463C80.5692 12.4181 80.4182 13.6435 80.7956 14.7421L89.2115 39.9252V51.7139C89.2115 53.6998 90.6455 55.3055 92.4193 55.3055H101.326C103.1 55.3055 104.534 53.6998 104.534 51.7139V39.9252L112.874 14.9956C113.063 14.5308 113.176 14.0238 113.176 13.5167C113.176 11.5308 111.742 9.92519 109.968 9.92519V9.88293Z" fill="#DCD48B"/>
<path d="M148.398 53.5024C142.662 53.5024 137.982 48.2629 137.982 41.8404V23.3334C137.982 16.9108 142.662 11.6714 148.398 11.6714H159.796C160.664 11.6714 161.381 12.4742 161.381 13.446V20.8404C161.381 21.8122 160.664 22.615 159.796 22.615H150.927C150.399 22.615 149.984 23.0798 149.984 23.6714V41.4179C149.984 42.0094 150.399 42.4742 150.927 42.4742H159.796C160.664 42.4742 161.381 43.277 161.381 44.2488V51.6432C161.381 52.615 160.664 53.4179 159.796 53.4179H148.398V53.5024Z" fill="#132F1D"/>
<path d="M159.795 13.489V20.8834H150.926C149.53 20.8834 148.398 22.151 148.398 23.7144V41.4609C148.398 43.0242 149.53 44.2918 150.926 44.2918H159.795V51.6862H148.398C143.529 51.6862 139.604 47.2918 139.604 41.8411V23.3341C139.604 17.8834 143.529 13.489 148.398 13.489H159.795ZM159.795 9.89748H148.398C141.793 9.89748 136.396 15.9397 136.396 23.3341V41.8411C136.396 49.2778 141.793 55.2778 148.398 55.2778H159.795C161.569 55.2778 163.003 53.6721 163.003 51.6862V44.2918C163.003 42.3059 161.569 40.7003 159.795 40.7003H151.605V24.4327H159.795C161.569 24.4327 163.003 22.8271 163.003 20.8411V13.4468C163.003 11.4609 161.569 9.85522 159.795 9.85522V9.89748Z" fill="#DCD48B"/>
<path d="M218.54 53.4878C217.672 53.4878 216.955 52.685 216.955 51.7132V24.3329H213.407C212.539 24.3329 211.822 23.5301 211.822 22.5583V13.4737C211.822 12.5019 212.539 11.6991 213.407 11.6991H231.786C232.654 11.6991 233.371 12.5019 233.371 13.4737V22.5583C233.371 23.5301 232.654 24.3329 231.786 24.3329H228.239V51.7132C228.239 52.685 227.522 53.4878 226.654 53.4878H218.54Z" fill="#132F1D"/>
<path d="M231.794 13.4745V22.559H226.661V51.7139H218.547V22.559H213.415V13.4745H231.794ZM231.794 9.88293H213.415C211.641 9.88293 210.207 11.4886 210.207 13.4745V22.559C210.207 24.5449 211.641 26.1505 213.415 26.1505H215.34V51.7139C215.34 53.6998 216.774 55.3055 218.547 55.3055H226.661C228.435 55.3055 229.869 53.6998 229.869 51.7139V26.1505H231.794C233.568 26.1505 235.002 24.5449 235.002 22.559V13.4745C235.002 11.4886 233.568 9.88293 231.794 9.88293Z" fill="#DCD48B"/>
<path d="M197.501 53.4878C193.991 53.4878 190.708 51.5864 188.708 48.3329C187.463 46.347 186.821 44.023 186.783 41.5723V13.4737C186.783 12.5019 187.5 11.6991 188.368 11.6991H196.595C197.463 11.6991 198.181 12.5019 198.181 13.4737V40.7273C198.181 41.4878 198.747 42.1216 199.426 42.1216C200.105 42.1216 200.671 41.4878 200.671 40.7273V13.5583C200.671 12.5864 201.388 11.6991 202.256 11.6991H210.484C211.352 11.6991 212.069 12.5019 212.069 13.4737V41.4878C212.069 43.9385 211.389 46.347 210.144 48.3751C208.144 51.5864 204.823 53.5301 201.351 53.5301H197.463L197.501 53.4878Z" fill="#132F1D"/>
<path d="M210.491 13.4745V41.4886C210.491 43.6435 209.887 45.6717 208.831 47.3196C207.17 49.9815 204.453 51.7139 201.358 51.7139H197.471C194.376 51.7139 191.659 49.9815 189.999 47.3196C188.98 45.6717 188.376 43.728 188.376 41.5731C188.376 41.5731 188.376 41.4886 188.376 41.4463V23.6576C188.376 23.6576 188.376 23.5731 188.376 23.5308V13.4322H196.603V40.6858C196.603 42.4182 197.886 43.8548 199.433 43.8548C200.981 43.8548 202.264 42.4182 202.264 40.6858V13.559L210.491 13.5167M210.491 9.92519H202.264C201.018 9.92519 199.962 10.728 199.433 11.8689C198.905 10.728 197.848 9.92519 196.603 9.92519H188.376C186.602 9.92519 185.168 11.5308 185.168 13.5167V41.5308C185.168 41.5308 185.168 41.7421 185.168 41.8266C185.168 44.4463 185.96 47.1083 187.395 49.4322C189.697 53.1505 193.471 55.3477 197.509 55.3477H201.396C205.434 55.3477 209.208 53.1505 211.51 49.4322C212.982 47.1083 213.737 44.3618 213.737 41.5308V13.4745C213.737 11.4886 212.303 9.88293 210.529 9.88293L210.491 9.92519Z" fill="#DCD48B"/>
<path d="M121.758 53.4896C115.305 53.4896 110.022 47.6164 110.022 40.3488V38.0671C110.022 37.5178 110.022 36.9685 110.097 36.377C110.172 35.4474 110.852 34.7291 111.682 34.7291H120.324C120.324 34.7291 120.06 34.5601 119.947 34.4755C117.532 32.7854 114.814 30.9263 112.89 28.6446C112.512 28.222 112.173 27.7572 111.871 27.3347C110.814 25.8136 110.286 24.2079 110.059 21.9685C109.682 18.2924 110.739 14.6586 113.041 11.7432C115.72 8.36287 119.721 6.37695 123.796 6.37695C131.344 6.37695 136.854 12.5037 136.854 20.9544C136.854 21.9262 136.137 22.9403 135.231 22.9403H126.551C129.684 25.1798 132.59 27.2924 134.703 29.9967C136.628 32.4896 137.571 35.1093 137.571 38.0671V40.3488C137.571 47.5741 132.326 53.4896 125.834 53.4896H121.758ZM122.362 36.546V39.4615C122.362 40.3488 123.004 41.0671 123.796 41.0671C124.589 41.0671 125.231 40.3488 125.231 39.4615C125.231 39.2924 125.08 38.7009 124.476 38.0248C123.91 37.4333 123.155 36.7995 122.287 36.1657C122.287 36.2924 122.287 36.4192 122.287 36.546H122.362ZM123.796 18.0812C123.155 18.0812 122.589 18.6727 122.589 19.4333C122.589 19.6868 122.626 19.8136 122.702 19.9403C122.853 20.1939 123.117 20.4896 123.532 20.8277C124.061 21.2079 124.589 21.5882 125.155 22.0108C125.042 21.7572 125.004 21.5037 125.004 21.2079V19.4755C125.004 18.7572 124.476 18.1234 123.796 18.1234V18.0812Z" fill="#132F1D"/>
<path d="M123.756 8.19424C130.474 8.19424 135.191 13.4759 135.191 20.9971C135.191 21.0393 135.191 21.1238 135.191 21.1661H126.549V19.4337C126.549 17.7013 125.304 16.3069 123.756 16.3069C122.209 16.3069 120.964 17.7013 120.964 19.4337C120.964 19.9407 121.077 20.4055 121.341 20.8703C121.567 21.2928 121.982 21.7576 122.549 22.2224C126.511 25.1802 130.813 27.7999 133.455 31.1802C134.965 33.1238 135.908 35.3633 135.908 38.0675V40.3492C135.908 46.6027 131.38 51.6731 125.794 51.6731H121.756C116.171 51.6731 111.642 46.6027 111.642 40.3492V38.0675C111.642 37.5604 111.642 37.0534 111.717 36.5041H120.775V39.4196C120.775 41.321 122.133 42.8421 123.832 42.8421C125.53 42.8421 126.889 41.321 126.889 39.4196C126.889 38.7858 126.587 37.7295 125.681 36.7154C123.077 33.9689 117.341 31.1379 114.095 27.3773C113.755 26.9971 113.453 26.6168 113.227 26.2365C112.397 25.0111 111.944 23.7435 111.717 21.7576C110.925 14.2788 117.152 8.15199 123.869 8.15199M123.869 4.56044C119.341 4.56044 114.887 6.79988 111.906 10.5604C109.264 13.8562 108.094 17.9971 108.51 22.2224C108.774 24.7999 109.415 26.659 110.661 28.4337C111 28.8985 111.378 29.4055 111.793 29.8703C112.736 30.9689 113.831 31.983 115.001 32.9126H111.755C110.095 32.9126 108.698 34.3492 108.547 36.1661C108.51 36.7999 108.472 37.4337 108.472 38.0252V40.3069C108.472 48.5464 114.472 55.2224 121.794 55.2224H125.832C133.191 55.2224 139.154 48.5041 139.154 40.3069V38.0252C139.154 34.6872 138.059 31.6027 135.908 28.814C134.738 27.2928 133.342 25.983 131.832 24.7154H135.267C137.003 24.7154 138.437 23.152 138.475 21.1661C138.475 21.1661 138.475 20.9548 138.475 20.9126C138.475 11.4055 132.323 4.51819 123.832 4.51819L123.869 4.56044Z" fill="#DCD48B"/>
<path d="M21.0887 58.1835C21.0887 58.1835 20.3339 58.1835 20.2206 58.1835C19.881 58.1835 19.5413 58.1412 19.2017 58.0145C19.2017 58.0145 19.1639 58.0145 19.1262 58.0145C18.7865 58.0145 17.9563 57.8877 17.4279 56.9581C17.126 56.3666 17.0128 55.8173 17.126 55.2257C17.0505 54.6764 17.0505 54.0849 17.0128 53.4933C17.0128 53.0708 17.0128 52.6905 16.9373 52.3102C16.8996 51.8877 16.8241 51.5497 16.7486 51.2117C16.6731 50.9159 16.6354 50.5778 16.5977 50.2821C16.4467 50.1131 16.258 49.8595 16.1448 49.5215C16.0693 49.3525 16.0316 49.1835 15.9561 48.9722L17.2015 47.6624L15.7674 48.5074C15.5787 48.2117 15.2768 47.7891 15.1258 47.2398C15.0126 46.8595 15.0126 46.4793 15.0881 46.1835C14.8239 45.93 14.4465 45.4652 14.2956 44.6624C14.2201 44.1976 14.2578 43.775 14.2956 43.4793C14.2201 43.3948 14.1446 43.3102 14.1069 43.1835C13.8049 42.7187 13.6917 42.5497 13.5408 42.0426C13.4276 41.7046 13.0124 40.437 13.2011 39.3807C13.2011 39.3807 12.8992 38.7891 12.8615 38.7469C12.7483 39.0426 12.6728 39.3807 12.635 39.5497C12.635 39.93 12.635 40.268 12.635 40.6483C12.635 41.0708 12.635 41.4933 12.635 41.9159C12.635 42.3807 12.5595 42.8877 12.4841 43.3525C12.4086 43.8173 12.2576 44.2398 12.1067 44.5356C11.918 45.0849 11.918 45.4229 11.918 45.7609C11.918 46.2257 11.918 46.6905 11.8425 47.1553C11.7293 47.9581 11.4651 49.0567 10.7481 50.0708C10.5594 50.3666 10.1442 50.8314 9.42718 50.9581C9.31396 51.3807 9.31397 51.5497 9.31397 51.5497C9.31397 51.6764 9.31398 51.9722 9.35172 52.3102C9.50267 54.4652 9.50266 55.3525 9.01205 56.1131C8.52143 56.8314 7.91761 57.2117 7.16283 57.2117C7.08735 57.2117 6.78541 57.2117 6.6722 57.1694C6.21932 57.4652 5.65323 57.5919 4.78523 57.5919H4.14367C3.53984 57.5497 3.27566 57.5497 2.67183 57.4229C2.2567 57.3384 1.6906 57.0004 1.42643 56.6201C0.973555 55.9018 1.0868 55.1412 1.12453 54.8032C1.20001 54.0004 1.46417 53.4511 1.84156 53.1553C2.068 52.8595 2.33218 52.6483 2.67183 52.4793C2.59635 51.3384 3.0115 50.5779 3.80403 50.1976C3.80403 50.1131 3.80402 50.0708 3.76628 49.9863C3.65306 49.5638 3.53985 49.0567 3.53985 48.4652C3.53985 48.1271 3.65307 47.7891 3.80403 47.5356C3.80403 47.4088 3.80403 47.2398 3.80403 47.0708C3.80403 46.9018 3.87951 46.7328 3.95499 46.606C3.95499 46.4793 3.95498 46.3525 3.91724 46.2257L4.37012 46.0145C4.37012 46.0145 4.4456 45.93 4.48333 45.93C4.70977 45.7609 5.01168 45.6342 5.27586 45.5919L5.42682 45.5074L3.84174 45.7609C3.76627 45.4229 3.53986 44.4933 4.10595 43.606C4.18143 43.4793 4.44558 43.1412 4.5588 43.0567C4.5588 42.9722 4.70977 42.6764 4.74751 42.5497C4.2569 41.6201 4.63429 40.775 4.89847 40.3525C4.93621 40.268 5.01168 40.1835 5.1249 40.099C5.01168 39.2539 5.23813 38.7046 5.31361 38.4933C5.23813 38.1976 5.23811 37.5215 5.23811 36.8032C5.23811 36.2539 5.31359 35.9159 5.38907 35.6624C5.38907 35.6624 5.38907 34.7328 5.38907 34.5638C5.1249 34.437 4.89847 34.3525 4.74751 34.2257C4.48333 34.1412 3.84176 33.8877 3.5021 33.0849C3.27567 32.6201 2.93601 31.7328 2.93601 30.761C2.93601 30.3384 3.01149 30.0004 3.08697 29.7046C3.08697 29.5779 3.0115 29.4511 3.0115 29.3243C2.82281 29.0708 2.70957 28.7328 2.67183 28.3948C2.55862 28.2257 2.36993 27.7187 2.44541 27.0849C2.52088 25.9441 2.63409 24.5074 2.67183 23.4088C2.67183 22.4793 2.82278 21.6764 3.04922 20.9581L3.16246 20.4933C3.27568 20.0286 3.38887 19.5215 3.57757 19.0145C3.69079 18.3384 3.76628 17.8736 4.03045 17.2821C4.14367 16.775 4.1814 16.5638 4.25688 16.3948C4.25688 16.3525 4.25688 16.0567 4.25688 15.9722C4.29462 15.0426 4.63429 14.3666 4.89847 13.8595C5.01169 13.6483 5.08715 13.4793 5.20036 13.3103C5.20036 13.3103 5.20036 13.268 5.20036 13.2257C5.12488 12.761 5.12489 12.3384 5.08715 11.9581C5.08715 11.8736 5.12491 11.4088 5.16264 11.2821C5.23812 10.4793 5.38908 9.16941 6.48352 8.49335C6.67221 8.36659 6.89864 8.28208 7.12508 8.28208C7.42699 8.28208 7.72892 8.28208 7.9931 8.23983C7.9931 8.15532 8.03082 7.98631 8.03082 7.98631C7.95534 7.9018 7.84212 7.64828 7.76664 7.31025C7.65342 6.76096 7.76666 6.25391 7.84214 5.95814C7.87988 5.66236 7.99308 5.36659 8.03082 5.23983C8.03082 4.81729 8.25726 4.268 8.4837 3.97222C8.55918 3.88772 8.63465 3.80321 8.71012 3.7187C8.7856 3.54969 8.8611 3.38068 8.93658 3.25391C9.16302 2.91589 9.50267 2.66237 9.88006 2.5356C10.031 2.36659 10.1442 2.19758 10.3329 2.07082C10.6348 1.8173 10.9367 1.73279 11.2764 1.73279C11.5783 1.73279 11.8802 1.8173 12.1067 1.98631L12.4086 2.19758C12.4086 2.19758 12.4463 2.19758 12.4841 2.19758C12.7482 2.19758 13.2389 2.36659 13.4653 2.49335C13.6917 2.57786 14.0314 2.66237 14.3333 2.91589C14.5975 3.12715 14.9371 3.67645 15.0503 4.01448C15.7674 4.81729 15.7674 5.78913 15.7674 6.29617C15.8429 6.46518 15.8051 6.54969 15.8429 6.76096C15.8806 7.14124 15.8429 7.43701 15.8429 7.60603C15.8429 7.73279 15.8429 7.85955 15.8429 7.94405C15.9561 7.94405 16.0693 7.94405 16.2203 7.94405C17.4279 7.94405 18.3714 8.78912 18.862 10.268C19.0885 10.3525 19.2772 10.4793 19.4659 10.6905C19.4659 10.6905 22.3718 14.1553 22.5605 14.4511C22.7869 14.7891 22.9756 15.1694 23.2398 17.0708C23.3908 17.4088 23.4662 17.8314 23.4662 18.2962C23.4662 18.3384 23.4662 18.5074 23.4662 18.6342L23.6549 20.3243C23.6549 20.3243 23.6549 20.5356 23.6549 20.6624C23.6926 21.0426 23.6549 21.4229 23.6172 21.8032C23.2775 23.3243 22.1831 24.2117 20.7112 24.2539C20.7112 24.5074 20.8622 25.3525 20.8622 25.3525C20.9754 26.1553 21.2019 27.4652 21.2019 27.6764C21.2019 28.4793 21.1641 29.5779 20.8999 30.1694C20.5603 30.93 20.2206 31.5638 19.8055 31.9441C19.8055 32.2398 19.8432 32.4933 19.881 32.7891C19.9564 33.2962 20.0319 33.5919 20.1074 33.8877C20.1829 34.1835 20.2206 34.437 20.2584 34.7328C20.2584 36.1694 20.2206 37.3525 20.4848 38.3243C20.4848 38.3666 20.4848 38.4511 20.5226 38.4933C22.3718 40.9018 22.1831 43.8595 22.0699 45.6764C22.0699 45.8032 22.0699 46.099 21.9944 46.437C21.9944 46.606 21.9189 46.7328 21.8812 46.8595C22.0321 47.1976 22.1453 47.6624 22.0699 48.2539C22.0699 48.3384 22.0321 48.4652 21.9944 48.6342C22.1076 48.8455 22.1831 49.1835 22.1831 49.606C22.1831 50.0286 22.0699 50.4088 22.0321 50.6201C22.0321 50.6201 22.0321 51.5074 22.0321 51.5497C22.0321 51.7609 22.0321 51.9722 22.0321 52.2257C22.0321 52.437 22.0321 52.8173 22.0321 52.944C22.0321 52.9863 22.2586 53.2821 22.3718 53.4088C23.0134 54.2962 23.2775 55.1412 23.2021 56.1976C23.1266 57.1271 22.2208 58.1412 21.3528 58.1412C21.2774 58.1412 20.9754 58.1412 20.8999 58.099L21.0887 58.1835Z" fill="#132F1D"/>
<path d="M11.5061 3.59155L11.9212 3.88732C11.9212 3.88732 12.0344 4.26761 12.1854 4.30986C12.2231 4.30986 12.2609 4.30986 12.2986 4.30986C12.4118 4.30986 12.3741 4.22535 12.4873 4.14085C12.5627 4.09859 12.6382 4.05634 12.7137 4.05634C12.8269 4.05634 12.9024 4.14085 13.0911 4.22535C13.2798 4.30986 13.5063 4.35211 13.6572 4.43662C13.7704 4.52113 13.8081 4.69014 13.8459 4.85916C13.9214 5.02817 13.9968 5.11268 14.1101 5.23944C14.5629 5.74648 14.3365 6.25352 14.4497 6.92958C14.4497 6.97183 14.5252 7.05634 14.5252 7.14085C14.5252 7.26761 14.5252 7.43662 14.5252 7.60563C14.5252 7.98592 14.5629 8.23944 14.5252 8.61972C14.412 8.78873 14.4497 8.83099 14.4497 9.08451C14.4497 9.29578 14.5252 9.50704 14.3742 9.67606C14.2233 9.80282 14.0723 9.67606 13.9968 9.88732C13.9968 9.97183 13.9214 10.3944 13.9591 10.4789C13.9591 10.4789 14.0346 10.4789 14.0723 10.4789C14.1478 10.4789 14.1855 10.4789 14.261 10.4789C14.3365 10.4789 14.4497 10.4789 14.5629 10.4789C15.0913 10.3944 15.6196 10.2254 16.148 9.92958C16.2989 9.88732 16.4499 9.84507 16.5631 9.84507C17.3557 9.84507 17.7708 10.8592 17.9217 11.831C18.0727 11.8732 18.2237 11.9577 18.3746 12H18.6388C18.6388 12 21.4315 15.3803 21.6202 15.6761C21.7712 15.8873 21.9599 17.2394 22.0354 17.9155C22.1486 18 22.1863 18.1268 22.1863 18.4648C22.1863 18.5915 22.1863 18.7183 22.1486 18.8451L22.375 20.7887C22.375 20.7887 22.375 20.831 22.375 20.9155C22.4127 21.1268 22.4505 21.338 22.375 21.5916C22.1863 22.3944 21.6202 22.6479 20.9409 22.6479C20.488 22.6479 19.9974 22.5211 19.5445 22.3521V23.662H19.3558C19.3558 23.662 19.5068 25.0563 19.5823 25.3521C19.62 25.6479 19.9597 27.5916 19.9597 27.8451C19.9597 28.0986 19.9597 29.2817 19.8087 29.5352C19.6955 29.7887 19.2049 30.7606 19.0539 30.7606C18.903 30.7606 18.4501 30.6338 18.4501 30.6338L18.2991 30.2535C18.2991 30.2535 18.4124 30.5916 18.4501 30.7183C18.4501 31.5634 18.5633 32.3662 18.6388 33.169C18.6388 33.3803 18.6765 33.5916 18.7143 33.8028C18.7897 34.0141 18.8652 34.2254 18.903 34.4789C18.9407 34.6901 18.9785 34.9437 19.0162 35.1549C18.9785 36.3803 18.9407 37.7746 19.2804 39C19.3181 39.2113 19.3936 39.4225 19.4691 39.5916C20.9409 41.3239 20.9409 43.4366 20.7899 45.6761C20.7899 45.8873 20.7899 46.0563 20.7899 46.1831C20.7899 46.3099 20.7145 46.4366 20.639 46.6056C20.4503 46.9014 20.4503 47.1127 20.639 47.4085C20.7899 47.6197 20.9409 47.7887 20.9032 48.0845C20.8654 48.3803 20.5635 48.6761 20.6767 49.0141C20.7522 49.2676 20.9786 49.3521 20.9786 49.6901C20.9786 49.9437 20.8654 50.1972 20.8277 50.4507C20.7522 50.831 20.8277 51.2535 20.8277 51.6338C20.8277 52.2254 20.7145 52.9859 20.8654 53.5775C20.9786 54 21.356 54.4225 21.5825 54.7606C21.8844 55.1831 21.9598 55.6056 21.9221 56.1549C21.9221 56.4085 21.8089 56.4507 21.6957 56.4507C21.5825 56.4507 21.4692 56.4507 21.2805 56.4085C21.1673 56.4085 21.0541 56.4085 20.9409 56.4085C20.8654 56.4085 20.7899 56.4085 20.7145 56.4085C20.6012 56.4085 20.488 56.4507 20.3748 56.4507C20.1861 56.4507 20.0352 56.4507 19.8087 56.3662C19.5068 56.2817 19.1294 56.4085 18.9784 56.1127C18.7143 55.6056 18.9785 55.7324 18.903 55.2254C18.7898 54.2958 18.8275 53.1127 18.7143 52.1831C18.6011 51.1268 18.3746 50.4507 18.3369 49.5634C18.3369 49.2254 17.9595 49.2254 17.8085 48.8873C17.6576 48.507 17.5821 48.0423 17.3934 47.7042C17.2424 47.4085 16.9783 47.0704 16.865 46.7746C16.7896 46.4366 17.0915 46.0141 17.2047 45.7183C17.2047 45.7183 16.9405 45.338 16.9028 45.338C16.7896 45.2113 16.6009 45.1268 16.4499 45C16.2612 44.831 16.1103 44.662 16.0725 44.3662C15.997 43.8592 16.299 43.3099 16.0725 42.8028C15.9593 42.5916 15.7706 42.4225 15.6196 42.2113C15.3932 41.831 15.3555 41.8732 15.2045 41.4507C15.0536 41.0282 14.8649 40.2676 14.9403 39.8028C15.0158 39.4648 15.0913 39.2113 14.9403 38.9155C14.7894 38.6197 14.6384 38.3239 14.4875 38.0704C14.1478 37.3944 13.9591 36.6761 13.6572 35.9577C13.4685 35.5775 13.544 35.0704 13.393 34.6479C13.2798 34.3521 13.2421 33.6761 13.0534 33.4648C13.0156 33.4225 12.9402 33.338 12.8647 33.338C12.8647 33.338 12.8269 33.338 12.7892 33.338C12.676 33.4648 12.676 33.7606 12.676 33.9296C12.676 34.3521 12.676 34.7746 12.5628 35.1972C12.3363 35.9155 12.0344 36.6761 11.808 37.3944C11.5815 38.0704 11.2796 38.7887 11.2419 39.4648C11.1664 40.2676 11.2796 41.0704 11.2419 41.8732C11.2419 42.2535 11.2041 42.6761 11.1287 43.0563C11.0532 43.4789 10.8268 43.9014 10.6758 44.3239C10.4116 45.1268 10.6003 46.0563 10.4871 46.9014C10.3739 47.7042 10.1474 48.3803 9.73231 49.0563C9.58136 49.2676 9.43038 49.3099 9.24168 49.3099C9.05299 49.3099 8.86429 49.2676 8.71333 49.2676C8.60012 49.2676 8.52466 49.2676 8.41144 49.3099C7.99631 49.5211 8.41142 49.6479 8.2982 50.0704C8.22272 50.3662 8.03405 51.0845 7.99631 51.5916C7.99631 52.0986 8.2982 54.7606 8.03402 55.0986C7.84533 55.3521 7.69439 55.4789 7.46796 55.4789C7.39248 55.4789 7.31698 55.4789 7.2415 55.4789C7.01507 55.4366 6.71315 55.2676 6.44898 55.2676C6.3735 55.2676 6.33576 55.2676 6.29802 55.2676C6.07158 55.3521 6.29801 55.5634 6.14706 55.6901C5.95836 55.8169 5.50549 55.8592 5.09036 55.8592C4.86392 55.8592 4.67523 55.8592 4.56201 55.8592C4.0714 55.8592 3.88271 55.8592 3.24114 55.7324C2.86375 55.6901 3.05244 55.3099 3.09018 54.8028C3.09018 54.7183 3.09018 54.6761 3.09018 54.6761C3.09018 54.6761 3.12793 54.7606 3.16567 54.7606C3.16567 54.7606 3.2034 54.7606 3.24114 54.6338C3.31662 54.2958 3.65627 54.169 3.92045 54.0845C4.33558 54 4.71297 53.2394 4.97715 52.7746C5.1281 52.5211 5.35453 52.2254 5.46775 51.9296C5.24131 52.0563 5.16584 52.5211 4.82618 52.5211C4.82618 52.5211 4.75071 52.5211 4.71297 52.5211H4.63751V52.4366C4.63751 52.4366 4.63751 52.3521 4.63751 52.3099C4.63751 52.0563 4.67523 51.9296 4.97715 51.8451C4.97715 51.9296 4.97715 52.0563 4.97715 52.0563C4.97715 52.0563 4.78844 52.0563 4.78844 52.2676C5.01487 52.2676 5.09036 52.0563 5.24132 51.8873C5.20358 51.8873 5.12812 51.8451 5.05264 51.7606C5.12812 51.7606 5.24133 51.6761 5.27907 51.6761C5.35455 51.6761 5.35455 51.3803 5.43003 51.3803C5.46777 51.3803 5.54325 51.3803 5.58099 51.3803C5.65647 51.169 5.73193 51 5.76967 50.7887C5.80741 50.6197 5.80741 50.4507 5.76967 50.2817C5.69419 49.6901 5.46775 49.0986 5.46775 48.5493C5.65644 48.5493 5.46775 48.4648 5.61871 48.2958C5.8074 48.0845 5.69418 47.7465 5.73192 47.4507C5.73192 47.4507 5.73193 47.4507 5.76967 47.4507C6.03384 47.4507 5.95837 46.9437 5.92063 46.7746C5.84515 46.3944 5.8074 46.0563 5.73192 45.6761C5.69418 45.338 5.54322 45.0423 5.73192 44.7887C5.84514 44.6197 6.07159 44.4507 6.1848 44.2394C6.29802 44.0282 6.3735 43.8592 6.44898 43.6479C6.44898 43.5211 6.44899 43.4789 6.52447 43.3521C6.63769 43.0563 6.75088 42.8028 6.67541 42.4648C6.59993 42.169 6.26028 41.8732 6.44898 41.5775C6.5622 41.4085 6.78864 41.3662 6.90186 41.2394C7.01508 41.1127 6.9396 40.6901 7.01507 40.4789C7.05281 40.2676 7.01507 40.0563 6.97733 39.8451C6.90185 39.507 7.16604 39.338 7.16604 39C7.16604 38.2817 7.16604 37.6056 7.16604 36.8873C7.16604 36.3803 7.27925 36.2958 7.27925 35.9577C7.27925 35.8732 7.27925 35.7887 7.27925 35.7042C7.27925 35.493 7.27925 35.2394 7.27925 35.0282C7.27925 34.9437 7.27925 34.8592 7.27925 34.8169C7.27925 34.2254 7.16603 33.4648 7.43021 32.831C7.43021 32.7465 7.43022 32.7042 7.46796 32.6197C7.54344 32.2817 7.65665 31.9437 7.73213 31.6056C7.73213 31.5211 7.76986 31.4789 7.8076 31.3944C7.88308 31.1831 7.92082 31.0141 7.95856 30.8028C7.95856 30.7183 7.95856 30.6761 7.95856 30.5915C7.95856 30.507 7.92083 30.4648 7.88309 30.4648C7.80761 30.3803 7.65665 30.4225 7.58117 30.2535C7.54343 30.169 7.58117 30.0423 7.58117 29.9577C7.61891 29.662 7.58117 29.493 7.58117 29.1972C7.54343 28.9437 7.69437 27.8451 7.35471 27.7183C7.0528 28.2254 6.71314 28.4789 6.67541 29.1127C6.63767 29.5775 6.86411 30 6.86411 30.4225C6.86411 30.6761 6.82637 31.0563 6.82637 31.3099C6.82637 31.7324 6.78862 31.7324 6.67541 32.0704C6.41123 31.8169 6.52446 31.5634 6.44898 31.2254C6.44898 31.0986 6.33576 30.5915 6.1848 30.507C6.1848 30.507 6.1848 30.507 6.14706 30.507C5.88288 30.507 5.88288 31.6479 5.88288 31.8169C5.88288 31.9859 6.29802 32.1972 6.44898 32.3662C6.52446 32.4507 6.33575 32.5775 6.41123 32.6197C6.41123 32.6197 6.48673 32.6197 6.52447 32.662C6.59995 32.662 6.63767 32.662 6.71315 32.662C6.75089 32.662 6.78863 32.662 6.82637 32.7042C6.82637 32.9155 6.82636 33.169 6.67541 33.169C6.63767 33.169 6.5622 33.169 6.48673 33.1268C6.44899 33.1268 6.41124 33.1268 6.33576 33.0845C6.18481 33.0423 6.07158 32.9577 6.03384 32.9155C5.80741 32.7465 5.39229 32.7042 5.27907 32.4085C5.05263 31.9437 4.90168 31.3944 4.90168 30.8873C4.90168 30.3803 5.24132 29.7465 5.09036 29.3239C5.09036 29.3239 5.09036 29.3239 5.09036 29.4085C4.97714 29.2394 4.97716 28.7324 4.90168 28.5211C4.86394 28.3521 4.71296 28.5211 4.67522 28.3521C4.63748 27.9718 4.41106 27.7606 4.4488 27.3803C4.52428 26.2817 4.63748 24.7606 4.67522 23.6197C4.67522 22.9437 4.78845 22.2676 4.97715 21.6338C5.1281 21.1268 5.24131 20.4507 5.46775 19.8169C5.65644 19.2254 5.58099 18.8873 5.84516 18.2958C5.95838 18.0423 6.03384 17.4507 6.14706 17.1972C6.26027 16.9014 6.26028 16.4789 6.29802 16.1831C6.29802 15.5915 6.63769 15.0845 6.90186 14.5352C6.97734 14.4085 7.20376 14.1127 7.35471 13.8592C7.27924 13.6056 7.24152 13.3521 7.20378 13.0563C7.16604 12.6761 7.12829 12.338 7.12829 12C7.24151 11.3239 7.24151 10.4789 7.69438 10.1831C7.9963 10.1831 8.26046 10.1831 8.56237 10.1831C9.46812 10.1831 10.3361 10.3099 11.2041 10.3944C11.2041 10.3944 11.2041 10.3944 11.2041 10.3521C11.1664 10.1831 10.9022 10.0986 10.789 9.97183C10.6758 9.84507 10.6381 9.80282 10.5248 9.71831C10.4494 9.6338 10.2984 9.50704 10.4493 9.38028C10.4116 9.21127 10.3361 9.08451 10.2607 8.95775C10.2229 8.91549 10.072 8.78873 10.072 8.70423C10.072 8.61972 10.1474 8.49296 10.2229 8.4507C10.1474 8.28169 10.1474 8.11268 10.1474 7.94366C9.99649 7.85916 10.1474 7.64789 10.1097 7.52113C10.072 7.35211 9.88327 7.22535 9.84553 7.05634C9.80779 6.84507 9.921 6.59155 9.95874 6.38028C9.95874 6.12676 10.1097 5.95775 10.1474 5.70423C10.1474 5.53521 10.1474 5.40845 10.2607 5.23944C10.3361 5.11268 10.5248 5.07042 10.6003 4.98592C10.7135 4.85915 10.6758 4.60563 10.7513 4.47887C10.8645 4.30986 11.0154 4.35211 11.2041 4.30986C11.4306 4.1831 11.6193 3.80282 11.8457 3.6338M19.3936 30.1268C19.3936 30.1268 19.4691 30.1268 19.4691 30.0845C19.4691 29.9577 19.8087 29.1127 19.8087 29.1127V26.662C19.8087 26.662 19.4691 25.0986 19.5068 24.9718C19.5068 24.8873 19.3936 24.2535 19.2426 23.662C19.2049 23.7465 19.0917 23.831 18.8652 23.9577C18.8652 23.9577 18.8652 23.9577 18.8275 23.9577L19.1672 25.7746L18.9784 26.6197C18.903 26.8732 18.8275 27.2958 18.7143 27.6761L18.4501 28.8592L18.4123 29.1127V29.3239C18.601 29.6197 18.752 29.831 18.8275 29.8732C19.0162 29.9577 19.2804 30.0845 19.3936 30.0845M5.50549 51.8451C5.50549 51.8451 5.6187 51.6761 5.73192 51.6338C5.73192 51.6338 5.69419 51.6338 5.65646 51.6338C5.58098 51.6338 5.54323 51.7606 5.50549 51.8451ZM11.8457 0C11.1664 0 10.4871 0.253521 9.92099 0.71831C9.77003 0.84507 9.61908 0.971831 9.50586 1.09859C8.90203 1.39437 8.44916 1.85916 8.18499 2.28169C8.07177 2.4507 7.95857 2.61972 7.88309 2.78873C7.84535 2.83099 7.80759 2.87324 7.76985 2.91549C7.20376 3.67606 7.01509 4.43662 6.93961 4.98592C6.90187 5.15493 6.82639 5.3662 6.78865 5.61972C6.71317 5.87324 6.59994 6.33803 6.59994 6.84507C6.44898 6.88732 6.33576 6.97183 6.1848 7.05634C4.37331 8.15493 4.10914 10.2676 4.03366 11.1972V11.4507C3.95818 11.662 3.9582 11.9155 3.9582 12.1268C3.9582 12.4225 3.95817 12.7183 3.99591 13.0563C3.694 13.6901 3.20341 14.662 3.16567 16.0141V16.1831C3.16567 16.1831 3.05245 16.5634 3.01471 16.7746V16.8592C2.67506 17.5775 2.59957 18.169 2.56183 18.507C2.41087 19.0563 2.25991 19.6056 2.14669 20.1549L2.03348 20.5775C1.80704 21.4648 1.65608 22.3944 1.61835 23.4507C1.61835 24.5493 1.4674 25.9859 1.39192 27.0423C1.31644 28.0563 1.5806 28.8169 1.73156 29.1972C1.80704 29.4507 1.88252 29.7042 1.99573 29.9577C1.95799 30.2535 1.92027 30.5493 1.92027 30.8451C1.92027 32.1972 2.37312 33.3803 2.6373 33.9718C3.09017 34.9437 3.76948 35.493 4.26009 35.7887C4.22235 36.1268 4.18462 36.4648 4.18462 36.9296C4.18462 37.3944 4.18462 37.8592 4.18462 38.3662C4.0714 38.7042 3.99591 39.0845 3.99591 39.5916C3.694 40.1408 3.27888 41.1127 3.50531 42.3803C3.46757 42.4225 3.42984 42.507 3.3921 42.5493C2.67505 43.6479 2.52409 44.9155 2.826 46.2676V46.4366C2.826 46.5634 2.78828 46.6479 2.75054 46.7746C2.75054 46.8592 2.75054 46.9437 2.75054 47.0282C2.56184 47.4507 2.48636 47.9155 2.44862 48.4225C2.44862 48.8028 2.4486 49.1408 2.52408 49.4366C2.03347 49.9859 1.73156 50.7042 1.61835 51.4648C1.50513 51.5493 1.3919 51.6761 1.31642 51.8028C0.637115 52.3944 0.146496 53.3239 0.0710177 54.507C-0.00446097 54.9718 -0.193144 56.3662 0.674861 57.6761C1.20321 58.5211 2.03348 59.0704 2.97696 59.1972C3.65627 59.3239 3.95818 59.3239 4.41105 59.3662H4.59976C4.78845 59.3662 5.05264 59.3662 5.31681 59.3662C5.99612 59.3662 6.78863 59.3239 7.50568 58.9859C7.58115 58.9859 7.61891 58.9859 7.69438 58.9859C8.56239 58.9859 9.80779 58.6901 10.8268 57.2113C11.7325 55.8592 11.6193 54.338 11.4683 52.2254C11.8457 51.9718 12.1854 51.6338 12.4873 51.2113C13.4308 49.8169 13.7327 48.4225 13.8836 47.4507C13.8836 47.3662 13.8836 47.3239 13.8836 47.2394C13.8836 47.3662 13.9214 47.5352 13.9591 47.662C14.1855 48.4648 14.5629 49.0563 14.7894 49.4366C14.9026 49.7746 14.9781 49.9859 15.0535 50.1972C15.1668 50.5352 15.3177 50.7887 15.4687 51C15.4687 51.169 15.5442 51.338 15.5442 51.507C15.5819 51.8028 15.6574 52.0986 15.6951 52.4789C15.6951 52.7747 15.7329 53.1549 15.7329 53.493C15.7329 54.0423 15.7706 54.5493 15.8084 55.0986C15.6951 56.0282 15.8838 56.9577 16.3367 57.8451C16.7518 58.6479 17.6576 59.662 19.3181 59.7887C19.6955 59.8732 20.0729 59.9577 20.4503 59.9577C20.6767 59.9577 20.9032 59.9578 21.1296 59.9155C21.3938 59.9578 21.5825 60 21.7711 60C23.5826 60 25.0545 58.4789 25.2054 56.4085C25.3187 54.8873 24.9413 53.5352 24.111 52.4366C24.111 52.4366 24.111 52.4366 24.111 52.3944C24.111 52.1408 24.111 51.8873 24.111 51.6338C24.111 51.4225 24.111 51.2113 24.111 51C24.1865 50.662 24.2997 50.1972 24.2997 49.6901C24.2997 49.3521 24.262 49.0141 24.1865 48.6761C24.262 48.0845 24.2242 47.493 24.0733 46.9437C24.1487 46.5634 24.1487 46.1831 24.1487 45.8451C24.262 43.9437 24.4129 40.6479 22.4127 37.8169C22.2618 37.0563 22.2995 35.9577 22.3372 35.3662C22.3372 35.1127 22.3372 34.9014 22.3372 34.6479C22.2995 34.3099 22.2618 34.0141 22.1863 33.6761C22.1485 33.4225 22.0731 33.169 21.9976 32.9577V32.7042C22.3373 32.1549 22.6014 31.5634 22.8279 31.1408C22.9411 30.8451 23.3185 30.0845 23.3185 27.8451C23.3185 27.4648 23.3185 27.169 23.0543 25.8169C24.3374 25.2254 25.2809 24.0423 25.6583 22.4789C25.7715 21.8873 25.8093 21.338 25.7715 20.7887C25.7715 20.6197 25.7715 20.4507 25.7715 20.2817L25.5828 18.8028C25.5828 18.8028 25.5828 18.6761 25.5828 18.5916C25.5828 17.8732 25.4696 17.2394 25.3187 16.7746C25.0545 15 24.828 14.1972 24.3752 13.5211C24.262 13.3521 24.0733 13.0563 21.1673 9.59155C21.0164 9.38028 20.8277 9.21127 20.639 9.08451C19.9597 7.60563 18.9785 6.80282 17.9595 6.46479C17.9595 6.42254 17.9595 6.38028 17.9595 6.33803C17.9595 5.66197 17.884 4.35211 17.016 3.12676C16.8651 2.78873 16.5254 2.11268 15.8461 1.56338C15.3932 1.22535 14.9403 1.05634 14.6384 0.971831C14.412 0.84507 13.9969 0.676056 13.5062 0.591549C12.9779 0.253521 12.4118 0.084507 11.8457 0.084507V0Z" fill="#DCD48B"/>
</svg>
