<svg width="30" height="30" viewBox="0 0 30 30" fill="none" xmlns="http://www.w3.org/2000/svg">
<path fill-rule="evenodd" clip-rule="evenodd" d="M11.1538 5.67857C9.56069 5.67857 8.26921 6.97375 8.26921 8.57143C8.26921 10.1691 9.56069 11.4643 11.1538 11.4643C12.7469 11.4643 14.0384 10.1691 14.0384 8.57143C14.0384 6.97375 12.7469 5.67857 11.1538 5.67857ZM6.34613 8.57143C6.34613 5.90863 8.49861 3.75 11.1538 3.75C13.809 3.75 15.9615 5.90863 15.9615 8.57143C15.9615 11.2342 13.809 13.3929 11.1538 13.3929C8.49861 13.3929 6.34613 11.2342 6.34613 8.57143Z" fill="#510017"/>
<path fill-rule="evenodd" clip-rule="evenodd" d="M2.5 8.57157C2.5 8.03901 2.9305 7.60728 3.46154 7.60728H7.30769C7.83873 7.60728 8.26921 8.03887 8.26921 8.57143C8.26921 9.10399 7.83873 9.53585 7.30769 9.53585H3.46154C2.9305 9.53585 2.5 9.10413 2.5 8.57157Z" fill="#510017"/>
<path fill-rule="evenodd" clip-rule="evenodd" d="M14.0384 8.57143C14.0384 8.03887 14.4689 7.60742 14.9999 7.60742L26.5384 7.60742C27.0694 7.60742 27.4999 8.03914 27.4999 8.5717C27.4999 9.10426 27.0694 9.53599 26.5384 9.53599L14.9999 9.53599C14.4689 9.53599 14.0384 9.10399 14.0384 8.57143Z" fill="#510017"/>
<path fill-rule="evenodd" clip-rule="evenodd" d="M18.8461 18.5356C20.4392 18.5356 21.7307 19.8308 21.7307 21.4285C21.7307 23.0262 20.4392 24.3213 18.8461 24.3213C17.253 24.3213 15.9615 23.0262 15.9615 21.4285C15.9615 19.8308 17.253 18.5356 18.8461 18.5356ZM23.6538 21.4285C23.6538 18.7657 21.5013 16.6071 18.8461 16.6071C16.1909 16.6071 14.0384 18.7657 14.0384 21.4285C14.0384 24.0913 16.1909 26.2499 18.8461 26.2499C21.5013 26.2499 23.6538 24.0913 23.6538 21.4285Z" fill="#510017"/>
<path fill-rule="evenodd" clip-rule="evenodd" d="M27.5 21.4287C27.5 20.8961 27.0695 20.4644 26.5384 20.4644H22.6923C22.1612 20.4644 21.7307 20.8959 21.7307 21.4285C21.7307 21.961 22.1612 22.3929 22.6923 22.3929H26.5384C27.0695 22.3929 27.5 21.9612 27.5 21.4287Z" fill="#510017"/>
<path fill-rule="evenodd" clip-rule="evenodd" d="M15.9615 21.4285C15.9615 20.8959 15.5311 20.4645 15 20.4645L3.46157 20.4645C2.93052 20.4645 2.50003 20.8962 2.50003 21.4288C2.50003 21.9613 2.93052 22.393 3.46157 22.393H15C15.5311 22.393 15.9615 21.961 15.9615 21.4285Z" fill="#510017"/>
</svg>
