<svg width="30" height="30" viewBox="0 0 30 30" fill="none" xmlns="http://www.w3.org/2000/svg">
<path fill-rule="evenodd" clip-rule="evenodd" d="M14.2229 7.35778C12.0863 5.13107 8.48812 5.09925 6.15385 7.37984C6.14646 7.38707 6.13895 7.39417 6.13133 7.40115C3.86664 9.47548 3.83318 12.9471 6.15385 15.2144L6.15995 15.2204L14.9217 23.9336L23.8462 15.2144C23.8535 15.2072 23.8611 15.2001 23.8687 15.1931C26.1334 13.1188 26.1668 9.64715 23.8462 7.37984C21.5244 5.11148 17.9085 5.11148 15.5868 7.37984C15.4034 7.55902 15.1563 7.65745 14.9003 7.6533C14.6443 7.64916 14.4005 7.54279 14.2229 7.35778ZM14.9331 5.39766C11.9933 3.00484 7.65365 3.23251 4.82298 5.98765C1.71003 8.85061 1.74607 13.5973 4.80877 16.5928C4.80982 16.5938 4.81086 16.5948 4.8119 16.5958L14.2387 25.9704C14.6112 26.3409 15.211 26.3435 15.5868 25.9764L25.1774 16.6063C28.291 13.7423 28.2538 8.99364 25.1881 5.99845C22.3405 3.21632 17.9962 3.01605 14.9331 5.39766Z" fill="#510017"/>
</svg>
