<svg width="178" height="60" viewBox="0 0 178 60" fill="none" xmlns="http://www.w3.org/2000/svg">
<path d="M122.629 46.1031C122.193 45.9032 121.488 45.8033 120.615 45.8033C119.574 45.8033 118.836 45.9033 118.433 46.1364C117.896 46.4361 117.627 46.9356 117.627 47.7348C117.627 48.4341 117.761 48.967 118.03 49.3333C118.231 49.5997 118.601 49.8328 119.104 50.0992C119.541 50.299 119.943 50.4988 120.38 50.6986C120.816 50.9317 121.051 51.2314 121.119 51.5311C121.152 51.6643 121.186 51.8975 121.186 52.1972C121.186 52.5635 120.984 52.73 120.615 52.73C120.178 52.73 119.977 52.5635 119.977 52.1972V51.0316H117.661V52.2305C117.661 52.9298 117.929 53.396 118.466 53.6624C118.903 53.8622 119.574 53.9954 120.514 53.9954C121.622 53.9954 122.361 53.8622 122.797 53.5958C123.301 53.2961 123.569 52.73 123.569 51.8975C123.569 51.0649 123.435 50.4988 123.2 50.1991C122.965 49.8994 122.461 49.5997 121.689 49.2667C120.917 48.9337 120.447 48.6673 120.279 48.4674C120.111 48.2676 120.011 48.0012 120.011 47.6016C120.011 47.2353 120.212 47.0688 120.615 47.0688C121.018 47.0688 121.253 47.2686 121.253 47.6349V48.534H123.603V47.5017C123.603 46.8357 123.301 46.3695 122.73 46.1031H122.629Z" fill="#949447"/>
<path d="M105.265 50.4818C105.131 50.0821 104.896 49.7824 104.527 49.6492C104.325 49.5826 104.09 49.516 103.788 49.4827C104.325 49.3162 104.728 49.1164 104.93 48.85C105.131 48.6169 105.232 48.2839 105.232 47.7844C105.232 47.3515 105.198 47.0185 105.131 46.7853C104.963 46.3191 104.493 46.0194 103.755 45.9195C103.385 45.8862 102.915 45.8529 102.311 45.8529H99.4238V53.6787H102.177C103.453 53.6787 104.292 53.5788 104.661 53.3457C105.131 53.0792 105.366 52.4465 105.366 51.4808C105.366 51.0146 105.366 50.6483 105.265 50.4152V50.4818ZM102.815 52.3133C102.68 52.5131 102.412 52.613 101.975 52.613H101.74V49.9822H101.975C102.412 49.9822 102.714 50.1488 102.848 50.4485C102.915 50.615 102.949 50.9147 102.949 51.3476C102.949 51.8138 102.882 52.1468 102.781 52.3466L102.815 52.3133ZM102.815 48.7168C102.815 48.7168 102.445 48.9166 102.042 48.9166H101.74V46.9851H101.975C102.412 46.9851 102.68 47.0518 102.815 47.185C102.915 47.2849 102.949 47.518 102.949 47.8843C102.949 48.2839 102.882 48.5503 102.781 48.6835L102.815 48.7168Z" fill="#949447"/>
<path d="M129.522 49.57C129.522 48.8041 129.488 48.3046 129.421 48.1048C129.253 47.572 128.816 47.2722 128.111 47.2056C127.809 47.1723 127.406 47.139 126.97 47.139C126.567 47.139 126.231 47.139 125.929 47.2056C125.023 47.3388 124.553 47.905 124.553 48.9373V52.0676C124.553 52.7669 124.721 53.2664 125.09 53.5328C125.426 53.7993 126.064 53.8992 126.97 53.8992C127.876 53.8992 128.548 53.766 128.884 53.5328C129.286 53.2664 129.488 52.7669 129.488 52.0676V51.3017H127.507V52.4006C127.507 52.4006 127.474 52.667 127.406 52.7336C127.339 52.8002 127.205 52.8335 127.004 52.8335C126.802 52.8335 126.668 52.8002 126.601 52.7336C126.534 52.667 126.5 52.5338 126.5 52.4006V48.6376C126.5 48.6376 126.534 48.3712 126.601 48.3046C126.668 48.238 126.802 48.2047 127.004 48.2047C127.205 48.2047 127.339 48.238 127.406 48.3046C127.474 48.3712 127.507 48.5044 127.507 48.6376V49.57H129.488H129.522Z" fill="#949447"/>
<path d="M110.783 47.4558C110.414 47.2227 109.776 47.0895 108.836 47.0895C107.896 47.0895 107.258 47.2227 106.922 47.4558C106.553 47.7222 106.352 48.2217 106.352 48.9543V52.018C106.352 52.7507 106.519 53.2502 106.922 53.5166C107.258 53.7497 107.929 53.8829 108.836 53.8829C109.776 53.8829 110.414 53.7497 110.783 53.5166C111.152 53.2502 111.354 52.7507 111.354 52.018V48.9543C111.354 48.2217 111.186 47.7222 110.783 47.4558ZM109.373 52.3511C109.373 52.6508 109.205 52.8173 108.836 52.8173C108.5 52.8173 108.332 52.6508 108.332 52.3511V48.588C108.332 48.2883 108.5 48.1218 108.87 48.1218C109.205 48.1218 109.407 48.2883 109.407 48.588V52.3511H109.373Z" fill="#949447"/>
<path d="M114.443 49.8525L113.705 47.1884H111.791L112.899 49.9856C112.899 50.0523 113.033 50.2854 113.201 50.685C113.302 50.9181 113.402 51.1512 113.436 51.3843C113.436 51.5175 113.47 51.6507 113.436 51.7839C113.436 52.017 113.403 52.1502 113.403 52.1835V53.8153H115.383V52.1835C115.383 52.1835 115.383 52.017 115.383 51.7839C115.383 51.6507 115.383 51.4842 115.383 51.3843C115.618 50.7183 115.82 50.2854 115.954 49.9856L117.062 47.1884H115.115L114.376 49.8525H114.443Z" fill="#949447"/>
<path d="M141.867 48.2368H143.244V53.8647H145.191L145.224 48.2368H146.601V47.2378H141.867V48.2368Z" fill="#949447"/>
<path d="M139.314 52.2663C139.314 52.6659 139.146 52.8657 138.777 52.8657C138.441 52.8657 138.273 52.6992 138.273 52.3329V47.2378H136.326V51.9666C136.326 52.6659 136.494 53.1654 136.897 53.4651C137.3 53.7648 137.938 53.9313 138.811 53.9313C139.717 53.9313 140.355 53.7648 140.758 53.4318C141.127 53.1321 141.295 52.5993 141.295 51.8666V47.2711H139.348V52.2996L139.314 52.2663Z" fill="#949447"/>
<path d="M134.822 47.5054C134.453 47.2722 133.815 47.139 132.875 47.139C131.935 47.139 131.297 47.2722 130.961 47.5054C130.592 47.7718 130.391 48.2713 130.391 49.0039V52.0676C130.391 52.8002 130.558 53.2997 130.961 53.5662C131.297 53.7993 131.969 53.9325 132.875 53.9325C133.815 53.9325 134.453 53.7993 134.822 53.5662C135.192 53.2997 135.393 52.8002 135.393 52.0676V49.0039C135.393 48.2713 135.225 47.7718 134.822 47.5054ZM133.412 52.4006C133.412 52.7003 133.244 52.8668 132.875 52.8668C132.539 52.8668 132.371 52.7003 132.371 52.4006V48.6376C132.371 48.3379 132.539 48.1714 132.909 48.1714C133.244 48.1714 133.446 48.3379 133.446 48.6376V52.4006H133.412Z" fill="#949447"/>
<path d="M166.39 23.6913H161.018C158.097 23.6913 155.915 23.991 154.371 24.6237C151.92 25.6228 150.678 27.421 150.678 30.0185V51.6975C150.678 53.0629 151.483 53.8288 152.86 53.8288H153.968C155.344 53.8288 156.117 53.0296 156.117 51.6642V43.9717H167.431C173.944 43.9717 177.267 41.7405 177.267 37.3781V29.9186C177.267 25.756 173.574 23.658 166.39 23.6913ZM171.795 37.478C171.795 38.6768 170.351 39.3095 167.464 39.3095H156.15V30.1184C156.15 28.6199 159.339 28.4201 161.253 28.4201H166.457C168.102 28.4201 169.243 28.4867 169.881 28.5866C171.795 28.9529 171.795 29.7521 171.795 30.0185V37.5113V37.478Z" fill="#949447"/>
<path d="M99.5138 42.0848C99.5138 43.4501 100.32 44.2494 101.696 44.2494H102.972C104.348 44.2494 105.154 43.4501 105.154 42.0848V17.8083C105.12 16.4429 104.315 15.677 102.938 15.677H101.662C100.286 15.677 99.4803 16.4762 99.4803 17.8416V29.1307H81.7539V17.8416C81.7539 16.4762 80.9481 15.7103 79.5716 15.7103H78.2287C76.8522 15.7103 76.0801 16.5095 76.0801 17.8749V42.1514C76.1137 43.5167 76.9194 44.316 78.2623 44.316H79.6052C80.9817 44.316 81.7874 43.5167 81.7874 42.1514V33.9926H99.5138V42.1514V42.0848Z" fill="#949447"/>
<path d="M132.355 24.8726C130.71 24.1067 128.763 23.7404 126.514 23.7404H119.967C117.315 23.7404 114.998 24.1733 113.152 24.9725C110.466 26.138 109.123 27.9696 109.123 30.4672V37.5603C109.123 40.1245 110.5 42.0227 113.219 43.1216C115.032 43.8542 117.348 44.2205 120.168 44.2205H127.319C128.696 44.2205 129.468 43.4213 129.468 42.056V41.6897C129.468 40.3243 128.662 39.5251 127.286 39.5251H119.698C115.804 39.5251 114.898 38.0598 114.73 36.6945H133.967C134.638 36.6945 135.746 36.3615 135.746 34.3301V29.7012C135.746 27.57 134.605 25.9715 132.322 24.9059L132.355 24.8726ZM130.442 31.7992H114.629V30.1675C114.629 29.0685 116.71 28.4691 120.504 28.4691H125.238C126.245 28.4691 127.286 28.6023 128.427 28.8687C129.703 29.1684 130.442 29.6013 130.442 30.001V31.7992Z" fill="#949447"/>
<path d="M143.231 15.5751L144.339 15.5736C145.547 15.5719 146.489 16.5364 146.49 17.7019L146.524 42.0117C146.526 43.2105 145.554 44.1443 144.379 44.146L143.271 44.1475C142.062 44.1492 141.121 43.1847 141.119 42.0192L141.085 17.7427C141.083 16.5439 142.056 15.6101 143.231 15.6085L143.231 15.5751Z" fill="#949447"/>
<path d="M80.3152 51.7031C77.7972 51.7364 73.1977 50.3044 70.7469 43.8773C70.2098 45.5757 73.6342 50.3044 68.3633 54.3672C69.404 53.5679 73.9699 51.6032 74.8764 53.8343C74.3392 54.0342 72.5934 56.7316 77.3608 56.7316C79.1737 56.7316 80.5837 56.4984 82.7995 55.1664C85.0153 53.8343 82.8667 51.6698 80.3487 51.7031H80.3152Z" fill="#949447"/>
<path d="M20.6756 16.467C16.6804 15.3015 17.889 5.84394 20.877 5.84394C16.7476 2.91344 13.9275 16.9665 20.6756 16.467Z" fill="#949447"/>
<path d="M23.7985 8.63737C23.7314 7.93805 23.4628 7.40522 23.1271 7.33862C22.7578 6.97231 22.2878 6.7725 21.8177 6.83911C20.8777 6.97231 20.2398 8.10455 20.4077 9.36999C20.5756 10.6354 21.482 11.5679 22.4556 11.468C23.4292 11.3681 24.0335 10.2025 23.8657 8.93708C23.8657 8.83718 23.8321 8.77057 23.7985 8.67067V8.63737Z" fill="#949447"/>
<path d="M23.1673 13.715C22.9658 13.7816 22.8987 14.1146 22.9994 14.4477C23.1337 14.7807 23.3687 14.9805 23.5701 14.9139C23.7716 14.8473 23.8387 14.5143 23.738 14.1813C23.6373 13.8482 23.3687 13.6484 23.1673 13.715Z" fill="#949447"/>
<path d="M39.2219 15.314C39.5576 15.314 39.8598 15.0143 39.8598 14.6813C39.8598 14.3483 39.5912 14.0486 39.2219 14.0486C38.8526 14.0486 38.584 14.315 38.584 14.6813C38.584 15.0476 38.8861 15.314 39.2219 15.314Z" fill="#949447"/>
<path d="M42.9673 10.2327C42.9673 8.76744 41.7587 7.5686 40.2815 7.5686C38.8043 7.5686 37.5957 8.76744 37.5957 10.2327C37.5957 11.6979 38.8043 12.8968 40.2815 12.8968C41.7587 12.8968 42.9673 11.6979 42.9673 10.2327Z" fill="#949447"/>
<path d="M67.322 56.7689C65.8113 56.2027 66.5834 54.6376 67.5235 53.5054C70.4779 51.2742 70.075 47.8109 69.4707 44.614C68.5642 39.752 67.1877 32.892 64.3676 29.6285C62.7561 27.7303 59.9024 27.3307 57.8881 28.8625C55.8401 30.4277 56.1423 38.4865 47.2791 40.6844C53.5908 37.0546 55.2694 29.7284 55.6051 27.1309C55.3366 26.9644 55.1687 26.7313 55.068 26.4648C49.9314 32.1593 40.9675 38.2867 30.2578 37.5208C19.3131 36.8215 16.0565 32.0261 16.8287 36.0556C20.0181 55.5034 51.2071 51.5406 56.7802 44.7472C59.1639 41.85 59.9025 40.1849 59.2646 37.5874C62.1183 39.8852 60.1375 44.3142 57.4516 47.1448C60.2046 45.7795 62.0847 46.0126 63.9983 47.4778C56.3773 49.1429 51.8786 53.8717 51.8786 53.8717C51.8786 53.8717 48.4877 53.9383 47.2455 54.8041C44.0226 57.6347 51.4421 58.2674 53.3894 56.7023C54.2287 56.1028 52.6172 55.237 52.6172 55.237C52.6172 55.237 57.5859 51.141 61.6482 52.7061C62.8569 53.472 65.5427 55.1038 63.3269 56.4691C58.996 59.1665 63.4612 60.0324 65.2741 59.9991C69.0007 59.9325 70.1757 57.7346 67.3892 56.7356L67.322 56.7689Z" fill="#949447"/>
<path d="M41.0625 18.4324C33.8779 20.8633 31.7964 10.5067 35.1537 6.77698C26.3241 11.206 29.8156 24.1602 41.0625 18.4324Z" fill="#949447"/>
<path d="M11.984 21.9402C12.2862 21.4407 12.6555 20.9412 13.1591 20.4416C11.4804 25.2037 16.0463 29.4329 26.8567 29.8325C39.0772 30.1989 42.5688 28.1009 45.691 25.8031C47.8061 24.238 50.3912 21.1743 50.8948 20.5082C51.5998 19.6091 53.2785 21.2742 52.7749 23.6385C52.4056 22.9059 52.0027 22.3398 51.4991 22.0734C51.0627 23.0391 48.7461 24.9373 48.1754 25.5367C40.1851 33.3958 24.1373 31.6974 18.4971 29.9658C19.4707 34.6279 28.804 36.8258 39.7822 34.0618C50.0219 31.4976 57.4415 21.7071 56.0314 18.5102C54.8564 14.6139 50.0219 16.0792 49.1154 11.2172C51.5998 15.3133 56.7364 13.6815 57.475 18.6434C59.053 13.3152 54.4871 11.3504 53.4463 10.751C47.1011 9.78529 48.444 3.49138 43.8445 0.927195C43.4752 0.760689 43.1395 0.660783 42.8038 0.527579C42.8038 2.29254 41.763 3.12506 41.0916 3.72448C40.823 3.95759 40.4201 4.224 39.9501 4.42381C39.9501 4.42381 39.9501 4.42381 39.9837 4.42381C41.2258 4.45711 42.8373 3.99089 43.6767 2.69215C43.4752 3.85769 42.5688 4.62361 42.0987 4.92332C42.0987 4.92332 42.0652 4.92332 42.0316 4.92332C42.6359 5.08983 43.8445 5.35624 45.0531 5.18973C44.2474 5.82245 43.1731 6.02226 42.1323 5.75585C44.2474 7.3543 46.8996 10.5512 47.2018 12.6492C47.4704 18.044 41.293 21.8403 34.612 21.2742C30.2476 20.8746 29.0725 17.2114 28.804 15.4798C28.5689 12.9489 29.0725 9.98509 31.6576 7.1212C33.1684 5.45614 34.9142 4.55701 36.7943 4.3239C36.7943 4.3239 37.0293 4.2906 37.1635 4.2906C37.3314 4.2906 37.4993 4.2573 37.6671 4.224C39.6144 3.92429 41.8973 2.69215 42.7702 0.494277C35.4178 -1.8368 29.1061 4.69021 28.3675 7.321C28.3675 5.12313 27.8975 3.62458 26.991 2.69215C25.581 1.1936 24.5738 1.0604 22.8616 1.42671C21.8208 1.62652 20.9815 2.55894 20.3436 3.49138C24.8759 4.79012 25.9838 11.9832 25.2452 16.0126C25.3124 18.8432 20.4779 16.7785 16.5499 19.6757C18.2285 17.5111 18.9336 16.7452 18.9336 16.7452C18.9336 16.7452 17.9264 17.4112 16.4156 15.3133C11.4469 18.044 11.5812 19.7423 11.7154 21.2409C11.8497 21.4407 11.9169 21.6738 11.9169 21.9069L11.984 21.9402ZM24.8424 25.3702C25.7824 24.3379 28.2332 25.1038 28.2332 25.1038C27.1925 24.7708 25.9167 26.8022 25.346 26.7022C24.8088 26.6023 23.9023 26.4025 24.8424 25.3702ZM22.9959 24.904C23.5666 26.0362 22.828 26.1361 22.3916 26.1694C21.9551 26.1694 21.2501 24.0382 20.4108 24.238C20.4108 24.238 22.4251 23.7718 22.9959 24.904Z" fill="#949447"/>
<path d="M27.6042 49.8247C26.5634 49.6249 22.5683 47.8933 21.8297 47.0275C21.6283 46.7943 21.4268 46.5945 21.2589 46.3947C20.8561 45.9951 20.4196 45.5955 19.8153 45.1293C16.4245 42.9647 14.6116 35.3721 14.9473 33.3407C8.60205 38.1028 10.1128 41.7659 8.63561 45.7953C8.50132 46.1949 8.29988 46.4946 8.13202 46.8609C6.21837 48.193 3.33112 48.0931 2.39109 48.2596C0.981035 48.526 0.10815 50.2244 1.5182 50.8904C2.76039 51.4898 3.53256 51.5231 4.40545 51.3899C2.4918 52.8218 0.645312 53.5212 0.0745762 54.5868C-0.932605 56.5183 8.63561 57.1843 6.28552 53.5878C9.67637 51.8894 11.355 51.3233 12.5972 51.5564C13.873 51.7895 16.2902 53.8542 15.3837 55.2195C11.4893 58.5496 25.7577 57.6838 19.7818 54.6534C18.7746 54.1539 17.9353 51.5231 19.446 50.4575C20.2518 49.9579 22.8369 49.8913 23.4747 50.8904C23.1054 50.9903 21.964 52.7885 24.952 53.388C26.0934 53.6211 27.0335 53.6211 28.6449 52.8551C30.2564 52.0892 29.2493 50.1245 27.6378 49.8581L27.6042 49.8247ZM7.22555 48.3928C6.9234 48.8257 6.65482 49.2253 6.35267 49.5916C6.25195 49.3585 6.08409 49.192 5.98337 49.192C6.25195 48.7924 6.72196 48.526 7.22555 48.3928Z" fill="#949447"/>
</svg>
