<?xml version="1.0" encoding="UTF-8"?>
<svg id="_Слой_2" data-name="Слой 2" xmlns="http://www.w3.org/2000/svg" viewBox="0 0 528.67 183.43">
  <defs>
    <style>
      .cls-1 {
        fill: #808285;
      }

      .cls-1, .cls-2 {
        stroke-width: 0px;
      }

      .cls-2 {
        fill: #862c91;
      }
    </style>
  </defs>
  <g id="Layer_1" data-name="Layer 1">
    <g>
      <g>
        <path class="cls-1" d="m365.86,129.08c-1.34-.62-3.36-.93-6.05-.93-3.08,0-5.26.34-6.56,1.03-1.61.85-2.41,2.45-2.42,4.77,0,2.14.39,3.74,1.19,4.78.59.78,1.66,1.54,3.21,2.27,1.27.6,2.52,1.19,3.76,1.79,1.26.74,2.01,1.58,2.24,2.52.1.43.15,1.08.15,1.96,0,1.08-.57,1.62-1.71,1.62-1.29,0-1.94-.55-1.94-1.63v-3.52s-6.93-.02-6.93-.02v3.64c-.01,2.06.8,3.5,2.43,4.33,1.29.63,3.32.96,6.09.96,3.26,0,5.53-.39,6.83-1.18,1.5-.92,2.26-2.62,2.26-5.11,0-2.49-.37-4.2-1.11-5.12-.7-.86-2.2-1.79-4.49-2.78-2.3-1-3.71-1.78-4.24-2.35-.53-.57-.79-1.44-.79-2.6,0-1.06.6-1.59,1.79-1.59,1.24,0,1.86.58,1.86,1.72v2.7s7.01.02,7.01.02v-3.09c.01-1.98-.85-3.37-2.58-4.17Z"/>
        <path class="cls-1" d="m314,142.32c-.36-1.23-1.08-2.05-2.17-2.49-.57-.23-1.29-.4-2.17-.52v-.06c1.63-.44,2.76-1.04,3.38-1.8.59-.69.89-1.74.9-3.15,0-1.33-.11-2.34-.34-3.03-.49-1.45-1.87-2.31-4.14-2.58-1.06-.13-2.48-.19-4.26-.19l-8.61-.02-.05,23.59,8.18.02c3.85,0,6.34-.32,7.45-.99,1.42-.81,2.14-2.67,2.15-5.57,0-1.41-.1-2.47-.3-3.19Zm-7.35,5.47c-.37.63-1.2.95-2.51.94h-.67s.02-7.94.02-7.94h.74c1.31,0,2.17.46,2.58,1.35.23.49.35,1.38.35,2.67,0,1.41-.17,2.4-.51,2.97Zm.04-10.84c-.33.43-1.09.64-2.29.64h-.9s.01-5.82.01-5.82h.74c1.31,0,2.14.21,2.51.62.29.33.43,1.03.43,2.11,0,1.2-.17,2.02-.5,2.45Z"/>
        <path class="cls-1" d="m386.13,139.48c0-2.31-.1-3.79-.32-4.44-.54-1.57-1.83-2.48-3.88-2.74-.94-.12-2.06-.19-3.36-.19-1.2,0-2.23.06-3.1.17-2.74.37-4.12,2.12-4.13,5.25l-.02,9.42c0,2.13.54,3.6,1.62,4.39,1.02.76,2.89,1.14,5.62,1.15,2.75,0,4.66-.36,5.75-1.1,1.2-.81,1.8-2.27,1.81-4.41v-2.3s-5.91-.01-5.91-.01v3.28c0,.48-.11.83-.32,1.04-.21.21-.61.32-1.21.32-.6,0-1.01-.11-1.21-.33-.2-.22-.31-.56-.3-1.05l.03-11.3c0-.48.1-.83.31-1.04.21-.21.61-.32,1.21-.32.6,0,1.01.11,1.21.32.2.22.31.56.31,1.05v2.81s5.91.01,5.91.01Z"/>
        <path class="cls-1" d="m330.38,133.11c-1.06-.74-2.99-1.12-5.78-1.12-2.79,0-4.71.36-5.75,1.1-1.13.81-1.7,2.29-1.71,4.46l-.02,9.24c0,2.17.56,3.66,1.69,4.47,1.04.74,2.96,1.12,5.75,1.12,2.79,0,4.72-.36,5.79-1.1,1.13-.81,1.7-2.29,1.71-4.46l.02-9.24c0-2.17-.56-3.66-1.69-4.47Zm-4.25,14.73c0,.91-.52,1.37-1.57,1.36-1.02,0-1.53-.46-1.53-1.37l.02-11.3c0-.91.51-1.37,1.54-1.36,1.05,0,1.57.46,1.56,1.37l-.02,11.3Z"/>
        <path class="cls-1" d="m341.31,140.28l-2.17-8h-5.72s3.28,8.38,3.28,8.38c.07.17.37.86.91,2.07.33.74.57,1.45.75,2.12.09.36.12.77.1,1.21-.07.74-.1,1.14-.1,1.21v4.88s5.9.01,5.9.01v-4.88c.01-.07-.02-.47-.08-1.21-.02-.45.01-.85.1-1.21.7-1.96,1.26-3.35,1.68-4.18l3.35-8.38h-5.78s-2.21,7.98-2.21,7.98Z"/>
        <polygon class="cls-1" points="423.08 135.48 427.2 135.49 427.16 152.34 433.01 152.35 433.05 135.5 437.13 135.51 437.14 132.49 423.09 132.46 423.08 135.48"/>
        <path class="cls-1" d="m415.38,147.57c0,1.22-.53,1.83-1.59,1.83-1.04,0-1.55-.55-1.55-1.63l.03-15.33h-5.85s-.03,14.15-.03,14.15c0,2.08.58,3.6,1.74,4.55,1.16.95,3.06,1.43,5.7,1.43,2.72,0,4.65-.51,5.79-1.54,1.07-.94,1.61-2.52,1.61-4.72l.03-13.86h-5.85s-.03,15.11-.03,15.11Z"/>
        <path class="cls-1" d="m401.98,133.27c-1.06-.74-2.99-1.12-5.78-1.12-2.79,0-4.71.36-5.75,1.1-1.13.81-1.7,2.29-1.71,4.46l-.02,9.24c0,2.17.56,3.66,1.69,4.47,1.04.74,2.96,1.12,5.75,1.12,2.79,0,4.72-.36,5.79-1.1,1.13-.81,1.7-2.29,1.71-4.46l.02-9.24c0-2.17-.56-3.66-1.69-4.47Zm-4.25,14.73c0,.91-.53,1.37-1.57,1.36-1.02,0-1.53-.46-1.53-1.37l.03-11.3c0-.91.51-1.37,1.54-1.36,1.05,0,1.57.46,1.57,1.37l-.02,11.3Z"/>
      </g>
      <g>
        <path class="cls-2" d="m124.51,2.61c-16.41-8.1-31.59,5.24-40.47,5.32-6.27-.83-10.89-2.14-17.15-2.55-10.34-.66-19.22,4.45-21.27,14.01-2,2.99-9.57.25-9.57.25,0,0,3.63,3.94,5.81,4.75.44,4.66-.62,19.64.01,22.36-20.5,16.39-14.47,21.69-10.85,28.12-.43-4.91-2.74-13.26,13.16-23.14,4.77,6.06,11.41,6.68,11.41,6.68,0,0-3.99.39-8.66,7.11,11.23-9.22,22.1-3.89,21.47-12.39,1.57-12.19-2.91-31.71-16.59-34.88-.38-5.81,4.99-8.23,8.07-9.05,5.06-1.32,14.12-.72,18.58,3.49,2.86,2.71-.58,9.82-.23,16.44,1.9-8.38,22.59-32.1,46.32-23.13,14.56,7.2,19.29,28.76,31.08,29.58-11.79-5.5-13.21-24.12-31.13-32.97Zm-58.98,47.62c.39.95.23,1.94-.37,2.19-.6.23-1.4-.35-1.8-1.3-.38-.97-.22-1.94.37-2.18.59-.24,1.41.33,1.8,1.29Zm-.77-16c.14,2.58-.8,4.73-2.09,4.8-1.28.07-2.43-1.97-2.57-4.55-.14-2.56.8-4.7,2.08-4.77,1.29-.07,2.45,1.96,2.58,4.52Zm-6.48-8.92c1.36-.38,2.34,1.69,3.4,2.45-5.19,4.68-3.16,23.69,2.9,26.03-15.42,2.01-12.46-26.2-6.31-28.48Zm-3.5-1.2c-4.99,3.83-6.84,19.52-.72,28.92-14.02-6.72-10.15-35.81.72-28.92Z"/>
        <path class="cls-2" d="m57.02,81.01c2.52-.75,4.91,5.62,6.21,5.46,1.29-.17,3.47-.55,1.59-3.86-1.87-3.29-7.8-1.59-7.8-1.59Z"/>
        <path class="cls-2" d="m90,114c51.62.89,85.53-48.38,84.13-58.85-3.6-13.83-21.47-11.89-26.44-20.81,3.85,8.68,19.07,13.04,22.09,20.31,2.81,5.51-18.17,41.57-48.29,50.76-35.86,10.71-62.89,2.7-66.3-6.39,17.07,4.23,60.46,8.69,88.03-19.94,1.75-1.82,6.16-7.68,7.33-10.62,1.47.64,2.82,2.36,4.01,4.45,1.06-7.15-3.24-10.33-5.16-7.54-1.44,2.09-7.34,11.21-13.39,16.2-8.97,7.4-22.65,14.96-59.04,15.79-32.21.46-48.09-14.52-40.84-27.77-10.47,10.86-2.03,23.51,8.16,26.86,9.01,14.32,32.88,17.33,45.69,17.56Z"/>
        <path class="cls-2" d="m72.15,87.58c1.63.22,5.16-6.06,8.29-5.21,0,0-7.36-1.92-10.02,1.32-2.63,3.22.09,3.68,1.73,3.89Z"/>
        <path class="cls-2" d="m131.48,37.88c-1.23-6.29-6.07-11.06-12.64-15.54,3.16.63,6.35-.14,8.64-2.19-3.54.69-7.17.09-9.01-.31.07-.05.15-.07.21-.11,1.4-.98,3.97-3.4,4.37-6.95-2.19,4.04-6.91,5.74-10.65,5.81-.03,0-.07,0-.11,0,1.4-.68,2.6-1.48,3.33-2.24,1.87-1.95,5.05-4.68,4.54-10.3-2.12,6.95-8.95,11.09-14.77,12.32-.52.05-1.03.16-1.54.24-.37.04-.75.13-1.1.15v.06c-5.56,1.09-10.61,4-14.82,9.23-7.26,9.04-8.28,17.99-7.16,25.55,1.05,5.22,4.5,12.28,17.51,12.75,19.92.63,34.82-12.37,33.19-28.46Zm-20.07,9.65c1.03-.05,1.92.75,1.98,1.78.05,1.04-.75,1.93-1.78,1.99-1.04.05-1.93-.75-1.99-1.79-.05-1.03.75-1.92,1.79-1.98Zm-18.2-17.81c-4.33,15.56-.53,30.44,13.71,32.57-21.45,6.64-31.44-14.66-13.71-32.57Zm5.64,24.61c-4.38-4.77-6.52-15.86-2.69-23.4,2.95-5.85,6.51-7.68,12.61-6.15-9.94,6.75-6.46,28.79,7.37,33.92-5.6,3.41-12.9.4-17.29-4.37Zm16.19-16.62c-2.57.14-4.77-1.83-4.9-4.4-.14-2.6,1.84-4.78,4.41-4.92,2.57-.13,4.77,1.83,4.91,4.43.14,2.57-1.84,4.76-4.42,4.89Z"/>
        <path class="cls-2" d="m44.9,150.55c1.27,1.88,4.68,8.26,4.15,12.22,2.16-3.1-.04-6.6-2.04-11.55-2.52-4.99-7.18-4.77-7.18-4.77,3.26,1.28,3.8,2.24,5.07,4.1Z"/>
        <path class="cls-2" d="m242.91,139.24c-7.21-7.47-20.64.39-27.85-7.69-14.54-11.99-10.5-37.87-25.01-47.03-17.37-6.83-20.42-2.02-24.8-.24-.49,7.67-7.23,30.29-27.3,48.58,28.13-14.48,25.55-40.55,31.45-45.6,5.7-4.89,15.41-4.08,20.51,1.41,14.89,15.48,18.07,56.59,8.44,70.31.19-1.6.04-3.15-1.18-4.74-.36,5.91-3.43,14.34.43,18.32-5.81-.93-11.14,1.46-11.14,1.46,0,0,7.57-2.28,13.66.95,3.23,1.74,1.24,5.33-9.79,6.14-5.36.37-11.32-2.12-6.25-7.97,4.72-6.13-1.35-14.07-5.06-16.14-12.32-4.1-40.01,9.3-40.01,9.3,0,0,4.92,2.35,2.54,4.23-2.37,1.87-24.43-1.77-19.63-6.29,3.56-2.74,14.68-1.89,14.68-1.89,0,0,10.29-3.07,18.51-6.37,15.91-6.41,26.25-19.53,40.9-10.05-3.57-4.67-10.26-7.97-20.63-5.44,6.31-12.78,5.53-28.09-3.33-31.46-1.75,7.76-3.18,10.6-9.81,19.68-15.43,21.22-47.53,18.28-64.95,20.15-5.32-4.34-9.83-3.33-15.41-1.93-33.98-6.33-25.97-30.21-37.58-50.51-45.39,29.98-15.24,45.6-28.78,55.94-1.61-1.44-12.98-3.85-15.1,2.09-2.73,7.7,8.48,7.68,11.9,6.73-3.56,5.49-8.66,2.1-10.68,7.09-2.32,5.92,6.33,11.01,15.05,10.4,13.32-1.43,10.97-8.96,8.4-11.81-3.32-2.69,20.52-5.71,16.64.31-6.53,9.08,4.45,10.83,12.62,10.98,8.17.15,18.43-1.91,18.28-7.18-.12-3.76-4.42-6.37-10.11-7.22-8.3-2.8,10.1-7.06,18.13-4.32,1.9,8.35,23.99,3.26,18.23-5.36,1.8-.05,17.43-.17,28.1-.58,3.11,6.28,15.14,2.13,10.2,5.75-1.25,1.22-13.2-2.05-17.64,4.51-4.18,7.79.47,12.98,7.2,13.96,8.66,1.25,23.71-1.55,17.45-9.12-4.4-5.17,42.25-2.42,36.04,5.73-4.89,4.19.53,9.36,9.74,9.07,9.21-.3,21.6-3.97,12.53-9.62-9.05-6.44,6.7-26.92,7.72-27.84,2.94-2.65,9.72-.8,12.48,1.13-.01.18-.07.33-.06.49.16,3.11,5.04,5.38,10.89,5.07,5.85-.31,9.04-4.33,10.31-6.18,1.26-1.82.74-5.04-.94-7.23ZM7.12,174.15c4.8,1,12.98,1.23,16.73-.66-1.81,4.54-14.55,4.63-16.73.66Zm89.68-18.11c-2.08,4.08-11.2,7.5-13.59,2.04-1.81-3.84-17.07-8.66-23.75-5.54-2.59,1.46-3.52,6.01-2.45,9.28-1.88-2.77-3.08-6.33-3.48-7.7-2.74-9.67,6.33-6.37,8.42-5.94,0,0-14.29-8.51-9.62,7.47,1.44,4.42,3.8,7.27,6.14,8.67.45.42.98.74,1.61.91,9.61,1.64-2.5,6.19-4.88,6.88,3.57,1.46,13.31-1.99,13.86-2.49.31,2.32-3.03,5.12-12.12,5.98-7.48.86-14.97-3.97-11-9.41,2.51-4.22-5.06-12.23-8.87-12.69-3.8-.46-11.45,5.19-15.94,11.53-1.78-.57-5.84-.17-6.44.89,3.06.08,12.1,2.69,8.83,5.56-3.27,2.87-21.01,2.77-18.32-3.2,2.68-5.97,11.97-1.26,20.16-20.12,3.76-12.27-16.19-26.18,18.4-44.62.72,9.49,4.56,15.69,6.09,19.6-1.12,6.59-7.12,9.95,1.75,15.19.93.63,1.89,1.22,2.87,1.8-8.93-3.5-19.97-4.44-24.86,4.18,0,0,9.2-8.3,24.86-4.18,11.81,6.96,27.06,10.48,27.06,10.48,0,0,19.34-1.65,15.25,5.44Zm70.51-11.19c-1.8,2.34-21.42,12.6-25.19,10.78,2.24-4.8,21.11-8.62,25.19-10.78Zm-37.67,8.14c3.55-.02,7.11-2.29,10.67,0-1.74,2.38-7.37,3.27-10.67,0Zm-8.64,14.54c4.19,4.89,18.19,4.87,18.19,4.87-5.07,3.48-17.24,1.93-18.19-4.87Zm86.38-26.77c7.38-1.17,15.34-.73,19.57,3.22-4.89-2.72-16.09-3.47-19.57-3.22Zm17.3,5.18c5.44,3.15,13.63,1.14,16.33-4.09,1.7,4.99-9.75,10.78-16.33,4.09Z"/>
        <path class="cls-2" d="m34.76,145.88c-3.65.98-6.62,5.2-8.53,9.68,1.06-1.99,5.33-7.91,8.53-9.68Z"/>
        <path class="cls-2" d="m188.69,157.56c0-5.34-4.18-6.59-4.18-6.59,2.54,2.42,2.68,3.52,3.16,5.72.45,2.22-.29,9.96-.78,12.87,1.11-1.98,1.8-6.65,1.79-12.01Z"/>
        <path class="cls-2" d="m182.92,150.77c-5.49-1.85-12.92,1.05-19.14,5.17,3.05-1.67,13.55-5.63,19.14-5.17Z"/>
      </g>
      <g>
        <path class="cls-2" d="m496.19,61.69l-15.98.02c-8.74.01-15.24.92-19.85,2.79-7.31,2.97-11.01,8.43-11,16.22l.09,65.19c0,4.1,2.36,6.45,6.46,6.44h3.33c4.1,0,6.45-2.36,6.44-6.46l-.03-23.16,33.74-.05c19.46-.03,29.31-6.68,29.29-19.77l-.03-22.46c-.02-12.48-10.93-18.79-32.45-18.76Zm16.08,41.43c0,3.62-4.34,5.46-12.91,5.47l-33.74.05-.04-27.64c0-4.46,9.53-5.13,15.21-5.14l15.52-.02c4.86,0,8.29.18,10.2.54,5.72,1.09,5.72,3.48,5.73,4.27l.03,22.47Z"/>
        <path class="cls-2" d="m296.83,116.92c0,4.13,2.38,6.5,6.51,6.49h3.8c4.13-.01,6.5-2.38,6.49-6.52l-.1-72.95c0-4.09-2.38-6.44-6.51-6.43h-3.8c-4.13.01-6.5,2.36-6.49,6.46l.05,33.97-52.87.07-.05-33.97c0-4.09-2.38-6.44-6.51-6.43h-3.97c-4.1.01-6.44,2.36-6.44,6.46l.1,72.95c0,4.13,2.36,6.5,6.46,6.49h3.97c4.13-.01,6.5-2.38,6.49-6.52l-.03-24.49,52.87-.07.03,24.49Z"/>
        <path class="cls-2" d="m394.78,65.21c-4.86-2.28-10.7-3.43-17.37-3.42l-19.48.03c-7.95.01-14.77,1.25-20.3,3.69-7.97,3.51-12,9.06-11.99,16.49l.03,21.32c.01,7.75,4.11,13.37,12.18,16.69,5.37,2.22,12.33,3.34,20.67,3.33l21.28-.03c4.09,0,6.44-2.38,6.43-6.51v-1.15c0-4.13-2.36-6.5-6.46-6.49l-22.67.03c-11.64.02-14.28-4.46-14.78-8.54l57.33-.08c1.98,0,5.3-.92,5.29-7.03l-.02-13.96c0-6.37-3.42-11.21-10.15-14.37Zm-5.72,20.82l-47.19.06v-4.93c-.01-3.26,6.21-5.07,17.52-5.08l14.14-.02c2.96,0,6.15.4,9.49,1.21,3.78.91,6.04,2.17,6.04,3.38v5.39Z"/>
        <path class="cls-2" d="m430.56,37.34h-3.33c-4.09,0-6.44,2.36-6.43,6.46l.1,72.95c0,4.13,2.35,6.5,6.45,6.49h3.33c4.1,0,6.45-2.38,6.44-6.51l-.1-72.95c0-4.09-2.36-6.44-6.46-6.43Z"/>
      </g>
    </g>
  </g>
</svg>