<?xml version="1.0" encoding="UTF-8"?>
<svg id="_Слой_2" data-name="Слой 2" xmlns="http://www.w3.org/2000/svg" viewBox="0 0 549.91 116.86">
  <defs>
    <style>
      .cls-1 {
        fill: #8dc63f;
        stroke-width: 0px;
      }
    </style>
  </defs>
  <g id="Layer_1" data-name="Layer 1">
    <g>
      <polygon class="cls-1" points="242.44 95.47 222.46 95.47 222.46 64.58 201.01 64.58 201.01 95.47 181.02 95.47 181.02 18.24 201.01 18.24 201.01 48.28 222.46 48.28 222.46 18.24 242.44 18.24 242.44 95.47"/>
      <path class="cls-1" d="m282.29,54.28h-15.03v21.78h15.03v-21.78Zm17.66,21.78c0,5.46-1.13,9.92-3.36,13.37-2.59,4.03-6.41,6.04-11.46,6.04h-23.04c-4.13,0-7.39-2.3-9.78-6.9-1.96-3.74-2.94-7.92-2.94-12.51v-23.32c0-4.7.91-8.67,2.74-11.87,2.24-4,5.5-5.99,9.78-5.99h24.18c4.77,0,8.38,1.85,10.83,5.56,2.03,3.15,3.05,7.24,3.05,12.31v23.32Z"/>
      <path class="cls-1" d="m344.65,95.47h-22.83c-2.24,0-4.2-.29-5.88-.87-4.7-1.57-7.04-7.76-7.04-18.54v-21.78h-5.58v-19.42h5.58V14.38h18.29v20.49h17.04v19.42h-17.04v21.78h17.46v19.41Z"/>
      <path class="cls-1" d="m429.71,38.19h-20.81v10.62h20.81v-10.62Zm19.67,10.09c0,11.29-5,16.94-14.96,16.94h-25.52v30.25h-19.67V18.24h43c6.74,0,11.36,1.65,13.89,4.94,2.17,2.86,3.25,7.87,3.25,15.02v10.09Z"/>
      <path class="cls-1" d="m487.54,54.28h-15.03v21.78h15.03v-21.78Zm17.68,21.78c0,5.46-1.12,9.92-3.36,13.37-2.6,4.03-6.42,6.04-11.47,6.04h-23.03c-4.13,0-7.4-2.3-9.78-6.9-1.96-3.74-2.94-7.92-2.94-12.51v-23.32c0-4.7.91-8.67,2.73-11.87,2.25-4,5.51-5.99,9.78-5.99h24.2c4.76,0,8.38,1.85,10.83,5.56,2.03,3.15,3.05,7.24,3.05,12.31v23.32Z"/>
      <path class="cls-1" d="m549.91,95.47h-22.82c-2.25,0-4.21-.29-5.9-.87-4.7-1.57-7.05-7.76-7.05-18.54v-21.78h-5.57v-19.42h5.57V14.38h18.3v20.49h17.04v19.42h-17.04v21.78h17.46v19.41Z"/>
      <path class="cls-1" d="m139,89.85s-.03-.06-.06-.08c-1.55-1.3-3.1-2.3-4.21-2.62-1.13-.32-4.79,1.35-7.75,2.7-2.79,1.28-5.7,2.6-7.8,3.01-3.63.71-12.66-2.04-15.2-2.85l-2.13,3.63-.19.94c1.4,2.31,4.42,7.07,6.42,8.58,6.89,5.23,31.56,13.69,31.56,13.69,0,0,1.9-1.13,5.36-8.7,1.75-3.78-.18-9.09-2.99-13.83-.94-1.58-1.97-3.11-2.99-4.48"/>
      <path class="cls-1" d="m45.39,93.1l-2.32-3.34c-1.56,1.16-5.32,3.3-9.87,1.6-1.43-.53-2.81-1.09-4.12-1.64-3.79-1.57-7.06-2.92-9.68-2.75l-1.19.06c-3.45.18-7.01.35-10.33,2.26-.55.52-4.22,4.07-5.88,7.28l-.88,1.7c-1.21,3.33-1.64,6.87-.25,9.91,3.47,7.57,5.37,8.69,5.37,8.69,0,0,24.68-8.47,31.56-13.69,2.09-1.58,6.14-7.09,7.79-9.41l-.18-.66Z"/>
      <path class="cls-1" d="m74.04,92.27c-.23.01-.46.01-.68.01-12.03,0-29.12-10.71-30.17-11.82l.84-.83.8-.84c.42.37,4.8,3.2,10.5,5.92,5.81,1.95,12.31,2.82,18.9,2.41,7.51-.46,14.71-2.53,20.75-5.87,2.02-1.72,3.94-3.69,5.74-5.88l1.78,1.51c-7.82,9.55-17.92,15.01-28.46,15.38m-4.87-36.53l4.53-9.36,4.53,9.36,10.13,1.49-7.33,7.29,1.73,10.28-9.06-4.85-9.06,4.85,1.75-10.28-7.33-7.29,10.12-1.49Zm64.74,28.23c-.83-.57-2.25-1.51-3.21-1.51-11.25,2.81-20.14-.49-26.77-9.18-4.27-5.32-2.58-13.52-4.86-20.47-.39-1.68-.86-3.32-1.32-4.77-.47-1.45-.94-2.71-1.38-3.59-1.74-3.54-8.53-11.93-9.32-13.04-.78-1.13-5.78-6.59-6.47-11.27-.88-6.09-1.32-20.12-1.32-20.12h-12.7s-.44,14.03-1.33,20.12c-.68,4.68-5.68,10.14-6.46,11.27-.8,1.12-7.58,9.5-9.32,13.04-1.74,3.53-4.1,13.03-4.1,17.22s-2,8.7-3.28,10.79c-1.25,2.1-10.29,10.3-13.61,10.77-3.31.49-7.58,1.3-8.53,0-.95-1.27-7.89.7-11.37,3.71-.01.02-.06.05-.09.08,3.24-1.41,6.6-1.6,9.62-1.75l1.17-.06c3.03-.16,6.46,1.24,10.42,2.88,1.32.55,2.68,1.12,4.08,1.64,4.88,1.83,8.7-1.7,8.86-1.86l.72-.69,3.66,5.32.74,2.82c1.69,2.73,4.61,6.84,7.67,8.2,4.74,2.09,10.42,3.89,13.9,3.89h1.02c.04.2,5.07.2,5.11,0h1.01c3.48,0,9.15-1.79,13.88-3.89,3.54-1.57,7.67-6.48,9.51-8.88l.39-1.76,2.91-4.96.66.22c3.12,1.05,11.88,3.62,14.99,3.02,1.91-.38,4.72-1.65,7.44-2.9,4.47-2.04,7.3-3.23,8.91-2.78.09.03.22.08.31.12-.63-.7-1.17-1.24-1.58-1.61"/>
      <path class="cls-1" d="m71.01,88.4c-2.88,0-5.75-.25-8.51-.7,3.93,1.38,7.98,2.32,11.48,2.2,5.58-.2,11.04-1.93,16.08-5.05-4.89,1.91-10.24,3.12-15.76,3.46-1.1.06-2.2.09-3.28.09"/>
    </g>
  </g>
</svg>