<svg width="233" height="60" viewBox="0 0 233 60" fill="none" xmlns="http://www.w3.org/2000/svg">
<path opacity="0.4" d="M38.1989 59.9406H25.7727V37.3629H12.4261V59.9406H0V3.5238H12.4261V25.4944H25.7727V3.5238H38.1989V59.9406Z" fill="#72B05E"/>
<path opacity="0.4" d="M73.4608 45.2618C73.4608 49.377 72.7509 52.7492 71.3312 55.3784C69.6749 58.4076 67.2141 59.9507 63.9961 59.9507H49.2784C46.6282 59.9507 44.546 58.2361 43.0316 54.7496C41.8012 51.949 41.1387 48.7483 41.1387 45.2618V27.6008C41.1387 24.0571 41.7066 21.0278 42.8896 18.6273C44.3094 15.5981 46.3916 14.1121 49.1364 14.1121H64.6113C67.64 14.1121 69.9588 15.5409 71.5205 18.3415C72.7983 20.742 73.4608 23.8285 73.4608 27.6579V45.3189V45.2618ZM62.1504 45.2618V28.801H52.5437V45.2618H62.1504Z" fill="#72B05E"/>
<path opacity="0.4" d="M102.791 59.9429H88.1935C86.7717 59.9429 85.4921 59.7194 84.4494 59.3284C81.4637 58.1552 79.9471 53.5743 79.9471 45.5857V29.4966H76.3926V15.1394H79.9471V0H91.6532V15.1394H102.554V29.4966H91.6532V45.5857H102.838V59.9429H102.791Z" fill="#72B05E"/>
<path opacity="0.4" d="M167.497 25.4943C167.497 33.7747 164.591 37.8597 158.736 37.8597H143.773V59.9406H132.236V3.5238H157.435C161.382 3.5238 164.071 4.73822 165.545 7.11192C166.803 9.20961 167.453 12.853 167.453 18.0972V25.4391L167.497 25.4943ZM155.96 25.8808V18.0972H143.773V25.8808H155.96Z" fill="#72B05E"/>
<path opacity="0.4" d="M202.74 45.2618C202.74 49.377 202.03 52.7492 200.611 55.3784C198.954 58.4076 196.493 59.9507 193.275 59.9507H178.558C175.908 59.9507 173.825 58.2361 172.311 54.7496C171.033 51.949 170.418 48.7483 170.418 45.2618V27.6008C170.418 24.0571 170.986 21.0278 172.169 18.6273C173.589 15.5981 175.671 14.1121 178.416 14.1121H193.891C196.919 14.1121 199.238 15.5409 200.8 18.3415C202.078 20.742 202.74 23.8285 202.74 27.6579V45.3189V45.2618ZM191.43 45.2618V28.801H181.823V45.2618H191.43Z" fill="#72B05E"/>
<path opacity="0.4" d="M232.094 59.9429H219.119C217.855 59.9429 216.717 59.7194 215.791 59.3284C213.137 58.1552 211.788 53.5743 211.788 45.5857V29.4966H208.629V15.1394H211.788V0H222.194V15.1394H231.883V29.4966H222.194V45.5857H232.136V59.9429H232.094Z" fill="#72B05E"/>
<path d="M38.6655 59.9967H26.0876V37.1286H12.5779V59.9967H0V2.85437H12.5779V25.1075H26.0876V2.85437H38.6655V59.9967Z" fill="#72B05E"/>
<path d="M74.8527 45.6307C74.8527 49.6563 74.1539 52.9552 72.7563 55.5271C71.1259 58.4905 68.7035 60.0001 65.5357 60.0001H51.0478C48.439 60.0001 46.3893 58.3228 44.8985 54.9121C43.6873 52.1724 43.0352 49.0413 43.0352 45.6307V28.3538C43.0352 24.8872 43.5942 21.9239 44.7588 19.5755C46.1563 16.6122 48.2061 15.1585 50.908 15.1585H66.1413C69.1227 15.1585 71.4054 16.5563 72.9427 19.296C74.2005 21.6443 74.8527 24.6636 74.8527 28.4097V45.6865V45.6307ZM63.7189 45.6307V29.5279H54.2621V45.6307H63.7189Z" fill="#72B05E"/>
<path d="M103.01 59.9938H88.6621C87.2646 59.9938 86.0068 59.7701 84.9819 59.3788C82.0471 58.2046 80.5564 53.6198 80.5564 45.6244V29.5216H77.0625V15.1522H80.5564V0H92.0629V15.1522H102.777V29.5216H92.0629V45.6244H103.057V59.9938H103.01Z" fill="#72B05E"/>
<path d="M168.868 25.0487C168.868 33.4355 165.747 37.5731 159.458 37.5731H143.386V59.938H130.994V2.79565H158.06C162.299 2.79565 165.188 4.02569 166.771 6.42991C168.122 8.55458 168.821 12.2448 168.821 17.5565V24.9928L168.868 25.0487ZM156.476 25.4401V17.5565H143.386V25.4401H156.476Z" fill="#72B05E"/>
<path d="M204.007 45.6307C204.007 49.6563 203.308 52.9552 201.911 55.5271C200.28 58.4905 197.858 60.0001 194.69 60.0001H180.202C177.593 60.0001 175.544 58.3228 174.053 54.9121C172.795 52.1724 172.189 49.0413 172.189 45.6307V28.3538C172.189 24.8872 172.748 21.9239 173.913 19.5755C175.311 16.6122 177.36 15.1585 180.062 15.1585H195.296C198.277 15.1585 200.56 16.5563 202.097 19.296C203.355 21.6443 204.007 24.6636 204.007 28.4097V45.6865V45.6307ZM192.873 45.6307V29.5279H183.416V45.6307H192.873Z" fill="#72B05E"/>
<path d="M232.077 59.9938H217.729C216.331 59.9938 215.073 59.7701 214.048 59.3788C211.113 58.2046 209.623 53.6198 209.623 45.6244V29.5216H206.129V15.1522H209.623V0H221.129V15.1522H231.844V29.5216H221.129V45.6244H232.123V59.9938H232.077Z" fill="#72B05E"/>
</svg>
