<svg width="274" height="60" viewBox="0 0 274 60" fill="none" xmlns="http://www.w3.org/2000/svg">
<path fill-rule="evenodd" clip-rule="evenodd" d="M158.881 49.659L151.799 26.8767L158.287 9.43994H150.06L146.032 20.3432C145.523 21.8705 145.226 23.5675 145.014 25.5615V9.43994H136.914V49.659H145.014V37.7375L145.989 35.192L150.4 49.7014H158.881V49.659Z" fill="#F58220"/>
<path fill-rule="evenodd" clip-rule="evenodd" d="M132.971 49.6591V9.44013H125.211V25.3496C125.211 28.1072 125.677 31.3739 125.677 31.3739H125.507L119.146 9.39771H111.895V49.6167H119.655V34.1315C119.655 31.4163 119.189 28.192 119.189 28.192H119.358L125.719 49.6167H132.971V49.6591Z" fill="#F58220"/>
<path fill-rule="evenodd" clip-rule="evenodd" d="M107.951 49.659V9.43994H99.8086V49.659H107.951Z" fill="#F58220"/>
<path fill-rule="evenodd" clip-rule="evenodd" d="M97.4341 49.659V42.4043H89.9704V9.43994H81.8281V49.659H97.4341Z" fill="#F58220"/>
<path d="M261.725 35.2343H264.481C270.164 35.2343 273.684 32.0524 273.684 26.4099V18.5612C273.684 12.5793 270.673 9.43982 263.76 9.43982H253.625V49.6588H261.725V35.2343ZM261.725 16.5248H263.76C264.948 16.5248 265.669 17.3309 265.669 18.8158V25.5614C265.669 27.216 264.863 27.9372 263.464 27.9372H261.725V16.5248Z" fill="#510017"/>
<path d="M169.954 8.93146C163.89 8.93146 159.988 12.4103 159.988 18.1801V41.0049C159.988 46.9019 163.508 50.1263 169.063 50.1263C171.481 50.1263 173.559 48.9384 174.661 47.1141L175.679 49.6172H179.793V27.7258H169.742V34.4714H171.862V40.5806C171.862 42.0231 170.972 42.8291 169.996 42.8291C168.979 42.8291 168.173 42.0231 168.173 40.5806V18.3923C168.173 16.9498 168.979 16.1437 169.996 16.1437C171.014 16.1437 171.862 16.9498 171.862 18.3923V22.4226H180.005V18.1377C180.005 12.3679 176.061 8.88904 170.039 8.88904L169.954 8.93146Z" fill="#510017"/>
<path d="M216.558 50.1685C222.58 50.1685 226.608 46.732 226.608 40.8774V18.1799C226.608 12.4101 222.622 8.93127 216.558 8.93127C210.494 8.93127 206.465 12.4101 206.465 18.1799V40.8774C206.465 46.732 210.494 50.1685 216.558 50.1685ZM214.607 18.4769C214.607 17.0345 215.582 16.2284 216.558 16.2284C217.533 16.2284 218.466 17.0345 218.466 18.4769V40.6653C218.466 42.1077 217.533 42.9138 216.558 42.9138C215.582 42.9138 214.607 42.1077 214.607 40.6653V18.4769Z" fill="#510017"/>
<path d="M239.884 50.1679C245.906 50.1679 249.935 46.7315 249.935 40.8768V9.43982H241.75V40.6223C241.75 42.0647 240.944 42.8708 239.927 42.8708C238.951 42.8708 238.103 42.0647 238.103 40.6223V9.43982H229.961V40.8768C229.961 46.7315 233.905 50.1679 239.927 50.1679H239.884Z" fill="#510017"/>
<path d="M193.317 9.43982H183.352V49.6588H191.451V33.3676H193.487C194.462 33.3676 195.226 34.1312 195.226 35.5313V49.6588H203.241V35.9979C203.241 33.0706 202.223 30.61 199.975 29.8887C202.223 29.1251 203.241 26.6644 203.241 23.7371V18.5612C203.241 12.5793 200.187 9.43982 193.317 9.43982ZM195.226 20.4704V23.9492C195.226 25.3917 194.462 26.1129 193.487 26.1129H191.451V16.5248H193.36C194.505 16.5248 195.268 17.3309 195.268 18.8158V20.4704H195.226Z" fill="#510017"/>
<g clip-path="url(#clip0_1155_29470)">
<path fill-rule="evenodd" clip-rule="evenodd" d="M35.399 41.8489C35.399 46.8758 33.3949 51.3826 30.1833 54.6512C27.0201 57.9694 22.6013 60 17.6995 60C12.8702 60 8.40304 57.9694 5.21568 54.6512C1.98003 51.4073 0 46.8758 0 41.8489C0 36.8221 1.98003 32.3153 5.21568 29.0466C7.31644 26.8923 9.90014 25.2827 12.7977 24.416C13.8119 27.3875 15.5505 30.0371 17.6995 32.142V32.5382C15.2366 32.5382 12.9668 33.5782 11.3006 35.2868C9.63452 36.9954 8.66866 39.2984 8.66866 41.8489C8.66866 44.3747 9.63452 46.7519 11.3006 48.411C12.9668 50.1197 15.2366 51.1597 17.6995 51.1597C20.2349 51.1597 22.4806 50.1197 24.0984 48.411C25.7645 46.7519 26.7787 44.3747 26.7787 41.8489C26.7787 36.8221 28.7828 32.3153 31.9461 29.0466C35.1817 25.7284 39.5764 23.6979 44.4782 23.6979C49.3317 23.6979 53.7264 25.7284 56.962 29.0466C60.1252 32.2905 62.1294 36.8221 62.1294 41.8489C62.1294 46.8758 60.1494 51.3826 56.962 54.6512C53.7264 57.9694 49.3317 60 44.4782 60C41.315 60 38.2483 59.1085 35.6164 57.5237C35.1334 57.2513 34.6988 56.9789 34.3366 56.7065C33.6846 56.2608 33.0568 55.716 32.4531 55.1713C34.5056 52.7445 35.9544 49.8225 36.6547 46.6281C37.3549 47.792 38.2242 48.7825 39.2866 49.5006C39.5523 49.6739 39.7696 49.8225 39.9386 49.9463C41.2667 50.7635 42.8362 51.2092 44.5023 51.2092C46.9653 51.2092 49.2351 50.1692 50.9012 48.4606C52.519 46.8015 53.5332 44.4242 53.5332 41.8985C53.5332 39.3479 52.519 37.045 50.9012 35.3363C49.2351 33.6277 46.9894 32.5877 44.5023 32.5877C41.9669 32.5877 39.7213 33.6277 38.0552 35.3363C36.4373 37.045 35.4232 39.3479 35.4232 41.8985L35.399 41.8489Z" fill="#F58220"/>
<path d="M26.0286 35.5097C27.0427 32.4144 28.8296 29.6657 31.0752 27.4618V27.4123C28.5398 27.4123 26.2942 26.3723 24.6764 24.7132C23.0102 23.0045 21.9961 20.6768 21.9961 18.1511C21.9961 15.6253 23.0102 13.248 24.6764 11.5394C26.2942 9.88031 28.5398 8.84028 31.0752 8.84028C33.6106 8.84028 35.808 9.88031 37.4741 11.5394C39.1402 13.248 40.1061 15.5757 40.1061 18.1511C40.1061 19.3644 39.8888 20.5778 39.4058 21.6921C39.3575 21.8655 39.3092 22.014 39.1885 22.2369C39.0678 22.4598 38.9712 22.6083 38.9229 22.7817C40.6373 22.2369 42.5208 21.9397 44.4525 21.9397C45.7564 21.9397 46.9879 22.0636 48.2194 22.3359C48.5574 20.9492 48.7506 19.513 48.7506 18.1511C48.7506 13.1242 46.7706 8.61742 43.5349 5.29922C40.3717 2.0553 35.9046 0 31.0511 0C26.1976 0 21.7546 2.0553 18.5672 5.29922C15.3316 8.61742 13.3516 13.1242 13.3516 18.1511C13.3516 23.1779 15.3316 27.6352 18.5672 30.9534C20.6197 33.0582 23.131 34.643 25.9803 35.5345L26.0286 35.5097Z" fill="#510017"/>
</g>
<defs>
<clipPath id="clip0_1155_29470">
<rect width="62.1053" height="60" fill="white"/>
</clipPath>
</defs>
</svg>
