<?xml version="1.0" encoding="UTF-8"?>
<svg id="_Слой_2" data-name="Слой 2" xmlns="http://www.w3.org/2000/svg" viewBox="0 0 419.56 89.41">
  <defs>
    <style>
      .cls-1 {
        fill: #f58229;
        fill-rule: evenodd;
      }

      .cls-1, .cls-2 {
        stroke-width: 0px;
      }

      .cls-2 {
        fill: #5e0018;
      }
    </style>
  </defs>
  <g id="Layer_1" data-name="Layer 1">
    <g>
      <g>
        <rect class="cls-2" x="144.02" y="11.6" width="15.44" height="66.15"/>
        <path class="cls-2" d="m68.27,33.54c-7.44,0-14.47,2.93-19.78,8.24-5.26,5.25-8.15,12.25-8.15,19.7,0,3.3-1.33,6.47-3.69,8.75-4.51,4.66-12.64,4.8-17.47-.03-2.28-2.2-3.58-5.37-3.58-8.72s1.28-6.42,3.6-8.73c2.36-2.37,5.46-3.67,8.73-3.67h1.28v-2.4l-.4-.38c-3.18-3.02-5.62-6.77-7.05-10.83l-.41-1.15-1.17.35c-4.49,1.33-8.63,3.8-11.96,7.12C2.93,47,0,54,0,61.48s2.93,14.48,8.22,19.69c5.16,5.23,12.34,8.23,19.71,8.23s14.47-2.92,19.7-8.22c5.31-5.23,8.23-12.23,8.23-19.71,0-3.24,1.28-6.34,3.59-8.73,4.71-4.71,12.8-4.76,17.54-.02,2.33,2.4,3.6,5.51,3.6,8.75s-1.31,6.45-3.59,8.73c-3.99,3.99-10.28,4.8-15.06,1.92-.24-.17-.53-.37-.83-.54-1.36-.89-2.57-2.18-3.57-3.82l-1.65-2.69-.69,3.08c-.99,4.43-3.08,8.58-6.04,12l-.82.95.93.84c1.12,1.01,2.1,1.79,2.95,2.36.6.42,1.29.86,2.03,1.27,4.24,2.5,9.08,3.82,14.02,3.82,7.39,0,14.39-2.92,19.7-8.23,5.26-5.26,8.15-12.25,8.15-19.7s-2.9-14.44-8.15-19.7c-5.3-5.31-12.3-8.24-19.7-8.24Z"/>
        <polygon class="cls-2" points="131.03 11.6 115.58 11.6 115.58 77.74 142.85 77.74 142.85 63.68 131.03 63.68 131.03 11.6"/>
        <polygon class="cls-2" points="228.95 40.46 239.72 11.6 223.95 11.6 218.11 27.33 218.11 11.6 202.73 11.6 202.73 77.74 218.11 77.74 218.11 57.83 218.23 57.51 224.37 77.74 240.51 77.74 228.95 40.46"/>
        <polygon class="cls-2" points="184.19 36.9 176.88 11.6 163.13 11.6 163.13 77.74 178 77.74 178 53.05 185.33 77.74 199.07 77.74 199.07 11.6 184.19 11.6 184.19 36.9"/>
      </g>
      <path class="cls-1" d="m419.56,39.69v-12.39c0-9.48-4.78-14.42-15.72-14.42h-16.03v63.58h12.8v-22.84h4.38c8.99,0,14.58-5.02,14.58-13.93h0Zm-12.72-1.3c0,2.59-1.29,3.72-3.48,3.72h-2.76v-18.06h3.24c1.87,0,3,1.29,3,3.64v10.69h0Zm-24.95,24.21V12.88h-12.96v49.33c0,2.26-1.29,3.56-2.92,3.56-1.53,0-2.92-1.3-2.92-3.56V12.88h-12.88v49.73c0,9.24,6.24,14.67,15.79,14.67s15.88-5.43,15.88-14.67h0Zm-36.86,0V26.73c0-9.15-6.32-14.66-15.87-14.66s-15.96,5.5-15.96,14.66v35.88c0,9.24,6.4,14.67,15.96,14.67s15.87-5.43,15.87-14.67h0Zm-12.88-.4c0,2.26-1.45,3.56-2.99,3.56s-3.07-1.3-3.07-3.56V27.13c0-2.27,1.54-3.56,3.07-3.56s2.99,1.3,2.99,3.56v35.08h0Zm-24.05,14.26v-21.62c0-4.63-1.62-8.51-5.18-9.65,3.56-1.22,5.18-5.1,5.18-9.72v-8.18c0-9.48-4.85-14.42-15.72-14.42h-15.79v63.58h12.79v-25.75h3.25c1.54,0,2.75,1.21,2.75,3.4v22.36h12.72Zm-12.72-40.66c0,2.27-1.21,3.41-2.75,3.41h-3.25v-15.15h3c1.79,0,3,1.29,3,3.64v8.1h0Zm-24.22-2.27v-6.8c0-9.15-6.24-14.66-15.8-14.66s-15.79,5.5-15.79,14.66v36.13c0,9.31,5.59,14.42,14.33,14.42,3.82,0,7.14-1.86,8.84-4.78l1.62,3.97h6.48v-34.58h-15.88v10.69h3.33v9.64c0,2.26-1.38,3.56-2.92,3.56-1.62,0-2.92-1.3-2.92-3.56V27.13c0-2.27,1.3-3.56,2.92-3.56s2.92,1.3,2.92,3.56v6.4h12.88ZM40.49,52.16c-4.3-1.29-8.1-3.65-11.18-6.72-4.86-4.86-7.85-11.5-7.85-18.8h0c0-7.37,2.99-14.01,7.85-18.87C34.09,3,40.73,0,48.1,0h0c7.29,0,14.01,3,18.79,7.78,4.86,4.86,7.85,11.5,7.85,18.87h0c0,2.03-.32,4.13-.81,6.16-1.86-.4-3.72-.57-5.67-.57-2.91,0-5.75.41-8.35,1.21.08-.24.25-.49.4-.81.16-.33.25-.57.33-.81.73-1.62,1.05-3.4,1.05-5.19h0c0-3.81-1.46-7.2-3.97-9.72-2.5-2.43-5.91-3.97-9.63-3.97h0c-3.81,0-7.21,1.53-9.64,3.97-2.51,2.52-4.05,5.91-4.05,9.72h0c0,3.73,1.54,7.13,4.05,9.64,2.43,2.43,5.83,3.97,9.64,3.97h0v.08c-3.41,3.23-6.08,7.29-7.61,11.82h0Z"/>
    </g>
  </g>
</svg>