<?xml version="1.0" encoding="utf-8"?>
<!-- Generator: Adobe Illustrator 28.3.0, SVG Export Plug-In . SVG Version: 6.00 Build 0)  -->
<svg version="1.1" id="Layer_1" xmlns="http://www.w3.org/2000/svg" xmlns:xlink="http://www.w3.org/1999/xlink" x="0px" y="0px"
	 viewBox="0 0 62.1 60" style="enable-background:new 0 0 62.1 60;" xml:space="preserve">
<style type="text/css">
	.st0{clip-path:url(#SVGID_00000104681172260025315110000009643991316897461390_);}
	.st1{fill-rule:evenodd;clip-rule:evenodd;fill:#F58220;}
	.st2{fill:#510017;}
</style>
<g>
	<defs>
		<rect id="SVGID_1_" width="62.1" height="60"/>
	</defs>
	<clipPath id="SVGID_00000046301819704903550990000008019935667785567387_">
		<use xlink:href="#SVGID_1_"  style="overflow:visible;"/>
	</clipPath>
	<g style="clip-path:url(#SVGID_00000046301819704903550990000008019935667785567387_);">
		<path class="st1" d="M35.4,41.8c0,5-2,9.5-5.2,12.8C27,58,22.6,60,17.7,60c-4.8,0-9.3-2-12.5-5.3C2,51.4,0,46.9,0,41.8
			c0-5,2-9.5,5.2-12.8c2.1-2.2,4.7-3.8,7.6-4.6c1,3,2.8,5.6,4.9,7.7v0.4c-2.5,0-4.7,1-6.4,2.7c-1.7,1.7-2.6,4-2.6,6.6
			c0,2.5,1,4.9,2.6,6.6c1.7,1.7,3.9,2.7,6.4,2.7c2.5,0,4.8-1,6.4-2.7c1.7-1.7,2.7-4,2.7-6.6c0-5,2-9.5,5.2-12.8
			c3.2-3.3,7.6-5.3,12.5-5.3c4.9,0,9.2,2,12.5,5.3c3.2,3.2,5.2,7.8,5.2,12.8c0,5-2,9.5-5.2,12.8C53.7,58,49.3,60,44.5,60
			c-3.2,0-6.2-0.9-8.9-2.5c-0.5-0.3-0.9-0.5-1.3-0.8c-0.7-0.4-1.3-1-1.9-1.5c2.1-2.4,3.5-5.3,4.2-8.5c0.7,1.2,1.6,2.2,2.6,2.9
			c0.3,0.2,0.5,0.3,0.7,0.4c1.3,0.8,2.9,1.3,4.6,1.3c2.5,0,4.7-1,6.4-2.7c1.6-1.7,2.6-4,2.6-6.6c0-2.6-1-4.9-2.6-6.6
			c-1.7-1.7-3.9-2.7-6.4-2.7c-2.5,0-4.8,1-6.4,2.7C36.4,37,35.4,39.3,35.4,41.8L35.4,41.8z"/>
		<path class="st2" d="M26,35.5c1-3.1,2.8-5.8,5-8v0c-2.5,0-4.8-1-6.4-2.7C23,23,22,20.7,22,18.2c0-2.5,1-4.9,2.7-6.6
			c1.6-1.7,3.9-2.7,6.4-2.7s4.7,1,6.4,2.7c1.7,1.7,2.6,4,2.6,6.6c0,1.2-0.2,2.4-0.7,3.5c0,0.2-0.1,0.3-0.2,0.5s-0.2,0.4-0.3,0.5
			c1.7-0.5,3.6-0.8,5.5-0.8c1.3,0,2.5,0.1,3.8,0.4c0.3-1.4,0.5-2.8,0.5-4.2c0-5-2-9.5-5.2-12.9C40.4,2.1,35.9,0,31.1,0
			s-9.3,2.1-12.5,5.3c-3.2,3.3-5.2,7.8-5.2,12.9c0,5,2,9.5,5.2,12.8C20.6,33.1,23.1,34.6,26,35.5L26,35.5z"/>
	</g>
</g>
</svg>
