<svg width="269" height="61" viewBox="0 0 269 61" fill="none" xmlns="http://www.w3.org/2000/svg">
<g clip-path="url(#clip0_22_21701)">
<path d="M39.8646 54.4321C38.8723 54.4321 38.0526 53.6164 38.0526 52.6291V8.32792C38.0526 7.34059 38.8723 6.52496 39.8646 6.52496H57.2515C63.0327 6.52496 67.7354 11.2041 67.7354 16.9563V21.0774C67.7354 24.2111 66.3548 27.1302 63.9819 29.0619C66.3116 30.9936 67.7354 33.9127 67.7354 37.0464V44.0007C67.7354 49.753 63.0327 54.4321 57.2515 54.4321H50.0897H39.8646ZM52.2037 43.3997C53.0234 43.3997 53.7137 42.7129 53.7137 41.8972V36.6601C53.7137 35.8445 53.0234 35.1576 52.2037 35.1576H51.9448V43.3997H52.2037ZM52.2037 23.4384C53.0234 23.4384 53.7137 22.7516 53.7137 21.9359V19.7896C53.7137 18.9739 53.0234 18.2871 52.2037 18.2871H51.9448V23.4384H52.2037Z" fill="#132F1D"/>
<path d="M57.2515 8.32792C62.0404 8.32792 65.8802 12.1914 65.8802 16.9134V21.0345C65.8802 24.6404 63.6367 27.7312 60.4441 29.019C63.6367 30.3068 65.8802 33.3976 65.8802 37.0035V43.9578C65.8802 48.7227 61.9973 52.5433 57.2515 52.5433H50.0897H39.8646V8.32792H57.2515ZM50.0897 25.2843H52.1606C54.0157 25.2843 55.4826 23.7818 55.4826 21.9789V19.8325C55.4826 17.9866 53.9726 16.5271 52.1606 16.5271H50.0897V25.3272M50.0897 45.2885H52.1606C54.0157 45.2885 55.4826 43.786 55.4826 41.9831V36.7459C55.4826 34.9001 53.9726 33.4405 52.1606 33.4405H50.0897V45.3314M57.2515 4.80786H39.8646C37.8369 4.80786 36.1974 6.43911 36.1974 8.4567V52.715C36.1974 54.7326 37.8369 56.3638 39.8646 56.3638H50.0897C50.0897 56.3638 50.2622 56.3638 50.3485 56.3638H57.2515C64.025 56.3638 69.5474 50.8691 69.5474 44.1295V37.1752C69.5474 34.1703 68.4688 31.38 66.5705 29.1907C68.4688 27.0014 69.5474 24.2111 69.5474 21.2062V17.0851C69.5474 10.3455 64.025 4.85079 57.2515 4.85079V4.80786Z" fill="white"/>
<path d="M80.247 54.4321C73.4303 54.4321 67.9079 48.9374 67.9079 42.1548V24.1682C67.9079 17.3857 73.4303 11.8909 80.247 11.8909H84.4319C91.2486 11.8909 96.7709 17.3857 96.7709 24.1682V42.1548C96.7709 48.9374 91.2486 54.4321 84.4319 54.4321H80.247ZM82.361 23.1809C81.5844 23.1809 80.9804 23.7819 80.9804 24.5545V41.7685C80.9804 42.5412 81.5844 43.1422 82.361 43.1422C83.1376 43.1422 83.7416 42.5412 83.7416 41.7685V24.5545C83.7416 23.7819 83.1376 23.1809 82.361 23.1809Z" fill="#132F1D"/>
<path d="M84.475 13.6939C90.2563 13.6939 94.9589 18.373 94.9589 24.1253V42.1119C94.9589 47.8642 90.2563 52.5433 84.475 52.5433H80.2901C74.5089 52.5433 69.8062 47.8642 69.8062 42.1119V24.1253C69.8062 18.373 74.5089 13.6939 80.2901 13.6939H84.475ZM82.361 44.9451C84.1299 44.9451 85.5968 43.5285 85.5968 41.7256V24.5116C85.5968 22.7516 84.173 21.2921 82.361 21.2921C80.549 21.2921 79.1252 22.7087 79.1252 24.5116V41.7256C79.1252 43.4856 80.549 44.9451 82.361 44.9451ZM84.475 10.045H80.2901C72.4811 10.045 66.139 16.3554 66.139 24.1253V42.1119C66.139 49.8818 72.4811 56.1921 80.2901 56.1921H84.475C92.284 56.1921 98.6261 49.8818 98.6261 42.1119V24.1253C98.6261 16.3554 92.284 10.045 84.475 10.045Z" fill="white"/>
<path d="M197.08 54.4321C190.263 54.4321 184.741 48.9374 184.741 42.1548V24.1682C184.741 17.3857 190.263 11.8909 197.08 11.8909H201.265C208.081 11.8909 213.604 17.3857 213.604 24.1682V42.1548C213.604 48.9374 208.081 54.4321 201.265 54.4321H197.08ZM199.194 23.1809C198.417 23.1809 197.813 23.7819 197.813 24.5545V41.7685C197.813 42.5412 198.417 43.1422 199.194 43.1422C199.97 43.1422 200.574 42.5412 200.574 41.7685V24.5545C200.574 23.7819 199.97 23.1809 199.194 23.1809Z" fill="#132F1D"/>
<path d="M201.265 13.6939C207.046 13.6939 211.749 18.373 211.749 24.1253V42.1119C211.749 47.8642 207.046 52.5433 201.265 52.5433H197.08C191.298 52.5433 186.596 47.8642 186.596 42.1119V24.1253C186.596 18.373 191.298 13.6939 197.08 13.6939H201.265ZM199.151 44.9451C200.92 44.9451 202.386 43.5285 202.386 41.7256V24.5116C202.386 22.7516 200.963 21.2921 199.151 21.2921C197.339 21.2921 195.915 22.7087 195.915 24.5116V41.7256C195.915 43.4856 197.339 44.9451 199.151 44.9451ZM201.265 10.045H197.08C189.271 10.045 182.929 16.3554 182.929 24.1253V42.1119C182.929 49.8818 189.271 56.1921 197.08 56.1921H201.265C209.074 56.1921 215.416 49.8818 215.416 42.1119V24.1253C215.416 16.3554 209.074 10.045 201.265 10.045Z" fill="white"/>
<path d="M106.133 54.3462C105.141 54.3462 104.321 53.5306 104.321 52.5433V40.2231L94.5706 14.3378C94.3549 13.7797 94.4412 13.1358 94.7863 12.6636C95.1315 12.1914 95.6923 11.8909 96.2964 11.8909H106.78C107.6 11.8909 108.333 12.449 108.549 13.2217L111.224 23.0092L113.899 13.2217C114.115 12.4061 114.848 11.8909 115.668 11.8909H126.152C126.756 11.8909 127.317 12.1914 127.662 12.6636C128.007 13.1358 128.093 13.7797 127.877 14.3378L118.127 40.2231V52.5433C118.127 53.5306 117.307 54.3462 116.315 54.3462H106.133Z" fill="#132F1D"/>
<path d="M126.152 13.6939L116.272 39.8797V52.5004H106.09V39.8797L96.2101 13.6939H106.694L111.138 29.9205L115.582 13.6939H126.065M126.065 10.045H115.538C113.899 10.045 112.432 11.1612 112.001 12.7495L111.095 16.0978L110.189 12.7495C109.757 11.1612 108.29 10.045 106.651 10.045H96.1669C94.9589 10.045 93.8372 10.646 93.1469 11.6334C92.4566 12.6207 92.284 13.8656 92.7154 14.9817L102.336 40.5665V52.5433C102.336 54.5609 103.976 56.1921 106.004 56.1921H116.186C118.213 56.1921 119.853 54.5609 119.853 52.5433V40.5665L129.387 15.2393C129.603 14.7671 129.733 14.2519 129.733 13.7368C129.733 11.7192 128.093 10.088 126.065 10.088V10.045Z" fill="white"/>
<path d="M169.986 54.3463C163.428 54.3463 158.078 49.0233 158.078 42.4983V23.696C158.078 17.171 163.428 11.848 169.986 11.848H183.015C184.007 11.848 184.827 12.6636 184.827 13.651V21.1633C184.827 22.1506 184.007 22.9662 183.015 22.9662H172.876C172.272 22.9662 171.798 23.4385 171.798 24.0394V42.069C171.798 42.67 172.272 43.1422 172.876 43.1422H183.015C184.007 43.1422 184.827 43.9578 184.827 44.9451V52.4575C184.827 53.4448 184.007 54.2604 183.015 54.2604H169.986V54.3463Z" fill="#132F1D"/>
<path d="M183.015 13.6939V21.2062H172.876C171.28 21.2062 169.986 22.494 169.986 24.0824V42.1119C169.986 43.7002 171.28 44.9881 172.876 44.9881H183.015V52.5004H169.986C164.42 52.5004 159.933 48.0359 159.933 42.4983V23.696C159.933 18.1584 164.42 13.6939 169.986 13.6939H183.015ZM183.015 10.0451H169.986C162.435 10.0451 156.266 16.1837 156.266 23.696V42.4983C156.266 50.0535 162.435 56.1492 169.986 56.1492H183.015C185.043 56.1492 186.682 54.518 186.682 52.5004V44.9881C186.682 42.9705 185.043 41.3392 183.015 41.3392H173.653V24.8121H183.015C185.043 24.8121 186.682 23.1809 186.682 21.1633V13.651C186.682 11.6334 185.043 10.0021 183.015 10.0021V10.0451Z" fill="white"/>
<path d="M250.189 54.3462C249.197 54.3462 248.377 53.5306 248.377 52.5433V24.7692H244.322C243.33 24.7692 242.51 23.9535 242.51 22.9662V13.7368C242.51 12.7495 243.33 11.9338 244.322 11.9338H265.333C266.325 11.9338 267.145 12.7495 267.145 13.7368V22.9662C267.145 23.9535 266.325 24.7692 265.333 24.7692H261.277V52.5433C261.277 53.5306 260.458 54.3462 259.465 54.3462H250.189Z" fill="#132F1D"/>
<path d="M265.333 13.6939V22.9233H259.465V52.5433H250.189V22.9233H244.322V13.6939H265.333ZM265.333 10.045H244.322C242.294 10.045 240.655 11.6763 240.655 13.6939V22.9233C240.655 24.9409 242.294 26.5721 244.322 26.5721H246.522V52.5433C246.522 54.5609 248.162 56.1921 250.189 56.1921H259.465C261.493 56.1921 263.132 54.5609 263.132 52.5433V26.5721H265.333C267.361 26.5721 269 24.9409 269 22.9233V13.6939C269 11.6763 267.361 10.045 265.333 10.045Z" fill="white"/>
<path d="M226.115 54.3462C222.103 54.3462 218.349 52.4145 216.063 49.1091C214.639 47.0915 213.906 44.7305 213.863 42.2407V13.6939C213.863 12.7066 214.682 11.8909 215.675 11.8909H225.08C226.072 11.8909 226.892 12.7066 226.892 13.6939V41.3821C226.892 42.1548 227.539 42.7987 228.316 42.7987C229.092 42.7987 229.739 42.1548 229.739 41.3821V13.7797C229.739 12.7924 230.559 11.8909 231.551 11.8909H240.957C241.949 11.8909 242.769 12.7066 242.769 13.6939V42.1548C242.769 44.6446 241.992 47.0915 240.568 49.152C238.282 52.4145 234.528 54.3892 230.516 54.3892H226.072L226.115 54.3462Z" fill="#132F1D"/>
<path d="M241 13.6939V42.1548C241 44.3441 240.31 46.4046 239.102 48.0788C237.203 50.7833 234.097 52.5433 230.559 52.5433H226.115C222.578 52.5433 219.471 50.7833 217.573 48.0788C216.408 46.4046 215.718 44.43 215.718 42.2407C215.718 42.2407 215.718 42.1548 215.718 42.1119V24.0394C215.718 24.0394 215.718 23.9536 215.718 23.9106V13.651H225.123V41.3392C225.123 43.0992 226.59 44.5588 228.359 44.5588C230.128 44.5588 231.595 43.0992 231.595 41.3392V13.7797L241 13.7368M241 10.088H231.595C230.171 10.088 228.963 10.9036 228.359 12.0626C227.755 10.9036 226.547 10.088 225.123 10.088H215.718C213.69 10.088 212.051 11.7192 212.051 13.7368V42.1978C212.051 42.1978 212.051 42.4124 212.051 42.4982C212.051 45.1597 212.957 47.8642 214.596 50.2252C217.228 54.0028 221.542 56.2351 226.158 56.2351H230.602C235.219 56.2351 239.533 54.0028 242.165 50.2252C243.847 47.8642 244.71 45.0739 244.71 42.1978V13.6939C244.71 11.6763 243.071 10.045 241.043 10.045L241 10.088Z" fill="white"/>
<path d="M139.526 54.3462C132.149 54.3462 126.109 48.3793 126.109 40.9958V38.6777C126.109 38.1196 126.109 37.5616 126.195 36.9606C126.281 36.0162 127.058 35.2864 128.007 35.2864H137.887C137.887 35.2864 137.585 35.1147 137.455 35.0289C134.694 33.3118 131.588 31.4229 129.387 29.1049C128.956 28.6756 128.568 28.2034 128.223 27.7741C127.015 26.2287 126.411 24.5975 126.152 22.3223C125.72 18.5876 126.928 14.8958 129.56 11.9338C132.623 8.49965 137.196 6.48206 141.856 6.48206C150.485 6.48206 156.784 12.7065 156.784 21.292C156.784 22.2794 155.964 23.3096 154.928 23.3096H145.005C148.586 25.5848 151.908 27.7312 154.324 30.4785C156.525 33.0113 157.603 35.6728 157.603 38.6777V40.9958C157.603 48.3364 151.606 54.3462 144.186 54.3462H139.526ZM140.216 37.1323V40.0943C140.216 40.9958 140.95 41.7255 141.856 41.7255C142.762 41.7255 143.495 40.9958 143.495 40.0943C143.495 39.9226 143.323 39.3216 142.633 38.6348C141.985 38.0338 141.122 37.3899 140.13 36.746C140.13 36.8747 140.13 37.0035 140.13 37.1323H140.216ZM141.856 18.373C141.123 18.373 140.475 18.974 140.475 19.7467C140.475 20.0042 140.518 20.133 140.605 20.2618C140.777 20.5194 141.079 20.8198 141.554 21.1633C142.158 21.5496 142.762 21.9789 143.409 22.3652C143.28 22.1077 143.237 21.8501 143.237 21.5496V19.7896C143.237 19.0598 142.633 18.4159 141.856 18.4159V18.373Z" fill="#132F1D"/>
<path d="M141.856 8.32791C149.536 8.32791 154.928 13.6939 154.928 21.335C154.928 21.3779 154.928 21.4637 154.928 21.5067H145.049V19.7466C145.049 17.9866 143.625 16.57 141.856 16.57C140.087 16.57 138.663 17.9866 138.663 19.7466C138.663 20.2618 138.793 20.734 139.095 21.2062C139.354 21.6354 139.828 22.1076 140.475 22.5799C145.005 25.5848 149.924 28.2463 152.944 31.6805C154.67 33.6552 155.748 35.9303 155.748 38.6777V40.9958C155.748 47.349 150.571 52.5003 144.186 52.5003H139.569C133.184 52.5003 128.007 47.349 128.007 40.9958V38.6777C128.007 38.1625 128.007 37.6474 128.093 37.0894H138.448V40.0514C138.448 41.9831 140.001 43.5285 141.942 43.5285C143.884 43.5285 145.437 41.9831 145.437 40.0514C145.437 39.4074 145.092 38.3342 144.056 37.304C141.079 34.5137 134.522 31.6376 130.811 27.817C130.423 27.4307 130.078 27.0443 129.819 26.658C128.87 25.4131 128.352 24.1252 128.093 22.1076C127.187 14.5095 134.306 8.28499 141.985 8.28499M141.985 4.63615C136.808 4.63615 131.717 6.91131 128.309 10.7319C125.289 14.0802 123.951 18.2871 124.426 22.5369C124.728 25.1555 125.461 27.0443 126.885 28.8473C127.273 29.3195 127.705 29.8346 128.179 30.3068C129.258 31.4229 130.509 32.4532 131.847 33.3976H128.136C126.238 33.3976 124.642 34.8571 124.469 36.703C124.426 37.3469 124.383 37.9908 124.383 38.5918V40.9099C124.383 49.2808 131.243 56.0633 139.613 56.0633H144.229C152.642 56.0633 159.459 49.2378 159.459 40.9099V38.5918C159.459 35.2005 158.207 32.0668 155.748 29.2336C154.411 27.6882 152.814 26.3575 151.089 25.0696H155.015C156.999 25.0696 158.639 23.4813 158.682 21.4637C158.682 21.4637 158.682 21.2491 158.682 21.2062C158.682 11.5475 151.65 4.55029 141.942 4.55029L141.985 4.63615Z" fill="white"/>
<path d="M24.4624 59.1112C24.4624 59.1112 23.5995 59.1112 23.4701 59.1112C23.0818 59.1112 22.6935 59.0683 22.3052 58.9395C22.3052 58.9395 22.2621 58.9395 22.2189 58.9395C21.8306 58.9395 20.8815 58.8107 20.2775 57.8234C19.9323 57.2224 19.8029 56.6643 19.9323 56.0634C19.846 55.5053 19.846 54.9043 19.8029 54.3033C19.8029 53.8741 19.8029 53.4877 19.7166 53.1014C19.6734 52.6721 19.5872 52.3287 19.5009 51.9852C19.4146 51.6847 19.3714 51.3413 19.3283 51.0408C19.1557 50.8691 18.94 50.6116 18.8106 50.2681C18.7243 50.0964 18.6811 49.8818 18.5949 49.7101L20.0186 48.3793L18.3791 49.2379C18.1634 48.9374 17.8614 48.5081 17.6888 47.9501C17.5594 47.5637 17.5594 47.1774 17.6457 46.8769C17.3437 46.6193 16.9123 46.1471 16.7397 45.3315C16.6534 44.8593 16.6965 44.43 16.7397 44.1295C16.6534 44.0437 16.5671 43.9578 16.524 43.8719C16.1788 43.3568 16.0494 43.1851 15.8768 42.7129C15.7474 42.3695 15.2728 41.1246 15.4885 40.0085C15.4885 40.0085 15.1434 39.4075 15.1002 39.3646C14.9708 39.665 14.8845 40.0085 14.8414 40.1802C14.8414 40.5665 14.8414 40.9099 14.8414 41.2963C14.8414 41.7256 14.8414 42.1548 14.8414 42.5841C14.8414 43.0563 14.7551 43.5715 14.6688 44.0437C14.5825 44.5159 14.4099 44.9022 14.2374 45.2456C14.0216 45.8037 14.0216 46.1471 14.0216 46.4905C14.0216 46.9627 14.0216 47.4349 13.9354 47.9071C13.8059 48.7228 13.5039 49.8389 12.6842 50.8691C12.4685 51.1696 11.9508 51.6418 11.1742 51.7706C11.0879 52.1999 11.0447 52.3716 11.0447 52.3716C11.0447 52.5004 11.0447 52.8009 11.0879 53.1443C11.2605 55.3336 11.2605 56.278 10.6996 57.0078C10.1387 57.7375 9.44843 58.0809 8.58555 58.0809C8.49927 58.0809 8.15412 58.081 8.02469 58.038C7.50697 58.3385 6.85981 58.4673 5.86751 58.4673H5.17721C4.44377 58.4244 4.18491 58.3814 3.49462 58.2956C3.02004 58.2097 2.37288 57.8663 2.07088 57.48C1.55316 56.7502 1.68259 55.9775 1.72573 55.6341C1.81202 54.8185 2.11402 54.2604 2.54546 53.9599C2.80432 53.6594 3.10632 53.4448 3.49462 53.2731C3.45147 52.3287 3.75348 51.3843 4.78892 50.955C4.78892 50.8691 4.78892 50.8262 4.74578 50.7403C4.61635 50.3111 4.48692 49.7959 4.48692 49.195C4.48692 48.8515 4.61635 48.5081 4.78892 48.2505C4.78892 48.1218 4.78892 47.9501 4.78892 47.7783C4.78892 47.6066 4.87521 47.4349 4.9615 47.3061C4.9615 47.1774 4.9615 47.0486 4.91835 46.9198L5.43608 46.7052C5.43608 46.7052 5.52236 46.6193 5.56551 46.6193C5.82437 46.4476 6.16952 46.3188 6.47152 46.2759L6.64409 46.19L4.83207 46.4905C4.74578 46.1471 4.48692 45.2027 5.13407 44.3012C5.22036 44.1724 5.52236 43.829 5.65179 43.7432C5.65179 43.6573 5.82437 43.3568 5.86751 43.228C5.30665 42.2836 5.73808 41.4251 6.04008 40.9958C6.08323 40.9099 6.16952 40.8241 6.29895 40.7382C6.16952 39.8797 6.42838 39.3216 6.51466 39.107C6.42838 38.8065 6.42838 38.1197 6.42838 37.3899C6.42838 36.8318 6.51466 36.4884 6.60095 36.2308V35.1577C6.60095 35.1577 6.16952 34.9859 5.86751 34.8142C5.56551 34.7284 4.83207 34.4708 4.44377 33.6552C4.18491 33.183 3.79662 32.2815 3.79662 31.2942C3.79662 30.8649 3.88291 30.5215 3.9692 30.221C3.9692 30.0922 3.88291 29.9634 3.88291 29.8346C3.66719 29.5771 3.53776 29.2337 3.49462 28.8902C3.36519 28.7185 3.14947 28.2034 3.23575 27.5595C3.32204 26.4434 3.45147 24.9409 3.49462 23.8248C3.49462 22.8804 3.66719 22.0648 3.92605 21.335L4.05548 20.8628C4.18491 20.3906 4.31434 19.8325 4.53006 19.3603C4.65949 18.7164 4.74578 18.2013 5.04778 17.6003C5.17721 17.0852 5.22036 16.8705 5.30665 16.6988C5.30665 16.613 5.30665 16.3554 5.30665 16.2696C5.34979 15.3251 5.73808 14.6383 6.04008 14.1232C6.16952 13.9085 6.2558 13.7368 6.38523 13.5651C6.38523 13.5651 6.38523 13.5651 6.38523 13.5222C6.29895 13.05 6.29895 12.6207 6.2558 12.2344C6.2558 12.1485 6.29895 11.6334 6.34209 11.5475C6.42838 10.7319 6.60095 9.40115 7.85211 8.71431C8.06783 8.58553 8.32669 8.49967 8.58555 8.49967C8.9307 8.49967 9.27585 8.49967 9.57786 8.49967C9.57786 8.41382 9.57786 8.32796 9.621 8.28503C9.53471 8.19918 9.40528 7.94161 9.31899 7.59819C9.18956 7.04014 9.31899 6.52501 9.40528 6.22451C9.44843 5.92402 9.57786 5.62353 9.621 5.49475C9.621 5.06547 9.87986 4.50741 10.1387 4.20692C10.225 4.12107 10.3113 4.03521 10.3976 3.94936C10.4839 3.77765 10.5702 3.60594 10.6564 3.47715C10.9153 3.13373 11.3036 2.87617 11.735 2.74739C11.9076 2.57568 12.0802 2.40397 12.2528 2.27518C12.5548 2.06055 12.9431 1.93176 13.3313 1.93176C13.6765 1.93176 13.9785 2.01762 14.2805 2.18933L14.6257 2.40397H14.7119C15.0139 2.40397 15.5748 2.57568 15.8337 2.70446C16.0925 2.79031 16.4377 2.87617 16.826 3.13373C17.128 3.34837 17.5163 3.90643 17.6457 4.24985C18.4654 5.06547 18.4654 6.0528 18.4654 6.56793C18.5517 6.73964 18.5086 6.8255 18.5517 7.04014C18.5949 7.38356 18.5517 7.72698 18.5517 7.89869C18.5517 8.02747 18.5517 8.15625 18.5517 8.24211C18.6811 8.24211 18.8106 8.24211 18.9832 8.24211C20.3637 8.24211 21.4423 9.10066 22.0032 10.6031C22.2621 10.689 22.4778 10.8178 22.6935 11.0324C22.6935 11.0324 26.0155 14.5525 26.2313 14.8529C26.5333 15.2393 26.749 15.7544 27.0078 17.5144C27.1804 17.8579 27.2667 18.2871 27.2667 18.7593C27.2667 18.8023 27.2667 18.974 27.2667 19.1028L27.4824 20.8199C27.4824 20.8199 27.4824 21.0345 27.4824 21.1633C27.5256 21.5496 27.4824 21.936 27.4393 22.3223C27.051 23.8677 25.7998 24.7692 24.1172 24.8121C24.1172 25.0697 24.2898 25.9282 24.2898 25.9282C24.4192 26.7439 24.6781 28.0746 24.6781 28.2893C24.6781 29.1049 24.635 30.221 24.3329 30.822C23.9447 31.5947 23.5564 32.2386 23.0818 32.6249C23.0818 32.9254 23.1249 33.183 23.1681 33.4835C23.2544 33.9986 23.3406 34.2991 23.4269 34.5996C23.5132 34.9001 23.5564 35.1577 23.5995 35.4582C23.5995 36.9177 23.5564 38.1197 23.8584 39.107C23.8584 39.1499 23.8584 39.2358 23.9015 39.2787C26.0155 41.7256 25.7998 44.7305 25.6704 46.5764C25.6704 46.7052 25.6704 47.0056 25.6273 47.3491C25.6273 47.5208 25.541 47.6496 25.4978 47.7783C25.6704 48.1218 25.7998 48.594 25.7135 49.195C25.7135 49.2808 25.6704 49.4096 25.6273 49.5813C25.7567 49.7959 25.843 50.1394 25.843 50.5686C25.843 50.9979 25.7135 51.3843 25.6704 51.5989C25.6704 51.5989 25.6704 52.5004 25.6704 52.5433C25.6704 52.7579 25.6704 52.9726 25.6704 53.2301C25.6704 53.4448 25.6704 53.8311 25.6704 53.9599C25.6704 54.0028 25.9293 54.3033 26.0587 54.4321C26.7921 55.3336 27.0941 56.1921 26.9647 57.2653C26.8784 58.2097 25.843 59.24 24.8507 59.24C24.7644 59.24 24.4192 59.24 24.3329 59.1971L24.4624 59.1112Z" fill="#132F1D"/>
<path d="M13.5041 3.64884L13.9787 3.94933C13.9787 3.94933 14.1081 4.33568 14.2807 4.37861C14.3238 4.37861 14.367 4.37861 14.4101 4.37861C14.5395 4.37861 14.4964 4.29275 14.6258 4.2069C14.7121 4.16397 14.7984 4.12104 14.8847 4.12104C15.0141 4.12104 15.1004 4.2069 15.3161 4.29275C15.5318 4.37861 15.7907 4.42153 15.9633 4.50739C16.0927 4.59324 16.1358 4.76495 16.179 4.93666C16.2653 5.10837 16.3516 5.19423 16.481 5.32301C16.9987 5.83814 16.7399 6.35327 16.8693 7.04011C16.8693 7.08304 16.9556 7.1689 16.9556 7.25475C16.9556 7.38353 16.9556 7.55524 16.9556 7.72695C16.9556 8.1133 16.9987 8.37087 16.9556 8.75721C16.8261 8.92892 16.8693 8.97185 16.8693 9.22942C16.8693 9.44405 16.9556 9.65869 16.783 9.8304C16.6104 9.95918 16.4378 9.8304 16.3516 10.045C16.3516 10.1309 16.2653 10.5602 16.3084 10.646C16.3084 10.646 16.3947 10.646 16.4378 10.646C16.5241 10.646 16.5673 10.646 16.6536 10.646C16.7399 10.646 16.8693 10.646 16.9987 10.646C17.6027 10.5602 18.2067 10.3885 18.8107 10.088C18.9833 10.045 19.1559 10.0021 19.2853 10.0021C20.1913 10.0021 20.6659 11.0324 20.8385 12.0197C21.0111 12.0626 21.1836 12.1485 21.3562 12.1914H21.6582C21.6582 12.1914 24.8508 15.6256 25.0666 15.9261C25.2391 16.1407 25.4548 17.5144 25.5411 18.2013C25.6706 18.2871 25.7137 18.4159 25.7137 18.7593C25.7137 18.8881 25.7137 19.0169 25.6706 19.1457L25.9294 21.1203C25.9294 21.1203 25.9294 21.1633 25.9294 21.2491C25.9726 21.4638 26.0157 21.6784 25.9294 21.936C25.7137 22.7516 25.0666 23.0091 24.29 23.0091C23.7722 23.0091 23.2114 22.8804 22.6937 22.7087V24.0394H22.4779C22.4779 24.0394 22.6505 25.456 22.7368 25.7565C22.7799 26.057 23.1682 28.0317 23.1682 28.2892C23.1682 28.5468 23.1682 29.7488 22.9957 30.0063C22.8662 30.2639 22.3054 31.2512 22.1328 31.2512C21.9602 31.2512 21.4425 31.1224 21.4425 31.1224L21.2699 30.7361C21.2699 30.7361 21.3994 31.0795 21.4425 31.2083C21.4425 32.0669 21.5719 32.8825 21.6582 33.6981C21.6582 33.9127 21.7014 34.1274 21.7445 34.342C21.8308 34.5567 21.9171 34.7713 21.9602 35.0289C22.0034 35.2435 22.0465 35.5011 22.0896 35.7157C22.0465 36.9606 22.0034 38.3772 22.3917 39.6221C22.4348 39.8367 22.5211 40.0514 22.6074 40.2231C24.29 41.9831 24.29 44.1295 24.1174 46.4046C24.1174 46.6193 24.1174 46.791 24.1174 46.9198C24.1174 47.0486 24.0311 47.1773 23.9448 47.3491C23.7291 47.6495 23.7291 47.8642 23.9448 48.1647C24.1174 48.3793 24.29 48.551 24.2468 48.8515C24.2037 49.152 23.8585 49.4525 23.988 49.7959C24.0743 50.0535 24.3331 50.1393 24.3331 50.4828C24.3331 50.7403 24.2037 50.9979 24.1605 51.2555C24.0743 51.6418 24.1605 52.0711 24.1605 52.4574C24.1605 53.0584 24.0311 53.8311 24.2037 54.4321C24.3331 54.8614 24.7646 55.2906 25.0234 55.6341C25.3686 56.0633 25.4548 56.4926 25.4117 57.0507C25.4117 57.3082 25.2823 57.3512 25.1528 57.3512C25.0234 57.3512 24.894 57.3512 24.6783 57.3082C24.5488 57.3082 24.4194 57.3082 24.29 57.3082C24.2037 57.3082 24.1174 57.3082 24.0311 57.3082C23.9017 57.3082 23.7722 57.3512 23.6428 57.3512C23.4271 57.3512 23.2545 57.3512 22.9957 57.2653C22.6505 57.1795 22.2191 57.3082 22.0465 57.0077C21.7445 56.4926 22.0465 56.6214 21.9602 56.1063C21.8308 55.1619 21.8739 53.9599 21.7445 53.0155C21.6151 51.9423 21.3562 51.2555 21.3131 50.354C21.3131 50.0106 20.8816 50.0106 20.7091 49.6671C20.5365 49.2808 20.4502 48.8086 20.2345 48.4652C20.0619 48.1647 19.7599 47.8213 19.6305 47.5208C19.5442 47.1773 19.8893 46.7481 20.0188 46.4476C20.0188 46.4476 19.7168 46.0612 19.6736 46.0612C19.5442 45.9324 19.3285 45.8466 19.1559 45.7178C18.9402 45.5461 18.7676 45.3744 18.7245 45.0739C18.6382 44.5588 18.9833 44.0007 18.7245 43.4856C18.595 43.2709 18.3793 43.0992 18.2067 42.8846C17.9479 42.4982 17.9047 42.5412 17.7322 42.1119C17.5596 41.6826 17.3439 40.9099 17.4301 40.4377C17.5164 40.0943 17.6027 39.8367 17.4301 39.5362C17.2576 39.2358 17.085 38.9353 16.9124 38.6777C16.5241 37.9909 16.3084 37.2611 15.9633 36.5313C15.7476 36.145 15.8338 35.6298 15.6613 35.2006C15.5318 34.9001 15.4887 34.2132 15.273 33.9986C15.2298 33.9557 15.1435 33.8698 15.0573 33.8698C15.0573 33.8698 15.0141 33.8698 14.971 33.8698C14.8415 33.9986 14.8415 34.2991 14.8415 34.4708C14.8415 34.9001 14.8415 35.3293 14.7121 35.7586C14.4532 36.4884 14.1081 37.2611 13.8492 37.9909C13.5904 38.6777 13.2452 39.4075 13.2021 40.0943C13.1158 40.9099 13.2452 41.7255 13.2021 42.5412C13.2021 42.9275 13.1589 43.3568 13.0726 43.7431C12.9864 44.1724 12.7275 44.6017 12.5549 45.031C12.2529 45.8466 12.4686 46.791 12.3392 47.6495C12.2098 48.4652 11.9509 49.152 11.4763 49.8388C11.3038 50.0535 11.1312 50.0964 10.9155 50.0964C10.6998 50.0964 10.484 50.0535 10.3115 50.0535C10.182 50.0535 10.0957 50.0535 9.96631 50.0964C9.49173 50.3111 9.96631 50.4398 9.83688 50.8691C9.7506 51.1696 9.53488 51.8994 9.49174 52.4145C9.49174 52.9296 9.83688 55.6341 9.53488 55.9775C9.31916 56.235 9.14659 56.3638 8.88772 56.3638C8.80144 56.3638 8.71515 56.3638 8.62886 56.3638C8.37 56.3209 8.02485 56.1492 7.72285 56.1492C7.63656 56.1492 7.59342 56.1492 7.55028 56.1492C7.29141 56.235 7.55028 56.4497 7.3777 56.5785C7.16198 56.7073 6.64426 56.7502 6.16968 56.7502C5.91082 56.7502 5.6951 56.7502 5.56567 56.7502C5.00481 56.7502 4.78909 56.7502 4.05565 56.6214C3.62421 56.5785 3.83993 56.1921 3.88307 55.677C3.88307 55.5911 3.88307 55.5482 3.88307 55.5482C3.88307 55.5482 3.92622 55.6341 3.96936 55.6341C3.96936 55.6341 4.0125 55.6341 4.05565 55.5053C4.14193 55.1619 4.53023 55.0331 4.83223 54.9472C5.30681 54.8614 5.73825 54.0887 6.04025 53.6165C6.21283 53.3589 6.47169 53.0584 6.60112 52.7579C6.34226 52.8867 6.25597 53.3589 5.86768 53.3589C5.86768 53.3589 5.78139 53.3589 5.73825 53.3589H5.65196V53.273C5.65196 53.273 5.65196 53.1872 5.65196 53.1443C5.65196 52.8867 5.6951 52.7579 6.04025 52.6721C6.04025 52.7579 6.04025 52.8867 6.04025 52.8867C6.04025 52.8867 5.82453 52.8867 5.82453 53.1013C6.08339 53.1013 6.16968 52.8867 6.34226 52.715C6.29911 52.715 6.21283 52.6721 6.12654 52.5862C6.21283 52.5862 6.34226 52.5004 6.3854 52.5004C6.47169 52.5004 6.47169 52.1999 6.55797 52.1999C6.60112 52.1999 6.6874 52.1999 6.73055 52.1999C6.81683 51.9852 6.90312 51.8135 6.94627 51.5989C6.98941 51.4272 6.98941 51.2555 6.94627 51.0837C6.85998 50.4828 6.60112 49.8818 6.60112 49.3237C6.81683 49.3237 6.60112 49.2379 6.77369 49.0662C6.98941 48.8515 6.85998 48.5081 6.90312 48.2076C6.90312 48.2076 6.90312 48.2076 6.94627 48.2076C7.24827 48.2076 7.16198 47.6925 7.11884 47.5208C7.03255 47.1344 6.98941 46.791 6.90312 46.4046C6.85998 46.0612 6.6874 45.7607 6.90312 45.5032C7.03255 45.3315 7.29141 45.1597 7.42085 44.9451C7.55028 44.7305 7.63656 44.5588 7.72285 44.3441C7.72285 44.2153 7.72285 44.1724 7.80914 44.0436C7.93857 43.7431 8.068 43.4856 7.98171 43.1422C7.89542 42.8417 7.50713 42.5412 7.72285 42.2407C7.85228 42.069 8.11114 42.026 8.24057 41.8973C8.37 41.7685 8.28372 41.3392 8.37 41.1246C8.41315 40.9099 8.37 40.6953 8.32686 40.4807C8.24057 40.1372 8.54258 39.9655 8.54258 39.6221C8.54258 38.8923 8.54258 38.2055 8.54258 37.4757C8.54258 36.9606 8.67201 36.8747 8.67201 36.5313C8.67201 36.4455 8.67201 36.3596 8.67201 36.2738C8.67201 36.0591 8.67201 35.8015 8.67201 35.5869C8.67201 35.5011 8.67201 35.4152 8.67201 35.3723C8.67201 34.7713 8.54258 33.9986 8.84458 33.3547C8.84458 33.2688 8.84458 33.2259 8.88772 33.14C8.97401 32.7966 9.10344 32.4532 9.18973 32.1098C9.18973 32.0239 9.23287 31.981 9.27602 31.8951C9.3623 31.6805 9.40545 31.5088 9.44859 31.2942C9.44859 31.2083 9.44859 31.1654 9.44859 31.0795C9.44859 30.9937 9.40545 30.9507 9.3623 30.9507C9.27602 30.8649 9.10344 30.9078 9.01716 30.7361C8.97401 30.6502 9.01716 30.5215 9.01716 30.4356C9.0603 30.1351 9.01716 29.9634 9.01716 29.6629C8.97401 29.4053 9.14659 28.2892 8.75829 28.1605C8.41315 28.6756 8.02485 28.9331 7.98171 29.5771C7.93857 30.0493 8.19743 30.4785 8.19743 30.9078C8.19743 31.1654 8.15428 31.5517 8.15428 31.8093C8.15428 32.2386 8.11114 32.2386 7.98171 32.582C7.67971 32.3244 7.80914 32.0669 7.72285 31.7234C7.72285 31.5947 7.59342 31.0795 7.42085 30.9937C7.42085 30.9937 7.42085 30.9937 7.3777 30.9937C7.0757 30.9937 7.0757 32.1527 7.0757 32.3244C7.0757 32.4961 7.55028 32.7108 7.72285 32.8825C7.80914 32.9683 7.59342 33.0971 7.67971 33.14C7.67971 33.14 7.76599 33.14 7.80914 33.183C7.89542 33.183 7.93857 33.183 8.02485 33.183C8.068 33.183 8.11114 33.183 8.15428 33.2259C8.15428 33.4405 8.15429 33.6981 7.98171 33.6981C7.93857 33.6981 7.85228 33.6981 7.76599 33.6552C7.72285 33.6552 7.67971 33.6552 7.59342 33.6122C7.42084 33.5693 7.29141 33.4835 7.24827 33.4405C6.98941 33.2688 6.51483 33.2259 6.3854 32.9254C6.12654 32.4532 5.95396 31.8951 5.95396 31.38C5.95396 30.8649 6.34226 30.221 6.16968 29.7917C6.16968 29.7917 6.16968 29.7917 6.16968 29.8776C6.04025 29.7058 6.04025 29.1907 5.95396 28.9761C5.91082 28.8044 5.73825 28.9761 5.6951 28.8044C5.65196 28.418 5.3931 28.2034 5.43624 27.817C5.52253 26.7009 5.65196 25.1555 5.6951 23.9965C5.6951 23.3096 5.82453 22.6228 6.04025 21.9789C6.21283 21.4638 6.34226 20.7769 6.60112 20.133C6.81683 19.532 6.73055 19.1886 7.03255 18.5876C7.16198 18.33 7.24827 17.7291 7.3777 17.4715C7.50713 17.171 7.50713 16.7417 7.55028 16.4412C7.55028 15.8403 7.93857 15.3251 8.24057 14.7671C8.32686 14.6383 8.58572 14.3378 8.75829 14.0802C8.67201 13.8227 8.62886 13.5651 8.58572 13.2646C8.54258 12.8783 8.49943 12.5348 8.49943 12.1914C8.62886 11.5046 8.62886 10.646 9.14659 10.3455C9.49173 10.3455 9.79374 10.3455 10.1389 10.3455C11.1743 10.3455 12.1666 10.4743 13.1589 10.5602C13.1589 10.5602 13.1589 10.5602 13.1589 10.5172C13.1158 10.3455 12.8138 10.2597 12.6844 10.1309C12.5549 10.0021 12.5118 9.95918 12.3824 9.87333C12.2961 9.78747 12.1235 9.65869 12.2961 9.52991C12.2529 9.3582 12.1666 9.22942 12.0803 9.10063C12.0372 9.05771 11.8646 8.92892 11.8646 8.84307C11.8646 8.75721 11.9509 8.62843 12.0372 8.5855C11.9509 8.41379 11.9509 8.24208 11.9509 8.07037C11.7783 7.98452 11.9509 7.76988 11.9078 7.6411C11.8646 7.46939 11.6489 7.34061 11.6058 7.1689C11.5626 6.95426 11.6921 6.69669 11.7352 6.48206C11.7352 6.22449 11.9078 6.05278 11.9509 5.79522C11.9509 5.62351 11.9509 5.49472 12.0803 5.32301C12.1666 5.19423 12.3824 5.1513 12.4686 5.06545C12.5981 4.93666 12.5549 4.6791 12.6412 4.55032C12.7706 4.37861 12.9432 4.42153 13.1158 4.37861C13.3747 4.24982 13.6335 3.86348 13.8492 3.69177M22.4779 30.6073C22.4779 30.6073 22.5642 30.6073 22.5642 30.5644C22.5642 30.4356 22.9525 29.5771 22.9525 29.5771V27.0873C22.9525 27.0873 22.5642 25.4989 22.6074 25.3702C22.6074 25.2843 22.4779 24.6404 22.3054 24.0394C22.2622 24.1253 22.1328 24.2111 21.8739 24.3399C21.8739 24.3399 21.8739 24.3399 21.8308 24.3399L22.2191 26.1858L22.0034 27.0443C21.9171 27.3019 21.8308 27.7312 21.7014 28.1175L21.3994 29.3195L21.3562 29.5771V29.7917C21.5719 30.0922 21.7445 30.3068 21.8308 30.3498C22.0465 30.4356 22.3485 30.5644 22.4779 30.5644M6.60112 52.6721C6.60112 52.6721 6.73055 52.5004 6.85998 52.4574C6.85998 52.4574 6.81684 52.4574 6.77369 52.4574C6.6874 52.4574 6.64426 52.5862 6.60112 52.6721ZM13.5041 0C12.7275 0 11.9509 0.257565 11.3038 0.729768C11.1312 0.85855 10.9586 0.987333 10.8292 1.11612C10.1389 1.45954 9.62117 1.88881 9.31916 2.31809C9.18973 2.4898 9.0603 2.66151 8.97401 2.83322C8.93087 2.87614 8.88772 2.91907 8.84458 2.962C8.19743 3.73469 7.98171 4.50739 7.89542 5.06545C7.85228 5.23716 7.76599 5.4518 7.72285 5.70936C7.63656 5.96693 7.50713 6.43913 7.50713 6.95426C7.33456 6.99719 7.20513 7.08304 7.03255 7.1689C4.96166 8.28501 4.65966 10.4314 4.57337 11.3758V11.6334C4.48708 11.848 4.48708 12.1056 4.48708 12.3202C4.48708 12.6207 4.48708 12.9212 4.53023 13.2646C4.18508 13.9085 3.62421 14.8958 3.58107 16.2695V16.4412C3.58107 16.4412 3.45164 16.8276 3.40849 17.0422V17.171C3.0202 17.9008 2.93392 18.5018 2.89077 18.8452C2.7182 19.4032 2.54562 19.9613 2.41619 20.5194L2.28676 20.9486C2.0279 21.8501 1.85533 22.7945 1.81218 23.8677C1.81218 24.9838 1.63961 26.4433 1.55332 27.5165C1.46703 28.5468 1.76904 29.3195 1.94161 29.7058C2.0279 29.9634 2.11419 30.221 2.24362 30.4785C2.20047 30.779 2.15733 31.0795 2.15733 31.38C2.15733 32.7537 2.67505 33.9557 2.97706 34.5567C3.49478 35.544 4.27137 36.102 4.87538 36.4025C4.83223 36.746 4.78909 37.0894 4.78909 37.5616C4.78909 38.0338 4.78909 38.506 4.78909 39.0211C4.65966 39.3645 4.57337 39.7509 4.57337 40.266C4.22822 40.8241 3.75364 41.8114 4.0125 43.0992C3.96936 43.1422 3.92622 43.228 3.88307 43.2709C3.06335 44.3871 2.89077 45.6749 3.23592 47.0486V47.2203C3.23592 47.3491 3.19278 47.4349 3.14963 47.5637C3.14963 47.6495 3.14963 47.7354 3.14963 47.8213C2.93392 48.2505 2.84763 48.7227 2.80448 49.2379C2.80448 49.6242 2.80448 49.9676 2.89077 50.2681C2.32991 50.8262 1.98476 51.5559 1.85533 52.3286C1.7259 52.4145 1.59647 52.5433 1.51018 52.6721C0.733594 53.2731 0.172728 54.2175 0.0864412 55.4194C0.000154096 55.8916 -0.215564 57.3512 0.776738 58.6819C1.38075 59.5405 2.32991 60.0985 3.40849 60.2273C4.18508 60.3561 4.53023 60.3561 5.04795 60.399H5.26367C5.47938 60.399 5.78139 60.399 6.08339 60.399C6.81683 60.399 7.72285 60.3561 8.58572 60.0127C8.67201 60.0127 8.75829 60.0127 8.80144 60.0127C9.79374 60.0127 11.2175 59.7122 12.3824 58.2097C13.4178 56.836 13.2884 55.2906 13.1158 53.1443C13.5472 52.8867 13.9355 52.5433 14.2807 52.114C15.3593 50.6974 15.7044 49.2808 15.877 48.2935C15.877 48.2076 15.877 48.1647 15.877 48.0788C15.877 48.2076 15.9201 48.3793 15.9633 48.5081C16.2221 49.3237 16.6536 49.9247 16.9124 50.3111C17.0419 50.6545 17.1281 50.8691 17.2144 51.0837C17.3439 51.4272 17.5164 51.6847 17.689 51.8994C17.689 52.0711 17.7753 52.2428 17.7753 52.4145C17.8184 52.715 17.9047 53.0155 17.9479 53.4018C17.9479 53.7023 17.991 54.0887 17.991 54.4321C17.991 54.9902 18.0342 55.5053 18.0773 56.0633C17.9479 57.0077 18.1636 57.9521 18.6813 58.8536C19.1559 59.6693 20.1913 60.6995 22.0896 60.8283C22.5211 60.9141 22.9525 61 23.384 61C23.6428 61 23.9017 61 24.1605 60.9571C24.4625 61 24.6783 61.0429 24.894 61.0429C26.9649 61.0429 28.6475 59.4975 28.82 57.3941C28.9495 55.8487 28.518 54.475 27.5689 53.3589C27.5689 53.3589 27.5689 53.3589 27.5689 53.316C27.5689 53.0584 27.5689 52.8008 27.5689 52.5433C27.5689 52.3286 27.5689 52.114 27.5689 51.8994C27.6552 51.556 27.7846 51.0837 27.7846 50.5686C27.7846 50.2252 27.7415 49.8818 27.6552 49.5384C27.7415 48.9374 27.6983 48.3364 27.5257 47.7783C27.612 47.392 27.612 47.0056 27.612 46.6622C27.7415 44.7305 27.914 41.3821 25.6274 38.506C25.4548 37.7333 25.498 36.6172 25.5411 36.0162C25.5411 35.7586 25.5411 35.544 25.5411 35.2864C25.498 34.943 25.4548 34.6425 25.3686 34.2991C25.3254 34.0415 25.2391 33.784 25.1528 33.5693V33.3118C25.5411 32.7537 25.8431 32.1527 26.102 31.7234C26.2314 31.4229 26.6629 30.6502 26.6629 28.3751C26.6629 27.9887 26.6629 27.6882 26.3609 26.3146C27.8277 25.7136 28.9063 24.5116 29.3378 22.9233C29.4672 22.3223 29.5103 21.7643 29.4672 21.2062C29.4672 21.0345 29.4672 20.8628 29.4672 20.6911L29.2515 19.1886C29.2515 19.1886 29.2515 19.0598 29.2515 18.974C29.2515 18.2442 29.122 17.6003 28.9495 17.1281C28.6475 15.3251 28.3886 14.5095 27.8709 13.8227C27.7415 13.651 27.5257 13.3505 24.2037 9.8304C24.0311 9.61576 23.8154 9.44405 23.5997 9.31527C22.8231 7.81281 21.7014 6.99719 20.5365 6.65377C20.5365 6.61084 20.5365 6.56791 20.5365 6.52498C20.5365 5.83814 20.4502 4.50739 19.4579 3.26249C19.2853 2.91907 18.897 2.23223 18.1204 1.67417C17.6027 1.33075 17.085 1.15904 16.7399 1.07319C16.481 0.944405 16.0064 0.772695 15.4455 0.68684C14.8415 0.34342 14.1944 0.17171 13.5472 0.17171L13.5041 0Z" fill="white"/>
</g>
<defs>
<clipPath id="clip0_22_21701">
<rect width="269" height="61" fill="white"/>
</clipPath>
</defs>
</svg>
