<svg width="183" height="40" viewBox="0 0 183 40" fill="none" xmlns="http://www.w3.org/2000/svg">
<path fill-rule="evenodd" clip-rule="evenodd" d="M105.925 33.1067L101.203 17.9186L105.529 6.29407H100.044L97.3583 13.5629C97.019 14.5811 96.8211 15.7124 96.6797 17.0418V6.29407H91.2798V33.1067H96.6797V25.1591L97.33 23.4621L100.27 33.135H105.925V33.1067Z" fill="#F58220"/>
<path fill-rule="evenodd" clip-rule="evenodd" d="M88.6503 33.1067V6.29403H83.4766V16.9003C83.4766 18.7387 83.7876 20.9166 83.7876 20.9166H83.6745L79.4338 6.26575H74.5993V33.0784H79.773V22.755C79.773 20.9448 79.462 18.7953 79.462 18.7953H79.5751L83.8159 33.0784H88.6503V33.1067Z" fill="#F58220"/>
<path fill-rule="evenodd" clip-rule="evenodd" d="M71.9702 33.1067V6.29407H66.542V33.1067H71.9702Z" fill="#F58220"/>
<path fill-rule="evenodd" clip-rule="evenodd" d="M64.9587 33.1067V28.2703H59.9829V6.29407H54.5547V33.1067H64.9587Z" fill="#F58220"/>
<path d="M174.483 23.4904H176.321C180.11 23.4904 182.456 21.3691 182.456 17.6074V12.375C182.456 8.38704 180.449 6.29407 175.841 6.29407H169.084V33.1067H174.483V23.4904ZM174.483 11.0174H175.841C176.632 11.0174 177.113 11.5548 177.113 12.5447V17.0418C177.113 18.1448 176.576 18.6256 175.643 18.6256H174.483V11.0174Z" fill="#510017"/>
<path d="M113.303 5.95419C109.261 5.95419 106.66 8.27342 106.66 12.12V27.3364C106.66 31.2678 109.006 33.4174 112.71 33.4174C114.321 33.4174 115.707 32.6254 116.442 31.4093L117.12 33.078H119.862V18.4837H113.162V22.9808H114.576V27.0536C114.576 28.0152 113.982 28.5526 113.332 28.5526C112.653 28.5526 112.116 28.0152 112.116 27.0536V12.2614C112.116 11.2998 112.653 10.7624 113.332 10.7624C114.01 10.7624 114.576 11.2998 114.576 12.2614V14.9483H120.004V12.0917C120.004 8.24514 117.375 5.9259 113.36 5.9259L113.303 5.95419Z" fill="#510017"/>
<path d="M144.374 33.4457C148.389 33.4457 151.074 31.1547 151.074 27.2516V12.12C151.074 8.27346 148.417 5.95422 144.374 5.95422C140.331 5.95422 137.645 8.27346 137.645 12.12V27.2516C137.645 31.1547 140.331 33.4457 144.374 33.4457ZM143.074 12.318C143.074 11.3564 143.724 10.819 144.374 10.819C145.024 10.819 145.646 11.3564 145.646 12.318V27.1102C145.646 28.0719 145.024 28.6092 144.374 28.6092C143.724 28.6092 143.074 28.0719 143.074 27.1102V12.318Z" fill="#510017"/>
<path d="M159.924 33.4461C163.938 33.4461 166.624 31.1552 166.624 27.2521V6.29407H161.167V27.0824C161.167 28.044 160.63 28.5814 159.952 28.5814C159.302 28.5814 158.736 28.044 158.736 27.0824V6.29407H153.308V27.2521C153.308 31.1552 155.937 33.4461 159.952 33.4461H159.924Z" fill="#510017"/>
<path d="M128.881 6.29407H122.237V33.1067H127.637V22.2459H128.994C129.644 22.2459 130.153 22.755 130.153 23.6884V33.1067H135.497V23.9995C135.497 22.0479 134.818 20.4075 133.32 19.9267C134.818 19.4176 135.497 17.7771 135.497 15.8256V12.375C135.497 8.38704 133.461 6.29407 128.881 6.29407ZM130.153 13.6478V15.967C130.153 16.9286 129.644 17.4095 128.994 17.4095H127.637V11.0174H128.909C129.673 11.0174 130.182 11.5548 130.182 12.5447V13.6478H130.153Z" fill="#510017"/>
<g clip-path="url(#clip0_22_21640)">
<path fill-rule="evenodd" clip-rule="evenodd" d="M23.5994 27.8993C23.5994 31.2505 22.2632 34.255 20.1222 36.4342C18.0134 38.6463 15.0675 40 11.7997 40C8.58012 40 5.60203 38.6463 3.47712 36.4342C1.32002 34.2716 0 31.2505 0 27.8993C0 24.5481 1.32002 21.5435 3.47712 19.3644C4.87763 17.9282 6.60009 16.8551 8.53183 16.2773C9.20793 18.2583 10.367 20.0247 11.7997 21.428V21.6921C10.1577 21.6921 8.64451 22.3855 7.53376 23.5245C6.42302 24.6636 5.7791 26.1989 5.7791 27.8993C5.7791 29.5831 6.42302 31.168 7.53376 32.274C8.64451 33.4131 10.1577 34.1065 11.7997 34.1065C13.4899 34.1065 14.987 33.4131 16.0656 32.274C17.1763 31.168 17.8524 29.5831 17.8524 27.8993C17.8524 24.5481 19.1886 21.5435 21.2974 19.3644C23.4545 17.1523 26.3843 15.7986 29.6521 15.7986C32.8878 15.7986 35.8176 17.1523 37.9747 19.3644C40.0835 21.527 41.4196 24.5481 41.4196 27.8993C41.4196 31.2505 40.0996 34.255 37.9747 36.4342C35.8176 38.6463 32.8878 40 29.6521 40C27.5433 40 25.4989 39.4057 23.7442 38.3491C23.4223 38.1675 23.1325 37.986 22.8911 37.8044C22.4564 37.5072 22.0379 37.144 21.6354 36.7808C23.0037 35.163 23.9696 33.215 24.4364 31.0854C24.9033 31.8613 25.4828 32.5217 26.1911 33.0004C26.3682 33.116 26.5131 33.215 26.6257 33.2976C27.5111 33.8423 28.5575 34.1395 29.6682 34.1395C31.3102 34.1395 32.8234 33.4461 33.9341 32.307C35.0127 31.201 35.6888 29.6162 35.6888 27.9323C35.6888 26.2319 35.0127 24.6966 33.9341 23.5576C32.8234 22.4185 31.3263 21.7251 29.6682 21.7251C27.978 21.7251 26.4809 22.4185 25.3701 23.5576C24.2916 24.6966 23.6155 26.2319 23.6155 27.9323L23.5994 27.8993Z" fill="#F58220"/>
<path d="M17.3534 23.6731C18.0295 21.6096 19.2207 19.7771 20.7178 18.3079V18.2749C19.0276 18.2749 17.5305 17.5815 16.4519 16.4754C15.3412 15.3364 14.6651 13.7846 14.6651 12.1007C14.6651 10.4168 15.3412 8.83203 16.4519 7.69294C17.5305 6.58688 19.0276 5.89352 20.7178 5.89352C22.4081 5.89352 23.873 6.58688 24.9838 7.69294C26.0945 8.83203 26.7384 10.3838 26.7384 12.1007C26.7384 12.9096 26.5935 13.7185 26.2716 14.4614C26.2394 14.577 26.2072 14.676 26.1267 14.8246C26.0462 14.9732 25.9818 15.0722 25.9496 15.1878C27.0926 14.8246 28.3482 14.6265 29.636 14.6265C30.5053 14.6265 31.3263 14.709 32.1473 14.8906C32.3726 13.9662 32.5014 13.0087 32.5014 12.1007C32.5014 8.74948 31.1814 5.74494 29.0243 3.53281C26.9155 1.3702 23.9374 0 20.7017 0C17.4661 0 14.5041 1.3702 12.3792 3.53281C10.2221 5.74494 8.90207 8.74948 8.90207 12.1007C8.90207 15.4519 10.2221 18.4234 12.3792 20.6356C13.7475 22.0388 15.4217 23.0953 17.3212 23.6896L17.3534 23.6731Z" fill="#510017"/>
</g>
<defs>
<clipPath id="clip0_22_21640">
<rect width="41.4035" height="40" fill="white"/>
</clipPath>
</defs>
</svg>
