<svg width="189" height="34" viewBox="0 0 189 34" fill="none" xmlns="http://www.w3.org/2000/svg">
<g clip-path="url(#clip0_22_15382)">
<mask id="mask0_22_15382" style="mask-type:luminance" maskUnits="userSpaceOnUse" x="0" y="5" width="189" height="34">
<path d="M188.06 5H0.311523V39H188.06V5Z" fill="white"/>
</mask>
<g mask="url(#mask0_22_15382)">
<path d="M100.547 33.2977V10.7026H115.129V15.9506H106.627V33.2977H100.547Z" fill="#E30613"/>
<path d="M133.475 33.2977V24.4484H124.442V33.2977H118.362V10.7026H124.442V19.1349H133.475V10.7026H139.555V33.2977H133.475Z" fill="#E30613"/>
<path d="M174.84 33.2977V15.9506H167.738V10.7026H188.06V15.9506H180.923V33.2977H174.84Z" fill="#E30613"/>
<path d="M158.791 33.2947V20.4205L149.113 33.2947H144.028V10.7058H150.109V23.446L159.625 10.7058H164.875V33.2947H158.791Z" fill="#E30613"/>
<path d="M65.6061 33.2977V19.8695L59.5354 26.9635L53.4648 19.8695V33.2977H47.3845V10.7026H53.3852L59.5354 18.4719L65.6857 10.7026H71.6862V33.2977H65.6061Z" fill="#E30613"/>
<path d="M83.2293 25.3508H88.88L86.0547 18.2662L83.2293 25.3508ZM92.0491 33.2944L90.7765 30.1286H81.3236L80.0508 33.2944H73.939L83.2899 10.7024H88.912L98.2661 33.2944H92.0491Z" fill="#E30613"/>
<path d="M0.304749 15.2937C0.310636 12.5649 1.42151 9.94951 3.39416 8.02022C5.3668 6.09093 8.04046 5.00493 10.8298 5H35.1284V10.2324H10.8361C9.46557 10.2382 8.15276 10.7731 7.18331 11.721C6.21388 12.6688 5.66623 13.9528 5.65953 15.2937L5.62771 24.0778C5.51681 25.2032 5.02803 26.2609 4.2377 27.086C3.4474 27.911 2.40006 28.4566 1.25926 28.6379L0.304749 28.781V15.2937Z" fill="#E30613"/>
<path d="M0.305908 39.0001V33.7675H24.6045C25.9754 33.761 27.2881 33.2253 28.2576 32.277C29.2268 31.3286 29.7744 30.0443 29.7811 28.7033V20.3674C29.7878 19.158 30.2338 17.9904 31.0392 17.0729C31.8447 16.1555 32.9572 15.5481 34.1781 15.3591L35.1327 15.219V28.7033C35.1267 31.4324 34.016 34.0481 32.0434 35.9778C30.0709 37.9076 27.3973 38.9942 24.6076 39.0001H0.305908Z" fill="#E30613"/>
<path d="M20.8908 28.7996V22.0357L17.7218 25.7367L14.556 22.0357V28.7996H10.3594V15.4897H14.3333L17.7218 19.7697L21.1103 15.4897H25.0843V28.7996H20.8908Z" fill="#E30613"/>
</g>
</g>
<defs>
<clipPath id="clip0_22_15382">
<rect width="187.748" height="34" fill="white" transform="translate(0.311523)"/>
</clipPath>
</defs>
</svg>
