<svg width="17" height="16" viewBox="0 0 17 16" fill="none" xmlns="http://www.w3.org/2000/svg">
<path d="M5.38992e-09 4.94803L8.23264 9.70729C8.31522 9.75501 8.40692 9.77993 8.5 9.77993C8.59308 9.77993 8.68478 9.75501 8.76736 9.70729L17 4.94889V13.216C17 13.929 16.7546 14.615 16.3141 15.1333C15.8735 15.6515 15.2713 15.9628 14.6308 16.0031L14.4886 16.0074H2.51136C1.86989 16.0075 1.25272 15.7347 0.786458 15.245C0.320193 14.7553 0.0401808 14.0859 0.00386373 13.374L5.38992e-09 13.216V4.94803ZM2.51136 0.546936H14.4886C15.1301 0.546889 15.7473 0.819688 16.2135 1.30937C16.6798 1.79906 16.9598 2.4685 16.9961 3.18038L17 3.33842V3.49646L8.5 8.40946L5.38992e-09 3.49646V3.33842C-4.19952e-05 2.6254 0.245383 1.93939 0.685928 1.42112C1.12647 0.902843 1.72874 0.591599 2.36918 0.551231L2.51136 0.546936Z" fill="#600019"/>
</svg>
