<svg width="206" height="59" viewBox="0 0 206 59" fill="none" xmlns="http://www.w3.org/2000/svg">
<path d="M118.243 31.541C117.644 31.541 117.094 31.2037 116.694 30.7702C116.394 30.4329 116.194 29.9994 115.994 29.5658C115.294 27.976 114.744 26.338 114.144 24.7483C113.694 23.5439 113.244 22.484 112.844 21.5687C112.394 20.6052 112.144 20.4125 112.044 20.3643H111.994C111.694 20.3643 111.444 20.6052 111.244 20.9906C110.994 21.5205 110.744 22.1468 110.544 22.9658C110.344 23.7847 110.194 24.6519 110.044 25.5672C109.894 26.4826 109.694 27.3979 109.444 28.2169C109.194 29.084 108.844 29.7585 108.394 30.3366C107.894 30.9629 107.294 31.2519 106.544 31.2519C105.394 31.2519 104.944 30.6738 104.744 30.1921C104.394 29.3731 104.294 28.4578 104.394 27.5906C104.494 26.7234 104.744 25.8563 104.994 24.9891C105.594 23.0621 106.294 21.1351 107.144 19.3044C107.694 18.1482 108.244 17.0402 108.844 16.0767C109.444 15.1132 110.044 14.2942 110.694 13.6679C111.344 12.9935 111.994 12.6562 112.644 12.6562C113.044 12.6562 113.444 12.9453 113.944 13.6198C114.344 14.1979 114.794 14.8723 115.244 15.6913C115.694 16.5103 116.094 17.3774 116.544 18.3409C116.794 18.8709 116.994 19.449 117.244 20.0271C117.344 20.3161 117.494 20.6052 117.594 20.8942C117.644 21.0388 117.694 21.1833 117.794 21.3278C117.794 21.4242 117.894 21.6169 117.994 21.665C118.094 21.665 118.293 21.376 118.343 21.3278C118.743 20.7015 119.093 20.0271 119.443 19.3526C119.793 18.7745 120.143 18.1482 120.443 17.5701C121.043 16.5103 121.693 15.4986 122.293 14.6314C122.993 13.6198 123.593 13.138 124.193 13.138C124.993 13.138 125.793 13.7161 126.593 14.9205C127.343 16.0285 128.043 17.3774 128.643 18.919C129.243 20.4607 129.793 22.0504 130.193 23.6402C130.543 25.0373 130.793 26.4826 130.843 27.9278C130.843 28.9877 130.843 30.2884 129.793 30.9147C129.343 31.1556 128.893 31.3001 128.443 31.3001C127.543 31.3001 126.893 29.3249 126.593 28.6986C125.493 26.2417 124.993 23.592 124.143 21.0388C123.993 20.557 123.593 21.3278 123.493 21.5205C121.943 24.2665 121.193 27.2534 120.093 30.1439C119.593 31.3964 118.893 31.6855 118.343 31.6855L118.243 31.541Z" fill="#6B3E43"/>
<path d="M0.749795 49.1724C1.04978 49.3169 1.54975 49.3169 1.89974 49.2687C5.79955 48.6424 10.3993 47.4862 12.9992 44.403C16.0491 40.7417 17.949 36.2614 19.4489 31.8292C20.9988 27.2526 22.5987 22.6278 23.7987 17.9548C24.0987 16.7504 24.4486 15.3051 25.5486 14.5825C25.6486 14.4861 25.7986 14.4861 25.8986 14.4861C26.1485 14.4861 26.3485 14.6307 26.4985 14.8234C26.6485 14.9679 26.7485 15.1124 26.8485 15.3051C26.9485 15.4978 27.0485 15.6905 27.0985 15.8832C27.1485 16.0759 27.2485 16.2686 27.2985 16.5095C27.3485 16.7504 27.3985 16.9431 27.4485 17.1358C27.4985 17.3285 27.5485 17.5212 27.5985 17.7139C27.5985 17.8584 27.6485 17.9548 27.6985 18.0993C28.1485 19.8336 28.3984 21.5679 28.6984 23.3504C29.3484 26.8672 29.8984 30.384 30.4483 33.949C30.5483 34.4789 30.5983 35.1533 30.6983 35.876C30.7983 36.5986 30.9983 37.3212 31.1983 37.9957C31.4483 38.6701 31.7983 39.2964 32.2482 39.7782C32.6982 40.2599 33.2982 40.549 34.0982 40.5972C34.0982 40.5972 34.1982 40.5972 34.2482 40.5972C34.2482 40.5972 34.2481 40.5972 34.2981 40.5972C35.8981 40.5008 37.198 38.622 37.998 37.4658C40.5479 33.7563 42.3478 29.6132 44.0977 25.5183C44.9976 23.4467 45.7976 21.2307 46.6476 19.111C47.0975 18.0029 48.3975 13.6672 49.9474 13.6672C51.0473 13.6672 51.5473 15.7869 51.6973 16.5577C51.9973 18.0511 52.2973 19.5445 52.4973 21.038C52.5973 21.6643 52.6473 22.2905 52.7473 22.9168C52.8973 24.1694 53.0472 25.4701 53.1972 26.7227C53.3472 27.9752 53.4972 29.276 53.7472 30.5285C54.1472 33.0336 54.6472 36.1168 56.1971 38.1884C56.4471 38.5256 56.7471 38.8147 57.097 39.0074C58.747 39.8263 59.6469 37.803 60.1469 36.695C62.6968 30.4803 60.1469 23.4467 58.747 17.3285C58.397 15.8832 58.047 14.4861 57.697 13.0409C57.347 11.6438 56.947 10.2467 56.5471 8.84963C56.0971 7.30802 55.6971 5.81458 55.1471 4.27297C54.8472 3.40582 54.3972 2.49049 53.7472 1.81603C52.8972 0.900702 51.7473 0.418949 50.5474 0.852527C48.3975 1.67151 47.2975 3.88757 46.2476 5.67006C44.9476 7.98247 43.8977 10.4394 42.7477 12.8482C41.8978 14.6788 41.0978 16.5577 40.3479 18.3883C39.5479 20.2672 38.7979 22.0978 37.948 23.9285C37.748 24.3139 37.598 24.6993 37.448 25.1329C37.348 25.4219 37.198 25.711 37.098 25.9519C37.098 26.0482 36.998 26.1446 36.948 26.1927C36.948 26.1927 36.948 26.1927 36.848 26.2409C36.848 26.2409 36.798 26.2409 36.748 26.2409C36.748 26.2409 36.698 26.2409 36.648 26.2409C36.598 26.2409 36.548 26.1446 36.4981 26.0964C36.2981 25.8073 36.1981 25.4701 36.0981 25.1811C35.5481 23.6876 35.1981 22.0978 34.8481 20.5081C34.4981 18.9664 34.1982 17.4248 33.9482 15.8832C33.7982 14.9197 33.6482 13.9562 33.4982 12.9445C33.3482 11.981 33.1982 11.0175 32.9982 10.054C32.8982 9.71678 32.8482 9.42773 32.7482 9.0905C32.5982 8.41605 32.3983 7.74159 32.1983 7.11532C31.5983 5.23648 30.6983 2.77954 28.8484 1.71968C25.3986 -0.303681 22.8487 6.19999 22.1487 8.36788C22.0487 8.65693 21.9488 8.94598 21.8488 9.23503C20.5988 12.7518 19.3989 16.2686 18.099 19.7854C16.799 23.3504 15.4491 26.8672 13.9491 30.384C12.4492 33.9008 10.9993 37.2249 8.44942 40.2118C6.14953 42.8614 3.69965 45.4147 1.19977 47.9198C1.19977 47.9198 1.09977 48.0162 1.04978 48.0643C0.949782 48.1607 0.799791 48.3052 0.699796 48.4497C0.299815 48.9315 0.44981 49.2205 0.799793 49.3169L0.749795 49.1724Z" fill="#6B3E43"/>
<path d="M182.841 28.2162C182.841 28.7461 182.991 29.3242 183.291 29.8059C183.691 30.4322 184.491 30.5768 185.191 30.3841C186.691 29.9986 187.241 28.6016 187.341 27.2527C187.441 26.1928 187.341 25.0848 187.341 24.0249C187.341 23.4468 187.141 21.1826 187.591 20.3636C188.441 22.0015 189.491 23.5432 190.591 25.0366C191.791 26.6746 193.49 29.8541 196.04 29.3724C198.44 28.8906 199.39 26.1928 199.59 24.1213C199.94 20.6526 199.24 17.0877 197.44 14.0044C196.89 13.0891 196.34 12.1738 195.64 11.3548C194.84 10.4395 193.14 9.09057 192.491 10.9212C192.141 11.8847 192.791 12.8482 193.141 13.7154C193.54 14.7753 193.89 15.8351 194.19 16.9431C194.74 18.9183 195.14 21.038 194.99 23.1096C194.99 23.2541 194.99 23.4468 194.99 23.5913C194.99 23.5432 194.69 23.2541 194.64 23.2059C194.49 23.0614 194.39 22.9169 194.24 22.7724C193.99 22.4833 193.79 22.1943 193.54 21.9052C193.09 21.3271 192.641 20.7008 192.241 20.1227C191.441 18.9183 190.591 17.7621 189.791 16.5577C189.091 15.5942 188.291 14.5826 187.191 14.1008C186.941 14.0044 186.641 13.9563 186.391 14.0526C185.941 14.1971 185.741 14.6789 185.591 15.1125C184.491 17.8103 183.891 20.7008 183.291 23.5432C183.141 24.1694 182.991 24.7475 182.941 25.3256C182.941 25.8074 182.841 26.3373 182.791 26.8191C182.791 27.3008 182.791 27.7344 182.791 28.168L182.841 28.2162Z" fill="#6B3E43"/>
<path d="M173.241 10.1016C172.441 10.1016 171.591 10.1016 170.791 10.2461C170.791 10.2461 170.791 10.2461 170.741 10.2461C170.091 10.3424 169.491 10.487 168.941 10.6315C167.141 11.1614 165.541 12.0768 164.241 13.2811C163.391 14.1001 162.642 15.0154 162.042 16.0753C161.192 17.6169 160.692 19.3512 160.642 21.1337C160.642 23.0607 161.092 25.0359 162.042 26.6257C162.492 27.4447 163.091 28.1673 163.841 28.7936C164.941 29.7571 166.291 30.4797 167.791 30.5279C169.291 30.5279 170.791 30.0943 172.191 29.5644C173.491 29.0826 174.741 28.5045 175.891 27.7337C176.641 27.252 177.391 26.6739 178.091 26.0958C179.491 24.8432 180.741 23.1571 181.441 21.3264C182.141 19.4957 182.241 17.4724 181.441 15.6899C181.241 15.3045 181.041 14.9673 180.791 14.6782C180.741 14.63 180.691 14.5337 180.641 14.4855C179.891 13.5702 178.841 12.9439 177.691 12.6549C177.641 12.6549 177.541 12.6549 177.441 12.6549C176.691 12.5103 175.941 12.5103 175.191 12.6549C175.091 12.6549 174.991 12.6549 174.891 12.703C174.591 12.7512 174.291 12.8476 174.041 12.9439C173.941 12.9439 173.841 13.0403 173.741 13.0884C173.391 13.233 172.991 13.4257 172.641 13.6665C168.941 16.0753 166.441 20.652 164.641 24.5542C164.491 24.2169 164.391 23.8797 164.341 23.4943C164.291 23.1571 164.241 22.7717 164.241 22.4344C164.241 22.0972 164.241 21.7118 164.291 21.3746C164.391 20.652 164.591 19.9775 164.891 19.303C165.191 18.6286 165.541 18.0023 165.991 17.4242C166.191 17.1352 166.441 16.8461 166.691 16.5571C167.541 15.6417 168.541 14.9191 169.641 14.2928C171.491 13.2811 173.541 12.6549 175.641 12.414C175.891 12.414 176.191 12.3176 176.441 12.2213C176.691 12.1249 176.891 12.0286 177.041 11.884C177.091 11.8359 177.141 11.7395 177.191 11.6913C177.291 11.3059 176.691 10.9687 176.391 10.8242C175.491 10.3906 174.441 10.1979 173.441 10.1497L173.241 10.1016ZM170.741 19.4476C171.341 18.3395 172.191 17.376 173.291 16.6534C174.341 15.9789 175.841 15.6899 177.091 16.0753C177.391 16.1717 177.641 16.268 177.841 16.4607C178.991 17.376 178.541 19.3512 178.041 20.4111C177.741 21.0374 177.241 21.6155 176.691 22.1936C175.291 23.5906 173.541 24.7469 171.641 25.4213C171.241 25.5658 170.841 25.6622 170.441 25.7585C169.741 25.9031 168.991 25.9994 168.241 25.9512C168.841 23.7352 169.591 21.5191 170.691 19.4476H170.741Z" fill="#6B3E43"/>
<path d="M203.64 37.9973C202.89 37.6601 202.09 37.5638 201.24 37.5156C194.94 36.9375 188.491 36.9857 182.191 36.8411C176.191 36.7448 170.142 36.6484 164.092 36.6484C151.393 36.6484 138.693 36.8411 125.994 37.2747C119.994 37.4674 113.944 37.7565 107.945 38.0937C95.3953 38.7682 82.8959 39.6835 70.4465 41.0324C59.1471 42.2368 47.8477 43.7784 36.7482 46.2353C34.3983 46.7652 32.0484 47.3915 29.6986 47.9215C28.5486 48.2105 27.4487 48.4996 26.3487 48.7886C25.9987 48.885 25.6488 48.9813 25.2488 49.0777C24.5488 49.2704 23.8488 49.4631 23.1489 49.6558C22.7489 49.7521 22.3989 49.8966 21.9989 49.993C21.399 50.1857 20.749 50.3302 20.149 50.5229C19.749 50.6675 19.3491 50.7638 18.9491 50.9083C18.3991 51.0529 17.8491 51.2456 17.3491 51.3901C16.8992 51.5346 16.5492 51.6791 16.0992 51.7755C15.6492 51.92 15.1493 52.0645 14.6993 52.2572C14.2993 52.4018 13.8993 52.5463 13.4993 52.6908C13.0994 52.8353 12.6494 52.9799 12.2494 53.1244C11.8494 53.2689 11.4494 53.4134 11.0995 53.558C10.7495 53.7025 10.3495 53.847 10.0495 53.9434C9.64953 54.0879 9.29954 54.2324 8.94956 54.3769C8.64957 54.4733 8.2996 54.6178 7.99961 54.7142C7.64963 54.8587 7.29964 55.0032 6.94966 55.1478C6.69967 55.2441 6.39969 55.3405 6.1497 55.4368C5.79971 55.5813 5.49973 55.6777 5.19974 55.8222C4.99975 55.9186 4.74977 56.0149 4.54978 56.1113C4.24979 56.2558 3.9998 56.3521 3.69982 56.4485C3.49983 56.5448 3.34983 56.593 3.14984 56.6894C2.84986 56.8339 2.59987 56.9302 2.34988 57.0266C2.24989 57.0266 2.14989 57.1229 2.0499 57.1711C1.69992 57.3156 1.34993 57.4602 1.09994 57.6047C1.09994 57.6047 0.999954 57.6047 0.949956 57.6529C0.749966 57.7492 0.599971 57.7974 0.449979 57.8937C0.349984 57.8937 0.299982 57.9419 0.249984 57.9901C0.149989 57.9901 0.0999951 58.0383 0 58.0864C0 58.0864 1.14547e-06 58.0864 0.0499987 58.0864C0.0999963 58.0864 0.199986 58.0383 0.249984 57.9901C0.299982 57.9901 0.399982 57.9419 0.499977 57.8937C0.599973 57.8937 0.749965 57.7974 0.899958 57.7492C1.09995 57.6529 1.24994 57.6047 1.49992 57.5083C1.69991 57.412 1.84991 57.3638 2.0499 57.2675C2.24989 57.1711 2.44988 57.1229 2.64987 57.0266C2.84986 56.9302 3.04985 56.8821 3.24984 56.7857C3.44983 56.6894 3.69981 56.593 3.9498 56.4967C4.19979 56.4003 4.39979 56.304 4.64977 56.2076C4.89976 56.1113 5.19975 56.0149 5.44973 55.9186C5.69972 55.8222 5.94971 55.7259 6.24969 55.6295C6.54968 55.5332 6.84967 55.3886 7.19965 55.2923C7.49964 55.1959 7.79962 55.0996 8.09961 54.9551C8.44959 54.8105 8.79957 54.7142 9.19955 54.5697C9.49954 54.4733 9.84952 54.3288 10.1495 54.2324C10.5495 54.0879 10.9495 53.9434 11.3494 53.847C11.6994 53.7507 12.0494 53.6061 12.3994 53.5098C12.7994 53.3653 13.2494 53.2207 13.6993 53.0762C14.0993 52.9317 14.4493 52.8353 14.8493 52.6908C15.2992 52.5463 15.7992 52.4018 16.2492 52.2572C16.6492 52.1127 17.0492 52.0164 17.4991 51.8718C17.9991 51.7273 18.5491 51.5828 19.0991 51.4383C19.499 51.3419 19.899 51.1974 20.349 51.101C20.949 50.9565 21.5489 50.7638 22.1489 50.6193C22.5489 50.5229 22.9489 50.4266 23.3489 50.282C23.9988 50.1375 24.6988 49.9448 25.3488 49.8003C25.7488 49.7039 26.1487 49.6076 26.5487 49.5112C27.6486 49.2704 28.7486 49.0295 29.8985 48.7886C40.298 46.3317 52.8474 44.6455 66.3468 43.4412C69.3466 43.2003 72.3965 42.9594 75.4963 42.7185C88.0957 41.8514 100.695 41.3696 113.344 41.0806C125.994 40.7915 138.643 40.7433 151.343 41.0806C152.343 41.0806 153.393 41.1769 154.392 41.1769C164.142 41.466 173.892 41.7068 183.641 42.1886C184.091 42.1886 184.541 42.1886 184.991 42.2368C189.191 42.4295 193.341 42.6222 197.54 42.9594C197.99 42.9594 200.59 43.2485 201.34 43.2966C202.34 43.393 203.34 43.2966 204.19 42.8149C204.89 42.3813 205.49 41.7068 205.59 40.8879C205.74 39.6835 204.94 38.5755 203.69 37.9492L203.64 37.9973Z" fill="#6B3E43"/>
<path d="M66.2465 25.7104C65.3465 27.3002 64.7466 29.709 66.2465 31.1542C66.3965 31.2988 66.5965 31.4433 66.7965 31.5396C67.5964 31.9732 68.5964 31.8287 69.2963 31.2988C70.1963 30.6243 70.1963 29.4681 70.3463 28.5046C70.3463 28.4083 70.3463 28.3119 70.3963 28.2156C70.3963 28.0229 70.4963 27.782 70.5963 27.5893C70.6963 27.3484 70.7963 27.1557 70.9463 27.0112C71.1463 26.7703 71.4462 26.5776 71.7962 26.5776C72.1462 26.5776 72.5462 26.5776 72.8962 26.5776C73.8461 26.5776 74.7461 26.5776 75.696 26.5776C75.896 26.5776 76.046 26.5776 76.196 26.5776C76.196 26.5776 76.196 26.5776 76.246 26.5776C76.296 26.5776 76.346 26.5776 76.396 26.6258C76.396 26.6258 76.396 26.6739 76.446 26.7703C76.446 26.7703 76.446 26.8185 76.446 26.8666C76.446 26.963 76.446 27.0593 76.446 27.2039C76.546 27.9747 76.546 28.7455 76.846 29.4681C77.146 30.2871 77.7459 30.817 78.5959 31.1061C78.7459 31.1542 78.9459 31.2024 79.0959 31.2506C79.6959 31.3469 80.2458 31.1542 80.4458 30.5761C80.6958 29.8535 80.5458 28.89 80.4958 28.1192C80.4958 27.1075 80.3958 26.144 80.2958 25.1323C80.2958 24.6024 80.1958 24.1207 80.1458 23.5907C79.9458 21.5192 79.5959 19.4958 79.0959 17.4725C79.0459 17.1834 78.9459 16.9425 78.8459 16.6535C78.6959 16.0754 78.5459 15.5454 78.3459 14.9673C78.1959 14.5819 77.9959 14.0038 77.7459 13.4739C77.496 12.944 77.146 12.5104 76.746 12.2695C76.596 12.1732 76.396 12.125 76.246 12.125C76.196 12.125 76.146 12.125 76.096 12.125C76.096 12.125 76.096 12.125 76.046 12.125C75.996 12.125 75.896 12.125 75.846 12.125C75.846 12.125 75.846 12.125 75.796 12.125C75.6461 12.125 75.496 12.125 75.2961 12.2214C75.2461 12.2214 75.1461 12.2214 75.0961 12.2695C74.8461 12.3659 74.3961 12.5586 74.3461 12.8476C74.3461 12.944 74.3461 13.0403 74.2961 13.1367C74.2461 13.3294 74.1461 13.5221 74.0461 13.6666C73.8461 14.052 73.5461 14.3892 73.2462 14.7265C72.8962 15.16 72.4962 15.5454 72.1462 15.979C71.3462 16.9907 70.6463 18.0024 69.8963 19.0141C69.2464 19.9294 68.6464 20.8929 68.0964 21.8564C67.7964 22.3382 67.8464 22.5309 67.2965 22.5309C66.7465 22.5309 66.1965 22.6272 65.6465 22.7236C65.5965 22.7236 65.5465 22.7717 65.4965 22.8199C65.4465 22.9163 65.4465 23.0608 65.4465 23.1571C65.4465 23.3498 65.4465 23.5425 65.4465 23.6871C65.4465 23.8316 65.7965 23.9761 65.8965 24.0725C66.0465 24.1688 66.1965 24.3134 66.2465 24.4579C66.2965 24.6024 66.3965 24.7469 66.3965 24.8915C66.3965 25.036 66.3965 25.2287 66.3965 25.3732C66.3965 25.5177 66.2965 25.7104 66.1965 25.855L66.2465 25.7104ZM72.1462 23.928C72.1462 23.928 72.4962 23.109 72.5962 22.8681C73.4461 20.7966 74.3461 18.8214 75.746 17.0389C75.746 17.0389 76.646 19.1586 76.896 20.2666C77.146 21.3747 77.246 22.5309 77.346 23.6871C76.346 23.8798 75.3961 23.9279 74.3961 23.9761C74.2961 23.9761 73.6961 23.9761 73.4961 23.9761C73.0462 23.9761 72.5962 23.9761 72.1962 23.928H72.1462Z" fill="#6B3E43"/>
<path d="M88.0453 13.4773C87.3954 14.0554 86.8454 14.7298 86.3954 15.5006C85.9455 15.5488 85.4455 15.6451 85.0455 15.9342C84.9455 16.0305 84.7955 16.1269 84.7455 16.2714C84.6955 16.416 84.6455 16.5605 84.6955 16.7532C84.6955 16.9459 84.6955 17.1386 84.6955 17.2831C84.6955 17.6203 84.6955 18.0057 84.6955 18.343C84.6955 18.6802 84.6955 19.0656 84.6955 19.4028C84.6955 20.7999 84.6955 22.197 84.6955 23.5459C84.6955 23.5941 84.6955 23.6904 84.6955 23.7386C84.6955 24.8948 84.6955 26.051 84.6955 27.2072C84.6955 27.7371 84.6955 28.2671 84.6955 28.797C84.6955 29.4233 84.5955 30.1459 84.9955 30.6277C85.1455 30.8204 85.2955 30.9167 85.4955 30.9649C85.7955 31.0612 86.1454 31.1094 86.4454 31.0612C86.8454 31.0612 87.1454 30.9167 87.4454 30.724C88.1953 30.1941 88.3953 29.0379 88.3453 28.0744C88.9953 28.3634 89.6453 28.6525 90.2952 28.8934C91.5952 29.4233 92.9451 29.905 94.295 30.3386C95.095 30.5795 95.945 30.8204 96.7949 30.9649C98.1948 31.1576 99.6448 30.9649 101.045 30.8204C101.195 30.8204 101.295 30.8204 101.445 30.7722C101.695 30.7722 101.945 30.6758 102.195 30.5795C102.395 30.4831 102.595 30.3868 102.645 30.1941C102.845 29.8087 102.895 29.3751 102.895 28.9415C102.895 28.4116 102.795 27.7371 102.495 27.3036C102.495 27.3036 102.495 27.2554 102.445 27.2072C102.395 27.1109 102.295 27.0627 102.245 27.0145C101.845 26.7736 101.295 26.8218 100.845 26.87C100.295 26.87 99.7948 26.9182 99.2448 26.9663C97.5449 27.0627 95.895 26.9663 94.295 26.4846C93.3951 26.1955 92.5451 25.8101 91.7452 25.3766C93.1951 24.7021 94.745 23.8349 96.045 22.7269C96.5949 22.2933 97.0949 21.8116 97.5449 21.3298C98.7448 19.9809 99.6448 18.4393 99.8448 16.7532C99.8948 16.2232 99.8948 15.6933 99.8448 15.1152C99.6948 13.8627 99.1948 12.5138 98.0949 11.7429C96.7949 10.8276 95.045 10.7313 93.4951 10.9721C91.4952 11.2612 89.7953 11.9838 88.4453 13.14C88.3953 13.1882 88.2953 13.2364 88.2453 13.3327L88.0453 13.4773ZM91.9452 16.5605C92.2951 16.3678 92.6951 16.1751 93.1451 16.0305C93.3451 15.9824 93.4951 15.9342 93.6951 15.886C93.7451 15.886 93.7951 15.886 93.8451 15.886C93.9951 15.886 94.145 15.886 94.295 15.886C94.295 15.886 94.345 15.886 94.395 15.886C94.595 15.886 94.745 15.886 94.895 15.9342C94.895 15.9342 94.895 15.9342 94.945 15.9342C95.095 15.9342 95.195 16.0305 95.295 16.1269C95.295 16.1269 95.395 16.1751 95.395 16.2233C95.495 16.3196 95.545 16.3678 95.645 16.5123C95.645 16.5123 95.695 16.6087 95.745 16.6568C95.845 16.8014 95.895 16.9941 95.895 17.2349C95.895 17.4758 95.895 17.6685 95.895 17.9094C95.695 18.9692 94.795 19.9327 94.0451 20.7036C92.5951 22.1488 90.1952 23.5941 88.0453 23.8349C88.0453 23.5459 88.1454 23.2087 88.1953 22.9196C88.2953 22.4379 88.3953 21.9561 88.5453 21.4744C88.8953 20.3181 89.3953 19.2101 90.1453 18.2948C90.6452 17.6685 91.2452 17.1386 91.9452 16.705V16.5605Z" fill="#6B3E43"/>
<path d="M134.994 15.7381C134.994 15.7381 134.994 16.1235 134.994 16.3162C134.994 19.0622 134.694 21.8082 134.544 24.5542C134.494 25.7104 134.394 26.8184 134.344 27.9746C134.344 28.7454 134.344 29.8534 135.094 30.287C135.944 30.7206 137.594 31.2024 138.394 30.3834C139.144 29.6126 138.944 28.3118 138.844 27.3483C138.544 23.2534 138.594 19.0622 138.044 14.9673C138.044 14.63 137.744 14.341 137.444 14.1483C137.094 13.9074 135.694 13.3293 135.394 13.8111C135.044 14.3892 135.044 15.0636 135.044 15.7381H134.994Z" fill="#6B3E43"/>
<path d="M156.243 13.2821C155.243 12.993 154.243 12.8966 153.243 12.8003C153.193 12.8003 152.543 12.7039 152.493 12.7521C153.093 11.5477 153.893 9.76525 152.243 8.94627C150.843 8.27182 149.593 9.42803 148.943 10.5361C148.743 10.8733 148.593 11.2587 148.443 11.5959C148.293 11.9331 148.143 12.3667 147.843 12.6558C147.743 12.7521 147.643 12.8003 147.543 12.8003C146.993 12.8003 146.394 12.9448 145.844 12.993C145.494 12.993 145.144 13.0412 144.794 13.0894C143.344 13.3302 141.044 13.812 141.144 15.6426C141.144 16.3171 141.644 16.7507 142.294 16.9434C142.944 17.1361 143.644 17.0879 144.294 17.0397C144.794 16.9915 145.344 16.8952 145.844 16.7988C146.194 16.7507 146.494 16.6543 146.744 16.6543C146.394 18.0996 146.144 19.7375 146.094 21.3273C146.044 23.3989 146.294 25.5668 147.343 27.4456C147.793 28.3127 148.443 29.1317 149.293 29.7098C150.143 30.2879 150.993 30.6252 151.943 30.8179C152.393 30.9142 152.893 31.0106 153.393 31.0106C153.643 31.0106 153.943 31.0106 154.193 31.0106C155.393 31.0106 156.693 30.7697 157.593 30.0471C157.843 29.8544 158.093 29.6135 158.293 29.2763C158.393 29.1317 158.443 28.939 158.493 28.7945C158.643 28.12 158.393 27.4456 157.893 27.012C157.293 26.5303 156.593 26.5303 155.893 26.6748C155.143 26.8193 154.443 27.1084 153.693 27.0602C152.843 27.0602 152.043 26.6266 151.543 25.9522C150.943 25.1814 150.693 24.266 150.593 23.3507C150.443 22.339 150.443 21.3273 150.493 20.3156C150.493 20.0748 150.493 19.8339 150.543 19.6412C150.643 18.7259 150.793 17.8105 151.043 16.8952C151.093 16.6543 151.193 16.4134 151.393 16.3171C151.593 16.2207 151.843 16.1726 152.043 16.1726C152.043 16.1726 152.043 16.1726 152.093 16.1726C152.593 16.1726 153.093 16.2207 153.543 16.3653C154.043 16.4616 154.493 16.6061 154.943 16.7507C155.693 16.9915 156.393 17.3288 157.193 17.4733C157.443 17.5215 157.693 17.5697 157.943 17.5697C158.393 17.5697 158.743 17.2324 158.943 16.8952C159.393 16.1244 159.243 15.2091 158.693 14.5346C158.093 13.812 157.243 13.4748 156.343 13.1857C156.343 13.1857 156.293 13.1857 156.243 13.1857V13.2821Z" fill="#6B3E43"/>
<path d="M135.443 11.6443C137.693 13.0414 140.643 11.1144 140.493 8.65744C140.493 8.41657 140.093 8.27204 139.993 8.51292C139.893 8.7538 139.743 8.99467 139.593 9.23555C139.293 9.76548 138.543 9.47642 138.843 8.89832C139.143 8.32022 139.443 7.79029 139.743 7.21219C139.793 7.11583 139.743 6.97131 139.743 6.87496C139.643 6.73043 139.493 6.63408 139.393 6.53773C139.293 6.44138 139.043 6.44138 138.943 6.58591C138.743 6.92313 138.043 8.70562 137.593 8.46474C137.043 8.17569 137.393 7.74211 137.643 7.26036C137.843 6.92313 138.043 6.58591 138.193 6.2005C138.293 6.05598 138.193 5.86328 138.043 5.8151C137.843 5.76693 137.643 5.71875 137.443 5.71875C137.343 5.71875 137.243 5.76693 137.193 5.86328C136.943 6.34503 136.693 6.82678 136.393 7.30854C136.193 7.69394 136.093 7.74211 135.693 7.54941C135.443 7.40489 135.593 7.11583 135.693 6.92313C135.693 6.82678 135.793 6.73043 135.843 6.68226C135.893 6.63408 135.943 6.53773 135.993 6.44138C135.993 6.3932 135.993 6.29685 135.993 6.24868C135.893 6.10415 135.743 6.10415 135.593 6.15233C135.443 6.2005 135.343 6.29685 135.193 6.3932C134.943 6.58591 134.743 6.77861 134.543 6.97131C134.393 7.16401 134.243 7.40489 134.093 7.64576C133.943 7.88664 133.893 8.12752 133.843 8.36839C133.793 8.60927 133.793 8.89832 133.843 9.1392C133.893 9.38007 133.943 9.66913 133.993 9.91C134.043 10.1509 134.193 10.3918 134.393 10.6326C134.543 10.8735 134.743 11.0662 134.993 11.2589C135.143 11.4034 135.293 11.4998 135.443 11.5961V11.6443Z" fill="#6B3E43"/>
</svg>
