<?xml version="1.0" encoding="UTF-8"?>
<svg id="_Слой_2" data-name="Слой 2" xmlns="http://www.w3.org/2000/svg" viewBox="0 0 655.15 206.65">
  <defs>
    <style>
      .cls-1 {
        fill: #592e2c;
        stroke-width: 0px;
      }
    </style>
  </defs>
  <g id="Layer_1" data-name="Layer 1">
    <g>
      <g>
        <path class="cls-1" d="m80.9,177.55c-3.84,4.23-8.95,3.96-14.5,4.01,6.84,7.1,10.7,15.31,14.49,23.84,3.23-9.6,9.66-16.76,15.85-24.41-6,1.37-11.37,1.07-15.84-3.44Z"/>
        <path class="cls-1" d="m26.78,79.25c-14.19-8.3-19.83-16.9-20.97-33.22-1-14.49,3.82-26.45,17.27-33.3,14.25-7.26,29.42-8.55,44.75-3.95,14.39,4.31,24.68,14.18,33.19,26.13,5.59,7.87,11.84,15.14,19.82,20.7,6.03,4.22,12.51,7.45,20.13,7.09,1.7-.08,4.37-.64,4.81-1.72.93-2.27-1.78-2.98-3.28-4.1-.1-.06-.35-.06-.48.02-.37.25.96,1.75,1.44,2.63.36.56.38,1.03-.58.84-.89-.2-5.45-1.64-11.96-5.46-9.18-5.6-16.9-13.03-24.28-20.89-5.03-5.37-10.05-10.79-15.5-15.72C75.21,3.89,56.82-2.95,35.16,1.2c-10.12,1.94-19.17,5.96-26.03,13.98C3.54,21.73,1.05,29.5.23,37.93c-1.83,18.79,7.17,35.09,26.55,41.32Z"/>
        <path class="cls-1" d="m155.47,62.39c2.43,5.13,4.01,10.55,2.55,16.23-2.5,9.68-11.56,15.48-21.82,14.22-19.75-2.43-38.09-9.06-54.55-20.06-9.25-6.18-17.44-13.95-26.21-20.88-2.38-1.88-4.96-3.72-7.76-4.8-4.75-1.85-9.02,1-10,6.14,3.62-3.41,6.11-3.83,10.4-1.22,3.81,2.32,7.51,4.86,11.09,7.52,12.12,8.98,23.93,18.39,37.86,24.62,13.87,6.19,27.7,12.2,43.26,12.9,16.78.78,27.59-12.86,21.99-28.71-4.86-13.77-15.05-22.56-28.35-27.94-4.79-1.94-9.75-3.32-14.79-3.43,5.55,2.26,11.35,4.24,16.81,6.92,8.37,4.1,15.42,9.82,19.51,18.5Z"/>
        <path class="cls-1" d="m79.01,147.92c-1.31-1.72-3.46-3.17-5.53-3.88-8.04-2.74-15.17-.64-21.53,4.72-3.63,3.06-7.15,6.29-11.01,9.03-5.02,3.57-12.35,1.98-13.21-6.12-4.41,5.28-3.16,12.66,2.55,16.15,5.37,3.27,11.26,2.85,17.11,2.07,7.06-.94,12.56-4.92,17.55-9.68,2.93-2.8,6.16-4.54,10.39-4.66,4.17-.12,6.2-4.32,3.69-7.64Z"/>
        <path class="cls-1" d="m34.18,56.72c.45,3.96,1.02,7.83,1.31,11.71.82,10.96,1.83,21.91-.19,32.86-.21,1.16.44,2.49.58,3.12,2.26-1.5,4.1-3.32,6.29-4.06,8.19-2.78,16.55-2.23,24.65.26,7.77,2.39,15.28,5.59,23.01,8.12,8.41,2.76,17.06,3.91,25.77,1.58,4.4-1.18,8.2-3.52,10.53-7.68-4.96,3.26-10.27,5.52-16.18,6.05-2.56.22-5.23.28-7.74-.18-4.06-.76-8.23-1.52-11.98-3.16-7.23-3.15-14.12-7.08-21.31-10.36-5.84-2.66-12.06-4.11-18.48-2.49-3.39.86-6.64,2.28-9.89,3.43,1.08-14.87-1.78-32.73-6.37-39.22Z"/>
        <path class="cls-1" d="m121.17,157.92c-1.62-1.09-3.17-2.29-4.67-3.54-2.66-2.2-5.2-4.55-7.9-6.68-6.07-4.81-12.91-6.18-20.21-3.63-2.12.75-4.32,2.37-5.57,4.22-2.17,3.18-.32,7.13,3.45,7.2,5.41.08,9.03,2.95,12.58,6.34,7.3,6.98,16.09,9.52,25.95,8.3,2.49-.32,5.08-1.29,7.26-2.58,5.51-3.29,6.64-11.55,2.06-15.83-.45,7.91-8.05,9.52-12.93,6.22Z"/>
      </g>
      <g>
        <path class="cls-1" d="m446.37,140.61c-1.39,0-2.81-.85-3.68-1.89-.74-.89-1.23-1.95-1.69-3.01-1.69-3.91-3-7.97-4.47-11.96-1.09-2.96-2.15-5.61-3.15-7.89-1.05-2.36-1.66-2.86-1.88-2.97l-.12-.06-.13.02c-.69.09-1.3.63-1.81,1.6-.65,1.27-1.21,2.9-1.65,4.85-.46,2-.87,4.17-1.24,6.44-.38,2.33-.87,4.55-1.47,6.58-.62,2.1-1.47,3.88-2.54,5.29-1.16,1.53-2.67,2.31-4.48,2.31-2.72,0-3.84-1.43-4.31-2.64-.79-2.05-1.03-4.29-.86-6.47s.87-4.3,1.48-6.42c1.4-4.8,3.15-9.5,5.19-14.07,1.27-2.88,2.65-5.57,4.11-8.02,1.45-2.43,2.92-4.44,4.38-6,1.57-1.67,3.14-2.52,4.64-2.52.93,0,1.9.76,3.05,2.4.98,1.41,2.02,3.16,3.09,5.2,1.03,1.98,2.09,4.2,3.13,6.6.59,1.37,1.13,2.75,1.69,4.13.28.71.57,1.41.87,2.11.15.34.29.68.45,1.02.08.19.24.72.47.79.3.08.67-.69.78-.87.95-1.61,1.79-3.26,2.67-4.9.8-1.48,1.62-2.94,2.43-4.42,1.48-2.63,2.97-5.09,4.45-7.3,1.66-2.5,3.1-3.66,4.51-3.66,1.95,0,3.84,1.45,5.76,4.43,1.79,2.79,3.44,6.11,4.9,9.87,1.49,3.81,2.73,7.75,3.69,11.69.85,3.48,1.42,7.04,1.54,10.62.09,2.6.11,5.87-2.46,7.35-1.09.62-2.18.93-3.22.93-2.18,0-3.73-4.89-4.44-6.51-2.68-6.09-3.78-12.69-5.82-18.99-.4-1.24-1.34.77-1.55,1.17-3.66,6.78-5.51,14.2-8.18,21.38-1.17,3.14-2.91,3.79-4.17,3.79Z"/>
        <path class="cls-1" d="m165.39,184.39c.77.3,1.91.32,2.71.18,9.37-1.58,20.3-4.41,26.51-12.12,7.35-9.12,11.82-20.15,15.47-31.17,3.76-11.34,7.55-22.88,10.43-34.47.74-2.96,1.56-6.52,4.21-8.39.26-.19.57-.29.89-.3.57-.01,1.03.39,1.39.79.32.36.59.76.82,1.18.25.45.45.92.62,1.4s.33,1.01.47,1.52.26,1.03.37,1.55.21.99.32,1.48c.07.31.14.63.22.94,1.07,4.28,1.67,8.63,2.42,12.97,1.52,8.74,2.86,17.51,4.13,26.27.19,1.35.37,3.01.65,4.76.28,1.75.66,3.59,1.24,5.27.59,1.69,1.38,3.23,2.49,4.38,1.11,1.15,2.53,1.93,4.37,2.08.1,0,.21-.01.31-.01.06,0,.11,0,.17,0,.04,0,.07-.02.11-.03,3.77-.26,6.94-4.92,8.85-7.79,6.15-9.23,10.37-19.48,14.61-29.68,2.14-5.14,4.03-10.67,6.12-15.94,1.08-2.71,4.19-13.53,7.89-13.51,2.61.02,3.8,5.29,4.19,7.21.7,3.71,1.39,7.36,1.9,11.08.22,1.55.41,3.12.6,4.68.37,3.14.69,6.3,1.06,9.47.36,3.16.76,6.32,1.27,9.46,1.01,6.18,2.11,13.83,5.88,19.03.59.81,1.29,1.58,2.18,2.04,3.92,1.99,6.15-2.93,7.25-5.71,6.1-15.4.09-32.85-3.38-48.1-.81-3.55-1.64-7.11-2.52-10.66-.86-3.49-1.77-6.98-2.73-10.44-1.06-3.82-2.08-7.56-3.39-11.32-.77-2.21-1.74-4.39-3.29-6.14-2-2.26-4.76-3.52-7.67-2.42-.04.01-.07.02-.11.03-5.11,2.01-7.83,7.48-10.31,12.01-3.16,5.75-5.67,11.83-8.32,17.82-2.02,4.56-3.91,9.17-5.79,13.78-1.89,4.61-3.76,9.22-5.75,13.79-.43.98-.85,1.97-1.25,2.96-.28.69-.54,1.39-.84,2.07-.1.22-.19.45-.34.64-.05.07-.11.12-.19.16-.07.04-.16.1-.25.1-.09,0-.18-.06-.25-.1-.15-.1-.27-.24-.37-.39-.47-.69-.7-1.5-.98-2.28-1.32-3.74-2.12-7.7-2.97-11.56-.83-3.83-1.54-7.67-2.21-11.5-.41-2.39-.71-4.81-1.04-7.23-.33-2.42-.69-4.83-1.24-7.18-.19-.8-.38-1.61-.57-2.42-.39-1.63-.82-3.29-1.31-4.93-1.4-4.65-3.55-10.75-7.98-13.43-8.24-4.98-14.37,11.11-16.05,16.55-.23.75-.46,1.48-.69,2.18-2.94,8.72-5.91,17.44-9,26.12-3.14,8.83-6.37,17.63-9.88,26.31-3.58,8.85-7,17.02-13.14,24.42-5.45,6.63-11.36,12.89-17.36,19.08-.1.11-.23.23-.37.36-.27.27-.6.58-.87.91-.99,1.18-.59,1.86.25,2.19Z"/>
        <path class="cls-1" d="m600.74,132.38c.11,1.33.35,2.79,1.08,3.93,1.01,1.59,2.84,1.95,4.57,1.48,3.62-.98,4.85-4.37,5.18-7.79.27-2.62-.02-5.41-.04-8.05-.01-1.48-.47-7.11.56-9.03,2.03,4.07,4.59,7.87,7.22,11.6,2.86,4.04,6.98,11.99,12.98,10.79,5.73-1.14,8.01-7.95,8.49-13.02.81-8.64-.87-17.45-5.08-25.06-1.26-2.28-2.62-4.55-4.33-6.53-1.93-2.24-5.94-5.67-7.51-1.03-.79,2.34.75,4.8,1.55,6.92.98,2.6,1.82,5.27,2.56,7.95,1.37,4.95,2.31,10.13,1.94,15.28-.03.4-.07.8-.11,1.19.02-.16-.67-.78-.78-.92-.3-.36-.6-.73-.9-1.1-.57-.71-1.12-1.44-1.66-2.17-1.07-1.45-2.09-2.93-3.09-4.44-1.95-2.95-3.89-5.91-5.86-8.85-1.63-2.44-3.56-4.86-6.27-6.14-.59-.28-1.26-.39-1.89-.15-1.07.41-1.57,1.61-1.95,2.6-2.6,6.74-4.05,13.86-5.46,20.93-.3,1.5-.67,2.95-.82,4.48-.12,1.25-.23,2.51-.35,3.76-.1,1.14-.03,2.23-.03,3.37Z"/>
        <path class="cls-1" d="m577.83,87.47c-1.95-.09-3.92.07-5.83.38-.04,0-.09,0-.13.02-1.53.25-3.01.59-4.35,1-4.27,1.28-8.11,3.6-11.25,6.63-2.09,2.02-3.87,4.36-5.25,6.9-2.08,3.82-3.27,8.12-3.32,12.56-.06,4.84,1.04,9.63,3.3,13.67,1.13,2.02,2.55,3.85,4.26,5.41,2.63,2.39,5.83,4.17,9.44,4.26,3.64.08,7.18-1.08,10.51-2.43,3.09-1.25,6.06-2.69,8.85-4.54,1.84-1.23,3.61-2.59,5.24-4.08,3.34-3.05,6.34-7.27,7.99-11.84,1.65-4.58,1.95-9.51-.08-14.01-.42-.94-.95-1.77-1.51-2.55-.12-.17-.25-.34-.38-.51-1.79-2.24-4.31-3.87-7.09-4.56-.18-.04-.36-.07-.54-.11-1.81-.37-3.6-.38-5.42-.05-.24.04-.49.11-.73.17-.69.16-1.37.37-2.05.62-.26.1-.52.19-.77.3-.88.39-1.75.83-2.59,1.4-8.86,5.97-14.83,17.32-19.16,26.99-.34-.86-.6-1.73-.77-2.61-.18-.88-.27-1.76-.29-2.63-.02-.88.03-1.76.14-2.63.23-1.74.72-3.46,1.41-5.1.7-1.65,1.6-3.22,2.65-4.68.53-.73,1.09-1.43,1.68-2.1,2-2.23,4.42-4.1,7.08-5.62,4.4-2.52,9.34-4.07,14.37-4.67.64-.08,1.31-.22,1.89-.43.58-.21,1.08-.47,1.38-.79.15-.16.26-.33.3-.52.24-1-1.22-1.75-1.93-2.12-2.14-1.13-4.65-1.61-7.05-1.72Zm-5.93,23.14c1.47-2.76,3.43-5.2,6.1-6.92,2.55-1.64,6.14-2.43,9.08-1.48.67.22,1.31.5,1.85.93,2.78,2.21,1.71,7.14.47,9.8-.74,1.58-1.89,3.04-3.2,4.37-3.4,3.46-7.52,6.36-12.1,8.04-.92.34-1.87.61-2.83.83-1.71.39-3.52.6-5.28.51,1.48-5.51,3.18-11.01,5.9-16.08Z"/>
        <path class="cls-1" d="m650.55,156.69c-1.79-.86-3.73-1.03-5.68-1.21-15.09-1.41-30.44-1.33-45.58-1.62-14.4-.28-28.81-.42-43.21-.42-30.34,0-60.7.46-91.03,1.57-14.4.53-28.79,1.19-43.18,2.02-29.95,1.73-59.89,3.98-89.71,7.31-27.02,3.02-54.03,6.84-80.56,12.86-5.66,1.29-11.25,2.81-16.87,4.22-2.74.69-5.42,1.39-8.03,2.09-.89.24-1.73.49-2.61.74-1.69.47-3.39.94-5.02,1.42-.95.28-1.85.56-2.79.84-1.48.45-2.98.89-4.4,1.34-1,.31-1.94.63-2.91.94-1.28.41-2.59.83-3.82,1.24-1.02.34-1.97.68-2.96,1.02-1.12.38-2.26.77-3.33,1.15-.99.35-1.92.69-2.87,1.04-.99.36-2,.72-2.95,1.07-.96.36-1.86.7-2.77,1.06-.86.33-1.74.66-2.56.98-.91.36-1.75.7-2.62,1.04-.74.3-1.52.6-2.22.89-.86.35-1.66.68-2.47,1.02-.62.26-1.27.53-1.86.77-.79.33-1.51.64-2.24.96-.53.23-1.1.47-1.6.69-.71.31-1.35.59-1.99.88-.43.19-.89.39-1.29.57-.69.31-1.33.6-1.93.88-.25.12-.54.24-.77.35-.87.4-1.63.75-2.29,1.05-.11.05-.21.1-.31.14-.45.21-.88.41-1.22.56-.18.08-.32.14-.47.21-.2.09-.41.18-.55.23-.03.01-.09.04-.12.05.05-.02.07-.02.13-.04.13-.05.33-.13.52-.2.17-.07.32-.13.54-.22.27-.11.58-.24.92-.39.43-.18.89-.38,1.43-.61.43-.18.83-.35,1.32-.56.43-.18.9-.38,1.38-.58.47-.2.92-.39,1.45-.6.52-.22,1.1-.45,1.67-.68.55-.23,1.08-.44,1.68-.68.61-.25,1.28-.51,1.94-.77.64-.25,1.25-.5,1.93-.76.72-.28,1.49-.57,2.25-.86.71-.27,1.38-.53,2.13-.81.82-.31,1.71-.63,2.58-.94.77-.28,1.51-.55,2.31-.84.92-.33,1.91-.67,2.88-1.01.83-.29,1.64-.57,2.51-.87,1-.34,2.06-.68,3.1-1.03.93-.31,1.82-.61,2.78-.91,1.09-.35,2.24-.7,3.37-1.05.98-.31,1.94-.61,2.95-.92,1.24-.37,2.55-.75,3.84-1.12.98-.29,1.93-.57,2.94-.86,1.4-.39,2.86-.78,4.31-1.17.98-.26,1.92-.53,2.92-.79,1.57-.41,3.21-.81,4.84-1.21.95-.23,1.85-.47,2.82-.71,2.62-.63,5.3-1.24,8.05-1.84,24.84-6.05,54.84-10.28,87.13-13.22,7.17-.65,14.46-1.24,21.83-1.77,30.1-2.17,60.27-3.37,90.44-4.03,30.26-.67,60.54-.84,90.79-.11,2.44.06,4.88.2,7.32.2,23.34.69,46.66,1.3,69.98,2.48,1.07.05,2.15.11,3.22.17,9.99.47,20,1.01,29.97,1.8,1.07.09,7.27.69,9.06.86,2.34.23,4.73.03,6.77-1.23,1.72-1.06,3.12-2.77,3.33-4.83.32-2.97-1.54-5.78-4.56-7.24Z"/>
        <path class="cls-1" d="m322.02,126.25c-2.15,3.96-3.6,9.91.04,13.48.38.38.8.69,1.26.95,1.89,1.05,4.33.7,6-.64,2.14-1.72,2.15-4.5,2.46-6.96.03-.22.07-.47.12-.72.1-.51.24-1.07.44-1.61.2-.54.46-1.06.78-1.48.49-.64,1.14-1.09,1.99-1.1.88,0,1.76-.01,2.65-.03,2.22-.04,4.45-.06,6.69-.09.52,0,.88-.03,1.15-.04.04,0,.09,0,.13,0,.17,0,.28.02.4.13.06.06.11.18.14.33,0,.06.03.15.03.22.02.22.04.49.08.86.19,1.89.28,3.84.93,5.65.74,2.09,2.16,3.32,4.23,4.01.4.14.81.25,1.23.31,1.41.21,2.71-.26,3.2-1.67.63-1.84.22-4.24.15-6.16-.07-2.47-.24-4.95-.43-7.4-.1-1.28-.24-2.57-.37-3.85-.52-5.08-1.27-10.2-2.48-15.17-.17-.68-.39-1.33-.57-2-.37-1.39-.73-2.78-1.18-4.13-.34-1.01-.78-2.39-1.39-3.66-.61-1.27-1.39-2.41-2.4-2.94-.37-.2-.8-.32-1.24-.4-.14-.02-.28-.03-.42-.04-.06,0-.11,0-.17,0-.17-.01-.33-.01-.5,0-.05,0-.11,0-.16,0-.39.02-.77.09-1.15.19-.17.05-.35.07-.52.13-.6.22-1.63.69-1.76,1.4-.04.22-.09.44-.15.66-.14.46-.35.91-.58,1.33-.52.94-1.19,1.79-1.87,2.62-.86,1.04-1.79,2.02-2.59,3.11-1.85,2.48-3.62,5.01-5.37,7.54-1.58,2.28-2.96,4.69-4.34,7.09-.67,1.16-.6,1.66-1.88,1.68-1.36.01-2.66.21-3.94.51-.14.03-.27.12-.35.24-.17.24-.14.58-.15.86-.02.45-.05.92.06,1.36.11.41.82.77,1.04.94.38.29.68.62.89.97s.35.73.41,1.13.04.8-.04,1.2-.24.81-.45,1.21Zm14.14-4.39h0c.09-.25.84-1.98,1.09-2.61,2.01-5.08,4.23-10.08,7.48-14.45h0s2.21,5.29,2.8,8.07c.59,2.78.89,5.63,1.03,8.53-2.37.45-4.72.63-7.07.67-.22,0-1.67,0-2.18-.02-1.05-.04-2.1-.06-3.15-.18Z"/>
        <path class="cls-1" d="m374.15,95.8c-1.5,1.41-2.85,3.05-3.99,4.98-1.04.12-2.31.39-3.19,1.05-.29.22-.54.49-.72.8-.17.3-.19.76-.17,1.23.02.47.08.94.08,1.26,0,.88-.01,1.76-.02,2.63,0,.88,0,1.74-.02,2.63-.05,3.45-.07,6.89-.09,10.34,0,.16,0,.32,0,.49-.01,2.87-.03,5.75-.07,8.62-.02,1.31-.04,2.63-.11,3.94-.08,1.53-.21,3.29.75,4.6.31.42.72.71,1.22.88.71.25,1.54.31,2.29.26.96-.06,1.73-.35,2.34-.8,1.84-1.34,2.28-4.13,2.13-6.55,1.53.71,3.07,1.41,4.63,2.07,3.12,1.33,6.31,2.55,9.54,3.57,1.96.62,3.94,1.24,5.98,1.52,3.39.47,6.8.06,10.18-.31.31-.04.63-.08.94-.14.63-.11,1.24-.27,1.74-.5.51-.23.91-.52,1.12-.9.51-.91.65-1.98.6-3.07-.07-1.31-.27-2.97-1-4.1-.04-.07-.09-.13-.14-.19-.15-.19-.32-.35-.51-.46-.97-.63-2.23-.47-3.32-.37-1.26.12-2.53.18-3.8.25-4.06.25-8,.09-11.88-1.24-2.11-.73-4.15-1.69-6.1-2.78,3.52-1.62,7.16-3.83,10.34-6.52,1.27-1.08,2.46-2.23,3.54-3.45,2.92-3.31,4.96-7.14,5.46-11.34.16-1.32.18-2.67,0-4.06-.41-3.16-1.51-6.42-4.21-8.33-3.14-2.22-7.31-2.45-11-1.89-4.73.72-8.8,2.51-12.08,5.42-.16.14-.31.29-.46.43Zm9.32,7.61c.87-.52,1.81-.97,2.83-1.33.43-.15.87-.27,1.33-.37.13-.03.25-.05.38-.07.36-.06.71-.1,1.06-.11.08,0,.17-.03.25-.03.03,0,.06.01.09.01.42,0,.83.05,1.21.15.06.02.1.05.16.06.32.1.61.25.88.43.1.07.19.15.28.24.21.19.39.42.54.68.07.11.14.21.19.34.18.41.32.87.37,1.44.04.57-.02,1.11-.12,1.65-.51,2.67-2.59,5.01-4.37,6.88-3.49,3.61-9.17,7.15-14.34,7.8.1-.77.23-1.55.37-2.32.22-1.22.46-2.43.8-3.61.81-2.9,2.01-5.65,3.77-7.95,1.17-1.53,2.6-2.86,4.33-3.9Z"/>
        <path class="cls-1" d="m486.32,101.45c0,.48,0,.96,0,1.43-.11,6.82-.71,13.62-1.11,20.42-.16,2.82-.37,5.65-.47,8.47-.07,1.86-.1,4.64,1.8,5.68,1.97,1.08,6.02,2.22,7.86.3,1.78-1.86,1.28-5.2,1.11-7.53-.77-10.22-.63-20.57-1.91-30.73-.12-.88-.69-1.54-1.46-2.04-.87-.56-4.22-2.03-4.91-.79-.82,1.47-.89,3.14-.89,4.78Z"/>
        <path class="cls-1" d="m537.22,95.41c-2.35-.66-4.78-1-7.21-1.21-.17-.01-1.7-.23-1.75-.14,1.43-3.04,3.35-7.39-.62-9.39-3.32-1.68-6.33,1.24-7.84,3.91-.48.85-.85,1.75-1.21,2.65-.36.89-.72,1.94-1.4,2.64-.19.2-.43.4-.72.42-1.37.08-2.72.31-4.08.49-.83.11-1.66.15-2.49.3-3.49.56-8.98,1.82-8.78,6.3.07,1.62,1.18,2.78,2.7,3.26,1.5.48,3.25.39,4.8.23,1.23-.13,2.45-.35,3.67-.58.8-.16,1.55-.31,2.16-.42-.78,3.64-1.4,7.63-1.52,11.64-.15,5.18.51,10.56,2.95,15.21,1.13,2.15,2.63,4.16,4.6,5.59s4.07,2.23,6.32,2.74c1.13.26,2.28.43,3.43.52.64.05,1.28.08,1.92.08.03,0,.06,0,.09,0,2.81,0,5.96-.57,8.16-2.44.62-.53,1.19-1.12,1.61-1.87.23-.4.38-.8.49-1.21.41-1.62-.2-3.32-1.47-4.39-1.41-1.2-3.08-1.23-4.81-.86-1.77.39-3.44,1.07-5.29,1-2.06-.08-3.94-1.1-5.15-2.75-1.38-1.87-2.01-4.19-2.32-6.47-.34-2.48-.38-5-.19-7.49.04-.57.1-1.14.16-1.71.26-2.25.57-4.58,1.16-6.76.15-.57.39-1.18.89-1.49.43-.27,1.11-.35,1.61-.35.04,0,.08,0,.13,0,1.19,0,2.35.17,3.5.43,1.15.26,2.28.61,3.39.98,1.79.61,3.46,1.4,5.33,1.81.57.13,1.16.23,1.75.19,1.06-.07,1.94-.78,2.44-1.69,1.05-1.88.66-4.2-.65-5.84-1.38-1.74-3.5-2.69-5.58-3.29-.06-.02-.13-.04-.19-.05Z"/>
        <path class="cls-1" d="m487.41,91.29c5.44,3.43,12.41-1.28,12.11-7.36-.03-.64-.91-.95-1.24-.35-.29.6-.6,1.16-.91,1.75-.72,1.35-2.48.55-1.77-.78.73-1.39,1.45-2.76,2.18-4.15.14-.28.11-.59-.09-.81-.27-.3-.55-.59-.87-.85-.29-.27-.83-.26-1.04.14-.44.82-2.2,5.25-3.25,4.69-1.37-.73-.44-1.84.15-2.94.45-.86.9-1.72,1.36-2.59.19-.34.05-.87-.4-.96-.54-.13-.95-.18-1.49-.26-.21-.02-.48.15-.57.33-.63,1.19-1.25,2.37-1.88,3.58-.5.94-.76,1.04-1.65.58-.62-.32-.28-1.12-.05-1.59.11-.22.23-.43.36-.64s.27-.41.33-.65c.04-.16,0-.34-.09-.48-.18-.3-.6-.41-.91-.24s-.63.4-.92.61c-.56.42-1.08.91-1.52,1.47-.42.52-.77,1.09-1.04,1.7s-.45,1.21-.56,1.85-.13,1.27-.07,1.9.2,1.27.42,1.88.53,1.22.91,1.76c.4.58.87,1.1,1.4,1.56.35.31.73.59,1.12.84Z"/>
      </g>
    </g>
  </g>
</svg>