<?xml version="1.0" encoding="UTF-8"?>
<svg id="_Слой_2" data-name="Слой 2" xmlns="http://www.w3.org/2000/svg" viewBox="0 0 655.15 343.04">
  <defs>
    <style>
      .cls-1 {
        fill: #808285;
      }

      .cls-1, .cls-2, .cls-3 {
        stroke-width: 0px;
      }

      .cls-3 {
        fill: #c92434;
      }
    </style>
  </defs>
  <g id="Layer_1" data-name="Layer 1">
    <g>
      <path class="cls-2" d="m212.71,221.02c0,1.12.47,2.14,1.4,3.03.93.89,1.87,1.31,2.8,1.31,3.54,0,5.32,1.73,5.32,5.18s-1.77,5.32-5.32,5.32h-26.58c-3.45,0-5.18-1.77-5.18-5.32s1.73-5.18,5.18-5.18c.93,0,1.86-.42,2.8-1.31.93-.89,1.4-1.91,1.4-3.03v-68.54c0-1.12-.47-2.1-1.4-2.98-.93-.89-1.87-1.35-2.8-1.35-3.45,0-5.18-1.77-5.18-5.32s1.73-5.18,5.18-5.18h80.85c3.54,0,5.32,1.73,5.32,5.18s-1.77,5.32-5.32,5.32c-.93,0-1.87.47-2.8,1.35-.93.89-1.4,1.87-1.4,2.98v67.98c0,1.12.47,2.14,1.4,3.03.93.89,1.86,1.31,2.8,1.31,3.54,0,5.32,1.72,5.32,5.18s-1.77,5.32-5.32,5.32h-26.58c-3.45,0-5.18-1.77-5.18-5.32s1.73-5.18,5.18-5.18c.93,0,1.87-.42,2.8-1.31.93-.89,1.4-1.91,1.4-3.03l.14-72.18-36.23-.14v72.88Z"/>
      <path class="cls-2" d="m339.58,175.98c0,3.54-2.42,7.65-7.27,12.31-2.8,2.61-8.02,6.76-15.67,12.45-6.99,5.13-11.66,8.95-13.99,11.47,1.86,8.58,7.65,12.87,17.34,12.87,2.05,0,4.43-.33,7.13-.98s4.66-.98,5.87-.98c3.08,0,4.62,1.49,4.62,4.48,0,2.14-1.4,4.15-4.2,6.01-4.01,2.7-9.84,4.06-17.48,4.06-9.33,0-17.16-3.12-23.5-9.37-6.81-6.71-10.21-15.53-10.21-26.44s2.75-18.6,8.25-24.76c5.13-5.78,11.56-8.67,19.3-8.67,4.1,0,8.07,1.03,11.84,3.08,3.78,2.05,5.55,3.08,5.36,3.08.65,0,1.82-.61,3.5-1.82,1.68-1.21,3.22-1.82,4.62-1.82,2.98,0,4.48,1.68,4.48,5.04h0Zm-22.94,7.41c0-3.26-1.77-4.9-5.32-4.9-5.69,0-8.81,6.85-9.37,20.56,5.97-4.01,9-6.06,9.09-6.15,3.73-3.17,5.6-6.34,5.6-9.51h0Z"/>
      <path class="cls-2" d="m381.83,209.27c-1.96,2.42-4.57,4.24-7.83,5.41-3.26,1.17-6.39,1.73-9.37,1.73-4.2,0-7.6-1.45-10.21-4.34-2.89-2.98-4.34-7.13-4.34-12.45v-14.55c0-2.7-1.21-4.9-3.64-6.57-2.33-1.77-3.5-3.4-3.5-4.9,0-2.24,1.26-3.36,3.78-3.36h5.74c1.68,0,3.31.37,4.85,1.12,1.54.75,2.89,1.77,4.1,3.08,1.21,1.31,2.19,2.8,2.89,4.48.7,1.68,1.03,3.45,1.03,5.32l.14,9.79c0,4.94,2.14,7.41,6.43,7.41,2.52,0,4.8-.84,6.85-2.52,2.05-1.68,3.08-4.2,3.08-7.55v-6.29c0-1.12-.47-2.1-1.4-2.98-.93-.89-1.87-1.35-2.8-1.35-3.45,0-5.18-1.77-5.18-5.32s1.73-5.18,5.18-5.18h23.64c3.54,0,5.32,1.73,5.32,5.18s-1.77,5.32-5.32,5.32c-.93,0-1.86.47-2.8,1.35-.93.89-1.4,1.87-1.4,2.98v36.09c0,1.12.47,2.14,1.4,3.03.93.89,1.87,1.31,2.8,1.31,3.54,0,5.32,1.77,5.32,5.32s-1.77,5.18-5.32,5.18h-23.64c-3.45,0-5.18-1.72-5.18-5.18s1.73-5.32,5.18-5.32c.93,0,1.86-.42,2.8-1.31.93-.89,1.4-1.91,1.4-3.03v-11.89Z"/>
      <path class="cls-2" d="m437.64,205.63h-.56v15.39c0,1.12.47,2.14,1.4,3.03.93.89,1.87,1.31,2.8,1.31,3.54,0,5.32,1.73,5.32,5.18s-1.77,5.32-5.32,5.32h-23.64c-3.45,0-5.18-1.77-5.18-5.32s1.73-5.18,5.18-5.18c.93,0,1.86-.42,2.8-1.31.93-.89,1.4-1.91,1.4-3.03v-36.09c0-1.12-.47-2.1-1.4-2.98-.93-.89-1.87-1.35-2.8-1.35-3.45,0-5.18-1.73-5.18-5.18s1.73-5.32,5.18-5.32h23.64c3.54,0,5.32,1.77,5.32,5.32s-1.77,5.18-5.32,5.18c-.93,0-1.86.47-2.8,1.35-.93.89-1.4,1.87-1.4,2.98v10.21h24.76v-10.21c0-1.12-.47-2.1-1.4-2.98s-1.87-1.35-2.8-1.35c-3.45,0-5.18-1.73-5.18-5.18s1.73-5.32,5.18-5.32h23.64c3.54,0,5.32,1.77,5.32,5.32s-1.77,5.18-5.32,5.18c-.93,0-1.87.47-2.8,1.35-.93.89-1.4,1.87-1.4,2.98v36.09c0,1.12.47,2.14,1.4,3.03.93.89,1.86,1.31,2.8,1.31,3.54,0,5.32,1.73,5.32,5.18s-1.77,5.32-5.32,5.32h-23.64c-3.45,0-5.18-1.77-5.18-5.32s1.73-5.18,5.18-5.18c.93,0,1.87-.42,2.8-1.31s1.4-1.91,1.4-3.03v-15.39h-24.2Z"/>
      <path class="cls-2" d="m567.3,184.79c0-1.12-.47-2.1-1.4-2.98s-1.87-1.35-2.8-1.35c-3.45,0-5.18-1.72-5.18-5.18s1.72-5.32,5.18-5.32h23.64c3.54,0,5.32,1.77,5.32,5.32s-1.77,5.18-5.32,5.18c-.93,0-1.87.47-2.8,1.35s-1.4,1.87-1.4,2.98v36.09c0,1.12.47,2.14,1.4,3.03s1.86,1.31,2.8,1.31c3.54,0,5.32,1.72,5.32,5.18s-1.77,5.32-5.32,5.32h-23.64c-3.45,0-5.18-1.77-5.18-5.32s1.72-5.18,5.18-5.18c.93,0,1.87-.42,2.8-1.31s1.4-1.91,1.4-3.03v-36.09Zm-36.93,8.25c1.77,0,3.54.05,5.27.14,1.72.09,3.5.28,5.36.56,5.13.93,8.95,3.03,11.47,6.29,2.52,3.26,3.92,6.95,4.2,11.05.19,2.33,0,4.66-.56,6.99-.56,2.33-1.45,4.57-2.66,6.67-1.21,2.1-2.75,3.96-4.62,5.6s-4.01,2.89-6.43,3.82c-1.87.65-4.29,1.12-7.32,1.35s-7.74.33-14.08.33h-23.78c-3.54,0-5.32-1.72-5.32-5.18,0-1.96.51-3.22,1.49-3.78.98-.56,2.05-.98,3.26-1.26,1.21-.28,2.33-.61,3.31-1.03.98-.42,1.45-1.49,1.45-3.17l.14-36.37c0-1.12-.47-2.1-1.4-2.98s-1.87-1.35-2.8-1.35c-3.45,0-5.18-1.73-5.18-5.18s1.73-5.32,5.18-5.32h23.64c3.54,0,5.32,1.77,5.32,5.32s-1.77,5.18-5.32,5.18c-.93,0-1.87.47-2.8,1.35-.93.89-1.4,1.87-1.4,2.98v7.97h13.57Zm-13.71,27.14c0,1.12.47,2.14,1.4,3.08.93.93,1.87,1.4,2.8,1.4h9.37c1.59-.09,3.03-.51,4.34-1.31,1.31-.79,2.42-1.82,3.31-3.03.89-1.21,1.54-2.52,2-3.96.47-1.45.7-2.94.7-4.43,0-2.42-.75-4.57-2.28-6.48s-3.96-3.03-7.23-3.31l-14.41-.14v18.18Z"/>
      <path class="cls-2" d="m655.15,175.98c0,3.54-2.42,7.65-7.27,12.31-2.8,2.61-8.02,6.76-15.67,12.45-6.99,5.13-11.66,8.95-13.99,11.47,1.87,8.58,7.65,12.87,17.34,12.87,2.05,0,4.43-.33,7.13-.98s4.66-.98,5.87-.98c3.08,0,4.62,1.49,4.62,4.48,0,2.14-1.4,4.15-4.2,6.01-4.01,2.7-9.84,4.06-17.49,4.06-9.33,0-17.16-3.12-23.5-9.37-6.81-6.71-10.21-15.53-10.21-26.44s2.75-18.6,8.25-24.76c5.13-5.78,11.56-8.67,19.3-8.67,4.1,0,8.07,1.03,11.84,3.08,3.78,2.05,5.55,3.08,5.36,3.08.65,0,1.82-.61,3.5-1.82,1.68-1.21,3.22-1.82,4.62-1.82,2.98,0,4.48,1.68,4.48,5.04h0Zm-22.94,7.41c0-3.26-1.77-4.9-5.32-4.9-5.69,0-8.81,6.85-9.37,20.56,5.97-4.01,9-6.06,9.09-6.15,3.73-3.17,5.6-6.34,5.6-9.51h0Z"/>
      <path class="cls-2" d="m186.66,313.99c-3.33,0-5-1.67-5-5,0-1.67.44-2.81,1.27-3.46.83-.66,2.06-1.01,3.73-1.01.88,0,1.75-.39,2.63-1.23s1.31-1.8,1.31-2.85v-34.32c0-1.05-.44-1.97-1.31-2.81-.88-.83-1.75-1.27-2.63-1.27-3.33,0-5-1.62-5-4.87s1.67-5,5-5h22.22c3.24,0,4.87,1.67,4.87,5s-1.62,4.87-4.87,4.87c-.88,0-1.75.44-2.63,1.27-.88.83-1.31,1.75-1.31,2.81v33.92c0,.53.26,1.05.79,1.53.53.48,1.14.92,1.84,1.31s1.4.7,2.1.92c.7.22,1.27.31,1.71.31h10.12c.88,0,1.75-.39,2.63-1.23.88-.83,1.32-1.8,1.32-2.85v-33.92c0-1.05-.44-1.97-1.32-2.81-.88-.83-1.75-1.27-2.63-1.27-3.24,0-4.87-1.62-4.87-4.87s1.62-5,4.87-5h22.22c3.33,0,5,1.67,5,5s-1.67,4.87-5,4.87c-.88,0-1.75.44-2.63,1.27-.88.83-1.31,1.75-1.31,2.81v33.92c0,1.05.44,2.02,1.31,2.85s1.75,1.23,2.63,1.23h13.15c.88,0,1.75-.39,2.63-1.23s1.31-1.8,1.31-2.85v-33.92c0-1.05-.44-1.97-1.31-2.81-.88-.83-1.75-1.27-2.63-1.27-3.24,0-4.87-1.62-4.87-4.87s1.62-5,4.87-5h22.22c3.33,0,5,1.67,5,5s-1.67,4.87-5,4.87c-.88,0-1.75.44-2.63,1.27-.88.83-1.31,1.75-1.31,2.81v34.32c0,1.05.44,2.02,1.31,2.85s1.75,1.23,2.63,1.23c1.67,0,2.94.35,3.77,1.01.83.66,1.23,1.8,1.23,3.46,0,3.33-1.67,5-5,5h-92.44Z"/>
      <path class="cls-2" d="m351.28,272.96c0-4.65-2.02-6.97-6.05-6.97-4.82,0-7.23,3.16-7.23,9.47v24.59c0,2.19,1.14,4.16,3.37,5.92,2.24,1.75,3.33,3.37,3.33,4.87,0,2.1-1.18,3.16-3.55,3.16h-5.39c-3.24,0-6.05-1.32-8.46-3.94-2.41-2.63-3.64-5.7-3.64-9.2v-27.88c0-4.65-2.02-6.97-6.05-6.97-4.82,0-7.23,3.16-7.23,9.47v24.59c0,1.05.44,2.02,1.31,2.85s1.75,1.23,2.63,1.23c3.33,0,5,1.62,5,4.87s-1.67,5-5,5h-22.22c-3.24,0-4.87-1.67-4.87-5s1.62-4.87,4.87-4.87c.88,0,1.75-.39,2.63-1.23.88-.83,1.31-1.8,1.31-2.85v-33.92c0-1.05-.44-1.97-1.31-2.81-.88-.83-1.75-1.27-2.63-1.27-3.24,0-4.87-1.67-4.87-5s1.62-4.87,4.87-4.87h18.28v6.44c3.68-4.47,8.33-6.71,13.94-6.71,5.96,0,10.08,2.81,12.36,8.42,4.3-5.61,9.38-8.42,15.25-8.42,3.94,0,7.23,1.4,9.82,4.21,2.59,2.81,3.86,6.66,3.86,11.57v33.27c0,2.54,1.14,4.65,3.38,6.27,2.24,1.62,3.33,3.11,3.33,4.51,0,2.1-1.18,3.16-3.55,3.16h-5.39c-3.24,0-6.05-1.31-8.46-3.94-2.41-2.63-3.64-5.7-3.64-9.2v-28.8Z"/>
      <path class="cls-2" d="m408.74,281.64l8.42,17.36,11.83-33.27c.09-.88-.18-1.71-.79-2.5-.61-.79-1.32-1.18-2.1-1.18-3.24,0-4.87-1.67-4.87-5s1.62-4.87,4.87-4.87h18.67c3.33,0,5,1.62,5,4.87s-1.67,5-5,5c-.88,0-1.93.44-3.16,1.27-1.23.83-2.02,1.75-2.37,2.81l-16.96,49.97c-2.98,8.59-6.4,14.95-10.26,19.07-5,5.26-11.66,7.89-19.99,7.89-7.54,0-13.11-2.06-16.7-6.18-2.8-3.24-4.21-7.28-4.21-12.1,0-4.3,1.49-8.06,4.47-11.31,2.98-3.24,6.53-4.87,10.65-4.87s7.49,1.36,9.86,4.08c2.1,2.37,3.16,5.08,3.16,8.15,0,2.72-.83,4.91-2.5,6.57-1.4,1.4-2.85,2.1-4.34,2.1-4.03,0-6.09-1.18-6.18-3.55,2.54-.44,3.81-2.15,3.81-5.13,0-2.02-1.27-3.02-3.81-3.02-1.67,0-3.07.7-4.21,2.1s-1.71,3.02-1.71,4.87c0,6.05,3.9,9.07,11.7,9.07,8.41,0,14.81-6.18,19.2-18.54-2.19-3.16-6.31-5.96-12.36-8.42-4.91-2.02-7.36-3.94-7.36-5.79,0-1.31.92-2.63,2.76-3.94,1.93-1.31,2.89-2.45,2.89-3.42,0-.88-.22-1.75-.66-2.63l-13.28-24.98c-1.4-2.72-2.8-4.08-4.21-4.08-3.33,0-5-1.67-5-5s1.67-4.87,5-4.87h24.98c3.33,0,5,1.62,5,4.87s-1.67,5-5,5c-.7,0-1.36.35-2.02,1.01-.66.66-1.01,1.36-1.01,2.15,0,.26.09.57.26.92l7.49,15.52Z"/>
      <path class="cls-2" d="m488.42,289c-1.84,2.28-4.3,3.99-7.36,5.08-3.07,1.1-6,1.62-8.81,1.62-3.94,0-7.14-1.36-9.6-4.08-2.72-2.81-4.08-6.71-4.08-11.7v-13.67c0-2.54-1.14-4.6-3.42-6.18-2.19-1.67-3.29-3.2-3.29-4.6,0-2.1,1.18-3.16,3.55-3.16h5.39c1.58,0,3.11.35,4.56,1.05,1.45.7,2.72,1.67,3.86,2.89,1.14,1.23,2.06,2.63,2.72,4.21.66,1.58.96,3.24.96,5l.13,9.2c0,4.65,2.02,6.97,6.05,6.97,2.37,0,4.51-.79,6.44-2.37,1.93-1.58,2.89-3.94,2.89-7.1v-5.92c0-1.05-.44-1.97-1.31-2.81-.88-.83-1.75-1.27-2.63-1.27-3.24,0-4.87-1.67-4.87-5s1.62-4.87,4.87-4.87h22.22c3.33,0,5,1.62,5,4.87s-1.67,5-5,5c-.88,0-1.75.44-2.63,1.27-.88.83-1.31,1.75-1.31,2.81v33.92c0,1.05.44,2.02,1.31,2.85.88.83,1.75,1.23,2.63,1.23,3.33,0,5,1.67,5,5s-1.67,4.86-5,4.86h-22.22c-3.24,0-4.87-1.62-4.87-4.86s1.62-5,4.87-5c.88,0,1.75-.39,2.63-1.23.88-.83,1.31-1.8,1.31-2.85v-11.18Z"/>
      <path class="cls-2" d="m524.45,265.99c0-1.58-.44-2.59-1.36-3.02-.92-.44-1.93-.79-3.02-1.1-1.1-.31-2.1-.75-3.02-1.31-.92-.57-1.4-1.8-1.4-3.64,0-3.24,1.67-4.87,5-4.87h18.15v27.22c3.24-4.73,6.09-8.81,8.55-12.23,2.45-3.42,4.78-6.18,6.92-8.33,2.15-2.15,4.25-3.77,6.36-4.82,2.1-1.05,4.47-1.58,7.1-1.58,4.56-.09,7.98,1.14,10.21,3.64,2.24,2.5,3.33,5.39,3.33,8.72,0,1.49-.31,2.94-.96,4.3-.66,1.36-1.53,2.5-2.63,3.46-1.1.96-2.32,1.75-3.68,2.32-1.36.57-2.76.83-4.16.83-2.19,0-3.9-.7-5.13-2.15-1.23-1.45-1.84-2.76-1.84-3.9,0-.79.39-1.67,1.14-2.63.75-.96,1.71-1.58,2.94-1.84.35,1.4,1.01,2.1,1.97,2.1.53,0,.96-.26,1.31-.79.35-.53.53-1.1.53-1.71,0-1.49-.31-2.59-.96-3.29-.66-.7-1.53-1.01-2.59-.96-1.05.04-2.19.39-3.42,1.1-1.23.7-2.41,1.67-3.55,2.89-1.75,1.93-3.46,3.9-5.13,5.87-1.67,1.97-3.46,4.82-5.39,8.59.26,2.54,1.31,4.47,3.16,5.74,1.84,1.27,4.6,1.67,8.28,1.23l8.15,14.2c.96,1.75,2.15,2.85,3.51,3.24,1.36.39,2.67.7,3.94.92,1.27.22,2.37.57,3.29,1.1.92.53,1.36,1.75,1.36,3.68,0,3.33-1.67,5-5,5h-16.96l-16.44-26.82c-.88,1.23-1.67,2.37-2.37,3.37-.7,1.01-1.27,1.88-1.71,2.67l-.13,6.84c0,1.58.48,2.63,1.4,3.11.92.48,1.93.83,3.07,1.1s2.19.7,3.11,1.27,1.36,1.71,1.36,3.46c0,3.33-1.67,5-5,5h-22.22c-3.24,0-4.87-1.67-4.87-5,0-1.75.48-2.89,1.4-3.46.92-.57,1.93-1.01,3.02-1.32,1.1-.31,2.1-.7,3.02-1.14.92-.44,1.36-1.45,1.36-3.02v-34.06Z"/>
      <path class="cls-2" d="m631.87,266.12c0-1.05-.44-1.97-1.31-2.81-.88-.83-1.75-1.27-2.63-1.27-3.24,0-4.87-1.62-4.87-4.87s1.62-5,4.87-5h22.22c3.33,0,5,1.67,5,5s-1.67,4.87-5,4.87c-.88,0-1.75.44-2.63,1.27-.88.83-1.31,1.75-1.31,2.81v33.92c0,1.05.44,2.02,1.31,2.85.88.83,1.75,1.23,2.63,1.23,3.33,0,5,1.62,5,4.87s-1.67,5-5,5h-22.22c-3.24,0-4.87-1.67-4.87-5s1.62-4.87,4.87-4.87c.88,0,1.75-.39,2.63-1.23.88-.83,1.31-1.8,1.31-2.85v-20.64l-23.27,20.77c0,.96.44,1.88,1.31,2.72.88.83,1.75,1.23,2.63,1.23,3.33,0,5,1.62,5,4.87s-1.67,5-5,5h-22.22c-3.24,0-4.87-1.67-4.87-5s1.62-4.87,4.87-4.87c.88,0,1.75-.39,2.63-1.23.88-.83,1.31-1.8,1.31-2.85v-33.92c0-1.05-.44-1.97-1.31-2.81-.88-.83-1.75-1.27-2.63-1.27-3.24,0-4.87-1.62-4.87-4.87s1.62-5,4.87-5h22.22c3.33,0,5,1.67,5,5s-1.67,4.87-5,4.87c-.88,0-1.75.44-2.63,1.27-.88.83-1.31,1.75-1.31,2.81v21.43l23.27-21.3v-.13Z"/>
      <path class="cls-1" d="m60.69.17c4.2,1.41,9.09,7.88,11.93,12.15,9.48,14.28,9.3,28.77-5.12,41.86-27.18,24.66-21.3,48.84-.13,73.28.64.73,1.19,1.37,1.58,2.18.12.25.22,1-.57,1.24-1.07.32-2.3-.49-2.94-.93-21.66-14.61-36.91-30.64-37.59-50-.29-8.41,4.72-15.98,12.96-22.71,18.83-15.38,23.1-32.08,17.76-49.93-.64-2.14-2.22-4.71-.96-6.5.6-.86,2.08-.98,3.07-.64Z"/>
      <path class="cls-1" d="m96.37,43.87c8.56,3.69,11.77,12.2,12.14,16.59.54,6.4-1.65,13.64-7.27,18.94-16.92,15.96-15.35,31.48-1.89,47.47.95,1.12,2.2,2.55,2.17,3.28-.04,1.06-1.45.65-1.97.45-24.32-11.9-33.05-34.03-17.11-48.85,11.64-10.83,15.21-21.84,11.44-33.92-.34-1.08-.73-2.45-.04-3.32.54-.69,1.73-.97,2.53-.63Z"/>
      <g>
        <path class="cls-3" d="m80.43,177.82c-6.29,0-12.57-.02-18.85,0-6.87.03-10.3-3.09-10.82-10.21-1.25-17.12,1.31-20.17,18.45-20.27,10.17-.06,20.36-.24,30.52.23,10.52.48,12.54,3.7,12.18,17.35-.28,10.6-2.2,12.58-12.62,12.96-.6.02-1.2.03-1.8.03-5.69,0-11.37,0-17.06,0v-.09Z"/>
        <path class="cls-3" d="m23.35,177.94c-2.7,0-5.4.02-8.11,0C1.68,177.78.05,176.17,0,162.98c-.05-13.87,1.54-15.52,15.47-15.61,7.2-.05,14.41.03,21.61.15,6.18.1,9.37,3.34,9.55,9.53.03,1.2.1,2.4.13,3.6.4,16.05-.78,17.24-17.11,17.28-2.1,0-4.2,0-6.3,0Z"/>
        <path class="cls-3" d="m138.13,177.91c-2.4,0-4.8.02-7.21,0-14.21-.1-15.39-1.3-15.32-15.48.07-13.35,1.65-14.98,15.09-15.08,7.2-.06,14.41.05,21.62.12,6.64.06,9.9,3.51,9.97,10.09.02,2.1.12,4.2.09,6.3-.15,12.08-1.93,13.84-14.32,14.04-3.3.05-6.61,0-9.91.01Z"/>
      </g>
      <g>
        <path class="cls-3" d="m48.6,213.79c-7.19,0-14.38.09-21.57-.03-5.32-.08-8.35-2.82-8.64-8.27-.05-.9-.1-1.79-.14-2.69-1.04-20.41-.26-21.24,20.27-21.24,9.89,0,19.78.12,29.66.07,7.33-.04,10.79,3.26,11.24,10.8,1.2,20.18.13,21.52-20.03,21.53-3.6,0-7.19,0-10.79,0,0-.05,0-.11,0-.16Z"/>
        <path class="cls-3" d="m113.56,213.91c-6.29,0-12.59-.17-18.88.04-7.8.26-11.36-2.99-11.67-11.09-.77-20.39-.14-21.3,20.31-21.3,9.89,0,19.78.12,29.66.05,7.31-.05,10.83,3.15,11.3,10.72,1.24,20.22.13,21.6-19.94,21.62-3.6,0-7.19,0-10.79,0v-.05Z"/>
        <path class="cls-3" d="m48.84,250.1c6.28,0,12.56.14,18.84-.03,8.41-.23,12.08,3.89,11.71,12.07-.03.6.01,1.2.02,1.79.33,17.16-.9,18.46-17.89,18.49-11.07.02-22.13-.09-33.2-.07-6.62.01-9.58-3.17-10.09-9.8-1.63-20.96-.34-22.5,20.74-22.51,3.29,0,6.58,0,9.87,0v.07Z"/>
        <path class="cls-3" d="m113.53,282.32c-6.88,0-13.76,0-20.64,0-6.1,0-9.15-2.81-9.76-9.13-2.04-21.21-.41-23.16,20.99-23.15,9.87,0,19.74.09,29.61.1,7.01,0,10.48,3.49,10.47,10.49,0,2.39.1,4.79.08,7.18-.14,12.72-1.82,14.42-14.59,14.59-5.38.07-10.77.01-16.15.01v-.09Z"/>
        <path class="cls-3" d="m81.13,246.29c-6.6,0-13.21-.02-19.81,0-6.99.02-10.61-3.35-10.58-10.43.01-3.3,0-6.6.03-9.9.06-6.62,3.43-10,10.03-10.01,13.81-.02,27.61-.04,41.42.05,6.21.04,9.32,3.43,9.48,9.59.06,2.4.16,4.8.14,7.2-.12,11.88-1.63,13.38-13.59,13.59-.6.01-1.2.01-1.8.01-5.1,0-10.21,0-15.31,0v-.1Z"/>
        <path class="cls-3" d="m79.92,314.78c-5.99,0-11.99-.09-17.98.02-7.99.16-11.5-3.85-11.26-11.62.09-2.99.04-5.99.1-8.98.13-6.08,3.07-9.66,9.32-9.71,14.08-.1,28.16-.1,42.24,0,5.66.04,9.02,2.95,9.26,8.77.17,4.18.17,8.39,0,12.57-.23,5.81-3.55,8.72-9.22,8.82-7.49.12-14.98.03-22.47.03,0,.03,0,.07,0,.1Z"/>
        <path class="cls-3" d="m17.93,231.18c0-13.89,1.4-15.36,14.56-15.33,12.89.03,14.26,1.55,14.21,15.68-.05,13.33-1.47,14.83-14.12,14.88-13.25.05-14.65-1.41-14.65-15.23Z"/>
        <path class="cls-3" d="m17.93,299.54c0-13.76,1.44-15.25,14.68-15.22,12.81.03,14.16,1.54,14.1,15.79-.05,13.23-1.51,14.74-14.22,14.76-13.15.03-14.56-1.46-14.56-15.33Z"/>
        <path class="cls-3" d="m115.51,230.55c.06-13.19,1.55-14.75,14.11-14.73,12.81.03,14.66,1.97,14.66,15.37,0,13.25-1.89,15.18-14.85,15.17-12.6,0-13.97-1.57-13.91-15.82Z"/>
        <path class="cls-3" d="m115.51,299.65c-.01-13.83,1.47-15.42,14.38-15.35,12.58.06,14.43,2.08,14.39,15.64-.04,13.05-1.97,14.96-15.12,14.9-12.2-.06-13.64-1.66-13.65-15.19Z"/>
      </g>
    </g>
  </g>
</svg>