<svg width="17" height="19" viewBox="0 0 17 19" fill="none" xmlns="http://www.w3.org/2000/svg">
<path d="M16.9602 14.1698C16.7621 13.9368 16.0627 13.2479 14.7771 12.3364C13.4819 11.417 12.5268 10.8437 12.2528 10.71C12.2287 10.6982 12.2021 10.6939 12.1759 10.6975C12.1496 10.7011 12.1248 10.7125 12.1041 10.7306C11.6627 11.1107 10.9197 11.8088 10.8799 11.8465C10.6226 12.09 10.6226 12.09 10.412 12.0141C10.0416 11.88 8.89106 11.2054 7.88848 10.0957C6.88591 8.98602 6.24346 7.68401 6.12203 7.27543C6.05259 7.04243 6.05259 7.04243 6.27382 6.75831C6.30797 6.71431 6.94056 5.89379 7.28474 5.40684C7.30106 5.38391 7.31142 5.3565 7.3147 5.32756C7.31797 5.29862 7.31404 5.26924 7.30334 5.24257C7.18228 4.93959 6.66316 3.88524 5.83059 2.45499C5.0041 1.03564 4.381 0.263317 4.17001 0.0445688C4.15065 0.0243924 4.12672 0.0103565 4.10074 0.00394018C4.07476 -0.00247614 4.0477 -0.0010353 4.0224 0.00811072C3.28488 0.287994 2.57329 0.645121 1.89734 1.07462C1.24481 1.49352 0.627029 1.97521 0.0512005 2.51408C0.0310996 2.53295 0.0160296 2.55751 0.0076063 2.58512C-0.000816952 2.61273 -0.00227558 2.64235 0.00338675 2.67081C0.0826969 3.07897 0.461792 4.78287 1.63816 7.143C2.83844 9.55175 3.67025 10.7859 5.43291 12.7257C7.19556 14.6655 8.34841 15.6394 10.5319 16.9649C12.6691 18.264 14.2128 18.683 14.5817 18.7698C14.6075 18.776 14.6343 18.7743 14.6594 18.765C14.6844 18.7558 14.7068 18.7391 14.724 18.717C15.2118 18.0811 15.6479 17.3989 16.0271 16.6783C16.4159 15.9318 16.7393 15.146 16.9928 14.3315C17.0009 14.3038 17.0022 14.2742 16.9965 14.2458C16.9907 14.2173 16.9782 14.1911 16.9602 14.1698Z" fill="#600019"/>
</svg>
