<svg width="19" height="23" viewBox="0 0 19 23" fill="none" xmlns="http://www.w3.org/2000/svg">
<path d="M9.5 0.00744629C12.0196 0.00744629 14.4359 1.04596 16.2175 2.89454C17.9991 4.74311 19 7.25031 19 9.86459C19 13.9454 16.0022 18.2213 10.1333 22.7884C9.95062 22.9306 9.72839 23.0074 9.5 23.0074C9.27161 23.0074 9.04938 22.9306 8.86667 22.7884C2.99778 18.2213 0 13.9454 0 9.86459C0 7.25031 1.00089 4.74311 2.78249 2.89454C4.56408 1.04596 6.98044 0.00744629 9.5 0.00744629ZM9.5 6.57888C8.66015 6.57888 7.85469 6.92505 7.26083 7.54124C6.66696 8.15743 6.33333 8.99316 6.33333 9.86459C6.33333 10.736 6.66696 11.5717 7.26083 12.1879C7.85469 12.8041 8.66015 13.1503 9.5 13.1503C10.3399 13.1503 11.1453 12.8041 11.7392 12.1879C12.333 11.5717 12.6667 10.736 12.6667 9.86459C12.6667 8.99316 12.333 8.15743 11.7392 7.54124C11.1453 6.92505 10.3399 6.57888 9.5 6.57888Z" fill="#600019"/>
</svg>
