<svg width="244" height="60" viewBox="0 0 244 60" fill="none" xmlns="http://www.w3.org/2000/svg">
<path d="M135.866 31.9779C135.866 35.565 134.512 38.6099 131.238 38.6099C127.964 38.6099 125.894 35.4399 125.894 31.8528V17.2542H119.685V31.8528C119.685 35.4399 117.653 38.6099 114.341 38.6099C111.03 38.6099 109.713 35.565 109.713 31.9779V17.2959H103.616V31.9779C103.616 40.1532 107.041 44.9081 114.04 44.9081C117.239 44.9081 120.061 43.8237 122.282 39.9446L122.771 38.7767L123.26 39.9446C125.443 43.8237 128.303 44.9081 131.501 44.9081C138.463 44.9081 141.925 40.1532 141.925 31.9779V17.2959H135.829V31.9779H135.866ZM86.6071 17.2959C78.6293 17.2959 73.8125 23.6358 73.8125 31.4774C73.8125 39.3189 78.8551 45.6589 86.6824 45.6589C89.2413 45.6589 91.4616 44.9916 93.3055 43.782V56.5453H99.4018V31.0603C99.2512 23.3856 94.5097 17.2542 86.6448 17.2542L86.6071 17.2959ZM86.6071 39.5692C82.5053 39.5692 79.9088 35.6067 79.9088 31.5191C79.9088 27.4315 82.1666 23.5107 86.6071 23.5107C91.0476 23.5107 93.3055 27.3898 93.3055 31.5191C93.3055 35.6484 91.01 39.5692 86.6071 39.5692ZM243.755 32.9373V17.2959H243.68H237.471V18.4638V32.6036C237.207 35.8987 235.251 38.6099 232.165 38.6099C228.891 38.6099 227.536 35.565 227.536 31.9779V17.2959H221.44V31.9779C221.44 40.1532 224.864 44.9081 231.864 44.9081C233.896 44.9081 235.777 44.4493 237.471 43.1146V42.7392V43.5317C237.471 47.1188 235.439 50.2888 232.127 50.2888C230.998 50.2888 230.095 49.9134 229.418 49.3294C228.101 51.2064 226.37 52.6245 224.488 53.7507C226.219 55.6277 228.665 56.6288 231.826 56.6288C240.368 56.6288 243.642 50.8727 243.642 43.5734V42.7809H243.718V33.8966C243.718 33.8966 243.718 33.5212 243.755 33.3544C243.755 33.2292 243.755 33.1041 243.718 32.979L243.755 32.9373ZM213.349 38.6099C210.075 38.6099 208.721 35.565 208.721 31.9779V26.2636H216.585V20.4659H208.721V11.2062H202.624V20.4659H200.517L197.883 26.2636H202.624V31.9779C202.624 40.1532 206.049 44.9081 213.048 44.9081C215.344 44.9081 217.489 44.2825 219.295 42.4889C218.241 40.8622 217.451 38.2345 217.112 36.6912C216.209 37.8591 214.892 38.6099 213.312 38.6099H213.349ZM159.875 16.6285C151.897 16.6285 146.817 22.5931 146.817 30.8935C146.817 39.6109 151.86 45.4087 160.327 45.4087C164.052 45.4087 168.305 43.9905 170.901 40.9874L167.025 36.7329C165.633 38.3179 162.697 39.2772 160.44 39.2772C156.15 39.2772 153.515 36.858 153.102 33.4795H172.293C173.234 22.2594 168.116 16.6285 159.875 16.6285ZM153.214 27.8903C154.118 24.3449 156.789 22.5931 160.101 22.5931C163.601 22.5931 166.084 24.3449 166.498 27.8903H153.252H153.214ZM182.981 20.591L182.529 17.421H176.884V44.6579H182.981V30.3095C182.981 25.2626 185.916 23.3856 189.115 23.3856C191.109 23.3856 192.238 24.0112 193.517 25.1374L196.265 19.298C194.91 17.7964 192.464 16.7119 189.943 16.7119C187.421 16.7119 184.9 17.2125 183.018 20.591H182.981Z" fill="#231F20"/>
<path d="M21.3369 18.9987C23.2938 18.6233 24.9872 17.5806 26.5677 16.3293C27.9977 15.2031 29.5405 14.5357 31.3092 14.4106C33.2284 14.2854 34.9218 15.0362 36.5023 16.2458C37.8571 17.2886 39.2118 18.2479 40.8675 18.7067C43.2759 19.3741 45.4962 18.9153 47.5283 17.4971C51.4043 14.786 52.4956 9.48876 50.5764 5.19259C48.5443 0.687875 43.7652 -1.14738 39.7386 0.729586C38.3463 1.35524 37.1044 2.35628 35.7873 3.2322C34.395 4.19154 32.8897 4.69206 31.3092 4.65035C29.5782 4.65035 27.9977 3.85786 26.5677 2.73168C24.6485 1.23011 22.654 -0.104621 20.3585 0.0205101C17.348 -0.104621 15.0901 1.56379 13.8859 2.94023C11.1765 6.11022 10.8378 11.032 12.9452 14.6608C14.6762 17.664 18.2135 19.4992 21.3746 18.9153L21.3369 18.9987ZM46.6628 41.9394C44.4049 40.7298 42.0717 40.4795 39.7762 41.6474C38.4215 42.3148 37.1044 43.2324 35.825 44.1083C33.0779 45.9436 30.3308 46.1522 27.5085 44.3586C26.0785 43.441 24.7237 42.3565 23.2561 41.6474C20.6219 40.3544 17.9501 40.6881 15.5417 42.3982C10.612 45.9436 10.1228 53.2846 14.4881 57.6225C17.0093 60.1251 20.8477 60.5839 23.7829 58.9989C24.9872 58.3316 26.1161 57.4557 27.2827 56.6632C28.8255 55.6621 30.4813 55.1616 32.2876 55.3284C34.0563 55.4953 35.5239 56.3712 36.9539 57.4974C38.7226 58.8738 40.5665 59.9583 42.862 60C43.7275 59.8332 44.593 59.7497 45.4586 59.4578C48.582 58.415 50.5388 56.0375 51.2538 52.5756C52.1569 48.0291 50.3506 43.8998 46.7004 41.9394H46.6628ZM60.6616 23.7537C58.2532 20.7506 54.2267 19.7912 51.028 21.4596C49.6733 22.1687 48.3938 23.0863 47.0767 23.9205C44.8188 25.4221 42.4481 25.7141 40.0773 24.6296C38.7602 24.0457 37.5936 23.0446 36.3894 22.2521C33.1532 20.0832 29.9169 20.1249 26.6429 22.1687C25.7774 22.7109 24.9495 23.3783 24.0464 23.9205C21.7509 25.3804 19.3425 25.7141 16.8965 24.5045C15.8804 24.004 14.9396 23.2949 14.0365 22.5858C11.741 20.8757 9.25731 20.1666 6.54786 20.834C2.70947 21.835 0 25.7141 0 30.0937C0 33.8476 1.84394 37.101 4.89207 38.7277C7.14995 39.9373 9.48309 40.0624 11.7786 38.8946C13.0581 38.2272 14.2999 37.393 15.5041 36.5588C18.0254 34.8487 20.6219 34.4733 23.3314 35.8497C24.3474 36.3502 25.2506 37.1427 26.1913 37.7684C28.4492 39.3534 30.82 40.1042 33.5295 39.3534C35.1852 38.8946 36.6152 37.9769 37.9699 36.8925C40.3031 35.0989 42.7867 34.4316 45.4962 35.4743C46.5875 35.8914 47.6412 36.6839 48.6196 37.393C51.0656 39.1865 53.6245 40.2293 56.5974 39.2282C59.6455 38.2272 61.6776 36.0583 62.5432 32.6797C63.371 29.3846 62.7313 26.298 60.6239 23.6703L60.6616 23.7537Z" fill="#EC2227"/>
</svg>
