<?xml version="1.0" encoding="UTF-8"?>
<svg id="_Слой_2" data-name="Слой 2" xmlns="http://www.w3.org/2000/svg" viewBox="0 0 408.39 74.94">
  <defs>
    <style>
      .cls-1 {
        fill: #231f20;
      }

      .cls-1, .cls-2 {
        stroke-width: 0px;
      }

      .cls-2 {
        fill: #ec2227;
      }
    </style>
  </defs>
  <g id="Layer_1" data-name="Layer 1">
    <g>
      <g>
        <path class="cls-1" d="m210.67,34.31c0,5.94-2.47,10.96-8.49,10.96s-9.77-5.21-9.77-11.14V10.02h-11.36v24.11c0,5.94-3.74,11.14-9.77,11.14s-8.49-5.02-8.49-10.96V10.02h-11.14v24.29c0,13.52,6.3,21.37,19.09,21.37,5.85,0,11.05-1.83,15.07-8.22l.93-1.94.93,1.94c4.02,6.39,9.22,8.22,15.07,8.22,12.79,0,19.09-7.85,19.09-21.37V10.02h-11.14v24.29ZM120.41,10.02c-14.61,0-23.47,10.5-23.47,23.47s9.22,23.47,23.56,23.47c4.66,0,8.75-1.14,12.15-3.09v21.07h11.14v-42.11h-.03c-.3-12.66-8.99-22.81-23.35-22.81Zm0,36.81c-7.49,0-12.24-6.58-12.24-13.33s4.11-13.24,12.24-13.24,12.24,6.39,12.24,13.24-4.2,13.33-12.24,13.33Zm287.9-10.96V10.02l-.13.02v-.02h-11.36v1.91h-.05v23.39c-.47,5.42-4.1,9.95-9.72,9.95-6.03,0-8.49-5.02-8.49-10.96V10.02h-11.14v24.29c0,13.52,6.3,21.37,19.09,21.37,3.73,0,7.2-.75,10.27-2.95v-.62h.05v1.28c0,5.94-3.74,11.14-9.77,11.14-2.06,0-3.7-.6-4.97-1.61-2.39,3.12-5.58,5.42-9.04,7.29,3.15,3.07,7.62,4.73,13.47,4.73,15.62,0,21.68-9.52,21.68-21.55v-1.28h.13v-14.69c.03-.31.05-.62.08-.93-.04-.21-.06-.42-.08-.63ZM254.66,8.92c-14.61,0-23.93,9.86-23.93,23.56,0,14.43,9.22,24.02,24.75,24.02,6.85,0,14.61-2.37,19.36-7.31l-7.12-7.03c-2.56,2.65-7.95,4.2-12.06,4.2-7.85,0-12.69-4.02-13.43-9.59h35.16c1.74-18.54-7.67-27.86-22.74-27.86Zm-12.24,18.63c1.64-5.85,6.58-8.77,12.6-8.77,6.39,0,10.96,2.92,11.69,8.77h-24.29Zm110.2,17.72c-6.03,0-8.49-5.02-8.49-10.96v-9.43h14.42v-9.59h-14.42V0h-11.14v15.29h-3.84l-4.83,9.59h8.67v9.43c0,13.52,6.3,21.37,19.09,21.37,4.24,0,8.12-1.01,11.47-3.99-1.93-2.67-3.39-7.05-3.97-9.58-1.68,1.93-4.04,3.16-6.96,3.16Zm-55.68-29.77l-.82-5.21h-10.32v45.03h11.14v-23.75c0-8.31,5.39-11.42,11.23-11.42,3.65,0,5.75,1,8.04,2.92l5.02-9.68c-2.47-2.47-6.94-4.29-11.6-4.29s-9.22.82-12.69,6.39Z"/>
        <path class="cls-2" d="m55.8,45.36c-2.69-1.32-5.49-1.57-8.26-.33-1.64.74-3.19,1.72-4.73,2.65-3.27,1.98-6.57,2.21-9.94.28-1.7-.98-3.31-2.14-5.09-2.93-3.17-1.39-6.36-1.04-9.24.83-5.92,3.83-6.48,11.76-1.24,16.46,3.01,2.7,7.61,3.21,11.11,1.48,1.46-.72,2.8-1.68,4.21-2.52,1.84-1.1,3.82-1.63,5.98-1.43,2.11.2,3.88,1.14,5.57,2.33,2.11,1.48,4.34,2.66,7.07,2.7,1.03-.19,2.09-.29,3.09-.59,3.72-1.14,6.09-3.71,6.92-7.43,1.1-4.92-1.09-9.37-5.44-11.5Zm-30.34-24.76c2.35-.39,4.35-1.53,6.26-2.87,1.71-1.2,3.57-1.95,5.67-2.05,2.32-.11,4.33.69,6.2,2,1.61,1.13,3.25,2.17,5.21,2.67,2.87.74,5.53.25,7.97-1.29,4.64-2.92,5.96-8.63,3.65-13.28-2.42-4.88-8.14-6.85-12.98-4.84-1.66.69-3.17,1.74-4.71,2.69-1.66,1.02-3.46,1.57-5.37,1.54-2.09-.03-3.95-.85-5.66-2.06C29.38,1.49,27,.03,24.25.19c-3.59-.14-6.31,1.65-7.74,3.16-3.22,3.42-3.65,8.73-1.14,12.64,2.08,3.24,6.31,5.22,10.09,4.6Zm47.12,5.11c-2.88-3.23-7.71-4.27-11.54-2.48-1.63.77-3.17,1.74-4.72,2.67-2.68,1.61-5.53,1.96-8.4.78-1.56-.64-2.96-1.69-4.42-2.58-3.87-2.35-7.77-2.3-11.66-.08-1.05.6-2.04,1.29-3.09,1.9-2.74,1.6-5.61,1.92-8.54.63-1.21-.54-2.33-1.3-3.43-2.05-2.74-1.87-5.73-2.63-8.97-1.88C3.22,23.67,0,27.87,0,32.6c0,4.05,2.19,7.56,5.87,9.31,2.72,1.29,5.51,1.43,8.26.18,1.55-.71,3-1.64,4.45-2.53,3-1.86,6.12-2.25,9.35-.76,1.2.55,2.28,1.38,3.41,2.09,2.71,1.71,5.56,2.52,8.78,1.69,1.98-.51,3.68-1.5,5.31-2.64,2.78-1.95,5.78-2.65,9.01-1.52,1.33.46,2.55,1.29,3.74,2.08,2.94,1.93,6,3.05,9.56,2,3.66-1.08,6.11-3.44,7.13-7.06,1.01-3.58.23-6.91-2.28-9.72Z"/>
      </g>
      <path class="cls-1" d="m210.67,34.31c0,5.94-2.47,10.96-8.49,10.96s-9.77-5.21-9.77-11.14V10.02h-11.36v24.11c0,5.94-3.74,11.14-9.77,11.14s-8.49-5.02-8.49-10.96V10.02h-11.14v24.29c0,13.52,6.3,21.37,19.09,21.37,5.85,0,11.05-1.83,15.07-8.22l.93-1.94.93,1.94c4.02,6.39,9.22,8.22,15.07,8.22,12.79,0,19.09-7.85,19.09-21.37V10.02h-11.14v24.29ZM120.41,10.02c-14.61,0-23.47,10.5-23.47,23.47s9.22,23.47,23.56,23.47c4.66,0,8.75-1.14,12.15-3.09v21.07h11.14v-42.11h-.03c-.3-12.66-8.99-22.81-23.35-22.81Zm0,36.81c-7.49,0-12.24-6.58-12.24-13.33s4.11-13.24,12.24-13.24,12.24,6.39,12.24,13.24-4.2,13.33-12.24,13.33Zm287.9-10.96V10.02l-.13.02v-.02h-11.36v1.91h-.05v23.39c-.47,5.42-4.1,9.95-9.72,9.95-6.03,0-8.49-5.02-8.49-10.96V10.02h-11.14v24.29c0,13.52,6.3,21.37,19.09,21.37,3.73,0,7.2-.75,10.27-2.95v-.62h.05v1.28c0,5.94-3.74,11.14-9.77,11.14-2.06,0-3.7-.6-4.97-1.61-2.39,3.12-5.58,5.42-9.04,7.29,3.15,3.07,7.62,4.73,13.47,4.73,15.62,0,21.68-9.52,21.68-21.55v-1.28h.13v-14.69c.03-.31.05-.62.08-.93-.04-.21-.06-.42-.08-.63Zm-55.7,9.41c-6.03,0-8.49-5.02-8.49-10.96v-9.43h14.42v-9.59h-14.42V0h-11.14v15.29h-3.84l-4.83,9.59h8.67v9.43c0,13.52,6.3,21.37,19.09,21.37,4.24,0,8.12-1.01,11.47-3.99-1.93-2.67-3.39-7.05-3.97-9.58-1.68,1.93-4.04,3.16-6.96,3.16Zm-55.68-29.77l-.82-5.21h-10.32v45.03h11.14v-23.75c0-8.31,5.39-11.42,11.23-11.42,3.65,0,5.75,1,8.04,2.92l5.02-9.68c-2.47-2.47-6.94-4.29-11.6-4.29s-9.22.82-12.69,6.39Zm-42.28-6.58c-14.61,0-23.93,9.86-23.93,23.56,0,14.43,9.22,24.02,24.75,24.02,6.85,0,14.61-2.37,19.36-7.31l-7.12-7.03c-2.56,2.65-7.95,4.2-12.06,4.2-7.85,0-12.69-4.02-13.43-9.59h35.16c1.74-18.54-7.67-27.86-22.74-27.86Zm-12.24,18.63c1.64-5.85,6.58-8.77,12.6-8.77,6.39,0,10.96,2.92,11.69,8.77h-24.29Z"/>
      <path class="cls-2" d="m25.46,20.6c2.35-.39,4.35-1.53,6.26-2.87,1.71-1.2,3.57-1.95,5.67-2.05,2.32-.11,4.33.69,6.2,2,1.61,1.13,3.25,2.17,5.21,2.67,2.87.74,5.53.25,7.97-1.29,4.64-2.92,5.96-8.63,3.65-13.28-2.42-4.88-8.14-6.85-12.98-4.84-1.66.69-3.17,1.74-4.71,2.69-1.66,1.02-3.46,1.57-5.37,1.54-2.09-.03-3.95-.85-5.66-2.06C29.38,1.49,27,.03,24.25.19c-3.59-.14-6.31,1.65-7.74,3.16-3.22,3.42-3.65,8.73-1.14,12.64,2.08,3.24,6.31,5.22,10.09,4.6Zm47.12,5.11c-2.88-3.23-7.71-4.27-11.54-2.48-1.63.77-3.17,1.74-4.72,2.67-2.68,1.61-5.53,1.96-8.4.78-1.56-.64-2.96-1.69-4.42-2.58-3.87-2.35-7.77-2.3-11.66-.08-1.05.6-2.04,1.29-3.09,1.9-2.74,1.6-5.61,1.92-8.54.63-1.21-.54-2.33-1.3-3.43-2.05-2.74-1.87-5.73-2.63-8.97-1.88C3.22,23.67,0,27.87,0,32.6c0,4.05,2.19,7.56,5.87,9.31,2.72,1.29,5.51,1.43,8.26.18,1.55-.71,3-1.64,4.45-2.53,3-1.86,6.12-2.25,9.35-.76,1.2.55,2.28,1.38,3.41,2.09,2.71,1.71,5.56,2.52,8.78,1.69,1.98-.51,3.68-1.5,5.31-2.64,2.78-1.95,5.78-2.65,9.01-1.52,1.33.46,2.55,1.29,3.74,2.08,2.94,1.93,6,3.05,9.56,2,3.66-1.08,6.11-3.44,7.13-7.06,1.01-3.58.23-6.91-2.28-9.72Zm-16.78,19.66c-2.69-1.32-5.49-1.57-8.26-.33-1.64.74-3.19,1.72-4.73,2.65-3.27,1.98-6.57,2.21-9.94.28-1.7-.98-3.31-2.14-5.09-2.93-3.17-1.39-6.36-1.04-9.24.83-5.92,3.83-6.48,11.76-1.24,16.46,3.01,2.7,7.61,3.21,11.11,1.48,1.46-.72,2.8-1.68,4.21-2.52,1.84-1.1,3.82-1.63,5.98-1.43,2.11.2,3.88,1.14,5.57,2.33,2.11,1.48,4.34,2.66,7.07,2.7,1.03-.19,2.09-.29,3.09-.59,3.72-1.14,6.09-3.71,6.92-7.43,1.1-4.92-1.09-9.37-5.44-11.5Z"/>
    </g>
  </g>
</svg>