<svg width="35" height="35" viewBox="0 0 35 35" fill="none" xmlns="http://www.w3.org/2000/svg">
<path fill-rule="evenodd" clip-rule="evenodd" d="M1.45825 4.02422C1.45825 3.41251 1.96385 2.91663 2.58754 2.91663H3.69339C5.78165 2.91663 7.54311 4.44175 7.80213 6.47408L8.1016 8.8238H29.4477C31.0587 8.8238 32.2925 10.229 32.0536 11.7916L30.4391 22.3482C30.135 24.3362 28.3938 25.8069 26.3442 25.8069H11.9567C9.90702 25.8069 8.1658 24.3362 7.86176 22.3482L5.98789 10.0957L5.98412 10.0688L5.561 6.74884C5.44326 5.82505 4.6426 5.13182 3.69339 5.13182H2.58754C1.96385 5.13182 1.45825 4.63593 1.45825 4.02422ZM8.416 11.039L10.0953 22.0196C10.2335 22.9232 11.025 23.5917 11.9567 23.5917H26.3442C27.2758 23.5917 28.0673 22.9232 28.2055 22.0196L29.82 11.463C29.8541 11.2397 29.6779 11.039 29.4477 11.039H8.416Z" fill="#510017"/>
<path d="M28.1847 30.6065C28.1847 31.4221 27.5106 32.0833 26.679 32.0833C25.8474 32.0833 25.1733 31.4221 25.1733 30.6065C25.1733 29.7909 25.8474 29.1297 26.679 29.1297C27.5106 29.1297 28.1847 29.7909 28.1847 30.6065Z" fill="#510017"/>
<path d="M13.1275 30.6065C13.1275 31.4221 12.4534 32.0833 11.6218 32.0833C10.7902 32.0833 10.1161 31.4221 10.1161 30.6065C10.1161 29.7909 10.7902 29.1297 11.6218 29.1297C12.4534 29.1297 13.1275 29.7909 13.1275 30.6065Z" fill="#510017"/>
</svg>
