<svg viewBox="0 0 100 100" xmlns="http://www.w3.org/2000/svg">

    <symbol id="time" viewBox="0 0 19 19" fill="none" xmlns="http://www.w3.org/2000/svg">
        <path d="M9.5 0.00744629C8.25244 0.00744629 7.0171 0.253171 5.86451 0.730591C4.71191 1.20801 3.66464 1.90778 2.78249 2.78993C1.00089 4.57153 0 6.98789 0 9.50745C0 12.027 1.00089 14.4434 2.78249 16.225C3.66464 17.1071 4.71191 17.8069 5.86451 18.2843C7.0171 18.7617 8.25244 19.0074 9.5 19.0074C12.0196 19.0074 14.4359 18.0066 16.2175 16.225C17.9991 14.4434 19 12.027 19 9.50745C19 8.25989 18.7543 7.02455 18.2769 5.87195C17.7994 4.71936 17.0997 3.67209 16.2175 2.78993C15.3354 1.90778 14.2881 1.20801 13.1355 0.730591C11.9829 0.253171 10.7476 0.00744629 9.5 0.00744629ZM13.49 13.4974L8.55 10.4574V4.75745H9.975V9.69745L14.25 12.2624L13.49 13.4974Z" fill="#600019"/>
    </symbol>

    <symbol id="pin" viewBox="0 0 19 23" fill="none" xmlns="http://www.w3.org/2000/svg">
        <path d="M9.5 0.00744629C12.0196 0.00744629 14.4359 1.04596 16.2175 2.89454C17.9991 4.74311 19 7.25031 19 9.86459C19 13.9454 16.0022 18.2213 10.1333 22.7884C9.95062 22.9306 9.72839 23.0074 9.5 23.0074C9.27161 23.0074 9.04938 22.9306 8.86667 22.7884C2.99778 18.2213 0 13.9454 0 9.86459C0 7.25031 1.00089 4.74311 2.78249 2.89454C4.56408 1.04596 6.98044 0.00744629 9.5 0.00744629ZM9.5 6.57888C8.66015 6.57888 7.85469 6.92505 7.26083 7.54124C6.66696 8.15743 6.33333 8.99316 6.33333 9.86459C6.33333 10.736 6.66696 11.5717 7.26083 12.1879C7.85469 12.8041 8.66015 13.1503 9.5 13.1503C10.3399 13.1503 11.1453 12.8041 11.7392 12.1879C12.333 11.5717 12.6667 10.736 12.6667 9.86459C12.6667 8.99316 12.333 8.15743 11.7392 7.54124C11.1453 6.92505 10.3399 6.57888 9.5 6.57888Z" fill="#600019"/>
    </symbol>

    <symbol id="phone" viewBox="0 0 17 19" fill="none" xmlns="http://www.w3.org/2000/svg">
        <path d="M16.9602 14.1698C16.7621 13.9368 16.0627 13.2479 14.7771 12.3364C13.4819 11.417 12.5268 10.8437 12.2528 10.71C12.2287 10.6982 12.2021 10.6939 12.1759 10.6975C12.1496 10.7011 12.1248 10.7125 12.1041 10.7306C11.6627 11.1107 10.9197 11.8088 10.8799 11.8465C10.6226 12.09 10.6226 12.09 10.412 12.0141C10.0416 11.88 8.89106 11.2054 7.88848 10.0957C6.88591 8.98602 6.24346 7.68401 6.12203 7.27543C6.05259 7.04243 6.05259 7.04243 6.27382 6.75831C6.30797 6.71431 6.94056 5.89379 7.28474 5.40684C7.30106 5.38391 7.31142 5.3565 7.3147 5.32756C7.31797 5.29862 7.31404 5.26924 7.30334 5.24257C7.18228 4.93959 6.66316 3.88524 5.83059 2.45499C5.0041 1.03564 4.381 0.263317 4.17001 0.0445688C4.15065 0.0243924 4.12672 0.0103565 4.10074 0.00394018C4.07476 -0.00247614 4.0477 -0.0010353 4.0224 0.00811072C3.28488 0.287994 2.57329 0.645121 1.89734 1.07462C1.24481 1.49352 0.627029 1.97521 0.0512005 2.51408C0.0310996 2.53295 0.0160296 2.55751 0.0076063 2.58512C-0.000816952 2.61273 -0.00227558 2.64235 0.00338675 2.67081C0.0826969 3.07897 0.461792 4.78287 1.63816 7.143C2.83844 9.55175 3.67025 10.7859 5.43291 12.7257C7.19556 14.6655 8.34841 15.6394 10.5319 16.9649C12.6691 18.264 14.2128 18.683 14.5817 18.7698C14.6075 18.776 14.6343 18.7743 14.6594 18.765C14.6844 18.7558 14.7068 18.7391 14.724 18.717C15.2118 18.0811 15.6479 17.3989 16.0271 16.6783C16.4159 15.9318 16.7393 15.146 16.9928 14.3315C17.0009 14.3038 17.0022 14.2742 16.9965 14.2458C16.9907 14.2173 16.9782 14.1911 16.9602 14.1698Z" fill="#600019"/>
    </symbol>

    <symbol id="mail" viewBox="0 0 17 16" fill="none" xmlns="http://www.w3.org/2000/svg">
        <path d="M5.38992e-09 4.94803L8.23264 9.70729C8.31522 9.75501 8.40692 9.77993 8.5 9.77993C8.59308 9.77993 8.68478 9.75501 8.76736 9.70729L17 4.94889V13.216C17 13.929 16.7546 14.615 16.3141 15.1333C15.8735 15.6515 15.2713 15.9628 14.6308 16.0031L14.4886 16.0074H2.51136C1.86989 16.0075 1.25272 15.7347 0.786458 15.245C0.320193 14.7553 0.0401808 14.0859 0.00386373 13.374L5.38992e-09 13.216V4.94803ZM2.51136 0.546936H14.4886C15.1301 0.546889 15.7473 0.819688 16.2135 1.30937C16.6798 1.79906 16.9598 2.4685 16.9961 3.18038L17 3.33842V3.49646L8.5 8.40946L5.38992e-09 3.49646V3.33842C-4.19952e-05 2.6254 0.245383 1.93939 0.685928 1.42112C1.12647 0.902843 1.72874 0.591599 2.36918 0.551231L2.51136 0.546936Z" fill="#600019"/>
    </symbol>
</svg>