<svg width="19" height="19" viewBox="0 0 19 19" fill="none" xmlns="http://www.w3.org/2000/svg">
<path d="M9.5 0.00744629C8.25244 0.00744629 7.0171 0.253171 5.86451 0.730591C4.71191 1.20801 3.66464 1.90778 2.78249 2.78993C1.00089 4.57153 0 6.98789 0 9.50745C0 12.027 1.00089 14.4434 2.78249 16.225C3.66464 17.1071 4.71191 17.8069 5.86451 18.2843C7.0171 18.7617 8.25244 19.0074 9.5 19.0074C12.0196 19.0074 14.4359 18.0066 16.2175 16.225C17.9991 14.4434 19 12.027 19 9.50745C19 8.25989 18.7543 7.02455 18.2769 5.87195C17.7994 4.71936 17.0997 3.67209 16.2175 2.78993C15.3354 1.90778 14.2881 1.20801 13.1355 0.730591C11.9829 0.253171 10.7476 0.00744629 9.5 0.00744629ZM13.49 13.4974L8.55 10.4574V4.75745H9.975V9.69745L14.25 12.2624L13.49 13.4974Z" fill="#600019"/>
</svg>
