<?xml version="1.0" encoding="UTF-8"?>
<svg id="_Слой_2" data-name="Слой 2" xmlns="http://www.w3.org/2000/svg" viewBox="0 0 471.23 122.28">
  <defs>
    <style>
      .cls-1 {
        fill: #ed1c24;
        stroke-width: 0px;
      }
    </style>
  </defs>
  <g id="Layer_1" data-name="Layer 1">
    <g>
      <path class="cls-1" d="m303.58,121.78c-15.83,0-29.98-10.63-33.64-25.29l-.58-2.32h12.06l.52.99c5.09,9.58,12.61,14.44,22.34,14.44,13.59,0,22.09-8.28,22.24-21.63-6.05,7.29-16,9.93-23.55,9.93-19.56,0-35.48-16.02-35.48-35.72,0-24.79,20.47-35.95,35-35.95,9.68,0,18.54,3.76,24.02,10.13v-8.7h12.16v59.94c0,21.08-13.46,34.17-35.12,34.17Zm.59-83.37c-13.31,0-24.14,10.72-24.14,23.91s11.17,23.43,24.38,23.43c12.42,0,23.31-10.89,23.31-23.31,0-13.47-10.34-24.02-23.55-24.02ZM100.14,111.96c-3.06-1.2-5.22-3.39-7.3-5.51-1.54-1.56-3.13-3.18-5.06-4.34-3.55.08-6.63.68-9.61,1.26-2.06.4-4.2.81-6.49,1.06l-.74.08.21-.72c1.06-3.64,2.6-6.87,4.1-9.99.74-1.55,1.51-3.15,2.2-4.78-.95-2.65-2.28-4.98-3.57-7.24-1.38-2.41-2.8-4.9-3.79-7.82l-.31-.92.93.28c2.89.86,5.65,1.3,8.22,1.3,7.35,0,13.38-3.5,18.45-10.7l.33-.46.42.38c2.19,2.01,2.8,5.64,3.39,9.15.37,2.18.75,4.43,1.5,6.2,4.16,2.51,8.56,4.66,13.87,7.12l.65.3-.5.51c-3.26,3.28-7.66,5.98-13.42,8.27-.42,2.08-.72,4.32-1.01,6.48-.45,3.31-.91,6.73-1.79,9.75l-.15.53-.51-.2Zm-45.14-6.98c-2.18-.86-3.72-2.41-5.2-3.92-1.12-1.13-2.17-2.21-3.49-3.02-2.47.06-4.62.48-6.71.88-1.46.28-2.96.57-4.58.75l-.74.08.21-.72c.75-2.57,1.84-4.85,2.89-7.05.52-1.08,1.05-2.19,1.53-3.32-.66-1.83-1.59-3.45-2.49-5.02-.97-1.7-1.98-3.46-2.69-5.53l-.31-.92.93.28c2.02.6,3.96.91,5.75.91,5.13,0,9.34-2.44,12.88-7.47l.33-.46.42.38c1.58,1.45,2.02,4.04,2.44,6.54.25,1.51.52,3.06,1.02,4.29,2.9,1.74,5.99,3.26,9.72,4.99l.65.3-.5.51c-2.3,2.31-5.39,4.22-9.43,5.83-.29,1.45-.5,3-.7,4.5-.32,2.33-.64,4.73-1.26,6.87l-.15.53-.51-.2Zm392.84-7.07c-12.1,0-21.58-9.9-21.58-22.53v-1.87h12.52v1.87c0,5.81,4.35,10.37,9.89,10.37s9.54-3.76,9.54-8.94c0-6.17-4.3-8.66-11.25-10.68-9.52-2.79-18.33-7.13-18.33-19.84,0-11.24,9.06-20.04,20.63-20.04,10.73,0,19.8,8.9,19.8,19.44v1.87h-12.52v-1.87c0-4.35-3.31-7.28-8.23-7.28-3.95,0-7.16,3.21-7.16,7.16,0,5.48,3.81,7.07,10.09,9.03,9.43,2.99,19.48,7.3,19.48,20.78s-9.63,22.53-22.89,22.53Zm-63.52,0c-17.89,0-36.9-12.73-36.9-36.31,0-19.83,16.1-35.36,36.66-35.36,9.64,0,18.13,3.58,23.55,9.87v-8.45h12.16v68.69h-12.16v-8.41c-5.42,6.26-14.02,9.95-23.31,9.95Zm-.24-59.5c-13.31,0-24.14,10.72-24.14,23.91s11.17,23.43,24.38,23.43c12.42,0,23.31-10.89,23.31-23.31,0-13.47-10.34-24.02-23.55-24.02Zm-157.81,59.5c-20.16,0-35.95-15.74-35.95-35.83s15.69-35.83,35.71-35.83c24.46,0,35.59,20.17,35.59,38.92v1.87h-58.6c1.54,10.03,11.86,18.71,22.41,18.71,9.44,0,18.11-5.28,21.57-13.14l.49-1.11h12.98l-.85,2.47c-4.79,13.87-18.82,23.94-33.36,23.94Zm22.32-42.57c-2.98-9.85-12.31-16.93-22.44-16.93s-20.01,7.08-22.83,16.93h45.27Zm-100.63,41.02L110.2,4.86h13.67l29.5,73.7L183.11,4.86h13.67l-38.01,91.5h-10.8Zm-129.63-8.04c-1.78-.7-3.03-1.96-4.23-3.19-.89-.9-1.74-1.76-2.78-2.41-1.97.05-3.63.37-5.37.71-1.18.23-2.4.46-3.71.6l-.74.08.21-.72c.61-2.08,1.49-3.93,2.34-5.71.41-.86.83-1.74,1.22-2.64-.53-1.45-1.24-2.69-1.99-4.01-.79-1.38-1.61-2.81-2.18-4.49l-.31-.92.93.28c1.62.49,3.18.73,4.62.73,4.11,0,7.49-1.96,10.33-6l.33-.47.42.39c1.3,1.19,1.65,3.3,2,5.33.2,1.2.41,2.45.81,3.42,2.35,1.41,4.83,2.63,7.82,4.01l.65.3-.5.51c-1.86,1.86-4.34,3.4-7.6,4.71-.22,1.15-.39,2.38-.55,3.57-.26,1.89-.52,3.84-1.02,5.57l-.15.53-.51-.2Zm22.63-18.93c-1.78-.7-3.02-1.96-4.23-3.18-.89-.91-1.74-1.76-2.79-2.41-1.97.05-3.62.37-5.36.71-1.18.23-2.41.46-3.72.61l-.74.08.21-.72c.61-2.09,1.49-3.93,2.35-5.72.41-.86.83-1.74,1.22-2.63-.53-1.46-1.24-2.7-1.99-4.02-.79-1.38-1.6-2.8-2.17-4.48l-.31-.92.93.28c1.62.48,3.18.73,4.62.73,4.11,0,7.49-1.96,10.33-6l.33-.47.42.38c1.3,1.19,1.66,3.3,2,5.34.2,1.2.41,2.44.81,3.42,2.34,1.4,4.82,2.62,7.82,4.01l.65.3-.5.51c-1.86,1.87-4.35,3.41-7.61,4.71-.22,1.15-.39,2.38-.55,3.57-.26,1.89-.52,3.84-1.02,5.57l-.15.53-.51-.2Zm38.46-2.47c-2.19-.86-3.72-2.41-5.2-3.92-1.12-1.13-2.17-2.21-3.49-3.02-2.47.06-4.62.48-6.71.88-1.46.28-2.96.57-4.58.75l-.74.08.21-.72c.75-2.57,1.84-4.85,2.89-7.05.52-1.08,1.05-2.19,1.53-3.32-.66-1.83-1.59-3.45-2.49-5.02-.97-1.7-1.98-3.46-2.69-5.53l-.31-.92.93.28c2.02.6,3.96.91,5.75.91,5.13,0,9.34-2.44,12.88-7.47l.33-.46.42.38c1.58,1.45,2.02,4.03,2.44,6.53.25,1.51.52,3.07,1.03,4.29,2.89,1.74,5.99,3.26,9.72,4.99l.65.3-.5.51c-2.3,2.31-5.39,4.22-9.43,5.83-.29,1.45-.5,3-.7,4.5-.32,2.33-.64,4.73-1.26,6.87l-.66.33Zm-30.28-27.43c-1.78-.7-3.03-1.96-4.23-3.18-.89-.91-1.74-1.76-2.79-2.41-1.97.05-3.62.37-5.37.71-1.18.23-2.4.46-3.72.61l-.74.08.21-.72c.61-2.09,1.49-3.93,2.35-5.72.41-.85.83-1.74,1.22-2.63-.53-1.45-1.24-2.7-1.99-4.01-.79-1.38-1.6-2.81-2.18-4.49l-.31-.92.93.28c1.62.48,3.18.73,4.62.73,4.11,0,7.49-1.96,10.33-6l.33-.46.42.38c1.3,1.19,1.65,3.29,2,5.33.2,1.2.41,2.45.81,3.42,2.35,1.41,4.83,2.62,7.82,4.01l.65.3-.5.51c-1.85,1.86-4.34,3.41-7.61,4.71-.22,1.14-.39,2.37-.55,3.56-.26,1.89-.52,3.85-1.03,5.59l-.66.33Zm38.19-10.62c-1.78-.7-3.03-1.96-4.23-3.19-.89-.9-1.74-1.76-2.78-2.41-1.97.05-3.62.37-5.37.71-1.18.23-2.4.46-3.71.6l-.74.08.21-.72c.61-2.08,1.49-3.93,2.34-5.71.41-.86.83-1.74,1.22-2.64-.53-1.45-1.24-2.69-1.99-4-.79-1.38-1.61-2.81-2.18-4.49l-.31-.92.93.28c1.63.49,3.18.73,4.62.73,4.11,0,7.49-1.96,10.33-6l.33-.47.42.39c1.3,1.19,1.65,3.3,2,5.33.2,1.2.41,2.45.81,3.42,2.34,1.41,4.83,2.62,7.82,4.01l.65.3-.5.51c-1.85,1.86-4.34,3.4-7.6,4.71-.22,1.15-.39,2.37-.55,3.56-.26,1.89-.52,3.84-1.02,5.58l-.15.53-.51-.2Z"/>
      <path class="cls-1" d="m86.06,1.51c1.95,1.79,1.58,6.09,2.75,8.73,2.53,1.53,5.25,2.84,8,4.12-2.04,2.05-4.7,3.53-7.69,4.7-.62,3.03-.79,6.49-1.62,9.37-2.99-1.17-4.41-4.06-7.06-5.63-3.48.07-6.07.97-9.27,1.32.91-3.11,2.42-5.65,3.62-8.47-1.11-3.19-3.13-5.44-4.23-8.68,1.74.52,3.32.75,4.77.75,4.99,0,8.33-2.79,10.73-6.21m109.98,3.86l-37.6,90.5h-10.14L110.95,5.36h12.59l29.84,74.54L183.44,5.36h12.59M47.87,12.13c1.95,1.79,1.58,6.09,2.75,8.73,2.53,1.53,5.25,2.84,8,4.12-2.04,2.05-4.71,3.53-7.69,4.7-.62,3.03-.78,6.5-1.62,9.37-2.99-1.17-4.41-4.06-7.06-5.63-3.48.07-6.06.98-9.27,1.32.91-3.11,2.42-5.65,3.62-8.48-1.11-3.19-3.13-5.44-4.23-8.67,1.74.52,3.32.75,4.76.75,4.99,0,8.33-2.79,10.74-6.21m401.4,14.61c10.46,0,19.3,8.67,19.3,18.94v1.37h-11.52v-1.37c0-4.65-3.51-7.78-8.73-7.78-4.22,0-7.66,3.43-7.66,7.66,0,5.81,4.14,7.53,10.44,9.51,9.26,2.93,19.13,7.17,19.13,20.31s-9.42,22.03-22.39,22.03c-11.82,0-21.08-9.68-21.08-22.03v-1.37h11.52v1.37c0,6.09,4.56,10.87,10.39,10.87s10.04-3.97,10.04-9.44c0-6.48-4.44-9.07-11.61-11.16-9.33-2.74-17.97-6.98-17.97-19.36,0-10.95,8.84-19.54,20.13-19.54m-65.19,0c10.05,0,18.88,4.04,24.05,10.78v-9.35h11.17v67.69h-11.17v-9.31c-5.24,6.78-13.99,10.85-23.81,10.85-17.65,0-36.4-12.55-36.4-35.81,0-19.54,15.88-34.86,36.16-34.86m.24,59.5c12.68,0,23.81-11.13,23.81-23.81,0-13.75-10.56-24.52-24.05-24.52s-24.64,10.95-24.64,24.41,11.39,23.93,24.88,23.93m-81.82-59.5c10.23,0,19.25,4.14,24.52,11.03v-9.61h11.16v59.44c0,20.77-13.27,33.67-34.62,33.67-15.6,0-29.55-10.47-33.15-24.91l-.43-1.7h11.12l.38.73c5.18,9.76,12.85,14.71,22.79,14.71,14.03,0,22.74-8.62,22.74-22.5v-1.09c-5.41,7.49-15.45,10.89-24.05,10.89-19.29,0-34.98-15.8-34.98-35.22,0-24.45,20.18-35.45,34.5-35.45m1.9,59.5c12.68,0,23.81-11.13,23.81-23.81,0-13.75-10.56-24.52-24.05-24.52s-24.64,10.95-24.64,24.41,11.39,23.93,24.88,23.93m-78.37-59.5c24.11,0,35.09,19.92,35.09,38.42v1.37h-58.67c1.26,10.49,11.82,19.71,22.99,19.71,9.64,0,18.49-5.4,22.03-13.44l.36-.82h11.95l-.63,1.81c-4.73,13.68-18.56,23.61-32.88,23.61-19.88,0-35.45-15.52-35.45-35.33s15.47-35.33,35.21-35.33m-23.37,29.1h46.59c-2.8-10.33-12.45-17.93-23.1-17.93s-20.85,7.6-23.48,17.93m-124.86-22.67c2.41,2.21,1.96,7.53,3.41,10.8,3.13,1.89,6.5,3.52,9.91,5.1-2.53,2.53-5.82,4.37-9.51,5.82-.77,3.75-.98,8.04-2.01,11.59-3.7-1.45-5.46-5.02-8.74-6.97-4.31.09-7.5,1.21-11.48,1.64,1.12-3.85,3-6.99,4.48-10.49-1.38-3.95-3.87-6.73-5.23-10.73,2.15.64,4.11.93,5.89.93,6.17,0,10.3-3.45,13.29-7.69m-38.11,8.85c1.95,1.79,1.59,6.09,2.75,8.73,2.53,1.53,5.25,2.84,8.01,4.12-2.04,2.05-4.71,3.53-7.69,4.7-.62,3.03-.79,6.5-1.62,9.37-2.99-1.17-4.41-4.06-7.06-5.63-3.48.07-6.06.98-9.27,1.32.91-3.11,2.42-5.65,3.62-8.48-1.11-3.19-3.13-5.44-4.23-8.67,1.74.52,3.32.75,4.76.75,4.99,0,8.33-2.79,10.74-6.21m-22.63,18.93c1.95,1.79,1.58,6.09,2.75,8.73,2.53,1.53,5.25,2.84,8.01,4.12-2.04,2.05-4.71,3.53-7.69,4.7-.62,3.03-.79,6.49-1.62,9.37-2.99-1.17-4.41-4.06-7.06-5.63-3.48.07-6.07.97-9.27,1.32.91-3.11,2.42-5.65,3.62-8.47-1.11-3.19-3.13-5.44-4.23-8.67,1.74.52,3.32.75,4.76.75,4.99,0,8.33-2.79,10.74-6.21m80.71,3.28c3.43,3.14,2.79,10.69,4.84,15.33,4.44,2.69,9.22,4.99,14.06,7.23-3.58,3.6-8.26,6.2-13.5,8.25-1.09,5.32-1.38,11.41-2.85,16.46-5.26-2.06-7.74-7.13-12.41-9.89-6.11.12-10.65,1.71-16.29,2.32,1.59-5.47,4.25-9.92,6.35-14.89-1.95-5.61-5.5-9.56-7.43-15.24,3.05.91,5.83,1.32,8.36,1.32,8.76,0,14.63-4.9,18.86-10.91m-44.39,6.98c2.41,2.21,1.97,7.53,3.41,10.8,3.13,1.89,6.5,3.52,9.91,5.1-2.53,2.53-5.82,4.37-9.51,5.82-.77,3.75-.98,8.04-2.01,11.59-3.7-1.45-5.46-5.02-8.74-6.97-4.31.09-7.5,1.21-11.48,1.64,1.12-3.85,3-6.99,4.48-10.49-1.38-3.95-3.87-6.73-5.23-10.73,2.15.64,4.11.93,5.89.93,6.17,0,10.31-3.45,13.29-7.69M85.89,0l-.66.93c-2.74,3.89-5.98,5.79-9.92,5.79-1.39,0-2.9-.24-4.48-.71l-1.85-.55.62,1.83c.59,1.73,1.42,3.18,2.22,4.58.71,1.24,1.38,2.41,1.88,3.74-.36.83-.75,1.64-1.13,2.44-.86,1.8-1.75,3.66-2.37,5.79l-.42,1.43,1.48-.16c1.33-.14,2.56-.38,3.75-.61,1.68-.32,3.28-.63,5.14-.69.94.61,1.73,1.41,2.56,2.25,1.24,1.26,2.52,2.56,4.41,3.3l1.02.4.3-1.05c.51-1.77.78-3.75,1.04-5.66.15-1.09.3-2.21.5-3.27,3.2-1.31,5.66-2.86,7.52-4.72l1.01-1.01-1.29-.6c-2.92-1.35-5.34-2.54-7.63-3.9-.34-.9-.54-2.05-.72-3.16-.36-2.12-.73-4.3-2.15-5.61l-.84-.77h0Zm111.63,4.37h-14.76l-.25.62-29.14,72.24L124.46,4.99l-.25-.63h-14.75l.57,1.38,37.35,90.5.25.62h11.47l.26-.62L196.95,5.75l.57-1.38h0ZM47.71,10.63l-.65.93c-2.74,3.89-5.99,5.79-9.93,5.79-1.39,0-2.9-.24-4.47-.71l-1.85-.55.62,1.83c.59,1.72,1.42,3.17,2.22,4.57.71,1.24,1.38,2.41,1.88,3.75-.36.82-.75,1.64-1.13,2.44-.86,1.8-1.75,3.67-2.37,5.79l-.42,1.43,1.48-.16c1.34-.14,2.57-.38,3.76-.61,1.68-.32,3.27-.63,5.13-.7.94.61,1.73,1.41,2.57,2.26,1.24,1.26,2.52,2.56,4.41,3.3l1.02.4.31-1.05c.52-1.77.78-3.75,1.04-5.66.15-1.09.3-2.21.49-3.26,3.2-1.31,5.67-2.86,7.52-4.72l1.01-1.01-1.29-.6c-2.91-1.35-5.34-2.54-7.63-3.9-.34-.9-.54-2.05-.72-3.16-.36-2.12-.73-4.31-2.15-5.61l-.84-.77h0Zm401.56,15.12c-11.85,0-21.13,9.02-21.13,20.54,0,13.04,8.98,17.47,18.69,20.32,6.9,2.01,10.89,4.32,10.89,10.2,0,4.89-3.8,8.44-9.04,8.44s-9.39-4.33-9.39-9.87v-2.36h-13.52v2.36c0,12.91,9.7,23.03,22.08,23.03,13.55,0,23.39-9.69,23.39-23.03s-10.23-18.22-19.83-21.26c-6.07-1.9-9.75-3.42-9.75-8.55,0-3.67,2.99-6.66,6.66-6.66,4.69,0,7.73,2.66,7.73,6.78v2.36h13.52v-2.36c0-10.81-9.29-19.94-20.3-19.94h0Zm-65.19,0c-20.84,0-37.16,15.75-37.16,35.85,0,23.91,19.27,36.81,37.4,36.81,8.95,0,17.27-3.38,22.81-9.16v7.62h13.16V27.17h-13.16v7.65c-5.53-5.8-13.77-9.07-23.05-9.07h0Zm.24,59.5c-12.95,0-23.88-10.5-23.88-22.93s10.61-23.41,23.64-23.41,23.05,10.33,23.05,23.52c0,12.15-10.66,22.81-22.81,22.81h0Zm-81.82-59.5c-14.74,0-35.5,11.31-35.5,36.45,0,19.97,16.14,36.21,35.97,36.21,7.29,0,16.79-2.43,23-9.05-.7,12.24-8.88,19.76-21.69,19.76-9.54,0-16.91-4.77-21.9-14.18l-.38-.72-.28-.53h-13l.31,1.24.43,1.7c3.72,14.87,18.07,25.66,34.12,25.66,21.97,0,35.62-13.28,35.62-34.67V27.17h-13.16v7.91c-5.62-5.89-14.2-9.33-23.53-9.33h0Zm1.9,59.5c-12.95,0-23.88-10.5-23.88-22.93s10.61-23.41,23.64-23.41,23.05,10.33,23.05,23.52c0,12.15-10.66,22.81-22.81,22.81h0Zm-78.37-59.5c-20.31,0-36.21,15.96-36.21,36.33s16.01,36.33,36.45,36.33c14.74,0,28.97-10.21,33.83-24.28l.63-1.81.46-1.32h-14.01l-.26.6-.36.82c-3.38,7.68-11.86,12.84-21.11,12.84-10.12,0-20.02-8.16-21.82-17.72h58.51v-2.36c0-18.99-11.29-39.42-36.09-39.42h0Zm-22.04,29.1c2.98-9.31,12.09-15.93,22.16-15.93s18.64,6.63,21.76,15.93h-43.91Zm-126.35-23.18l-.65.93c-3.44,4.89-7.52,7.26-12.47,7.26-1.75,0-3.63-.3-5.61-.89l-1.85-.55.62,1.83c.72,2.11,1.74,3.89,2.72,5.62.9,1.57,1.74,3.05,2.38,4.76-.46,1.06-.96,2.1-1.44,3.12-1.06,2.22-2.16,4.52-2.92,7.13l-.42,1.43,1.48-.16c1.64-.18,3.16-.47,4.62-.76,2.11-.41,4.11-.8,6.47-.87,1.21.77,2.22,1.79,3.27,2.86,1.52,1.54,3.09,3.13,5.37,4.03l1.02.4.3-1.05c.63-2.17.96-4.6,1.28-6.94.19-1.4.39-2.85.64-4.2,3.98-1.62,7.04-3.53,9.35-5.84l1.01-1.01-1.3-.6c-3.66-1.7-6.7-3.18-9.53-4.88-.45-1.15-.7-2.61-.93-4.03-.44-2.58-.89-5.25-2.59-6.82l-.84-.77h0Zm-38.11,8.85l-.65.93c-2.74,3.9-5.99,5.79-9.92,5.79-1.39,0-2.9-.24-4.47-.71l-1.86-.55.63,1.83c.59,1.72,1.41,3.17,2.21,4.56.71,1.24,1.38,2.41,1.89,3.75-.36.82-.75,1.64-1.13,2.43-.86,1.8-1.75,3.67-2.37,5.79l-.42,1.43,1.48-.16c1.34-.14,2.57-.38,3.77-.61,1.68-.32,3.27-.63,5.13-.69.94.61,1.74,1.41,2.57,2.26,1.24,1.26,2.52,2.56,4.4,3.3l1.02.4.31-1.05c.51-1.77.78-3.74,1.04-5.65.15-1.09.3-2.22.5-3.28,3.2-1.31,5.66-2.86,7.52-4.72l1.01-1.01-1.29-.6c-2.92-1.35-5.35-2.54-7.63-3.9-.34-.9-.53-2.05-.72-3.16-.36-2.12-.73-4.31-2.15-5.62l-.84-.77h0Zm-22.63,18.92l-.66.93c-2.74,3.9-5.98,5.79-9.92,5.79-1.39,0-2.9-.24-4.48-.71l-1.85-.55.62,1.83c.59,1.73,1.42,3.18,2.22,4.58.71,1.24,1.38,2.41,1.88,3.74-.36.83-.75,1.64-1.13,2.44-.86,1.8-1.75,3.66-2.37,5.79l-.42,1.43,1.48-.16c1.33-.14,2.56-.38,3.75-.61,1.68-.32,3.28-.63,5.14-.69.94.61,1.73,1.41,2.56,2.25,1.24,1.26,2.52,2.56,4.41,3.3l1.02.4.3-1.05c.51-1.77.78-3.74,1.04-5.64.15-1.09.3-2.22.5-3.28,3.2-1.31,5.66-2.86,7.52-4.72l1.01-1.01-1.3-.6c-2.91-1.35-5.34-2.54-7.63-3.9-.34-.9-.54-2.05-.72-3.16-.36-2.12-.73-4.3-2.15-5.61l-.84-.77h0Zm80.71,3.28l-.65.93c-4.97,7.05-10.87,10.48-18.04,10.48-2.52,0-5.24-.43-8.08-1.28l-1.86-.55.62,1.83c1.01,2.96,2.44,5.47,3.83,7.9,1.31,2.29,2.55,4.45,3.47,6.98-.67,1.56-1.4,3.09-2.11,4.58-1.5,3.14-3.05,6.39-4.12,10.06l-.42,1.43,1.48-.16c2.31-.25,4.45-.66,6.53-1.07,3.06-.59,5.95-1.15,9.38-1.24,1.81,1.12,3.28,2.62,4.84,4.19,2.12,2.15,4.32,4.38,7.47,5.62l1.02.4.3-1.05c.89-3.06,1.35-6.5,1.81-9.83.28-2.06.57-4.19.96-6.19,5.7-2.29,10.07-5,13.34-8.28l1.01-1.01-1.3-.6c-5.24-2.42-9.58-4.55-13.69-7.01-.69-1.69-1.05-3.85-1.41-5.94-.61-3.59-1.24-7.31-3.55-9.44l-.84-.77h0Zm-44.39,6.98l-.65.93c-3.44,4.89-7.52,7.26-12.47,7.26-1.75,0-3.63-.3-5.61-.89l-1.85-.55.62,1.83c.72,2.11,1.74,3.9,2.72,5.62.9,1.57,1.74,3.05,2.38,4.76-.46,1.06-.96,2.1-1.44,3.12-1.06,2.22-2.16,4.52-2.92,7.13l-.42,1.43,1.48-.16c1.64-.18,3.16-.47,4.63-.76,2.11-.41,4.11-.8,6.47-.87,1.21.77,2.22,1.79,3.27,2.86,1.52,1.54,3.09,3.13,5.37,4.03l1.02.4.3-1.05c.63-2.17.96-4.59,1.28-6.94.19-1.4.39-2.85.65-4.21,3.98-1.62,7.04-3.53,9.35-5.84l1.01-1.01-1.3-.6c-3.66-1.7-6.7-3.18-9.53-4.88-.45-1.15-.69-2.61-.93-4.03-.44-2.58-.89-5.26-2.59-6.82l-.84-.77h0Z"/>
    </g>
  </g>
</svg>