<svg width="211" height="52" viewBox="0 0 211 52" fill="none" xmlns="http://www.w3.org/2000/svg">
<path d="M23.256 30.1702C21.5449 32.4968 18.9393 34.2694 14.6614 33.0508C15.2836 34.7495 16.3725 35.9313 16.9948 37.63C16.3336 39.1072 15.4781 40.4736 14.9725 42.0985C16.7614 41.9139 18.2004 41.4338 20.1059 41.3969C21.5838 42.2093 22.3615 43.7604 24.0338 44.3512C24.5005 42.8371 24.5783 41.0276 24.9283 39.4026C26.6005 38.7748 28.0783 37.9993 29.2061 36.9284C27.6894 36.2636 26.1727 35.562 24.7727 34.7495C24.1116 33.3462 24.3449 31.0935 23.256 30.1333V30.1702ZM6.96124 25.8125C5.56122 27.6959 3.50007 29.1362 0 28.1391C0.505565 29.5055 1.40003 30.4657 1.90559 31.8321C1.36114 33.0507 0.700013 34.1217 0.272226 35.4512C1.71114 35.3034 2.87783 34.9342 4.43342 34.8972C5.639 35.562 6.26123 36.7806 7.58348 37.2977C7.97237 36.079 8.01127 34.6018 8.32238 33.3093C9.64463 32.7922 10.8502 32.1644 11.7836 31.3151C10.5391 30.7611 9.33351 30.2072 8.20571 29.5793C7.70015 28.4715 7.85571 26.625 6.96124 25.8494V25.8125ZM17.7726 29.2101C18.1615 27.9914 18.2392 26.5142 18.5115 25.2216C19.8337 24.7415 21.0393 24.0768 21.9727 23.2274C20.7282 22.6735 19.5226 22.1195 18.3948 21.4917C17.8892 20.3838 18.0448 18.5373 17.1503 17.7618C15.7503 19.6452 13.6892 21.0855 10.1891 20.0884C10.6946 21.4548 11.5891 22.415 12.0947 23.7814C11.5502 25.0001 10.8891 26.071 10.4613 27.4005C11.9002 27.2528 13.0669 26.8835 14.6225 26.8466C15.8281 27.5113 16.4503 28.7299 17.7726 29.247V29.2101ZM27.9617 21.4179C27.3005 22.8951 26.445 24.2615 25.9394 25.8864C27.7283 25.7017 29.1672 25.2216 31.0728 25.1847C32.5506 25.9972 33.3284 27.5482 35.0007 28.1391C35.4674 26.625 35.5451 24.8154 35.8951 23.1905C37.5674 22.5627 39.0452 21.7872 40.173 20.7162C38.6563 20.0515 37.1396 19.3498 35.7396 18.5374C35.0785 17.134 35.3118 14.8813 34.2229 13.9211C32.5117 16.2477 29.9061 18.0203 25.6283 16.8017C26.2505 18.5004 27.3783 19.6822 27.9617 21.3809V21.4179ZM14.1169 14.6597C15.5559 14.512 16.7225 14.1427 18.2781 14.1058C19.4837 14.7705 20.1059 15.9892 21.4282 16.5062C21.8171 15.2875 21.8949 13.8103 22.1671 12.5178C23.4893 12.0377 24.6949 11.373 25.6283 10.5236C24.3838 9.96964 23.1782 9.41569 22.0504 8.78788C21.5449 7.67999 21.7004 5.83352 20.806 5.058C19.4059 6.94141 17.3448 8.38166 13.8447 7.38456C14.3503 8.75096 15.2447 9.71113 15.7503 11.0775C15.2058 12.2962 14.5447 13.3672 14.1169 14.6967V14.6597ZM31.2284 10.1174C32.6673 9.96963 33.834 9.60036 35.3896 9.56343C36.5952 10.2282 37.2174 11.4468 38.5396 11.9638C38.9285 10.7452 38.9674 9.26799 39.2785 7.97545C40.6008 7.45843 41.8064 6.83062 42.7397 5.98124C41.4953 5.42729 40.2897 4.87334 39.1619 4.24554C38.6563 3.13764 38.8119 1.29115 37.9174 0.515625C36.5174 2.39904 34.4562 3.83932 30.9562 2.84222C31.4617 4.20862 32.3562 5.16879 32.8617 6.53519C32.3173 7.75387 31.6562 8.82482 31.2284 10.1543V10.1174ZM145.953 15.9523C143.581 13.0348 139.536 11.2622 134.947 11.2622C128.53 11.2622 119.469 15.9523 119.469 26.3664C119.469 34.6387 126.508 41.3599 135.142 41.3599C138.992 41.3599 143.503 39.9197 145.914 36.7068V37.1869C145.914 43.0956 142.025 46.7517 135.725 46.7517C131.253 46.7517 127.83 44.6467 125.497 40.4736L125.341 40.1782H120.363L120.558 40.9168C122.191 47.0471 128.414 51.5156 135.414 51.5156C144.981 51.5156 150.931 46.0131 150.931 37.1869V11.89H145.914V15.9892L145.953 15.9523ZM135.803 36.596C129.736 36.596 124.641 31.9429 124.641 26.4034C124.641 20.8639 129.58 16.0261 135.686 16.0261C141.792 16.0261 146.458 20.6054 146.458 26.4772C146.458 31.869 141.481 36.6329 135.803 36.6329V36.596ZM182.315 15.8415C179.981 12.961 176.053 11.2622 171.542 11.2622C162.442 11.2622 155.325 17.7987 155.325 26.1079C155.325 36.0051 163.725 41.3599 171.659 41.3599C176.053 41.3599 179.981 39.6242 182.354 36.7437V40.6952H187.37V11.89H182.354V15.8784L182.315 15.8415ZM171.62 36.596C165.592 36.596 160.459 31.9429 160.459 26.4034C160.459 20.8639 165.398 16.0261 171.503 16.0261C177.609 16.0261 182.276 20.6054 182.276 26.4772C182.276 31.869 177.298 36.6329 171.581 36.6329L171.62 36.596ZM201.565 23.3382C198.726 22.4888 196.898 21.7502 196.898 19.2759C196.898 17.4664 198.454 16.0261 200.321 16.0261C202.654 16.0261 204.248 17.3556 204.248 19.3498V19.9407H209.421V19.3498C209.421 14.9921 205.454 11.2991 200.748 11.2991C195.693 11.2991 191.726 14.9551 191.726 19.6083C191.726 24.8892 195.615 26.6988 199.776 27.8436C203.004 28.73 204.987 29.8379 204.987 32.6076C204.987 34.9342 203.082 36.6329 200.476 36.6329C197.871 36.6329 195.809 34.6018 195.809 32.0167V31.4258H190.637V32.0167C190.637 37.2607 194.798 41.3969 200.087 41.3969C205.921 41.3969 210.121 37.4454 210.121 32.0167C210.121 26.588 205.687 24.6308 201.526 23.3751L201.565 23.3382ZM81.5516 2.17748L68.0569 33.9001L54.6788 2.17748H49.0398L65.8013 40.6952H70.3514L87.1906 2.17748H81.5516ZM100.646 11.2622C91.7796 11.2622 84.8572 17.8726 84.8572 26.2926C84.8572 34.7126 91.8573 41.323 100.763 41.323C107.18 41.323 113.402 37.113 115.502 31.2781L115.774 30.5026H110.408L110.252 30.8349C108.658 34.2694 104.691 36.5591 100.374 36.5591C95.3574 36.5591 90.6129 32.6445 90.0684 28.176H116.358V27.5851C116.358 19.7191 111.419 11.2253 100.608 11.2253L100.646 11.2622ZM90.1851 23.6337C91.3518 19.239 95.7463 15.9892 100.724 15.9892C105.702 15.9892 109.824 19.239 111.069 23.6337H90.1851ZM43.1675 27.2158C40.7175 30.5026 37.0618 33.0138 30.9562 31.3151C31.8117 33.7155 33.4062 35.4142 34.3007 37.8147C33.3673 39.9197 32.1617 41.84 31.4617 44.1666C33.9896 43.9081 36.0118 43.2433 38.773 43.1695C40.873 44.3512 41.9619 46.4931 44.3342 47.3795C44.9953 45.2375 45.112 42.6525 45.6175 40.3628C47.9509 39.4765 50.051 38.3686 51.6843 36.8545C49.5065 35.8943 47.3676 34.9342 45.3842 33.7893C44.4509 31.8321 44.762 28.6192 43.2064 27.2528L43.1675 27.2158Z" fill="#BE302A"/>
</svg>
