<?xml version="1.0" encoding="UTF-8"?>
<svg id="_Слой_2" data-name="Слой 2" xmlns="http://www.w3.org/2000/svg" viewBox="0 0 619.02 140.36">
  <defs>
    <style>
      .cls-1 {
        fill: #892432;
        stroke-width: 0px;
      }
    </style>
  </defs>
  <g id="Layer_1" data-name="Layer 1">
    <path class="cls-1" d="m366.76,85.85c3.4-.67,6.07-1.54,8.03-2.57,3.04-1.63,5.47-3.76,7.23-6.37,1.74-2.62,2.62-5.72,2.62-9.35,0-4.14-1.14-7.65-3.44-10.54-2.3-2.88-5.32-4.86-9.06-5.93-3.72-1.07-9.14-1.59-16.2-1.59h-38.15v65.01h22.99v-51.88h10.05c4.18,0,7.02.56,8.53,1.7,1.52,1.12,2.28,2.73,2.28,4.84,0,1.42-.37,2.53-1.14,3.75-1.29,2.03-4.21,2.64-6.31,2.86-4.46.11-8.22.08-8.22.08l18.66,38.65h26c-2.93-5.56-7.15-13.8-11.85-22.15-2.02-3.58-5.86-6.43-12.05-6.51Zm127.91-22.46h38.39v-13.89h-61.33v65.06h62.43v-14.74h-39.5v-36.44Zm-102.8,2.19h23.33v48.99h22.87v-48.99h23.35v-16.08h-69.56v16.08Zm200.89,16.76l24.47-32.63h-24.97l-12.6,16.6-14.01-16.8h-24.97l26.73,32.94-25.19,32.33h25.56l12.53-16.42.07-.08,13.09,16.3h25.55l-26.27-32.23Zm-66.66-8.44l-29.42,8.06,29.42,7.36v-15.42Zm-295.05-26.5h-24.89l-16.14,36.38,1.18,3.11-15.32-40.18h-24.04l26.82,68.28h23.25l-.18-.48,29.32-67.1Zm37.69,1c-12.03,0-21.4,2.95-28.15,8.88-6.72,5.91-10.1,14.18-10.1,24.8,0,7.61,1.71,13.93,5.1,19,3.42,5.06,7.85,8.75,13.32,11.1,5.48,2.34,12.4,3.51,20.75,3.51s15.06-1.35,20.58-4.07c5.5-2.7,9.7-6.5,12.62-11.36,2.92-4.86,4.39-11.1,4.39-18.7,0-10.48-3.34-18.63-10.01-24.43-6.67-5.81-16.17-8.73-28.5-8.73Zm11.57,48.03c-2.68,2.8-6.49,4.2-11.41,4.2s-8.57-1.43-11.34-4.3c-2.79-2.88-4.15-7.59-4.15-14.16s1.39-11.39,4.19-14.25c2.79-2.89,6.5-4.31,11.1-4.31s8.64,1.4,11.44,4.23c2.82,2.84,4.22,7.3,4.22,13.45,0,7.26-1.35,12.31-4.05,15.13ZM123.38,13.1H21.1c.09.43.26.84.26,1.3,0,3.59-2.91,6.5-6.5,6.5-.65,0-1.25-.19-1.84-.37v102.93c0,2.09,1.71,3.81,3.81,3.81h106.55c2.09,0,3.81-1.71,3.81-3.81V16.91c0-2.09-1.71-3.81-3.81-3.81Zm-15.51,58.05c-1.33,0-2.24.04-2.24.04v29.97c0,6.93-3.97,11.3-10.36,11.36,0,0-46.84.24-48.57.1-1.4-.1-2.77-.49-3.99-1.06-5-2.5-6.04-6.69-6.04-9.78v-30.27l-3.16.02s-8.1.83-8.39-7.9c-.05-1.36.35-2.69,1.02-3.88.43-.97,1.02-1.64,1.44-2.01,0,0,19.46-17.01,32.61-27.71l-.16.14.03-.02.1-.1c1.06-.97,4.33-3.92,9.04-3.92,3.6,0,7.1,1.61,10.72,4.91l5.61,4.41c0-.53,0-.98.02-1.36,0-.97-.02-1.46-.02-2.34-.1-9.12,8.29-8.34,8.29-8.34,1.92,0,7.27,1.75,7.27,6.7s0,15.39-.04,17.67c3.47,2.76,10.1,8.05,11.49,9.21.64.57.92,1.09,1.24,1.4,4.01,3.89,1.59,12.75-5.9,12.75Zm-12.33-20.73s0-18.94.02-18.92c-.06-.87-.06-2.53-2.18-2.63-1.56.02-2.39,1.14-2.39,2.52.02,2.86,0,14.84,0,15.03l-15.29-11.48c-5.91-5.39-9.33-2.88-11.86-.83l-.09.08s-32.6,27.78-32.6,27.91c-.34.41-.56.94-.56,1.51,0,1.33,1.07,2.4,2.41,2.4.03,0,9.13-.02,9.13-.02v35.77c0,2.93,1.49,4.05,2.99,4.78-.04,0-.07.02-.1.02.67.31,1.46.52,2.32.61h.25c.17.02.33.06.49.06h1.5l45.63-.21c1.78-.02,4.95-.43,4.95-5.88v-35.43l6.92-.03c.09,0,.7-.1.75-.13,2.16-.69,2.53-3.34,1.18-4.38-1.89-1.44-13.46-10.77-13.46-10.77Zm-26.82,39.49c0,.7-.58,1.27-1.28,1.27h-7.17c-.08,0-.14-.04-.22-.04-.59-.12-1.06-.61-1.06-1.23v-7.18c0-.69.58-1.27,1.28-1.27h7.17c.33,0,.64.14.88.36.23.22.4.55.4.91v7.18Zm0-14.01c0,.72-.58,1.28-1.28,1.28h-7.17c-.7,0-1.28-.56-1.28-1.28v-7.16c0-.7.58-1.29,1.28-1.29h7.17c.7,0,1.28.59,1.28,1.29v7.16Zm14,14.01c0,.7-.57,1.27-1.27,1.27h-7.17c-.7,0-1.28-.57-1.28-1.27v-7.18c0-.69.58-1.27,1.28-1.27h7.17c.7,0,1.27.58,1.27,1.27v7.18Zm0-14.01c0,.72-.57,1.28-1.27,1.28h-7.17c-.7,0-1.28-.56-1.28-1.28v-7.16c0-.7.58-1.29,1.28-1.29h7.17c.7,0,1.27.59,1.27,1.29v7.16ZM122.37,0H18C8.08,0,0,8.06,0,17.98v104.38c0,9.92,8.08,18.01,18,18.01h104.37c9.93,0,18.01-8.09,18.01-18.01V17.98c0-9.92-8.07-17.98-18.01-17.98Zm12.55,122.3c0,3.66-1.56,6.92-4.02,9.13-2.2,2.24-5.29,3.64-8.73,3.64H17.34c-6.66,0-12.05-5.25-12.05-11.68v-5.51c0,.1,0,.2,0,.3V17.98c0-.92.1-1.8.29-2.66.8-5.67,5.84-10.04,11.93-10.04h100.52s.21,0,.56.02h4.73c6.4,0,11.59,5.38,11.59,12.07v104.94Z"/>
  </g>
</svg>