<svg width="89" height="95" viewBox="0 0 89 95" fill="none" xmlns="http://www.w3.org/2000/svg">
<g clip-path="url(#clip0_1036_135039)">
<path d="M29.4138 24.0628H9.43396C8.58265 24.0628 7.8877 23.3678 7.8877 22.5165C7.8877 21.6652 8.58265 20.9702 9.43396 20.9702H29.4138C30.2652 20.9702 30.9601 21.6652 30.9601 22.5165C30.9601 23.3678 30.2652 24.0628 29.4138 24.0628Z" fill="#58595B"/>
<path d="M29.4138 54.1367H9.43396C8.58265 54.1367 7.8877 53.4418 7.8877 52.5905V32.4021C7.8877 31.5508 8.58265 30.8558 9.43396 30.8558C10.2853 30.8558 10.9802 31.5508 10.9802 32.4021V51.0442H27.8676V31.933C27.8676 31.0817 28.5625 30.3867 29.4138 30.3867C30.2652 30.3867 30.9601 31.0817 30.9601 31.933V52.5905C30.9601 53.4418 30.2652 54.1367 29.4138 54.1367Z" fill="#58595B"/>
<path d="M8.68688 60.8779H7.36648C5.28162 60.8779 3.301 60.0439 1.89373 58.5845C0.608063 57.2294 -0.0695155 55.4746 -2.02311e-05 53.6503L1.16403 26.0955C1.28564 23.2288 3.75272 20.9702 6.79314 20.9702H8.70426C9.55558 20.9702 10.2505 21.6652 10.2505 22.5165C10.2505 23.3678 9.55558 24.0628 8.70426 24.0628H6.79314C5.43798 24.0628 4.32606 25.0009 4.27394 26.2171L3.10989 53.772C3.07514 54.7449 3.43999 55.7005 4.15232 56.4475C4.96889 57.2989 6.15031 57.7853 7.38385 57.7853H8.70426C9.55558 57.7853 10.2505 58.4803 10.2505 59.3316C10.2505 60.1829 9.55558 60.8779 8.70426 60.8779" fill="#58595B"/>
<path d="M31.4638 60.8779H30.1434C29.2921 60.8779 28.5972 60.1829 28.5972 59.3316C28.5972 58.4803 29.2921 57.7853 30.1434 57.7853H31.4638C32.6974 57.7853 33.8788 57.2989 34.6954 56.4475C35.4077 55.7005 35.7726 54.7623 35.7378 53.772L34.5738 26.2171C34.5216 25.0183 33.4097 24.0628 32.0546 24.0628H30.1434C29.2921 24.0628 28.5972 23.3678 28.5972 22.5165C28.5972 21.6652 29.2921 20.9702 30.1434 20.9702H32.0546C35.0776 20.9702 37.5621 23.2288 37.6837 26.0955L38.8477 53.6504C38.9172 55.4746 38.257 57.2467 36.954 58.6019C35.5641 60.0613 33.5661 60.8952 31.4812 60.8952" fill="#58595B"/>
<path d="M25.1921 87.9462H23.7327C20.5012 87.9462 17.8604 85.3228 17.8604 82.0739V65.3081C17.8604 64.4568 18.5553 63.7619 19.4066 63.7619C20.2579 63.7619 20.9529 64.4568 20.9529 65.3081V82.0739C20.9529 83.6028 22.1864 84.8363 23.7153 84.8363H25.1747C26.7036 84.8363 27.9372 83.6028 27.9372 82.0739V54.1194H19.4066C18.5553 54.1194 17.8604 53.4244 17.8604 52.5731C17.8604 51.7218 18.5553 51.0269 19.4066 51.0269H29.5008C30.3521 51.0269 31.0471 51.7218 31.0471 52.5731V82.0739C31.0471 85.3054 28.4236 87.9462 25.1747 87.9462" fill="#58595B"/>
<path d="M15.1152 87.9462H13.6558C10.4243 87.9462 7.78345 85.3228 7.78345 82.0739V52.5731C7.78345 51.7218 8.4784 51.0269 9.32972 51.0269H19.4239C20.2752 51.0269 20.9702 51.7218 20.9702 52.5731C20.9702 53.4244 20.2752 54.1194 19.4239 54.1194H10.8934V82.0739C10.8934 83.6028 12.1269 84.8363 13.6558 84.8363H15.1152C16.6441 84.8363 17.8776 83.6028 17.8776 82.0739V65.3081C17.8776 64.4568 18.5726 63.7619 19.4239 63.7619C20.2752 63.7619 20.9702 64.4568 20.9702 65.3081V82.0739C20.9702 85.3054 18.3467 87.9462 15.0978 87.9462" fill="#58595B"/>
<path d="M18.5553 3.10991C15.7755 3.10991 13.4996 5.36851 13.4996 8.16569C13.4996 10.9629 15.7582 13.2215 18.5553 13.2215C21.3525 13.2215 23.6111 10.9629 23.6111 8.16569C23.6111 5.36851 21.3351 3.10991 18.5553 3.10991ZM18.5553 16.314C14.0555 16.314 10.3896 12.6481 10.3896 8.16569C10.3896 3.68325 14.0555 0 18.5553 0C23.0552 0 26.7037 3.66587 26.7037 8.16569C26.7037 12.6655 23.0378 16.314 18.5553 16.314Z" fill="#F48E23"/>
<path d="M19.424 30.3695C18.5726 30.3695 17.8777 29.6746 17.8777 28.8233V27.277C17.8777 26.4257 18.5726 25.7307 19.424 25.7307C20.2753 25.7307 20.9702 26.4257 20.9702 27.277V28.8233C20.9702 29.6746 20.2753 30.3695 19.424 30.3695Z" fill="#58595B"/>
<path d="M19.424 39.5949C18.5726 39.5949 17.8777 38.9 17.8777 38.0487V35.4078C17.8777 34.5565 18.5726 33.8616 19.424 33.8616C20.2753 33.8616 20.9702 34.5565 20.9702 35.4078V38.0487C20.9702 38.9 20.2753 39.5949 19.424 39.5949Z" fill="#58595B"/>
<path d="M19.424 47.726C18.5726 47.726 17.8777 47.031 17.8777 46.1797V44.6334C17.8777 43.7821 18.5726 43.0872 19.424 43.0872C20.2753 43.0872 20.9702 43.7821 20.9702 44.6334V46.1797C20.9702 47.031 20.2753 47.726 19.424 47.726Z" fill="#58595B"/>
<path d="M76.9833 24.3233H58.5497C57.6984 24.3233 57.0034 23.6283 57.0034 22.777C57.0034 21.9257 57.6984 21.2307 58.5497 21.2307H76.9833C77.8346 21.2307 78.5296 21.9257 78.5296 22.777C78.5296 23.6283 77.8346 24.3233 76.9833 24.3233Z" fill="#58595B"/>
<path d="M52.2431 65.1866C52.2431 65.1866 52.0867 65.1866 51.9998 65.1866C51.1485 65.0476 50.5752 64.2658 50.6968 63.4145L55.4572 32.4196C55.5788 31.5683 56.378 30.995 57.2293 31.1166C58.0807 31.2556 58.654 32.0374 58.5324 32.8887L53.772 63.8836C53.6503 64.648 52.9901 65.204 52.2431 65.204" fill="#58595B"/>
<path d="M81.6396 65.1865C80.8751 65.1865 80.2149 64.6305 80.1107 63.8661L75.4545 32.4021C75.3329 31.5508 75.9236 30.769 76.7575 30.6474C77.6088 30.5257 78.3907 31.0991 78.5296 31.9504L83.1858 63.4144C83.3074 64.2657 82.7341 65.0475 81.8828 65.1691C81.8133 65.1691 81.7264 65.1691 81.6569 65.1691" fill="#58595B"/>
<path d="M52.2431 59.2794C51.3918 59.2794 50.4536 58.9667 49.4807 58.3586C46.7009 56.6212 45.2762 53.1812 45.9364 49.7933L50.2799 27.2942C50.9575 23.7673 54.05 21.2134 57.629 21.2134H58.5498C59.4011 21.2134 60.0961 21.9083 60.0961 22.7596C60.0961 23.611 59.4011 24.3059 58.5498 24.3059H57.629C55.5268 24.3059 53.7199 25.8001 53.3203 27.8676L48.9942 50.3666C48.5773 52.5036 49.4459 54.6406 51.1486 55.7178C51.6698 56.0479 52.0694 56.1695 52.2605 56.1695C53.1118 56.1695 53.8068 56.8644 53.8068 57.7158C53.8068 58.5671 53.1118 59.262 52.2605 59.262" fill="#58595B"/>
<path d="M82.3345 59.2794C81.4832 59.2794 80.7883 58.5844 80.7883 57.7331C80.7883 56.8818 81.4832 56.1868 82.3345 56.1868C82.5256 56.1868 82.9079 56.0652 83.4465 55.7351C85.1491 54.6753 86.0004 52.5209 85.6008 50.384L81.2574 27.8849C80.8578 25.8174 79.0509 24.3233 76.9487 24.3233H76.0278C75.1765 24.3233 74.4816 23.6283 74.4816 22.777C74.4816 21.9257 75.1765 21.2307 76.0278 21.2307H76.9487C80.545 21.2307 83.6376 23.7847 84.3151 27.3115L88.6412 49.8106C89.3014 53.1812 87.8594 56.6212 85.097 58.3759C84.124 58.984 83.2032 59.2967 82.3345 59.2967" fill="#58595B"/>
<path d="M72.7616 88.2068H71.3022C68.0706 88.2068 65.4298 85.5833 65.4298 82.3344V76.2362C65.4298 75.3849 66.1248 74.69 66.9761 74.69C67.8274 74.69 68.5223 75.3849 68.5223 76.2362V82.3344C68.5223 83.8633 69.7559 85.0969 71.2848 85.0969H72.7442C74.2731 85.0969 75.5066 83.8633 75.5066 82.3344V64.4047C75.5066 63.5533 76.2016 62.8584 77.0529 62.8584C77.9042 62.8584 78.5992 63.5533 78.5992 64.4047V82.3344C78.5992 85.566 75.9757 88.2068 72.7268 88.2068" fill="#58595B"/>
<path d="M62.6673 88.2069H61.2079C57.9764 88.2069 55.3356 85.5834 55.3356 82.3345V63.6229C55.3356 62.7716 56.0305 62.0767 56.8818 62.0767C57.7332 62.0767 58.4281 62.7716 58.4281 63.6229V82.3345C58.4281 83.8634 59.6617 85.097 61.1905 85.097H62.6499C64.1788 85.097 65.4124 83.8634 65.4124 82.3345V76.2363C65.4124 75.385 66.1073 74.6901 66.9587 74.6901C67.81 74.6901 68.5049 75.385 68.5049 76.2363V82.3345C68.5049 85.5661 65.8815 88.2069 62.6326 88.2069" fill="#58595B"/>
<path d="M66.1073 3.37041C63.3275 3.37041 61.0516 5.62901 61.0516 8.42619C61.0516 11.2234 63.3102 13.482 66.1073 13.482C68.9045 13.482 71.1631 11.2234 71.1631 8.42619C71.1631 5.62901 68.8872 3.37041 66.1073 3.37041ZM66.1073 16.5745C61.6075 16.5745 57.9417 12.9086 57.9417 8.42619C57.9417 3.94375 61.6075 0.260498 66.1073 0.260498C70.6072 0.260498 74.2557 3.92637 74.2557 8.42619C74.2557 12.926 70.5898 16.5745 66.1073 16.5745Z" fill="#F48E23"/>
<path d="M81.6395 65.1865H52.243C51.3917 65.1865 50.6968 64.4916 50.6968 63.6403C50.6968 62.7889 51.3917 62.094 52.243 62.094H81.6395C82.4909 62.094 83.1858 62.7889 83.1858 63.6403C83.1858 64.4916 82.4909 65.1865 81.6395 65.1865Z" fill="#58595B"/>
</g>
<defs>
<clipPath id="clip0_1036_135039">
<rect width="88.7975" height="95" fill="white"/>
</clipPath>
</defs>
</svg>
