<?xml version="1.0" encoding="utf-8"?>
<!-- Generator: Adobe Illustrator 28.3.0, SVG Export Plug-In . SVG Version: 6.00 Build 0)  -->
<svg version="1.1" id="Layer_1" xmlns="http://www.w3.org/2000/svg" xmlns:xlink="http://www.w3.org/1999/xlink" x="0px" y="0px"
	 viewBox="0 0 76 57.6" style="enable-background:new 0 0 76 57.6;" xml:space="preserve">
<style type="text/css">
	.st0{fill:#58595B;}
	.st1{fill:#F48E23;}
</style>
<g>
	<path class="st0" d="M58.3,50.8c-8.6,0-17.3,0-26,0c-0.2,0.8-0.3,1.7-0.7,2.4c-1.7,4-6.8,5.1-10,2.3c-1.4-1.2-2.1-2.6-2.2-4.4
		c0-0.4-0.2-0.4-0.5-0.4c-1.7,0-3.5,0-5.2,0c-1.5,0-2.2-0.7-2.2-2.1c0-0.3,0-0.6,0-0.8c0-0.7-0.1-1.2-0.5-1.8
		c-0.3-0.5-0.5-1.2-0.5-1.9c0-8.5,0-16.9,0-25.4c0-2.1,1.4-3.5,3.5-3.5c2.9,0,5.8,0,8.8,0c0.1,0,0.3,0,0.4,0
		c0.5,0.1,0.7,0.4,0.7,0.9c0,0.4-0.3,0.6-0.8,0.6c-1.7,0-3.5,0-5.2,0c-1.3,0-2.6,0-3.9,0c-1.2,0-2,0.7-2,2c0,5.8,0,11.6,0,17.4
		c0,2.6,0,5.2,0,7.8c0,0.4,0.1,0.9,0.3,1.2c0.3,0.6,0.9,0.9,1.6,0.9c2.4,0,4.7,0,7.1,0c0.2,0,0.4-0.1,0.5-0.2c2.7-2.2,5.9-2.2,8.6,0
		c0.2,0.1,0.4,0.2,0.6,0.2c6.4,0,12.9,0,19.3,0c1.2,0,1.9-0.8,1.9-2c0-5.1,0-10.1,0-15.2c0-0.1,0-0.2,0-0.3c0-0.5,0.3-0.8,0.8-0.8
		c0.4,0,0.7,0.3,0.7,0.8c0,1.7,0,3.3,0,5c0,3.5-0.1,7,0,10.4c0,1.9-1.4,3.6-3.5,3.6c-5.9,0-11.8,0-17.7,0c-0.2,0-0.4,0-0.7,0
		c0.2,0.5,0.3,1,0.5,1.5c0,0.1,0.3,0.2,0.4,0.2c4,0,8,0,12,0c4.5,0,8.9,0,13.4,0c0.5,0,0.9-0.1,1-0.7c0-0.3,0.2-0.6,0.4-1
		c-0.8,0-1.5,0-2.2,0c-1.2,0-2.1-0.6-2.4-1.7c-0.1-0.2-0.1-0.4-0.1-0.6c0-5.9,0-11.8,0-17.7c0-1.7,0.9-2.6,2.6-2.6
		c2.7,0,5.4,0,8.1,0c1.4,0,2.5,0.6,3.4,1.7c1.9,2.6,3.8,5.2,5.7,7.8c0.9,1.3,1.4,2.6,1.4,4.2c0,2.2,0,4.4,0,6.5c0,0.8-0.3,1.4-1,1.9
		c-0.2,0.2-0.3,0.3-0.3,0.6c0,0.4,0,0.8,0,1.1c0,1.2-0.7,1.9-1.9,1.9c-0.3,0-0.8-0.1-1,0.1c-0.2,0.1-0.1,0.6-0.2,0.9
		c-0.5,2.8-2.7,4.9-5.4,5.3c-3,0.4-5.6-1-6.8-3.7C58.6,52.6,58.5,51.7,58.3,50.8z M56,36.3C56,36.3,56,36.3,56,36.3
		c0,2.9,0,5.7,0,8.6c0,0.9,0.2,1.1,1.1,1.2c0.8,0,1.7,0,2.5,0c0.5,0,0.9-0.1,1.2-0.4c2.3-1.8,5.4-1.9,7.7-0.2
		c0.6,0.5,1.2,0.6,1.9,0.6c0.8,0,1.6,0,2.5,0c0.8,0,1-0.3,1-1c0-2.2,0-4.3,0-6.5c0-1.1-0.3-2-0.9-2.9c-2-2.7-3.9-5.3-5.9-8
		c-0.5-0.7-1.2-1.1-2.1-1.1c-2.7,0-5.4,0-8.1,0c-0.7,0-1.1,0.2-1.1,1.1C56,30.5,56,33.4,56,36.3z M64.8,55.6c2.7,0,4.9-2.2,4.9-4.9
		c0-2.6-2.2-4.9-4.9-4.9c-2.6,0-4.9,2.3-4.9,4.9C59.9,53.4,62.2,55.6,64.8,55.6z M30.6,50.7c0-2.7-2.2-4.9-4.9-4.9
		c-2.6,0-4.9,2.3-4.9,4.9c0,2.7,2.2,4.9,4.9,4.9C28.4,55.6,30.6,53.4,30.6,50.7z M13,47.6c0,0.4,0,0.8,0,1.2c0,0.4,0.2,0.5,0.5,0.5
		c1.9,0,3.8,0,5.6,0c0.1,0,0.3-0.1,0.3-0.2c0.2-0.5,0.3-0.9,0.5-1.5C17.6,47.6,15.3,47.6,13,47.6z M70.6,47.6c0.2,0.5,0.3,1,0.5,1.4
		c0.2,0.5,0.7,0.2,1,0.2c0.2,0,0.4-0.1,0.6-0.2c0,0,0-0.1,0-0.1c0-0.4,0-0.8,0-1.3C72,47.6,71.3,47.6,70.6,47.6z"/>
	<path class="st1" d="M35.9,5.2c-0.4,0-0.8,0-1.1-0.1c-0.7-0.2-1.2-0.6-1.3-1.4c-0.1-0.5-0.1-1.1,0-1.6c0.1-0.9,0.9-1.5,1.9-1.5
		c1.9,0,3.9,0,5.8,0c1.1,0,1.9,0.8,1.9,1.9c0,0.3,0,0.6,0,0.8c-0.1,1.1-0.8,1.8-1.8,1.8c-0.4,0-0.6,0.1-0.6,0.6
		c0,0.4-0.1,0.9,0.1,1.2c0.2,0.2,0.7,0.2,1.1,0.4c0.8,0.2,1.5,0.5,2.3,0.8c0.6-0.8,1.2-1.8,2.5-1.8c0.8,0,1.5,0.3,2.1,0.8
		c0.7,0.6,1.1,1.3,1.1,2.2c0,0.9-0.6,1.5-1,2.1c0.7,1.2,1.5,2.2,2.1,3.4c2.6,5.1,1.7,11.5-2.1,15.7c-2.4,2.7-5.4,4.2-8.9,4.6
		c-4.5,0.5-8.5-0.8-11.6-4c-4.3-4.3-5.4-9.5-3.3-15.2c1.7-4.6,5.2-7.5,10-8.7c0.8-0.2,0.8-0.2,0.8-1C35.9,5.8,35.9,5.5,35.9,5.2z
		 M38.4,8.4c-4-0.2-9,2.2-11.4,7c-2.4,5-1.5,10.8,2.6,14.7c3.8,3.7,9.7,4.7,14.7,2c4.6-2.5,6.8-7.4,6.6-11.2c-1.1,0-2.3,0-3.4,0
		c-2.7,0-5.4,0-8.1,0c-0.6,0-1-0.3-1-0.8c0-2.9,0-5.8,0-8.7C38.4,10.4,38.4,9.4,38.4,8.4z M38.3,2.2C38.3,2.2,38.3,2.2,38.3,2.2
		c-0.9,0-1.8,0-2.7,0c-0.5,0-0.6,0.1-0.6,0.7c0,0.6,0.1,0.8,0.6,0.8c1.8,0,3.6,0,5.4,0c0.5,0,0.6-0.1,0.6-0.8c0-0.6-0.1-0.7-0.6-0.7
		C40.1,2.2,39.2,2.2,38.3,2.2z M45.8,8.6c0.7,0.5,1.4,1.1,2.1,1.6c0.4-0.4,0.7-0.8,0.5-1.3c-0.2-0.6-0.7-1-1.4-1.1
		C46.4,7.7,46.1,8.1,45.8,8.6z M37.5,6.8c0.5,0,1,0,1.5,0c0.1,0,0.3-0.1,0.3-0.2c0-0.4,0-0.8,0-1.2c-0.6,0-1.2,0-1.7,0
		C37.5,5.8,37.5,6.3,37.5,6.8z M43.2,11.5c0-0.5-0.4-0.9-0.9-0.9c-0.5,0-0.9,0.4-0.9,0.9c0,0.5,0.4,0.9,0.9,0.9
		C42.8,12.5,43.2,12,43.2,11.5z M48.7,17c0-0.5-0.3-0.9-0.8-0.9c-0.5,0-0.9,0.4-0.9,0.9c0,0.5,0.4,0.9,0.9,0.9
		C48.3,17.9,48.7,17.5,48.7,17z M44.8,13.8c0,0.5,0.4,0.9,0.9,0.9c0.5,0,0.9-0.4,0.9-0.9c0-0.5-0.4-0.9-0.9-0.9
		C45.1,12.9,44.8,13.3,44.8,13.8z"/>
	<path class="st0" d="M4.9,19.4c-1.2,0-2.4,0-3.6,0c-0.6,0-0.9-0.3-0.9-0.8c0-0.5,0.3-0.8,0.9-0.8c2.4,0,4.8,0,7.2,0
		c0.5,0,0.9,0.4,0.9,0.8c0,0.5-0.3,0.7-0.9,0.7C7.3,19.4,6.1,19.4,4.9,19.4C4.9,19.4,4.9,19.4,4.9,19.4z"/>
	<path class="st0" d="M6,23.9c-0.9,0-1.7,0-2.6,0c-0.5,0-0.9-0.3-0.9-0.7c0-0.4,0.3-0.8,0.8-0.8c0.7,0,1.3,0,2,0c1,0,2.1,0,3.1,0
		c0.6,0,1,0.4,0.9,1c-0.1,0.4-0.4,0.6-0.8,0.6C7.7,23.9,6.8,23.9,6,23.9C6,23.9,6,23.9,6,23.9z"/>
	<path class="st0" d="M7,27c0.5,0,1.1,0,1.6,0c0.5,0,0.8,0.3,0.8,0.7c0,0.4-0.3,0.8-0.8,0.8c-1.1,0-2.1,0-3.2,0
		c-0.5,0-0.8-0.3-0.8-0.8c0-0.4,0.3-0.7,0.8-0.7C5.9,27,6.5,27,7,27z"/>
	<path class="st0" d="M64.9,37.9c-1.3,0-2.6,0-3.9,0c-1.2,0-1.7-0.5-1.7-1.7c0-2,0-4,0-6.1c0-1.1,0.6-1.7,1.7-1.7
		c1.3,0,2.6,0,3.9,0.1c0.4,0,1,0.4,1.3,0.7c1.3,1.5,2.5,3.1,3.7,4.7c0.7,0.9,0.6,1.8,0.5,2.8c-0.1,0.7-0.7,1.1-1.5,1.1
		C67.6,37.9,66.3,37.9,64.9,37.9C64.9,37.9,64.9,37.9,64.9,37.9z M60.9,36.3c2.7,0,5.4,0,8,0c0.1-0.7,0-1.2-0.4-1.7
		c-1.1-1.4-2.2-2.8-3.3-4.1C65,30.2,64.8,30,64.5,30c-1.2,0-2.4,0-3.7,0C60.9,32.1,60.9,34.2,60.9,36.3z"/>
	<path class="st0" d="M60.9,40.1c-0.2,0-0.5,0-0.7,0c-0.4,0-0.7-0.3-0.7-0.7c0-0.4,0.2-0.8,0.6-0.8c0.6-0.1,1.1-0.1,1.7,0
		c0.4,0,0.7,0.4,0.6,0.8c0,0.4-0.3,0.7-0.8,0.7C61.4,40.2,61.2,40.1,60.9,40.1C60.9,40.1,60.9,40.1,60.9,40.1z"/>
	<path class="st0" d="M62.4,50.8c0-1.5,1.1-2.6,2.5-2.6c1.3,0,2.5,1.2,2.5,2.5c0,1.4-1.1,2.5-2.6,2.5C63.5,53.2,62.4,52.1,62.4,50.8
		z M64.9,51.7c0.5,0,1-0.5,1-1c0-0.5-0.5-0.9-1-0.9c-0.5,0-1,0.4-1,1C64,51.3,64.4,51.7,64.9,51.7z"/>
	<path class="st0" d="M28.2,50.7c0,1.5-1,2.5-2.4,2.5c-1.5,0-2.5-1-2.5-2.5c0-1.4,1.1-2.5,2.5-2.5C27.1,48.2,28.2,49.3,28.2,50.7z
		 M25.7,51.7c0.6,0,1-0.4,1-0.9c0-0.5-0.5-1-1-1c-0.5,0-0.9,0.4-1,0.9C24.7,51.2,25.2,51.7,25.7,51.7z"/>
	<path class="st1" d="M42.4,29.5c0.5,0,0.8,0.4,0.8,0.9c0,0.5-0.4,0.8-0.8,0.8c-0.5,0-0.8-0.4-0.8-0.8
		C41.6,29.8,41.9,29.5,42.4,29.5z"/>
	<path class="st1" d="M30,24.8c0,0.5-0.3,0.8-0.8,0.8c-0.4,0-0.8-0.4-0.8-0.8c0-0.5,0.4-0.9,0.8-0.9C29.6,24,30,24.4,30,24.8z"/>
	<path class="st1" d="M32.2,13.8c0,0.5-0.3,0.8-0.8,0.9c-0.5,0-0.8-0.4-0.8-0.9c0-0.5,0.3-0.8,0.8-0.8C31.8,13,32.1,13.3,32.2,13.8z
		"/>
	<path class="st1" d="M29.1,17.9c-0.5,0-0.8-0.3-0.8-0.8c0-0.5,0.4-0.9,0.8-0.9c0.5,0,0.8,0.4,0.8,0.8C30,17.6,29.6,17.9,29.1,17.9z
		"/>
	<path class="st1" d="M32.2,28.1c0,0.5-0.4,0.9-0.8,0.8c-0.5,0-0.8-0.4-0.8-0.9c0-0.5,0.4-0.8,0.9-0.8
		C31.8,27.3,32.2,27.6,32.2,28.1z"/>
	<path class="st1" d="M47.9,25.6c-0.4,0-0.8-0.4-0.8-0.8c0-0.5,0.3-0.9,0.8-0.9c0.5,0,0.8,0.4,0.8,0.8
		C48.7,25.3,48.4,25.6,47.9,25.6z"/>
	<path class="st1" d="M34.7,29.5c0.5,0,0.8,0.4,0.8,0.8c0,0.4-0.4,0.8-0.9,0.8c-0.5,0-0.8-0.4-0.8-0.8
		C33.8,29.8,34.2,29.5,34.7,29.5z"/>
	<path class="st1" d="M38.5,30.2c0.5,0,0.9,0.4,0.8,0.9c0,0.5-0.4,0.9-0.9,0.8c-0.4,0-0.8-0.4-0.7-0.9
		C37.7,30.6,38.1,30.2,38.5,30.2z"/>
	<path class="st1" d="M28.4,20.1c0.4,0,0.8,0.4,0.8,0.8c0,0.5-0.3,0.8-0.8,0.8c-0.5,0-0.9-0.3-0.8-0.8
		C27.6,20.5,27.9,20.1,28.4,20.1z"/>
	<path class="st1" d="M35.4,11.6c0,0.5-0.4,0.8-0.8,0.8c-0.4,0-0.9-0.4-0.8-0.9c0-0.5,0.4-0.8,0.8-0.8
		C35.1,10.8,35.4,11.1,35.4,11.6z"/>
	<path class="st1" d="M45.6,28.9c-0.5,0-0.8-0.4-0.8-0.9c0-0.5,0.4-0.8,0.9-0.8c0.4,0,0.8,0.4,0.8,0.9
		C46.5,28.6,46.1,28.9,45.6,28.9z"/>
</g>
</svg>
