<svg width="131" height="95" viewBox="0 0 131 95" fill="none" xmlns="http://www.w3.org/2000/svg">
<g clip-path="url(#clip0_1038_136547)">
<path d="M110.815 21.4645C111.1 21.4645 111.385 21.4009 111.648 21.2737L118.907 17.6043C119.784 17.1589 120.135 16.1196 119.674 15.25C119.214 14.4016 118.117 14.0834 117.24 14.5076L109.981 18.177C109.104 18.6224 108.753 19.6829 109.214 20.5313C109.543 21.1252 110.157 21.4645 110.815 21.4645Z" fill="#F48E23"/>
<path d="M127.021 15.441L122.81 21.8677L116.758 6.08739L122.635 3.98759L127.021 15.441ZM122.372 27.4884C122.986 27.4884 123.556 27.1914 123.885 26.6824L130.529 16.5864C130.837 16.1198 130.902 15.5471 130.705 15.038L125.354 1.12423C125.025 0.233403 123.972 -0.233219 123.051 0.106143L113.819 3.41492C113.38 3.5846 113.008 3.90275 112.81 4.32695C112.613 4.75115 112.591 5.21777 112.766 5.66319L120.705 26.343C120.946 26.9581 121.516 27.4035 122.196 27.4672C122.262 27.4672 122.328 27.4672 122.394 27.4672" fill="#F48E23"/>
<path d="M70.4639 27.4882C73.885 27.4882 76.6481 30.1819 76.6481 33.4695C76.6481 36.757 73.885 39.4507 70.4639 39.4507C67.0429 39.4507 64.2797 36.757 64.2797 33.4695C64.2797 30.1819 67.0429 27.4882 70.4639 27.4882ZM70.4639 42.9292C75.8587 42.9292 80.2446 38.6871 80.2446 33.4695C80.2446 28.2518 75.8587 24.0098 70.4639 24.0098C65.0692 24.0098 60.6832 28.2518 60.6832 33.4695C60.6832 38.6871 65.0692 42.9292 70.4639 42.9292Z" fill="#58595B"/>
<path d="M73.0516 87.131C73.2051 87.131 73.3367 87.131 73.4902 87.0886C74.4551 86.8553 75.0472 85.922 74.806 84.9888L69.5648 64.6483C69.3893 63.9908 68.863 63.503 68.1613 63.3545C67.4814 63.2272 66.7797 63.4817 66.363 64.0332L51.9771 82.7829C51.3849 83.5465 51.5604 84.6494 52.3499 85.2221C53.1393 85.7948 54.2797 85.6251 54.8718 84.8615L66.9771 69.0812L71.2972 85.8372C71.4946 86.622 72.2402 87.1522 73.0297 87.1522" fill="#58595B"/>
<path d="M42.7885 87.1311C43.3586 87.1311 43.9288 86.8553 44.2797 86.3675L65.8806 55.3795C66.8674 54.0645 68.2271 53.004 69.8499 52.3889L84.7183 46.7046C84.8718 46.641 85.0253 46.5774 85.1569 46.4713L94.1043 39.875C97.0867 37.6691 99.4332 34.7421 100.903 31.3697L105.508 20.7647C105.946 19.7466 107.174 19.2376 108.249 19.6618C109.258 20.0647 109.784 21.1253 109.455 22.1433L105.574 34.2755C104.565 37.457 102.92 40.3416 100.683 42.8656L91.7797 52.9828C91.4069 53.3858 91.2753 53.9373 91.385 54.4675L97.942 84.098C98.1393 85.0313 99.1043 85.6463 100.069 85.4342C101.034 85.2221 101.648 84.3101 101.451 83.3769L95.0692 54.5736L103.403 45.0927C105.946 42.2081 107.832 38.8993 108.973 35.2724L112.854 23.1402C113.731 20.4041 112.328 17.4983 109.565 16.4166C106.692 15.2713 103.359 16.6075 102.153 19.386L97.5472 29.9911C96.3411 32.7908 94.3893 35.23 91.8893 37.0752L83.1393 43.5231L68.5122 49.1226C66.2534 49.9922 64.3236 51.4557 62.92 53.3646L41.2972 84.3737C40.749 85.1797 40.9683 86.2614 41.7797 86.7917C42.0867 86.9826 42.4376 87.0886 42.7885 87.0886" fill="#58595B"/>
<path d="M115.332 91.5427H4.41116V87.131H115.332V91.5427ZM2.61291 95.0212H117.13C118.117 95.0212 118.929 94.2364 118.929 93.282V85.3918C118.929 84.4374 118.117 83.6526 117.13 83.6526H2.61291C1.62607 83.6526 0.814659 84.4374 0.814659 85.3918V93.282C0.814659 94.2364 1.62607 95.0212 2.61291 95.0212Z" fill="#58595B"/>
<path d="M5.6172 81.9133C6.60405 81.9133 7.41545 81.1285 7.41545 80.1741V73.1747H29.2795V80.1741C29.2795 81.1285 30.0909 81.9133 31.0777 81.9133C32.0646 81.9133 32.876 81.1285 32.876 80.1741V71.4355C32.876 70.4811 32.0646 69.6963 31.0777 69.6963H5.6172C4.63036 69.6963 3.81896 70.4811 3.81896 71.4355V80.1741C3.81896 81.1285 4.63036 81.9133 5.6172 81.9133Z" fill="#F48E23"/>
</g>
<defs>
<clipPath id="clip0_1038_136547">
<rect width="130" height="95" fill="white" transform="matrix(-1 0 0 1 130.815 0)"/>
</clipPath>
</defs>
</svg>
