<svg width="103" height="95" viewBox="0 0 103 95" fill="none" xmlns="http://www.w3.org/2000/svg">
<g clip-path="url(#clip0_1036_135076)">
<path d="M97.2439 69.9963C94.4734 69.9963 92.2065 67.7295 92.2065 64.959C92.2065 64.1347 92.8706 63.4706 93.6948 63.4706C94.5191 63.4706 95.1832 64.1347 95.1832 64.959C95.1832 66.0809 96.099 67.0197 97.2439 67.0197C98.3888 67.0197 99.3046 66.1038 99.3046 64.959V37.2993C99.3046 35.2614 97.656 33.6129 95.6182 33.6129H93.7177C92.8935 33.6129 92.2294 32.9488 92.2294 32.1245C92.2294 31.3002 92.8935 30.6362 93.7177 30.6362H95.6182C99.3046 30.6362 102.281 33.6357 102.281 37.2993V64.959C102.281 67.7295 100.014 69.9963 97.2439 69.9963Z" fill="#58595B"/>
<path d="M93.7179 62.509H74.5072C73.6829 62.509 73.0189 61.845 73.0189 61.0207V47.3969C73.0189 45.3133 71.8054 43.4128 69.9049 42.5198C69.8133 42.4741 69.7446 42.4283 69.653 42.3825L49.9386 28.1405C48.8167 27.4765 47.9924 26.4232 47.6489 25.141C47.2826 23.8358 47.4658 22.4849 48.1298 21.3172C48.7938 20.1494 49.87 19.3022 51.1751 18.9588C52.4802 18.5924 53.8312 18.7756 54.9989 19.4396C55.0676 19.4625 55.1134 19.5083 55.1592 19.5541C59.2349 22.6223 70.9353 30.6363 75.9955 30.6592H93.695C94.5193 30.6592 95.1833 31.3232 95.1833 32.1475C95.1833 32.9718 94.5193 33.6358 93.695 33.6358H75.9726C69.1035 33.59 55.3882 23.4695 53.4419 22.0041C52.984 21.7751 52.4573 21.7064 51.9536 21.8438C51.427 21.9812 50.9919 22.3246 50.7171 22.8055C50.4424 23.2863 50.3737 23.8358 50.5111 24.3625C50.6485 24.8891 50.9919 25.3241 51.4728 25.5989C51.5185 25.6218 51.5643 25.6447 51.6101 25.6905L71.2787 39.9096C74.1409 41.3063 75.9726 44.2371 75.9726 47.4198V59.5553H92.2067V41.1918C92.2067 40.3675 92.8707 39.7035 93.695 39.7035C94.5193 39.7035 95.1833 40.3675 95.1833 41.1918V61.0436C95.1833 61.8679 94.5193 62.5319 93.695 62.5319" fill="#58595B"/>
<path d="M89.665 95.0001H88.2454C85.1313 95.0001 82.6127 92.4814 82.6127 89.3674V73.2707C82.6127 72.4464 83.2767 71.7824 84.101 71.7824C84.9253 71.7824 85.5893 72.4464 85.5893 73.2707V89.3674C85.5893 90.8328 86.7799 92.0234 88.2454 92.0234H89.665C91.1304 92.0234 92.321 90.8328 92.321 89.3674V62.5091H84.1239C83.2996 62.5091 82.6356 61.8451 82.6356 61.0208C82.6356 60.1965 83.2996 59.5325 84.1239 59.5325H93.8322C94.6565 59.5325 95.3205 60.1965 95.3205 61.0208V89.3674C95.3205 92.4814 92.8019 95.0001 89.6879 95.0001" fill="#58595B"/>
<path d="M79.9566 95.0001H78.537C75.423 95.0001 72.9043 92.4814 72.9043 89.3674V61.0208C72.9043 60.1965 73.5683 59.5325 74.3926 59.5325H84.101C84.9253 59.5325 85.5893 60.1965 85.5893 61.0208C85.5893 61.8451 84.9253 62.5091 84.101 62.5091H75.9038V89.3674C75.9038 90.8328 77.0945 92.0234 78.5599 92.0234H79.9795C81.4449 92.0234 82.6356 90.8328 82.6356 89.3674V73.2707C82.6356 72.4464 83.2996 71.7824 84.1239 71.7824C84.9482 71.7824 85.6122 72.4464 85.6122 73.2707V89.3674C85.6122 92.4814 83.0935 95.0001 79.9795 95.0001" fill="#58595B"/>
<path d="M83.2767 13.4634C80.5978 13.4634 78.4225 15.6387 78.4225 18.3176C78.4225 20.9966 80.5978 23.1718 83.2767 23.1718C85.9557 23.1718 88.1309 20.9966 88.1309 18.3176C88.1309 15.6387 85.9557 13.4634 83.2767 13.4634ZM83.2767 26.1484C78.9492 26.1484 75.4459 22.6223 75.4459 18.3176C75.4459 14.013 78.9721 10.4868 83.2767 10.4868C87.5814 10.4868 91.1075 14.013 91.1075 18.3176C91.1075 22.6223 87.5814 26.1484 83.2767 26.1484Z" fill="#F48E23"/>
<path d="M84.101 39.6578C83.2767 39.6578 82.6127 38.9938 82.6127 38.1695V36.6812C82.6127 35.8569 83.2767 35.1929 84.101 35.1929C84.9253 35.1929 85.5893 35.8569 85.5893 36.6812V38.1695C85.5893 38.9938 84.9253 39.6578 84.101 39.6578Z" fill="#58595B"/>
<path d="M84.101 48.5189C83.2767 48.5189 82.6127 47.8549 82.6127 47.0306V44.489C82.6127 43.6647 83.2767 43.0007 84.101 43.0007C84.9253 43.0007 85.5893 43.6647 85.5893 44.489V47.0306C85.5893 47.8549 84.9253 48.5189 84.101 48.5189Z" fill="#58595B"/>
<path d="M84.101 56.3497C83.2767 56.3497 82.6127 55.6857 82.6127 54.8614V53.3731C82.6127 52.5488 83.2767 51.8848 84.101 51.8848C84.9253 51.8848 85.5893 52.5488 85.5893 53.3731V54.8614C85.5893 55.6857 84.9253 56.3497 84.101 56.3497Z" fill="#58595B"/>
<path d="M54.9988 64.5698H1.48831C0.664015 64.5698 0 63.9058 0 63.0815V1.48831C0 0.664015 0.664015 0 1.48831 0H54.9759C55.8002 0 56.4642 0.664015 56.4642 1.48831V10.7845C56.4642 11.6088 55.8002 12.2728 54.9759 12.2728C54.1516 12.2728 53.4876 11.6088 53.4876 10.7845V2.99952H2.97662V61.5932H53.4876V42.1306C53.4876 41.3063 54.1516 40.6423 54.9759 40.6423C55.8002 40.6423 56.4642 41.3063 56.4642 42.1306V63.0815C56.4642 63.9058 55.8002 64.5698 54.9759 64.5698" fill="#58595B"/>
<path d="M48.9769 70.4315H8.70096C7.87666 70.4315 7.21265 69.7674 7.21265 68.9431C7.21265 68.1189 7.87666 67.4548 8.70096 67.4548H48.9769C49.8012 67.4548 50.4652 68.1189 50.4652 68.9431C50.4652 69.7674 49.8012 70.4315 48.9769 70.4315Z" fill="#58595B"/>
<path d="M28.8504 81.216C28.0261 81.216 27.3621 80.552 27.3621 79.7277V68.9431C27.3621 68.1189 28.0261 67.4548 28.8504 67.4548C29.6747 67.4548 30.3387 68.1189 30.3387 68.9431V79.7277C30.3387 80.552 29.6747 81.216 28.8504 81.216Z" fill="#58595B"/>
<path d="M44.7639 94.5649C44.4204 94.5649 44.0999 94.4504 43.8251 94.2214L28.2551 81.4449L12.6851 94.2214C12.044 94.7481 11.1052 94.6565 10.5785 94.0154C10.0519 93.3743 10.1435 92.4355 10.7846 91.9088L27.3163 78.3767C27.8658 77.9187 28.6672 77.9187 29.2168 78.3767L45.7485 91.9088C46.3896 92.4355 46.4812 93.3743 45.9545 94.0154C45.6569 94.3817 45.2218 94.5649 44.8097 94.5649" fill="#58595B"/>
<path d="M43.2525 15.0892H10.6929C9.86861 15.0892 9.20459 14.4252 9.20459 13.6009C9.20459 12.7766 9.86861 12.1125 10.6929 12.1125H43.2754C44.0997 12.1125 44.7638 12.7766 44.7638 13.6009C44.7638 14.4252 44.0997 15.0892 43.2754 15.0892" fill="#58595B"/>
<path d="M43.2525 23.126H10.6929C9.86861 23.126 9.20459 22.462 9.20459 21.6377C9.20459 20.8134 9.86861 20.1494 10.6929 20.1494H43.2754C44.0997 20.1494 44.7638 20.8134 44.7638 21.6377C44.7638 22.462 44.0997 23.126 43.2754 23.126" fill="#58595B"/>
<path d="M31.575 37.4368H10.6929C9.86861 37.4368 9.20459 36.7728 9.20459 35.9485C9.20459 35.1242 9.86861 34.4602 10.6929 34.4602H31.575C32.3993 34.4602 33.0634 35.1242 33.0634 35.9485C33.0634 36.7728 32.3993 37.4368 31.575 37.4368Z" fill="#58595B"/>
</g>
<defs>
<clipPath id="clip0_1036_135076">
<rect width="102.281" height="95" fill="white"/>
</clipPath>
</defs>
</svg>
