<svg width="74" height="96" viewBox="0 0 74 96" fill="none" xmlns="http://www.w3.org/2000/svg">
<g clip-path="url(#clip0_1036_135061)">
<path d="M23.729 78.6909H64.2412V30.9376H23.729V78.6909ZM65.7401 81.6887H22.2301C21.4068 81.6887 20.7312 81.0131 20.7312 80.1898V29.4176C20.7312 28.5943 21.4068 27.9187 22.2301 27.9187H65.7401C66.5634 27.9187 67.239 28.5943 67.239 29.4176V80.1687C67.239 80.992 66.5634 81.6676 65.7401 81.6676" fill="#58595B"/>
<path d="M21.6178 15.1677C19.4856 15.1677 17.7334 16.8988 17.7334 19.0521V82.3222C17.7334 84.4544 19.4645 86.2066 21.6178 86.2066H66.88C69.0123 86.2066 70.7645 84.4755 70.7645 82.3222V19.0521C70.7645 16.9199 69.0334 15.1677 66.88 15.1677H60.8845V19.411C60.8845 20.2344 60.2089 20.9099 59.3856 20.9099H29.1334C28.31 20.9099 27.6345 20.2344 27.6345 19.411V15.1677H21.6389H21.6178ZM66.88 89.1833H21.6178C17.8178 89.1833 14.7356 86.101 14.7356 82.301V19.0521C14.7356 15.2521 17.8178 12.1699 21.6178 12.1699H29.1123C29.9356 12.1699 30.6112 12.8455 30.6112 13.6688V17.9121H57.8656V13.6688C57.8656 12.8455 58.5412 12.1699 59.3645 12.1699H66.8589C70.6589 12.1699 73.7412 15.2521 73.7412 19.0521V82.3222C73.7412 86.1222 70.6589 89.2044 66.8589 89.2044" fill="#58595B"/>
<path d="M37.2401 11.8743H51.2367V8.41206H48.6823C47.859 8.41206 47.1834 7.7365 47.1834 6.91317V3.57761H41.2934V6.91317C41.2934 7.7365 40.6179 8.41206 39.7945 8.41206H37.2401V11.8743ZM52.7356 14.8721H35.7201C34.8967 14.8721 34.2212 14.1965 34.2212 13.3732V6.91317C34.2212 6.08983 34.8967 5.41428 35.7201 5.41428H38.2745V2.07872C38.2745 1.25539 38.9501 0.579834 39.7734 0.579834H48.6612C49.4845 0.579834 50.1601 1.25539 50.1601 2.07872V5.41428H52.7145C53.5379 5.41428 54.2134 6.08983 54.2134 6.91317V13.3732C54.2134 14.1965 53.5379 14.8721 52.7145 14.8721" fill="#58595B"/>
<path d="M49.2733 74.7643C48.8933 74.7643 48.5133 74.6165 48.2178 74.3209L43.1933 69.2965C42.6022 68.7054 42.6022 67.7554 43.1933 67.1854C43.7844 66.5943 44.7344 66.5943 45.3256 67.1854L49.2944 71.1543L56.6411 63.8076C57.2322 63.2165 58.1822 63.2165 58.7733 63.8076C59.3644 64.3987 59.3644 65.3487 58.7733 65.9398L50.3711 74.3631C50.0756 74.6587 49.6956 74.8065 49.3156 74.8065" fill="#F48E23"/>
<path d="M56.8099 42.1264H30.5477C29.7244 42.1264 29.0488 41.4509 29.0488 40.6275C29.0488 39.8042 29.7244 39.1287 30.5477 39.1287H56.8099C57.6333 39.1287 58.3088 39.8042 58.3088 40.6275C58.3088 41.4509 57.6333 42.1264 56.8099 42.1264Z" fill="#F48E23"/>
<path d="M56.8099 50.1909H30.5477C29.7244 50.1909 29.0488 49.5153 29.0488 48.692C29.0488 47.8687 29.7244 47.1931 30.5477 47.1931H56.8099C57.6333 47.1931 58.3088 47.8687 58.3088 48.692C58.3088 49.5153 57.6333 50.1909 56.8099 50.1909Z" fill="#F48E23"/>
<path d="M56.8099 58.2553H30.5477C29.7244 58.2553 29.0488 57.5798 29.0488 56.7565C29.0488 55.9331 29.7244 55.2576 30.5477 55.2576H56.8099C57.6333 55.2576 58.3088 55.9331 58.3088 56.7565C58.3088 57.5798 57.6333 58.2553 56.8099 58.2553Z" fill="#F48E23"/>
</g>
<defs>
<clipPath id="clip0_1036_135061">
<rect width="73.7411" height="95" fill="white" transform="translate(0 0.579834)"/>
</clipPath>
</defs>
</svg>
