<svg width="150" height="90" viewBox="0 0 150 90" fill="none" xmlns="http://www.w3.org/2000/svg">
<g clip-path="url(#clip0_1036_135071)">
<path d="M89.1791 72.704C88.6084 73.0371 88.1475 73.237 87.8182 73.5701C85.777 75.5911 83.8235 77.7454 81.6944 79.6775C80.4872 80.788 80.4653 81.8984 80.9262 83.2532C81.8261 86.007 84.921 86.8954 87.0281 84.9188C88.9157 83.1421 90.7155 81.2988 92.4714 79.411C93.8981 77.8786 93.8762 75.4801 92.3397 74.2142C91.4837 73.5035 90.2985 73.237 89.201 72.7484M64.4205 60.3114C64.4205 59.7562 64.4644 59.312 64.4205 58.9123C64.2669 57.3132 63.5865 56.0251 62.05 55.3367C60.6892 54.737 59.3283 54.8481 58.2748 55.8475C56.2335 57.7574 54.2142 59.7118 52.3924 61.8216C50.5706 63.9093 51.8217 67.3072 54.5215 67.8846C56.6505 68.3288 58.4723 67.5959 60.0307 66.1746C61.194 65.0863 62.2256 63.8648 63.4109 62.7988C64.223 62.0659 64.662 61.3108 64.4205 60.3336M61.1721 70.5719C61.2818 72.5707 62.0061 73.6367 63.345 74.2586C64.7278 74.8804 66.0228 74.6139 67.0764 73.5701C70.2151 70.4609 73.3318 67.3294 76.4047 64.1536C77.7656 62.7322 77.6558 60.6224 76.273 59.2676C74.9122 57.9351 72.849 57.9129 71.4442 59.312C68.3713 62.3991 65.2985 65.4861 62.2695 68.6397C61.6988 69.2394 61.4135 70.1722 61.194 70.5719M70.3468 76.857C70.3468 78.7225 70.8955 80.0329 72.41 80.7213C73.9025 81.4098 75.8779 81.0767 76.9973 79.944C79.9824 76.9458 82.9675 73.9254 85.9306 70.905C86.8305 69.9723 87.1378 68.8396 86.9842 67.5737C86.7866 65.9303 85.8648 64.8198 84.3283 64.3756C82.5285 63.8426 80.8165 64.309 79.4995 65.5971C76.9095 68.1067 74.4732 70.7718 71.9271 73.3036C70.8516 74.3696 70.4126 75.6577 70.3248 76.857M76.1852 45.3649C76.6681 45.8979 77.0412 46.4975 77.59 46.8973C79.302 48.141 81.2335 48.6962 83.3406 48.3853C86.7208 47.8745 89.5522 46.1644 92.0325 43.9435C95.3248 40.9898 98.4196 37.7917 101.58 34.6602C102.195 34.0384 102.831 33.7497 103.709 33.7497C107.66 33.7719 111.589 33.7941 115.54 33.7497C116.506 33.7497 117.164 34.105 117.735 34.8601C121.334 39.5018 124.934 44.1212 128.556 48.7406C129.939 50.5173 131.321 52.294 132.748 54.1152C137.248 50.4729 141.659 46.8973 146.137 43.2773C140.759 35.8595 135.404 28.5306 130.07 21.1795C129.829 21.2905 129.697 21.3349 129.565 21.4016C123.442 24.4664 117.208 24.9328 110.887 22.1789C106.826 20.4022 102.766 20.3355 98.6611 21.7347C96.8393 22.3565 94.9956 22.934 93.6567 24.5552C89.3108 29.7743 84.899 34.9712 80.5311 40.168C79.1044 41.8781 77.6778 43.5882 76.1633 45.3871M54.7849 54.5816C56.9139 52.2496 59.4381 51.1614 62.489 52.0275C65.5838 52.9159 67.1861 55.1812 67.647 58.5791C69.7102 56.0473 72.0368 54.4705 75.2414 55.1812C78.446 55.8919 80.1141 58.0905 80.5092 61.3108C85.7989 59.7784 91.0667 63.243 90.2326 69.6836C90.3643 69.728 90.496 69.8168 90.6277 69.839C95.2151 70.3054 98.244 75.5245 95.8955 80.2105C95.7857 80.4326 95.8955 80.9212 96.0711 81.0989C97.3222 82.4092 98.5733 83.6973 99.8902 84.9188C101.449 86.3846 103.797 86.4512 105.114 84.8744C105.751 84.1193 105.992 83.0089 106.321 82.0317C106.541 81.3432 106.321 80.6991 105.773 80.1439C103.951 78.2117 102.173 76.2796 100.439 74.2586C100.066 73.8366 99.7805 73.1037 99.8902 72.5707C100.132 71.1938 101.69 70.905 102.722 72.0155C105.18 74.6583 107.572 77.3456 110.053 79.9885C111.962 82.0317 115.716 81.2099 116.506 78.5449C117.054 76.7238 116.681 74.9915 115.43 73.5479C113.63 71.5269 111.787 69.5503 109.943 67.5515C109.57 67.1517 109.197 66.752 108.867 66.33C108.297 65.5971 108.406 64.6199 109.043 64.0425C109.658 63.5095 110.601 63.5317 111.238 64.1314C111.501 64.3756 111.743 64.6644 111.984 64.9309C114.552 67.7514 117.098 70.6163 119.71 73.3924C120.237 73.9477 121.071 74.414 121.839 74.5695C123.288 74.8582 124.473 74.1475 125.241 72.9038C126.075 71.5713 125.856 70.2166 124.956 69.0173C124.188 67.9735 123.288 67.0407 122.432 66.0635C120.5 63.8648 118.547 61.7106 116.659 59.4897C115.759 58.4459 116.067 57.0689 117.23 56.7136C118.02 56.4693 118.613 56.8246 119.118 57.4021C121.752 60.3781 124.429 63.2874 126.997 66.33C128.029 67.5293 129.258 68.0845 130.729 68.2178C133.494 68.4843 135.777 66.1079 135.206 63.5095C135.031 62.6878 134.592 61.8438 134.065 61.1776C127.985 53.3379 121.839 45.5204 115.737 37.6806C115.364 37.192 114.969 37.0366 114.377 37.0366C111.326 37.0588 108.275 37.1032 105.224 37.0366C104.236 37.0366 103.578 37.3031 102.897 38.0138C99.5829 41.545 96.2467 45.054 92.2958 47.8745C89.662 49.7622 86.8525 51.3169 83.5821 51.65C79.3239 52.072 75.8121 50.6728 73.266 47.1194C72.0807 45.4759 72.1905 44.8985 73.4855 43.3661C78.863 36.9922 84.2405 30.6404 89.6181 24.2665C89.9692 23.8667 90.2985 23.4448 90.6936 22.9784C90.3643 22.8229 90.1229 22.7119 89.8814 22.6008C85.1624 20.5798 80.5092 20.069 75.5926 22.2899C69.6444 24.9772 63.6303 24.3998 57.8358 21.5792C57.0237 21.1795 56.6944 21.3571 56.2116 22.0234C52.1949 27.5978 48.1562 33.1278 44.1176 38.68C43.0202 40.1902 41.9447 41.7004 40.8253 43.2551C45.5004 47.0528 50.1097 50.7838 54.7629 54.5593M128.995 71.2604C128.6 76.0353 124.495 78.8336 119.996 77.5455C119.666 80.0995 118.635 82.2315 116.352 83.5197C114.113 84.7856 111.809 84.7634 109.438 83.6973C109.35 83.9416 109.284 84.1415 109.219 84.3414C107.66 89.2717 101.58 90.9818 97.8051 87.4506C96.3345 86.0737 95.0395 84.5413 93.503 82.8978C92.0544 84.408 90.8033 85.7405 89.5522 87.0509C88.5425 88.0947 87.3354 88.8054 85.9306 89.0941C82.2212 89.8936 78.7972 87.8726 77.6339 84.2081C77.568 84.0305 77.5022 83.875 77.4144 83.6307C75.0878 84.6301 72.7612 84.7634 70.5224 83.4752C68.2616 82.1649 67.208 80.0773 66.9666 77.4122C64.7498 78.1451 62.6646 77.9008 60.777 76.5683C58.8893 75.2358 58.0114 73.3036 57.8797 70.9717C56.4091 70.9717 54.9385 71.216 53.5996 70.9273C48.4855 69.7724 46.4881 63.4873 49.9341 59.4675C50.7023 58.5569 51.69 57.8462 52.6558 56.9801C50.6145 55.3367 48.8367 53.8931 47.0588 52.4717C44.0957 50.0732 41.1106 47.6968 38.1475 45.2983C36.5891 44.0324 36.5232 43.4549 37.7085 41.8337C43.3055 34.105 48.9025 26.3763 54.5215 18.6477C55.6409 17.1153 56.1238 17.0264 57.7919 17.9814C63.4328 21.2017 69.2274 21.4682 75.1975 18.9364C77.8533 17.8037 80.597 17.1153 83.4943 17.4262C86.5452 17.7371 89.4644 18.6033 92.2519 19.8914C92.9982 20.2467 93.5908 20.2689 94.3371 19.8914C97.3002 18.359 100.483 17.5816 103.797 17.404C106.497 17.2485 109.065 17.8926 111.567 18.9142C114.047 19.9358 116.593 20.7131 119.293 20.6465C122.915 20.5798 126.339 19.7803 129.434 17.7815C130.531 17.0708 131.299 17.2263 132.046 18.2701C137.84 26.2653 143.635 34.2605 149.429 42.2557C150.263 43.4105 150.132 44.1212 148.924 45.0984C144.491 48.6962 140.057 52.2718 135.623 55.8697C135.338 56.0918 135.075 56.3138 134.723 56.6026C135.426 57.5575 136.128 58.4459 136.787 59.3565C137.774 60.689 138.345 62.1992 138.455 63.8648C138.784 68.8174 134.35 71.8822 130.07 71.3492C129.719 71.3048 129.368 71.2382 128.951 71.1716" fill="#58595B"/>
<path d="M17.2739 37.9692L24.6269 45.2093L50.4609 10.1194L42.7129 4.14518L17.2739 37.9692ZM24.8244 49.2735C24.4074 49.2735 24.0123 49.1181 23.705 48.8071L14.0035 39.2795C13.4328 38.7021 13.345 37.7916 13.8499 37.1253L41.1326 0.880481C41.396 0.547349 41.7691 0.303051 42.1861 0.258634C42.6032 0.192007 43.0421 0.303052 43.3714 0.569557L53.6655 8.49811C54.3679 9.03112 54.4996 10.0527 53.9728 10.7634L26.0975 48.6295C25.8121 49.007 25.3951 49.2513 24.9341 49.2735C24.8903 49.2735 24.8464 49.2735 24.8025 49.2735" fill="#F48E23"/>
</g>
<defs>
<clipPath id="clip0_1036_135071">
<rect width="150" height="89.0352" fill="white" transform="translate(0 0.236572)"/>
</clipPath>
</defs>
</svg>
