<svg width="150" height="95" viewBox="0 0 150 95" fill="none" xmlns="http://www.w3.org/2000/svg">
<path d="M32.4706 79.8546H52.041V71.3837H32.4706V79.8546ZM53.4512 82.703H31.0356C30.2439 82.703 29.6006 82.059 29.6006 81.2664V69.9471C29.6006 69.1545 30.2439 68.5105 31.0356 68.5105H53.4512C54.2429 68.5105 54.8862 69.1545 54.8862 69.9471V81.2664C54.8862 82.059 54.2429 82.703 53.4512 82.703Z" fill="#F48E23"/>
<path d="M60.4774 79.8546H80.0478V71.3837H60.4774V79.8546ZM81.4581 82.703H59.0424C58.2507 82.703 57.6074 82.059 57.6074 81.2664V69.9471C57.6074 69.1545 58.2507 68.5105 59.0424 68.5105H81.4581C82.2498 68.5105 82.8931 69.1545 82.8931 69.9471V81.2664C82.8931 82.059 82.2498 82.703 81.4581 82.703Z" fill="#F48E23"/>
<path d="M32.4706 64.7704H52.041V56.2995H32.4706V64.7704ZM53.4512 67.6188H31.0356C30.2439 67.6188 29.6006 66.9748 29.6006 66.1822V54.8629C29.6006 54.0703 30.2439 53.4263 31.0356 53.4263H53.4512C54.2429 53.4263 54.8862 54.0703 54.8862 54.8629V66.1822C54.8862 66.9748 54.2429 67.6188 53.4512 67.6188Z" fill="#F48E23"/>
<path d="M60.4774 64.7704H80.0478V56.2995H60.4774V64.7704ZM81.4581 67.6188H59.0424C58.2507 67.6188 57.6074 66.9748 57.6074 66.1822V54.8629C57.6074 54.0703 58.2507 53.4263 59.0424 53.4263H81.4581C82.2498 53.4263 82.8931 54.0703 82.8931 54.8629V66.1822C82.8931 66.9748 82.2498 67.6188 81.4581 67.6188Z" fill="#F48E23"/>
<path d="M32.4706 49.6862H52.041V41.2152H32.4706V49.6862ZM53.4512 52.5346H31.0356C30.2439 52.5346 29.6006 51.8906 29.6006 51.098V39.7786C29.6006 38.986 30.2439 38.342 31.0356 38.342H53.4512C54.2429 38.342 54.8862 38.986 54.8862 39.7786V51.098C54.8862 51.8906 54.2429 52.5346 53.4512 52.5346Z" fill="#F48E23"/>
<path d="M60.4774 49.6862H80.0478V41.2152H60.4774V49.6862ZM81.4581 52.5346H59.0424C58.2507 52.5346 57.6074 51.8906 57.6074 51.098V39.7786C57.6074 38.986 58.2507 38.342 59.0424 38.342H81.4581C82.2498 38.342 82.8931 38.986 82.8931 39.7786V51.098C82.8931 51.8906 82.2498 52.5346 81.4581 52.5346Z" fill="#F48E23"/>
<path d="M129.16 86.2698C128.368 86.2698 127.725 85.6258 127.725 84.8332V29.4997L74.7782 3.56672L21.807 29.4997V84.8332C21.807 85.6258 21.1637 86.2698 20.372 86.2698C19.5803 86.2698 18.937 85.6258 18.937 84.8332V28.608C18.937 28.0631 19.2339 27.5677 19.7287 27.32L74.1597 0.693535C74.5555 0.495384 75.0256 0.495384 75.4215 0.693535L129.803 27.3448C130.298 27.5925 130.595 28.0879 130.595 28.6328V84.858C130.595 85.6506 129.951 86.2946 129.16 86.2946" fill="#58595B"/>
<path d="M129.16 86.2698C128.368 86.2698 127.725 85.6258 127.725 84.8332V29.4997L74.7782 3.56672L21.807 29.4997V84.8332C21.807 85.6258 21.1637 86.2698 20.372 86.2698C19.5803 86.2698 18.937 85.6258 18.937 84.8332V28.608C18.937 28.0631 19.2339 27.5677 19.7287 27.32L74.1597 0.693535C74.5555 0.495384 75.0256 0.495384 75.4215 0.693535L129.803 27.3448C130.298 27.5925 130.595 28.0879 130.595 28.6328V84.858C130.595 85.6506 129.951 86.2946 129.16 86.2946V86.2698Z" stroke="#58595B" stroke-width="0.44" stroke-miterlimit="10"/>
<path d="M107.313 28.608H41.0063C40.2146 28.608 39.5713 27.9641 39.5713 27.1715C39.5713 26.3789 40.2146 25.7349 41.0063 25.7349H107.313C108.105 25.7349 108.748 26.3789 108.748 27.1715C108.748 27.9641 108.105 28.608 107.313 28.608Z" fill="#58595B"/>
<path d="M107.313 28.608H41.0063C40.2146 28.608 39.5713 27.9641 39.5713 27.1715C39.5713 26.3789 40.2146 25.7349 41.0063 25.7349H107.313C108.105 25.7349 108.748 26.3789 108.748 27.1715C108.748 27.9641 108.105 28.608 107.313 28.608Z" stroke="#58595B" stroke-width="0.44" stroke-miterlimit="10"/>
<path d="M1.84068 94.4683C1.56852 94.4683 1.32111 94.394 1.09844 94.2454C0.677833 93.9729 0.43042 93.5271 0.43042 93.0317V19.4435C0.43042 18.9233 0.702574 18.4527 1.14792 18.2051C1.59326 17.9574 2.13757 17.9574 2.58292 18.2051L20.1493 28.385C20.842 28.7813 21.0647 29.6483 20.6688 30.3418C20.273 31.0353 19.407 31.2582 18.7143 30.8619L3.27567 21.9204V90.7529L18.7885 83.0746C19.506 82.7279 20.3472 83.0251 20.6936 83.7186C21.04 84.4369 20.7431 85.279 20.0503 85.6258L2.48395 94.3197C2.28602 94.4187 2.06335 94.4683 1.86542 94.4683" fill="#58595B"/>
<path d="M1.84068 94.4683C1.56852 94.4683 1.32111 94.394 1.09844 94.2454C0.677833 93.9729 0.43042 93.5271 0.43042 93.0317V19.4435C0.43042 18.9233 0.702574 18.4527 1.14792 18.2051C1.59326 17.9574 2.13757 17.9574 2.58292 18.2051L20.1493 28.385C20.842 28.7813 21.0647 29.6483 20.6688 30.3418C20.273 31.0353 19.407 31.2582 18.7143 30.8619L3.27567 21.9204V90.7529L18.7885 83.0746C19.506 82.7279 20.3472 83.0251 20.6936 83.7186C21.04 84.4369 20.7431 85.279 20.0503 85.6258L2.48395 94.3197C2.28602 94.4187 2.06335 94.4683 1.86542 94.4683H1.84068Z" stroke="#58595B" stroke-width="0.44" stroke-miterlimit="10"/>
<path d="M147.715 94.4683C147.493 94.4683 147.295 94.4187 147.072 94.3197L129.506 85.6258C128.788 85.279 128.516 84.4121 128.863 83.7186C129.209 83.0003 130.075 82.7279 130.768 83.0746L146.28 90.7529V21.9204L130.842 30.8619C130.174 31.2582 129.283 31.0353 128.887 30.3418C128.491 29.673 128.714 28.7813 129.407 28.385L146.973 18.2051C147.419 17.9574 147.963 17.9574 148.408 18.2051C148.854 18.4527 149.126 18.9233 149.126 19.4435V93.0317C149.126 93.5271 148.878 93.9729 148.458 94.2454C148.235 94.394 147.963 94.4683 147.715 94.4683Z" fill="#58595B"/>
<path d="M147.715 94.4683C147.493 94.4683 147.295 94.4187 147.072 94.3197L129.506 85.6258C128.788 85.279 128.516 84.4121 128.863 83.7186C129.209 83.0003 130.075 82.7279 130.768 83.0746L146.28 90.7529V21.9204L130.842 30.8619C130.174 31.2582 129.283 31.0353 128.887 30.3418C128.491 29.673 128.714 28.7813 129.407 28.385L146.973 18.2051C147.419 17.9574 147.963 17.9574 148.408 18.2051C148.854 18.4527 149.126 18.9233 149.126 19.4435V93.0317C149.126 93.5271 148.878 93.9729 148.458 94.2454C148.235 94.394 147.963 94.4683 147.715 94.4683Z" stroke="#58595B" stroke-width="0.44" stroke-miterlimit="10"/>
<path d="M106.892 82.703H94.8928C94.101 82.703 93.4578 82.059 93.4578 81.2664C93.4578 80.4738 94.101 79.8298 94.8928 79.8298H106.892C107.684 79.8298 108.327 80.4738 108.327 81.2664C108.327 82.059 107.684 82.703 106.892 82.703Z" fill="#58595B"/>
<path d="M106.892 82.703H94.8928C94.101 82.703 93.4578 82.059 93.4578 81.2664C93.4578 80.4738 94.101 79.8298 94.8928 79.8298H106.892C107.684 79.8298 108.327 80.4738 108.327 81.2664C108.327 82.059 107.684 82.703 106.892 82.703Z" stroke="#58595B" stroke-width="0.44" stroke-miterlimit="10"/>
</svg>
