<svg width="196" height="65" viewBox="0 0 196 65" fill="none" xmlns="http://www.w3.org/2000/svg">
<g opacity="0.4">
<path d="M135.321 49.3596C134.841 49.1459 134.065 49.0391 133.104 49.0391C131.958 49.0391 131.145 49.1459 130.701 49.3952C130.11 49.7157 129.814 50.25 129.814 51.1047C129.814 51.8526 129.962 52.4224 130.257 52.8142C130.479 53.0991 130.886 53.3484 131.44 53.6333C131.921 53.847 132.364 54.0607 132.845 54.2744C133.325 54.5237 133.584 54.8442 133.658 55.1647C133.695 55.3072 133.732 55.5565 133.732 55.877C133.732 56.2688 133.51 56.4468 133.104 56.4468C132.623 56.4468 132.401 56.2688 132.401 55.877V54.6305H129.851V55.9126C129.851 56.6605 130.147 57.1591 130.738 57.444C131.218 57.6577 131.958 57.8002 132.993 57.8002C134.212 57.8002 135.026 57.6577 135.506 57.3728C136.06 57.0523 136.356 56.4468 136.356 55.5565C136.356 54.6661 136.208 54.0607 135.95 53.7401C135.691 53.4196 135.136 53.0991 134.286 52.7429C133.436 52.3868 132.919 52.1019 132.734 51.8882C132.549 51.6745 132.438 51.3896 132.438 50.9622C132.438 50.5705 132.66 50.3924 133.104 50.3924C133.547 50.3924 133.806 50.6061 133.806 50.9979V51.9594H136.393V50.8554C136.393 50.1431 136.06 49.6445 135.432 49.3596H135.321Z" fill="#949447"/>
<path d="M116.176 54.0598C116.028 53.6324 115.769 53.3119 115.363 53.1694C115.141 53.0982 114.882 53.0269 114.55 52.9913C115.141 52.8133 115.585 52.5996 115.806 52.3147C116.028 52.0654 116.139 51.7092 116.139 51.175C116.139 50.712 116.102 50.3559 116.028 50.1066C115.843 49.608 115.326 49.2874 114.513 49.1806C114.106 49.145 113.589 49.1094 112.923 49.1094H109.745V57.4787H112.775C114.18 57.4787 115.104 57.3719 115.511 57.1226C116.028 56.8377 116.287 56.161 116.287 55.1282C116.287 54.6296 116.287 54.2378 116.176 53.9885V54.0598ZM113.478 56.0185C113.33 56.2322 113.034 56.3391 112.554 56.3391H112.295V53.5255H112.554C113.034 53.5255 113.367 53.7036 113.515 54.0241C113.589 54.2022 113.626 54.5227 113.626 54.9857C113.626 55.4843 113.552 55.8405 113.441 56.0542L113.478 56.0185ZM113.478 52.1722C113.478 52.1722 113.071 52.3859 112.628 52.3859H112.295V50.3203H112.554C113.034 50.3203 113.33 50.3915 113.478 50.5339C113.589 50.6408 113.626 50.8901 113.626 51.2818C113.626 51.7092 113.552 51.9941 113.441 52.1366L113.478 52.1722Z" fill="#949447"/>
<path d="M142.824 53.0608C142.824 52.2416 142.787 51.7074 142.713 51.4938C142.529 50.9239 142.048 50.6034 141.272 50.5322C140.939 50.4966 140.496 50.4609 140.015 50.4609C139.572 50.4609 139.202 50.4609 138.869 50.5322C137.871 50.6746 137.354 51.2801 137.354 52.3841V55.7318C137.354 56.4797 137.539 57.014 137.945 57.2989C138.315 57.5838 139.017 57.6906 140.015 57.6906C141.013 57.6906 141.752 57.5482 142.122 57.2989C142.566 57.014 142.787 56.4797 142.787 55.7318V54.9127H140.607V56.088C140.607 56.088 140.57 56.3729 140.496 56.4441C140.422 56.5154 140.274 56.551 140.052 56.551C139.83 56.551 139.683 56.5154 139.609 56.4441C139.535 56.3729 139.498 56.2304 139.498 56.088V52.0636C139.498 52.0636 139.535 51.7787 139.609 51.7074C139.683 51.6362 139.83 51.6006 140.052 51.6006C140.274 51.6006 140.422 51.6362 140.496 51.7074C140.57 51.7787 140.607 51.9211 140.607 52.0636V53.0608H142.787H142.824Z" fill="#949447"/>
<path d="M122.238 50.7824C121.831 50.5331 121.129 50.3906 120.094 50.3906C119.059 50.3906 118.357 50.5331 117.987 50.7824C117.581 51.0673 117.359 51.6015 117.359 52.385V55.6615C117.359 56.445 117.544 56.9793 117.987 57.2642C118.357 57.5135 119.096 57.6559 120.094 57.6559C121.129 57.6559 121.831 57.5135 122.238 57.2642C122.644 56.9793 122.866 56.445 122.866 55.6615V52.385C122.866 51.6015 122.681 51.0673 122.238 50.7824ZM120.685 56.0177C120.685 56.3382 120.501 56.5163 120.094 56.5163C119.724 56.5163 119.54 56.3382 119.54 56.0177V51.9933C119.54 51.6727 119.724 51.4947 120.131 51.4947C120.501 51.4947 120.722 51.6727 120.722 51.9933V56.0177H120.685Z" fill="#949447"/>
<path d="M126.266 53.3492L125.453 50.5H123.346L124.566 53.4916C124.566 53.5628 124.714 53.8121 124.899 54.2395C125.009 54.4888 125.12 54.7381 125.157 54.9874C125.157 55.1299 125.194 55.2723 125.157 55.4148C125.157 55.6641 125.12 55.8065 125.12 55.8421V57.5872H127.301V55.8421C127.301 55.8421 127.301 55.6641 127.301 55.4148C127.301 55.2723 127.301 55.0942 127.301 54.9874C127.56 54.2751 127.782 53.8121 127.929 53.4916L129.149 50.5H127.005L126.192 53.3492H126.266Z" fill="#949447"/>
<path d="M156.463 51.6387H157.979V57.6576H160.123L160.16 51.6387H161.675V50.5703H156.463V51.6387Z" fill="#949447"/>
<path d="M153.618 55.9481C153.618 56.3754 153.434 56.5891 153.027 56.5891C152.657 56.5891 152.473 56.4111 152.473 56.0193V50.5703H150.329V55.6275C150.329 56.3754 150.514 56.9097 150.957 57.2302C151.401 57.5507 152.103 57.7288 153.064 57.7288C154.062 57.7288 154.764 57.5507 155.208 57.1946C155.614 56.874 155.799 56.3042 155.799 55.5207V50.6059H153.655V55.9837L153.618 55.9481Z" fill="#949447"/>
<path d="M148.666 50.8527C148.259 50.6034 147.557 50.4609 146.522 50.4609C145.487 50.4609 144.785 50.6034 144.415 50.8527C144.008 51.1376 143.787 51.6718 143.787 52.4553V55.7318C143.787 56.5154 143.971 57.0496 144.415 57.3345C144.785 57.5838 145.524 57.7262 146.522 57.7262C147.557 57.7262 148.259 57.5838 148.666 57.3345C149.072 57.0496 149.294 56.5154 149.294 55.7318V52.4553C149.294 51.6718 149.109 51.1376 148.666 50.8527ZM147.113 56.088C147.113 56.4085 146.928 56.5866 146.522 56.5866C146.152 56.5866 145.967 56.4085 145.967 56.088V52.0636C145.967 51.7431 146.152 51.565 146.559 51.565C146.928 51.565 147.15 51.7431 147.15 52.0636V56.088H147.113Z" fill="#949447"/>
<path d="M183.483 25.391H177.569C174.354 25.391 171.951 25.7116 170.251 26.3883C167.553 27.4567 166.185 29.3798 166.185 32.1578V55.3426C166.185 56.8028 167.072 57.6219 168.588 57.6219H169.807C171.323 57.6219 172.173 56.7672 172.173 55.307V47.0801H184.629C191.799 47.0801 195.458 44.694 195.458 40.0285V32.0509C195.458 27.5991 191.393 25.3554 183.483 25.391ZM189.434 40.1353C189.434 41.4174 187.844 42.0941 184.666 42.0941H172.21V32.2646C172.21 30.662 175.721 30.4483 177.828 30.4483H183.557C185.368 30.4483 186.625 30.5195 187.327 30.6263C189.434 31.0181 189.434 31.8728 189.434 32.1578V40.171V40.1353Z" fill="#949447"/>
<path d="M109.856 45.0468C109.856 46.507 110.743 47.3617 112.259 47.3617H113.663C115.179 47.3617 116.066 46.507 116.066 45.0468V19.084C116.029 17.6238 115.142 16.8047 113.626 16.8047H112.222C110.706 16.8047 109.819 17.6594 109.819 19.1196V31.1928H90.3036V19.1196C90.3036 17.6594 89.4165 16.8403 87.9011 16.8403H86.4227C84.9072 16.8403 84.0571 17.695 84.0571 19.1552V45.118C84.0941 46.5782 84.9812 47.4329 86.4596 47.4329H87.9381C89.4535 47.4329 90.3406 46.5782 90.3406 45.118V36.3925H109.856V45.118V45.0468Z" fill="#949447"/>
<path d="M146.005 26.6367C144.193 25.8175 142.05 25.4258 139.573 25.4258H132.366C129.446 25.4258 126.895 25.8888 124.863 26.7435C121.906 27.99 120.427 29.9488 120.427 32.6199V40.2057C120.427 42.948 121.943 44.978 124.937 46.1533C126.932 46.9368 129.483 47.3285 132.588 47.3285H140.46C141.976 47.3285 142.826 46.4738 142.826 45.0136V44.6219C142.826 43.1617 141.939 42.3069 140.423 42.3069H132.07C127.783 42.3069 126.785 40.7399 126.6 39.2797H147.779C148.518 39.2797 149.738 38.9236 149.738 36.7511V31.8007C149.738 29.5214 148.481 27.8119 145.968 26.6723L146.005 26.6367ZM143.898 34.0444H126.489V32.2993C126.489 31.1241 128.781 30.483 132.957 30.483H138.169C139.278 30.483 140.423 30.6254 141.68 30.9104C143.085 31.2309 143.898 31.6939 143.898 32.1212V34.0444Z" fill="#949447"/>
<path d="M157.987 16.7156L159.207 16.7139C160.537 16.7121 161.574 17.7436 161.576 18.9901L161.613 44.9884C161.615 46.2705 160.545 47.2692 159.251 47.2709L158.031 47.2726C156.701 47.2744 155.664 46.2429 155.663 44.9964L155.625 19.0337C155.623 17.7516 156.694 16.7529 157.987 16.7512L157.987 16.7156Z" fill="#949447"/>
<path d="M88.6626 55.3498C85.8905 55.3854 80.8268 53.854 78.1286 46.9805C77.5373 48.7968 81.3073 53.854 75.5044 58.199C76.6502 57.3442 81.6769 55.243 82.6749 57.6291C82.0835 57.8428 80.1615 60.7276 85.41 60.7276C87.406 60.7276 88.9583 60.4783 91.3978 59.0537C93.8372 57.6291 91.4717 55.3142 88.6996 55.3498H88.6626Z" fill="#949447"/>
<path d="M23.057 17.6702C18.6586 16.4237 19.9892 6.30927 23.2787 6.30927C18.7325 3.17521 15.6278 18.2044 23.057 17.6702Z" fill="#949447"/>
<path d="M26.4946 9.30003C26.4207 8.55213 26.125 7.98229 25.7553 7.91107C25.3488 7.51931 24.8313 7.30562 24.3139 7.37685C23.2789 7.51931 22.5767 8.7302 22.7615 10.0835C22.9463 11.4369 23.9442 12.4341 25.0161 12.3272C26.088 12.2204 26.7533 10.9739 26.5685 9.62055C26.5685 9.51371 26.5315 9.44248 26.4946 9.33564V9.30003Z" fill="#949447"/>
<path d="M25.829 14.748C25.6072 14.8193 25.5333 15.1754 25.6442 15.5315C25.7921 15.8877 26.0508 16.1014 26.2725 16.0301C26.4943 15.9589 26.5682 15.6028 26.4573 15.2466C26.3465 14.8905 26.0508 14.6768 25.829 14.748Z" fill="#949447"/>
<path d="M43.4596 16.4588C43.8292 16.4588 44.1619 16.1383 44.1619 15.7821C44.1619 15.426 43.8662 15.1055 43.4596 15.1055C43.053 15.1055 42.7573 15.3904 42.7573 15.7821C42.7573 16.1739 43.09 16.4588 43.4596 16.4588Z" fill="#949447"/>
<path d="M47.5998 11.0444C47.5998 9.47742 46.2692 8.19531 44.6429 8.19531C43.0166 8.19531 41.686 9.47742 41.686 11.0444C41.686 12.6115 43.0166 13.8936 44.6429 13.8936C46.2692 13.8936 47.5998 12.6115 47.5998 11.0444Z" fill="#949447"/>
<path d="M74.4339 60.7996C72.7706 60.1941 73.6207 58.5203 74.6556 57.3094C77.9082 54.9232 77.4647 51.2194 76.7994 47.8004C75.8014 42.6007 74.286 35.2642 71.1812 31.774C69.4071 29.744 66.2654 29.3166 64.0477 30.9549C61.7931 32.6287 62.1257 41.2474 52.3679 43.5979C59.3167 39.716 61.1647 31.8808 61.5343 29.1029C61.2386 28.9248 61.0538 28.6755 60.943 28.3906C55.2879 34.4807 45.4192 41.0337 33.6285 40.2146C21.5791 39.4667 17.9939 34.3382 18.844 38.6475C22.3553 59.4462 56.6924 55.2082 62.828 47.9428C65.4523 44.8444 66.2654 43.0637 65.5631 40.2858C68.7048 42.7432 66.5241 47.4799 63.5672 50.5071C66.598 49.0469 68.6679 49.2962 70.7747 50.8632C62.3844 52.6439 57.4316 57.7011 57.4316 57.7011C57.4316 57.7011 53.6985 57.7724 52.331 58.6984C48.7827 61.7256 56.9511 62.4022 59.0949 60.7284C60.0189 60.0873 58.2448 59.1613 58.2448 59.1613C58.2448 59.1613 63.7151 54.7808 68.1874 56.4547C69.518 57.2738 72.4749 59.0189 70.0355 60.4791C65.2674 63.3638 70.1833 64.2898 72.1792 64.2542C76.2819 64.1829 77.5756 61.8324 74.5078 60.764L74.4339 60.7996Z" fill="#949447"/>
<path d="M45.4921 19.7697C37.5824 22.3695 35.2908 11.2935 38.9869 7.30469C29.2661 12.0414 33.1101 25.8953 45.4921 19.7697Z" fill="#949447"/>
<path d="M13.4467 23.5462C13.7793 23.012 14.1859 22.4778 14.7403 21.9436C12.8923 27.0364 17.919 31.5594 29.8206 31.9868C43.2745 32.3785 47.1185 30.1348 50.5559 27.6775C52.8845 26.0036 55.7305 22.7271 56.2849 22.0148C57.0611 21.0532 58.9092 22.8339 58.3548 25.3625C57.9482 24.579 57.5046 23.9736 56.9502 23.6887C56.4697 24.7215 53.9194 26.7515 53.291 27.3926C44.4942 35.7975 26.8267 33.9812 20.6172 32.1292C21.6891 37.1152 31.9643 39.4658 44.0507 36.5098C55.3239 33.7675 63.4924 23.2969 61.94 19.8779C60.6463 15.7111 55.3239 17.2781 54.326 12.0784C57.0611 16.459 62.7162 14.7139 63.5293 20.0204C65.2665 14.3221 60.2398 12.2209 59.094 11.5798C52.1083 10.547 53.5867 3.81593 48.523 1.07363C48.1164 0.895559 47.7468 0.788713 47.3772 0.646256C47.3772 2.53381 46.2314 3.42416 45.4922 4.06522C45.1965 4.31452 44.753 4.59944 44.2355 4.81312C44.2355 4.81312 44.2355 4.81312 44.2725 4.81312C45.64 4.84874 47.4142 4.35014 48.3382 2.96118C48.1164 4.20768 47.1185 5.02681 46.601 5.34733C46.601 5.34733 46.5641 5.34733 46.5271 5.34733C47.1924 5.52541 48.523 5.81032 49.8536 5.63225C48.9666 6.30892 47.7838 6.5226 46.638 6.23769C48.9666 7.94717 51.8865 11.3661 52.2192 13.6098C52.5148 19.3793 45.714 23.4394 38.3586 22.8339C33.5537 22.4066 32.26 18.489 31.9643 16.637C31.7056 13.9304 32.26 10.7607 35.106 7.69787C36.7693 5.91716 38.6913 4.95558 40.7611 4.70628C40.7611 4.70628 41.0199 4.67066 41.1677 4.67066C41.3525 4.67066 41.5373 4.63505 41.7221 4.59944C43.8659 4.27891 46.3793 2.96118 47.3403 0.610641C39.2457 -1.88236 32.297 5.09803 31.4838 7.91156C31.4838 5.56102 30.9664 3.95838 29.9684 2.96118C28.416 1.35854 27.3072 1.21609 25.4222 1.60784C24.2764 1.82153 23.3523 2.81872 22.6501 3.81592C27.6398 5.20488 28.8596 12.8976 28.0464 17.2069C28.1203 20.2341 22.7979 18.026 18.4734 21.1244C20.3215 18.8095 21.0977 17.9904 21.0977 17.9904C21.0977 17.9904 19.9889 18.7027 18.3256 16.459C12.8553 19.3793 13.0031 21.1957 13.151 22.7983C13.2988 23.012 13.3728 23.2613 13.3728 23.5106L13.4467 23.5462ZM27.6029 27.2145C28.6378 26.1104 31.336 26.9296 31.336 26.9296C30.1902 26.5734 28.7857 28.7459 28.1573 28.639C27.5659 28.5322 26.568 28.3185 27.6029 27.2145ZM25.57 26.7159C26.1984 27.9268 25.3852 28.0336 24.9047 28.0692C24.4242 28.0692 23.648 25.7899 22.724 26.0036C22.724 26.0036 24.9417 25.505 25.57 26.7159Z" fill="#949447"/>
<path d="M30.6712 53.3909C29.5254 53.1773 25.127 51.3253 24.3138 50.3994C24.0921 50.1501 23.8703 49.9364 23.6855 49.7227C23.2419 49.2953 22.7614 48.8679 22.0961 48.3693C18.363 46.0544 16.3671 37.9344 16.7368 35.7619C9.75105 40.8547 11.4143 44.7723 9.78801 49.0816C9.64016 49.509 9.41839 49.8295 9.23358 50.2213C7.12679 51.6459 3.94811 51.539 2.91319 51.7171C1.36082 52.002 0.399828 53.8183 1.95221 54.5306C3.31978 55.1717 4.16988 55.2073 5.13087 55.0648C3.02407 56.5962 0.991208 57.3441 0.362865 58.4838C-0.745976 60.5494 9.78801 61.2617 7.20071 57.4154C10.9338 55.599 12.7819 54.9936 14.1495 55.2429C15.554 55.4922 18.2152 57.7003 17.2172 59.1605C12.9297 62.7219 28.6383 61.7959 22.0592 58.555C20.9503 58.0208 20.0263 55.2073 21.6896 54.0676C22.5766 53.5334 25.4227 53.4622 26.1249 54.5306C25.7184 54.6374 24.4617 56.5606 27.7512 57.2017C29.0079 57.451 30.0428 57.451 31.817 56.6318C33.5911 55.8127 32.4823 53.7115 30.7081 53.4266L30.6712 53.3909ZM8.23563 51.8595C7.90297 52.3225 7.60729 52.7499 7.27464 53.1416C7.16375 52.8923 6.97894 52.7143 6.86806 52.7143C7.16375 52.2869 7.6812 52.002 8.23563 51.8595Z" fill="#949447"/>
</g>
</svg>
