<svg width="183" height="99" viewBox="0 0 183 99" fill="none" xmlns="http://www.w3.org/2000/svg">
<path d="M64.9876 67.3079C64.9876 67.5874 65.0964 67.8669 65.3502 68.0765C65.604 68.2861 65.8578 68.4259 66.0754 68.4259C67.0181 68.4259 67.4895 68.8801 67.4895 69.7535C67.4895 70.6269 67.0181 71.1161 66.0754 71.1161H59.0048C58.0983 71.1161 57.627 70.6619 57.627 69.7535C57.627 68.8451 58.0983 68.4259 59.0048 68.4259C59.2586 68.4259 59.5124 68.3211 59.73 68.0765C59.9838 67.8669 60.0926 67.5874 60.0926 67.3079V49.7691C60.0926 49.4896 59.9838 49.2451 59.73 49.0005C59.4762 48.7909 59.2224 48.6511 59.0048 48.6511C58.0983 48.6511 57.627 48.1969 57.627 47.2886C57.627 46.3802 58.0983 45.9609 59.0048 45.9609H80.4703C81.413 45.9609 81.8844 46.4151 81.8844 47.2886C81.8844 48.162 81.413 48.6511 80.4703 48.6511C80.2165 48.6511 79.9627 48.756 79.7451 49.0005C79.4913 49.2102 79.3825 49.4896 79.3825 49.7691V67.1681C79.3825 67.4476 79.4913 67.7271 79.7451 67.9368C79.9989 68.1464 80.2527 68.2861 80.4703 68.2861C81.413 68.2861 81.8844 68.7403 81.8844 69.6137C81.8844 70.4872 81.413 70.9763 80.4703 70.9763H73.3997C72.4933 70.9763 72.0219 70.5221 72.0219 69.6137C72.0219 68.7054 72.4933 68.2861 73.3997 68.2861C73.6536 68.2861 73.9074 68.1813 74.1249 67.9368C74.3425 67.6922 74.4875 67.4476 74.4875 67.1681V48.6861L64.9151 48.6511V67.3079H64.9876Z" fill="#583A3A"/>
<path d="M98.6722 55.7768C98.6722 56.6852 98.0196 57.7333 96.7505 58.9212C96.0253 59.585 94.6112 60.6681 92.5806 62.1006C90.7314 63.4282 89.4987 64.4064 88.8822 65.0353C89.3899 67.2364 90.9127 68.3195 93.4871 68.3195C94.031 68.3195 94.6474 68.2496 95.3726 68.0749C96.0978 67.9002 96.6055 67.8303 96.9318 67.8303C97.7658 67.8303 98.1646 68.2146 98.1646 68.9833C98.1646 69.5423 97.802 70.0314 97.0406 70.5205C95.9891 71.2193 94.4299 71.5687 92.3994 71.5687C89.9338 71.5687 87.8307 70.7651 86.1628 69.158C84.3498 67.446 83.4434 65.1751 83.4434 62.38C83.4434 59.585 84.1685 57.6285 85.6189 56.0563C86.9967 54.5889 88.7009 53.8203 90.7314 53.8203C91.8192 53.8203 92.8707 54.0998 93.886 54.6239C94.9012 55.1479 95.3726 55.4274 95.3001 55.4274C95.4814 55.4274 95.7715 55.2877 96.2429 54.9733C96.678 54.6588 97.1131 54.5191 97.4757 54.5191C98.2734 54.5191 98.6722 54.9383 98.6722 55.8118V55.7768ZM92.5806 57.6635C92.5806 56.8249 92.1093 56.4057 91.1665 56.4057C89.6437 56.4057 88.8097 58.1526 88.6647 61.6813C90.2601 60.6681 91.0578 60.144 91.0941 60.1091C92.0731 59.3055 92.5806 58.502 92.5806 57.6635Z" fill="#583A3A"/>
<path d="M109.911 64.3047C109.404 64.9336 108.715 65.3878 107.844 65.7022C106.974 66.0166 106.14 66.1564 105.342 66.1564C104.218 66.1564 103.312 65.7721 102.623 65.0384C101.862 64.2697 101.463 63.2216 101.463 61.859V58.1207C101.463 57.4219 101.136 56.863 100.484 56.4437C99.8673 55.9895 99.541 55.5703 99.541 55.1859C99.541 54.6269 99.8673 54.3125 100.556 54.3125H102.079C102.514 54.3125 102.949 54.4173 103.384 54.592C103.783 54.7667 104.146 55.0462 104.472 55.3956C104.799 55.7449 105.052 56.0943 105.234 56.5485C105.415 56.9678 105.524 57.422 105.524 57.9111V60.4266C105.56 61.6844 106.14 62.3132 107.264 62.3132C107.917 62.3132 108.533 62.1036 109.077 61.6844C109.621 61.2651 109.911 60.6013 109.911 59.7628V58.1556C109.911 57.8761 109.802 57.6316 109.549 57.387C109.295 57.1774 109.041 57.0376 108.823 57.0376C107.917 57.0376 107.446 56.5834 107.446 55.6751C107.446 54.7667 107.917 54.3474 108.823 54.3474H115.096C116.039 54.3474 116.51 54.8016 116.51 55.6751C116.51 56.5485 116.039 57.0376 115.096 57.0376C114.842 57.0376 114.589 57.1424 114.371 57.387C114.117 57.5966 114.008 57.8761 114.008 58.1556V67.3792C114.008 67.6587 114.117 67.9382 114.371 68.1478C114.625 68.3575 114.879 68.4972 115.096 68.4972C116.039 68.4972 116.51 68.9514 116.51 69.8598C116.51 70.7681 116.039 71.1874 115.096 71.1874H108.823C107.917 71.1874 107.446 70.7332 107.446 69.8598C107.446 68.9863 107.917 68.4972 108.823 68.4972C109.077 68.4972 109.331 68.3924 109.549 68.1478C109.802 67.9382 109.911 67.6587 109.911 67.3792V64.3396V64.3047Z" fill="#583A3A"/>
<path d="M124.743 63.3963H124.598V67.3443C124.598 67.6238 124.707 67.9033 124.961 68.1129C125.214 68.3225 125.468 68.4623 125.686 68.4623C126.629 68.4623 127.1 68.9165 127.1 69.7899C127.1 70.6633 126.629 71.1525 125.686 71.1525H119.413C118.507 71.1525 118.035 70.6983 118.035 69.7899C118.035 68.8815 118.507 68.4623 119.413 68.4623C119.667 68.4623 119.921 68.3574 120.138 68.1129C120.392 67.9033 120.501 67.6238 120.501 67.3443V58.1207C120.501 57.8412 120.392 57.5967 120.138 57.3521C119.884 57.1425 119.631 57.0027 119.413 57.0027C118.507 57.0027 118.035 56.5485 118.035 55.6751C118.035 54.8016 118.507 54.3125 119.413 54.3125H125.686C126.629 54.3125 127.1 54.7667 127.1 55.6751C127.1 56.5834 126.629 57.0027 125.686 57.0027C125.432 57.0027 125.178 57.1075 124.961 57.3521C124.707 57.5617 124.598 57.8412 124.598 58.1207V60.741H131.161V58.1207C131.161 57.8412 131.052 57.5967 130.798 57.3521C130.545 57.1075 130.291 57.0027 130.073 57.0027C129.167 57.0027 128.695 56.5485 128.695 55.6751C128.695 54.8016 129.167 54.3125 130.073 54.3125H136.346C137.289 54.3125 137.76 54.7667 137.76 55.6751C137.76 56.5834 137.289 57.0027 136.346 57.0027C136.092 57.0027 135.838 57.1075 135.621 57.3521C135.367 57.5617 135.258 57.8412 135.258 58.1207V67.3443C135.258 67.6238 135.367 67.9033 135.621 68.1129C135.875 68.3225 136.129 68.4623 136.346 68.4623C137.289 68.4623 137.76 68.9165 137.76 69.7899C137.76 70.6633 137.289 71.1525 136.346 71.1525H130.073C129.167 71.1525 128.695 70.6983 128.695 69.7899C128.695 68.8815 129.167 68.4623 130.073 68.4623C130.327 68.4623 130.581 68.3574 130.798 68.1129C131.016 67.8683 131.161 67.6238 131.161 67.3443V63.3963H124.743Z" fill="#583A3A"/>
<path d="M159.152 58.0504C159.152 57.7709 159.043 57.5263 158.789 57.2817C158.535 57.0372 158.282 56.9324 158.064 56.9324C157.158 56.9324 156.686 56.4782 156.686 55.6048C156.686 54.7313 157.158 54.2422 158.064 54.2422H164.337C165.28 54.2422 165.751 54.6964 165.751 55.6048C165.751 56.5131 165.28 56.9324 164.337 56.9324C164.083 56.9324 163.829 57.0372 163.612 57.2817C163.394 57.5263 163.249 57.7709 163.249 58.0504V67.2739C163.249 67.5534 163.358 67.8329 163.612 68.0426C163.866 68.2522 164.119 68.3919 164.337 68.3919C165.28 68.3919 165.751 68.8461 165.751 69.7196C165.751 70.593 165.28 71.0822 164.337 71.0822H158.064C157.158 71.0822 156.686 70.6279 156.686 69.7196C156.686 68.8112 157.158 68.3919 158.064 68.3919C158.318 68.3919 158.572 68.2871 158.789 68.0426C159.007 67.798 159.152 67.5534 159.152 67.2739V58.0504ZM149.326 60.1466C149.797 60.1466 150.268 60.1466 150.74 60.1816C151.211 60.1816 151.682 60.2515 152.154 60.3213C153.532 60.5659 154.547 61.09 155.2 61.9285C155.852 62.767 156.251 63.7103 156.324 64.7584C156.36 65.3524 156.324 65.9463 156.179 66.5402C156.034 67.1342 155.78 67.6932 155.49 68.2522C155.163 68.7762 154.764 69.2654 154.257 69.6846C153.749 70.1039 153.205 70.4183 152.553 70.6629C152.045 70.8376 151.429 70.9424 150.595 71.0123C149.761 71.0821 148.528 71.0822 146.86 71.0822H140.551C139.608 71.0822 139.137 70.6279 139.137 69.7545C139.137 69.2654 139.282 68.916 139.536 68.7763C139.789 68.6365 140.079 68.5317 140.406 68.4618C140.732 68.392 141.022 68.3221 141.276 68.1823C141.53 68.0775 141.675 67.798 141.675 67.3787V58.0853C141.711 57.8058 141.602 57.5613 141.349 57.3167C141.095 57.0721 140.841 56.9673 140.623 56.9673C139.717 56.9673 139.245 56.5131 139.245 55.6397C139.245 54.7662 139.717 54.2771 140.623 54.2771H146.896C147.839 54.2771 148.31 54.7313 148.31 55.6397C148.31 56.5481 147.839 56.9673 146.896 56.9673C146.642 56.9673 146.389 57.0721 146.171 57.3167C145.917 57.5263 145.808 57.8058 145.808 58.0853V60.1117H149.398L149.326 60.1466ZM145.7 67.0992C145.7 67.3787 145.808 67.6582 146.062 67.9028C146.316 68.1474 146.57 68.2522 146.787 68.2522H149.289C149.724 68.2522 150.087 68.1124 150.45 67.9028C150.812 67.6932 151.102 67.4486 151.32 67.1342C151.537 66.8197 151.719 66.5053 151.864 66.121C151.972 65.7367 152.045 65.3524 152.045 65.003C152.045 64.3741 151.864 63.85 151.429 63.3609C150.993 62.8718 150.377 62.5923 149.507 62.5224H145.663V66.0162V67.1342L145.7 67.0992Z" fill="#583A3A"/>
<path d="M182.502 55.7768C182.502 56.6852 181.85 57.7333 180.581 58.9212C179.855 59.585 178.441 60.6681 176.411 62.1006C174.562 63.4282 173.329 64.4064 172.712 65.0353C173.22 67.2364 174.743 68.3195 177.317 68.3195C177.861 68.3195 178.478 68.2496 179.203 68.0749C179.928 67.9002 180.436 67.8303 180.762 67.8303C181.596 67.8303 181.995 68.2146 181.995 68.9833C181.995 69.5423 181.632 70.0314 180.871 70.5205C179.819 71.2193 178.26 71.5687 176.229 71.5687C173.764 71.5687 171.661 70.7651 169.993 69.158C168.18 67.446 167.273 65.1751 167.273 62.38C167.273 59.585 167.999 57.6285 169.449 56.0563C170.827 54.5889 172.531 53.8203 174.562 53.8203C175.649 53.8203 176.701 54.0998 177.716 54.6239C178.731 55.1479 179.203 55.4274 179.13 55.4274C179.312 55.4274 179.602 55.2877 180.073 54.9733C180.508 54.6588 180.943 54.5191 181.306 54.5191C182.103 54.5191 182.502 54.9383 182.502 55.8118V55.7768ZM176.411 57.6635C176.411 56.8249 175.939 56.4057 174.997 56.4057C173.474 56.4057 172.64 58.1526 172.495 61.6813C174.09 60.6681 174.888 60.144 174.924 60.1091C175.903 59.3055 176.411 58.502 176.411 57.6635Z" fill="#583A3A"/>
<path d="M58.0615 91.1003C57.1912 91.1003 56.7198 90.6811 56.7198 89.8076C56.7198 89.3884 56.8287 89.0739 57.0462 88.9342C57.2638 88.7595 57.5901 88.6896 58.0252 88.6896C58.2427 88.6896 58.4965 88.5848 58.7141 88.3752C58.9317 88.1656 59.0767 87.921 59.0767 87.6415V78.8721C59.0767 78.5926 58.9679 78.383 58.7141 78.1384C58.4965 77.9288 58.2427 77.824 58.0252 77.824C57.1549 77.824 56.6836 77.4048 56.6836 76.5663C56.6836 75.7278 57.1187 75.2736 58.0252 75.2736H63.9354C64.8057 75.2736 65.2408 75.6928 65.2408 76.5663C65.2408 77.4397 64.8057 77.824 63.9354 77.824C63.7179 77.824 63.4641 77.9288 63.2465 78.1384C63.029 78.3481 62.8839 78.5926 62.8839 78.8721V87.5716C62.8839 87.5716 62.9565 87.8511 63.1015 87.9559C63.2465 88.0957 63.3915 88.2005 63.5728 88.3053C63.7541 88.4101 63.9355 88.48 64.1167 88.5499C64.298 88.6198 64.4431 88.6198 64.5881 88.6198H67.2713C67.4888 88.6198 67.7427 88.515 67.9602 88.3053C68.1778 88.0957 68.3228 87.8511 68.3228 87.5716V78.8721C68.3228 78.5926 68.214 78.383 67.9602 78.1384C67.7427 77.9288 67.4888 77.824 67.2713 77.824C66.4011 77.824 65.9659 77.4048 65.9659 76.5663C65.9659 75.7278 66.4011 75.2736 67.2713 75.2736H73.1816C74.0518 75.2736 74.5231 75.6928 74.5231 76.5663C74.5231 77.4397 74.088 77.824 73.1816 77.824C72.964 77.824 72.7102 77.9288 72.4926 78.1384C72.2751 78.3481 72.13 78.5926 72.13 78.8721V87.5716C72.13 87.8511 72.2388 88.0957 72.4926 88.3053C72.7464 88.515 72.964 88.6198 73.1816 88.6198H76.6624C76.88 88.6198 77.1338 88.515 77.3513 88.3053C77.5689 88.0957 77.714 87.8511 77.714 87.5716V78.8721C77.714 78.5926 77.6052 78.383 77.3513 78.1384C77.1338 77.9288 76.88 77.824 76.6624 77.824C75.7922 77.824 75.3571 77.4048 75.3571 76.5663C75.3571 75.7278 75.7922 75.2736 76.6624 75.2736H82.5727C83.4429 75.2736 83.9143 75.6928 83.9143 76.5663C83.9143 77.4397 83.4792 77.824 82.5727 77.824C82.3551 77.824 82.1013 77.9288 81.8837 78.1384C81.6662 78.3481 81.5212 78.5926 81.5212 78.8721V87.6415C81.5212 87.921 81.6299 88.1656 81.8837 88.3752C82.1376 88.5848 82.3551 88.6896 82.5727 88.6896C83.0078 88.6896 83.3704 88.7944 83.5879 88.9342C83.8055 89.1089 83.9143 89.3884 83.9143 89.8076C83.9143 90.6461 83.4792 91.1003 82.5727 91.1003H58.0252H58.0615Z" fill="#583A3A"/>
<path d="M101.79 80.6182C101.79 79.4304 101.246 78.8364 100.194 78.8364C98.9253 78.8364 98.2726 79.64 98.2726 81.2471V87.5359C98.2726 88.0949 98.5627 88.619 99.1791 89.0382C99.7592 89.4924 100.049 89.9117 100.049 90.296C100.049 90.8201 99.723 91.0995 99.1066 91.0995H97.6925C96.8222 91.0995 96.0971 90.7502 95.4444 90.0864C94.7917 89.4225 94.4654 88.619 94.4654 87.7455V80.6182C94.4654 79.4304 93.9215 78.8364 92.87 78.8364C91.6009 78.8364 90.9482 79.64 90.9482 81.2471V87.5359C90.9482 87.8154 91.057 88.06 91.3109 88.2696C91.5647 88.4792 91.7822 88.584 91.9998 88.584C92.87 88.584 93.3414 89.0033 93.3414 89.8418C93.3414 90.6803 92.9063 91.1345 91.9998 91.1345H86.0895C85.2193 91.1345 84.7842 90.7152 84.7842 89.8418C84.7842 88.9683 85.2193 88.584 86.0895 88.584C86.3071 88.584 86.5609 88.4792 86.7784 88.2696C86.996 88.06 87.141 87.8154 87.141 87.5359V78.8364C87.141 78.5569 87.0323 78.3473 86.7784 78.1027C86.5609 77.8931 86.3071 77.7883 86.0895 77.7883C85.2193 77.7883 84.7842 77.369 84.7842 76.4956C84.7842 75.6221 85.2193 75.2378 86.0895 75.2378H90.9482V76.8799C91.9272 75.727 93.1601 75.168 94.6467 75.168C96.2421 75.168 97.3299 75.9016 97.9463 77.3341C99.0703 75.9016 100.448 75.168 102.007 75.168C103.059 75.168 103.929 75.5173 104.618 76.251C105.307 76.9847 105.633 77.963 105.633 79.2207V87.7455C105.633 88.4093 105.923 88.9334 106.54 89.3527C107.12 89.7719 107.41 90.1562 107.41 90.5056C107.41 91.0297 107.084 91.3092 106.467 91.3092H105.053C104.183 91.3092 103.458 90.9598 102.805 90.296C102.152 89.6322 101.826 88.8286 101.826 87.9551V80.5833L101.79 80.6182Z" fill="#583A3A"/>
<path d="M117.054 82.8195L119.302 87.2566L122.457 78.7318C122.457 78.5222 122.42 78.2776 122.239 78.1029C122.094 77.8933 121.877 77.7885 121.695 77.7885C120.825 77.7885 120.39 77.3692 120.39 76.4958C120.39 75.6224 120.825 75.238 121.695 75.238H126.663C127.533 75.238 128.004 75.6573 128.004 76.4958C128.004 77.3343 127.569 77.7885 126.663 77.7885C126.445 77.7885 126.155 77.8933 125.829 78.1029C125.502 78.3126 125.285 78.5571 125.212 78.8366L120.716 91.6238C119.919 93.8249 119.012 95.432 117.997 96.5151C116.655 97.8777 114.915 98.5415 112.703 98.5415C110.709 98.5415 109.222 98.0174 108.279 96.9693C107.518 96.1308 107.155 95.1176 107.155 93.8598C107.155 92.7768 107.554 91.7985 108.352 90.96C109.15 90.1215 110.092 89.7022 111.18 89.7022C112.268 89.7022 113.174 90.0516 113.791 90.7504C114.335 91.3443 114.625 92.0431 114.625 92.8466C114.625 93.5454 114.407 94.1044 113.972 94.5237C113.609 94.873 113.211 95.0477 112.812 95.0477C111.724 95.0477 111.18 94.7333 111.18 94.1394C111.869 94.0345 112.195 93.5803 112.195 92.8117C112.195 92.2876 111.869 92.0431 111.18 92.0431C110.745 92.0431 110.382 92.2178 110.056 92.5671C109.73 92.9165 109.585 93.3358 109.585 93.8249C109.585 95.3622 110.636 96.1308 112.703 96.1308C114.951 96.1308 116.655 94.5586 117.815 91.3793C117.235 90.5757 116.148 89.842 114.516 89.2131C113.211 88.6891 112.558 88.1999 112.558 87.7457C112.558 87.3964 112.812 87.0819 113.283 86.7325C113.791 86.3832 114.045 86.1037 114.045 85.8591C114.045 85.6495 113.972 85.4049 113.863 85.1953L110.346 78.8017C109.984 78.1029 109.585 77.7536 109.222 77.7536C108.352 77.7536 107.88 77.3343 107.88 76.4609C107.88 75.5874 108.316 75.2031 109.222 75.2031H115.858C116.728 75.2031 117.199 75.6224 117.199 76.4609C117.199 77.2994 116.764 77.7536 115.858 77.7536C115.676 77.7536 115.495 77.8584 115.314 77.9981C115.132 78.1728 115.06 78.3475 115.06 78.5571C115.06 78.627 115.06 78.6969 115.132 78.8017L117.127 82.7846L117.054 82.8195Z" fill="#583A3A"/>
<path d="M138.231 84.7068C137.76 85.3008 137.107 85.72 136.273 85.9995C135.475 86.279 134.678 86.4188 133.916 86.4188C132.865 86.4188 132.031 86.0694 131.378 85.3706C130.653 84.6369 130.29 83.6587 130.29 82.366V78.8722C130.29 78.2084 130 77.6844 129.384 77.3C128.804 76.8808 128.514 76.4965 128.514 76.1121C128.514 75.5881 128.84 75.3086 129.456 75.3086H130.871C131.306 75.3086 131.704 75.4134 132.067 75.5881C132.466 75.7628 132.792 76.0074 133.082 76.3218C133.372 76.6362 133.626 76.9856 133.808 77.4049C133.989 77.8241 134.061 78.2434 134.061 78.6976V81.0384C134.061 82.2263 134.641 82.8202 135.693 82.8202C136.309 82.8202 136.89 82.6106 137.397 82.2262C137.905 81.8419 138.159 81.2131 138.159 80.4095V78.9072C138.159 78.6277 138.05 78.418 137.796 78.1735C137.578 77.9639 137.325 77.859 137.107 77.859C136.237 77.859 135.802 77.4398 135.802 76.5664C135.802 75.6929 136.237 75.3086 137.107 75.3086H143.017C143.888 75.3086 144.359 75.7278 144.359 76.5664C144.359 77.4049 143.924 77.859 143.017 77.859C142.8 77.859 142.546 77.9639 142.328 78.1735C142.111 78.3831 141.966 78.6277 141.966 78.9072V87.6067C141.966 87.8862 142.075 88.1307 142.328 88.3403C142.546 88.55 142.8 88.6548 143.017 88.6548C143.888 88.6548 144.359 89.074 144.359 89.9475C144.359 90.8209 143.924 91.2052 143.017 91.2052H137.107C136.237 91.2052 135.802 90.786 135.802 89.9475C135.802 89.109 136.237 88.6548 137.107 88.6548C137.325 88.6548 137.578 88.55 137.796 88.3403C138.014 88.1307 138.159 87.8862 138.159 87.6067V84.7418L138.231 84.7068Z" fill="#583A3A"/>
<path d="M147.802 78.8369C147.802 78.4176 147.693 78.1731 147.439 78.0683C147.185 77.9634 146.932 77.8586 146.641 77.7887C146.351 77.7189 146.098 77.6141 145.844 77.4394C145.59 77.2996 145.481 76.9852 145.481 76.496C145.481 75.6575 145.916 75.2383 146.823 75.2383H151.645V82.1909C152.515 80.9681 153.277 79.9199 153.93 79.0465C154.582 78.1731 155.199 77.4743 155.779 76.9153C156.359 76.3563 156.903 75.9371 157.483 75.6925C158.027 75.413 158.68 75.2732 159.368 75.2732C160.565 75.2732 161.472 75.5527 162.088 76.2165C162.668 76.8454 162.958 77.5791 162.958 78.4525C162.958 78.8369 162.886 79.2212 162.704 79.5356C162.523 79.885 162.305 80.1645 162.015 80.4091C161.725 80.6536 161.399 80.8633 161.036 81.003C160.674 81.1428 160.311 81.2126 159.912 81.2126C159.332 81.2126 158.861 81.0379 158.534 80.6536C158.208 80.2693 158.063 79.9549 158.063 79.6404C158.063 79.4308 158.172 79.2212 158.353 78.9766C158.534 78.732 158.825 78.5574 159.151 78.5224C159.26 78.8718 159.405 79.0465 159.659 79.0465C159.804 79.0465 159.912 78.9766 160.021 78.8369C160.13 78.6971 160.166 78.5574 160.166 78.3827C160.166 77.9984 160.094 77.7189 159.912 77.5442C159.731 77.3695 159.513 77.2996 159.223 77.2996C158.933 77.2996 158.643 77.4044 158.317 77.5791C157.991 77.7538 157.664 77.9984 157.374 78.3128C156.903 78.8019 156.468 79.326 155.996 79.8151C155.561 80.3043 155.09 81.0379 154.582 82.0162C154.655 82.68 154.945 83.1691 155.416 83.4836C155.888 83.798 156.649 83.9028 157.628 83.798L159.804 87.4316C160.057 87.8857 160.384 88.1652 160.746 88.2701C161.109 88.3749 161.472 88.4447 161.798 88.5146C162.124 88.5845 162.414 88.6544 162.668 88.7941C162.922 88.9339 163.031 89.2483 163.031 89.7374C163.031 90.5759 162.596 91.0301 161.689 91.0301H157.193L152.842 84.1474C152.624 84.4618 152.407 84.7413 152.225 85.0208C152.044 85.3003 151.899 85.51 151.754 85.7196V87.4665C151.754 87.8857 151.863 88.1303 152.08 88.2701C152.334 88.4098 152.588 88.4797 152.878 88.5496C153.168 88.6194 153.458 88.7242 153.712 88.864C153.966 89.0037 154.075 89.3182 154.075 89.7374C154.075 90.5759 153.64 91.0301 152.733 91.0301H146.823C145.953 91.0301 145.517 90.6109 145.517 89.7374C145.517 89.2832 145.662 89.0037 145.88 88.864C146.134 88.7242 146.388 88.6194 146.678 88.5146C146.968 88.4447 147.222 88.3399 147.475 88.2351C147.729 88.1303 147.838 87.8508 147.838 87.4665V78.767L147.802 78.8369Z" fill="#583A3A"/>
<path d="M176.338 78.872C176.338 78.5925 176.229 78.3829 175.976 78.1383C175.758 77.9287 175.504 77.8239 175.287 77.8239C174.416 77.8239 173.981 77.4046 173.981 76.5661C173.981 75.7276 174.416 75.2734 175.287 75.2734H181.197C182.067 75.2734 182.538 75.6927 182.538 76.5661C182.538 77.4396 182.103 77.8239 181.197 77.8239C180.979 77.8239 180.725 77.9287 180.508 78.1383C180.29 78.348 180.145 78.5925 180.145 78.872V87.5715C180.145 87.851 180.254 88.0956 180.508 88.3052C180.725 88.5148 180.979 88.6196 181.197 88.6196C182.067 88.6196 182.538 89.0389 182.538 89.8774C182.538 90.7159 182.103 91.1701 181.197 91.1701H175.287C174.416 91.1701 173.981 90.7508 173.981 89.8774C173.981 89.004 174.416 88.6196 175.287 88.6196C175.504 88.6196 175.758 88.5148 175.976 88.3052C176.193 88.0956 176.338 87.851 176.338 87.5715V82.2959L170.174 87.6064C170.174 87.851 170.283 88.0956 170.537 88.3052C170.754 88.5148 171.008 88.6196 171.226 88.6196C172.096 88.6196 172.567 89.0389 172.567 89.8774C172.567 90.7159 172.132 91.1701 171.226 91.1701H165.315C164.445 91.1701 164.01 90.7508 164.01 89.8774C164.01 89.004 164.445 88.6196 165.315 88.6196C165.533 88.6196 165.787 88.5148 166.004 88.3052C166.222 88.0956 166.367 87.851 166.367 87.5715V78.872C166.367 78.5925 166.258 78.3829 166.004 78.1383C165.787 77.9287 165.533 77.8239 165.315 77.8239C164.445 77.8239 164.01 77.4046 164.01 76.5661C164.01 75.7276 164.445 75.2734 165.315 75.2734H171.226C172.096 75.2734 172.567 75.6927 172.567 76.5661C172.567 77.4396 172.132 77.8239 171.226 77.8239C171.008 77.8239 170.754 77.9287 170.537 78.1383C170.319 78.348 170.174 78.5925 170.174 78.872V84.3572L176.338 78.907V78.872Z" fill="#583A3A"/>
<path d="M19.1528 0.0557115C20.4219 0.474964 21.9085 2.3616 22.7787 3.61936C25.6432 7.77694 25.607 12.0393 21.2196 15.8476C12.9887 23.0447 14.7655 30.1021 21.1833 37.2644C21.3646 37.474 21.5459 37.6487 21.6547 37.8932C21.6547 37.9631 21.7272 38.1728 21.4734 38.2426C21.147 38.3474 20.7844 38.1029 20.5669 37.9631C14.004 33.7007 9.36279 29.0191 9.18149 23.3592C9.10897 20.9135 10.5956 18.6775 13.0975 16.721C18.7902 12.214 20.0955 7.35769 18.5001 2.11704C18.3188 1.48816 17.8112 0.754463 18.2101 0.230397C18.3914 -0.0141666 18.8264 -0.0491016 19.1528 0.0557115Z" fill="#838583"/>
<path d="M29.9943 12.845C32.605 13.9281 33.5477 16.4087 33.6928 17.7014C33.8741 19.5531 33.1851 21.6843 31.481 23.2215C26.3684 27.8682 26.8398 32.4101 30.9008 37.0918C31.1909 37.4062 31.5534 37.8255 31.5534 38.0351C31.5534 38.3495 31.1183 38.2098 30.937 38.1749C23.5764 34.6811 20.9295 28.2176 25.752 23.9203C29.2691 20.741 30.3569 17.5267 29.2328 13.998C29.1241 13.6835 29.0153 13.2992 29.2328 13.0197C29.3779 12.8101 29.7768 12.7402 29.9943 12.845Z" fill="#838583"/>
<path d="M25.1353 51.9698C23.2135 51.9698 21.3281 51.9698 19.4063 51.9698C17.3395 51.9698 16.288 51.0614 16.1429 49.0001C15.7804 44.004 16.5418 43.0956 21.7269 43.0956C24.8089 43.0956 27.891 43.0257 30.973 43.1655C34.1638 43.3052 34.7802 44.2485 34.6714 48.2314C34.5989 51.3409 34.0188 51.8999 30.8642 52.0047C30.6829 52.0047 30.5016 52.0047 30.3203 52.0047C28.5799 52.0047 26.8757 52.0047 25.1353 52.0047V51.9698Z" fill="#C22838"/>
<path d="M7.83934 52.0065C7.00537 52.0065 6.2077 52.0065 5.37374 52.0065C1.27644 51.9716 0.768799 51.4825 0.768799 47.6393C0.768799 43.5866 1.24014 43.0974 5.44621 43.0625C7.62177 43.0625 9.79731 43.0625 12.0091 43.0974C13.8946 43.0974 14.8374 44.0757 14.9099 45.8924C14.9099 46.2418 14.9099 46.5912 14.9462 46.9406C15.0549 51.6222 14.6923 51.9716 9.76107 52.0065C9.10841 52.0065 8.492 52.0065 7.83934 52.0065Z" fill="#C22838"/>
<path d="M42.6486 51.9716C41.9234 51.9716 41.1982 51.9716 40.473 51.9716C36.1581 51.9716 35.7955 51.5873 35.8318 47.4647C35.8318 43.5516 36.3394 43.0974 40.4004 43.0625C42.576 43.0625 44.7515 43.0625 46.9634 43.0625C48.9939 43.0625 49.9729 44.0757 49.9729 45.9973C49.9729 46.6261 49.9729 47.2201 49.9729 47.849C49.9366 51.3777 49.3927 51.9017 45.6218 51.9367C44.6065 51.9367 43.6275 51.9367 42.6123 51.9367L42.6486 51.9716Z" fill="#C22838"/>
<path d="M15.4907 62.4566C13.3152 62.4566 11.1396 62.4566 8.96407 62.4566C7.36866 62.4566 6.42592 61.6181 6.3534 60.0459C6.3534 59.7664 6.35342 59.5218 6.31716 59.2423C5.99083 53.268 6.24465 53.0234 12.445 53.0234C15.4545 53.0234 18.4277 53.0234 21.4373 53.0234C23.6491 53.0234 24.7006 53.9668 24.8456 56.1678C25.2082 62.0723 24.8819 62.4566 18.7903 62.4566C17.7026 62.4566 16.6148 62.4566 15.527 62.4566C15.527 62.4566 15.527 62.4566 15.527 62.4217L15.4907 62.4566Z" fill="#C22838"/>
<path d="M35.1789 62.4915C33.2571 62.4915 31.3717 62.4566 29.4499 62.4915C27.0931 62.5614 26.0053 61.6181 25.8965 59.2423C25.6789 53.3029 25.8603 53.0234 32.0606 53.0234C35.0701 53.0234 38.0434 53.0584 41.0529 53.0234C43.2647 53.0234 44.3525 53.9318 44.4613 56.1678C44.8239 62.0723 44.4975 62.4915 38.406 62.4915C37.3182 62.4915 36.2304 62.4915 35.1426 62.4915H35.1789Z" fill="#C22838"/>
<path d="M15.5631 73.0771C17.4849 73.0771 19.3704 73.112 21.2921 73.0771C23.8303 73.0072 24.9543 74.23 24.8455 76.6058C24.8455 76.7805 24.8455 76.9552 24.8455 77.1298C24.9543 82.1259 24.5554 82.5103 19.4066 82.5452C16.0345 82.5452 12.6987 82.5452 9.32655 82.5452C7.33229 82.5452 6.42583 81.6368 6.28079 79.6803C5.77316 73.5662 6.172 73.112 12.5536 73.112C13.5689 73.112 14.5479 73.112 15.5631 73.112V73.0771Z" fill="#C22838"/>
<path d="M35.1793 82.4761C33.0762 82.4761 31.0095 82.4761 28.9064 82.4761C27.0572 82.4761 26.1145 81.6376 25.9332 79.8209C25.3168 73.6369 25.8244 73.043 32.2786 73.043C35.2881 73.043 38.2613 73.043 41.2708 73.043C43.4101 73.043 44.4617 74.0562 44.4617 76.1175C44.4617 76.8162 44.4617 77.515 44.4617 78.2137C44.4254 81.9171 43.9178 82.4412 40.038 82.4761C38.4064 82.4761 36.7747 82.4761 35.143 82.4761H35.1793Z" fill="#C22838"/>
<path d="M25.3523 71.9601C23.3581 71.9601 21.3638 71.9601 19.3333 71.9601C17.2302 71.9601 16.1062 70.9819 16.1425 68.9206C16.1425 67.9423 16.1425 66.999 16.1425 66.0207C16.1425 64.0991 17.194 63.0859 19.1883 63.0859C23.3581 63.0859 27.5641 63.0859 31.7339 63.0859C33.6194 63.0859 34.5622 64.0991 34.5984 65.881C34.5984 66.5797 34.6347 67.2785 34.6347 67.9772C34.5984 71.4361 34.1271 71.8902 30.5011 71.9601C30.3198 71.9601 30.1386 71.9601 29.9573 71.9601C28.3981 71.9601 26.8752 71.9601 25.3161 71.9601H25.3523Z" fill="#C22838"/>
<path d="M24.9907 91.9799C23.1777 91.9799 21.3647 91.9799 19.5518 91.9799C17.1224 92.0148 16.0709 90.8618 16.1434 88.5909C16.1434 87.7175 16.1434 86.844 16.1434 85.9706C16.1797 84.1887 17.0862 83.1406 18.9717 83.1406C23.2503 83.1406 27.4926 83.1406 31.7712 83.1406C33.4754 83.1406 34.4906 84.0141 34.5631 85.6911C34.5993 86.9139 34.5993 88.1367 34.5631 89.3595C34.4906 91.0715 33.4754 91.91 31.7712 91.9449C29.4868 91.9799 27.2387 91.9449 24.9544 91.9449L24.9907 91.9799Z" fill="#C22838"/>
<path d="M6.2085 67.558C6.2085 63.5052 6.64361 63.0859 10.6321 63.0859C14.5481 63.0859 14.947 63.5401 14.947 67.6628C14.947 71.5409 14.5118 71.9951 10.6684 71.9951C6.64359 71.9951 6.2085 71.5758 6.2085 67.558Z" fill="#C22838"/>
<path d="M6.20825 87.5092C6.20825 83.4913 6.64335 83.0371 10.6681 83.0721C14.5479 83.0721 14.9467 83.5263 14.9467 87.6838C14.9467 91.5619 14.4754 91.9812 10.6319 91.9812C6.64337 91.9812 6.20825 91.5619 6.20825 87.5092Z" fill="#C22838"/>
<path d="M35.7949 67.3833C35.7949 63.5401 36.2663 63.0859 40.0735 63.0859C43.9532 63.0859 44.5334 63.6449 44.5334 67.5929C44.5334 71.471 43.9532 72.03 40.0372 72.03C36.23 72.03 35.7949 71.5758 35.8312 67.4182L35.7949 67.3833Z" fill="#C22838"/>
<path d="M35.7952 87.5441C35.7952 83.4913 36.2303 83.0371 40.1463 83.0721C43.9535 83.0721 44.5336 83.666 44.4974 87.6489C44.4974 91.4571 43.881 92.0161 39.9287 92.0161C36.2303 92.0161 35.7952 91.527 35.7952 87.579V87.5441Z" fill="#C22838"/>
</svg>
