<svg width="119" height="92" viewBox="0 0 119 92" fill="none" xmlns="http://www.w3.org/2000/svg">
<g opacity="0.4">
<path d="M17.2721 42.5164L20.0004 50.4853C20.0857 50.7728 20.171 50.9782 20.171 51.1425C20.171 51.43 19.9578 51.4711 19.361 51.4711H15.1405C14.5863 51.4711 14.3306 51.4711 14.3306 51.1425C14.3306 50.9782 14.3732 50.8139 14.5011 50.4853L17.2294 42.5164H17.2721ZM15.0553 41.5716L9.00174 57.1397C8.31965 58.906 7.68019 59.0293 6.31601 59.0293H5.25024C4.69604 59.0293 4.14185 59.5633 4.14185 60.1794C4.14185 60.7956 4.7813 61.3707 5.63392 61.3707C6.27338 61.3707 8.06386 61.1653 11.1759 61.1653C12.8811 61.1653 13.8616 61.3707 14.5437 61.3707C15.439 61.3707 15.8653 60.9599 15.8653 60.1383C15.8653 59.44 15.3537 58.9882 14.4158 58.9882C13.9043 58.9882 13.5206 59.1525 12.8385 59.1525C12.2417 59.1525 11.7727 58.7828 11.7727 58.372C11.7727 57.9613 11.858 57.5094 11.9859 57.0576L12.8811 54.4697C13.1369 53.8125 13.4353 53.4839 13.9043 53.4839H20.5973C21.0662 53.4839 21.3646 53.7714 21.6204 54.4697L22.5156 57.0576C22.6862 57.5094 22.7288 57.9613 22.7288 58.372C22.7288 58.7828 22.2599 59.1525 21.663 59.1525C20.9809 59.1525 20.5973 58.9882 20.0857 58.9882C19.1478 58.9882 18.6363 59.399 18.6363 60.1383C18.6363 60.9188 19.0626 61.3707 19.9578 61.3707C20.6399 61.3707 21.6204 61.1653 23.3256 61.1653C26.4377 61.1653 28.2281 61.3707 28.8676 61.3707C29.7202 61.3707 30.3597 60.8367 30.3597 60.1794C30.3597 59.5222 29.8055 59.0293 29.2513 59.0293H28.1855C26.864 59.0293 26.1819 58.8649 25.4998 57.1397L19.4462 41.5716C18.892 40.0928 18.6789 39.3945 17.2294 39.3945C15.78 39.3945 15.6095 40.0107 15.0127 41.5716H15.0553Z" fill="#8D7D77" stroke="white" stroke-width="0.25" stroke-miterlimit="10"/>
<path d="M37.6493 57.1802V54.3048C37.6493 49.4166 38.374 46.9931 41.3581 46.9931C42.7223 46.9931 43.8307 48.0611 43.8307 48.8416C43.8307 49.9917 41.9976 49.4166 41.9976 50.8543C41.9976 51.8812 42.6797 52.4974 43.7881 52.4974C45.4081 52.4974 46.3886 51.3883 46.3886 49.4988C46.3886 46.8699 44.4276 45.0625 41.6992 45.0625C39.7382 45.0625 38.2461 45.9662 37.3509 47.6914V46.7877C37.3935 45.843 37.1803 45.4733 36.2851 45.4733C36.1146 45.4733 35.3472 45.5554 33.9831 45.5554C33.301 45.5554 32.7894 45.5554 32.5336 45.5554C31.681 45.5554 31.2973 45.884 31.2973 46.5823C31.2973 47.2806 31.6384 47.4449 32.4484 47.4449C32.5762 47.4449 32.9173 47.4449 33.4715 47.4449C35.0488 47.4449 35.0914 48.3076 35.0914 50.5257V57.2212C35.0914 59.0286 34.9209 59.4805 33.4715 59.4805C33.1731 59.4805 32.9173 59.4394 32.5762 59.4394C31.6384 59.4394 31.1694 59.768 31.1694 60.4663C31.1694 61.1646 31.5531 61.4522 32.491 61.4522C33.0452 61.4522 34.2388 61.2057 36.1146 61.2057C38.374 61.2057 39.8661 61.4522 40.5055 61.4522C41.3582 61.4522 41.8271 61.0414 41.8271 60.4252C41.8271 59.6859 41.3581 59.3572 40.335 59.3572C39.6529 59.3572 39.2692 59.3983 39.0135 59.3983C37.9477 59.3983 37.6919 59.0286 37.6919 57.2212L37.6493 57.1802Z" fill="#8D7D77" stroke="white" stroke-width="0.25" stroke-miterlimit="10"/>
<path d="M47.2401 53.362C47.2401 58.4556 50.3948 61.7417 55.4678 61.7417C60.5409 61.7417 63.8661 58.4966 63.8661 53.362C63.8661 48.2274 60.754 45.0234 55.5105 45.0234C50.2669 45.0234 47.1975 48.2685 47.1975 53.362H47.2401ZM49.8832 53.362C49.8832 49.4187 52.0574 47.0362 55.5531 47.0362C59.0488 47.0362 61.223 49.4187 61.223 53.362C61.223 57.3054 59.0062 59.6879 55.5531 59.6879C52.1 59.6879 49.8832 57.3876 49.8832 53.362Z" fill="#8D7D77" stroke="white" stroke-width="0.25" stroke-miterlimit="10"/>
<path d="M72.137 57.2235V53.6088C72.137 49.3368 73.4585 46.9954 76.4 46.9954C79.3416 46.9954 79.7679 48.926 79.7679 52.3764V57.2235C79.7679 59.0309 79.64 59.4006 78.83 59.4006C78.5316 59.4006 78.1479 59.3184 77.7642 59.3184C76.9969 59.3184 76.6132 59.647 76.6132 60.3864C76.6132 61.0437 76.9969 61.3312 77.679 61.3312C78.2758 61.3312 79.3842 61.1669 81.0042 61.1669C82.6241 61.1669 83.8178 61.3723 84.4146 61.3723C85.1393 61.3723 85.523 61.0437 85.523 60.3454C85.523 59.6471 85.1393 59.4006 84.3293 59.4006C83.903 59.4006 83.562 59.4006 83.2636 59.4006C82.411 59.4006 82.3257 58.9898 82.3257 57.1413V52.2943C82.3257 48.8028 83.2636 46.9543 86.333 46.9543C89.7861 46.9543 89.9992 49.5832 89.9992 53.6909V57.1824C89.9992 58.9077 89.9566 59.3595 89.0613 59.3595C88.8056 59.3595 88.4645 59.2774 88.0808 59.2774C87.3561 59.2774 87.0577 59.606 87.0577 60.3454C87.0577 61.0848 87.3987 61.2901 88.1235 61.2901C89.1892 61.2901 90.3403 61.1258 91.4913 61.1258H91.7897C93.2391 61.1258 94.3475 61.3312 95.0723 61.3312C95.9675 61.3312 96.3938 61.0437 96.3938 60.3454C96.3938 59.6471 95.9249 59.3184 94.987 59.3184C94.7312 59.3184 94.4754 59.3184 94.0918 59.3184C92.7702 59.3184 92.5144 58.9898 92.5144 57.1003V51.9657C92.5144 47.3651 90.6813 44.8594 86.4609 44.8594C84.2441 44.8594 82.7946 45.7631 81.4305 47.324C80.2368 45.8042 78.6595 44.8594 76.8264 44.8594C74.6096 44.8594 72.9043 45.9274 71.8386 47.6937V46.7078C71.8386 45.8041 71.7533 45.3934 70.7728 45.3934C70.6023 45.3934 69.7923 45.4755 68.4281 45.4755C67.7034 45.4755 67.2345 45.4755 66.9787 45.4755C66.1687 45.4755 65.7424 45.7631 65.7424 46.5025C65.7424 47.1597 66.1261 47.3651 66.8934 47.3651C67.2771 47.3651 67.5755 47.3651 67.9592 47.3651C69.4939 47.3651 69.4939 48.1866 69.4939 50.0351V57.1003C69.4939 58.9488 69.4086 59.3595 67.9592 59.3595C67.6608 59.3595 67.405 59.3595 67.0213 59.3595C66.0834 59.3595 65.6145 59.647 65.6145 60.3864C65.6145 61.1258 66.0408 61.3312 66.9361 61.3312C67.4476 61.3312 68.7692 61.1258 70.8154 61.1258C72.3928 61.1258 73.3733 61.3312 73.8422 61.3312C74.5669 61.3312 74.908 61.0847 74.908 60.3043C74.908 59.606 74.5669 59.3595 73.7996 59.3595C73.5438 59.3595 73.2454 59.3595 72.947 59.3595C72.137 59.3595 72.0517 58.9077 72.0517 57.1003L72.137 57.2235Z" fill="#8D7D77" stroke="white" stroke-width="0.25" stroke-miterlimit="10"/>
<path d="M108.587 59.2771C108.629 60.838 109.652 61.7006 111.4 61.7006C113.489 61.7006 114.768 60.6326 114.768 58.7842V56.4428C114.768 55.4159 114.555 55.0462 113.83 55.0462C113.148 55.0462 112.85 55.457 112.85 56.3607V57.9627C112.85 59.1128 112.551 59.6879 111.656 59.6879C110.761 59.6879 110.676 59.0717 110.676 57.8394V50.5278C110.676 46.6665 109.098 45.0234 104.835 45.0234C100.572 45.0234 98.1848 46.7897 98.1848 49.1311C98.1848 50.5277 98.9948 51.3082 100.146 51.3082C101.126 51.3082 101.851 50.651 101.851 49.7884C101.851 49.0079 101.084 48.6793 101.084 48.3507C101.084 47.7756 102.448 47.0362 104.494 47.0362C106.711 47.0362 108.118 47.9399 108.118 49.583C108.118 51.6779 106.413 51.8422 102.704 52.3351C98.9948 52.8691 97.2043 54.0603 97.2043 57.0179C97.2043 59.9754 99.1227 61.7006 102.746 61.7006C105.347 61.7006 107.308 60.9202 108.629 59.2771H108.587ZM108.16 55.5391C108.16 58.0037 106.072 59.6879 102.746 59.6879C100.871 59.6879 99.6343 58.5788 99.6343 57.1822C99.6343 55.1694 100.998 54.6765 103.727 54.3068C105.688 54.0604 107.137 53.896 108.16 53.0745V55.5802V55.5391Z" fill="#8D7D77" stroke="white" stroke-width="0.25" stroke-miterlimit="10"/>
<path d="M12.4122 79.8951V77.6359C12.4122 73.8157 13.009 71.8851 15.311 71.8851C16.3768 71.8851 17.2294 72.7477 17.2294 73.3228C17.2294 74.2265 15.78 73.7747 15.78 74.8838C15.78 75.7053 16.2915 76.1571 17.1868 76.1571C18.4657 76.1571 19.2331 75.2945 19.2331 73.8157C19.2331 71.7619 17.6983 70.3242 15.5668 70.3242C14.0321 70.3242 12.8811 71.0636 12.1564 72.4191V71.7208C12.199 70.9814 12.0285 70.6939 11.3038 70.6939C11.1759 70.6939 10.579 70.7761 9.51327 70.7761C8.95907 70.7761 8.5754 70.7761 8.40488 70.7761C7.72279 70.7761 7.42437 71.0225 7.42437 71.5565C7.42437 72.0905 7.68016 72.2138 8.31962 72.2138C8.40488 72.2138 8.70329 72.2138 9.1296 72.2138C10.3659 72.2138 10.4085 72.871 10.4085 74.6373V79.8951C10.4085 81.3328 10.238 81.6614 9.1296 81.6614C8.91644 81.6614 8.66066 81.6204 8.44751 81.6204C7.68016 81.6204 7.33911 81.8668 7.33911 82.4419C7.33911 83.017 7.63753 83.2223 8.36225 83.2223C8.78855 83.2223 9.72643 83.017 11.1759 83.017C12.9664 83.017 14.1174 83.2223 14.6289 83.2223C15.311 83.2223 15.6947 82.8937 15.6947 82.4419C15.6947 81.8668 15.311 81.5793 14.5011 81.5793C13.9895 81.5793 13.6484 81.6204 13.4353 81.6204C12.5827 81.6204 12.4122 81.3328 12.4122 79.8951Z" fill="#8D7D77" stroke="white" stroke-width="0.25" stroke-miterlimit="10"/>
<path d="M23.1981 75.5018C23.4539 73.2836 24.8607 71.9281 26.907 71.9281C28.9533 71.9281 30.4453 73.2836 30.4453 75.3375V75.5018H23.1981ZM23.0703 77.1038H31.3832C32.4064 77.1038 32.6195 76.8574 32.6195 75.9126C32.6195 72.5443 30.4027 70.3672 26.8644 70.3672C23.326 70.3672 20.9387 72.8729 20.9387 76.8984C20.9387 80.924 23.2408 83.4707 26.8644 83.4707C28.868 83.4707 30.3175 82.8956 31.3832 81.5401C32.1506 80.5543 32.4916 79.6506 32.4916 79.1166C32.4916 78.5826 32.1079 78.254 31.5964 78.254C30.6585 78.254 30.7864 79.363 30.1043 80.2667C29.337 81.3758 28.3991 81.8276 26.9496 81.8276C24.6476 81.8276 23.0276 80.0614 23.0276 77.227V77.1449L23.0703 77.1038Z" fill="#8D7D77" stroke="white" stroke-width="0.25" stroke-miterlimit="10"/>
<path d="M38.545 72.3369V71.7618C38.545 70.8992 38.4597 70.776 37.735 70.776C37.3087 70.776 36.3708 70.8581 35.0493 70.8581C34.7935 70.8581 34.5377 70.776 34.2393 70.776C33.7277 70.776 33.4719 71.0635 33.4719 71.5564C33.4719 72.0493 33.7703 72.3369 34.4098 72.3369C34.6656 72.3369 34.964 72.2547 35.2624 72.2547C36.4987 72.2547 36.5413 72.9119 36.5413 74.5139V84.7421C36.5413 85.9333 36.3708 86.2619 35.6461 86.2619C35.4329 86.2619 35.1345 86.2208 34.7508 86.2208C34.0688 86.2208 33.7277 86.4673 33.7277 87.0424C33.7277 87.5353 34.0261 87.7818 34.623 87.7818C35.0919 87.7818 36.115 87.6175 37.735 87.6175C39.0992 87.6175 40.0797 87.7818 40.5486 87.7818C41.2307 87.7818 41.5717 87.5764 41.5717 87.0424C41.5717 86.5084 41.2307 86.2208 40.4633 86.2208C40.2076 86.2208 39.9518 86.2619 39.7813 86.2619C38.6729 86.2619 38.545 85.9333 38.545 84.7421V82.0721C39.4828 83.0169 40.8897 83.5098 42.3817 83.5098C46.0053 83.5098 48.4353 80.963 48.4353 76.9785C48.4353 72.9941 46.1332 70.4062 42.6375 70.4062C40.7618 70.4062 39.4828 71.0224 38.5876 72.378H38.545V72.3369ZM38.545 75.9927C38.545 73.487 40.0797 71.9261 42.2965 71.9261C44.6838 71.9261 46.3464 73.8156 46.3464 76.8964C46.3464 79.9772 44.7264 81.8256 42.2112 81.8256C39.9091 81.8256 38.545 80.4701 38.545 78.1287V75.9516V75.9927Z" fill="#8D7D77" stroke="white" stroke-width="0.25" stroke-miterlimit="10"/>
<path d="M52.3568 73.9385V77.9641C52.3568 81.5788 53.721 83.304 57.4298 83.304C59.3482 83.304 60.5419 82.6879 61.8208 81.127V82.0717C61.8208 82.8111 61.9061 83.0987 62.6734 83.0987C63.0997 83.0987 63.6539 83.0165 64.2507 83.0165C64.8049 83.0165 65.2739 83.0576 65.6575 83.0576C66.297 83.0576 66.5954 82.77 66.5954 82.236C66.5954 81.702 66.3396 81.5788 65.7428 81.5788H64.8476C63.7392 81.5788 63.6113 80.9627 63.6113 78.991V72.049C63.6113 70.9399 63.6113 70.7756 62.8439 70.7756C62.5881 70.7756 62.1618 70.8167 61.6076 70.8167C60.8829 70.8167 60.2435 70.6523 59.7745 70.6523C59.1351 70.6523 58.8793 70.8988 58.8793 71.4328C58.8793 72.0079 59.1777 72.2954 59.9024 72.2954C60.2861 72.2954 60.5845 72.2543 60.7977 72.2543C61.6076 72.2543 61.6929 72.583 61.6929 73.9796V76.1156C61.6929 79.8946 60.6271 81.8253 57.7709 81.8253C55.1278 81.8253 54.4031 80.3876 54.4031 77.5122V72.049C54.4031 70.9399 54.4031 70.7756 53.6357 70.7756C53.252 70.7756 52.8257 70.8167 52.3142 70.8167C51.4616 70.8167 50.8221 70.6523 50.3532 70.6523C49.7137 70.6523 49.4153 70.9399 49.4153 71.4328C49.4153 72.0079 49.7563 72.2954 50.481 72.2954C50.95 72.2954 51.291 72.2543 51.5042 72.2543C52.3568 72.2543 52.4421 72.583 52.4421 73.9796L52.3568 73.9385Z" fill="#8D7D77" stroke="white" stroke-width="0.25" stroke-miterlimit="10"/>
<path d="M70.986 81.9922C71.9665 82.8959 73.1602 83.4299 74.6522 83.4299C78.4037 83.4299 80.791 81.1296 80.791 76.9809C80.791 73.0375 78.489 70.3675 74.9933 70.3675C73.1175 70.3675 71.8386 71.1069 70.9434 72.4624V67.3278C70.9434 66.5474 70.9007 66.2188 70.1334 66.2188C69.9629 66.2188 69.3234 66.3009 68.0871 66.3009C67.3624 66.3009 66.9787 66.2598 66.7656 66.2598C66.0835 66.2598 65.7424 66.5474 65.7424 67.0403C65.7424 67.5332 66.0408 67.7386 66.6803 67.7386C66.8508 67.7386 67.1492 67.7386 67.4903 67.7386C68.8971 67.7386 68.9397 68.1904 68.9397 69.7924V81.4583C68.9397 81.9512 68.8971 82.1976 68.8971 82.4441C68.8971 83.0602 69.1529 83.3067 69.835 83.3067C70.7728 83.3067 70.9434 82.9781 70.9434 82.3209V82.0744L70.986 81.9922ZM70.986 76.2415C70.986 73.5304 72.7339 71.9284 74.9506 71.9284C77.338 71.9284 78.7021 73.9001 78.7021 76.9809C78.7021 80.0616 77.338 81.869 74.6522 81.869C72.3076 81.869 70.986 80.5956 70.986 77.3916V76.2415Z" fill="#8D7D77" stroke="white" stroke-width="0.25" stroke-miterlimit="10"/>
<path d="M85.3965 79.8545C85.3965 81.2922 85.2686 81.6208 84.1602 81.6208C83.9044 81.6208 83.6912 81.6208 83.3928 81.6208C82.6681 81.6208 82.2844 81.8673 82.2844 82.4013C82.2844 82.9353 82.6255 83.1817 83.3502 83.1817C83.606 83.1817 84.7144 82.9763 86.6754 82.9763C87.9969 82.9763 88.9348 83.1817 89.4464 83.1817C90.1285 83.1817 90.4695 82.9763 90.4695 82.4013C90.4695 81.8262 90.0858 81.6208 89.3611 81.6208C89.148 81.6208 88.9774 81.6208 88.679 81.6208C87.5706 81.6208 87.4427 81.2922 87.4427 79.8545V67.1207C87.4427 66.3813 87.3575 66.0938 86.5475 66.0938C86.377 66.0938 85.7375 66.1759 84.5012 66.1759C83.8618 66.1759 83.4354 66.1348 83.3076 66.1348C82.6681 66.1348 82.2844 66.4224 82.2844 66.9153C82.2844 67.4904 82.5402 67.6547 83.1797 67.6547C83.3502 67.6547 83.6912 67.6136 84.1175 67.6136C85.3965 67.6136 85.4391 68.2709 85.4391 70.0372V79.8956L85.3965 79.8545Z" fill="#8D7D77" stroke="white" stroke-width="0.25" stroke-miterlimit="10"/>
<path d="M93.3674 68.3555C93.3674 69.0949 94.0068 69.67 94.7742 69.67C95.5415 69.67 96.181 69.0539 96.181 68.3555C96.181 67.5751 95.5842 67 94.7742 67C93.9642 67 93.3674 67.6162 93.3674 68.3555ZM94.1347 79.9803C94.1347 81.3769 94.0068 81.7466 92.8984 81.7466C92.6427 81.7466 92.5148 81.7055 92.1311 81.7055C91.4064 81.7055 91.0227 81.952 91.0227 82.527C91.0227 83.1021 91.3637 83.2664 92.0885 83.2664C92.3443 83.2664 93.4526 83.1022 95.1579 83.1022C96.4794 83.1022 97.6731 83.2664 98.1846 83.2664C98.8667 83.2664 99.2078 83.061 99.2078 82.527C99.2078 81.993 98.8241 81.7055 98.0994 81.7055C97.8862 81.7055 97.7157 81.7466 97.4173 81.7466C96.3515 81.7466 96.181 81.418 96.181 79.9803V71.8471C96.181 71.0666 96.0957 70.7791 95.2858 70.7791C95.1152 70.7791 94.561 70.8612 93.5379 70.8612C92.7706 70.8612 92.3016 70.8612 92.0032 70.8612C91.449 70.8612 91.0653 71.1899 91.0653 71.6006C91.0653 72.1757 91.3211 72.34 91.9606 72.34C92.1311 72.34 92.4721 72.2989 92.8984 72.2989C94.1347 72.2989 94.22 72.9561 94.22 74.9278V79.9803H94.1347Z" fill="#8D7D77" stroke="white" stroke-width="0.25" stroke-miterlimit="10"/>
<path d="M100.316 76.8944C100.316 80.961 102.575 83.4667 106.241 83.4667C108.288 83.4667 109.78 82.8094 110.803 81.5771C111.528 80.6734 111.911 79.5233 111.911 78.8661C111.911 78.3731 111.528 77.9624 110.973 77.9624C110.078 77.9624 110.035 78.9071 109.609 79.893C108.97 81.2485 107.819 81.8647 106.241 81.8647C103.982 81.8647 102.405 80.0573 102.405 77.0997C102.405 73.7725 104.025 71.9651 106.668 71.9651C108.245 71.9651 109.311 72.8278 109.311 73.5261C109.311 73.9368 108.117 74.1422 108.117 75.087C108.117 75.8264 108.629 76.2371 109.481 76.2371C110.803 76.2371 111.613 75.4156 111.613 74.1012C111.613 71.9652 109.652 70.4453 106.497 70.4453C102.66 70.4453 100.316 72.9099 100.316 76.9765V76.8944Z" fill="#8D7D77" stroke="white" stroke-width="0.25" stroke-miterlimit="10"/>
<path d="M57.3878 34.4242C56.8762 35.4511 56.2367 36.3548 55.4268 37.1353C54.2757 38.2854 52.9115 39.148 51.3342 39.682C49.9274 40.1749 48.478 40.4214 46.9859 40.3393C44.5559 40.1749 42.3818 39.3534 40.506 37.8336C40.0371 37.4639 39.9945 37.1763 40.165 36.6423C40.6766 35.2457 41.4865 33.9723 42.5523 32.9043C42.8081 32.6579 42.7655 32.5346 42.5097 32.3293C40.4634 30.7683 38.9713 28.7966 38.0335 26.4553C37.5645 25.264 37.2661 24.0728 37.1382 22.7994C37.053 22.1422 37.3087 21.7725 37.9482 21.526C39.9518 20.7456 42.0407 20.2116 44.2575 20.3348C44.3854 20.3348 44.5559 20.3348 44.7691 20.3348C44.7691 20.1294 44.6838 19.9241 44.6838 19.7597C44.3854 17.7881 44.3854 15.8164 44.7691 13.8447C45.3659 10.6818 46.7727 7.88852 48.9469 5.46499C49.2879 5.05422 49.629 5.01314 50.2258 5.17745C52.2295 5.83468 54.0626 6.82053 55.6825 8.13499C56.3646 8.66899 57.0041 9.32621 57.6435 9.94237C57.7288 10.0245 57.8141 10.1478 57.8993 10.271C58.5388 9.53161 59.0504 8.83329 59.6046 8.17606C61.5229 5.95791 63.8676 4.19162 66.4681 2.795C68.0028 1.97346 69.6227 1.35732 71.2853 0.90547C72.8627 0.494702 74.4826 0.166077 76.1452 0.125C76.6568 0.125 76.9552 0.330391 77.1684 0.741159C77.9357 2.261 78.5325 3.82191 78.9162 5.46499C79.4704 7.80637 79.7688 10.1478 79.4704 12.5302C79.4704 12.6534 79.4704 12.7356 79.4704 12.8588C79.4704 12.8999 79.4704 12.941 79.4704 13.0231C79.8967 12.941 80.323 12.8588 80.792 12.8178C81.9856 12.6945 83.1793 12.4891 84.4156 12.407C86.4618 12.3248 88.5507 12.407 90.597 12.6945C92.3022 12.9821 94.0075 13.3518 95.67 13.8858C97.6737 14.5019 99.5921 15.3234 101.383 16.3504C103.13 17.3362 104.793 18.4453 106.328 19.7187C106.711 20.0473 106.797 20.3759 106.626 20.8277C105.432 24.196 103.642 27.2768 101.297 30.029C99.0805 32.6579 96.48 34.835 93.4533 36.6013C91.748 37.5871 89.9575 38.4908 88.0818 39.1069C86.5045 39.6409 84.8419 40.0928 83.2219 40.4625C81.0478 40.9143 78.831 41.1197 76.6142 41.0786C75.2926 41.0786 74.0137 40.8732 72.6921 40.75C70.6032 40.5446 68.6422 40.0106 66.6812 39.3534C64.0808 38.4908 61.6935 37.2996 59.434 35.7797C58.7519 35.3279 58.1125 34.876 57.4304 34.3831L57.3878 34.4242ZM59.6898 33.767C59.6898 33.767 59.903 33.9313 59.9882 34.0134C62.7592 35.9029 65.7434 37.3406 69.0259 38.2443C70.9869 38.7783 72.9479 39.107 74.9942 39.2713C77.8931 39.4766 80.792 39.2713 83.6056 38.614C85.4813 38.2033 87.3144 37.5871 89.1049 36.8477C91.9612 35.6154 94.5617 34.0134 96.8637 32.0007C100.274 29.002 102.789 25.4284 104.452 21.2796C104.537 21.0331 104.537 20.8277 104.281 20.6634C103.514 20.1294 102.789 19.5544 101.979 19.0614C100.061 17.7881 97.9721 16.7611 95.7553 16.0628C94.5617 15.6931 93.368 15.3234 92.1743 15.0359C91.1938 14.7894 90.1707 14.6251 89.1902 14.543C87.485 14.4608 85.8224 14.4198 84.1172 14.4608C82.5398 14.4608 80.9625 14.7484 79.3852 15.1181C79.2573 15.1181 79.0867 15.2824 79.0867 15.4056C78.9162 15.9807 78.7883 16.5968 78.6178 17.1719C78.1489 18.7739 77.5094 20.3348 76.6994 21.8136C75.6763 23.6621 74.44 25.3462 72.9479 26.866C70.9869 28.9199 68.6849 30.563 66.0844 31.7542C64.8481 32.3293 63.5266 32.74 62.2476 33.1919C61.4377 33.4383 60.6277 33.6026 59.7324 33.8491L59.6898 33.767ZM62.5461 22.3476C62.5461 22.3476 62.674 22.2654 62.7166 22.1833C64.7629 20.2116 66.8944 18.3631 69.4096 16.9665C70.7738 16.2271 72.138 15.5288 73.5874 14.9127C74.7384 14.4198 75.9321 14.0911 77.0831 13.6804C77.211 13.6393 77.3815 13.5161 77.3815 13.4339C77.4668 13.1053 77.5094 12.7767 77.5094 12.407C77.552 10.5585 77.5094 8.75115 77.1684 6.90269C76.8273 5.34177 76.3584 3.82191 75.7189 2.38422C75.6337 2.17884 75.5058 2.09669 75.25 2.09669C74.5253 2.21992 73.8005 2.261 73.1185 2.42531C71.2001 2.83608 69.367 3.45223 67.6191 4.31484C64.2513 5.99899 61.5229 8.38145 59.3488 11.4211C59.1356 11.7087 59.1782 11.9141 59.3488 12.2016C60.8408 14.3376 61.7787 16.7201 62.1624 19.2668C62.3329 20.2937 62.3755 21.2796 62.5034 22.3476H62.5461ZM53.6363 24.1139C53.7215 23.0048 53.8068 21.8957 53.8921 20.7867C54.0199 19.1847 54.361 17.6648 54.9152 16.1861C55.4268 14.7894 56.1088 13.475 56.7057 12.1195C56.7483 12.0373 56.7057 11.8319 56.7057 11.7498C55.0004 9.73699 52.8689 8.25822 50.3537 7.23129C50.1406 7.14914 49.9274 7.14915 49.7569 7.39561C49.629 7.60099 49.4585 7.7653 49.3306 7.97068C48.4353 9.20299 47.7106 10.5175 47.2417 11.9141C47.1138 12.3248 46.9433 12.7356 46.858 13.1464C46.7301 13.5571 46.6448 13.9679 46.6022 14.3787C46.6022 14.7484 46.3891 15.1181 46.3891 15.5288C46.3891 17.0076 46.3891 18.4864 46.6022 19.924C46.6875 20.3348 46.7727 20.6634 47.2843 20.7456C49.1174 21.1153 50.7374 21.9368 52.2295 22.9637C52.6984 23.2924 53.1673 23.7031 53.6363 24.0317V24.1139ZM59.434 31.8774C63.825 31.0559 67.5765 29.2485 70.7738 26.291C73.9284 23.3745 76.0173 19.8419 77.0405 15.6521C76.7421 15.7342 76.5715 15.7753 76.401 15.8164C74.6958 16.3914 72.9906 17.0897 71.4132 17.9524C69.5375 18.9793 67.747 20.1705 66.127 21.6082C65.2744 22.3887 64.5071 23.2102 63.7397 24.0317C63.356 24.4014 62.9724 24.7711 62.674 25.223C62.3755 25.5927 62.0345 25.9623 61.9066 26.3731C61.5656 27.5643 61.1393 28.7145 60.5851 29.8236C60.244 30.4808 59.8603 31.138 59.434 31.8774ZM49.7995 29.6593C49.7995 29.6593 49.629 29.4539 49.5864 29.3717C48.6059 28.3859 47.7959 27.3179 47.0712 26.1267C46.3891 24.9765 45.8349 23.7853 45.3659 22.553C45.3233 22.4297 45.1954 22.2654 45.0675 22.2654C43.8739 22.1011 42.7228 22.1833 41.5718 22.4297C40.8471 22.553 40.1224 22.8405 39.3976 23.0459C39.3124 23.0459 39.1845 23.2923 39.1845 23.3745C39.1845 23.5799 39.2698 23.7442 39.355 23.9496C39.5255 24.5657 39.6108 25.223 39.8666 25.798C40.7192 27.9751 42.1686 29.7825 44.1296 31.1791C44.3854 31.3434 44.5559 31.3434 44.8117 31.1791C46.1333 30.4397 47.5401 29.9057 49.1174 29.7414C49.3306 29.7414 49.5437 29.6593 49.7995 29.6182V29.6593ZM57.4304 29.9468C57.4304 29.9468 57.5157 29.8236 57.5583 29.7414C58.1977 28.5913 58.8372 27.4411 59.5193 26.332C59.8603 25.757 60.2866 25.264 60.3719 24.5247C60.6277 22.5941 60.6277 20.7045 60.244 18.815C59.9882 17.5005 59.5193 16.2271 58.9225 14.9948C58.7093 14.543 58.4109 14.0911 58.1125 13.5982C58.0272 13.7215 57.9846 13.8036 57.942 13.8447C56.9615 15.7753 56.2794 17.788 55.8957 19.924C55.5973 21.7314 55.512 23.5799 55.7252 25.4283C55.7678 26.0445 55.8531 26.7017 56.1941 27.2768C56.4499 27.7287 56.7057 28.2216 56.9188 28.7145C57.0893 29.0842 57.2599 29.495 57.4304 29.9468ZM54.8299 34.9993C54.8299 34.9993 54.7873 34.9171 54.7447 34.876C54.2757 34.9582 53.7642 34.9993 53.2952 35.0814C51.7179 35.41 50.1832 35.2868 48.6059 34.9993C47.3269 34.7528 46.048 34.3831 44.897 33.767C44.6412 33.6437 44.4707 33.6437 44.2149 33.8491C43.4476 34.5885 42.8081 35.41 42.2965 36.3548C42.126 36.6423 42.2113 36.8066 42.467 36.9709C43.6181 37.6693 44.8117 38.1622 46.1759 38.3265C48.9469 38.6551 51.3768 37.9568 53.5084 36.2316C53.9773 35.8619 54.361 35.3689 54.7873 34.9582L54.8299 34.9993ZM54.7873 30.563L54.8726 30.4397C54.6594 29.7003 54.4889 29.002 54.2757 28.2627C54.1905 27.934 54.1052 27.5644 53.9347 27.3179C52.5279 25.3462 50.6521 23.9496 48.3927 23.0459C48.1369 22.9637 47.8811 22.8816 47.5401 22.7994C47.5401 22.9637 47.5401 23.0048 47.5401 23.087C48.6911 25.798 50.439 28.0983 52.9115 29.8236C53.4231 30.1933 54.1478 30.3576 54.7447 30.604L54.7873 30.563ZM46.517 32.4114C48.009 33.4383 53.3805 33.7669 54.4462 32.9043C53.2526 32.2882 52.1868 31.4256 50.6095 31.5077C49.2027 31.5899 47.8385 31.7953 46.517 32.4114Z" fill="#8D7D77" stroke="white" stroke-width="0.25" stroke-miterlimit="10"/>
<path d="M104.963 34.7969V36.3578H116.431V89.922H2.13809V36.3578H33.77V34.7969H0.432861V91.4829H118.136V34.7969H104.963Z" fill="#8D7D77" stroke="white" stroke-width="0.25" stroke-miterlimit="10"/>
</g>
</svg>
