<svg width="209" height="45" viewBox="0 0 209 45" fill="none" xmlns="http://www.w3.org/2000/svg">
<path d="M116.528 23.9339C116.528 26.6012 115.37 28.8653 112.569 28.8653C109.769 28.8653 107.998 26.5082 107.998 23.8409V12.9855H102.687V23.8409C102.687 26.5082 100.949 28.8653 98.1165 28.8653C95.2839 28.8653 94.1573 26.6012 94.1573 23.9339V13.0165H88.9427V23.9339C88.9427 30.0129 91.8719 33.5487 97.859 33.5487C100.595 33.5487 103.009 32.7423 104.908 29.8578L105.327 28.9894L105.745 29.8578C107.612 32.7423 110.058 33.5487 112.794 33.5487C118.749 33.5487 121.711 30.0129 121.711 23.9339V13.0165H116.496V23.9339H116.528ZM74.3936 13.0165C67.5696 13.0165 63.4495 17.7308 63.4495 23.5617C63.4495 29.3926 67.7627 34.1069 74.4579 34.1069C76.6467 34.1069 78.5459 33.6107 80.1231 32.7112V42.2019H85.3376V23.2516C85.2089 17.5448 81.1531 12.9855 74.4258 12.9855L74.3936 13.0165ZM74.3936 29.5787C70.885 29.5787 68.664 26.6322 68.664 23.5927C68.664 20.5532 70.5953 17.6378 74.3936 17.6378C78.1918 17.6378 80.1231 20.5222 80.1231 23.5927C80.1231 26.6633 78.1596 29.5787 74.3936 29.5787ZM208.813 24.6473V13.0165H208.748H203.437V13.8849V24.3991C203.212 26.8493 201.538 28.8653 198.899 28.8653C196.098 28.8653 194.939 26.6012 194.939 23.9339V13.0165H189.725V23.9339C189.725 30.0129 192.654 33.5487 198.641 33.5487C200.379 33.5487 201.989 33.2075 203.437 32.215V31.9359V32.5252C203.437 35.1925 201.699 37.5496 198.866 37.5496C197.901 37.5496 197.128 37.2705 196.549 36.8363C195.422 38.232 193.942 39.2865 192.332 40.1239C193.813 41.5196 195.905 42.264 198.609 42.264C205.916 42.264 208.716 37.9838 208.716 32.5562V31.9669H208.78V25.3606C208.78 25.3606 208.781 25.0815 208.813 24.9574C208.813 24.8644 208.813 24.7713 208.78 24.6783L208.813 24.6473ZM182.804 28.8653C180.004 28.8653 178.845 26.6012 178.845 23.9339V19.6848H185.573V15.3737H178.845V8.48828H173.631V15.3737H171.828L169.575 19.6848H173.631V23.9339C173.631 30.0129 176.56 33.5487 182.547 33.5487C184.51 33.5487 186.345 33.0834 187.89 31.7498C186.989 30.5402 186.313 28.5862 186.023 27.4386C185.251 28.3071 184.124 28.8653 182.772 28.8653H182.804ZM137.065 12.5203C130.241 12.5203 125.895 16.9555 125.895 23.1275C125.895 29.6097 130.208 33.9208 137.451 33.9208C140.637 33.9208 144.275 32.8663 146.496 30.6332L143.18 27.4697C141.989 28.6482 139.479 29.3616 137.547 29.3616C133.878 29.3616 131.625 27.5627 131.271 25.0505H147.687C148.491 16.7073 144.114 12.5203 137.065 12.5203ZM131.367 20.8944C132.14 18.2581 134.425 16.9555 137.258 16.9555C140.251 16.9555 142.376 18.2581 142.73 20.8944H131.399H131.367ZM156.828 15.4667L156.442 13.1096H151.614V33.3626H156.828V22.6933C156.828 18.9404 159.339 17.5447 162.075 17.5447C163.781 17.5447 164.747 18.01 165.841 18.8474L168.191 14.5052C167.032 13.3887 164.94 12.5823 162.783 12.5823C160.627 12.5823 158.47 12.9545 156.86 15.4667H156.828Z" fill="#231F20"/>
<path d="M18.5636 14.2835C20.2374 14.0043 21.6859 13.229 23.0378 12.2985C24.261 11.4611 25.5807 10.9648 27.0936 10.8718C28.7352 10.7787 30.1837 11.337 31.5356 12.2365C32.6944 13.0118 33.8532 13.7252 35.2694 14.0664C37.3295 14.5626 39.2286 14.2214 40.9668 13.1669C44.2822 11.1509 45.2157 7.21198 43.5741 4.0174C41.8359 0.667745 37.748 -0.696928 34.3038 0.698762C33.1128 1.16399 32.0506 1.90835 30.924 2.55968C29.733 3.27303 28.4455 3.64521 27.0936 3.6142C25.6129 3.6142 24.261 3.02491 23.0378 2.1875C21.3962 1.07094 19.6902 0.0784551 17.7267 0.171501C15.1517 0.0784551 13.2203 1.31906 12.1903 2.34257C9.87273 4.69973 9.58304 8.35954 11.3856 11.0579C12.8663 13.291 15.892 14.6557 18.5958 14.2214L18.5636 14.2835ZM40.2265 31.3419C38.2952 30.4424 36.2995 30.2564 34.336 31.1248C33.1772 31.621 32.0506 32.3034 30.9562 32.9547C28.6064 34.3194 26.2567 34.4744 23.8425 33.1408C22.6194 32.4584 21.4606 31.652 20.2052 31.1248C17.952 30.1633 15.6667 30.4114 13.6066 31.6831C9.38991 34.3194 8.97147 39.7781 12.7053 43.0037C14.862 44.8646 18.1452 45.2057 20.6559 44.0272C21.6859 43.5309 22.6516 42.8796 23.6494 42.2903C24.9691 41.5459 26.3854 41.1738 27.9305 41.2978C29.4433 41.4219 30.6987 42.0732 31.9218 42.9106C33.4347 43.9341 35.0119 44.7405 36.9754 44.7715C37.7158 44.6475 38.4561 44.5854 39.1964 44.3683C41.8681 43.5929 43.5419 41.8251 44.1535 39.2508C44.926 35.8701 43.381 32.7996 40.2587 31.3419H40.2265ZM52.2006 17.8192C50.1405 15.5861 46.6964 14.8728 43.9604 16.1134C42.8016 16.6406 41.7072 17.323 40.5806 17.9433C38.6492 19.0598 36.6214 19.2769 34.5935 18.4705C33.4669 18.0363 32.4691 17.292 31.439 16.7027C28.6708 15.0899 25.9026 15.1209 23.1022 16.6406C22.3619 17.0438 21.6537 17.5401 20.8812 17.9433C18.9177 19.0288 16.8576 19.2769 14.7654 18.3775C13.8963 18.0053 13.0916 17.4781 12.3191 16.9508C10.3556 15.6792 8.23113 15.1519 5.91356 15.6481C2.63033 16.3925 0.312744 19.2769 0.312744 22.5335C0.312744 25.3249 1.88999 27.7441 4.49726 28.9537C6.42857 29.8532 8.42426 29.9462 10.3878 29.0778C11.4822 28.5815 12.5444 27.9612 13.5744 27.3409C15.731 26.0693 17.9521 25.7902 20.2696 26.8137C21.1387 27.1858 21.9112 27.7751 22.7159 28.2404C24.6472 29.4189 26.6751 29.9772 28.9927 29.4189C30.409 29.0778 31.6322 28.3954 32.7909 27.589C34.7866 26.2554 36.9111 25.7591 39.2286 26.5345C40.1621 26.8447 41.0634 27.434 41.9003 27.9612C43.9925 29.2949 46.1813 30.0703 48.7242 29.3259C51.3315 28.5815 53.0697 26.9687 53.81 24.4565C54.5182 22.0063 53.971 19.7112 52.1684 17.7572L52.2006 17.8192Z" fill="#EC2227"/>
</svg>
