<svg width="192" height="75" viewBox="0 0 192 75" fill="none" xmlns="http://www.w3.org/2000/svg">
<g opacity="0.4">
<path d="M86.3946 42.2831C88.195 41.3026 89.0952 39.8695 89.0952 37.9838C89.0952 36.249 88.4299 34.8914 87.06 33.9108C85.6901 32.9303 83.694 32.4023 81.0325 32.4023H68.0774V52.3901H82.5589C84.7899 52.3901 86.5512 51.8999 87.8036 50.8816C89.0561 49.8634 89.6823 48.5434 89.6823 46.8464C89.6823 45.7904 89.4083 44.8853 88.8604 44.1687C88.3124 43.4522 87.4905 42.8111 86.4338 42.2831H86.3946ZM77.2751 36.4376H77.8231C79.4278 36.4376 80.2497 37.0787 80.2497 38.361C80.2497 39.0775 80.054 39.5678 79.6235 39.8695C79.193 40.1712 78.4885 40.322 77.51 40.322H77.2751V36.4376ZM79.8192 47.5252C79.3887 47.8269 78.6059 47.9777 77.5883 47.9777H77.3143V43.6408H77.9405C79.6626 43.6408 80.5237 44.395 80.5237 45.9035C80.5237 46.6578 80.2889 47.1858 79.8584 47.5252H79.8192ZM90.6608 52.3901H99.0758V32.4023H90.6608V52.3901ZM111.483 46.4315C111.131 46.9972 110.622 47.2612 109.957 47.2612C108.939 47.2612 108.43 46.5447 108.43 45.1116V36.6262H100.485V46.9218C100.485 48.6943 100.994 50.0519 102.05 51.0325C103.107 52.013 104.477 52.5033 106.199 52.5033C107.373 52.5033 108.391 52.277 109.252 51.8244C110.113 51.3719 110.935 50.6177 111.796 49.6371H111.835V52.3901H119.859V36.6262H111.444V46.4315H111.483ZM146.395 36.513C145.221 36.513 144.164 36.7393 143.225 37.1541C142.286 37.6067 141.346 38.2855 140.407 39.2284C139.272 37.4181 137.511 36.513 135.123 36.513C133.127 36.513 131.444 37.2296 130.074 38.6249V36.6639H121.659V52.4279H130.074V41.7928C130.583 41.4534 131.092 41.2649 131.601 41.2649C132.109 41.2649 132.462 41.4157 132.736 41.7551C133.01 42.0568 133.166 42.5094 133.166 43.0374V52.4279H141.111V41.7551C141.62 41.4157 142.129 41.2271 142.638 41.2271C143.108 41.2271 143.46 41.378 143.773 41.6797C144.047 41.9814 144.203 42.434 144.203 42.9997V52.3901H152.149V42.5094C152.149 40.6237 151.64 39.1152 150.622 38.097C149.605 37.041 148.196 36.513 146.434 36.513H146.395ZM169.957 41.6043C169.566 40.5483 168.979 39.6055 168.196 38.7758C167.374 37.9461 166.435 37.3427 165.339 36.9279C164.243 36.513 163.029 36.2868 161.738 36.2868C159.194 36.2868 157.159 37.041 155.554 38.5118C153.949 40.0203 153.166 41.9437 153.166 44.2819C153.166 46.7709 154.027 48.7697 155.75 50.2782C157.472 51.7867 159.781 52.5787 162.599 52.5787C166.043 52.5787 168.705 51.4096 170.544 49.1091V46.3561C169.409 47.4875 167.883 48.0532 166.004 48.0532C165.065 48.0532 164.243 47.8269 163.499 47.3743C162.756 46.9218 162.247 46.2807 161.934 45.4887H170.505C170.505 43.9425 170.309 42.6225 169.918 41.5666L169.957 41.6043ZM161.464 42.7734C161.464 41.9437 161.66 41.3403 162.051 40.9254C162.442 40.5106 162.873 40.2843 163.382 40.2843C163.969 40.2843 164.439 40.5106 164.83 40.9632C165.182 41.4157 165.417 42.0191 165.417 42.8111H161.464V42.7734ZM189.566 38.0593C188.548 37.041 187.1 36.513 185.182 36.513C183.265 36.513 181.542 37.2296 180.133 38.6249V36.6639H171.718V52.4279H180.133V41.7928C180.642 41.4534 181.151 41.2649 181.66 41.2649C182.678 41.2649 183.225 41.906 183.225 43.2259V52.4279H191.171V42.6225C191.171 40.6237 190.662 39.0775 189.644 38.0593H189.566Z" fill="#74C044"/>
<path d="M77.2371 74.2613H68.0393V54.2734H77.2371V61.5897H81.8946V54.2734H91.0924V74.2613H81.8946V66.8318H77.2371V74.2613Z" fill="#231F20"/>
<path d="M93.4015 64.9812V60.2294C95.789 58.9849 98.4505 58.3438 101.464 58.3438C104.478 58.3438 106.435 58.9472 107.805 60.1163C109.175 61.2854 109.84 63.0955 109.84 65.5092V74.2209H101.425V73.0517C100.173 73.9191 98.8027 74.3717 97.3545 74.3717C96.1021 74.3717 95.0453 73.9946 94.2234 73.2026C93.4015 72.4107 92.9709 71.4301 92.9709 70.261C92.9709 68.9034 93.4798 67.8097 94.5365 66.9423C95.5542 66.0749 96.924 65.6601 98.5679 65.6601C99.5464 65.6601 100.486 65.7732 101.425 66.0372C101.425 65.3206 101.151 64.7172 100.564 64.3401C99.9769 63.9252 99.155 63.7367 98.1373 63.7367C96.6109 63.7367 95.0062 64.1515 93.4015 64.9812ZM101.425 70.789V68.6017C100.916 68.4508 100.447 68.3376 100.055 68.3376C99.5464 68.3376 99.155 68.4508 98.8419 68.7148C98.5287 68.9788 98.3722 69.3182 98.3722 69.6953C98.3722 70.0724 98.5287 70.4873 98.881 70.7513C99.1941 71.053 99.6246 71.1661 100.133 71.1661C100.642 71.1661 101.073 71.0152 101.425 70.7513V70.789Z" fill="#231F20"/>
<path d="M130.584 58.4961V74.2601H122.561V71.5071H122.522C121.7 72.5253 120.839 73.2418 119.978 73.6943C119.117 74.1469 118.099 74.3732 116.925 74.3732C115.203 74.3732 113.833 73.8829 112.776 72.9024C111.719 71.9219 111.21 70.5642 111.21 68.7917V58.4961H119.156V66.9815C119.156 68.4146 119.665 69.1311 120.682 69.1311C121.348 69.1311 121.856 68.8671 122.209 68.3014V58.4961H130.624H130.584Z" fill="#231F20"/>
<path d="M131.054 72.7552L132.933 68.3428C133.52 69.097 134.224 69.6627 135.007 70.1153C135.829 70.5301 136.612 70.7564 137.395 70.7564C137.903 70.7564 138.295 70.6433 138.569 70.4547C138.843 70.2285 138.999 69.9644 138.999 69.6627C138.999 69.361 138.882 69.0593 138.608 68.8331C138.373 68.6068 137.708 68.3428 136.612 68.0411C135.516 67.7394 134.655 67.4377 133.95 67.0605C133.246 66.7211 132.698 66.1931 132.228 65.5143C131.759 64.8355 131.563 64.0812 131.563 63.2516C131.563 61.6676 132.267 60.4608 133.676 59.5934C135.085 58.726 137.042 58.2734 139.547 58.2734C142.404 58.2734 144.831 58.726 146.827 59.6311L144.831 63.6664C143.5 62.535 142.248 61.9693 140.995 61.9693C140.604 61.9693 140.252 62.0447 140.017 62.2333C139.782 62.4219 139.626 62.6104 139.626 62.9121C139.626 63.2515 139.743 63.5155 140.017 63.7418C140.291 63.9681 140.956 64.2321 142.091 64.4961C143.226 64.7601 144.166 65.0618 144.909 65.4389C145.653 65.7783 146.24 66.3063 146.671 67.0229C147.101 67.7394 147.336 68.5314 147.336 69.4365C147.336 71.0581 146.671 72.3404 145.301 73.2832C143.931 74.226 142.17 74.6786 140.017 74.6786C137.081 74.6786 134.068 74.0751 131.015 72.906L131.054 72.7552Z" fill="#231F20"/>
<path d="M30.146 4.84145L57.7001 24.9424V25.0556L60.0485 22.7928L59.07 22.0762L47.0151 13.2892V5.03003H41.0659V8.95217L32.964 2.99353L30.146 0.957031L27.3279 2.99353L1.18283 22.0762L0.204346 22.7928L2.631 25.131V24.9424L30.146 4.84145Z" fill="#231F20"/>
<path d="M54.8825 26.3002L30.1464 8.27344L5.44946 26.3002V74.6104H54.8825V26.3002Z" fill="white"/>
<path d="M51.7504 69.5945C51.7504 68.6894 56.0557 64.805 52.8463 59.8646C53.6682 65.5593 51.9069 64.3901 50.3022 70.6128C48.5801 66.9546 50.6153 61.0714 52.768 57.4133C49.8717 59.1103 47.9539 64.6541 47.2885 68.1237C48.0713 61.5994 46.858 54.434 43.3354 47.4571C44.5487 46.024 45.175 44.1383 44.9401 42.1395C44.9401 42.0641 44.9401 41.9887 44.9401 41.951C45.0184 41.951 45.0967 41.951 45.1358 41.951C49.2455 41.5362 52.2592 38.1043 51.8287 34.2198C51.3981 30.3731 47.7582 27.5824 43.6485 27.9972C43.5703 27.9972 43.5311 27.9972 43.4528 27.9972C43.4528 27.9218 43.4528 27.8464 43.4528 27.8087C43.0223 23.8488 39.4606 20.9449 35.4684 21.3598C31.4762 21.7746 28.5799 25.2819 29.0104 29.2418C29.0104 29.3172 29.0104 29.3926 29.0104 29.4303C28.9321 29.4303 28.8539 29.4303 28.8147 29.4303C24.7051 29.8452 21.6914 33.277 22.1219 37.1238C22.5524 40.9705 26.1924 43.7612 30.302 43.3464C30.3803 43.3464 30.4194 43.3464 30.4586 43.3464C26.7795 46.7782 21.887 52.322 20.2823 61.4863C20.2823 61.4863 18.4036 69.5945 18.2471 68.3123C18.0514 66.8792 18.0514 65.4461 18.5993 62.2028C16.8381 64.541 17.66 70.1225 16.3292 70.6128C17.2686 67.4826 18.3645 60.5057 15.2333 52.4729C16.7206 56.3573 15.8596 68.1237 15.8596 68.1237C14.1766 66.5021 13.8243 61.3354 14.294 57.7904C12.0631 61.4108 15.8987 71.4047 12.8067 70.8768C14.294 68.2746 12.8067 61.2977 10.2627 50.9267C11.8282 59.4875 12.7284 65.3707 11.476 69.5945C8.38396 64.7673 6.2313 54.5471 7.99257 48.8525C4.90056 55.1505 6.42699 61.6371 8.81449 68.8025C9.83212 71.8573 8.10998 72.5738 5.56592 72.3098V74.9875H54.9989V62.316C53.5116 65.3707 53.9813 69.3305 51.907 69.5945H51.7504ZM33.0809 34.7101C33.5114 33.2393 34.803 32.0702 36.486 31.9194C36.9948 31.8816 37.4645 31.9194 37.8951 32.0325C39.4215 32.4096 40.6348 33.6919 40.7914 35.3135C40.8305 35.8038 40.7914 36.2563 40.6739 36.6712C40.2826 38.142 38.9518 39.3111 37.2688 39.4619C36.76 39.4996 36.2903 39.4619 35.8598 39.3488C34.3334 38.9717 33.12 37.6894 32.9635 36.0678C32.9243 35.5775 32.9635 35.125 33.0809 34.7101ZM43.1397 70.4996C41.6524 66.4644 41.4176 57.4133 43.0223 51.8318C39.6563 58.3184 41.3002 60.9206 40.0869 67.7843C38.0516 65.9741 38.169 61.4108 38.8735 57.979C35.5858 65.0313 39.9303 70.8768 38.169 68.9534C36.4078 66.9923 36.5643 63.2588 36.1338 60.6566C35.4684 65.069 36.9557 69.2174 35.1944 69.3305C35.5858 67.6334 35.8598 63.2211 34.0985 59.2235C34.7639 61.2977 34.6465 62.5799 33.4332 68.8025C32.3764 66.6152 32.6112 61.9388 33.7071 56.7344C32.2198 59.1858 31.5545 62.4291 31.9459 69.5568C30.8499 68.5009 31.2805 65.5215 30.1846 61.26C29.9106 64.7673 31.2805 70.7259 30.302 69.4437C30.1846 67.3695 29.2061 59.4498 25.0573 55.5653C28.8147 59.8269 27.4448 62.9571 28.8147 68.2369C29.0496 69.2174 27.8754 69.7831 27.2883 68.8025C26.7012 67.822 26.3881 66.8415 26.6229 63.7113C24.9008 66.9546 26.1924 69.406 24.979 68.8403C23.7657 68.2746 24.0788 62.5422 24.979 59.1481C23.0612 60.0532 21.6131 72.6116 21.4565 67.4072C21.6913 62.4291 23.1395 52.5483 30.6934 44.8172C31.6719 48.0605 34.8813 50.2855 38.4039 49.9461C40.3608 49.7575 42.0829 48.777 43.2571 47.3816C47.1319 55.1882 45.5272 67.7466 43.1006 70.4242L43.1397 70.4996Z" fill="#72BF44"/>
</g>
</svg>
