<svg width="197" height="42" viewBox="0 0 197 42" fill="none" xmlns="http://www.w3.org/2000/svg">
<path d="M32.9863 41.21H22.3299V25.6559H10.8842V41.21H0.227783V2.34375H10.8842V17.4796H22.3299V2.34375H32.9863V41.21Z" fill="#72B05E"/>
<path d="M63.6522 31.437C63.6522 34.1752 63.0602 36.4189 61.8762 38.1683C60.4948 40.1838 58.4424 41.2106 55.7586 41.2106H43.484C41.2738 41.2106 39.5372 40.0698 38.2743 37.75C37.2481 35.8865 36.6956 33.7568 36.6956 31.437V19.6859C36.6956 17.3281 37.1692 15.3125 38.1559 13.7152C39.3399 11.6997 41.0765 10.7109 43.3657 10.7109H56.2717C58.7977 10.7109 60.7316 11.6616 62.034 13.5251C63.0997 15.1223 63.6522 17.1759 63.6522 19.7239V31.475V31.437ZM54.2194 31.437V20.4845H46.2074V31.437H54.2194Z" fill="#72B05E"/>
<path d="M87.492 41.208H75.3358C74.1518 41.208 73.0862 41.0559 72.2179 40.7897C69.7314 39.9911 68.4684 36.8727 68.4684 31.4345V20.4819H65.5083V10.7084H68.4684V0.402344H78.217V10.7084H87.2947V20.4819H78.217V31.4345H87.5315V41.208H87.492Z" fill="#72B05E"/>
<path d="M143.301 17.4404C143.301 23.1449 140.656 25.9591 135.328 25.9591H121.712V41.1709H111.213V2.30469H134.144C137.736 2.30469 140.183 3.14131 141.525 4.77659C142.669 6.22171 143.261 8.73168 143.261 12.3445V17.4024L143.301 17.4404ZM132.802 17.7067V12.3445H121.712V17.7067H132.802Z" fill="#72B05E"/>
<path d="M173.058 31.437C173.058 34.1752 172.466 36.4189 171.281 38.1683C169.9 40.1838 167.848 41.2106 165.164 41.2106H152.889C150.679 41.2106 148.943 40.0698 147.68 37.75C146.614 35.8865 146.101 33.7568 146.101 31.437V19.6859C146.101 17.3281 146.574 15.3125 147.561 13.7152C148.745 11.6997 150.482 10.7109 152.771 10.7109H165.677C168.203 10.7109 170.137 11.6616 171.439 13.5251C172.505 15.1223 173.058 17.1759 173.058 19.7239V31.475V31.437ZM163.625 31.437V20.4845H155.613V31.437H163.625Z" fill="#72B05E"/>
<path d="M196.857 41.208H184.701C183.517 41.208 182.451 41.0559 181.583 40.7897C179.096 39.9911 177.833 36.8727 177.833 31.4345V20.4819H174.873V10.7084H177.833V0.402344H187.582V10.7084H196.66V20.4819H187.582V31.4345H196.896V41.208H196.857Z" fill="#72B05E"/>
</svg>
