<svg width="211" height="46" viewBox="0 0 211 46" fill="none" xmlns="http://www.w3.org/2000/svg">
<g opacity="0.4">
<path d="M210.114 34.4231L201.34 24.0291L209.503 13.5312H201.161L192.854 24.0638L197.169 29.1915L197.205 29.1568L201.556 34.4231H210.114Z" fill="#75262F"/>
<path d="M62.1501 12.5625L70.8157 34.5284H63.085L54.0957 12.5625H62.1501Z" fill="#75262F"/>
<path d="M102.674 15.9235C100.445 14.0526 97.2807 13.1172 93.1456 13.1172C89.0106 13.1172 85.9902 14.0526 83.7608 15.9582C81.5315 17.8638 80.3809 20.5315 80.3809 23.9269C80.3809 26.3868 80.9562 28.3963 82.0708 30.0247C83.2215 31.653 84.6957 32.831 86.5295 33.5932C88.3633 34.3555 90.6646 34.7366 93.4692 34.7366C96.2739 34.7366 98.5032 34.2862 100.337 33.42C102.171 32.5538 103.573 31.3412 104.544 29.7821C105.515 28.223 106.018 26.2136 106.018 23.7537C106.018 20.3929 104.904 17.7598 102.674 15.8889V15.9235ZM97.0289 28.5695C96.13 29.4703 94.8715 29.9207 93.2175 29.9207C91.5635 29.9207 90.3409 29.4703 89.442 28.5349C88.5071 27.5994 88.0397 26.1096 88.0397 23.9962C88.0397 21.8827 88.5071 20.3237 89.442 19.4228C90.3769 18.4874 91.5995 18.037 93.1456 18.037C94.6918 18.037 96.0222 18.4874 96.957 19.3882C97.8919 20.289 98.3594 21.7442 98.3594 23.719C98.3594 26.0403 97.8919 27.6687 96.993 28.6041L97.0289 28.5695Z" fill="#75262F"/>
<path d="M134.244 18.6579H142.047V34.422H149.67V18.6579H157.472V13.4609H134.244V18.6579Z" fill="#75262F"/>
<path d="M168.583 21.291V17.9303H181.383V13.4609H160.924V34.422H181.743V29.6755H168.583V25.5526V21.291Z" fill="#75262F"/>
<path d="M192.279 13.4609H183.937L192.854 24.0628L196.953 18.9004L192.279 13.4609Z" fill="#75262F"/>
<path d="M184.439 34.4911H192.997L197.168 29.1902L192.853 24.0625L184.439 34.4911Z" fill="#75262F"/>
<path d="M80.56 12.8047L70.7437 34.4241L66.8604 24.5152L72.2539 12.8047H80.56Z" fill="#75262F"/>
<path d="M169.23 23.9266L179.083 21.3281V26.2826L169.23 23.9266Z" fill="#75262F"/>
<path d="M133.848 34.3908C132.877 32.5892 131.475 29.9561 129.893 27.2536C129.209 26.1103 127.951 25.1748 125.866 25.1402C127.016 24.9323 127.879 24.6551 128.562 24.3087C129.569 23.789 130.396 23.0961 130.971 22.2646C131.547 21.433 131.834 20.4283 131.834 19.2503C131.834 17.9337 131.439 16.7904 130.684 15.8549C129.929 14.9195 128.922 14.2959 127.663 13.9494C126.405 13.6029 124.607 13.4297 122.27 13.4297H109.541V34.3562H117.236V17.6566H120.58C121.982 17.6566 122.917 17.8298 123.42 18.2109C123.924 18.5574 124.176 19.0771 124.176 19.77C124.176 20.2204 124.068 20.6015 123.78 20.9826C123.349 21.6409 122.378 21.8141 121.659 21.9181C120.184 21.9527 118.926 21.9181 118.926 21.9181L125.146 34.3562H133.812L133.848 34.3908Z" fill="#75262F"/>
<path d="M39.7679 2.91762H6.68744C5.4649 2.91762 4.35022 3.40268 3.55917 4.1649C2.76812 4.92712 2.26472 6.00117 2.26472 7.17915V39.0539C2.26472 40.2319 2.76812 41.3059 3.55917 42.0682C4.35022 42.8304 5.4649 43.3154 6.68744 43.3154H39.7679C40.9904 43.3154 42.1051 42.8304 42.8961 42.0682C43.6872 41.3059 44.1906 40.2319 44.1906 39.0539V7.17915C44.1906 6.00117 43.6872 4.92712 42.8961 4.1649C42.1051 3.40268 40.9904 2.91762 39.7679 2.91762ZM6.68744 0.769531H39.7679C41.6017 0.769531 43.2557 1.49711 44.4783 2.64044C45.6648 3.78378 46.4199 5.41218 46.4199 7.17915V39.0539C46.4199 40.8209 45.6648 42.4146 44.4783 43.5926C43.2917 44.7359 41.6017 45.4635 39.7679 45.4635H6.68744C4.85363 45.4635 3.19962 44.7359 1.97708 43.5926C0.790501 42.4493 0.0354004 40.8209 0.0354004 39.0539V7.17915C0.0354004 5.41218 0.790501 3.81843 1.97708 2.64044C3.16366 1.46246 4.85363 0.769531 6.68744 0.769531Z" fill="#75262F"/>
<path d="M40.2357 4.33594H5.93271C6.18441 4.61311 6.36418 4.99422 6.36418 5.44462C6.36418 6.34543 5.6091 7.10764 4.63826 7.10764C4.27869 7.10764 3.95507 7.00369 3.70337 6.83046V39.5714C3.70337 40.888 4.81804 41.9274 6.14845 41.9274H40.2357C41.6021 41.9274 42.7167 40.8533 42.7167 39.5368V6.72653C42.7167 5.40996 41.6021 4.33594 40.2357 4.33594ZM36.8557 22.4907H34.5185V32.5035C34.5185 33.7161 34.159 35.6563 31.9656 35.8296H15.749C13.9152 35.8296 13.0162 34.6169 12.8365 33.1964V22.4907H10.0678C9.16885 22.4907 8.09013 20.7237 9.63628 19.4418L19.92 10.9187C20.2796 10.7455 20.2795 10.5723 20.6391 10.3991C21.7178 9.53291 23.0123 8.97856 24.6303 9.87937L28.9092 13.2401V10.5377C28.9092 8.59746 32.3611 8.07776 32.6847 10.7802V15.9772L37.6468 19.7883C38.8693 20.9316 37.8985 22.5253 36.8198 22.5253L36.8557 22.4907Z" fill="#75262F"/>
<path fill-rule="evenodd" clip-rule="evenodd" d="M30.0961 15.3216C29.3051 14.8712 28.0106 13.9358 27.2195 13.3121L24.5228 11.164C23.0845 10.4018 21.9698 10.8522 20.999 11.6145C20.6754 11.753 20.6754 11.9263 20.3517 12.0649C17.655 14.3862 13.484 17.4351 10.931 19.895C9.67253 21.1076 10.4636 21.5926 11.2546 21.5926H14.1312V32.333C14.275 33.5457 15.102 34.6544 16.6841 34.6544H30.8871C32.7929 34.5158 33.1165 32.8181 33.1165 31.7441V21.5926H35.6694C36.6403 21.5926 36.9279 20.8304 36.3167 20.2068L31.6782 16.6728V11.1294C31.6782 9.29314 30.0961 9.29314 30.0961 10.9908C30.0961 12.3767 30.2399 13.9011 30.0961 15.287M20.172 22.0084H22.1856C22.5092 22.0084 22.7968 22.2856 22.7968 22.5974V24.6069C22.7968 24.9187 22.5092 25.1959 22.1856 25.1959H20.172C19.8484 25.1959 19.5607 24.9187 19.5607 24.6069V24.1911V24.0525V22.5627C19.5607 22.1816 19.8124 21.9737 20.172 21.9737V22.0084ZM24.5228 22.0084C24.5228 22.0084 24.6306 22.0084 24.7026 22.0084H26.7161C26.7161 22.0084 26.9319 22.0084 27.0038 22.0777C27.2555 22.1816 27.3634 22.3895 27.3634 22.8053V24.7455C27.2555 25.0573 26.86 25.1959 26.7161 25.1959H24.7026C24.3789 25.1959 24.0913 24.9187 24.0913 24.6069V22.5974C24.0913 22.3549 24.2711 22.147 24.4868 22.0431L24.5228 22.0084ZM22.8328 27.6904C22.8328 27.8983 22.8328 28.0715 22.8328 28.2794V28.9724C22.8328 29.2842 22.5451 29.5613 22.2215 29.5613H20.2079C20.2079 29.5613 19.8843 29.492 19.7764 29.3881H19.7045V29.3188C19.6326 29.2149 19.5966 29.1109 19.5966 28.9724V26.9629C19.5966 26.651 19.8843 26.3739 20.2079 26.3739H22.2215C22.5451 26.3739 22.8328 26.651 22.8328 26.9629V27.7251V27.6904ZM24.7026 26.3739H26.7161C27.0038 26.3739 27.1836 26.5124 27.2195 26.755V29.0763C27.2195 29.492 26.8959 29.5267 26.7161 29.5267H24.7026C24.3789 29.5267 24.0913 29.2495 24.0913 28.9377V26.9282C24.0913 26.5817 24.343 26.3392 24.7026 26.3392V26.3739Z" fill="#75262F"/>
</g>
</svg>
