<svg width="183" height="72" viewBox="0 0 183 72" fill="none" xmlns="http://www.w3.org/2000/svg">
<path d="M100.447 29.0647C100.447 26.8849 100.002 23.5615 96.2187 23.5615C93.8451 23.5615 91.9537 25.2768 91.9537 27.9212C91.9537 29.6365 92.9551 32.0664 96.5154 32.0664C98.0359 32.0664 98.7035 31.6734 99.1114 31.316V35.4613C98.3697 35.7471 97.2942 36.0688 95.9962 36.0688C91.9166 36.0688 87.6887 33.1742 87.6887 28.0998C87.6887 24.026 90.7298 19.5234 96.367 19.5234C99.4452 19.5234 104.786 20.9528 104.786 28.7431V35.6757H100.484V29.029L100.447 29.0647Z" fill="#00652E"/>
<path d="M107.827 19.9531H112.129V25.8137H117.73V19.9531H122.032V35.7123H117.73V29.3157H112.129V35.7123H107.827V19.9531Z" fill="#00652E"/>
<path d="M125.147 19.9531H129.449V25.8137H135.012V19.9531H139.351V35.7123H135.012V29.3157H129.449V35.7123H125.147V19.9531Z" fill="#00652E"/>
<path d="M146.731 29.137C146.731 30.8523 147.732 32.103 149.512 32.103C151.293 32.103 152.183 30.8881 152.183 29.8517C152.183 28.6367 151.218 27.386 149.55 27.386C148.845 27.386 148.252 27.6362 148.066 27.7076V23.9912C148.548 23.8482 149.253 23.7053 150.069 23.7053C153.258 23.7053 156.448 25.7065 156.448 29.5658C156.448 32.8892 154.111 36.1411 149.29 36.1411C147.807 36.1411 145.878 35.8552 144.32 34.2829C142.429 32.4247 142.392 30.3163 142.392 28.1007V19.9889H146.694V29.1728L146.731 29.137ZM162.419 35.7123H158.117V19.9531H162.419V35.7123Z" fill="#00652E"/>
<path d="M182.187 30.7079C180.592 34.1028 177.366 36.1039 173.657 36.1039C168.354 36.1039 164.793 32.316 164.793 27.6347C164.793 23.4537 168.094 19.5586 173.583 19.5586C177.514 19.5586 180.407 21.7027 181.779 24.7402L172.173 30.3863L170.727 28.0278L176.846 24.2756C175.808 23.2036 174.25 23.0249 173.583 23.0249C171.432 23.0249 170.134 24.2399 169.615 25.2762C169.244 25.9909 169.095 26.7771 169.095 27.599C169.095 28.3494 169.318 29.0999 169.652 29.7431C170.43 31.244 171.988 32.3875 174.176 32.3875C176.587 32.3875 178.59 30.7794 179.48 28.4566L182.261 30.6722L182.187 30.7079Z" fill="#00652E"/>
<path d="M87.578 2.5123C87.4668 3.227 86.5025 5.72845 79.1593 5.47831C73.448 5.2639 70.481 9.73077 69.1459 12.7325C71.0373 10.1596 73.7076 6.9077 77.5646 6.8005C83.9435 7.33653 85.872 5.9786 85.872 5.9786C85.872 5.9786 83.6468 10.0166 76.0441 11.3746C74.1155 11.7319 70.6665 13.1256 68.8492 15.4484H68.9234C68.2188 16.449 67.8108 17.6997 67.8108 19.2006V27.0265C67.8108 30.5286 68.5154 33.4231 72.7433 35.1027C73.9672 35.603 75.3023 35.8174 76.6375 35.8174C79.0481 35.8174 81.4216 35.0669 83.0905 33.6733C84.4998 32.494 85.872 30.4214 85.872 27.4196C85.872 26.2761 85.6495 25.1683 85.2045 24.1677C84.2031 21.9879 81.7554 19.951 77.75 19.951C76.6745 19.951 75.599 20.1297 74.4864 20.5228V25.0254C75.3023 24.6323 76.2666 24.4179 77.0454 24.4179C77.8984 24.4179 79.011 24.7752 79.7527 25.4185C80.1978 25.8473 80.717 26.562 80.717 27.7055C80.717 28.849 80.1607 29.6709 79.6415 30.0998C78.9368 30.6715 77.8984 30.9931 76.9342 30.9931C76.2666 30.9931 75.6361 30.8859 75.0427 30.5643C73.1884 29.5995 73.1513 27.9914 73.1513 26.5977V16.1988C85.6124 17.9856 87.5409 4.26331 87.7264 2.47656" fill="#00652E"/>
<path d="M72.7435 49.9346C72.7435 50.8995 72.6322 52.1502 73.9303 52.8649C74.4495 53.1508 75.2654 53.2937 76.9714 53.2937H87.1332V41.4297H91.6577V57.3675H75.5621C74.0786 57.3675 71.9647 57.2246 70.5183 56.2955C68.256 54.8661 68.1819 52.6862 68.1819 50.3992V41.4654H72.7435V49.9704V49.9346ZM77.6761 41.4297H82.2007V54.33H77.6761V41.4297Z" fill="#00652E"/>
<path d="M108.42 41.4297V45.5035H103.376V57.3675H98.7775V45.5035H93.7708V41.4297H108.42Z" fill="#00652E"/>
<path d="M132.676 41.4297V45.2176C132.676 46.4683 132.565 47.5404 133.826 48.1836C134.345 48.4338 135.013 48.5052 136.496 48.5052H138.017V41.4297H142.615V57.3675H138.017V52.579H136.199C134.419 52.579 132.528 52.579 130.97 51.7928C128.189 50.4349 128.115 48.4338 128.115 45.8966V41.4297H132.713H132.676Z" fill="#00652E"/>
<path d="M150.552 41.4297V47.3617H151.628C153.222 47.3617 153.741 47.0401 154.78 44.7173L156.226 41.4297H161.381L159.156 45.6464C158.6 46.6827 158.229 47.7548 156.783 48.5767C160.677 48.934 160.973 52.722 160.973 53.8655V57.3675H156.152V53.9727C156.152 51.0781 154.446 50.8637 152.814 50.8637H150.515V57.3675H145.694V41.4297H150.515H150.552Z" fill="#00652E"/>
<path d="M168.798 51.362V51.7908V51.8623C168.835 51.8623 168.835 51.7908 168.872 51.7551C168.946 51.6479 168.983 51.5407 169.058 51.505C169.169 51.362 169.317 51.1119 169.465 50.9332L174.472 43.3931C175.214 42.2496 175.733 41.0703 177.736 41.0703C180.554 41.0703 180.554 43.3216 180.554 44.3579V57.4012H175.511V47.6098C175.511 47.6098 175.548 47.2525 175.474 47.0381C175.436 46.8594 175.362 47.0381 175.288 47.181C175.214 47.2882 175.177 47.3954 175.103 47.4311C174.991 47.6098 174.843 47.86 174.695 48.0386L169.799 55.3643C169.095 56.4006 168.464 57.7586 166.499 57.7586C163.791 57.7586 163.717 55.4358 163.717 54.1851V41.4277H168.761V51.362H168.798Z" fill="#00652E"/>
<path d="M115.208 41.5V50.0407C115.208 52.8638 116.877 53.5427 117.99 53.5427C119.103 53.5427 121.068 52.8995 121.068 50.0407V41.5H125.556V56.2586C125.556 58.4027 125.704 60.9399 123.108 62.941C121.439 64.2275 119.065 64.6563 117.1 64.6563C114.986 64.6563 112.39 64.0846 110.758 63.5843L110.981 59.5105C113.057 60.2966 114.912 60.654 116.952 60.654C121.217 60.654 121.402 58.2955 121.402 56.9375V55.7583C119.881 57.3664 118.101 57.545 117.1 57.545C116.247 57.545 115.468 57.4021 114.689 57.152C110.943 55.8298 110.758 52.3992 110.758 50.0764V41.5H115.208Z" fill="#00652E"/>
<path d="M43.3097 4.47287C47.0555 3.47229 48.4648 1.86421 48.9469 0.684949C41.8634 1.18524 33.7785 2.25729 26.5836 4.5086C25.1743 4.79448 23.6909 5.2233 22.1332 5.75933C21.2802 6.04521 20.3531 5.72359 19.463 6.08094C18.7212 6.40256 18.0537 7.43887 17.2749 7.83196C15.6431 8.65387 15.5318 7.8677 13.937 8.83254C13.084 9.33283 12.0456 10.6908 11.2297 11.2983C10.1913 12.1202 9.33826 11.6913 8.41109 12.7634C7.59518 13.6925 7.85482 15.0147 7.11309 16.1582C6.85348 16.587 5.74087 16.1582 5.48126 16.6228C3.99779 17.7306 4.33156 19.017 3.55274 20.6608C3.3673 21.0539 2.03221 21.2326 1.84678 21.6614C1.25339 22.9122 1.95805 24.6632 1.62427 26.0568C1.51301 26.5214 0.771235 26.307 0.659975 26.7715C0.214934 29.2015 0.771242 32.3105 0.956676 34.9191C0.956676 35.2407 1.03084 35.5266 1.06793 35.8482C1.17919 36.7774 1.40171 37.7422 1.6984 38.707C1.80966 39.2073 1.95804 39.7076 2.14348 40.2079C2.66269 41.7088 3.33021 43.1739 4.1832 44.6033C4.4799 45.1036 4.73955 45.5682 5.03624 45.997C6.48262 48.1054 8.07735 49.9278 9.37538 51.2858C10.0429 52.0005 10.8959 52.6437 11.6006 53.0725C12.8986 50.4281 15.0867 47.212 18.4246 43.567C17.9424 42.888 17.6457 42.1019 17.6457 41.2442L17.4974 31.2742C15.606 31.167 13.7516 29.9162 13.1582 28.2724C12.8986 27.522 12.4907 25.5923 14.7529 23.8413C16.6444 22.3761 17.5345 21.6257 18.6471 20.6608C20.0934 19.4101 21.9478 17.8378 26.6578 14.1213C29.4393 11.7628 32.74 11.9058 35.7069 14.4787L36.0036 14.6931C36.2262 13.1207 37.5242 12.013 39.3415 11.9058C39.4898 11.9058 39.6752 11.9058 39.8236 11.9058C38.748 9.51151 38.5626 5.79506 43.3097 4.54433M67.4532 0.684949C66.9711 0.577744 59.2199 0.0774541 49.3919 0.720685C49.3919 2.57891 48.7986 5.50918 44.9045 6.68844C39.6382 8.29652 40.3057 10.3334 40.6766 12.0487C42.0488 12.3703 43.3097 13.2994 43.6064 14.6931C49.1694 8.26078 55.9934 3.22214 67.4532 0.684949Z" fill="#00652E"/>
<path d="M45.5716 26.2723C45.5716 26.2723 45.4974 26.2008 45.4603 26.1651C44.7927 25.6291 40.5278 22.3415 40.5278 22.3415V21.5195C40.5278 20.6976 40.5278 19.5184 40.5278 18.4463C40.5278 16.874 40.5278 15.4446 40.5278 15.4803C40.4536 15.4089 40.4536 14.8728 39.8602 14.8014C39.8231 14.8014 39.7489 14.8014 39.7118 14.7656C39.341 14.7656 38.8218 15.1587 38.8218 15.659C38.8589 16.2665 38.8218 16.4094 38.8218 17.6244C38.8218 17.6244 38.8218 19.8043 38.8218 20.6976V20.9835L36.6336 19.4112L35.7807 18.768L33.5184 17.0527H33.4813L33.4442 16.9812C31.2931 15.0872 29.921 15.7305 28.9196 16.6238V16.6953C23.6904 20.8048 20.8347 23.2348 17.4598 26.0936C17.3115 26.2008 17.2002 26.308 17.0518 26.4153C17.0518 26.4153 17.0518 26.451 17.0518 26.5225C16.9406 26.6654 16.8665 26.8441 16.8665 27.0585C16.8665 27.523 17.2744 27.9161 17.7565 27.9161C17.7565 27.9161 17.7565 27.9161 17.7936 27.9161C17.7936 27.9161 17.8307 27.9161 17.8678 27.9161H17.9419H18.6095H19.4254H20.3155H21.1685V40.5663C21.1685 41.6026 21.7248 41.9957 22.244 42.2459C22.244 42.2459 22.244 42.2459 22.2069 42.2459C22.4665 42.3531 22.7632 42.4246 23.0599 42.4603C23.0599 42.4603 23.1341 42.4603 23.1712 42.4603C23.2454 42.4603 23.2825 42.4603 23.3566 42.4603H23.4308H23.9129L40.639 42.3888C41.3066 42.3888 42.4563 42.2459 42.4563 40.3162V27.8089H44.2736H45.0153C45.0153 27.8089 45.0894 27.8089 45.1265 27.8089C45.2007 27.8089 45.2378 27.8089 45.312 27.8089C45.312 27.8089 45.312 27.8089 45.349 27.8089C45.349 27.8089 45.349 27.8089 45.3861 27.8089C45.6828 27.6302 45.9053 27.1657 45.9795 26.7369C45.9795 26.6297 45.9054 26.5225 45.8312 26.4153M28.1037 28.6308C28.1037 28.4164 28.2892 28.2377 28.5117 28.2377H30.6998C30.9223 28.2377 31.1077 28.4164 31.1077 28.6308V30.7392C31.1077 30.9536 30.9223 31.1323 30.6998 31.1323H28.5117C28.2892 31.1323 28.1037 30.9536 28.1037 30.7392V28.6308ZM31.0706 34.8845C31.0706 35.0989 30.8852 35.2775 30.6627 35.2775H28.4746C28.4746 35.2775 28.4375 35.2775 28.4004 35.2775C28.215 35.2775 28.0666 35.0989 28.0666 34.9202V32.8118C28.0666 32.5974 28.252 32.4545 28.4746 32.4545H30.6627C30.6627 32.4545 30.8481 32.4902 30.9223 32.5617C30.9965 32.6331 31.0336 32.7404 31.0336 32.8118V34.9202L31.0706 34.8845ZM35.3727 34.8845C35.3727 35.0989 35.1873 35.2775 35.0019 35.2775H32.7766C32.5541 35.2775 32.4058 35.0989 32.4058 34.8845V32.7761C32.4058 32.5617 32.5912 32.4187 32.7766 32.4187H35.0019C35.2244 32.4187 35.3727 32.5974 35.3727 32.7761V34.8845ZM35.3727 30.7392C35.3727 30.9536 35.1873 31.1323 35.0019 31.1323H32.7766C32.5541 31.1323 32.4058 30.9536 32.4058 30.7392V28.6308C32.4058 28.4164 32.5912 28.2377 32.7766 28.2377H35.0019C35.2244 28.2377 35.3727 28.4164 35.3727 28.6308V30.7392Z" fill="#00652E"/>
<path d="M67.7506 0.578125C67.7506 0.578125 67.5652 0.613861 67.4539 0.613861C55.9941 3.11531 49.1701 8.18969 43.6071 14.622C43.6071 14.7649 43.6442 14.8721 43.6813 15.0151C43.8297 16.8018 43.978 18.8745 44.0151 20.7684C47.7608 23.663 48.1688 24.056 48.3542 24.2347C49.6523 25.4855 50.0602 27.0578 49.4668 28.4515C48.9105 29.8094 47.4642 30.7385 45.7211 31.0244L45.8694 40.9945C45.8694 42.138 45.4244 43.2458 44.5343 44.1034C43.4959 45.104 42.0124 45.7115 40.4177 45.7115L23.1352 45.783C22.5418 45.783 21.9856 45.7115 21.4663 45.5685C20.7617 46.2118 20.057 46.9265 19.4266 47.6412C17.6464 49.9282 15.9404 52.3582 14.6424 54.4308C12.2318 59.0049 10.8967 64.0078 10.7854 68.6891C10.8596 70.2257 11.0079 71.1191 11.0079 71.1191C11.7867 67.6528 12.7139 63.4361 14.6795 59.8626C15.5325 59.0049 16.8676 58.2188 19.0928 58.7905C21.2438 59.6124 20.1683 59.3623 22.1339 59.9698C22.7644 60.1842 23.469 60.3629 24.1366 60.5058C30.3301 62.0781 37.5991 61.8995 42.1607 59.6124C42.7541 59.3265 42.2349 57.9686 42.7541 57.6113C44.6085 56.6464 47.5012 56.5035 48.8364 55.36C49.2814 55.0026 48.3913 53.7161 48.7993 53.323C50.6907 51.8222 52.6192 51.3934 53.6205 49.7853C53.8801 49.3922 53.4722 47.8556 53.6577 47.4625C55.2153 45.3899 56.402 45.7115 57.218 43.6031C57.3663 43.1743 56.9955 41.3518 57.1438 40.8873C58.071 38.8861 58.7014 39.0648 59.0352 37.0279C59.3319 35.1696 58.3306 34.4907 58.4048 32.6682C58.4048 32.3466 59.4432 29.4878 59.4432 29.2019C59.4432 28.5587 58.6644 27.7368 58.5902 27.165C58.5902 26.9149 58.516 26.7362 58.4789 26.5218C58.8868 22.6266 58.924 19.0531 58.924 16.2658C58.7385 3.36546 67.7506 0.613861 67.7506 0.613861M46.6483 38.9218C46.6483 38.9218 46.6483 38.9218 46.6483 38.8861V38.9218Z" fill="#00652E"/>
</svg>
