<svg width="155" height="60" viewBox="0 0 155 60" fill="none" xmlns="http://www.w3.org/2000/svg">
<path d="M84.8024 24.3206C84.8024 22.4712 84.4248 19.6516 81.2154 19.6516C79.2017 19.6516 77.5969 21.1069 77.5969 23.3504C77.5969 24.8057 78.4465 26.8673 81.4671 26.8673C82.7572 26.8673 83.3235 26.5338 83.6696 26.2306V29.7475C83.0404 29.99 82.1279 30.2629 81.0266 30.2629C77.5655 30.2629 73.9785 27.8071 73.9785 23.502C73.9785 20.0458 76.5586 16.2257 81.3412 16.2257C83.9528 16.2257 88.4837 17.4384 88.4837 24.0477V29.9294H84.8338V24.2903L84.8024 24.3206Z" fill="#00652E"/>
<path d="M91.0645 16.5905H94.7144V21.5626H99.4656V16.5905H103.115V29.9607H99.4656V24.5337H94.7144V29.9607H91.0645V16.5905Z" fill="#00652E"/>
<path d="M105.759 16.5905H109.409V21.5626H114.128V16.5905H117.81V29.9607H114.128V24.5337H109.409V29.9607H105.759V16.5905Z" fill="#00652E"/>
<path d="M124.071 24.3822C124.071 25.8374 124.921 26.8986 126.431 26.8986C127.941 26.8986 128.696 25.8677 128.696 24.9885C128.696 23.9577 127.878 22.8966 126.462 22.8966C125.864 22.8966 125.361 23.1088 125.204 23.1694V20.0164C125.613 19.8951 126.211 19.7738 126.903 19.7738C129.609 19.7738 132.315 21.4716 132.315 24.746C132.315 27.5655 130.332 30.3245 126.242 30.3245C124.983 30.3245 123.347 30.0819 122.026 28.7479C120.421 27.1714 120.39 25.3826 120.39 23.5029V16.6208H124.04V24.4125L124.071 24.3822ZM137.381 29.9607H133.731V16.5905H137.381V29.9607Z" fill="#00652E"/>
<path d="M154.151 25.7148C152.799 28.595 150.061 30.2928 146.915 30.2928C142.415 30.2928 139.395 27.0791 139.395 23.1075C139.395 19.5603 142.195 16.2556 146.852 16.2556C150.187 16.2556 152.641 18.0747 153.805 20.6517L145.656 25.442L144.429 23.441L149.621 20.2576C148.74 19.348 147.418 19.1965 146.852 19.1965C145.027 19.1965 143.925 20.2273 143.485 21.1065C143.17 21.7128 143.044 22.3798 143.044 23.0771C143.044 23.7138 143.233 24.3505 143.516 24.8962C144.177 26.1696 145.499 27.1397 147.355 27.1397C149.4 27.1397 151.099 25.7754 151.855 23.8048L154.214 25.6845L154.151 25.7148Z" fill="#00652E"/>
<path d="M73.885 1.7935C73.7906 2.39986 72.9725 4.52211 66.7424 4.30989C61.8969 4.12798 59.3797 7.91772 58.247 10.4644C59.8517 8.28153 62.1172 5.5226 65.3895 5.43165C70.8014 5.88642 72.4376 4.73434 72.4376 4.73434C72.4376 4.73434 70.5497 8.16026 64.0994 9.31234C62.4633 9.61552 59.537 10.7979 57.9953 12.7686H58.0582C57.4604 13.6175 57.1143 14.6786 57.1143 15.952V22.5916C57.1143 25.5627 57.7121 28.0185 61.2991 29.4434C62.3374 29.8679 63.4701 30.0498 64.6029 30.0498C66.6481 30.0498 68.6618 29.4131 70.0777 28.2307C71.2734 27.2302 72.4376 25.4718 72.4376 22.9251C72.4376 21.9549 72.2488 21.0151 71.8712 20.1662C71.0217 18.3168 68.945 16.5886 65.5468 16.5886C64.6343 16.5886 63.7219 16.7402 62.7779 17.0737V20.8938C63.4701 20.5603 64.2882 20.3784 64.949 20.3784C65.6727 20.3784 66.6166 20.6816 67.2459 21.2273C67.6235 21.5911 68.064 22.1975 68.064 23.1676C68.064 24.1378 67.592 24.8351 67.1515 25.1989C66.5537 25.684 65.6727 25.9569 64.8546 25.9569C64.2882 25.9569 63.7533 25.8659 63.2499 25.5931C61.6766 24.7745 61.6452 23.4102 61.6452 22.2278V13.4053C72.2173 14.9212 73.8535 3.27908 74.0108 1.76318" fill="#00652E"/>
<path d="M61.2998 42.0269C61.2998 42.8455 61.2054 43.9066 62.3067 44.513C62.7472 44.7555 63.4394 44.8768 64.8868 44.8768H73.5082V34.8113H77.3468V48.3331H63.6911C62.4325 48.3331 60.6391 48.2118 59.4119 47.4235C57.4926 46.2108 57.4297 44.3614 57.4297 42.4211V34.8416H61.2998V42.0573V42.0269ZM65.4846 34.8113H69.3233V45.756H65.4846V34.8113Z" fill="#00652E"/>
<path d="M91.5682 34.8113V38.2675H87.289V48.3331H83.3874V38.2675H79.1396V34.8113H91.5682Z" fill="#00652E"/>
<path d="M112.148 34.8113V38.025C112.148 39.0861 112.053 39.9956 113.123 40.5414C113.563 40.7536 114.13 40.8142 115.388 40.8142H116.678V34.8113H120.58V48.3331H116.678V44.2705H115.137C113.626 44.2705 112.022 44.2705 110.7 43.6035C108.34 42.4514 108.277 40.7536 108.277 38.601V34.8113H112.179H112.148Z" fill="#00652E"/>
<path d="M127.313 34.8113V39.8441H128.226C129.579 39.8441 130.019 39.5712 130.9 37.6005L132.127 34.8113H136.501L134.613 38.3888C134.141 39.268 133.826 40.1775 132.599 40.8749C135.903 41.178 136.155 44.3917 136.155 45.3619V48.3331H132.064V45.4529C132.064 42.9971 130.617 42.8152 129.233 42.8152H127.282V48.3331H123.191V34.8113H127.282H127.313Z" fill="#00652E"/>
<path d="M142.793 43.2378V43.6016V43.6622C142.825 43.6622 142.825 43.6016 142.856 43.5713C142.919 43.4803 142.95 43.3894 143.013 43.3591C143.108 43.2378 143.234 43.0256 143.359 42.874L147.607 36.4769C148.236 35.5067 148.677 34.5062 150.376 34.5062C152.767 34.5062 152.767 36.4163 152.767 37.2955V48.3615H148.488V40.0544C148.488 40.0544 148.52 39.7512 148.457 39.5693C148.425 39.4177 148.362 39.5693 148.299 39.6906C148.236 39.7815 148.205 39.8725 148.142 39.9028C148.048 40.0544 147.922 40.2666 147.796 40.4182L143.643 46.6334C143.045 47.5126 142.51 48.6647 140.842 48.6647C138.545 48.6647 138.482 46.694 138.482 45.6329V34.8094H142.762V43.2378H142.793Z" fill="#00652E"/>
<path d="M97.3275 34.8707V42.1167C97.3275 44.5118 98.7434 45.0879 99.6874 45.0879C100.631 45.0879 102.299 44.5422 102.299 42.1167V34.8707H106.106V47.392C106.106 49.2111 106.232 51.3637 104.03 53.0615C102.614 54.1529 100.6 54.5167 98.9322 54.5167C97.1387 54.5167 94.9362 54.0316 93.5518 53.6072L93.7405 50.151C95.5026 50.818 97.0758 51.1211 98.8064 51.1211C102.425 51.1211 102.582 49.1201 102.582 47.9681V46.9676C101.292 48.3319 99.7817 48.4835 98.9322 48.4835C98.2085 48.4835 97.5478 48.3622 96.887 48.15C93.7091 47.0282 93.5518 44.1177 93.5518 42.147V34.8707H97.3275Z" fill="#00652E"/>
<path d="M36.3274 3.45678C39.5053 2.60788 40.701 1.24357 41.11 0.243079C35.1003 0.66753 28.241 1.57707 22.1368 3.4871C20.9412 3.72964 19.6826 4.09345 18.3611 4.54822C17.6374 4.79077 16.8508 4.51791 16.0956 4.82109C15.4663 5.09395 14.9 5.97317 14.2392 6.30666C12.8547 7.00397 12.7603 6.33698 11.4073 7.15557C10.6837 7.58002 9.80266 8.7321 9.11043 9.2475C8.22942 9.94482 7.5057 9.581 6.71908 10.4905C6.02686 11.2788 6.24714 12.4006 5.61785 13.3707C5.3976 13.7346 4.45365 13.3707 4.23339 13.7649C2.97481 14.7047 3.25798 15.7962 2.59722 17.1908C2.43989 17.5243 1.30719 17.6759 1.14987 18.0397C0.646432 19.1008 1.24427 20.5864 0.961087 21.7688C0.866693 22.1629 0.237368 21.981 0.142974 22.3752C-0.234603 24.4368 0.237374 27.0744 0.394697 29.2876C0.394697 29.5605 0.457623 29.803 0.489087 30.0759C0.583482 30.8642 0.772264 31.6828 1.02398 32.5013C1.11838 32.9258 1.24427 33.3502 1.40159 33.7747C1.8421 35.048 2.40842 36.2911 3.13211 37.5038C3.38383 37.9283 3.60412 38.3224 3.85583 38.6862C5.08296 40.475 6.43593 42.0212 7.5372 43.1732C8.10356 43.7796 8.82722 44.3253 9.42505 44.6891C10.5263 42.4456 12.3828 39.717 15.2146 36.6246C14.8056 36.0485 14.5538 35.3815 14.5538 34.6539L14.428 26.1952C12.8233 26.1043 11.25 25.0431 10.7466 23.6485C10.5264 23.0118 10.1802 21.3747 12.0996 19.8891C13.7043 18.6461 14.4594 18.0094 15.4034 17.1908C16.6305 16.1297 18.2037 14.7957 22.1998 11.6426C24.5596 9.64163 27.3599 9.76291 29.8771 11.9458L30.1288 12.1277C30.3176 10.7937 31.4189 9.85386 32.9607 9.76291C33.0865 9.76291 33.2438 9.76291 33.3697 9.76291C32.4572 7.73161 32.2999 4.57854 36.3274 3.51741M56.8109 0.243079C56.4019 0.152125 49.8257 -0.272325 41.4876 0.273398C41.4876 1.84993 40.9842 4.336 37.6804 5.33649C33.2124 6.7008 33.7788 8.42892 34.0934 9.88418C35.2576 10.157 36.3274 10.9453 36.5791 12.1277C41.2988 6.67048 47.0883 2.39565 56.8109 0.243079Z" fill="#00652E"/>
<path d="M38.2462 21.9516C38.2462 21.9516 38.1833 21.8909 38.1518 21.8606C37.5855 21.4059 33.967 18.6166 33.967 18.6166V17.9193C33.967 17.222 33.967 16.2215 33.967 15.312C33.967 13.978 33.967 12.7653 33.967 12.7956C33.9041 12.7349 33.9041 12.2802 33.4007 12.2195C33.3692 12.2195 33.3063 12.2195 33.2748 12.1892C32.9601 12.1892 32.5197 12.5227 32.5197 12.9472C32.5511 13.4626 32.5197 13.5838 32.5197 14.6146C32.5197 14.6146 32.5197 16.464 32.5197 17.222V17.4645L30.6632 16.1305L29.9395 15.5848L28.0202 14.1296H27.9888L27.9573 14.0689C26.1323 12.4621 24.9682 13.0078 24.1186 13.7657V13.8264C19.6821 17.3129 17.2593 19.3746 14.396 21.8C14.2701 21.8909 14.1757 21.9819 14.0499 22.0729C14.0499 22.0729 14.0499 22.1032 14.0499 22.1638C13.9555 22.2851 13.8926 22.4367 13.8926 22.6186C13.8926 23.0127 14.2387 23.3462 14.6477 23.3462C14.6477 23.3462 14.6477 23.3462 14.6792 23.3462C14.6792 23.3462 14.7106 23.3462 14.7421 23.3462H14.805H15.3714H16.0636H16.8188H17.5424V34.0787C17.5424 34.958 18.0144 35.2915 18.455 35.5037C18.455 35.5037 18.4549 35.5037 18.4235 35.5037C18.6437 35.5946 18.8955 35.6553 19.1472 35.6856C19.1472 35.6856 19.2101 35.6856 19.2416 35.6856C19.3045 35.6856 19.336 35.6856 19.3989 35.6856H19.4618H19.8709L34.0614 35.625C34.6278 35.625 35.6032 35.5037 35.6032 33.8665V23.2552H37.145H37.7743C37.7743 23.2552 37.8372 23.2552 37.8687 23.2552C37.9316 23.2552 37.9631 23.2552 38.026 23.2552C38.026 23.2552 38.026 23.2552 38.0574 23.2552C38.0574 23.2552 38.0574 23.2552 38.0889 23.2552C38.3406 23.1037 38.5294 22.7095 38.5923 22.3457C38.5923 22.2548 38.5294 22.1638 38.4665 22.0729M23.4264 23.9526C23.4264 23.7706 23.5837 23.6191 23.7725 23.6191H25.6289C25.8177 23.6191 25.975 23.7706 25.975 23.9526V25.7413C25.975 25.9232 25.8177 26.0748 25.6289 26.0748H23.7725C23.5837 26.0748 23.4264 25.9232 23.4264 25.7413V23.9526ZM25.9435 29.2582C25.9435 29.4401 25.7862 29.5917 25.5974 29.5917H23.741C23.741 29.5917 23.7096 29.5917 23.6781 29.5917C23.5208 29.5917 23.3949 29.4401 23.3949 29.2885V27.4998C23.3949 27.3178 23.5522 27.1966 23.741 27.1966H25.5974C25.5974 27.1966 25.7547 27.2269 25.8177 27.2875C25.8806 27.3482 25.9121 27.4391 25.9121 27.4998V29.2885L25.9435 29.2582ZM29.5934 29.2582C29.5934 29.4401 29.4361 29.5917 29.2788 29.5917H27.3909C27.2021 29.5917 27.0762 29.4401 27.0762 29.2582V27.4694C27.0762 27.2875 27.2336 27.1663 27.3909 27.1663H29.2788C29.4676 27.1663 29.5934 27.3178 29.5934 27.4694V29.2582ZM29.5934 25.7413C29.5934 25.9232 29.4361 26.0748 29.2788 26.0748H27.3909C27.2021 26.0748 27.0762 25.9232 27.0762 25.7413V23.9526C27.0762 23.7706 27.2336 23.6191 27.3909 23.6191H29.2788C29.4676 23.6191 29.5934 23.7706 29.5934 23.9526V25.7413Z" fill="#00652E"/>
<path d="M57.0631 0.152466C57.0631 0.152466 56.9059 0.182784 56.8115 0.182784C47.0889 2.30504 41.2993 6.61018 36.5796 12.0674C36.5796 12.1887 36.6111 12.2796 36.6426 12.4009C36.7684 13.9168 36.8943 15.6752 36.9257 17.2821C40.1037 19.7378 40.4498 20.0713 40.6071 20.2229C41.7084 21.284 42.0545 22.618 41.5511 23.8004C41.0791 24.9525 39.852 25.7408 38.3731 25.9833L38.499 34.442C38.499 35.4122 38.1214 36.352 37.3662 37.0797C36.4852 37.9286 35.2266 38.444 33.8737 38.444L19.2111 38.5046C18.7077 38.5046 18.2357 38.444 17.7952 38.3227C17.1974 38.8684 16.5995 39.4748 16.0646 40.0812C14.5543 42.0215 13.107 44.0831 12.0057 45.8416C9.9605 49.7223 8.82779 53.9667 8.7334 57.9384C8.79633 59.2421 8.92218 60 8.92218 60C9.58294 57.0592 10.3695 53.4817 12.0372 50.4499C12.7608 49.7222 13.8936 49.0553 15.7815 49.5403C17.6064 50.2377 16.694 50.0254 18.3616 50.5408C18.8965 50.7227 19.4943 50.8743 20.0607 50.9956C25.3153 52.3296 31.4823 52.178 35.3525 50.2377C35.8559 49.9951 35.4154 48.843 35.856 48.5398C37.4292 47.7213 39.8834 47.6 41.0162 46.6298C41.3937 46.3266 40.6386 45.2352 40.9847 44.9017C42.5894 43.6283 44.2255 43.2645 45.0751 41.9002C45.2953 41.5667 44.9493 40.2631 45.1066 39.9296C46.4281 38.1711 47.4349 38.444 48.1272 36.6552C48.253 36.2914 47.9384 34.7452 48.0643 34.3511C48.8509 32.6533 49.3858 32.8049 49.669 31.0767C49.9207 29.5002 49.0711 28.9242 49.1341 27.378C49.1341 27.1051 50.0151 24.6797 50.0151 24.4371C50.0151 23.8914 49.3543 23.1941 49.2914 22.709C49.2914 22.4968 49.2284 22.3452 49.197 22.1633C49.5431 18.8586 49.5746 15.8268 49.5746 13.462C49.4172 2.51726 57.0631 0.182784 57.0631 0.182784M39.1598 32.6836C39.1598 32.6836 39.1598 32.6836 39.1598 32.6533V32.6836Z" fill="#00652E"/>
</svg>
