<svg width="30" height="30" viewBox="0 0 30 30" fill="none" xmlns="http://www.w3.org/2000/svg">
<path fill-rule="evenodd" clip-rule="evenodd" d="M14.359 4.42308C8.87048 4.42308 4.42308 8.86695 4.42308 14.3464C4.42308 19.8258 8.87048 24.2697 14.359 24.2697C17.0972 24.2697 19.5749 23.1648 21.3729 21.375C23.1791 19.5771 24.2949 17.0927 24.2949 14.3464C24.2949 8.86695 19.8475 4.42308 14.359 4.42308ZM2.5 14.3464C2.5 7.80277 7.81049 2.5 14.359 2.5C20.9075 2.5 26.2179 7.80277 26.2179 14.3464C26.2179 17.2781 25.1509 19.9621 23.3854 22.03L27.218 25.8582C27.5937 26.2334 27.5941 26.8423 27.2188 27.218C26.8435 27.5937 26.2347 27.5941 25.8589 27.2188L22.0228 23.387C19.9563 25.1366 17.2803 26.1928 14.359 26.1928C7.81049 26.1928 2.5 20.89 2.5 14.3464Z" fill="#510017"/>
</svg>
