<svg width="30" height="30" viewBox="0 0 30 30" fill="none" xmlns="http://www.w3.org/2000/svg">
<path fill-rule="evenodd" clip-rule="evenodd" d="M1.25 3.44937C1.25 2.92505 1.68337 2.5 2.21796 2.5H3.16583C4.95577 2.5 6.4656 3.80725 6.68761 5.54925L6.9443 7.56329H25.241C26.6218 7.56329 27.6794 8.76777 27.4745 10.1071L26.0907 19.1556C25.8301 20.8596 24.3376 22.1203 22.5808 22.1203H10.2486C8.4918 22.1203 6.99933 20.8596 6.73872 19.1556L5.13255 8.65349L5.12931 8.63041L4.76664 5.78476C4.66572 4.99294 3.97944 4.39873 3.16583 4.39873H2.21796C1.68337 4.39873 1.25 3.97369 1.25 3.44937ZM7.21378 9.46203L8.65322 18.874C8.77168 19.6485 9.45008 20.2215 10.2486 20.2215H22.5808C23.3793 20.2215 24.0577 19.6485 24.1762 18.874L25.56 9.82543C25.5893 9.63409 25.4382 9.46203 25.241 9.46203H7.21378Z" fill="#510017"/>
<path d="M24.1584 26.2342C24.1584 26.9333 23.5806 27.5 22.8678 27.5C22.155 27.5 21.5772 26.9333 21.5772 26.2342C21.5772 25.5351 22.155 24.9684 22.8678 24.9684C23.5806 24.9684 24.1584 25.5351 24.1584 26.2342Z" fill="#510017"/>
<path d="M11.2523 26.2342C11.2523 26.9333 10.6744 27.5 9.96164 27.5C9.24885 27.5 8.67103 26.9333 8.67103 26.2342C8.67103 25.5351 9.24885 24.9684 9.96164 24.9684C10.6744 24.9684 11.2523 25.5351 11.2523 26.2342Z" fill="#510017"/>
</svg>
