<svg width="35" height="35" viewBox="0 0 35 35" fill="none" xmlns="http://www.w3.org/2000/svg">
<path fill-rule="evenodd" clip-rule="evenodd" d="M1.45834 4.02422C1.45834 3.41251 1.96394 2.91663 2.58763 2.91663H3.69348C5.78174 2.91663 7.54321 4.44175 7.80222 6.47408L8.10169 8.8238H29.4478C31.0588 8.8238 32.2926 10.229 32.0537 11.7916L30.4391 22.3482C30.1351 24.3362 28.3939 25.8069 26.3442 25.8069H11.9568C9.90711 25.8069 8.16589 24.3362 7.86185 22.3482L5.98798 10.0957L5.98421 10.0688L5.56109 6.74884C5.44336 5.82505 4.64269 5.13182 3.69348 5.13182H2.58763C1.96394 5.13182 1.45834 4.63593 1.45834 4.02422ZM8.41609 11.039L10.0954 22.0196C10.2336 22.9232 11.0251 23.5917 11.9568 23.5917H26.3442C27.2759 23.5917 28.0674 22.9232 28.2056 22.0196L29.8201 11.463C29.8542 11.2397 29.6779 11.039 29.4478 11.039H8.41609Z" fill="#510017"/>
<path d="M28.1848 30.6065C28.1848 31.4221 27.5107 32.0833 26.6791 32.0833C25.8475 32.0833 25.1734 31.4221 25.1734 30.6065C25.1734 29.7909 25.8475 29.1297 26.6791 29.1297C27.5107 29.1297 28.1848 29.7909 28.1848 30.6065Z" fill="#510017"/>
<path d="M13.1276 30.6065C13.1276 31.4221 12.4535 32.0833 11.6219 32.0833C10.7903 32.0833 10.1162 31.4221 10.1162 30.6065C10.1162 29.7909 10.7903 29.1297 11.6219 29.1297C12.4535 29.1297 13.1276 29.7909 13.1276 30.6065Z" fill="#510017"/>
</svg>
