<svg width="30" height="30" viewBox="0 0 30 30" fill="none" xmlns="http://www.w3.org/2000/svg">
<path fill-rule="evenodd" clip-rule="evenodd" d="M11.1538 5.67857C9.56063 5.67857 8.26914 6.97375 8.26914 8.57143C8.26914 10.1691 9.56063 11.4643 11.1538 11.4643C12.7469 11.4643 14.0384 10.1691 14.0384 8.57143C14.0384 6.97375 12.7469 5.67857 11.1538 5.67857ZM6.34607 8.57143C6.34607 5.90863 8.49855 3.75 11.1538 3.75C13.809 3.75 15.9614 5.90863 15.9614 8.57143C15.9614 11.2342 13.809 13.3929 11.1538 13.3929C8.49855 13.3929 6.34607 11.2342 6.34607 8.57143Z" fill="#510017"/>
<path fill-rule="evenodd" clip-rule="evenodd" d="M2.49994 8.57157C2.49994 8.03901 2.93043 7.60728 3.46148 7.60728H7.30763C7.83867 7.60728 8.26914 8.03887 8.26914 8.57143C8.26914 9.10399 7.83867 9.53585 7.30763 9.53585H3.46148C2.93043 9.53585 2.49994 9.10413 2.49994 8.57157Z" fill="#510017"/>
<path fill-rule="evenodd" clip-rule="evenodd" d="M14.0384 8.57143C14.0384 8.03887 14.4688 7.60742 14.9999 7.60742L26.5383 7.60742C27.0694 7.60742 27.4999 8.03914 27.4999 8.5717C27.4999 9.10426 27.0694 9.53599 26.5383 9.53599L14.9999 9.53599C14.4688 9.53599 14.0384 9.10399 14.0384 8.57143Z" fill="#510017"/>
<path fill-rule="evenodd" clip-rule="evenodd" d="M18.8461 18.5356C20.4392 18.5356 21.7307 19.8308 21.7307 21.4285C21.7307 23.0262 20.4392 24.3213 18.8461 24.3213C17.2529 24.3213 15.9614 23.0262 15.9614 21.4285C15.9614 19.8308 17.2529 18.5356 18.8461 18.5356ZM23.6537 21.4285C23.6537 18.7657 21.5013 16.6071 18.8461 16.6071C16.1908 16.6071 14.0384 18.7657 14.0384 21.4285C14.0384 24.0913 16.1908 26.2499 18.8461 26.2499C21.5013 26.2499 23.6537 24.0913 23.6537 21.4285Z" fill="#510017"/>
<path fill-rule="evenodd" clip-rule="evenodd" d="M27.4999 21.4287C27.4999 20.8961 27.0694 20.4644 26.5384 20.4644H22.6922C22.1612 20.4644 21.7307 20.8959 21.7307 21.4285C21.7307 21.961 22.1612 22.3929 22.6922 22.3929H26.5384C27.0694 22.3929 27.4999 21.9612 27.4999 21.4287Z" fill="#510017"/>
<path fill-rule="evenodd" clip-rule="evenodd" d="M15.9614 21.4285C15.9614 20.8959 15.531 20.4645 15 20.4645L3.46151 20.4645C2.93046 20.4645 2.49997 20.8962 2.49997 21.4288C2.49997 21.9613 2.93046 22.393 3.46151 22.393H15C15.531 22.393 15.9614 21.961 15.9614 21.4285Z" fill="#510017"/>
</svg>
