<svg width="142" height="45" viewBox="0 0 142 45" fill="none" xmlns="http://www.w3.org/2000/svg">
<g clip-path="url(#clip0_0_418)">
<path d="M35.0732 11.7904C34.6958 12.1834 34.6958 12.7729 35.0732 13.0677C35.4506 13.4607 36.0167 13.4607 36.2998 13.0677C36.6772 12.6746 36.6772 12.0851 36.2998 11.7904C35.9224 11.3974 35.3563 11.3974 35.0732 11.7904Z" fill="#FEFEFE"/>
<path d="M43.7538 11.2009H39.9796L39.0361 12.38C38.8474 12.5765 38.9417 12.6747 39.1304 12.773L40.357 13.3625L43.8481 11.6922C44.1312 11.5939 44.0368 11.2009 43.7538 11.2009ZM29.695 30.4586H25.0716C23.845 31.2446 23.4676 31.4411 21.8636 32.1289C21.7692 32.1289 21.6749 32.3254 21.7692 32.4236L25.9208 44.5088H28.2797L24.5055 33.4062C26.9587 33.4062 32.903 32.7184 36.1111 27.3145C35.0732 28.8865 32.7143 30.4586 29.695 30.4586ZM36.2998 13.0677C35.9224 13.4608 35.3563 13.4608 35.0732 13.0677C34.6958 12.6747 34.6958 12.0852 35.0732 11.7904C35.4506 11.3974 36.0167 11.3974 36.2998 11.7904C35.545 11.0044 34.3184 11.0044 33.6579 11.7904C32.9974 12.5765 32.903 13.7555 33.6579 14.5415C34.4127 15.3276 35.6393 15.3276 36.2998 14.5415C36.9603 13.7555 37.0546 12.5765 36.2998 11.7904C36.5829 12.1835 36.5829 12.6747 36.2998 13.0677ZM27.1474 35.0765L30.3555 44.5088H32.7143L29.3176 34.5852C28.7515 34.7817 27.9966 34.88 27.1474 35.0765ZM30.3555 23.2861C30.6385 22.8931 30.8272 22.5001 31.1103 22.0088C31.016 21.9105 30.9216 22.0088 30.8272 22.107C26.0152 27.4127 21.3918 28.1005 17.8064 28.1005H12.3338C12.1451 28.1005 12.0508 27.904 12.1451 27.7075C16.391 21.6158 21.0144 16.8014 24.5055 13.7555L15.3532 21.714C14.5983 22.3035 13.7491 22.6966 12.6169 22.6966H1.10566C0.822598 22.6966 0.916952 22.9913 0.916952 23.1878C1.67179 25.7424 3.93629 28.1005 7.71046 28.1005L4.97418 30.9498C4.87983 31.0481 4.87983 31.3428 5.16289 31.3428H15.4475C22.8071 31.3428 27.4305 28.0022 30.3555 23.2861Z" fill="#00985F"/>
<path d="M133.013 44.5087H141.41V17.4891H133.013V27.4127H125.087V17.4891H116.69V44.5087H125.087V34.2904H133.013V44.5087ZM33.6579 14.5415C32.903 13.7555 32.903 12.5764 33.6579 11.7904C34.4127 11.0044 35.6393 11.0044 36.2998 11.7904C36.9603 12.5764 37.0546 13.7555 36.2998 14.5415C35.545 15.3275 34.3184 15.3275 33.6579 14.5415ZM36.0167 27.3144C39.2248 21.9105 40.357 13.3624 40.357 13.3624L39.1304 12.7729C38.9417 12.6747 38.9417 12.5764 39.0361 12.3799L39.9796 11.2009C39.4135 10.0218 37.3377 8.05677 34.3184 8.05677C32.5256 8.05677 30.9216 8.54803 29.5063 9.53057C29.5063 9.53057 27.4305 11.0044 24.5055 13.6572C21.0144 16.8013 16.3911 21.5175 12.1451 27.6092C12.0508 27.8057 12.1451 28.0022 12.3338 28.0022H17.8064C21.3918 28.0022 26.0152 27.3144 30.8273 22.0087C30.9216 21.9105 31.016 21.9105 31.1103 21.9105C31.2047 22.0087 31.2047 22.107 31.2047 22.2052C30.4498 24.1703 28.5628 28.0022 25.0716 30.3603H29.695C32.8087 30.3603 35.0732 28.8865 36.0167 27.3144ZM31.299 33.7991L34.8845 44.4105H45.0747C42.999 37.8275 40.7344 31.7358 38.5643 26.1354C36.8659 29.9672 35.2619 31.8341 31.299 33.7991ZM0.35083 44.5087H10.6354L14.1266 33.2096H4.125C2.89839 36.5502 1.67179 40.2838 0.35083 44.5087ZM14.2209 20.2402L19.4104 15.8188C20.5426 12.6747 21.6749 9.53057 22.8071 6.87773C23.3733 8.25327 23.9394 9.72707 24.5055 11.2009C27.3361 8.74454 29.1289 7.27074 31.4877 6.58297C30.0724 3.34061 29.0345 0.982533 28.5627 0H17.0515C16.108 2.16157 12.4282 10.1201 8.08788 20.8297H12.2395C13.0887 20.8297 13.7491 20.7314 14.2209 20.2402ZM77.8157 41.4629L78.3818 44.4105H85.1753V17.4891H76.7778V36.2555C76.0229 37.1397 74.6076 38.1223 73.2867 38.1223C70.9278 38.1223 69.7012 36.7467 69.7012 34.1921V17.4891H61.3037V36.2555C60.5488 37.1397 58.9448 38.1223 57.5295 38.1223C55.3594 38.1223 54.1328 36.7467 54.1328 34.1921V17.4891H45.7352V35.3712C45.7352 41.8559 48.4715 45.0983 54.1328 45.0983C58.19 45.0983 60.6432 43.5262 62.5303 41.4629C63.8512 43.9192 66.2101 45.0983 69.7012 45.0983C73.7584 45 76.0229 43.5262 77.8157 41.4629ZM104.518 36.1572C103.763 37.0415 102.536 38.024 100.461 38.024C98.1962 38.024 96.9696 35.8624 96.9696 31.6376C96.9696 26.4301 98.2905 23.8755 101.027 23.8755C102.631 23.8755 103.386 23.9738 104.518 24.2686V36.1572ZM97.5357 45H97.8188C101.593 45 104.141 43.6245 105.556 41.4629L106.028 44.4105H112.915V18.5699C110.179 17.6856 106.971 16.8996 101.121 16.8996C92.7236 16.8996 88.1946 22.2052 88.1946 32.0306C88.1946 41.0699 91.4027 45 97.5357 45Z" fill="#DC000F"/>
</g>
<defs>
<clipPath id="clip0_0_418">
<rect width="141.06" height="45" fill="white" transform="translate(0.35083)"/>
</clipPath>
</defs>
</svg>
