<svg width="206" height="25" viewBox="0 0 206 25" fill="none" xmlns="http://www.w3.org/2000/svg">
<path d="M14.8041 17.5875C13.5798 18.7467 12.3988 19.5248 10.6613 19.5248C8.03896 19.5248 6.13588 17.4418 6.13588 14.5612V14.4951C6.13588 11.7448 8.03665 9.6033 10.446 9.6033C12.2823 9.6033 13.4145 10.4024 14.546 11.6008L14.7272 11.7908L18.325 7.90424L18.1777 7.73872C16.1717 5.48785 13.806 4.49011 10.4784 4.49011C7.66389 4.49011 5.0832 5.52683 3.21768 7.45511C1.38076 9.32114 0.37085 11.851 0.37085 14.5612V14.631C0.37085 17.3333 1.38712 19.8457 3.22606 21.7036C5.0832 23.5964 7.63731 24.6374 10.4087 24.6374C14.5067 24.6374 16.6135 22.9413 18.2814 21.1093L18.4363 20.9286L14.9789 17.413L14.8041 17.5875ZM65.5456 0H59.7791V4.83074H57.4354V9.6033H59.7791V18.6903C59.7791 22.7461 61.5091 24.6374 65.4367 24.6374C67.1132 24.6374 68.5002 24.277 69.7898 23.5033L69.9216 23.4329V18.6906L69.5451 18.8852C68.7655 19.3134 67.9217 19.5248 67.0222 19.5248C65.9857 19.5248 65.5456 19.0513 65.5456 17.9331V9.6033H69.9875V4.83103H65.5456V0ZM81.2517 4.49011C78.3711 4.49011 75.7129 5.52683 73.7726 7.43387C71.8469 9.31154 70.7856 11.851 70.7856 14.5612V14.631C70.7856 17.3414 71.8406 19.862 73.75 21.721C75.6814 23.6016 78.3136 24.6374 81.1754 24.6374C84.0555 24.6374 86.7035 23.594 88.6482 21.6858C90.5779 19.8035 91.6372 17.2809 91.6372 14.5612V14.4951C91.6372 11.7835 90.5897 9.25889 88.6788 7.39635C86.7468 5.51432 84.1124 4.49011 81.2517 4.49011ZM85.8727 14.631C85.8727 17.5084 83.9737 19.5248 81.2517 19.5248C78.5684 19.5248 76.5521 17.3958 76.5521 14.5612V14.4951C76.5521 11.6139 78.4473 9.6033 81.1754 9.6033C83.8558 9.6033 85.8727 11.7355 85.8727 14.5609V14.631ZM99.0545 7.7905V4.83103H93.2923V24.2197H99.0545V16.7658C99.0545 12.575 100.943 10.3579 104.526 10.3579H105.052V4.49447L104.816 4.49011C102.224 4.3691 100.324 5.45032 99.0545 7.7905ZM150.876 4.49011C148.472 4.49011 146.463 5.40727 144.751 7.28959C143.674 5.48232 141.785 4.49011 139.405 4.49011C136.826 4.49011 135.232 5.7671 134.106 7.06532V4.83103H128.352V24.2197H134.106V13.189C134.106 10.8765 135.168 9.6033 137.094 9.6033C139.463 9.6033 140.003 11.5557 140.003 13.189V24.2197H145.757V13.189C145.757 10.8765 146.854 9.6033 148.773 9.6033C151.15 9.6033 151.652 11.5557 151.652 13.189V24.2197H157.405V11.6703C157.405 7.0979 155.078 4.49011 150.876 4.49011ZM32.9149 7.0979C31.6807 5.5533 29.7716 4.4904 27.5426 4.4904C22.6953 4.4904 18.4369 9.02793 18.4369 14.5614V14.6313C18.4369 20.1083 22.5563 24.6377 27.5426 24.6377C29.7716 24.6377 31.6805 23.5469 32.9149 21.9758V24.22H38.6802V4.83103H32.9149V7.0979ZM33.1487 14.631C33.1487 17.5084 31.3271 19.5248 28.7065 19.5248C26.1379 19.5248 24.1981 17.3958 24.1981 14.5612V14.4951C24.1981 11.6139 26.0212 9.6033 28.6458 9.6033C31.2118 9.6033 33.1487 11.7355 33.1487 14.5609V14.631ZM120.144 7.0979C118.906 5.5533 116.999 4.4904 114.767 4.4904C109.922 4.4904 105.663 9.02793 105.663 14.5614V14.6313C105.663 20.1083 109.78 24.6377 114.767 24.6377C116.999 24.6377 118.906 23.5469 120.144 21.9758V24.22H125.901V4.83103H120.144V7.0979ZM120.372 14.631C120.372 17.5084 118.552 19.5248 115.935 19.5248C113.364 19.5248 111.43 17.3958 111.43 14.5612V14.4951C111.43 11.6139 113.248 9.6033 115.872 9.6033C118.431 9.6033 120.372 11.7355 120.372 14.5609V14.631ZM173.337 4.83103V7.0979C172.103 5.5533 170.198 4.4904 167.96 4.4904C163.115 4.4904 158.859 9.02793 158.859 14.5614V14.6313C158.859 20.1083 162.978 24.6377 167.96 24.6377C170.198 24.6377 172.103 23.5469 173.337 21.9758V24.22H179.098V4.83103H173.337ZM173.57 14.631C173.57 17.5084 171.747 19.5248 169.132 19.5248C166.562 19.5248 164.623 17.3958 164.623 14.5612V14.4951C164.623 11.6139 166.453 9.6033 169.064 9.6033C171.636 9.6033 173.571 11.7355 173.571 14.5609L173.57 14.631ZM46.6321 10.6025C46.6321 9.79121 47.5018 9.6033 48.3583 9.6033C51.002 9.6033 53.4625 11.2771 53.4625 11.2771L55.8637 6.8553L55.6719 6.72906C53.5992 5.31448 50.9009 4.48138 48.4632 4.48138C45.8074 4.48138 40.8717 6.0958 40.8717 10.4777C40.8717 17.2972 50.8621 16.0418 50.8621 18.6007C50.8621 19.3535 49.8956 19.5248 48.8524 19.5248C45.6941 19.5248 42.9782 17.397 42.9782 17.397L40.2417 21.5671L40.4333 21.7068C42.8132 23.6016 45.76 24.6389 48.7166 24.6389C53.4134 24.6389 56.6251 21.5479 56.6251 18.6007C56.6249 12.1363 46.6321 12.9051 46.6321 10.6025Z" fill="#0071B9"/>
<path d="M200.844 9.60547C203.566 9.60547 205.778 11.8226 205.778 14.5555C205.778 17.2968 203.566 19.5087 200.844 19.5087H189.328C186.602 19.5087 184.387 17.2895 184.387 14.5555C184.387 11.8159 186.602 9.60547 189.328 9.60547H200.844Z" fill="#FFDD00"/>
</svg>
