<svg width="101" height="61" viewBox="0 0 101 61" fill="none" xmlns="http://www.w3.org/2000/svg">
<path d="M10.8411 60.8097H90.0988L50.6802 21.1289L10.8411 60.8097Z" fill="#7BB51C"/>
<path d="M9.32713 58.8586L15.502 52.7945L13.4453 50.6711L9.56685 54.4814L2.73457 47.4297L0.4375 49.6856L9.32713 58.8586Z" fill="black"/>
<path d="M16.8574 51.4146L23.1845 45.1991L21.447 43.4074L17.4295 47.3525L15.5003 45.3615L18.7197 42.1996L16.9015 40.3249L13.6821 43.4851L12.0293 41.7798L15.9146 37.963L14.1782 36.1719L7.87109 42.3666L16.8574 51.4146Z" fill="black"/>
<path d="M37.5661 21.9474C35.0145 19.3142 30.588 19.6293 28.4562 21.7234C26.324 23.8175 25.2358 27.993 28.2469 31.1002C31.5543 34.5126 35.4893 33.2732 37.6216 31.1802C40.7654 28.0926 39.6464 24.0939 37.5661 21.9474ZM35.6907 29.377C34.2793 30.7633 32.5538 30.3872 30.5823 28.3524C28.9254 26.643 29.0249 24.9256 30.2298 23.742C31.0583 22.9282 32.7409 22.2003 34.7427 24.2661C37.0266 26.6229 37.1022 27.9907 35.6907 29.377Z" fill="black"/>
<path d="M44.6827 24.1344L47.0169 21.841L43.5053 18.2178L41.4033 9.41406L38.7275 12.0426L40.1195 17.0371L35.4166 15.2938L32.8936 17.7715L40.9113 20.3632L44.6827 24.1344Z" fill="black"/>
<path d="M32.2371 36.371C32.2371 36.371 26.5559 34.4198 26.2859 34.467C26.1983 34.4814 27.5062 30.978 24.5678 29.4252C24.5678 29.4252 22.3874 28.2371 20.2053 30.2327L15.5546 34.8465L24.5203 43.9359L26.8923 41.6063L22.0407 36.6014L29.8834 38.6828L32.2371 36.371ZM23.4378 35.123C22.1197 36.4154 21.9417 36.5173 21.9417 36.5173C21.9417 36.5173 19.8752 34.3852 19.802 34.3098C19.7288 34.2343 21.2798 32.8958 21.5241 32.6557C21.6276 32.5537 22.5934 31.9196 23.3926 32.7438C23.3926 32.7438 24.7554 33.8283 23.4378 35.123Z" fill="black"/>
<path d="M43.9584 11.1484L41.8839 9.04277L50.9406 0L53.9048 3.00811L50.642 9.47242L57.294 6.44818L60.146 9.34341L51.0894 18.3862L48.9033 16.1677L53.6839 11.3949L47.144 14.3817L45.7921 13.0092L48.8318 6.43205L43.9584 11.1484Z" fill="black"/>
<path d="M59.6839 27.1108L53.4043 20.7381L62.4616 11.6953L68.7589 18.087L66.9293 19.9139L62.9839 15.91L61.5084 17.3827L64.6202 20.5411L62.715 22.4429L59.6221 19.3034L57.6426 21.2795L61.5507 25.2459L59.6839 27.1108Z" fill="black"/>
<path d="M80.391 29.8906L82.7247 32.26L75.8712 39.1021L79.705 42.992L77.5012 45.1938L71.3337 38.934L80.391 29.8906Z" fill="black"/>
<path d="M79.1309 46.8475L88.1881 37.8047L90.4663 40.1165L81.4091 49.1587L79.1309 46.8475Z" fill="black"/>
<path d="M85.5395 53.3533L83.4089 51.1906L92.4668 42.1484L95.5602 45.2861L92.917 54.675L98.9123 48.6888L100.987 50.7944L91.9301 59.8366L89.2251 57.0928L91.5542 47.2363L85.5395 53.3533Z" fill="black"/>
<path d="M76.2978 25.736L70.7968 20.1523L61.7207 29.1767L64.0544 31.5449L69.0027 26.6046L67.2217 34.7598L69.6108 37.1851C69.6108 37.1851 71.4943 31.3514 71.552 31.1084C71.552 31.1084 73.5928 32.2401 75.8321 30.3021C75.8321 30.3021 77.9798 28.1953 76.2978 25.736ZM72.9389 28.3807C72.9389 28.3807 71.7826 29.1623 70.7637 28.1285L69.172 26.4364C69.172 26.4364 71.0949 24.5162 71.3375 24.2737C71.3375 24.2737 72.8193 25.7781 73.0047 25.9658C73.1895 26.1536 74.3577 27.0382 72.9389 28.3807Z" fill="black"/>
</svg>
