<svg width="189" height="34" viewBox="0 0 189 34" fill="none" xmlns="http://www.w3.org/2000/svg">
<g clip-path="url(#clip0_0_299)">
<mask id="mask0_0_299" style="mask-type:luminance" maskUnits="userSpaceOnUse" x="0" y="5" width="189" height="34">
<path d="M188.06 5H0.311523V39H188.06V5Z" fill="white"/>
</mask>
<g mask="url(#mask0_0_299)">
<path d="M100.547 33.2977V10.7026H115.129V15.9506H106.628V33.2977H100.547Z" fill="#E30613"/>
<path d="M133.475 33.2977V24.4484H124.442V33.2977H118.362V10.7026H124.442V19.1349H133.475V10.7026H139.555V33.2977H133.475Z" fill="#E30613"/>
<path d="M174.84 33.2977V15.9506H167.739V10.7026H188.06V15.9506H180.923V33.2977H174.84Z" fill="#E30613"/>
<path d="M158.791 33.2946V20.4204L149.113 33.2946H144.028V10.7057H150.109V23.4459L159.625 10.7057H164.875V33.2946H158.791Z" fill="#E30613"/>
<path d="M65.6061 33.2977V19.8695L59.5354 26.9635L53.4648 19.8695V33.2977H47.3845V10.7026H53.3852L59.5354 18.4719L65.6857 10.7026H71.6862V33.2977H65.6061Z" fill="#E30613"/>
<path d="M83.2295 25.3508H88.8801L86.0548 18.2662L83.2295 25.3508ZM92.0492 33.2944L90.7766 30.1286H81.3237L80.0509 33.2944H73.9391L83.2901 10.7024H88.9121L98.2663 33.2944H92.0492Z" fill="#E30613"/>
<path d="M0.30481 15.2937C0.310697 12.5649 1.42158 9.94951 3.39422 8.02022C5.36686 6.09093 8.04052 5.00493 10.8298 5H35.1285V10.2324H10.8362C9.46563 10.2382 8.15282 10.7731 7.18337 11.721C6.21394 12.6688 5.66629 13.9528 5.6596 15.2937L5.62777 24.0778C5.51687 25.2032 5.02809 26.2609 4.23777 27.086C3.44746 27.911 2.40012 28.4566 1.25932 28.6379L0.30481 28.781V15.2937Z" fill="#E30613"/>
<path d="M0.305908 39V33.7674H24.6045C25.9754 33.7609 27.2881 33.2251 28.2576 32.2769C29.2268 31.3285 29.7744 30.0442 29.7811 28.7031V20.3673C29.7878 19.1579 30.2338 17.9902 31.0392 17.0728C31.8447 16.1554 32.9572 15.5479 34.1781 15.359L35.1327 15.2189V28.7031C35.1267 31.4323 34.016 34.0479 32.0434 35.9777C30.0709 37.9075 27.3973 38.9941 24.6076 39H0.305908Z" fill="#E30613"/>
<path d="M20.8908 28.7996V22.0357L17.7218 25.7367L14.556 22.0357V28.7996H10.3594V15.4897H14.3333L17.7218 19.7697L21.1103 15.4897H25.0843V28.7996H20.8908Z" fill="#E30613"/>
</g>
</g>
<defs>
<clipPath id="clip0_0_299">
<rect width="187.748" height="34" fill="white" transform="translate(0.311523)"/>
</clipPath>
</defs>
</svg>
