<svg xmlns="http://www.w3.org/2000/svg" width="220" height="41"><defs><clipPath id="a"><path style="fill:#fff" d="M0 0h101v19H0z"/></clipPath></defs><g clip-path="url(#a)" transform="scale(2.16)"><path d="M53.922 15.813V3.187h7.844v2.932h-4.573v9.694h-3.27zM71.636 15.813v-4.945h-4.86v4.945h-3.27V3.187h3.27v4.712h4.86V3.187h3.27v12.626h-3.27zM93.888 15.813V6.12h-3.82V3.187H101v2.932h-3.84v9.694h-3.272zM85.255 15.812V8.617l-5.207 7.195h-2.735V3.188h3.271v7.12l5.12-7.12h2.824v12.624h-3.273zM35.126 15.813V8.31l-3.266 3.965-3.266-3.965v7.504h-3.27V3.187h3.227l3.309 4.341 3.308-4.341h3.228v12.626h-3.27zM44.606 11.373h3.04l-1.52-3.96-1.52 3.96zm4.745 4.439-.685-1.77h-5.085l-.685 1.77h-3.288l5.03-12.625h3.025l5.032 12.625h-3.344zM-.004 5.752a5.812 5.812 0 0 1 1.662-4.064 5.627 5.627 0 0 1 4-1.688H18.73v2.924H5.662a2.774 2.774 0 0 0-1.965.832 2.866 2.866 0 0 0-.82 1.996l-.017 4.91a2.881 2.881 0 0 1-.748 1.68 2.8 2.8 0 0 1-1.602.867l-.514.08V5.752zM-.003 19v-2.924H13.07a2.776 2.776 0 0 0 1.965-.833c.521-.53.816-1.248.82-1.997V8.588a2.877 2.877 0 0 1 .676-1.841 2.792 2.792 0 0 1 1.689-.958l.513-.078v7.535a5.814 5.814 0 0 1-1.662 4.065 5.629 5.629 0 0 1-4 1.689H-.003z" style="fill:#e30613"/><path d="M11.07 13.3V9.52l-1.704 2.068L7.663 9.52v3.78H5.405V5.862h2.138l1.823 2.392 1.823-2.392h2.138V13.3H11.07z" style="fill:#e30613"/></g></svg>