<svg width="179" height="60" viewBox="0 0 179 60" fill="none" xmlns="http://www.w3.org/2000/svg">
<path d="M15.7694 46.1419H15.638L12.9072 33.2578H0.980469V56.7863H7.84246V38.2719H8.05488L12.0575 56.7863H18.7629L22.9249 38.2719H23.1093V56.7863H30.3207V33.2578H18.3912L15.7694 46.1419Z" fill="#D7182A"/>
<path d="M125.659 39.1562H110.286C110.286 42.4314 111.054 48.9143 108.376 51.7477H106.521V59.9385H113.36V56.79H120.915V59.9385H127.78V51.7477H125.659V39.1562ZM118.794 51.7477H114.951C116.376 49.2913 116.25 46.9756 116.25 44.2238H118.794V51.7477Z" fill="#D7182A"/>
<path d="M137.901 38.7539C132.154 38.7539 128.174 42.0094 128.174 47.983C128.174 53.9003 132.204 57.1867 137.901 57.1867C143.558 57.1867 147.681 53.8918 147.681 47.983C147.681 42.0207 143.609 38.7539 137.901 38.7539ZM137.901 52.1445C136.403 52.1445 136.232 50.0229 136.232 48.9171V47.0235C136.232 45.8839 136.386 43.8215 137.901 43.8215C139.639 43.8215 139.544 46.7843 139.544 47.983C139.544 49.1451 139.62 52.1445 137.901 52.1445Z" fill="#D7182A"/>
<path d="M166.448 33.2578L163.851 46.1419H163.717L160.936 33.2578H149.034V56.7863H155.874V38.2719H156.086L160.114 56.7863H166.819L170.981 38.2719H171.166V56.7863H178.374V33.2578H166.448Z" fill="#D7182A"/>
<path d="M94.3819 47.4258H94.1974V39.1562H87.3047V56.79H94.7788L98.2531 48.571H98.3845V56.79H105.302V39.1562H97.8814L94.3819 47.4258Z" fill="#D7182A"/>
<path d="M40.3913 38.7539C38.499 38.7539 35.2986 39.1985 33.5265 39.8203V44.4348C34.9688 43.692 37.3809 43.0477 39.0384 43.0477C40.9643 43.0477 42.851 43.405 42.7224 45.7686C38.1328 45.7686 31.6426 45.5406 31.6426 51.9025C31.6426 55.2537 33.8591 57.1867 37.1294 57.1867C39.494 57.1867 41.118 56.5424 42.6162 54.6515H42.7224V56.7872H49.6403V45.5547C49.6431 40.0313 44.9361 38.7539 40.3913 38.7539ZM42.7252 50.0905C42.7252 51.4045 42.1298 52.9183 40.6037 52.9183C39.6114 52.9183 38.854 52.2486 38.854 51.2385C38.854 49.3533 40.5198 49.0775 42.0348 49.0775C42.264 49.0775 42.4904 49.1141 42.7224 49.1028V50.0905H42.7252Z" fill="#D7182A"/>
<path d="M78.452 48.0072C78.452 45.3707 79.9474 43.8204 82.5608 43.8204C83.5279 43.8204 84.7997 44.1524 85.6354 44.6195V39.5772C83.9639 39.0679 82.1108 38.75 80.361 38.75C74.4578 38.75 70.3154 41.6088 70.3154 47.844C70.3154 53.7501 74.2929 57.1828 80.0424 57.1828C82.0381 57.1828 83.8354 56.8789 85.7416 56.3021V51.2346C84.6124 51.6735 83.5838 52.1434 82.3484 52.1434C79.9027 52.1434 78.452 50.3848 78.452 48.0072Z" fill="#D7182A"/>
<path d="M71.6933 39.1562H63.3443L59.051 46.8659H58.9169V39.1562H51.4707V56.79H58.9169V49.024H59.051L63.3974 56.79H71.6933L66.3127 47.8254L71.6933 39.1562Z" fill="#D7182A"/>
<path d="M130.258 11.5757L118.471 23.4357L117.291 22.2483L129.059 10.3996L118.725 0H99.344L88.4124 11.0411L77.4472 0.011255H58.3286L47.5032 10.9061L35.6436 22.8448L47.4864 34.7863H56.4727L67.9075 23.2753L79.3423 34.7863H97.4462L108.993 23.1515L120.551 34.7863H129.559L141.427 22.8335L130.258 11.5757ZM47.9476 33.6664L37.8237 23.461H45.4152L55.5531 33.6664H47.9476ZM45.4292 22.2314H37.8265L47.9644 12.0259H55.5531L45.4292 22.2314ZM49.0992 10.8836L58.7898 1.13112H66.3785L56.6851 10.8836H49.0992ZM67.9662 1.13112H75.5549L65.8615 10.8836H58.2727L67.9662 1.13112ZM58.337 12.0428H65.9257L76.0468 22.2314H68.4441L58.337 12.0428ZM79.8034 33.6664L69.6963 23.4779H77.2878L87.3978 33.6664H79.8034ZM88.9798 33.6664L78.7665 23.3766H86.3552L96.5741 33.6664H88.9798ZM86.4754 22.2314H78.8727L89.0329 12.0034H96.6216L86.4754 22.2314ZM90.2068 10.8216L99.8052 1.11987H107.394L97.8095 10.8216H90.2068ZM109.068 1.11987H116.657L107.011 10.8836H99.4083L109.068 1.11987ZM99.5481 12.0428H107.137L117.258 22.2314H109.652L99.5481 12.0428ZM121.014 33.6664L110.907 23.4779H118.499L128.62 33.6664H121.014Z" fill="#D7182A"/>
</svg>
