<svg width="161" height="41" viewBox="0 0 161 41" fill="none" xmlns="http://www.w3.org/2000/svg">
<g clip-path="url(#clip0_0_448)">
<path fill-rule="evenodd" clip-rule="evenodd" d="M20.5383 5.99345L11.2287 1.45038L1.89593 5.99619L0.410522 5.27237L11.2287 0L22.0237 5.26688L20.5383 5.99345Z" fill="#E8450B"/>
<path fill-rule="evenodd" clip-rule="evenodd" d="M19.5532 22.7702H2.88876V6.96133L11.2261 2.89807L19.5532 6.96133V22.7702Z" fill="#E8450B"/>
<path d="M153.859 7.57813C154.984 7.57813 155.896 6.58875 155.896 5.36829C155.896 4.14783 154.984 3.15845 153.859 3.15845C152.733 3.15845 151.821 4.14783 151.821 5.36829C151.821 6.58875 152.733 7.57813 153.859 7.57813Z" fill="#E8450B"/>
<path fill-rule="evenodd" clip-rule="evenodd" d="M31.4029 15.5786H30.9052L28.0117 7.94006H22.8206V22.7948H25.8275H26.5134V14.3064V12.6559L29.1077 19.3978H33.2003L35.7946 12.6559V14.3064V22.7948H36.4806H39.4875V7.94006H34.2963L31.4029 15.5786Z" fill="#E8450B"/>
<path fill-rule="evenodd" clip-rule="evenodd" d="M45.9604 13.7608C46.1661 12.9637 46.6129 12.2609 47.232 11.7608C47.851 11.2608 48.6077 10.9914 49.3851 10.9944C50.1506 10.9764 50.8981 11.2428 51.4988 11.7478C52.0994 12.2528 52.5156 12.9647 52.6757 13.7608H45.9604ZM49.3851 7.49866C45.112 7.49866 41.8497 10.9944 41.8497 15.3647C41.8497 19.735 45.112 23.2308 49.3851 23.2308C52.3997 23.2308 54.1817 21.9202 55.2777 20.6069C55.8922 19.8373 56.3584 18.9467 56.6496 17.9858H52.539C52.3676 18.3154 52.1443 18.6112 51.8788 18.8604C51.1735 19.4618 50.2886 19.7741 49.3851 19.7405C47.6057 19.7405 46.1254 18.1366 45.8237 16.2421H56.7863V15.3537C56.7863 11.0218 53.7717 7.49866 49.3851 7.49866Z" fill="#E8450B"/>
<path fill-rule="evenodd" clip-rule="evenodd" d="M69.2807 7.94006H59.3651V22.7921H63.058V11.5482H69.2807V7.94006Z" fill="#E8450B"/>
<path fill-rule="evenodd" clip-rule="evenodd" d="M74.4229 16.4285L75.6195 11.5482H77.0172L78.2138 16.4285H74.4229ZM72.9246 7.92908L69.1337 22.7811H72.9246L73.6235 19.8118H79.0132L79.7121 22.7811H83.503L79.7172 7.95101L72.9246 7.92908Z" fill="#E8450B"/>
<path fill-rule="evenodd" clip-rule="evenodd" d="M92.1497 11.1233C92.6567 11.101 93.1625 11.1892 93.6362 11.3825C94.1098 11.5758 94.5413 11.8702 94.9039 12.2474C95.3868 12.7481 95.728 13.3825 95.889 14.0789H99.5742C99.3916 12.7462 98.875 11.4905 98.0785 10.4433C97.0212 9.00116 95.1644 7.51514 92.1472 7.51514C87.5569 7.51514 84.3643 10.9122 84.3643 15.3675C84.3643 19.8228 87.5569 23.2171 92.1472 23.2171C95.1825 23.2171 97.0469 21.6899 98.1146 20.1409C98.8552 19.1105 99.3546 17.9075 99.5716 16.6314H95.8504C95.7352 17.2613 95.4687 17.8488 95.0767 18.3368C94.5377 18.9948 93.679 19.6117 92.1626 19.6117C89.8675 19.6117 88.2712 17.9118 88.2712 15.3675C88.2712 12.8231 89.8546 11.1233 92.1497 11.1233Z" fill="#E8450B"/>
<path fill-rule="evenodd" clip-rule="evenodd" d="M100.724 11.5482H105.116V22.7921H108.806V11.5482H113.198V7.94006H100.724V11.5482Z" fill="#E8450B"/>
<path fill-rule="evenodd" clip-rule="evenodd" d="M122.232 15.1536H119.238V11.5482H122.232C123.648 11.5482 124.326 12.2693 124.326 13.3495C124.326 14.4298 123.648 15.1536 122.232 15.1536ZM122.33 7.95105H115.545V22.7921H119.238V18.7617H122.332C125.845 18.7617 128.122 16.3216 128.122 13.3495C128.122 10.3775 125.842 7.95105 122.33 7.95105Z" fill="#E8450B"/>
<path fill-rule="evenodd" clip-rule="evenodd" d="M137.604 19.6117C135.309 19.6117 133.713 17.9118 133.713 15.3675C133.713 12.8231 135.317 11.1233 137.604 11.1233C139.892 11.1233 141.496 12.8204 141.496 15.3675C141.496 17.9146 139.907 19.6117 137.604 19.6117ZM137.604 7.51514C133.014 7.51514 129.821 11.1233 129.821 15.3675C129.821 19.6117 133.022 23.2171 137.604 23.2171C142.187 23.2171 145.39 19.6117 145.39 15.3675C145.39 11.1233 142.202 7.51514 137.604 7.51514Z" fill="#E8450B"/>
<path fill-rule="evenodd" clip-rule="evenodd" d="M159.849 7.94006H156.651H156.053L151.063 16.9906V15.2605V7.94006H149.395H147.373V22.7921H149.395H151.063H151.661L156.651 13.7443V15.4744V22.7921H159.849H160.344V7.94006H159.849Z" fill="#E8450B"/>
<path d="M153.645 4.67468H20.5383V5.99346H153.645V4.67468Z" fill="#E8450B"/>
<path fill-rule="evenodd" clip-rule="evenodd" d="M12.2938 37.1643C11.3809 36.1767 10.8694 34.8475 10.8694 33.4629C10.8694 32.0783 11.3809 30.7491 12.2938 29.7616C12.7551 29.2807 13.3026 28.9034 13.9037 28.6519C14.5049 28.4004 15.1474 28.2799 15.7932 28.2975C17.3835 28.2975 18.6257 28.8924 19.5197 30.0823C19.917 30.6047 20.2109 31.2072 20.3836 31.8535H18.8775C18.7188 31.4785 18.4958 31.1382 18.2199 30.85C17.9024 30.513 17.5232 30.2489 17.1058 30.074C16.6884 29.899 16.2417 29.8169 15.7932 29.8328C15.348 29.8145 14.904 29.8941 14.4891 30.0668C14.0741 30.2395 13.6972 30.5015 13.382 30.8363C12.7819 31.5604 12.4508 32.4923 12.4508 33.4574C12.4508 34.4225 12.7819 35.3544 13.382 36.0785C13.6972 36.4134 14.0741 36.6754 14.4891 36.848C14.904 37.0207 15.348 37.1004 15.7932 37.082C16.2579 37.0965 16.72 37.0043 17.1481 36.8118C17.5763 36.6192 17.9603 36.3308 18.2741 35.9661C18.5644 35.6451 18.7914 35.2657 18.942 34.8502H20.4506C20.2448 35.5376 19.9204 36.1782 19.4939 36.7393C19.0657 37.3472 18.5055 37.8358 17.861 38.1634C17.2166 38.4909 16.5071 38.6476 15.7932 38.6201C15.1474 38.6377 14.5049 38.5172 13.9037 38.2657C13.3026 38.0142 12.7551 37.6368 12.2938 37.156V37.1643ZM25.3684 38.3514V31.2394H26.7455V34.099H30.0232V31.2394H31.4003V38.3514H30.0232V35.4232H26.7455V38.3514H25.3684ZM33.4788 37.4658C32.8985 36.7126 32.5814 35.769 32.5814 34.7954C32.5814 33.8217 32.8985 32.8781 33.4788 32.1249C33.7629 31.7929 34.1106 31.5296 34.4985 31.3527C34.8865 31.1758 35.3056 31.0895 35.7276 31.0995C36.2883 31.0968 36.8354 31.283 37.2904 31.6314C37.4891 31.7782 37.6694 31.9514 37.8268 32.1469H37.8938V31.2394H39.2709V38.3514H37.8938V37.3754H37.8268C37.6763 37.5871 37.4953 37.7722 37.2904 37.9237C36.8404 38.2843 36.2911 38.4771 35.7276 38.4721C35.3056 38.4821 34.8865 38.3958 34.4985 38.2189C34.1106 38.042 33.7629 37.7787 33.4788 37.4467V37.4658ZM34.5491 33.0379C34.2068 33.5517 34.0229 34.1658 34.0229 34.7954C34.0229 35.425 34.2068 36.0391 34.5491 36.5528C34.7333 36.7597 34.9577 36.9216 35.2066 37.0271C35.4555 37.1327 35.723 37.1795 35.9906 37.1643C36.2502 37.1761 36.509 37.1267 36.7484 37.0196C36.9879 36.9124 37.202 36.7502 37.3755 36.5446C37.7129 36.0318 37.8938 35.4212 37.8938 34.7954C37.8938 34.1696 37.7129 33.5589 37.3755 33.0462C37.2021 32.8402 36.9881 32.6776 36.7486 32.57C36.5092 32.4624 36.2504 32.4125 35.9906 32.4238C35.7228 32.4089 35.4552 32.4561 35.2063 32.5622C34.9573 32.6682 34.7331 32.8305 34.5491 33.0379ZM40.844 38.3514V31.2394H42.8116L44.5807 35.4918H44.8386L46.6077 31.2394H48.5753V38.3514H47.1982V33.3313L47.2111 33.1915H47.1466L45.4936 37.0957H43.9205L42.2675 33.1915H42.203V33.3313V38.3514H40.844ZM50.1561 38.3514V31.2394H51.5307V35.9798V36.1197H51.6622L54.6923 31.2394H56.2009V38.3514H54.8238V33.611L54.8367 33.4711H54.7052L51.6751 38.3514H50.1561ZM61.4334 38.3514V31.2394H64.7858C65.3235 31.2047 65.8547 31.3781 66.2815 31.7274C66.4548 31.8797 66.5931 32.0719 66.686 32.2894C66.779 32.507 66.8241 32.7442 66.8179 32.9831C66.8311 33.2228 66.7914 33.4625 66.7018 33.6829C66.6122 33.9033 66.4754 34.0984 66.3022 34.2525C66.1514 34.3833 65.9753 34.4769 65.7864 34.5267V34.5843C66.0219 34.6232 66.2464 34.7168 66.444 34.8584C66.6628 35.0216 66.8382 35.2422 66.953 35.4987C67.0677 35.7553 67.1181 36.0391 67.099 36.3225C67.103 36.5976 67.0498 36.8702 66.9433 37.1209C66.8367 37.3716 66.6795 37.5943 66.4827 37.7729C66.0342 38.1793 65.457 38.3891 64.8684 38.3597L61.4334 38.3514ZM62.8182 34.0277H64.6543C65.1701 34.0277 65.428 33.7727 65.428 33.2628C65.428 32.7967 65.1701 32.5636 64.6543 32.5636H62.8182V34.0277ZM62.8182 37.0272H64.7858C65.0323 37.0424 65.2747 36.9548 65.4615 36.7832C65.5436 36.697 65.6077 36.5934 65.6495 36.479C65.6913 36.3646 65.7098 36.2422 65.7039 36.1197C65.7079 36.0059 65.6883 35.8926 65.6464 35.7879C65.6045 35.6831 65.5413 35.5895 65.4615 35.5137C65.2712 35.3499 65.0302 35.2678 64.7858 35.2834H62.8182V37.0272ZM68.8913 37.4439C68.2737 36.718 67.9318 35.7742 67.9318 34.7954C67.9318 33.8166 68.2737 32.8727 68.8913 32.1469C69.1983 31.8051 69.5691 31.5354 69.9799 31.355C70.3907 31.1747 70.8324 31.0876 71.2767 31.0995C71.7764 31.0866 72.2721 31.1969 72.725 31.4219C73.1778 31.6469 73.5754 31.9805 73.8865 32.3964C74.1661 32.777 74.3713 33.2133 74.49 33.6795H73.0484C72.9848 33.4438 72.8679 33.2283 72.708 33.0516C72.5282 32.8407 72.3064 32.6749 72.0589 32.5663C71.8113 32.4577 71.5442 32.409 71.2767 32.4238C71.0191 32.4195 70.7638 32.476 70.5292 32.5893C70.2947 32.7026 70.0867 32.8699 69.9203 33.0791C69.5674 33.5721 69.3764 34.1745 69.3764 34.794C69.3764 35.4135 69.5674 36.016 69.9203 36.509C70.0862 36.7187 70.2941 36.8864 70.5288 36.9998C70.7635 37.1132 71.019 37.1693 71.2767 37.1643C71.5517 37.1798 71.8265 37.132 72.0824 37.0241C72.3384 36.9162 72.5693 36.7508 72.7596 36.5391C72.9153 36.3568 73.0354 36.1434 73.1129 35.9113H74.49C74.3769 36.3839 74.1712 36.8258 73.8865 37.2081C73.5834 37.5895 73.2093 37.9001 72.7879 38.1203C72.3664 38.3405 71.9066 38.4656 71.4374 38.4878C70.9683 38.5099 70.4999 38.4286 70.0617 38.249C69.6235 38.0693 69.225 37.7952 68.8913 37.4439ZM76.2023 37.4247C75.5669 36.716 75.2125 35.7745 75.2125 34.7954C75.2125 33.8163 75.5669 32.8748 76.2023 32.1661C76.5197 31.8278 76.8967 31.5595 77.3118 31.3764C77.7269 31.1933 78.1719 31.0991 78.6212 31.0991C79.0706 31.0991 79.5156 31.1933 79.9307 31.3764C80.3458 31.5595 80.7228 31.8278 81.0402 32.1661C81.3639 32.5104 81.6185 32.9209 81.7887 33.3728C81.959 33.8248 82.0412 34.3087 82.0305 34.7954V35.2834H76.5891C76.67 35.8167 76.9258 36.3024 77.3112 36.6543C77.6761 36.985 78.1418 37.1634 78.6212 37.156C79.1503 37.1847 79.6715 37.0117 80.0912 36.668C80.2614 36.5336 80.4081 36.3684 80.5244 36.18H81.966C81.8004 36.6074 81.5647 37.0001 81.2697 37.3397C80.9247 37.7119 80.5118 38.0053 80.0564 38.2019C79.601 38.3985 79.1126 38.4942 78.6212 38.483C78.1707 38.4917 77.7234 38.4015 77.3072 38.218C76.8909 38.0345 76.5148 37.7616 76.2023 37.4165V37.4247ZM76.6536 34.099H80.5889C80.5133 33.6108 80.2704 33.1696 79.9072 32.8603C79.5439 32.551 79.0859 32.3955 78.6212 32.4238C78.1653 32.4188 77.7213 32.5794 77.3628 32.8789C76.9947 33.1804 76.7426 33.6142 76.6536 34.099ZM79.2763 29.9562C79.1371 29.8166 79.0481 29.6298 79.0245 29.4279C79.0009 29.226 79.0443 29.0217 79.1471 28.8502C79.2499 28.6786 79.4058 28.5505 79.5878 28.4879C79.7699 28.4253 79.9668 28.4322 80.1446 28.5073C80.3224 28.5824 80.4701 28.7211 80.5621 28.8994C80.6541 29.0778 80.6848 29.2846 80.6489 29.4844C80.6129 29.6842 80.5126 29.8645 80.3652 29.9941C80.2177 30.1238 80.0324 30.1947 79.841 30.1947C79.7366 30.1976 79.6328 30.1779 79.5357 30.1369C79.4386 30.0959 79.3504 30.0344 79.2763 29.9562ZM76.8522 29.9562C76.7401 29.8389 76.6636 29.6886 76.6324 29.5246C76.6012 29.3607 76.6169 29.1906 76.6773 29.0362C76.7377 28.8818 76.8402 28.7501 76.9715 28.658C77.1028 28.566 77.2571 28.5177 77.4144 28.5195C77.5183 28.5177 77.6216 28.5381 77.718 28.5797C77.8144 28.6212 77.9019 28.683 77.9753 28.7613C78.0488 28.8396 78.1066 28.9329 78.1453 29.0355C78.1841 29.1381 78.203 29.248 78.2009 29.3585C78.2048 29.469 78.187 29.5792 78.1489 29.6821C78.1107 29.7849 78.0529 29.8783 77.9791 29.9562C77.905 30.0344 77.8167 30.0959 77.7197 30.1369C77.6226 30.1779 77.5188 30.1976 77.4144 30.1947C77.3102 30.1983 77.2066 30.179 77.1098 30.1379C77.0131 30.0969 76.9254 30.035 76.8522 29.9562ZM86.8838 38.3514V31.2394H92.8512V38.3514H91.4741V32.5636H88.2532V38.3514H86.8838ZM95.0355 37.4247C94.4456 36.8152 94.0735 36.0066 93.9827 35.1374C93.8919 34.2682 94.0882 33.3925 94.5379 32.6603C94.9876 31.928 95.6628 31.3848 96.4478 31.1236C97.2328 30.8623 98.0788 30.8994 98.8409 31.2284C99.6031 31.5575 100.234 32.1579 100.625 32.9271C101.017 33.6962 101.145 34.5861 100.987 35.4444C100.829 36.3027 100.396 37.076 99.7607 37.6318C99.1256 38.1876 98.3286 38.4915 97.506 38.4913C97.0475 38.5026 96.5917 38.4138 96.1667 38.2304C95.7418 38.0469 95.3568 37.7727 95.0355 37.4247ZM96.0387 33.0736C95.673 33.5633 95.4739 34.1701 95.4739 34.7954C95.4739 35.4206 95.673 36.0275 96.0387 36.5172C96.2315 36.7224 96.4604 36.8851 96.7124 36.9962C96.9644 37.1073 97.2345 37.1644 97.5073 37.1644C97.7801 37.1644 98.0502 37.1073 98.3022 36.9962C98.5542 36.8851 98.7831 36.7224 98.9759 36.5172C99.3399 36.0267 99.5378 35.4201 99.5378 34.7954C99.5378 34.1706 99.3399 33.5641 98.9759 33.0736C98.784 32.8667 98.5554 32.7025 98.3032 32.5904C98.0511 32.4783 97.7806 32.4206 97.5073 32.4206C97.234 32.4206 96.9635 32.4783 96.7114 32.5904C96.4592 32.7025 96.2306 32.8667 96.0387 33.0736ZM101.441 38.3514L103.277 31.2394H106.22L108.056 38.3514H106.614L105.17 32.5636H104.319L102.875 38.3514H101.441ZM108.26 31.2394H109.704L111.145 36.9559H111.868L113.441 31.2394H114.885L112.131 40.9999H110.686L111.473 38.3514H110.088L108.252 31.2394H108.26ZM115.408 33.8879V31.2394H116.785V33.7508C116.775 33.9297 116.801 34.1088 116.859 34.2768C116.918 34.4448 117.009 34.5981 117.126 34.7268C117.394 34.9738 117.743 35.0988 118.098 35.075C118.526 35.0883 118.953 35.0167 119.356 34.8639C119.495 34.8243 119.625 34.7532 119.736 34.6556V31.2394H121.1V38.3514H119.723V35.9168C119.584 36.0186 119.434 36.1024 119.276 36.1663C118.854 36.3339 118.405 36.4149 117.954 36.4048C117.139 36.4048 116.509 36.18 116.063 35.7358C115.836 35.4964 115.659 35.2083 115.543 34.8907C115.428 34.5731 115.378 34.2332 115.395 33.8934L115.408 33.8879ZM122.686 38.3514V31.2394H124.063V35.9798V36.1197H124.194L127.224 31.2394H128.733V38.3514H127.356V33.611L127.369 33.4711H127.237L124.194 38.3514H122.686ZM129.571 32.5636V31.2394H135.407V32.5636H133.179V38.3514H131.802V32.5636H129.571ZM136.831 37.4439C136.213 36.718 135.871 35.7742 135.871 34.7954C135.871 33.8166 136.213 32.8727 136.831 32.1469C137.138 31.8051 137.508 31.5354 137.919 31.355C138.33 31.1747 138.772 31.0876 139.216 31.0995C139.716 31.0866 140.211 31.1969 140.664 31.4219C141.117 31.6469 141.515 31.9805 141.826 32.3964C142.105 32.777 142.311 33.2133 142.429 33.6795H140.988C140.924 33.4438 140.807 33.2283 140.647 33.0516C140.467 32.8407 140.246 32.6749 139.998 32.5663C139.751 32.4577 139.483 32.409 139.216 32.4238C138.958 32.4195 138.703 32.476 138.468 32.5893C138.234 32.7026 138.026 32.8699 137.86 33.0791C137.507 33.5721 137.316 34.1745 137.316 34.794C137.316 35.4135 137.507 36.016 137.86 36.509C138.025 36.7187 138.233 36.8864 138.468 36.9998C138.703 37.1132 138.958 37.1693 139.216 37.1643C139.491 37.1798 139.766 37.132 140.022 37.0241C140.278 36.9162 140.509 36.7508 140.699 36.5391C140.855 36.3568 140.975 36.1434 141.052 35.9113H142.429C142.316 36.3839 142.11 36.8258 141.826 37.2081C141.523 37.5895 141.149 37.9001 140.727 38.1203C140.306 38.3405 139.846 38.4656 139.377 38.4878C138.908 38.5099 138.439 38.4286 138.001 38.249C137.563 38.0693 137.164 37.7952 136.831 37.4439ZM143.278 38.3514L144.588 35.7714C144.358 35.6572 144.146 35.5065 143.958 35.3245C143.753 35.1118 143.592 34.8553 143.485 34.5719C143.379 34.2884 143.33 33.9843 143.342 33.6795C143.333 33.3493 143.391 33.021 143.514 32.7174C143.636 32.4138 143.82 32.1424 144.051 31.922C144.584 31.4438 145.268 31.1996 145.965 31.2394H148.982V38.3514H147.605V36.1909H145.9L144.851 38.3542L143.278 38.3514ZM144.786 33.6905C144.777 33.8471 144.799 34.0041 144.85 34.1514C144.901 34.2987 144.98 34.433 145.083 34.5459C145.344 34.7735 145.677 34.8854 146.014 34.8584H147.587V32.5581H146.014C145.683 32.538 145.357 32.6505 145.101 32.8734C144.993 32.9723 144.907 33.0954 144.85 33.2339C144.792 33.3723 144.764 33.5227 144.768 33.674L144.786 33.6905ZM150.883 33.4163V28.5908H152.327V33.3998L152.069 35.4232H151.151L150.893 33.3998L150.883 33.4163ZM150.95 38.2966C150.79 38.1362 150.687 37.9215 150.66 37.6896C150.633 37.4576 150.682 37.2227 150.8 37.0253C150.918 36.8279 151.097 36.6803 151.306 36.6079C151.515 36.5354 151.741 36.5426 151.946 36.6283C152.15 36.7139 152.321 36.8727 152.427 37.0772C152.534 37.2818 152.57 37.5194 152.529 37.7492C152.489 37.979 152.375 38.1867 152.206 38.3367C152.037 38.4866 151.825 38.5694 151.605 38.5708C151.481 38.5744 151.358 38.5503 151.244 38.5003C151.13 38.4502 151.027 38.3752 150.942 38.2801L150.95 38.2966Z" fill="#0051A1"/>
</g>
<defs>
<clipPath id="clip0_0_448">
<rect width="159.934" height="41" fill="white" transform="translate(0.410522)"/>
</clipPath>
</defs>
</svg>
