<svg width="155" height="39" viewBox="0 0 155 39" fill="none" xmlns="http://www.w3.org/2000/svg">
<path fill-rule="evenodd" clip-rule="evenodd" d="M124.551 27.6748L125.476 9.33214L117.36 5.20503L117.568 1.07812H153.313L153.117 4.97586L143.63 9.33214L142.692 27.9042L151.509 32.4896L151.253 37.5334H114.405L114.636 32.9479L124.551 27.6748Z" fill="#FF7313" stroke="black" stroke-width="1.76" stroke-miterlimit="2.6131"/>
<path fill-rule="evenodd" clip-rule="evenodd" d="M85.85 28.167H80.4439L80.7722 21.4038L86.1875 21.403C89.0562 21.2884 90.3345 23.8677 89.6073 25.5301C89.6073 25.5301 89.3322 28.0524 85.85 28.167ZM86.5149 15.0388H81.1088L81.4379 8.6856H87.1242C89.2758 8.62862 90.8208 10.2251 90.3521 12.2546C90.3521 12.2546 90.2147 15.0405 86.5149 15.0388ZM102.001 1.01563C102.001 1.01563 108.896 0.270305 110.231 9.07389C110.231 9.07389 110.782 15.1444 104.654 18.7033C111.334 20.6459 110.12 28.7853 110.12 28.7853C108.102 38.0333 98.7 37.5045 98.7 37.5045H53.1932L53.4713 32.9191L61.9536 27.6534L62.7627 9.06211L54.811 5.17358L55.0891 1.04583L102.001 1.01563Z" fill="#FF7313" stroke="black" stroke-width="1.76" stroke-miterlimit="2.6131"/>
<path fill-rule="evenodd" clip-rule="evenodd" d="M26.9467 6.03732H28.0063C30.4434 6.03732 32.3154 8.09039 32.1877 10.6228L31.3512 27.2212C31.2231 29.7536 29.1443 31.8066 26.7068 31.8066H25.6475C23.2103 31.8066 21.3383 29.7536 21.4655 27.2212L22.3029 10.6228C22.4304 8.09039 24.5096 6.03732 26.9467 6.03732ZM17.9853 1.04688H37.5692C46.1002 1.04688 52.653 8.2326 52.2056 17.0966L51.9859 21.4529C51.5386 30.3177 44.2614 37.5026 35.7314 37.5026H16.1473C7.61756 37.5026 1.0645 30.3177 1.51171 21.4529L1.73063 17.0966C2.17827 8.2326 9.45554 1.04688 17.9853 1.04688Z" fill="#FF7313" stroke="black" stroke-width="1.76" stroke-miterlimit="2.6131"/>
<path d="M145.265 24.1216C145.265 23.1972 145.625 22.359 146.208 21.7539C146.791 21.1482 147.597 20.7734 148.486 20.7734C149.376 20.7734 150.182 21.1482 150.764 21.7539C151.347 22.3587 151.708 23.197 151.708 24.1216C151.708 25.0453 151.348 25.8828 150.764 26.4884H150.763C150.18 27.0941 149.375 27.4689 148.486 27.4689C147.599 27.4689 146.793 27.0941 146.21 26.4884C146.21 26.4876 146.209 26.4876 146.208 26.4867C145.626 25.8802 145.265 25.0436 145.265 24.1216ZM148.489 24.5191H147.774V25.7892H147.176V22.4269L148.839 22.426C149.315 22.4395 149.662 22.6963 149.83 23.0216C149.902 23.163 149.942 23.317 149.944 23.4701V23.4718C149.945 23.6282 149.908 23.7864 149.83 23.9318C149.715 24.1434 149.512 24.3234 149.215 24.4272L150.064 25.8487H149.282L148.489 24.5191ZM147.774 23.8982C148.129 23.8982 148.433 23.8749 148.832 23.8749H148.885L148.887 23.8774C149.113 23.8348 149.249 23.741 149.31 23.629C149.335 23.583 149.347 23.5294 149.346 23.4767C149.346 23.4206 149.331 23.363 149.306 23.3118C149.231 23.1679 149.063 23.0533 148.824 23.0467H147.774V23.8982ZM146.65 22.2125C146.181 22.701 145.891 23.3763 145.891 24.1216C145.891 24.8669 146.18 25.5422 146.649 26.029L146.65 26.0299C147.119 26.5176 147.769 26.8189 148.486 26.8189C149.204 26.8189 149.853 26.5169 150.323 26.0299V26.029C150.792 25.5405 151.083 24.8669 151.083 24.1216C151.083 23.3763 150.792 22.701 150.323 22.2133C149.852 21.7248 149.203 21.4228 148.486 21.4228C147.77 21.4228 147.121 21.7248 146.65 22.2125Z" fill="black"/>
</svg>
