<svg width="118" height="25" viewBox="0 0 118 25" fill="none" xmlns="http://www.w3.org/2000/svg">
<path fill-rule="evenodd" clip-rule="evenodd" d="M14.8358 0.0687888C12.2023 -0.201742 9.54754 0.329815 7.23641 1.5904C4.92527 2.85098 3.07121 4.7787 1.92907 7.1086C0.78693 9.43849 0.412781 12.0562 0.85805 14.6019C1.30332 17.1476 2.54615 19.4963 4.41571 21.3251C6.28526 23.154 8.68977 24.3733 11.2987 24.8154C13.9077 25.2576 16.593 24.9008 18.9856 23.7941C21.3782 22.6875 23.3606 20.8853 24.6604 18.6354C25.9601 16.3854 26.5134 13.7981 26.2441 11.229C25.9478 8.3733 24.6516 5.7044 22.5737 3.67168C20.4958 1.63895 17.7631 0.366577 14.8358 0.0687888ZM14.4204 19.115C13.0041 19.3003 11.5638 19.0481 10.302 18.3939C9.04015 17.7397 8.02026 16.7163 7.38563 15.4677C6.751 14.219 6.53353 12.8077 6.7638 11.4323C6.99406 10.0569 7.66048 8.78636 8.66939 7.79936C9.6783 6.81236 10.979 6.15848 12.3886 5.92961C13.7983 5.70075 15.246 5.90841 16.5284 6.52341C17.8108 7.13841 18.8634 8.12983 19.5381 9.35833C20.2129 10.5868 20.476 11.9907 20.2904 13.3725C20.0957 14.826 19.415 16.1763 18.3539 17.2144C17.2927 18.2525 15.9102 18.9205 14.4204 19.115ZM33.0997 0.563303C32.6551 0.56434 32.2164 0.662018 31.8154 0.849229C31.4145 1.03644 31.0613 1.30847 30.7817 1.64553C30.5021 1.9826 30.3031 2.37621 30.1991 2.79772C30.0952 3.21924 30.0889 3.65806 30.1807 4.08226C30.4619 5.45651 31.7782 6.3955 33.212 6.3955H41.5329L28.5837 23.1075C28.4879 23.2308 28.4293 23.3778 28.4144 23.5319C28.3994 23.6859 28.4288 23.841 28.4992 23.9797C28.5695 24.1184 28.6781 24.2352 28.8127 24.3171C28.9474 24.399 29.1027 24.4426 29.2614 24.4432H49.5735C51.0064 24.4432 52.3235 23.5045 52.6048 22.13C52.6966 21.7059 52.6904 21.2671 52.5865 20.8457C52.4826 20.4242 52.2837 20.0306 52.0042 19.6935C51.7248 19.3564 51.3718 19.0843 50.9709 18.897C50.5701 18.7097 50.1315 18.6118 49.687 18.6106H39.5486L52.4879 1.91159C52.5846 1.78702 52.6438 1.63863 52.6588 1.48307C52.6739 1.32751 52.6442 1.17094 52.5731 1.03093C52.502 0.890913 52.3923 0.77299 52.2563 0.690391C52.1203 0.607791 51.9634 0.563783 51.8032 0.563303H33.0997ZM114.265 0.630575C113.593 0.78652 112.995 1.16161 112.571 1.69383C112.147 2.22604 111.921 2.88351 111.932 3.55753V13.2679L95.7982 0.746709C95.6716 0.648763 95.5193 0.587639 95.3588 0.570369C95.1982 0.553099 95.0359 0.580385 94.8905 0.649088C94.7452 0.717791 94.6226 0.825119 94.537 0.958726C94.4514 1.09233 94.4062 1.24679 94.4067 1.40433V21.4542C94.3957 22.1282 94.621 22.7857 95.0452 23.318C95.4694 23.8502 96.0672 24.2253 96.7397 24.3812C97.1764 24.4749 97.6291 24.4718 98.0644 24.3721C98.4997 24.2724 98.9064 24.0787 99.2547 23.8053C99.603 23.5319 99.8839 23.1856 100.077 22.7922C100.27 22.3988 100.369 21.9682 100.369 21.5321V11.7377L116.503 24.2591C116.63 24.357 116.782 24.4181 116.942 24.4354C117.103 24.4526 117.265 24.4253 117.41 24.3567C117.556 24.288 117.678 24.1807 117.764 24.0472C117.849 23.9136 117.894 23.7592 117.894 23.6017V3.47869C117.895 3.04275 117.795 2.61226 117.602 2.21896C117.409 1.82567 117.128 1.47959 116.78 1.20626C116.432 0.932931 116.025 0.739309 115.59 0.639674C115.155 0.540038 114.702 0.536929 114.265 0.630575ZM72.2563 5.83725C79.0807 5.83725 84.1797 9.35432 84.1797 12.5003C84.1797 15.6463 79.0807 19.1634 72.2563 19.1634C65.432 19.1634 60.3329 15.6463 60.3329 12.5003C60.3329 9.35432 65.432 5.83725 72.2563 5.83725ZM72.2563 0.0052927C62.3784 0.0052927 54.371 5.59956 54.371 12.5003C54.371 19.4011 62.3784 24.9954 72.2563 24.9954C82.1343 24.9954 90.1414 19.4011 90.1414 12.5003C90.1414 5.59956 82.134 0.0052927 72.2563 0.0052927Z" fill="#0069FF"/>
</svg>
