<svg width="158" height="51" viewBox="0 0 158 51" fill="none" xmlns="http://www.w3.org/2000/svg">
<path fill-rule="evenodd" clip-rule="evenodd" d="M144.977 0.10265C147.751 -0.250452 150.682 0.301982 153.049 1.84412C154.705 3.01859 156.093 4.62401 156.899 6.51481C157.962 9.23965 158 12.384 156.902 15.1038C156.297 16.5827 155.278 17.8445 154.156 18.9544C151.782 21.0635 148.488 21.8476 145.391 21.566C142.788 21.3552 140.18 20.2858 138.386 18.3229C136.778 16.675 135.743 14.459 135.546 12.1486C135.273 9.89396 135.646 7.53172 136.759 5.54726C137.989 3.22742 140.134 1.41824 142.619 0.639265C143.389 0.397535 144.177 0.211492 144.977 0.10265ZM144.983 1.57834C142.814 1.84285 140.765 2.90216 139.23 4.46834C137.555 6.18259 136.881 8.68721 136.968 11.052C136.943 13.6813 138.029 16.3979 140.142 17.997C142.152 19.6119 144.777 20.3295 147.32 20.1497C149.68 20.0283 152.076 19.1487 153.723 17.3863C154.324 16.6814 154.918 15.9511 155.316 15.1038C156.217 13.3054 156.35 11.2254 156.137 9.25104C155.773 6.4047 153.957 3.78365 151.403 2.53134C149.431 1.5429 147.148 1.27586 144.983 1.57834ZM93.9314 2.00168C94.4601 1.96561 94.9925 1.96118 95.5244 1.99156C95.51 10.5761 95.5294 19.1601 95.5131 27.7446C95.5531 29.1406 94.9445 30.5062 93.8834 31.3959C92.311 32.7304 90.2799 33.6461 88.1964 33.5176C87.1895 33.5613 86.154 33.1791 85.4767 32.4147C84.6266 31.2921 84.9318 29.6981 85.7177 28.6318C87.5459 26.1519 90.9003 24.6857 93.904 25.5944C93.8915 20.7996 93.8996 16.0062 93.8977 11.2108C93.9171 8.14111 93.8565 5.0695 93.9314 2.00168ZM142.021 4.87016C143.465 4.81068 144.912 4.87016 146.358 4.85118C147.7 4.82334 149.126 4.84106 150.315 5.56181C152.339 6.55531 152.7 9.56997 151.38 11.276C150.979 11.8651 150.282 12.0923 149.719 12.4726C150.631 13.4642 151.335 14.621 152.21 15.6448C152.425 15.9056 152.603 16.1973 152.767 16.4953C151.677 16.5194 150.586 16.5339 149.499 16.4808C149.126 15.6531 148.488 15.0019 147.964 14.2793C147.577 13.7572 147.202 13.2276 146.794 12.7238C146.166 12.7093 145.54 12.708 144.914 12.7156C144.802 13.9762 144.909 15.2411 144.875 16.5048C143.927 16.5131 142.979 16.508 142.031 16.5194C141.969 12.6384 141.987 8.75366 142.021 4.87016ZM144.851 7.57412C144.845 8.49927 144.862 9.42379 144.834 10.3489C145.845 10.3426 146.861 10.4072 147.871 10.3103C148.549 10.242 149.175 9.66869 149.124 8.9416C149.183 8.20755 148.513 7.69372 147.857 7.60956C146.86 7.49818 145.853 7.56273 144.851 7.57412ZM125.645 10.7913C127.26 10.8046 128.873 10.8109 130.486 10.79C130.486 21.621 130.479 32.4533 130.489 43.2849C130.468 44.1708 130.586 45.089 130.296 45.9446C129.538 48.3859 127.206 50.3476 124.627 50.2989C121.713 50.2748 118.795 50.3463 115.884 50.2634C115.895 47.631 115.879 45.0004 115.889 42.368C117.507 42.3743 119.129 42.3756 120.749 42.3693C120.812 43.8487 120.692 45.3308 120.812 46.8083C122.406 46.7982 123.999 46.8014 125.594 46.797C125.711 45.5219 125.617 44.2404 125.645 42.9622C125.619 41.3036 125.707 39.6413 125.597 37.9858C124.369 37.9858 123.14 37.9858 121.911 37.9871C118.759 38.0574 115.777 35.1882 115.882 31.9534C115.885 24.9242 115.894 17.8932 115.877 10.864C117.501 10.7755 119.136 10.7944 120.76 10.8527C120.772 17.7749 120.762 24.6989 120.765 31.6224C120.774 32.5754 120.724 33.529 120.826 34.4789C122.41 34.4605 123.993 34.4605 125.577 34.477C125.685 33.691 125.645 32.8975 125.645 32.1084C125.645 25.0033 125.645 17.8964 125.645 10.7913ZM0.513009 10.8691C3.31563 10.7413 6.12824 10.8546 8.93585 10.8109C11.9782 10.6812 14.9855 13.2491 15.1197 16.3833C15.1328 23.5713 15.1054 30.7574 15.1328 37.9434C13.5074 38.0099 11.8777 38.0181 10.2523 37.9504C10.2173 31.2516 10.2479 24.5515 10.2367 17.8527C10.2236 16.6782 10.2766 15.5025 10.1855 14.3293C8.56696 14.347 6.94967 14.3261 5.33114 14.3343C5.38046 21.7166 5.33239 29.1001 5.35486 36.4823C5.35799 36.9784 5.34675 37.4752 5.31679 37.9713C3.71511 37.9827 2.11094 38.0244 0.509888 37.9466C0.518002 28.9223 0.51176 19.8954 0.513009 10.8691ZM21.6475 11.0166C22.3984 10.8122 23.183 10.809 23.9545 10.8141C26.3552 10.8141 28.7533 10.8191 31.1533 10.809C31.3887 10.8482 31.6951 10.7457 31.8774 10.945C31.9317 11.3 31.9236 11.6595 31.9255 12.0176C31.9042 20.6585 31.9442 29.3013 31.9061 37.9422C30.2857 38.0017 28.6572 38.039 27.0405 37.9352C27.0343 31.025 27.0387 24.1142 27.0374 17.2034C27.0343 16.2441 27.063 15.2816 27.0068 14.3229C25.412 14.3438 23.816 14.3425 22.2211 14.3166C22.1856 20.9483 22.213 27.5826 22.2049 34.2144C22.1924 35.1344 22.2804 36.0723 22.0532 36.9746C21.6619 38.4035 20.5084 39.6071 19.0846 39.9861C18.5172 40.1563 17.9211 40.1551 17.3362 40.1355C17.285 32.5457 17.3312 24.9565 17.3119 17.3667C17.3044 16.4726 17.32 15.5525 17.6558 14.7115C18.3574 12.9523 19.896 11.6259 21.6475 11.0166ZM36.3385 12.2606C37.3996 11.2969 38.8346 10.7963 40.2572 10.8451C41.5861 10.8951 42.9481 10.6945 44.2501 11.0539C46.6389 11.8297 48.5914 14.1173 48.6731 16.7092C48.6781 19.672 48.6557 22.6348 48.6844 25.5982C45.4392 25.6969 42.1903 25.5982 38.9451 25.6462C38.8733 27.7446 38.937 29.8468 38.9164 31.9464C38.9195 32.7937 38.8746 33.6461 38.9638 34.4915C40.5587 34.4865 42.1535 34.4979 43.7501 34.4934C43.86 33.0449 43.7676 31.5933 43.7995 30.1436C45.4249 30.0999 47.0527 30.0967 48.6781 30.153C48.6251 31.3016 48.8136 32.4874 48.464 33.6037C47.9703 35.311 46.6676 36.7272 45.0972 37.4834C43.5791 38.2061 41.8738 37.9308 40.2572 37.9909C39.1736 38.0358 38.06 37.8207 37.1375 37.2246C35.8192 36.3785 34.886 35.0149 34.3411 33.5537C33.9672 32.5748 34.0808 31.5123 34.0714 30.4884C34.0664 25.8962 34.0795 21.3033 34.0633 16.7105C34.0471 14.9595 35.057 13.3636 36.3385 12.2606ZM38.9464 14.3229C38.8908 16.9067 38.9033 19.4954 38.9383 22.0811C40.5512 22.1152 42.1647 22.1393 43.777 22.0792C43.8057 19.4935 43.8344 16.9067 43.7564 14.3229C42.1535 14.3394 40.5493 14.3438 38.9464 14.3229ZM55.5717 11.026C56.5717 10.7622 57.6103 10.8659 58.6315 10.8463C59.6496 10.8368 60.7069 10.8191 61.6676 11.214C63.8966 12.1379 65.683 14.3603 65.6637 16.8693C65.6574 19.7789 65.7023 22.6898 65.6399 25.5982C62.401 25.7095 59.1558 25.5754 55.9181 25.6595C55.8476 27.2681 55.9132 28.8799 55.8926 30.4884C55.9169 31.8236 55.832 33.1601 55.9294 34.4928C57.5529 34.4928 59.1764 34.4947 60.7999 34.4833C60.7806 33.0285 60.7519 31.5737 60.8093 30.1208C62.4203 30.1239 64.0326 30.0967 65.6431 30.1353C65.683 31.3503 65.7629 32.6077 65.3846 33.7803C64.894 35.1363 63.9939 36.3773 62.7462 37.1063C61.6726 37.8061 60.373 38.0567 59.1109 37.989C57.601 37.9226 55.9918 38.2206 54.5905 37.498C52.4121 36.3108 50.8959 33.834 51.0282 31.3016C51.032 26.4372 51.027 21.5723 51.0301 16.7092C51.0207 15.4455 51.5607 14.2305 52.3565 13.2794C53.1985 12.2575 54.274 11.3551 55.5717 11.026ZM55.9419 14.3293C55.8545 16.9086 55.8751 19.4935 55.9263 22.0747C57.5304 22.1374 59.1383 22.1184 60.7425 22.0779C60.7712 19.4935 60.7937 16.9067 60.7325 14.3229C59.1365 14.3425 57.5385 14.3394 55.9419 14.3293ZM69.5006 12.8371C70.6191 11.4747 72.3881 10.7071 74.1314 10.809C75.6145 10.897 77.1881 10.5679 78.5863 11.2241C79.4221 11.6145 80.2404 12.1164 80.819 12.8586C81.319 13.4997 81.8764 14.135 82.1261 14.9304C82.5718 16.2315 82.4837 17.6306 82.49 18.9867C82.4968 23.3606 82.4744 27.7345 82.5062 32.1084C82.49 33.6796 81.7073 35.1623 80.5856 36.2153C79.5276 37.3182 78.0589 38.0086 76.5302 37.9827C75.2675 37.9985 74.0066 37.9808 72.7457 37.9858C72.7588 42.0908 72.7794 46.1958 72.7364 50.3008C71.1927 50.3134 69.6429 50.3799 68.1042 50.2729C68.1392 39.1977 68.1186 28.1218 68.1136 17.0459C68.01 15.5316 68.4825 13.9635 69.5006 12.8371ZM72.7495 14.3394C72.762 21.054 72.767 27.7699 72.7457 34.4852C74.3586 34.4947 75.9709 34.4915 77.5845 34.4852C77.5701 27.7687 77.567 21.0509 77.5863 14.3343C75.9741 14.3356 74.3618 14.3248 72.7495 14.3394ZM98.7046 13.4433C99.7926 11.7879 101.721 10.759 103.688 10.8122C105.264 10.8887 106.943 10.5514 108.418 11.2823C109.96 12.0613 111.307 13.3864 111.854 15.0728C112.137 15.8587 112.128 16.7061 112.14 17.5306C112.14 22.1197 112.137 26.7094 112.142 31.2984C112.133 31.916 112.173 32.5412 112.068 33.1532C111.668 34.906 110.414 36.3285 108.943 37.2683C108.087 37.7815 107.078 37.9941 106.09 37.9871C104.88 37.9839 103.673 37.989 102.463 37.9909C102.447 41.2144 102.458 44.4366 102.455 47.6601C102.449 48.5574 102.492 49.4585 102.407 50.3558C100.879 50.3248 99.3531 50.3267 97.827 50.3539C97.7858 39.1407 97.8258 27.9275 97.8077 16.7136C97.7677 15.562 98.0748 14.4039 98.7046 13.4433ZM102.457 14.328C102.457 21.049 102.445 27.7718 102.464 34.4947C104.045 34.4884 105.625 34.4865 107.207 34.5029C107.316 32.5197 107.225 30.5308 107.255 28.5445C107.232 23.8061 107.298 19.0664 107.22 14.3293C105.631 14.3375 104.045 14.3394 102.457 14.328Z" fill="#3C3C3C"/>
</svg>
