<svg width="196" height="46" viewBox="0 0 196 46" fill="none" xmlns="http://www.w3.org/2000/svg">
<path fill-rule="evenodd" clip-rule="evenodd" d="M51.8202 33.0775V14.4727H66.8243V33.0775H63.1593V18.0288H55.4842V33.0775H51.8202ZM77.5448 22.3565H75.4649C73.732 22.3565 72.865 22.9792 72.865 24.1973C72.865 25.3912 73.7078 25.9876 75.3915 25.9876C76.1347 25.9876 76.8519 25.9389 77.5448 25.8144V22.3565ZM80.9373 19.5213V33.0765H77.5448V28.3733C76.8876 28.4939 76.1917 28.6525 75.3509 28.6768L72.5432 33.0765H68.7303L72.0841 28.1981C70.325 27.4519 69.3991 26.1627 69.3991 24.1477C69.3991 21.3865 71.4036 19.5213 75.3663 19.5213H80.9373ZM103.865 20.6655C104.904 21.6852 105.424 23.0784 105.424 24.894V33.0765H101.934V25.54C101.934 23.4764 100.845 22.3818 99.2343 22.3818C97.4753 22.3818 96.2633 23.6505 96.2633 25.6402V33.0775H92.7722V25.5663C92.7722 23.5513 91.7071 22.3818 90.0486 22.3818C88.3408 22.3818 87.1027 23.6505 87.1027 25.6655V33.0775H83.6116V19.5213H87.0283V21.4614C87.7957 20.0438 89.3798 19.1244 91.1379 19.1487C92.8215 19.1487 94.3815 19.9698 95.0996 21.5363C96.0903 20.0438 97.9218 19.1487 99.9273 19.1487C101.538 19.1487 102.849 19.6439 103.865 20.6655ZM132.76 29.0718C133.453 28.3256 133.8 27.4061 133.8 26.3125C133.8 25.217 133.453 24.2975 132.76 23.5503C132.067 22.805 131.175 22.4314 130.061 22.4314C128.972 22.4314 128.08 22.805 127.388 23.5503C126.694 24.2975 126.347 25.217 126.347 26.3125C126.347 27.4061 126.695 28.3266 127.388 29.0728C128.081 29.8191 128.972 30.1917 130.061 30.1917C131.175 30.1917 132.067 29.8191 132.76 29.0728M135.434 21.2376C136.696 22.6056 137.316 24.2975 137.316 26.2872C137.316 28.2769 136.672 29.9679 135.409 31.3369C134.147 32.7039 132.563 33.3995 130.655 33.3995C128.997 33.3995 127.466 32.6718 126.421 31.3836V38.6486H122.93V19.5213H126.396V21.2999C127.505 19.9105 128.972 19.174 130.68 19.174C132.587 19.174 134.171 19.8696 135.434 21.2376ZM145.809 30.1674C146.873 30.1674 147.74 29.7938 148.457 29.0475C149.176 28.2769 149.547 27.3565 149.547 26.2872C149.547 25.217 149.176 24.2975 148.458 23.5513C147.74 22.805 146.873 22.4324 145.809 22.4324C144.743 22.4324 143.852 22.805 143.134 23.5513C142.417 24.2975 142.07 25.218 142.07 26.2872C142.07 27.3565 142.417 28.2769 143.134 29.0475C143.852 29.7938 144.743 30.1664 145.809 30.1664M140.609 21.2376C141.972 19.8443 143.704 19.1487 145.809 19.1487C147.913 19.1487 149.646 19.8443 151.008 21.2376C152.369 22.6056 153.038 24.2975 153.038 26.2872C153.038 28.3013 152.369 29.9932 151.008 31.3612C149.646 32.7282 147.913 33.4258 145.809 33.4258C143.704 33.4258 141.972 32.7282 140.609 31.3612C139.247 29.9932 138.579 28.3022 138.579 26.2872C138.579 24.2975 139.247 22.6056 140.609 21.2376ZM162.867 19.5213H166.359V33.0775H162.867V28.5143C161.846 29.101 160.739 29.3958 159.871 29.3958C158.263 29.3958 157.074 29.0971 156.009 28.3762C154.946 27.6056 154.352 26.1627 154.352 24.0728V19.5213H157.817V23.8247C157.817 25.4164 158.634 26.2123 160.269 26.2123C161.185 26.2123 161.966 26.0839 162.868 25.721V19.5213H162.867ZM177.898 33.0775L172.525 26.8175V33.0775H169.034V19.5009H172.525V24.8794L177.427 19.5213H181.834L175.818 25.7998L182.181 33.0775H177.898Z" fill="#EB2316"/>
<path fill-rule="evenodd" clip-rule="evenodd" d="M191.38 23.5255C190.662 22.7539 189.769 22.3813 188.68 22.3813C187.567 22.3813 186.675 22.7539 185.957 23.5255C185.264 24.2971 184.917 25.2165 184.917 26.2858C184.917 27.3803 185.264 28.3008 185.982 29.0723C186.7 29.8429 187.591 30.2155 188.68 30.2155C189.769 30.2155 190.662 29.8429 191.38 29.0723C192.097 28.3008 192.469 27.3803 192.469 26.2858C192.469 25.2165 192.097 24.2971 191.38 23.5255ZM192.42 19.5208H195.737V33.076H192.42V31.2858C191.26 32.6985 189.82 33.4 188.111 33.4C186.18 33.4 184.571 32.7287 183.307 31.3607C182.045 29.9927 181.426 28.2764 181.426 26.2371C181.426 24.1968 182.07 22.5058 183.332 21.1875C184.596 19.8448 186.205 19.1735 188.111 19.1735C189.795 19.1735 191.28 19.9421 192.42 21.2984V19.5208ZM115.081 16.1135C115.081 14.945 115.998 14.0742 117.185 14.0742C118.349 14.0742 119.241 14.9946 119.241 16.1135C119.241 17.3326 118.349 18.2278 117.185 18.2278C115.998 18.2278 115.081 17.3326 115.081 16.1135ZM110.774 24.9188H117.632C117.31 23.1519 116.047 22.0836 114.265 22.0836C112.506 22.0836 111.194 23.1529 110.774 24.9188ZM111.788 14.0742C112.952 14.0742 113.868 14.9946 113.868 16.1135C113.868 17.3326 112.977 18.2278 111.788 18.2278C110.6 18.2278 109.708 17.3326 109.708 16.1135C109.708 14.9946 110.625 14.0742 111.788 14.0742ZM120.9 27.5302H110.774C111.268 29.445 112.581 30.415 114.71 30.415C116.171 30.415 117.797 29.8653 119.03 28.8826L120.436 31.1038C118.732 32.7063 116.79 33.3747 114.561 33.3747C112.184 33.3747 110.376 32.6791 109.114 31.3111C107.852 29.9431 107.232 28.2511 107.232 26.2867C107.232 24.2221 107.876 22.5311 109.189 21.1885C110.501 19.8448 112.185 19.1725 114.265 19.1725C116.221 19.1725 117.854 19.7942 119.117 21.0133C120.38 22.2324 121.023 23.8738 121.023 25.9871C121.023 26.4599 120.975 26.9834 120.9 27.5302Z" fill="#EB2316"/>
<path fill-rule="evenodd" clip-rule="evenodd" d="M23.5045 0C10.9563 0 0.748047 10.2763 0.748047 22.9082C0.748047 35.5401 10.9563 45.8164 23.5045 45.8164C36.0518 45.8164 46.261 35.5401 46.261 22.9082C46.261 10.2763 36.0518 0 23.5045 0Z" fill="white"/>
<path fill-rule="evenodd" clip-rule="evenodd" d="M34.9881 6.47656C33.2512 10.9609 29.2972 11.894 23.5697 11.894C22.955 11.894 22.3461 11.8842 21.7585 11.8755C21.1901 11.8677 20.6528 11.8589 20.126 11.8589C19.6582 11.8589 19.1866 11.8648 18.7217 11.8852C19.5239 9.90233 20.8045 8.55479 22.6274 7.73751C25.1683 6.59915 28.4718 6.58748 31.3868 6.57872C32.6568 6.57386 33.8727 6.56899 34.9881 6.47656Z" fill="#008F32"/>
<path fill-rule="evenodd" clip-rule="evenodd" d="M36.7727 7.91765C34.2037 13.5511 28.4781 14.1154 23.5702 14.1154C22.4925 14.1154 21.4603 14.0891 20.5044 14.0833L19.2682 18.95C25.5989 13.7544 33.9708 18.9052 33.0758 26.7453C32.4727 32.0255 28.7333 35.4785 24.7773 36.4709C20.4677 37.5529 15.6931 35.9339 13.5523 31.5128C13.3252 31.0457 12.9299 30.1098 12.7791 29.6097L17.3236 28.4343C17.4038 28.698 17.5401 28.9529 17.6832 29.1855C20.7257 34.1252 26.8911 31.6548 27.587 26.5303C28.2954 21.3172 21.0292 18.5404 17.718 24.633L13.6876 22.9041L13.618 22.8729L15.5617 15.0183C15.6815 14.4598 16.0855 12.9002 16.1551 12.6443C18.352 4.51231 25.4587 4.38388 31.1592 4.36247C28.8019 3.37493 26.2174 2.82812 23.5045 2.82812C12.4862 2.82812 3.55566 11.8182 3.55566 22.9099C3.55566 34.0016 12.4862 42.9917 23.5045 42.9917C34.5227 42.9917 43.4532 34.0016 43.4532 22.9099C43.4532 16.9476 40.8707 11.5954 36.7727 7.91765Z" fill="#EB2316"/>
</svg>
