<svg width="194" height="23" viewBox="0 0 194 23" fill="none" xmlns="http://www.w3.org/2000/svg">
<path d="M5.92394 22.2851L0.032959 0.367188H3.93374L8.47138 17.1963L13.3275 0.367188H16.9496L21.8057 17.2764L26.3433 0.367188H30.2043L24.3133 22.2851H19.8155L15.0788 5.93681L10.382 22.2851H5.92394Z" fill="#BE11A5"/>
<path d="M32.9109 0.367188H36.6126V22.2851H32.9109V0.367188Z" fill="#BE11A5"/>
<path d="M44.4539 18.8381H53.4098V22.2841H40.8318V0.40625H44.4539V18.8381Z" fill="#BE11A5"/>
<path d="M64.7943 0.406232C67.6204 0.326094 70.3669 1.48811 72.3173 3.57171C76.3375 7.93926 76.3375 14.751 72.3173 19.1186C70.3669 21.2022 67.6204 22.3642 64.7943 22.284H56.1171V0.406232H64.7943ZM64.7943 18.8381C66.8641 18.8381 68.5757 18.1168 69.8494 16.7144C71.2027 15.2719 71.9192 13.3085 71.8396 11.3451C71.9192 9.34168 71.2027 7.41836 69.8494 5.97586C68.5359 4.57344 66.7049 3.77205 64.7943 3.85219H59.7392V18.8381H64.7943Z" fill="#BE11A5"/>
<path d="M94.7663 16.035C94.8061 17.7179 94.0896 19.3608 92.8557 20.4827C91.582 21.6848 89.9102 22.3259 88.1589 22.2858H78.7253V0.408023H87.4822C89.154 0.367954 90.7859 1.00906 92.0596 2.131C93.2936 3.21287 93.9702 4.81564 93.9304 6.45848C94.01 8.22153 93.1343 9.90444 91.7014 10.9062C93.612 11.8678 94.8061 13.8713 94.7663 16.035ZM82.3475 3.77384V9.54381H87.4822C89.0744 9.54381 90.3481 8.2616 90.3481 6.65883C90.3481 5.05606 89.0744 3.77384 87.4822 3.77384H82.3475ZM88.1589 18.88C89.8306 18.7998 91.1442 17.3974 91.0645 15.7145C91.0247 14.1117 89.7112 12.8295 88.1589 12.7894H82.3475V18.92L88.1589 18.88Z" fill="#BE11A5"/>
<path d="M101.852 18.8381H111.604V22.2841H98.2301V0.40625H111.445V3.85221H101.852V9.54204H110.689V12.9479H101.852V18.8381Z" fill="#BE11A5"/>
<path d="M127.406 22.2827L122.709 14.3089H118.45V22.2827H114.828V0.364787H123.664C125.535 0.324718 127.366 1.08603 128.68 2.44839C130.033 3.7306 130.789 5.53372 130.749 7.41697C130.71 10.2218 128.998 12.7462 126.371 13.7479L131.386 22.2827H127.406ZM118.45 3.77067V11.1033H123.625C125.615 11.0232 127.167 9.30023 127.087 7.2567C127.008 5.37344 125.495 3.85081 123.625 3.77067H118.45Z" fill="#BE11A5"/>
<path d="M146.71 22.2827L142.053 14.3089H137.794V22.2827H134.172V0.364787H143.008C144.879 0.324718 146.71 1.08603 148.023 2.44839C149.377 3.7306 150.133 5.53372 150.093 7.41697C150.053 10.2218 148.342 12.7462 145.715 13.7479L150.73 22.2827H146.71ZM137.794 3.77067V11.1033H142.968C144.998 10.9831 146.511 9.26016 146.391 7.21663C146.272 5.37344 144.799 3.85081 142.968 3.77067H137.794Z" fill="#BE11A5"/>
<path d="M153.357 0.367188H156.979V22.2851H153.357V0.367188Z" fill="#BE11A5"/>
<path d="M164.861 18.8381H174.613V22.2841H161.239V0.40625H174.454V3.85221H164.861V9.54204H173.698V12.9479H164.861V18.8381Z" fill="#BE11A5"/>
<path d="M177.161 17.3153L180.306 15.5121C181.181 17.9964 183.012 19.1985 185.759 19.1985C188.505 19.1985 189.858 18.0365 189.858 16.3135C189.898 15.5121 189.46 14.7108 188.744 14.3101C188.027 13.8292 186.714 13.3083 184.843 12.7474C182.734 12.1062 181.699 11.7056 180.226 10.7439C178.753 9.78223 178.076 8.29967 178.076 6.33627C177.997 4.57323 178.793 2.85025 180.146 1.72831C181.539 0.566299 183.331 -0.0347413 185.162 0.00532801C188.465 -0.11488 191.49 1.80844 192.844 4.81364L189.819 6.53662C188.903 4.53316 187.351 3.49136 185.201 3.49136C183.052 3.49136 181.738 4.53315 181.738 6.21606C181.738 7.89897 182.813 8.58015 186.196 9.62195C187.032 9.90244 187.629 10.1028 188.027 10.2631C188.426 10.4233 188.983 10.6237 189.659 10.9042C190.217 11.1045 190.774 11.4251 191.252 11.7857C192.406 12.7073 193.68 14.1898 193.52 16.2735C193.6 18.1166 192.804 19.8396 191.371 21.0016C189.938 22.1636 188.067 22.7246 185.719 22.7246C181.38 22.6845 178.276 20.641 177.161 17.3153Z" fill="#BE11A5"/>
</svg>
